G04 #@! TF.FileFunction,Legend,Top*
%FSLAX46Y46*%
G04 Gerber Fmt 4.6, Leading zero omitted, Abs format (unit mm)*
G04 Created by KiCad (PCBNEW (2015-10-14 BZR 6267)-product) date 2015 October 25, Sunday 21:22:18*
%MOMM*%
G01*
G04 APERTURE LIST*
%ADD10C,0.100000*%
%ADD11C,0.200000*%
%ADD12C,0.150000*%
%ADD13C,0.250000*%
G04 APERTURE END LIST*
D10*
D11*
X68619048Y-49321429D02*
X69380953Y-49321429D01*
X69000001Y-49702381D02*
X69000001Y-48940476D01*
D12*
X73633333Y-38183333D02*
X73866667Y-38516667D01*
X74033333Y-38183333D02*
X74033333Y-38883333D01*
X73766667Y-38883333D01*
X73700000Y-38850000D01*
X73666667Y-38816667D01*
X73633333Y-38750000D01*
X73633333Y-38650000D01*
X73666667Y-38583333D01*
X73700000Y-38550000D01*
X73766667Y-38516667D01*
X74033333Y-38516667D01*
X73400000Y-38883333D02*
X72933333Y-38183333D01*
X72933333Y-38883333D02*
X73400000Y-38183333D01*
X72233333Y-38883333D02*
X71833333Y-38883333D01*
X72033333Y-38183333D02*
X72033333Y-38883333D01*
X71666667Y-38883333D02*
X71200000Y-38183333D01*
X71200000Y-38883333D02*
X71666667Y-38183333D01*
X70400000Y-38450000D02*
X69866667Y-38450000D01*
X69000000Y-38450000D02*
X68466667Y-38450000D01*
X68733334Y-38183333D02*
X68733334Y-38716667D01*
X67250000Y-47400000D02*
X67250000Y-47600000D01*
X66250000Y-47400000D02*
X66250000Y-47600000D01*
X62625000Y-42875000D02*
X62100000Y-42875000D01*
X62625000Y-50125000D02*
X62100000Y-50125000D01*
X55375000Y-50125000D02*
X55900000Y-50125000D01*
X55375000Y-42875000D02*
X55900000Y-42875000D01*
X62625000Y-42875000D02*
X62625000Y-43400000D01*
X55375000Y-42875000D02*
X55375000Y-43400000D01*
X55375000Y-50125000D02*
X55375000Y-49600000D01*
X62625000Y-50125000D02*
X62625000Y-49600000D01*
X62100000Y-42875000D02*
X62100000Y-41500000D01*
X48150000Y-37875000D02*
X49350000Y-37875000D01*
X49350000Y-39625000D02*
X48150000Y-39625000D01*
X45750000Y-39350000D02*
X45750000Y-39150000D01*
X46750000Y-39350000D02*
X46750000Y-39150000D01*
D13*
X57050000Y-40650000D02*
X57050000Y-40660000D01*
X71750000Y-48625000D02*
X71740000Y-48625000D01*
D12*
X52750000Y-51100000D02*
X52750000Y-50900000D01*
X53750000Y-51100000D02*
X53750000Y-50900000D01*
X63500000Y-51100000D02*
X63500000Y-50900000D01*
X64500000Y-51100000D02*
X64500000Y-50900000D01*
X64850000Y-42500000D02*
X64650000Y-42500000D01*
X64850000Y-41500000D02*
X64650000Y-41500000D01*
X51250000Y-51100000D02*
X51250000Y-50900000D01*
X52250000Y-51100000D02*
X52250000Y-50900000D01*
X56000000Y-39100000D02*
X56000000Y-38900000D01*
X57000000Y-39100000D02*
X57000000Y-38900000D01*
X61500000Y-39100000D02*
X61500000Y-38900000D01*
X62500000Y-39100000D02*
X62500000Y-38900000D01*
X55500000Y-38900000D02*
X55500000Y-39100000D01*
X54500000Y-38900000D02*
X54500000Y-39100000D01*
X68750000Y-47400000D02*
X68750000Y-47600000D01*
X67750000Y-47400000D02*
X67750000Y-47600000D01*
X45500000Y-51100000D02*
X45500000Y-50900000D01*
X46500000Y-51100000D02*
X46500000Y-50900000D01*
X52250000Y-48400000D02*
X52250000Y-48600000D01*
X51250000Y-48400000D02*
X51250000Y-48600000D01*
X66250000Y-42600000D02*
X66250000Y-42400000D01*
X67250000Y-42600000D02*
X67250000Y-42400000D01*
X67750000Y-42600000D02*
X67750000Y-42400000D01*
X68750000Y-42600000D02*
X68750000Y-42400000D01*
X67660780Y-52080960D02*
X68270380Y-52080960D01*
X68270380Y-52080960D02*
X68280540Y-51649160D01*
X69500000Y-40500000D02*
X69875000Y-40875000D01*
X69500000Y-40500000D02*
X69125000Y-40875000D01*
X74750000Y-40875000D02*
X68000000Y-40875000D01*
X74750000Y-40875000D02*
X74750000Y-37675000D01*
X68000000Y-37675000D02*
X74750000Y-37675000D01*
X68000000Y-37675000D02*
X68000000Y-40875000D01*
X53299160Y-39099760D02*
X53250900Y-39099760D01*
X50500180Y-39800800D02*
X50500180Y-39099760D01*
X50500180Y-39099760D02*
X50749100Y-39099760D01*
X53299160Y-39099760D02*
X53499820Y-39099760D01*
X53499820Y-39099760D02*
X53499820Y-39800800D01*
M02*
