%TF.GenerationSoftware,KiCad,Pcbnew,5.1.9*%
%TF.CreationDate,2021-03-09T21:57:36+01:00*%
%TF.ProjectId,can-usb-dongle,63616e2d-7573-4622-9d64-6f6e676c652e,rev?*%
%TF.SameCoordinates,Original*%
%TF.FileFunction,Legend,Bot*%
%TF.FilePolarity,Positive*%
%FSLAX46Y46*%
G04 Gerber Fmt 4.6, Leading zero omitted, Abs format (unit mm)*
G04 Created by KiCad (PCBNEW 5.1.9) date 2021-03-09 21:57:36*
%MOMM*%
%LPD*%
G01*
G04 APERTURE LIST*
%ADD10C,0.150000*%
%ADD11C,0.010000*%
%ADD12C,0.120000*%
G04 APERTURE END LIST*
D10*
X56307023Y-49458333D02*
X55926071Y-49458333D01*
X56383214Y-49686904D02*
X56116547Y-48886904D01*
X55849880Y-49686904D01*
X55583214Y-49153571D02*
X55583214Y-49686904D01*
X55583214Y-49229761D02*
X55545119Y-49191666D01*
X55468928Y-49153571D01*
X55354642Y-49153571D01*
X55278452Y-49191666D01*
X55240357Y-49267857D01*
X55240357Y-49686904D01*
X54973690Y-49153571D02*
X54668928Y-49153571D01*
X54859404Y-48886904D02*
X54859404Y-49572619D01*
X54821309Y-49648809D01*
X54745119Y-49686904D01*
X54668928Y-49686904D01*
X54287976Y-49686904D02*
X54364166Y-49648809D01*
X54402261Y-49610714D01*
X54440357Y-49534523D01*
X54440357Y-49305952D01*
X54402261Y-49229761D01*
X54364166Y-49191666D01*
X54287976Y-49153571D01*
X54173690Y-49153571D01*
X54097500Y-49191666D01*
X54059404Y-49229761D01*
X54021309Y-49305952D01*
X54021309Y-49534523D01*
X54059404Y-49610714D01*
X54097500Y-49648809D01*
X54173690Y-49686904D01*
X54287976Y-49686904D01*
X53678452Y-49686904D02*
X53678452Y-49153571D01*
X53678452Y-48886904D02*
X53716547Y-48925000D01*
X53678452Y-48963095D01*
X53640357Y-48925000D01*
X53678452Y-48886904D01*
X53678452Y-48963095D01*
X53297500Y-49153571D02*
X53297500Y-49686904D01*
X53297500Y-49229761D02*
X53259404Y-49191666D01*
X53183214Y-49153571D01*
X53068928Y-49153571D01*
X52992738Y-49191666D01*
X52954642Y-49267857D01*
X52954642Y-49686904D01*
X52268928Y-49648809D02*
X52345119Y-49686904D01*
X52497500Y-49686904D01*
X52573690Y-49648809D01*
X52611785Y-49572619D01*
X52611785Y-49267857D01*
X52573690Y-49191666D01*
X52497500Y-49153571D01*
X52345119Y-49153571D01*
X52268928Y-49191666D01*
X52230833Y-49267857D01*
X52230833Y-49344047D01*
X52611785Y-49420238D01*
X51316547Y-49458333D02*
X50935595Y-49458333D01*
X51392738Y-49686904D02*
X51126071Y-48886904D01*
X50859404Y-49686904D01*
X50478452Y-49686904D02*
X50554642Y-49648809D01*
X50592738Y-49572619D01*
X50592738Y-48886904D01*
X50173690Y-49686904D02*
X50173690Y-48886904D01*
X50173690Y-49191666D02*
X50097500Y-49153571D01*
X49945119Y-49153571D01*
X49868928Y-49191666D01*
X49830833Y-49229761D01*
X49792738Y-49305952D01*
X49792738Y-49534523D01*
X49830833Y-49610714D01*
X49868928Y-49648809D01*
X49945119Y-49686904D01*
X50097500Y-49686904D01*
X50173690Y-49648809D01*
X49145119Y-49648809D02*
X49221309Y-49686904D01*
X49373690Y-49686904D01*
X49449880Y-49648809D01*
X49487976Y-49572619D01*
X49487976Y-49267857D01*
X49449880Y-49191666D01*
X49373690Y-49153571D01*
X49221309Y-49153571D01*
X49145119Y-49191666D01*
X49107023Y-49267857D01*
X49107023Y-49344047D01*
X49487976Y-49420238D01*
X48764166Y-49686904D02*
X48764166Y-49153571D01*
X48764166Y-49305952D02*
X48726071Y-49229761D01*
X48687976Y-49191666D01*
X48611785Y-49153571D01*
X48535595Y-49153571D01*
X48383214Y-49153571D02*
X48078452Y-49153571D01*
X48268928Y-48886904D02*
X48268928Y-49572619D01*
X48230833Y-49648809D01*
X48154642Y-49686904D01*
X48078452Y-49686904D01*
X47507023Y-49648809D02*
X47583214Y-49686904D01*
X47735595Y-49686904D01*
X47811785Y-49648809D01*
X47849880Y-49572619D01*
X47849880Y-49267857D01*
X47811785Y-49191666D01*
X47735595Y-49153571D01*
X47583214Y-49153571D01*
X47507023Y-49191666D01*
X47468928Y-49267857D01*
X47468928Y-49344047D01*
X47849880Y-49420238D01*
X47011785Y-49686904D02*
X47087976Y-49648809D01*
X47126071Y-49572619D01*
X47126071Y-48886904D01*
X46592738Y-49686904D02*
X46668928Y-49648809D01*
X46707023Y-49572619D01*
X46707023Y-48886904D01*
X46287976Y-49686904D02*
X46287976Y-49153571D01*
X46287976Y-48886904D02*
X46326071Y-48925000D01*
X46287976Y-48963095D01*
X46249880Y-48925000D01*
X46287976Y-48886904D01*
X46287976Y-48963095D01*
X55202261Y-51036904D02*
X55202261Y-50236904D01*
X54935595Y-50808333D01*
X54668928Y-50236904D01*
X54668928Y-51036904D01*
X54287976Y-51036904D02*
X54287976Y-50503571D01*
X54287976Y-50236904D02*
X54326071Y-50275000D01*
X54287976Y-50313095D01*
X54249880Y-50275000D01*
X54287976Y-50236904D01*
X54287976Y-50313095D01*
X53564166Y-50998809D02*
X53640357Y-51036904D01*
X53792738Y-51036904D01*
X53868928Y-50998809D01*
X53907023Y-50960714D01*
X53945119Y-50884523D01*
X53945119Y-50655952D01*
X53907023Y-50579761D01*
X53868928Y-50541666D01*
X53792738Y-50503571D01*
X53640357Y-50503571D01*
X53564166Y-50541666D01*
X53221309Y-51036904D02*
X53221309Y-50236904D01*
X52878452Y-51036904D02*
X52878452Y-50617857D01*
X52916547Y-50541666D01*
X52992738Y-50503571D01*
X53107023Y-50503571D01*
X53183214Y-50541666D01*
X53221309Y-50579761D01*
X52154642Y-51036904D02*
X52154642Y-50617857D01*
X52192738Y-50541666D01*
X52268928Y-50503571D01*
X52421309Y-50503571D01*
X52497500Y-50541666D01*
X52154642Y-50998809D02*
X52230833Y-51036904D01*
X52421309Y-51036904D01*
X52497500Y-50998809D01*
X52535595Y-50922619D01*
X52535595Y-50846428D01*
X52497500Y-50770238D01*
X52421309Y-50732142D01*
X52230833Y-50732142D01*
X52154642Y-50694047D01*
X51468928Y-50998809D02*
X51545119Y-51036904D01*
X51697500Y-51036904D01*
X51773690Y-50998809D01*
X51811785Y-50922619D01*
X51811785Y-50617857D01*
X51773690Y-50541666D01*
X51697500Y-50503571D01*
X51545119Y-50503571D01*
X51468928Y-50541666D01*
X51430833Y-50617857D01*
X51430833Y-50694047D01*
X51811785Y-50770238D01*
X50973690Y-51036904D02*
X51049880Y-50998809D01*
X51087976Y-50922619D01*
X51087976Y-50236904D01*
X50097500Y-50998809D02*
X49983214Y-51036904D01*
X49792738Y-51036904D01*
X49716547Y-50998809D01*
X49678452Y-50960714D01*
X49640357Y-50884523D01*
X49640357Y-50808333D01*
X49678452Y-50732142D01*
X49716547Y-50694047D01*
X49792738Y-50655952D01*
X49945119Y-50617857D01*
X50021309Y-50579761D01*
X50059404Y-50541666D01*
X50097500Y-50465476D01*
X50097500Y-50389285D01*
X50059404Y-50313095D01*
X50021309Y-50275000D01*
X49945119Y-50236904D01*
X49754642Y-50236904D01*
X49640357Y-50275000D01*
X49297500Y-50503571D02*
X49297500Y-51303571D01*
X49297500Y-50541666D02*
X49221309Y-50503571D01*
X49068928Y-50503571D01*
X48992738Y-50541666D01*
X48954642Y-50579761D01*
X48916547Y-50655952D01*
X48916547Y-50884523D01*
X48954642Y-50960714D01*
X48992738Y-50998809D01*
X49068928Y-51036904D01*
X49221309Y-51036904D01*
X49297500Y-50998809D01*
X48573690Y-51036904D02*
X48573690Y-50503571D01*
X48573690Y-50236904D02*
X48611785Y-50275000D01*
X48573690Y-50313095D01*
X48535595Y-50275000D01*
X48573690Y-50236904D01*
X48573690Y-50313095D01*
X47887976Y-50998809D02*
X47964166Y-51036904D01*
X48116547Y-51036904D01*
X48192738Y-50998809D01*
X48230833Y-50922619D01*
X48230833Y-50617857D01*
X48192738Y-50541666D01*
X48116547Y-50503571D01*
X47964166Y-50503571D01*
X47887976Y-50541666D01*
X47849880Y-50617857D01*
X47849880Y-50694047D01*
X48230833Y-50770238D01*
X47392738Y-51036904D02*
X47468928Y-50998809D01*
X47507023Y-50922619D01*
X47507023Y-50236904D01*
X46783214Y-50998809D02*
X46859404Y-51036904D01*
X47011785Y-51036904D01*
X47087976Y-50998809D01*
X47126071Y-50922619D01*
X47126071Y-50617857D01*
X47087976Y-50541666D01*
X47011785Y-50503571D01*
X46859404Y-50503571D01*
X46783214Y-50541666D01*
X46745119Y-50617857D01*
X46745119Y-50694047D01*
X47126071Y-50770238D01*
X46402261Y-51036904D02*
X46402261Y-50503571D01*
X46402261Y-50655952D02*
X46364166Y-50579761D01*
X46326071Y-50541666D01*
X46249880Y-50503571D01*
X46173690Y-50503571D01*
X51911904Y-45209523D02*
X51911904Y-45704761D01*
X52216666Y-45438095D01*
X52216666Y-45552380D01*
X52254761Y-45628571D01*
X52292857Y-45666666D01*
X52369047Y-45704761D01*
X52559523Y-45704761D01*
X52635714Y-45666666D01*
X52673809Y-45628571D01*
X52711904Y-45552380D01*
X52711904Y-45323809D01*
X52673809Y-45247619D01*
X52635714Y-45209523D01*
X51911904Y-45933333D02*
X52711904Y-46200000D01*
X51911904Y-46466666D01*
X51911904Y-46657142D02*
X51911904Y-47152380D01*
X52216666Y-46885714D01*
X52216666Y-47000000D01*
X52254761Y-47076190D01*
X52292857Y-47114285D01*
X52369047Y-47152380D01*
X52559523Y-47152380D01*
X52635714Y-47114285D01*
X52673809Y-47076190D01*
X52711904Y-47000000D01*
X52711904Y-46771428D01*
X52673809Y-46695238D01*
X52635714Y-46657142D01*
X53300000Y-45590476D02*
X53261904Y-45514285D01*
X53261904Y-45400000D01*
X53300000Y-45285714D01*
X53376190Y-45209523D01*
X53452380Y-45171428D01*
X53604761Y-45133333D01*
X53719047Y-45133333D01*
X53871428Y-45171428D01*
X53947619Y-45209523D01*
X54023809Y-45285714D01*
X54061904Y-45400000D01*
X54061904Y-45476190D01*
X54023809Y-45590476D01*
X53985714Y-45628571D01*
X53719047Y-45628571D01*
X53719047Y-45476190D01*
X54061904Y-45971428D02*
X53261904Y-45971428D01*
X54061904Y-46428571D01*
X53261904Y-46428571D01*
X54061904Y-46809523D02*
X53261904Y-46809523D01*
X53261904Y-47000000D01*
X53300000Y-47114285D01*
X53376190Y-47190476D01*
X53452380Y-47228571D01*
X53604761Y-47266666D01*
X53719047Y-47266666D01*
X53871428Y-47228571D01*
X53947619Y-47190476D01*
X54023809Y-47114285D01*
X54061904Y-47000000D01*
X54061904Y-46809523D01*
X55411904Y-45761904D02*
X55030952Y-45495238D01*
X55411904Y-45304761D02*
X54611904Y-45304761D01*
X54611904Y-45609523D01*
X54650000Y-45685714D01*
X54688095Y-45723809D01*
X54764285Y-45761904D01*
X54878571Y-45761904D01*
X54954761Y-45723809D01*
X54992857Y-45685714D01*
X55030952Y-45609523D01*
X55030952Y-45304761D01*
X55373809Y-46066666D02*
X55411904Y-46180952D01*
X55411904Y-46371428D01*
X55373809Y-46447619D01*
X55335714Y-46485714D01*
X55259523Y-46523809D01*
X55183333Y-46523809D01*
X55107142Y-46485714D01*
X55069047Y-46447619D01*
X55030952Y-46371428D01*
X54992857Y-46219047D01*
X54954761Y-46142857D01*
X54916666Y-46104761D01*
X54840476Y-46066666D01*
X54764285Y-46066666D01*
X54688095Y-46104761D01*
X54650000Y-46142857D01*
X54611904Y-46219047D01*
X54611904Y-46409523D01*
X54650000Y-46523809D01*
X54611904Y-46752380D02*
X54611904Y-47209523D01*
X55411904Y-46980952D02*
X54611904Y-46980952D01*
X56761904Y-45380952D02*
X55961904Y-45380952D01*
X55961904Y-45571428D01*
X56000000Y-45685714D01*
X56076190Y-45761904D01*
X56152380Y-45800000D01*
X56304761Y-45838095D01*
X56419047Y-45838095D01*
X56571428Y-45800000D01*
X56647619Y-45761904D01*
X56723809Y-45685714D01*
X56761904Y-45571428D01*
X56761904Y-45380952D01*
X56761904Y-46180952D02*
X55961904Y-46180952D01*
X55961904Y-46714285D02*
X55961904Y-46866666D01*
X56000000Y-46942857D01*
X56076190Y-47019047D01*
X56228571Y-47057142D01*
X56495238Y-47057142D01*
X56647619Y-47019047D01*
X56723809Y-46942857D01*
X56761904Y-46866666D01*
X56761904Y-46714285D01*
X56723809Y-46638095D01*
X56647619Y-46561904D01*
X56495238Y-46523809D01*
X56228571Y-46523809D01*
X56076190Y-46561904D01*
X56000000Y-46638095D01*
X55961904Y-46714285D01*
X58035714Y-45723809D02*
X58073809Y-45685714D01*
X58111904Y-45571428D01*
X58111904Y-45495238D01*
X58073809Y-45380952D01*
X57997619Y-45304761D01*
X57921428Y-45266666D01*
X57769047Y-45228571D01*
X57654761Y-45228571D01*
X57502380Y-45266666D01*
X57426190Y-45304761D01*
X57350000Y-45380952D01*
X57311904Y-45495238D01*
X57311904Y-45571428D01*
X57350000Y-45685714D01*
X57388095Y-45723809D01*
X58111904Y-46447619D02*
X58111904Y-46066666D01*
X57311904Y-46066666D01*
X58111904Y-46714285D02*
X57311904Y-46714285D01*
X58111904Y-47171428D02*
X57654761Y-46828571D01*
X57311904Y-47171428D02*
X57769047Y-46714285D01*
X58661904Y-45590476D02*
X58661904Y-46047619D01*
X59461904Y-45819047D02*
X58661904Y-45819047D01*
X58661904Y-46238095D02*
X59461904Y-46771428D01*
X58661904Y-46771428D02*
X59461904Y-46238095D01*
X60811904Y-46066666D02*
X60430952Y-45800000D01*
X60811904Y-45609523D02*
X60011904Y-45609523D01*
X60011904Y-45914285D01*
X60050000Y-45990476D01*
X60088095Y-46028571D01*
X60164285Y-46066666D01*
X60278571Y-46066666D01*
X60354761Y-46028571D01*
X60392857Y-45990476D01*
X60430952Y-45914285D01*
X60430952Y-45609523D01*
X60011904Y-46333333D02*
X60811904Y-46866666D01*
X60011904Y-46866666D02*
X60811904Y-46333333D01*
X67036904Y-44961785D02*
X67036904Y-45457023D01*
X67341666Y-45190357D01*
X67341666Y-45304642D01*
X67379761Y-45380833D01*
X67417857Y-45418928D01*
X67494047Y-45457023D01*
X67684523Y-45457023D01*
X67760714Y-45418928D01*
X67798809Y-45380833D01*
X67836904Y-45304642D01*
X67836904Y-45076071D01*
X67798809Y-44999880D01*
X67760714Y-44961785D01*
X67036904Y-45685595D02*
X67836904Y-45952261D01*
X67036904Y-46218928D01*
X67036904Y-46409404D02*
X67036904Y-46904642D01*
X67341666Y-46637976D01*
X67341666Y-46752261D01*
X67379761Y-46828452D01*
X67417857Y-46866547D01*
X67494047Y-46904642D01*
X67684523Y-46904642D01*
X67760714Y-46866547D01*
X67798809Y-46828452D01*
X67836904Y-46752261D01*
X67836904Y-46523690D01*
X67798809Y-46447500D01*
X67760714Y-46409404D01*
X68425000Y-45457023D02*
X68386904Y-45380833D01*
X68386904Y-45266547D01*
X68425000Y-45152261D01*
X68501190Y-45076071D01*
X68577380Y-45037976D01*
X68729761Y-44999880D01*
X68844047Y-44999880D01*
X68996428Y-45037976D01*
X69072619Y-45076071D01*
X69148809Y-45152261D01*
X69186904Y-45266547D01*
X69186904Y-45342738D01*
X69148809Y-45457023D01*
X69110714Y-45495119D01*
X68844047Y-45495119D01*
X68844047Y-45342738D01*
X69186904Y-45837976D02*
X68386904Y-45837976D01*
X69186904Y-46295119D01*
X68386904Y-46295119D01*
X69186904Y-46676071D02*
X68386904Y-46676071D01*
X68386904Y-46866547D01*
X68425000Y-46980833D01*
X68501190Y-47057023D01*
X68577380Y-47095119D01*
X68729761Y-47133214D01*
X68844047Y-47133214D01*
X68996428Y-47095119D01*
X69072619Y-47057023D01*
X69148809Y-46980833D01*
X69186904Y-46866547D01*
X69186904Y-46676071D01*
X70536904Y-45495119D02*
X70155952Y-45228452D01*
X70536904Y-45037976D02*
X69736904Y-45037976D01*
X69736904Y-45342738D01*
X69775000Y-45418928D01*
X69813095Y-45457023D01*
X69889285Y-45495119D01*
X70003571Y-45495119D01*
X70079761Y-45457023D01*
X70117857Y-45418928D01*
X70155952Y-45342738D01*
X70155952Y-45037976D01*
X69736904Y-45761785D02*
X70536904Y-46295119D01*
X69736904Y-46295119D02*
X70536904Y-45761785D01*
X71086904Y-44923690D02*
X71086904Y-45380833D01*
X71886904Y-45152261D02*
X71086904Y-45152261D01*
X71086904Y-45571309D02*
X71886904Y-46104642D01*
X71086904Y-46104642D02*
X71886904Y-45571309D01*
X71861904Y-49935714D02*
X71900000Y-49973809D01*
X72014285Y-50011904D01*
X72090476Y-50011904D01*
X72204761Y-49973809D01*
X72280952Y-49897619D01*
X72319047Y-49821428D01*
X72357142Y-49669047D01*
X72357142Y-49554761D01*
X72319047Y-49402380D01*
X72280952Y-49326190D01*
X72204761Y-49250000D01*
X72090476Y-49211904D01*
X72014285Y-49211904D01*
X71900000Y-49250000D01*
X71861904Y-49288095D01*
X71557142Y-49783333D02*
X71176190Y-49783333D01*
X71633333Y-50011904D02*
X71366666Y-49211904D01*
X71100000Y-50011904D01*
X70833333Y-50011904D02*
X70833333Y-49211904D01*
X70376190Y-50011904D01*
X70376190Y-49211904D01*
X69385714Y-49211904D02*
X69385714Y-49859523D01*
X69347619Y-49935714D01*
X69309523Y-49973809D01*
X69233333Y-50011904D01*
X69080952Y-50011904D01*
X69004761Y-49973809D01*
X68966666Y-49935714D01*
X68928571Y-49859523D01*
X68928571Y-49211904D01*
X68585714Y-49973809D02*
X68471428Y-50011904D01*
X68280952Y-50011904D01*
X68204761Y-49973809D01*
X68166666Y-49935714D01*
X68128571Y-49859523D01*
X68128571Y-49783333D01*
X68166666Y-49707142D01*
X68204761Y-49669047D01*
X68280952Y-49630952D01*
X68433333Y-49592857D01*
X68509523Y-49554761D01*
X68547619Y-49516666D01*
X68585714Y-49440476D01*
X68585714Y-49364285D01*
X68547619Y-49288095D01*
X68509523Y-49250000D01*
X68433333Y-49211904D01*
X68242857Y-49211904D01*
X68128571Y-49250000D01*
X67519047Y-49592857D02*
X67404761Y-49630952D01*
X67366666Y-49669047D01*
X67328571Y-49745238D01*
X67328571Y-49859523D01*
X67366666Y-49935714D01*
X67404761Y-49973809D01*
X67480952Y-50011904D01*
X67785714Y-50011904D01*
X67785714Y-49211904D01*
X67519047Y-49211904D01*
X67442857Y-49250000D01*
X67404761Y-49288095D01*
X67366666Y-49364285D01*
X67366666Y-49440476D01*
X67404761Y-49516666D01*
X67442857Y-49554761D01*
X67519047Y-49592857D01*
X67785714Y-49592857D01*
X66376190Y-50011904D02*
X66376190Y-49211904D01*
X66185714Y-49211904D01*
X66071428Y-49250000D01*
X65995238Y-49326190D01*
X65957142Y-49402380D01*
X65919047Y-49554761D01*
X65919047Y-49669047D01*
X65957142Y-49821428D01*
X65995238Y-49897619D01*
X66071428Y-49973809D01*
X66185714Y-50011904D01*
X66376190Y-50011904D01*
X65461904Y-50011904D02*
X65538095Y-49973809D01*
X65576190Y-49935714D01*
X65614285Y-49859523D01*
X65614285Y-49630952D01*
X65576190Y-49554761D01*
X65538095Y-49516666D01*
X65461904Y-49478571D01*
X65347619Y-49478571D01*
X65271428Y-49516666D01*
X65233333Y-49554761D01*
X65195238Y-49630952D01*
X65195238Y-49859523D01*
X65233333Y-49935714D01*
X65271428Y-49973809D01*
X65347619Y-50011904D01*
X65461904Y-50011904D01*
X64852380Y-49478571D02*
X64852380Y-50011904D01*
X64852380Y-49554761D02*
X64814285Y-49516666D01*
X64738095Y-49478571D01*
X64623809Y-49478571D01*
X64547619Y-49516666D01*
X64509523Y-49592857D01*
X64509523Y-50011904D01*
X63785714Y-49478571D02*
X63785714Y-50126190D01*
X63823809Y-50202380D01*
X63861904Y-50240476D01*
X63938095Y-50278571D01*
X64052380Y-50278571D01*
X64128571Y-50240476D01*
X63785714Y-49973809D02*
X63861904Y-50011904D01*
X64014285Y-50011904D01*
X64090476Y-49973809D01*
X64128571Y-49935714D01*
X64166666Y-49859523D01*
X64166666Y-49630952D01*
X64128571Y-49554761D01*
X64090476Y-49516666D01*
X64014285Y-49478571D01*
X63861904Y-49478571D01*
X63785714Y-49516666D01*
X63290476Y-50011904D02*
X63366666Y-49973809D01*
X63404761Y-49897619D01*
X63404761Y-49211904D01*
X62680952Y-49973809D02*
X62757142Y-50011904D01*
X62909523Y-50011904D01*
X62985714Y-49973809D01*
X63023809Y-49897619D01*
X63023809Y-49592857D01*
X62985714Y-49516666D01*
X62909523Y-49478571D01*
X62757142Y-49478571D01*
X62680952Y-49516666D01*
X62642857Y-49592857D01*
X62642857Y-49669047D01*
X63023809Y-49745238D01*
X70947619Y-51361904D02*
X71214285Y-50980952D01*
X71404761Y-51361904D02*
X71404761Y-50561904D01*
X71100000Y-50561904D01*
X71023809Y-50600000D01*
X70985714Y-50638095D01*
X70947619Y-50714285D01*
X70947619Y-50828571D01*
X70985714Y-50904761D01*
X71023809Y-50942857D01*
X71100000Y-50980952D01*
X71404761Y-50980952D01*
X70300000Y-51323809D02*
X70376190Y-51361904D01*
X70528571Y-51361904D01*
X70604761Y-51323809D01*
X70642857Y-51247619D01*
X70642857Y-50942857D01*
X70604761Y-50866666D01*
X70528571Y-50828571D01*
X70376190Y-50828571D01*
X70300000Y-50866666D01*
X70261904Y-50942857D01*
X70261904Y-51019047D01*
X70642857Y-51095238D01*
X69995238Y-50828571D02*
X69804761Y-51361904D01*
X69614285Y-50828571D01*
X68776190Y-50561904D02*
X68280952Y-50561904D01*
X68547619Y-50866666D01*
X68433333Y-50866666D01*
X68357142Y-50904761D01*
X68319047Y-50942857D01*
X68280952Y-51019047D01*
X68280952Y-51209523D01*
X68319047Y-51285714D01*
X68357142Y-51323809D01*
X68433333Y-51361904D01*
X68661904Y-51361904D01*
X68738095Y-51323809D01*
X68776190Y-51285714D01*
X67100000Y-51666666D02*
X67138095Y-51628571D01*
X67214285Y-51514285D01*
X67252380Y-51438095D01*
X67290476Y-51323809D01*
X67328571Y-51133333D01*
X67328571Y-50980952D01*
X67290476Y-50790476D01*
X67252380Y-50676190D01*
X67214285Y-50600000D01*
X67138095Y-50485714D01*
X67100000Y-50447619D01*
X66833333Y-50638095D02*
X66795238Y-50600000D01*
X66719047Y-50561904D01*
X66528571Y-50561904D01*
X66452380Y-50600000D01*
X66414285Y-50638095D01*
X66376190Y-50714285D01*
X66376190Y-50790476D01*
X66414285Y-50904761D01*
X66871428Y-51361904D01*
X66376190Y-51361904D01*
X65880952Y-50561904D02*
X65804761Y-50561904D01*
X65728571Y-50600000D01*
X65690476Y-50638095D01*
X65652380Y-50714285D01*
X65614285Y-50866666D01*
X65614285Y-51057142D01*
X65652380Y-51209523D01*
X65690476Y-51285714D01*
X65728571Y-51323809D01*
X65804761Y-51361904D01*
X65880952Y-51361904D01*
X65957142Y-51323809D01*
X65995238Y-51285714D01*
X66033333Y-51209523D01*
X66071428Y-51057142D01*
X66071428Y-50866666D01*
X66033333Y-50714285D01*
X65995238Y-50638095D01*
X65957142Y-50600000D01*
X65880952Y-50561904D01*
X65309523Y-50638095D02*
X65271428Y-50600000D01*
X65195238Y-50561904D01*
X65004761Y-50561904D01*
X64928571Y-50600000D01*
X64890476Y-50638095D01*
X64852380Y-50714285D01*
X64852380Y-50790476D01*
X64890476Y-50904761D01*
X65347619Y-51361904D01*
X64852380Y-51361904D01*
X64090476Y-51361904D02*
X64547619Y-51361904D01*
X64319047Y-51361904D02*
X64319047Y-50561904D01*
X64395238Y-50676190D01*
X64471428Y-50752380D01*
X64547619Y-50790476D01*
X63823809Y-51666666D02*
X63785714Y-51628571D01*
X63709523Y-51514285D01*
X63671428Y-51438095D01*
X63633333Y-51323809D01*
X63595238Y-51133333D01*
X63595238Y-50980952D01*
X63633333Y-50790476D01*
X63671428Y-50676190D01*
X63709523Y-50600000D01*
X63785714Y-50485714D01*
X63823809Y-50447619D01*
X69119047Y-52673809D02*
X69195238Y-52711904D01*
X69347619Y-52711904D01*
X69423809Y-52673809D01*
X69461904Y-52635714D01*
X69500000Y-52559523D01*
X69500000Y-52330952D01*
X69461904Y-52254761D01*
X69423809Y-52216666D01*
X69347619Y-52178571D01*
X69195238Y-52178571D01*
X69119047Y-52216666D01*
X68852380Y-52178571D02*
X68661904Y-52711904D01*
X68471428Y-52178571D01*
X68166666Y-52711904D02*
X68166666Y-52178571D01*
X68166666Y-52330952D02*
X68128571Y-52254761D01*
X68090476Y-52216666D01*
X68014285Y-52178571D01*
X67938095Y-52178571D01*
X67328571Y-52711904D02*
X67328571Y-52292857D01*
X67366666Y-52216666D01*
X67442857Y-52178571D01*
X67595238Y-52178571D01*
X67671428Y-52216666D01*
X67328571Y-52673809D02*
X67404761Y-52711904D01*
X67595238Y-52711904D01*
X67671428Y-52673809D01*
X67709523Y-52597619D01*
X67709523Y-52521428D01*
X67671428Y-52445238D01*
X67595238Y-52407142D01*
X67404761Y-52407142D01*
X67328571Y-52369047D01*
X66947619Y-52635714D02*
X66909523Y-52673809D01*
X66947619Y-52711904D01*
X66985714Y-52673809D01*
X66947619Y-52635714D01*
X66947619Y-52711904D01*
X66223809Y-52673809D02*
X66300000Y-52711904D01*
X66452380Y-52711904D01*
X66528571Y-52673809D01*
X66566666Y-52635714D01*
X66604761Y-52559523D01*
X66604761Y-52330952D01*
X66566666Y-52254761D01*
X66528571Y-52216666D01*
X66452380Y-52178571D01*
X66300000Y-52178571D01*
X66223809Y-52216666D01*
X65880952Y-52711904D02*
X65880952Y-51911904D01*
X65538095Y-52711904D02*
X65538095Y-52292857D01*
X65576190Y-52216666D01*
X65652380Y-52178571D01*
X65766666Y-52178571D01*
X65842857Y-52216666D01*
X65880952Y-52254761D01*
D11*
%TO.C,G\u002A\u002A\u002A*%
G36*
X59095991Y-51572681D02*
G01*
X59181778Y-51572670D01*
X59259857Y-51572646D01*
X59330607Y-51572607D01*
X59394408Y-51572548D01*
X59451639Y-51572465D01*
X59502679Y-51572356D01*
X59547908Y-51572215D01*
X59587704Y-51572039D01*
X59622448Y-51571826D01*
X59652519Y-51571569D01*
X59678295Y-51571267D01*
X59700157Y-51570915D01*
X59718483Y-51570510D01*
X59733653Y-51570047D01*
X59746046Y-51569523D01*
X59756042Y-51568934D01*
X59764019Y-51568277D01*
X59770358Y-51567547D01*
X59775437Y-51566742D01*
X59779636Y-51565856D01*
X59783167Y-51564934D01*
X59830245Y-51549509D01*
X59870926Y-51531229D01*
X59907081Y-51509079D01*
X59940575Y-51482045D01*
X59947202Y-51475884D01*
X59958522Y-51464904D01*
X59968767Y-51454294D01*
X59978488Y-51443238D01*
X59988233Y-51430922D01*
X59998553Y-51416528D01*
X60009997Y-51399243D01*
X60023115Y-51378249D01*
X60038456Y-51352732D01*
X60056569Y-51321876D01*
X60078006Y-51284866D01*
X60090226Y-51263650D01*
X60111272Y-51227079D01*
X60134129Y-51187373D01*
X60157659Y-51146508D01*
X60180725Y-51106458D01*
X60202190Y-51069198D01*
X60220918Y-51036701D01*
X60225903Y-51028056D01*
X60286072Y-50923694D01*
X59957361Y-50734210D01*
X59908872Y-50706261D01*
X59862471Y-50679518D01*
X59818685Y-50654285D01*
X59778038Y-50630865D01*
X59741055Y-50609560D01*
X59708262Y-50590672D01*
X59680184Y-50574503D01*
X59657347Y-50561357D01*
X59640274Y-50551536D01*
X59629493Y-50545343D01*
X59625531Y-50543082D01*
X59621469Y-50545235D01*
X59613195Y-50552382D01*
X59602158Y-50563217D01*
X59596167Y-50569494D01*
X59546507Y-50617303D01*
X59490188Y-50662112D01*
X59428784Y-50702889D01*
X59363870Y-50738603D01*
X59297021Y-50768220D01*
X59287025Y-50772036D01*
X59209344Y-50796596D01*
X59129765Y-50813140D01*
X59049010Y-50821702D01*
X58967800Y-50822318D01*
X58886858Y-50815021D01*
X58806904Y-50799847D01*
X58728662Y-50776831D01*
X58652851Y-50746006D01*
X58642284Y-50740978D01*
X58576165Y-50705388D01*
X58515433Y-50665048D01*
X58458217Y-50618612D01*
X58415800Y-50578283D01*
X58401753Y-50564260D01*
X58389909Y-50552778D01*
X58381492Y-50545001D01*
X58377727Y-50542090D01*
X58377700Y-50542090D01*
X58373805Y-50544190D01*
X58363106Y-50550229D01*
X58346128Y-50559906D01*
X58323396Y-50572918D01*
X58295435Y-50588966D01*
X58262769Y-50607747D01*
X58225922Y-50628959D01*
X58185419Y-50652301D01*
X58141785Y-50677471D01*
X58095544Y-50704168D01*
X58049617Y-50730705D01*
X58001332Y-50758630D01*
X57955132Y-50785380D01*
X57911545Y-50810646D01*
X57871099Y-50834121D01*
X57834322Y-50855498D01*
X57801741Y-50874470D01*
X57773884Y-50890729D01*
X57751279Y-50903968D01*
X57734454Y-50913879D01*
X57723937Y-50920155D01*
X57720273Y-50922468D01*
X57721644Y-50926704D01*
X57726928Y-50937504D01*
X57735712Y-50954154D01*
X57747584Y-50975940D01*
X57762130Y-51002148D01*
X57778937Y-51032064D01*
X57797591Y-51064973D01*
X57817680Y-51100163D01*
X57838791Y-51136919D01*
X57860509Y-51174528D01*
X57882423Y-51212274D01*
X57904119Y-51249445D01*
X57925184Y-51285326D01*
X57945204Y-51319204D01*
X57963767Y-51350364D01*
X57980460Y-51378093D01*
X57994868Y-51401677D01*
X58006580Y-51420401D01*
X58015181Y-51433552D01*
X58019475Y-51439494D01*
X58055527Y-51477640D01*
X58097543Y-51510648D01*
X58144180Y-51537659D01*
X58194096Y-51557811D01*
X58212600Y-51563219D01*
X58248583Y-51572684D01*
X59002117Y-51572684D01*
X59095991Y-51572681D01*
G37*
X59095991Y-51572681D02*
X59181778Y-51572670D01*
X59259857Y-51572646D01*
X59330607Y-51572607D01*
X59394408Y-51572548D01*
X59451639Y-51572465D01*
X59502679Y-51572356D01*
X59547908Y-51572215D01*
X59587704Y-51572039D01*
X59622448Y-51571826D01*
X59652519Y-51571569D01*
X59678295Y-51571267D01*
X59700157Y-51570915D01*
X59718483Y-51570510D01*
X59733653Y-51570047D01*
X59746046Y-51569523D01*
X59756042Y-51568934D01*
X59764019Y-51568277D01*
X59770358Y-51567547D01*
X59775437Y-51566742D01*
X59779636Y-51565856D01*
X59783167Y-51564934D01*
X59830245Y-51549509D01*
X59870926Y-51531229D01*
X59907081Y-51509079D01*
X59940575Y-51482045D01*
X59947202Y-51475884D01*
X59958522Y-51464904D01*
X59968767Y-51454294D01*
X59978488Y-51443238D01*
X59988233Y-51430922D01*
X59998553Y-51416528D01*
X60009997Y-51399243D01*
X60023115Y-51378249D01*
X60038456Y-51352732D01*
X60056569Y-51321876D01*
X60078006Y-51284866D01*
X60090226Y-51263650D01*
X60111272Y-51227079D01*
X60134129Y-51187373D01*
X60157659Y-51146508D01*
X60180725Y-51106458D01*
X60202190Y-51069198D01*
X60220918Y-51036701D01*
X60225903Y-51028056D01*
X60286072Y-50923694D01*
X59957361Y-50734210D01*
X59908872Y-50706261D01*
X59862471Y-50679518D01*
X59818685Y-50654285D01*
X59778038Y-50630865D01*
X59741055Y-50609560D01*
X59708262Y-50590672D01*
X59680184Y-50574503D01*
X59657347Y-50561357D01*
X59640274Y-50551536D01*
X59629493Y-50545343D01*
X59625531Y-50543082D01*
X59621469Y-50545235D01*
X59613195Y-50552382D01*
X59602158Y-50563217D01*
X59596167Y-50569494D01*
X59546507Y-50617303D01*
X59490188Y-50662112D01*
X59428784Y-50702889D01*
X59363870Y-50738603D01*
X59297021Y-50768220D01*
X59287025Y-50772036D01*
X59209344Y-50796596D01*
X59129765Y-50813140D01*
X59049010Y-50821702D01*
X58967800Y-50822318D01*
X58886858Y-50815021D01*
X58806904Y-50799847D01*
X58728662Y-50776831D01*
X58652851Y-50746006D01*
X58642284Y-50740978D01*
X58576165Y-50705388D01*
X58515433Y-50665048D01*
X58458217Y-50618612D01*
X58415800Y-50578283D01*
X58401753Y-50564260D01*
X58389909Y-50552778D01*
X58381492Y-50545001D01*
X58377727Y-50542090D01*
X58377700Y-50542090D01*
X58373805Y-50544190D01*
X58363106Y-50550229D01*
X58346128Y-50559906D01*
X58323396Y-50572918D01*
X58295435Y-50588966D01*
X58262769Y-50607747D01*
X58225922Y-50628959D01*
X58185419Y-50652301D01*
X58141785Y-50677471D01*
X58095544Y-50704168D01*
X58049617Y-50730705D01*
X58001332Y-50758630D01*
X57955132Y-50785380D01*
X57911545Y-50810646D01*
X57871099Y-50834121D01*
X57834322Y-50855498D01*
X57801741Y-50874470D01*
X57773884Y-50890729D01*
X57751279Y-50903968D01*
X57734454Y-50913879D01*
X57723937Y-50920155D01*
X57720273Y-50922468D01*
X57721644Y-50926704D01*
X57726928Y-50937504D01*
X57735712Y-50954154D01*
X57747584Y-50975940D01*
X57762130Y-51002148D01*
X57778937Y-51032064D01*
X57797591Y-51064973D01*
X57817680Y-51100163D01*
X57838791Y-51136919D01*
X57860509Y-51174528D01*
X57882423Y-51212274D01*
X57904119Y-51249445D01*
X57925184Y-51285326D01*
X57945204Y-51319204D01*
X57963767Y-51350364D01*
X57980460Y-51378093D01*
X57994868Y-51401677D01*
X58006580Y-51420401D01*
X58015181Y-51433552D01*
X58019475Y-51439494D01*
X58055527Y-51477640D01*
X58097543Y-51510648D01*
X58144180Y-51537659D01*
X58194096Y-51557811D01*
X58212600Y-51563219D01*
X58248583Y-51572684D01*
X59002117Y-51572684D01*
X59095991Y-51572681D01*
G36*
X59065156Y-50544836D02*
G01*
X59105125Y-50539032D01*
X59108939Y-50538247D01*
X59175259Y-50520005D01*
X59237774Y-50494510D01*
X59296007Y-50462189D01*
X59349484Y-50423472D01*
X59397726Y-50378786D01*
X59440259Y-50328559D01*
X59476606Y-50273221D01*
X59506290Y-50213197D01*
X59523978Y-50165100D01*
X59533581Y-50132276D01*
X59540396Y-50102285D01*
X59544803Y-50072429D01*
X59547183Y-50040012D01*
X59547918Y-50002334D01*
X59547909Y-49995767D01*
X59546975Y-49955957D01*
X59544183Y-49921613D01*
X59539076Y-49889848D01*
X59531198Y-49857779D01*
X59520801Y-49824615D01*
X59495374Y-49762298D01*
X59462920Y-49704245D01*
X59423987Y-49650940D01*
X59379122Y-49602865D01*
X59328874Y-49560501D01*
X59273790Y-49524332D01*
X59214419Y-49494839D01*
X59151307Y-49472506D01*
X59109160Y-49462182D01*
X59074508Y-49456649D01*
X59035925Y-49453036D01*
X58996623Y-49451490D01*
X58959809Y-49452158D01*
X58935845Y-49454193D01*
X58869717Y-49466510D01*
X58806363Y-49486481D01*
X58746360Y-49513638D01*
X58690288Y-49547514D01*
X58638726Y-49587642D01*
X58592253Y-49633555D01*
X58551448Y-49684786D01*
X58516891Y-49740867D01*
X58489159Y-49801332D01*
X58482316Y-49820084D01*
X58467556Y-49869585D01*
X58458153Y-49917895D01*
X58453556Y-49968381D01*
X58452876Y-50000000D01*
X58456554Y-50064848D01*
X58467355Y-50128406D01*
X58484927Y-50189138D01*
X58508919Y-50245505D01*
X58508944Y-50245554D01*
X58529197Y-50281145D01*
X58554398Y-50318357D01*
X58582378Y-50354225D01*
X58610970Y-50385781D01*
X58612535Y-50387350D01*
X58664228Y-50433078D01*
X58720225Y-50471571D01*
X58780219Y-50502661D01*
X58843901Y-50526183D01*
X58890215Y-50537993D01*
X58930125Y-50544205D01*
X58974614Y-50547419D01*
X59020638Y-50547630D01*
X59065156Y-50544836D01*
G37*
X59065156Y-50544836D02*
X59105125Y-50539032D01*
X59108939Y-50538247D01*
X59175259Y-50520005D01*
X59237774Y-50494510D01*
X59296007Y-50462189D01*
X59349484Y-50423472D01*
X59397726Y-50378786D01*
X59440259Y-50328559D01*
X59476606Y-50273221D01*
X59506290Y-50213197D01*
X59523978Y-50165100D01*
X59533581Y-50132276D01*
X59540396Y-50102285D01*
X59544803Y-50072429D01*
X59547183Y-50040012D01*
X59547918Y-50002334D01*
X59547909Y-49995767D01*
X59546975Y-49955957D01*
X59544183Y-49921613D01*
X59539076Y-49889848D01*
X59531198Y-49857779D01*
X59520801Y-49824615D01*
X59495374Y-49762298D01*
X59462920Y-49704245D01*
X59423987Y-49650940D01*
X59379122Y-49602865D01*
X59328874Y-49560501D01*
X59273790Y-49524332D01*
X59214419Y-49494839D01*
X59151307Y-49472506D01*
X59109160Y-49462182D01*
X59074508Y-49456649D01*
X59035925Y-49453036D01*
X58996623Y-49451490D01*
X58959809Y-49452158D01*
X58935845Y-49454193D01*
X58869717Y-49466510D01*
X58806363Y-49486481D01*
X58746360Y-49513638D01*
X58690288Y-49547514D01*
X58638726Y-49587642D01*
X58592253Y-49633555D01*
X58551448Y-49684786D01*
X58516891Y-49740867D01*
X58489159Y-49801332D01*
X58482316Y-49820084D01*
X58467556Y-49869585D01*
X58458153Y-49917895D01*
X58453556Y-49968381D01*
X58452876Y-50000000D01*
X58456554Y-50064848D01*
X58467355Y-50128406D01*
X58484927Y-50189138D01*
X58508919Y-50245505D01*
X58508944Y-50245554D01*
X58529197Y-50281145D01*
X58554398Y-50318357D01*
X58582378Y-50354225D01*
X58610970Y-50385781D01*
X58612535Y-50387350D01*
X58664228Y-50433078D01*
X58720225Y-50471571D01*
X58780219Y-50502661D01*
X58843901Y-50526183D01*
X58890215Y-50537993D01*
X58930125Y-50544205D01*
X58974614Y-50547419D01*
X59020638Y-50547630D01*
X59065156Y-50544836D01*
G36*
X60444873Y-50644084D02*
G01*
X60451466Y-50633856D01*
X60461384Y-50617702D01*
X60474208Y-50596346D01*
X60489523Y-50570512D01*
X60506912Y-50540925D01*
X60525957Y-50508309D01*
X60546242Y-50473389D01*
X60567351Y-50436890D01*
X60588865Y-50399535D01*
X60610370Y-50362049D01*
X60631447Y-50325157D01*
X60651680Y-50289583D01*
X60670652Y-50256051D01*
X60687947Y-50225287D01*
X60703147Y-50198014D01*
X60715836Y-50174958D01*
X60725597Y-50156842D01*
X60732013Y-50144390D01*
X60733979Y-50140185D01*
X60750003Y-50092571D01*
X60759074Y-50041859D01*
X60761193Y-49989769D01*
X60756359Y-49938024D01*
X60744572Y-49888343D01*
X60734023Y-49859917D01*
X60730476Y-49852909D01*
X60722951Y-49839051D01*
X60711720Y-49818814D01*
X60697056Y-49792670D01*
X60679229Y-49761092D01*
X60658513Y-49724552D01*
X60635179Y-49683522D01*
X60609498Y-49638474D01*
X60581744Y-49589881D01*
X60552187Y-49538214D01*
X60521099Y-49483946D01*
X60488753Y-49427549D01*
X60455420Y-49369495D01*
X60421373Y-49310256D01*
X60386882Y-49250305D01*
X60352221Y-49190114D01*
X60317660Y-49130154D01*
X60283473Y-49070899D01*
X60249930Y-49012820D01*
X60217304Y-48956389D01*
X60185866Y-48902078D01*
X60155889Y-48850361D01*
X60127644Y-48801708D01*
X60101403Y-48756593D01*
X60077438Y-48715487D01*
X60056022Y-48678862D01*
X60037425Y-48647191D01*
X60021920Y-48620946D01*
X60009779Y-48600599D01*
X60001273Y-48586622D01*
X59996825Y-48579699D01*
X59970740Y-48547786D01*
X59938865Y-48517091D01*
X59903445Y-48489408D01*
X59866724Y-48466529D01*
X59838200Y-48453002D01*
X59826496Y-48448263D01*
X59816243Y-48444153D01*
X59806775Y-48440625D01*
X59797423Y-48437631D01*
X59787520Y-48435125D01*
X59776398Y-48433059D01*
X59763391Y-48431385D01*
X59747829Y-48430057D01*
X59729047Y-48429027D01*
X59706375Y-48428247D01*
X59679148Y-48427671D01*
X59646696Y-48427251D01*
X59608353Y-48426941D01*
X59563451Y-48426691D01*
X59511323Y-48426456D01*
X59460375Y-48426230D01*
X59156633Y-48424834D01*
X59156633Y-49190243D01*
X59200917Y-49201290D01*
X59279815Y-49225255D01*
X59355228Y-49256724D01*
X59426708Y-49295296D01*
X59493805Y-49340572D01*
X59556072Y-49392150D01*
X59613057Y-49449633D01*
X59664314Y-49512618D01*
X59709392Y-49580706D01*
X59747844Y-49653497D01*
X59771715Y-49710017D01*
X59791820Y-49769083D01*
X59806561Y-49827066D01*
X59816343Y-49886262D01*
X59821569Y-49948970D01*
X59822744Y-50000000D01*
X59822278Y-50042230D01*
X59820572Y-50078644D01*
X59817300Y-50111842D01*
X59812134Y-50144428D01*
X59804747Y-50179001D01*
X59795753Y-50214630D01*
X59790774Y-50233717D01*
X59786726Y-50249869D01*
X59784046Y-50261292D01*
X59783167Y-50266084D01*
X59786567Y-50270160D01*
X59795395Y-50276650D01*
X59805392Y-50282774D01*
X59817419Y-50289657D01*
X59834647Y-50299568D01*
X59854957Y-50311284D01*
X59876227Y-50323584D01*
X59880534Y-50326078D01*
X59903294Y-50339253D01*
X59931899Y-50355793D01*
X59965342Y-50375117D01*
X60002615Y-50396645D01*
X60042711Y-50419794D01*
X60084624Y-50443986D01*
X60127345Y-50468637D01*
X60169869Y-50493168D01*
X60211188Y-50516997D01*
X60250294Y-50539543D01*
X60286182Y-50560225D01*
X60317843Y-50578462D01*
X60344271Y-50593674D01*
X60364459Y-50605278D01*
X60365820Y-50606060D01*
X60388261Y-50618838D01*
X60408253Y-50630025D01*
X60424621Y-50638979D01*
X60436188Y-50645058D01*
X60441778Y-50647619D01*
X60442020Y-50647660D01*
X60444873Y-50644084D01*
G37*
X60444873Y-50644084D02*
X60451466Y-50633856D01*
X60461384Y-50617702D01*
X60474208Y-50596346D01*
X60489523Y-50570512D01*
X60506912Y-50540925D01*
X60525957Y-50508309D01*
X60546242Y-50473389D01*
X60567351Y-50436890D01*
X60588865Y-50399535D01*
X60610370Y-50362049D01*
X60631447Y-50325157D01*
X60651680Y-50289583D01*
X60670652Y-50256051D01*
X60687947Y-50225287D01*
X60703147Y-50198014D01*
X60715836Y-50174958D01*
X60725597Y-50156842D01*
X60732013Y-50144390D01*
X60733979Y-50140185D01*
X60750003Y-50092571D01*
X60759074Y-50041859D01*
X60761193Y-49989769D01*
X60756359Y-49938024D01*
X60744572Y-49888343D01*
X60734023Y-49859917D01*
X60730476Y-49852909D01*
X60722951Y-49839051D01*
X60711720Y-49818814D01*
X60697056Y-49792670D01*
X60679229Y-49761092D01*
X60658513Y-49724552D01*
X60635179Y-49683522D01*
X60609498Y-49638474D01*
X60581744Y-49589881D01*
X60552187Y-49538214D01*
X60521099Y-49483946D01*
X60488753Y-49427549D01*
X60455420Y-49369495D01*
X60421373Y-49310256D01*
X60386882Y-49250305D01*
X60352221Y-49190114D01*
X60317660Y-49130154D01*
X60283473Y-49070899D01*
X60249930Y-49012820D01*
X60217304Y-48956389D01*
X60185866Y-48902078D01*
X60155889Y-48850361D01*
X60127644Y-48801708D01*
X60101403Y-48756593D01*
X60077438Y-48715487D01*
X60056022Y-48678862D01*
X60037425Y-48647191D01*
X60021920Y-48620946D01*
X60009779Y-48600599D01*
X60001273Y-48586622D01*
X59996825Y-48579699D01*
X59970740Y-48547786D01*
X59938865Y-48517091D01*
X59903445Y-48489408D01*
X59866724Y-48466529D01*
X59838200Y-48453002D01*
X59826496Y-48448263D01*
X59816243Y-48444153D01*
X59806775Y-48440625D01*
X59797423Y-48437631D01*
X59787520Y-48435125D01*
X59776398Y-48433059D01*
X59763391Y-48431385D01*
X59747829Y-48430057D01*
X59729047Y-48429027D01*
X59706375Y-48428247D01*
X59679148Y-48427671D01*
X59646696Y-48427251D01*
X59608353Y-48426941D01*
X59563451Y-48426691D01*
X59511323Y-48426456D01*
X59460375Y-48426230D01*
X59156633Y-48424834D01*
X59156633Y-49190243D01*
X59200917Y-49201290D01*
X59279815Y-49225255D01*
X59355228Y-49256724D01*
X59426708Y-49295296D01*
X59493805Y-49340572D01*
X59556072Y-49392150D01*
X59613057Y-49449633D01*
X59664314Y-49512618D01*
X59709392Y-49580706D01*
X59747844Y-49653497D01*
X59771715Y-49710017D01*
X59791820Y-49769083D01*
X59806561Y-49827066D01*
X59816343Y-49886262D01*
X59821569Y-49948970D01*
X59822744Y-50000000D01*
X59822278Y-50042230D01*
X59820572Y-50078644D01*
X59817300Y-50111842D01*
X59812134Y-50144428D01*
X59804747Y-50179001D01*
X59795753Y-50214630D01*
X59790774Y-50233717D01*
X59786726Y-50249869D01*
X59784046Y-50261292D01*
X59783167Y-50266084D01*
X59786567Y-50270160D01*
X59795395Y-50276650D01*
X59805392Y-50282774D01*
X59817419Y-50289657D01*
X59834647Y-50299568D01*
X59854957Y-50311284D01*
X59876227Y-50323584D01*
X59880534Y-50326078D01*
X59903294Y-50339253D01*
X59931899Y-50355793D01*
X59965342Y-50375117D01*
X60002615Y-50396645D01*
X60042711Y-50419794D01*
X60084624Y-50443986D01*
X60127345Y-50468637D01*
X60169869Y-50493168D01*
X60211188Y-50516997D01*
X60250294Y-50539543D01*
X60286182Y-50560225D01*
X60317843Y-50578462D01*
X60344271Y-50593674D01*
X60364459Y-50605278D01*
X60365820Y-50606060D01*
X60388261Y-50618838D01*
X60408253Y-50630025D01*
X60424621Y-50638979D01*
X60436188Y-50645058D01*
X60441778Y-50647619D01*
X60442020Y-50647660D01*
X60444873Y-50644084D01*
G36*
X57561616Y-50648565D02*
G01*
X57571924Y-50642793D01*
X57588186Y-50633564D01*
X57609713Y-50621272D01*
X57635820Y-50606310D01*
X57665820Y-50589072D01*
X57699025Y-50569950D01*
X57734749Y-50549337D01*
X57746933Y-50542298D01*
X57789896Y-50517476D01*
X57835951Y-50490875D01*
X57883518Y-50463407D01*
X57931020Y-50435983D01*
X57976878Y-50409514D01*
X58019513Y-50384912D01*
X58057347Y-50363089D01*
X58077133Y-50351680D01*
X58108637Y-50333508D01*
X58137772Y-50316686D01*
X58163739Y-50301675D01*
X58185738Y-50288939D01*
X58202972Y-50278939D01*
X58214640Y-50272139D01*
X58219944Y-50269001D01*
X58220176Y-50268849D01*
X58219566Y-50264613D01*
X58216966Y-50253970D01*
X58212816Y-50238624D01*
X58208597Y-50223846D01*
X58199051Y-50188667D01*
X58191825Y-50155786D01*
X58186581Y-50122834D01*
X58182980Y-50087444D01*
X58180682Y-50047247D01*
X58179877Y-50023188D01*
X58179688Y-49963401D01*
X58182800Y-49909037D01*
X58189552Y-49857585D01*
X58200281Y-49806536D01*
X58215327Y-49753380D01*
X58216997Y-49748117D01*
X58245564Y-49672389D01*
X58281399Y-49600252D01*
X58323990Y-49532180D01*
X58372821Y-49468648D01*
X58427380Y-49410129D01*
X58487153Y-49357098D01*
X58551625Y-49310030D01*
X58620285Y-49269397D01*
X58692617Y-49235674D01*
X58768109Y-49209336D01*
X58813414Y-49197568D01*
X58843367Y-49190755D01*
X58843367Y-48425200D01*
X58552325Y-48425537D01*
X58492475Y-48425639D01*
X58440518Y-48425803D01*
X58395878Y-48426041D01*
X58357983Y-48426364D01*
X58326257Y-48426784D01*
X58300128Y-48427311D01*
X58279020Y-48427956D01*
X58262359Y-48428731D01*
X58249572Y-48429648D01*
X58240083Y-48430717D01*
X58234245Y-48431739D01*
X58178297Y-48447843D01*
X58127227Y-48470765D01*
X58081219Y-48500384D01*
X58040454Y-48536580D01*
X58005116Y-48579233D01*
X57999989Y-48586632D01*
X57995336Y-48594064D01*
X57986777Y-48608320D01*
X57974589Y-48628924D01*
X57959044Y-48655400D01*
X57940417Y-48687272D01*
X57918982Y-48724063D01*
X57895014Y-48765299D01*
X57868785Y-48810502D01*
X57840571Y-48859196D01*
X57810645Y-48910907D01*
X57779282Y-48965157D01*
X57746756Y-49021471D01*
X57713341Y-49079372D01*
X57679311Y-49138385D01*
X57644940Y-49198033D01*
X57610502Y-49257841D01*
X57576272Y-49317332D01*
X57542523Y-49376031D01*
X57509531Y-49433461D01*
X57477568Y-49489146D01*
X57446908Y-49542611D01*
X57417827Y-49593379D01*
X57390599Y-49640974D01*
X57365496Y-49684920D01*
X57342794Y-49724742D01*
X57322767Y-49759962D01*
X57305689Y-49790106D01*
X57291833Y-49814696D01*
X57281474Y-49833258D01*
X57274887Y-49845314D01*
X57272625Y-49849717D01*
X57259463Y-49880880D01*
X57250319Y-49910020D01*
X57244650Y-49939830D01*
X57241913Y-49973002D01*
X57241474Y-50004234D01*
X57241901Y-50029743D01*
X57242961Y-50049356D01*
X57244969Y-50065636D01*
X57248245Y-50081148D01*
X57253104Y-50098457D01*
X57253154Y-50098623D01*
X57260014Y-50119267D01*
X57268070Y-50140485D01*
X57275808Y-50158342D01*
X57277357Y-50161507D01*
X57280816Y-50167870D01*
X57287951Y-50180602D01*
X57298335Y-50198959D01*
X57311539Y-50222195D01*
X57327137Y-50249567D01*
X57344701Y-50280327D01*
X57363802Y-50313732D01*
X57384015Y-50349036D01*
X57404910Y-50385493D01*
X57426061Y-50422360D01*
X57447039Y-50458890D01*
X57467418Y-50494338D01*
X57486769Y-50527960D01*
X57504665Y-50559010D01*
X57520679Y-50586743D01*
X57534383Y-50610414D01*
X57545349Y-50629278D01*
X57553149Y-50642589D01*
X57557357Y-50649602D01*
X57557948Y-50650488D01*
X57561616Y-50648565D01*
G37*
X57561616Y-50648565D02*
X57571924Y-50642793D01*
X57588186Y-50633564D01*
X57609713Y-50621272D01*
X57635820Y-50606310D01*
X57665820Y-50589072D01*
X57699025Y-50569950D01*
X57734749Y-50549337D01*
X57746933Y-50542298D01*
X57789896Y-50517476D01*
X57835951Y-50490875D01*
X57883518Y-50463407D01*
X57931020Y-50435983D01*
X57976878Y-50409514D01*
X58019513Y-50384912D01*
X58057347Y-50363089D01*
X58077133Y-50351680D01*
X58108637Y-50333508D01*
X58137772Y-50316686D01*
X58163739Y-50301675D01*
X58185738Y-50288939D01*
X58202972Y-50278939D01*
X58214640Y-50272139D01*
X58219944Y-50269001D01*
X58220176Y-50268849D01*
X58219566Y-50264613D01*
X58216966Y-50253970D01*
X58212816Y-50238624D01*
X58208597Y-50223846D01*
X58199051Y-50188667D01*
X58191825Y-50155786D01*
X58186581Y-50122834D01*
X58182980Y-50087444D01*
X58180682Y-50047247D01*
X58179877Y-50023188D01*
X58179688Y-49963401D01*
X58182800Y-49909037D01*
X58189552Y-49857585D01*
X58200281Y-49806536D01*
X58215327Y-49753380D01*
X58216997Y-49748117D01*
X58245564Y-49672389D01*
X58281399Y-49600252D01*
X58323990Y-49532180D01*
X58372821Y-49468648D01*
X58427380Y-49410129D01*
X58487153Y-49357098D01*
X58551625Y-49310030D01*
X58620285Y-49269397D01*
X58692617Y-49235674D01*
X58768109Y-49209336D01*
X58813414Y-49197568D01*
X58843367Y-49190755D01*
X58843367Y-48425200D01*
X58552325Y-48425537D01*
X58492475Y-48425639D01*
X58440518Y-48425803D01*
X58395878Y-48426041D01*
X58357983Y-48426364D01*
X58326257Y-48426784D01*
X58300128Y-48427311D01*
X58279020Y-48427956D01*
X58262359Y-48428731D01*
X58249572Y-48429648D01*
X58240083Y-48430717D01*
X58234245Y-48431739D01*
X58178297Y-48447843D01*
X58127227Y-48470765D01*
X58081219Y-48500384D01*
X58040454Y-48536580D01*
X58005116Y-48579233D01*
X57999989Y-48586632D01*
X57995336Y-48594064D01*
X57986777Y-48608320D01*
X57974589Y-48628924D01*
X57959044Y-48655400D01*
X57940417Y-48687272D01*
X57918982Y-48724063D01*
X57895014Y-48765299D01*
X57868785Y-48810502D01*
X57840571Y-48859196D01*
X57810645Y-48910907D01*
X57779282Y-48965157D01*
X57746756Y-49021471D01*
X57713341Y-49079372D01*
X57679311Y-49138385D01*
X57644940Y-49198033D01*
X57610502Y-49257841D01*
X57576272Y-49317332D01*
X57542523Y-49376031D01*
X57509531Y-49433461D01*
X57477568Y-49489146D01*
X57446908Y-49542611D01*
X57417827Y-49593379D01*
X57390599Y-49640974D01*
X57365496Y-49684920D01*
X57342794Y-49724742D01*
X57322767Y-49759962D01*
X57305689Y-49790106D01*
X57291833Y-49814696D01*
X57281474Y-49833258D01*
X57274887Y-49845314D01*
X57272625Y-49849717D01*
X57259463Y-49880880D01*
X57250319Y-49910020D01*
X57244650Y-49939830D01*
X57241913Y-49973002D01*
X57241474Y-50004234D01*
X57241901Y-50029743D01*
X57242961Y-50049356D01*
X57244969Y-50065636D01*
X57248245Y-50081148D01*
X57253104Y-50098457D01*
X57253154Y-50098623D01*
X57260014Y-50119267D01*
X57268070Y-50140485D01*
X57275808Y-50158342D01*
X57277357Y-50161507D01*
X57280816Y-50167870D01*
X57287951Y-50180602D01*
X57298335Y-50198959D01*
X57311539Y-50222195D01*
X57327137Y-50249567D01*
X57344701Y-50280327D01*
X57363802Y-50313732D01*
X57384015Y-50349036D01*
X57404910Y-50385493D01*
X57426061Y-50422360D01*
X57447039Y-50458890D01*
X57467418Y-50494338D01*
X57486769Y-50527960D01*
X57504665Y-50559010D01*
X57520679Y-50586743D01*
X57534383Y-50610414D01*
X57545349Y-50629278D01*
X57553149Y-50642589D01*
X57557357Y-50649602D01*
X57557948Y-50650488D01*
X57561616Y-50648565D01*
%TO.C,REF\u002A\u002A*%
G36*
X52400256Y-60919918D02*
G01*
X52344799Y-60947568D01*
X52295852Y-60998480D01*
X52282371Y-61017338D01*
X52267686Y-61042015D01*
X52258158Y-61068816D01*
X52252707Y-61104587D01*
X52250253Y-61156169D01*
X52249714Y-61224267D01*
X52252148Y-61317588D01*
X52260606Y-61387657D01*
X52276826Y-61439931D01*
X52302546Y-61479869D01*
X52339503Y-61512929D01*
X52342218Y-61514886D01*
X52378640Y-61534908D01*
X52422498Y-61544815D01*
X52478276Y-61547257D01*
X52568952Y-61547257D01*
X52568990Y-61635283D01*
X52569834Y-61684308D01*
X52574976Y-61713065D01*
X52588413Y-61730311D01*
X52614142Y-61744808D01*
X52620321Y-61747769D01*
X52649236Y-61761648D01*
X52671624Y-61770414D01*
X52688271Y-61771171D01*
X52699964Y-61761023D01*
X52707490Y-61737073D01*
X52711634Y-61696426D01*
X52713185Y-61636186D01*
X52712929Y-61553455D01*
X52711651Y-61445339D01*
X52711252Y-61413000D01*
X52709815Y-61301524D01*
X52708528Y-61228603D01*
X52569029Y-61228603D01*
X52568245Y-61290499D01*
X52564760Y-61330997D01*
X52556876Y-61357708D01*
X52542895Y-61378244D01*
X52533403Y-61388260D01*
X52494596Y-61417567D01*
X52460237Y-61419952D01*
X52424784Y-61395750D01*
X52423886Y-61394857D01*
X52409461Y-61376153D01*
X52400687Y-61350732D01*
X52396261Y-61311584D01*
X52394882Y-61251697D01*
X52394857Y-61238430D01*
X52398188Y-61155901D01*
X52409031Y-61098691D01*
X52428660Y-61063766D01*
X52458350Y-61048094D01*
X52475509Y-61046514D01*
X52516234Y-61053926D01*
X52544168Y-61078330D01*
X52560983Y-61122980D01*
X52568350Y-61191130D01*
X52569029Y-61228603D01*
X52708528Y-61228603D01*
X52708292Y-61215245D01*
X52706323Y-61150333D01*
X52703550Y-61102958D01*
X52699612Y-61069290D01*
X52694151Y-61045498D01*
X52686808Y-61027753D01*
X52677223Y-61012224D01*
X52673113Y-61006381D01*
X52618595Y-60951185D01*
X52549664Y-60919890D01*
X52469928Y-60911165D01*
X52400256Y-60919918D01*
G37*
X52400256Y-60919918D02*
X52344799Y-60947568D01*
X52295852Y-60998480D01*
X52282371Y-61017338D01*
X52267686Y-61042015D01*
X52258158Y-61068816D01*
X52252707Y-61104587D01*
X52250253Y-61156169D01*
X52249714Y-61224267D01*
X52252148Y-61317588D01*
X52260606Y-61387657D01*
X52276826Y-61439931D01*
X52302546Y-61479869D01*
X52339503Y-61512929D01*
X52342218Y-61514886D01*
X52378640Y-61534908D01*
X52422498Y-61544815D01*
X52478276Y-61547257D01*
X52568952Y-61547257D01*
X52568990Y-61635283D01*
X52569834Y-61684308D01*
X52574976Y-61713065D01*
X52588413Y-61730311D01*
X52614142Y-61744808D01*
X52620321Y-61747769D01*
X52649236Y-61761648D01*
X52671624Y-61770414D01*
X52688271Y-61771171D01*
X52699964Y-61761023D01*
X52707490Y-61737073D01*
X52711634Y-61696426D01*
X52713185Y-61636186D01*
X52712929Y-61553455D01*
X52711651Y-61445339D01*
X52711252Y-61413000D01*
X52709815Y-61301524D01*
X52708528Y-61228603D01*
X52569029Y-61228603D01*
X52568245Y-61290499D01*
X52564760Y-61330997D01*
X52556876Y-61357708D01*
X52542895Y-61378244D01*
X52533403Y-61388260D01*
X52494596Y-61417567D01*
X52460237Y-61419952D01*
X52424784Y-61395750D01*
X52423886Y-61394857D01*
X52409461Y-61376153D01*
X52400687Y-61350732D01*
X52396261Y-61311584D01*
X52394882Y-61251697D01*
X52394857Y-61238430D01*
X52398188Y-61155901D01*
X52409031Y-61098691D01*
X52428660Y-61063766D01*
X52458350Y-61048094D01*
X52475509Y-61046514D01*
X52516234Y-61053926D01*
X52544168Y-61078330D01*
X52560983Y-61122980D01*
X52568350Y-61191130D01*
X52569029Y-61228603D01*
X52708528Y-61228603D01*
X52708292Y-61215245D01*
X52706323Y-61150333D01*
X52703550Y-61102958D01*
X52699612Y-61069290D01*
X52694151Y-61045498D01*
X52686808Y-61027753D01*
X52677223Y-61012224D01*
X52673113Y-61006381D01*
X52618595Y-60951185D01*
X52549664Y-60919890D01*
X52469928Y-60911165D01*
X52400256Y-60919918D01*
G36*
X51283907Y-60927780D02*
G01*
X51237328Y-60954723D01*
X51204943Y-60981466D01*
X51181258Y-61009484D01*
X51164941Y-61043748D01*
X51154661Y-61089227D01*
X51149086Y-61150892D01*
X51146884Y-61233711D01*
X51146629Y-61293246D01*
X51146629Y-61512391D01*
X51208314Y-61540044D01*
X51270000Y-61567697D01*
X51277257Y-61327670D01*
X51280256Y-61238028D01*
X51283402Y-61172962D01*
X51287299Y-61128026D01*
X51292553Y-61098770D01*
X51299769Y-61080748D01*
X51309550Y-61069511D01*
X51312688Y-61067079D01*
X51360239Y-61048083D01*
X51408303Y-61055600D01*
X51436914Y-61075543D01*
X51448553Y-61089675D01*
X51456609Y-61108220D01*
X51461729Y-61136334D01*
X51464559Y-61179173D01*
X51465744Y-61241895D01*
X51465943Y-61307261D01*
X51465982Y-61389268D01*
X51467386Y-61447316D01*
X51472086Y-61486465D01*
X51482013Y-61511780D01*
X51499097Y-61528323D01*
X51525268Y-61541156D01*
X51560225Y-61554491D01*
X51598404Y-61569007D01*
X51593859Y-61311389D01*
X51592029Y-61218519D01*
X51589888Y-61149889D01*
X51586819Y-61100711D01*
X51582206Y-61066198D01*
X51575432Y-61041562D01*
X51565881Y-61022016D01*
X51554366Y-61004770D01*
X51498810Y-60949680D01*
X51431020Y-60917822D01*
X51357287Y-60910191D01*
X51283907Y-60927780D01*
G37*
X51283907Y-60927780D02*
X51237328Y-60954723D01*
X51204943Y-60981466D01*
X51181258Y-61009484D01*
X51164941Y-61043748D01*
X51154661Y-61089227D01*
X51149086Y-61150892D01*
X51146884Y-61233711D01*
X51146629Y-61293246D01*
X51146629Y-61512391D01*
X51208314Y-61540044D01*
X51270000Y-61567697D01*
X51277257Y-61327670D01*
X51280256Y-61238028D01*
X51283402Y-61172962D01*
X51287299Y-61128026D01*
X51292553Y-61098770D01*
X51299769Y-61080748D01*
X51309550Y-61069511D01*
X51312688Y-61067079D01*
X51360239Y-61048083D01*
X51408303Y-61055600D01*
X51436914Y-61075543D01*
X51448553Y-61089675D01*
X51456609Y-61108220D01*
X51461729Y-61136334D01*
X51464559Y-61179173D01*
X51465744Y-61241895D01*
X51465943Y-61307261D01*
X51465982Y-61389268D01*
X51467386Y-61447316D01*
X51472086Y-61486465D01*
X51482013Y-61511780D01*
X51499097Y-61528323D01*
X51525268Y-61541156D01*
X51560225Y-61554491D01*
X51598404Y-61569007D01*
X51593859Y-61311389D01*
X51592029Y-61218519D01*
X51589888Y-61149889D01*
X51586819Y-61100711D01*
X51582206Y-61066198D01*
X51575432Y-61041562D01*
X51565881Y-61022016D01*
X51554366Y-61004770D01*
X51498810Y-60949680D01*
X51431020Y-60917822D01*
X51357287Y-60910191D01*
X51283907Y-60927780D01*
G36*
X52958885Y-60921962D02*
G01*
X52890855Y-60957733D01*
X52840649Y-61015301D01*
X52822815Y-61052312D01*
X52808937Y-61107882D01*
X52801833Y-61178096D01*
X52801160Y-61254727D01*
X52806573Y-61329552D01*
X52817730Y-61394342D01*
X52834286Y-61440873D01*
X52839374Y-61448887D01*
X52899645Y-61508707D01*
X52971231Y-61544535D01*
X53048908Y-61555020D01*
X53127452Y-61538810D01*
X53149311Y-61529092D01*
X53191878Y-61499143D01*
X53229237Y-61459433D01*
X53232768Y-61454397D01*
X53247119Y-61430124D01*
X53256606Y-61404178D01*
X53262210Y-61370022D01*
X53264914Y-61321119D01*
X53265701Y-61250935D01*
X53265714Y-61235200D01*
X53265678Y-61230192D01*
X53120571Y-61230192D01*
X53119727Y-61296430D01*
X53116404Y-61340386D01*
X53109417Y-61368779D01*
X53097584Y-61388325D01*
X53091543Y-61394857D01*
X53056814Y-61419680D01*
X53023097Y-61418548D01*
X52989005Y-61397016D01*
X52968671Y-61374029D01*
X52956629Y-61340478D01*
X52949866Y-61287569D01*
X52949402Y-61281399D01*
X52948248Y-61185513D01*
X52960312Y-61114299D01*
X52985430Y-61068194D01*
X53023440Y-61047635D01*
X53037008Y-61046514D01*
X53072636Y-61052152D01*
X53097006Y-61071686D01*
X53111907Y-61109042D01*
X53119125Y-61168150D01*
X53120571Y-61230192D01*
X53265678Y-61230192D01*
X53265174Y-61160413D01*
X53262904Y-61108159D01*
X53257932Y-61071949D01*
X53249287Y-61045299D01*
X53235995Y-61021722D01*
X53233057Y-61017338D01*
X53183687Y-60958249D01*
X53129891Y-60923947D01*
X53064398Y-60910331D01*
X53042158Y-60909665D01*
X52958885Y-60921962D01*
G37*
X52958885Y-60921962D02*
X52890855Y-60957733D01*
X52840649Y-61015301D01*
X52822815Y-61052312D01*
X52808937Y-61107882D01*
X52801833Y-61178096D01*
X52801160Y-61254727D01*
X52806573Y-61329552D01*
X52817730Y-61394342D01*
X52834286Y-61440873D01*
X52839374Y-61448887D01*
X52899645Y-61508707D01*
X52971231Y-61544535D01*
X53048908Y-61555020D01*
X53127452Y-61538810D01*
X53149311Y-61529092D01*
X53191878Y-61499143D01*
X53229237Y-61459433D01*
X53232768Y-61454397D01*
X53247119Y-61430124D01*
X53256606Y-61404178D01*
X53262210Y-61370022D01*
X53264914Y-61321119D01*
X53265701Y-61250935D01*
X53265714Y-61235200D01*
X53265678Y-61230192D01*
X53120571Y-61230192D01*
X53119727Y-61296430D01*
X53116404Y-61340386D01*
X53109417Y-61368779D01*
X53097584Y-61388325D01*
X53091543Y-61394857D01*
X53056814Y-61419680D01*
X53023097Y-61418548D01*
X52989005Y-61397016D01*
X52968671Y-61374029D01*
X52956629Y-61340478D01*
X52949866Y-61287569D01*
X52949402Y-61281399D01*
X52948248Y-61185513D01*
X52960312Y-61114299D01*
X52985430Y-61068194D01*
X53023440Y-61047635D01*
X53037008Y-61046514D01*
X53072636Y-61052152D01*
X53097006Y-61071686D01*
X53111907Y-61109042D01*
X53119125Y-61168150D01*
X53120571Y-61230192D01*
X53265678Y-61230192D01*
X53265174Y-61160413D01*
X53262904Y-61108159D01*
X53257932Y-61071949D01*
X53249287Y-61045299D01*
X53235995Y-61021722D01*
X53233057Y-61017338D01*
X53183687Y-60958249D01*
X53129891Y-60923947D01*
X53064398Y-60910331D01*
X53042158Y-60909665D01*
X52958885Y-60921962D01*
G36*
X51831697Y-60931239D02*
G01*
X51774473Y-60969735D01*
X51730251Y-61025335D01*
X51703833Y-61096086D01*
X51698490Y-61148162D01*
X51699097Y-61169893D01*
X51704178Y-61186531D01*
X51718145Y-61201437D01*
X51745411Y-61217973D01*
X51790388Y-61239498D01*
X51857489Y-61269374D01*
X51857829Y-61269524D01*
X51919593Y-61297813D01*
X51970241Y-61322933D01*
X52004596Y-61342179D01*
X52017482Y-61352848D01*
X52017486Y-61352934D01*
X52006128Y-61376166D01*
X51979569Y-61401774D01*
X51949077Y-61420221D01*
X51933630Y-61423886D01*
X51891485Y-61411212D01*
X51855192Y-61379471D01*
X51837483Y-61344572D01*
X51820448Y-61318845D01*
X51787078Y-61289546D01*
X51747851Y-61264235D01*
X51713244Y-61250471D01*
X51706007Y-61249714D01*
X51697861Y-61262160D01*
X51697370Y-61293972D01*
X51703357Y-61336866D01*
X51714643Y-61382558D01*
X51730050Y-61422761D01*
X51730829Y-61424322D01*
X51777196Y-61489062D01*
X51837289Y-61533097D01*
X51905535Y-61554711D01*
X51976362Y-61552185D01*
X52044196Y-61523804D01*
X52047212Y-61521808D01*
X52100573Y-61473448D01*
X52135660Y-61410352D01*
X52155078Y-61327387D01*
X52157684Y-61304078D01*
X52162299Y-61194055D01*
X52156767Y-61142748D01*
X52017486Y-61142748D01*
X52015676Y-61174753D01*
X52005778Y-61184093D01*
X51981102Y-61177105D01*
X51942205Y-61160587D01*
X51898725Y-61139881D01*
X51897644Y-61139333D01*
X51860791Y-61119949D01*
X51846000Y-61107013D01*
X51849647Y-61093451D01*
X51865005Y-61075632D01*
X51904077Y-61049845D01*
X51946154Y-61047950D01*
X51983897Y-61066717D01*
X52009966Y-61102915D01*
X52017486Y-61142748D01*
X52156767Y-61142748D01*
X52152806Y-61106027D01*
X52128450Y-61036212D01*
X52094544Y-60987302D01*
X52033347Y-60937878D01*
X51965937Y-60913359D01*
X51897120Y-60911797D01*
X51831697Y-60931239D01*
G37*
X51831697Y-60931239D02*
X51774473Y-60969735D01*
X51730251Y-61025335D01*
X51703833Y-61096086D01*
X51698490Y-61148162D01*
X51699097Y-61169893D01*
X51704178Y-61186531D01*
X51718145Y-61201437D01*
X51745411Y-61217973D01*
X51790388Y-61239498D01*
X51857489Y-61269374D01*
X51857829Y-61269524D01*
X51919593Y-61297813D01*
X51970241Y-61322933D01*
X52004596Y-61342179D01*
X52017482Y-61352848D01*
X52017486Y-61352934D01*
X52006128Y-61376166D01*
X51979569Y-61401774D01*
X51949077Y-61420221D01*
X51933630Y-61423886D01*
X51891485Y-61411212D01*
X51855192Y-61379471D01*
X51837483Y-61344572D01*
X51820448Y-61318845D01*
X51787078Y-61289546D01*
X51747851Y-61264235D01*
X51713244Y-61250471D01*
X51706007Y-61249714D01*
X51697861Y-61262160D01*
X51697370Y-61293972D01*
X51703357Y-61336866D01*
X51714643Y-61382558D01*
X51730050Y-61422761D01*
X51730829Y-61424322D01*
X51777196Y-61489062D01*
X51837289Y-61533097D01*
X51905535Y-61554711D01*
X51976362Y-61552185D01*
X52044196Y-61523804D01*
X52047212Y-61521808D01*
X52100573Y-61473448D01*
X52135660Y-61410352D01*
X52155078Y-61327387D01*
X52157684Y-61304078D01*
X52162299Y-61194055D01*
X52156767Y-61142748D01*
X52017486Y-61142748D01*
X52015676Y-61174753D01*
X52005778Y-61184093D01*
X51981102Y-61177105D01*
X51942205Y-61160587D01*
X51898725Y-61139881D01*
X51897644Y-61139333D01*
X51860791Y-61119949D01*
X51846000Y-61107013D01*
X51849647Y-61093451D01*
X51865005Y-61075632D01*
X51904077Y-61049845D01*
X51946154Y-61047950D01*
X51983897Y-61066717D01*
X52009966Y-61102915D01*
X52017486Y-61142748D01*
X52156767Y-61142748D01*
X52152806Y-61106027D01*
X52128450Y-61036212D01*
X52094544Y-60987302D01*
X52033347Y-60937878D01*
X51965937Y-60913359D01*
X51897120Y-60911797D01*
X51831697Y-60931239D01*
G36*
X50624114Y-60851289D02*
G01*
X50619861Y-60910613D01*
X50614975Y-60945572D01*
X50608205Y-60960820D01*
X50598298Y-60961015D01*
X50595086Y-60959195D01*
X50552356Y-60946015D01*
X50496773Y-60946785D01*
X50440263Y-60960333D01*
X50404918Y-60977861D01*
X50368679Y-61005861D01*
X50342187Y-61037549D01*
X50324001Y-61077813D01*
X50312678Y-61131543D01*
X50306778Y-61203626D01*
X50304857Y-61298951D01*
X50304823Y-61317237D01*
X50304800Y-61522646D01*
X50350509Y-61538580D01*
X50382973Y-61549420D01*
X50400785Y-61554468D01*
X50401309Y-61554514D01*
X50403063Y-61540828D01*
X50404556Y-61503076D01*
X50405674Y-61446224D01*
X50406303Y-61375234D01*
X50406400Y-61332073D01*
X50406602Y-61246973D01*
X50407642Y-61185981D01*
X50410169Y-61144177D01*
X50414836Y-61116642D01*
X50422293Y-61098456D01*
X50433189Y-61084698D01*
X50439993Y-61078073D01*
X50486728Y-61051375D01*
X50537728Y-61049375D01*
X50583999Y-61071955D01*
X50592556Y-61080107D01*
X50605107Y-61095436D01*
X50613812Y-61113618D01*
X50619369Y-61139909D01*
X50622474Y-61179562D01*
X50623824Y-61237832D01*
X50624114Y-61318173D01*
X50624114Y-61522646D01*
X50669823Y-61538580D01*
X50702287Y-61549420D01*
X50720099Y-61554468D01*
X50720623Y-61554514D01*
X50721963Y-61540623D01*
X50723172Y-61501439D01*
X50724199Y-61440700D01*
X50724998Y-61362141D01*
X50725519Y-61269498D01*
X50725714Y-61166509D01*
X50725714Y-60769342D01*
X50678543Y-60749444D01*
X50631371Y-60729547D01*
X50624114Y-60851289D01*
G37*
X50624114Y-60851289D02*
X50619861Y-60910613D01*
X50614975Y-60945572D01*
X50608205Y-60960820D01*
X50598298Y-60961015D01*
X50595086Y-60959195D01*
X50552356Y-60946015D01*
X50496773Y-60946785D01*
X50440263Y-60960333D01*
X50404918Y-60977861D01*
X50368679Y-61005861D01*
X50342187Y-61037549D01*
X50324001Y-61077813D01*
X50312678Y-61131543D01*
X50306778Y-61203626D01*
X50304857Y-61298951D01*
X50304823Y-61317237D01*
X50304800Y-61522646D01*
X50350509Y-61538580D01*
X50382973Y-61549420D01*
X50400785Y-61554468D01*
X50401309Y-61554514D01*
X50403063Y-61540828D01*
X50404556Y-61503076D01*
X50405674Y-61446224D01*
X50406303Y-61375234D01*
X50406400Y-61332073D01*
X50406602Y-61246973D01*
X50407642Y-61185981D01*
X50410169Y-61144177D01*
X50414836Y-61116642D01*
X50422293Y-61098456D01*
X50433189Y-61084698D01*
X50439993Y-61078073D01*
X50486728Y-61051375D01*
X50537728Y-61049375D01*
X50583999Y-61071955D01*
X50592556Y-61080107D01*
X50605107Y-61095436D01*
X50613812Y-61113618D01*
X50619369Y-61139909D01*
X50622474Y-61179562D01*
X50623824Y-61237832D01*
X50624114Y-61318173D01*
X50624114Y-61522646D01*
X50669823Y-61538580D01*
X50702287Y-61549420D01*
X50720099Y-61554468D01*
X50720623Y-61554514D01*
X50721963Y-61540623D01*
X50723172Y-61501439D01*
X50724199Y-61440700D01*
X50724998Y-61362141D01*
X50725519Y-61269498D01*
X50725714Y-61166509D01*
X50725714Y-60769342D01*
X50678543Y-60749444D01*
X50631371Y-60729547D01*
X50624114Y-60851289D01*
G36*
X49960256Y-60950968D02*
G01*
X49903384Y-60972087D01*
X49902733Y-60972493D01*
X49867560Y-60998380D01*
X49841593Y-61028633D01*
X49823330Y-61068058D01*
X49811268Y-61121462D01*
X49803904Y-61193651D01*
X49799736Y-61289432D01*
X49799371Y-61303078D01*
X49794124Y-61508842D01*
X49838284Y-61531678D01*
X49870237Y-61547110D01*
X49889530Y-61554423D01*
X49890422Y-61554514D01*
X49893761Y-61541022D01*
X49896413Y-61504626D01*
X49898044Y-61451452D01*
X49898400Y-61408393D01*
X49898408Y-61338641D01*
X49901597Y-61294837D01*
X49912712Y-61273944D01*
X49936499Y-61272925D01*
X49977704Y-61288741D01*
X50039914Y-61317815D01*
X50085659Y-61341963D01*
X50109187Y-61362913D01*
X50116104Y-61385747D01*
X50116114Y-61386877D01*
X50104701Y-61426212D01*
X50070908Y-61447462D01*
X50019191Y-61450539D01*
X49981939Y-61450006D01*
X49962297Y-61460735D01*
X49950048Y-61486505D01*
X49942998Y-61519337D01*
X49953158Y-61537966D01*
X49956983Y-61540632D01*
X49992999Y-61551340D01*
X50043434Y-61552856D01*
X50095374Y-61545759D01*
X50132178Y-61532788D01*
X50183062Y-61489585D01*
X50211986Y-61429446D01*
X50217714Y-61382462D01*
X50213343Y-61340082D01*
X50197525Y-61305488D01*
X50166203Y-61274763D01*
X50115322Y-61243990D01*
X50040824Y-61209252D01*
X50036286Y-61207288D01*
X49969179Y-61176287D01*
X49927768Y-61150862D01*
X49910019Y-61128014D01*
X49913893Y-61104745D01*
X49937357Y-61078056D01*
X49944373Y-61071914D01*
X49991370Y-61048100D01*
X50040067Y-61049103D01*
X50082478Y-61072451D01*
X50110616Y-61115675D01*
X50113231Y-61124160D01*
X50138692Y-61165308D01*
X50170999Y-61185128D01*
X50217714Y-61204770D01*
X50217714Y-61153950D01*
X50203504Y-61080082D01*
X50161325Y-61012327D01*
X50139376Y-60989661D01*
X50089483Y-60960569D01*
X50026033Y-60947400D01*
X49960256Y-60950968D01*
G37*
X49960256Y-60950968D02*
X49903384Y-60972087D01*
X49902733Y-60972493D01*
X49867560Y-60998380D01*
X49841593Y-61028633D01*
X49823330Y-61068058D01*
X49811268Y-61121462D01*
X49803904Y-61193651D01*
X49799736Y-61289432D01*
X49799371Y-61303078D01*
X49794124Y-61508842D01*
X49838284Y-61531678D01*
X49870237Y-61547110D01*
X49889530Y-61554423D01*
X49890422Y-61554514D01*
X49893761Y-61541022D01*
X49896413Y-61504626D01*
X49898044Y-61451452D01*
X49898400Y-61408393D01*
X49898408Y-61338641D01*
X49901597Y-61294837D01*
X49912712Y-61273944D01*
X49936499Y-61272925D01*
X49977704Y-61288741D01*
X50039914Y-61317815D01*
X50085659Y-61341963D01*
X50109187Y-61362913D01*
X50116104Y-61385747D01*
X50116114Y-61386877D01*
X50104701Y-61426212D01*
X50070908Y-61447462D01*
X50019191Y-61450539D01*
X49981939Y-61450006D01*
X49962297Y-61460735D01*
X49950048Y-61486505D01*
X49942998Y-61519337D01*
X49953158Y-61537966D01*
X49956983Y-61540632D01*
X49992999Y-61551340D01*
X50043434Y-61552856D01*
X50095374Y-61545759D01*
X50132178Y-61532788D01*
X50183062Y-61489585D01*
X50211986Y-61429446D01*
X50217714Y-61382462D01*
X50213343Y-61340082D01*
X50197525Y-61305488D01*
X50166203Y-61274763D01*
X50115322Y-61243990D01*
X50040824Y-61209252D01*
X50036286Y-61207288D01*
X49969179Y-61176287D01*
X49927768Y-61150862D01*
X49910019Y-61128014D01*
X49913893Y-61104745D01*
X49937357Y-61078056D01*
X49944373Y-61071914D01*
X49991370Y-61048100D01*
X50040067Y-61049103D01*
X50082478Y-61072451D01*
X50110616Y-61115675D01*
X50113231Y-61124160D01*
X50138692Y-61165308D01*
X50170999Y-61185128D01*
X50217714Y-61204770D01*
X50217714Y-61153950D01*
X50203504Y-61080082D01*
X50161325Y-61012327D01*
X50139376Y-60989661D01*
X50089483Y-60960569D01*
X50026033Y-60947400D01*
X49960256Y-60950968D01*
G36*
X49470074Y-60949755D02*
G01*
X49404142Y-60974084D01*
X49350727Y-61017117D01*
X49329836Y-61047409D01*
X49307061Y-61102994D01*
X49307534Y-61143186D01*
X49331438Y-61170217D01*
X49340283Y-61174813D01*
X49378470Y-61189144D01*
X49397972Y-61185472D01*
X49404578Y-61161407D01*
X49404914Y-61148114D01*
X49417008Y-61099210D01*
X49448529Y-61064999D01*
X49492341Y-61048476D01*
X49541305Y-61052634D01*
X49581106Y-61074227D01*
X49594550Y-61086544D01*
X49604079Y-61101487D01*
X49610515Y-61124075D01*
X49614683Y-61159328D01*
X49617403Y-61212266D01*
X49619498Y-61287907D01*
X49620040Y-61311857D01*
X49622019Y-61393790D01*
X49624269Y-61451455D01*
X49627643Y-61489608D01*
X49632994Y-61513004D01*
X49641176Y-61526398D01*
X49653041Y-61534545D01*
X49660638Y-61538144D01*
X49692898Y-61550452D01*
X49711889Y-61554514D01*
X49718164Y-61540948D01*
X49721994Y-61499934D01*
X49723400Y-61430999D01*
X49722402Y-61333669D01*
X49722092Y-61318657D01*
X49719899Y-61229859D01*
X49717307Y-61165019D01*
X49713618Y-61119067D01*
X49708136Y-61086935D01*
X49700165Y-61063553D01*
X49689007Y-61043852D01*
X49683170Y-61035410D01*
X49649704Y-60998057D01*
X49612273Y-60969003D01*
X49607691Y-60966467D01*
X49540574Y-60946443D01*
X49470074Y-60949755D01*
G37*
X49470074Y-60949755D02*
X49404142Y-60974084D01*
X49350727Y-61017117D01*
X49329836Y-61047409D01*
X49307061Y-61102994D01*
X49307534Y-61143186D01*
X49331438Y-61170217D01*
X49340283Y-61174813D01*
X49378470Y-61189144D01*
X49397972Y-61185472D01*
X49404578Y-61161407D01*
X49404914Y-61148114D01*
X49417008Y-61099210D01*
X49448529Y-61064999D01*
X49492341Y-61048476D01*
X49541305Y-61052634D01*
X49581106Y-61074227D01*
X49594550Y-61086544D01*
X49604079Y-61101487D01*
X49610515Y-61124075D01*
X49614683Y-61159328D01*
X49617403Y-61212266D01*
X49619498Y-61287907D01*
X49620040Y-61311857D01*
X49622019Y-61393790D01*
X49624269Y-61451455D01*
X49627643Y-61489608D01*
X49632994Y-61513004D01*
X49641176Y-61526398D01*
X49653041Y-61534545D01*
X49660638Y-61538144D01*
X49692898Y-61550452D01*
X49711889Y-61554514D01*
X49718164Y-61540948D01*
X49721994Y-61499934D01*
X49723400Y-61430999D01*
X49722402Y-61333669D01*
X49722092Y-61318657D01*
X49719899Y-61229859D01*
X49717307Y-61165019D01*
X49713618Y-61119067D01*
X49708136Y-61086935D01*
X49700165Y-61063553D01*
X49689007Y-61043852D01*
X49683170Y-61035410D01*
X49649704Y-60998057D01*
X49612273Y-60969003D01*
X49607691Y-60966467D01*
X49540574Y-60946443D01*
X49470074Y-60949755D01*
G36*
X48809883Y-61065358D02*
G01*
X48810067Y-61173837D01*
X48810781Y-61257287D01*
X48812325Y-61319704D01*
X48814999Y-61365085D01*
X48819106Y-61397429D01*
X48824945Y-61420733D01*
X48832818Y-61438995D01*
X48838779Y-61449418D01*
X48888145Y-61505945D01*
X48950736Y-61541377D01*
X49019987Y-61554090D01*
X49089332Y-61542463D01*
X49130625Y-61521568D01*
X49173975Y-61485422D01*
X49203519Y-61441276D01*
X49221345Y-61383462D01*
X49229537Y-61306313D01*
X49230698Y-61249714D01*
X49230542Y-61245647D01*
X49129143Y-61245647D01*
X49128524Y-61310550D01*
X49125686Y-61353514D01*
X49119160Y-61381622D01*
X49107477Y-61401953D01*
X49093517Y-61417288D01*
X49046635Y-61446890D01*
X48996299Y-61449419D01*
X48948724Y-61424705D01*
X48945021Y-61421356D01*
X48929217Y-61403935D01*
X48919307Y-61383209D01*
X48913942Y-61352362D01*
X48911772Y-61304577D01*
X48911429Y-61251748D01*
X48912173Y-61185381D01*
X48915252Y-61141106D01*
X48921939Y-61112009D01*
X48933504Y-61091173D01*
X48942987Y-61080107D01*
X48987040Y-61052198D01*
X49037776Y-61048843D01*
X49086204Y-61070159D01*
X49095550Y-61078073D01*
X49111460Y-61095647D01*
X49121390Y-61116587D01*
X49126722Y-61147782D01*
X49128837Y-61196122D01*
X49129143Y-61245647D01*
X49230542Y-61245647D01*
X49227190Y-61158568D01*
X49215274Y-61090086D01*
X49192865Y-61038600D01*
X49157876Y-60998443D01*
X49130625Y-60977861D01*
X49081093Y-60955625D01*
X49023684Y-60945304D01*
X48970318Y-60948067D01*
X48940457Y-60959212D01*
X48928739Y-60962383D01*
X48920963Y-60950557D01*
X48915535Y-60918866D01*
X48911429Y-60870593D01*
X48906933Y-60816829D01*
X48900687Y-60784482D01*
X48889324Y-60765985D01*
X48869472Y-60753770D01*
X48857000Y-60748362D01*
X48809829Y-60728601D01*
X48809883Y-61065358D01*
G37*
X48809883Y-61065358D02*
X48810067Y-61173837D01*
X48810781Y-61257287D01*
X48812325Y-61319704D01*
X48814999Y-61365085D01*
X48819106Y-61397429D01*
X48824945Y-61420733D01*
X48832818Y-61438995D01*
X48838779Y-61449418D01*
X48888145Y-61505945D01*
X48950736Y-61541377D01*
X49019987Y-61554090D01*
X49089332Y-61542463D01*
X49130625Y-61521568D01*
X49173975Y-61485422D01*
X49203519Y-61441276D01*
X49221345Y-61383462D01*
X49229537Y-61306313D01*
X49230698Y-61249714D01*
X49230542Y-61245647D01*
X49129143Y-61245647D01*
X49128524Y-61310550D01*
X49125686Y-61353514D01*
X49119160Y-61381622D01*
X49107477Y-61401953D01*
X49093517Y-61417288D01*
X49046635Y-61446890D01*
X48996299Y-61449419D01*
X48948724Y-61424705D01*
X48945021Y-61421356D01*
X48929217Y-61403935D01*
X48919307Y-61383209D01*
X48913942Y-61352362D01*
X48911772Y-61304577D01*
X48911429Y-61251748D01*
X48912173Y-61185381D01*
X48915252Y-61141106D01*
X48921939Y-61112009D01*
X48933504Y-61091173D01*
X48942987Y-61080107D01*
X48987040Y-61052198D01*
X49037776Y-61048843D01*
X49086204Y-61070159D01*
X49095550Y-61078073D01*
X49111460Y-61095647D01*
X49121390Y-61116587D01*
X49126722Y-61147782D01*
X49128837Y-61196122D01*
X49129143Y-61245647D01*
X49230542Y-61245647D01*
X49227190Y-61158568D01*
X49215274Y-61090086D01*
X49192865Y-61038600D01*
X49157876Y-60998443D01*
X49130625Y-60977861D01*
X49081093Y-60955625D01*
X49023684Y-60945304D01*
X48970318Y-60948067D01*
X48940457Y-60959212D01*
X48928739Y-60962383D01*
X48920963Y-60950557D01*
X48915535Y-60918866D01*
X48911429Y-60870593D01*
X48906933Y-60816829D01*
X48900687Y-60784482D01*
X48889324Y-60765985D01*
X48869472Y-60753770D01*
X48857000Y-60748362D01*
X48809829Y-60728601D01*
X48809883Y-61065358D01*
G36*
X48220167Y-60958663D02*
G01*
X48217952Y-60996850D01*
X48216216Y-61054886D01*
X48215101Y-61128180D01*
X48214743Y-61205055D01*
X48214743Y-61465196D01*
X48260674Y-61511127D01*
X48292325Y-61539429D01*
X48320110Y-61550893D01*
X48358085Y-61550168D01*
X48373160Y-61548321D01*
X48420274Y-61542948D01*
X48459244Y-61539869D01*
X48468743Y-61539585D01*
X48500767Y-61541445D01*
X48546568Y-61546114D01*
X48564326Y-61548321D01*
X48607943Y-61551735D01*
X48637255Y-61544320D01*
X48666320Y-61521427D01*
X48676812Y-61511127D01*
X48722743Y-61465196D01*
X48722743Y-60978602D01*
X48685774Y-60961758D01*
X48653941Y-60949282D01*
X48635317Y-60944914D01*
X48630542Y-60958718D01*
X48626079Y-60997286D01*
X48622225Y-61056356D01*
X48619278Y-61131663D01*
X48617857Y-61195286D01*
X48613886Y-61445657D01*
X48579241Y-61450556D01*
X48547732Y-61447131D01*
X48532292Y-61436041D01*
X48527977Y-61415308D01*
X48524292Y-61371145D01*
X48521531Y-61309146D01*
X48519988Y-61234909D01*
X48519765Y-61196706D01*
X48519543Y-60976783D01*
X48473834Y-60960849D01*
X48441482Y-60950015D01*
X48423885Y-60944962D01*
X48423377Y-60944914D01*
X48421612Y-60958648D01*
X48419671Y-60996730D01*
X48417718Y-61054482D01*
X48415916Y-61127227D01*
X48414657Y-61195286D01*
X48410686Y-61445657D01*
X48323600Y-61445657D01*
X48319604Y-61217240D01*
X48315608Y-60988822D01*
X48273153Y-60966868D01*
X48241808Y-60951793D01*
X48223256Y-60944951D01*
X48222721Y-60944914D01*
X48220167Y-60958663D01*
G37*
X48220167Y-60958663D02*
X48217952Y-60996850D01*
X48216216Y-61054886D01*
X48215101Y-61128180D01*
X48214743Y-61205055D01*
X48214743Y-61465196D01*
X48260674Y-61511127D01*
X48292325Y-61539429D01*
X48320110Y-61550893D01*
X48358085Y-61550168D01*
X48373160Y-61548321D01*
X48420274Y-61542948D01*
X48459244Y-61539869D01*
X48468743Y-61539585D01*
X48500767Y-61541445D01*
X48546568Y-61546114D01*
X48564326Y-61548321D01*
X48607943Y-61551735D01*
X48637255Y-61544320D01*
X48666320Y-61521427D01*
X48676812Y-61511127D01*
X48722743Y-61465196D01*
X48722743Y-60978602D01*
X48685774Y-60961758D01*
X48653941Y-60949282D01*
X48635317Y-60944914D01*
X48630542Y-60958718D01*
X48626079Y-60997286D01*
X48622225Y-61056356D01*
X48619278Y-61131663D01*
X48617857Y-61195286D01*
X48613886Y-61445657D01*
X48579241Y-61450556D01*
X48547732Y-61447131D01*
X48532292Y-61436041D01*
X48527977Y-61415308D01*
X48524292Y-61371145D01*
X48521531Y-61309146D01*
X48519988Y-61234909D01*
X48519765Y-61196706D01*
X48519543Y-60976783D01*
X48473834Y-60960849D01*
X48441482Y-60950015D01*
X48423885Y-60944962D01*
X48423377Y-60944914D01*
X48421612Y-60958648D01*
X48419671Y-60996730D01*
X48417718Y-61054482D01*
X48415916Y-61127227D01*
X48414657Y-61195286D01*
X48410686Y-61445657D01*
X48323600Y-61445657D01*
X48319604Y-61217240D01*
X48315608Y-60988822D01*
X48273153Y-60966868D01*
X48241808Y-60951793D01*
X48223256Y-60944951D01*
X48222721Y-60944914D01*
X48220167Y-60958663D01*
G36*
X47855124Y-60956335D02*
G01*
X47813333Y-60975344D01*
X47780531Y-60998378D01*
X47756497Y-61024133D01*
X47739903Y-61057358D01*
X47729423Y-61102800D01*
X47723729Y-61165207D01*
X47721493Y-61249327D01*
X47721257Y-61304721D01*
X47721257Y-61520826D01*
X47758226Y-61537670D01*
X47787344Y-61549981D01*
X47801769Y-61554514D01*
X47804528Y-61541025D01*
X47806718Y-61504653D01*
X47808058Y-61451542D01*
X47808343Y-61409372D01*
X47809566Y-61348447D01*
X47812864Y-61300115D01*
X47817679Y-61270518D01*
X47821504Y-61264229D01*
X47847217Y-61270652D01*
X47887582Y-61287125D01*
X47934321Y-61309458D01*
X47979155Y-61333457D01*
X48013807Y-61354930D01*
X48029998Y-61369685D01*
X48030062Y-61369845D01*
X48028670Y-61397152D01*
X48016182Y-61423219D01*
X47994257Y-61444392D01*
X47962257Y-61451474D01*
X47934908Y-61450649D01*
X47896174Y-61450042D01*
X47875842Y-61459116D01*
X47863631Y-61483092D01*
X47862091Y-61487613D01*
X47856797Y-61521806D01*
X47870953Y-61542568D01*
X47907852Y-61552462D01*
X47947711Y-61554292D01*
X48019438Y-61540727D01*
X48056568Y-61521355D01*
X48102424Y-61475845D01*
X48126744Y-61419983D01*
X48128927Y-61360957D01*
X48108371Y-61305953D01*
X48077451Y-61271486D01*
X48046580Y-61252189D01*
X47998058Y-61227759D01*
X47941515Y-61202985D01*
X47932090Y-61199199D01*
X47869981Y-61171791D01*
X47834178Y-61147634D01*
X47822663Y-61123619D01*
X47833420Y-61096635D01*
X47851886Y-61075543D01*
X47895531Y-61049572D01*
X47943554Y-61047624D01*
X47987594Y-61067637D01*
X48019291Y-61107551D01*
X48023451Y-61117848D01*
X48047673Y-61155724D01*
X48083035Y-61183842D01*
X48127657Y-61206917D01*
X48127657Y-61141485D01*
X48125031Y-61101506D01*
X48113770Y-61069997D01*
X48088801Y-61036378D01*
X48064831Y-61010484D01*
X48027559Y-60973817D01*
X47998599Y-60954121D01*
X47967495Y-60946220D01*
X47932287Y-60944914D01*
X47855124Y-60956335D01*
G37*
X47855124Y-60956335D02*
X47813333Y-60975344D01*
X47780531Y-60998378D01*
X47756497Y-61024133D01*
X47739903Y-61057358D01*
X47729423Y-61102800D01*
X47723729Y-61165207D01*
X47721493Y-61249327D01*
X47721257Y-61304721D01*
X47721257Y-61520826D01*
X47758226Y-61537670D01*
X47787344Y-61549981D01*
X47801769Y-61554514D01*
X47804528Y-61541025D01*
X47806718Y-61504653D01*
X47808058Y-61451542D01*
X47808343Y-61409372D01*
X47809566Y-61348447D01*
X47812864Y-61300115D01*
X47817679Y-61270518D01*
X47821504Y-61264229D01*
X47847217Y-61270652D01*
X47887582Y-61287125D01*
X47934321Y-61309458D01*
X47979155Y-61333457D01*
X48013807Y-61354930D01*
X48029998Y-61369685D01*
X48030062Y-61369845D01*
X48028670Y-61397152D01*
X48016182Y-61423219D01*
X47994257Y-61444392D01*
X47962257Y-61451474D01*
X47934908Y-61450649D01*
X47896174Y-61450042D01*
X47875842Y-61459116D01*
X47863631Y-61483092D01*
X47862091Y-61487613D01*
X47856797Y-61521806D01*
X47870953Y-61542568D01*
X47907852Y-61552462D01*
X47947711Y-61554292D01*
X48019438Y-61540727D01*
X48056568Y-61521355D01*
X48102424Y-61475845D01*
X48126744Y-61419983D01*
X48128927Y-61360957D01*
X48108371Y-61305953D01*
X48077451Y-61271486D01*
X48046580Y-61252189D01*
X47998058Y-61227759D01*
X47941515Y-61202985D01*
X47932090Y-61199199D01*
X47869981Y-61171791D01*
X47834178Y-61147634D01*
X47822663Y-61123619D01*
X47833420Y-61096635D01*
X47851886Y-61075543D01*
X47895531Y-61049572D01*
X47943554Y-61047624D01*
X47987594Y-61067637D01*
X48019291Y-61107551D01*
X48023451Y-61117848D01*
X48047673Y-61155724D01*
X48083035Y-61183842D01*
X48127657Y-61206917D01*
X48127657Y-61141485D01*
X48125031Y-61101506D01*
X48113770Y-61069997D01*
X48088801Y-61036378D01*
X48064831Y-61010484D01*
X48027559Y-60973817D01*
X47998599Y-60954121D01*
X47967495Y-60946220D01*
X47932287Y-60944914D01*
X47855124Y-60956335D01*
G36*
X47347400Y-60958752D02*
G01*
X47330052Y-60966334D01*
X47288644Y-60999128D01*
X47253235Y-61046547D01*
X47231336Y-61097151D01*
X47227771Y-61122098D01*
X47239721Y-61156927D01*
X47265933Y-61175357D01*
X47294036Y-61186516D01*
X47306905Y-61188572D01*
X47313171Y-61173649D01*
X47325544Y-61141175D01*
X47330972Y-61126502D01*
X47361410Y-61075744D01*
X47405480Y-61050427D01*
X47461990Y-61051206D01*
X47466175Y-61052203D01*
X47496345Y-61066507D01*
X47518524Y-61094393D01*
X47533673Y-61139287D01*
X47542750Y-61204615D01*
X47546714Y-61293804D01*
X47547086Y-61341261D01*
X47547270Y-61416071D01*
X47548478Y-61467069D01*
X47551691Y-61499471D01*
X47557891Y-61518495D01*
X47568060Y-61529356D01*
X47583181Y-61537272D01*
X47584054Y-61537670D01*
X47613172Y-61549981D01*
X47627597Y-61554514D01*
X47629814Y-61540809D01*
X47631711Y-61502925D01*
X47633153Y-61445715D01*
X47634002Y-61374027D01*
X47634171Y-61321565D01*
X47633308Y-61220047D01*
X47629930Y-61143032D01*
X47622858Y-61086023D01*
X47610912Y-61044526D01*
X47592910Y-61014043D01*
X47567673Y-60990080D01*
X47542753Y-60973355D01*
X47482829Y-60951097D01*
X47413089Y-60946076D01*
X47347400Y-60958752D01*
G37*
X47347400Y-60958752D02*
X47330052Y-60966334D01*
X47288644Y-60999128D01*
X47253235Y-61046547D01*
X47231336Y-61097151D01*
X47227771Y-61122098D01*
X47239721Y-61156927D01*
X47265933Y-61175357D01*
X47294036Y-61186516D01*
X47306905Y-61188572D01*
X47313171Y-61173649D01*
X47325544Y-61141175D01*
X47330972Y-61126502D01*
X47361410Y-61075744D01*
X47405480Y-61050427D01*
X47461990Y-61051206D01*
X47466175Y-61052203D01*
X47496345Y-61066507D01*
X47518524Y-61094393D01*
X47533673Y-61139287D01*
X47542750Y-61204615D01*
X47546714Y-61293804D01*
X47547086Y-61341261D01*
X47547270Y-61416071D01*
X47548478Y-61467069D01*
X47551691Y-61499471D01*
X47557891Y-61518495D01*
X47568060Y-61529356D01*
X47583181Y-61537272D01*
X47584054Y-61537670D01*
X47613172Y-61549981D01*
X47627597Y-61554514D01*
X47629814Y-61540809D01*
X47631711Y-61502925D01*
X47633153Y-61445715D01*
X47634002Y-61374027D01*
X47634171Y-61321565D01*
X47633308Y-61220047D01*
X47629930Y-61143032D01*
X47622858Y-61086023D01*
X47610912Y-61044526D01*
X47592910Y-61014043D01*
X47567673Y-60990080D01*
X47542753Y-60973355D01*
X47482829Y-60951097D01*
X47413089Y-60946076D01*
X47347400Y-60958752D01*
G36*
X46846405Y-60966966D02*
G01*
X46788979Y-61004497D01*
X46761281Y-61038096D01*
X46739338Y-61099064D01*
X46737595Y-61147308D01*
X46741543Y-61211816D01*
X46890314Y-61276934D01*
X46962651Y-61310202D01*
X47009916Y-61336964D01*
X47034493Y-61360144D01*
X47038763Y-61382667D01*
X47025111Y-61407455D01*
X47010057Y-61423886D01*
X46966254Y-61450235D01*
X46918611Y-61452081D01*
X46874855Y-61431546D01*
X46842711Y-61390752D01*
X46836962Y-61376347D01*
X46809424Y-61331356D01*
X46777742Y-61312182D01*
X46734286Y-61295779D01*
X46734286Y-61357966D01*
X46738128Y-61400283D01*
X46753177Y-61435969D01*
X46784720Y-61476943D01*
X46789408Y-61482267D01*
X46824494Y-61518720D01*
X46854653Y-61538283D01*
X46892385Y-61547283D01*
X46923665Y-61550230D01*
X46979615Y-61550965D01*
X47019445Y-61541660D01*
X47044292Y-61527846D01*
X47083344Y-61497467D01*
X47110375Y-61464613D01*
X47127483Y-61423294D01*
X47136762Y-61367521D01*
X47140307Y-61291305D01*
X47140590Y-61252622D01*
X47139628Y-61206247D01*
X47051993Y-61206247D01*
X47050977Y-61231126D01*
X47048444Y-61235200D01*
X47031726Y-61229665D01*
X46995751Y-61215017D01*
X46947669Y-61194190D01*
X46937614Y-61189714D01*
X46876848Y-61158814D01*
X46843368Y-61131657D01*
X46836010Y-61106220D01*
X46853609Y-61080481D01*
X46868144Y-61069109D01*
X46920590Y-61046364D01*
X46969678Y-61050122D01*
X47010773Y-61077884D01*
X47039242Y-61127152D01*
X47048369Y-61166257D01*
X47051993Y-61206247D01*
X47139628Y-61206247D01*
X47138715Y-61162249D01*
X47131804Y-61095384D01*
X47118116Y-61046695D01*
X47095904Y-61010849D01*
X47063426Y-60982513D01*
X47049267Y-60973355D01*
X46984947Y-60949507D01*
X46914527Y-60948006D01*
X46846405Y-60966966D01*
G37*
X46846405Y-60966966D02*
X46788979Y-61004497D01*
X46761281Y-61038096D01*
X46739338Y-61099064D01*
X46737595Y-61147308D01*
X46741543Y-61211816D01*
X46890314Y-61276934D01*
X46962651Y-61310202D01*
X47009916Y-61336964D01*
X47034493Y-61360144D01*
X47038763Y-61382667D01*
X47025111Y-61407455D01*
X47010057Y-61423886D01*
X46966254Y-61450235D01*
X46918611Y-61452081D01*
X46874855Y-61431546D01*
X46842711Y-61390752D01*
X46836962Y-61376347D01*
X46809424Y-61331356D01*
X46777742Y-61312182D01*
X46734286Y-61295779D01*
X46734286Y-61357966D01*
X46738128Y-61400283D01*
X46753177Y-61435969D01*
X46784720Y-61476943D01*
X46789408Y-61482267D01*
X46824494Y-61518720D01*
X46854653Y-61538283D01*
X46892385Y-61547283D01*
X46923665Y-61550230D01*
X46979615Y-61550965D01*
X47019445Y-61541660D01*
X47044292Y-61527846D01*
X47083344Y-61497467D01*
X47110375Y-61464613D01*
X47127483Y-61423294D01*
X47136762Y-61367521D01*
X47140307Y-61291305D01*
X47140590Y-61252622D01*
X47139628Y-61206247D01*
X47051993Y-61206247D01*
X47050977Y-61231126D01*
X47048444Y-61235200D01*
X47031726Y-61229665D01*
X46995751Y-61215017D01*
X46947669Y-61194190D01*
X46937614Y-61189714D01*
X46876848Y-61158814D01*
X46843368Y-61131657D01*
X46836010Y-61106220D01*
X46853609Y-61080481D01*
X46868144Y-61069109D01*
X46920590Y-61046364D01*
X46969678Y-61050122D01*
X47010773Y-61077884D01*
X47039242Y-61127152D01*
X47048369Y-61166257D01*
X47051993Y-61206247D01*
X47139628Y-61206247D01*
X47138715Y-61162249D01*
X47131804Y-61095384D01*
X47118116Y-61046695D01*
X47095904Y-61010849D01*
X47063426Y-60982513D01*
X47049267Y-60973355D01*
X46984947Y-60949507D01*
X46914527Y-60948006D01*
X46846405Y-60966966D01*
G36*
X49896090Y-56242348D02*
G01*
X49817546Y-56242778D01*
X49760702Y-56243942D01*
X49721895Y-56246207D01*
X49697462Y-56249940D01*
X49683738Y-56255506D01*
X49677060Y-56263273D01*
X49673764Y-56273605D01*
X49673444Y-56274943D01*
X49668438Y-56299079D01*
X49659171Y-56346701D01*
X49646608Y-56412741D01*
X49631713Y-56492128D01*
X49615449Y-56579796D01*
X49614881Y-56582875D01*
X49598590Y-56668789D01*
X49583348Y-56744696D01*
X49570139Y-56806045D01*
X49559946Y-56848282D01*
X49553752Y-56866855D01*
X49553457Y-56867184D01*
X49535212Y-56876253D01*
X49497595Y-56891367D01*
X49448729Y-56909262D01*
X49448457Y-56909358D01*
X49386907Y-56932493D01*
X49314343Y-56961965D01*
X49245943Y-56991597D01*
X49242706Y-56993062D01*
X49131298Y-57043626D01*
X48884601Y-56875160D01*
X48808923Y-56823803D01*
X48740369Y-56777889D01*
X48682912Y-56740030D01*
X48640524Y-56712837D01*
X48617175Y-56698921D01*
X48614958Y-56697889D01*
X48597990Y-56702484D01*
X48566299Y-56724655D01*
X48518648Y-56765447D01*
X48453802Y-56825905D01*
X48387603Y-56890227D01*
X48323786Y-56953612D01*
X48266671Y-57011451D01*
X48219695Y-57060175D01*
X48186297Y-57096210D01*
X48169915Y-57115984D01*
X48169306Y-57117002D01*
X48167495Y-57130572D01*
X48174317Y-57152733D01*
X48191460Y-57186478D01*
X48220607Y-57234800D01*
X48263445Y-57300692D01*
X48320552Y-57385517D01*
X48371234Y-57460177D01*
X48416539Y-57527140D01*
X48453850Y-57582516D01*
X48480548Y-57622420D01*
X48494015Y-57642962D01*
X48494863Y-57644356D01*
X48493219Y-57664038D01*
X48480755Y-57702293D01*
X48459952Y-57751889D01*
X48452538Y-57767728D01*
X48420186Y-57838290D01*
X48385672Y-57918353D01*
X48357635Y-57987629D01*
X48337432Y-58039045D01*
X48321385Y-58078119D01*
X48312112Y-58098541D01*
X48310959Y-58100114D01*
X48293904Y-58102721D01*
X48253702Y-58109863D01*
X48195698Y-58120523D01*
X48125237Y-58133685D01*
X48047665Y-58148333D01*
X47968328Y-58163449D01*
X47892569Y-58178018D01*
X47825736Y-58191022D01*
X47773172Y-58201445D01*
X47740224Y-58208270D01*
X47732143Y-58210199D01*
X47723795Y-58214962D01*
X47717494Y-58225718D01*
X47712955Y-58246098D01*
X47709896Y-58279734D01*
X47708033Y-58330255D01*
X47707082Y-58401292D01*
X47706760Y-58496476D01*
X47706743Y-58535492D01*
X47706743Y-58852799D01*
X47782943Y-58867839D01*
X47825337Y-58875995D01*
X47888600Y-58887899D01*
X47965038Y-58902116D01*
X48046957Y-58917210D01*
X48069600Y-58921355D01*
X48145194Y-58936053D01*
X48211047Y-58950505D01*
X48261634Y-58963375D01*
X48291426Y-58973322D01*
X48296388Y-58976287D01*
X48308574Y-58997283D01*
X48326047Y-59037967D01*
X48345423Y-59090322D01*
X48349266Y-59101600D01*
X48374661Y-59171523D01*
X48406183Y-59250418D01*
X48437031Y-59321266D01*
X48437183Y-59321595D01*
X48488553Y-59432733D01*
X48319601Y-59681253D01*
X48150648Y-59929772D01*
X48367571Y-60147058D01*
X48433181Y-60211726D01*
X48493021Y-60268733D01*
X48543733Y-60315033D01*
X48581954Y-60347584D01*
X48604325Y-60363343D01*
X48607534Y-60364343D01*
X48626374Y-60356469D01*
X48664820Y-60334578D01*
X48718670Y-60301267D01*
X48783724Y-60259131D01*
X48854060Y-60211943D01*
X48925445Y-60163810D01*
X48989092Y-60121928D01*
X49040959Y-60088871D01*
X49077005Y-60067218D01*
X49093133Y-60059543D01*
X49112811Y-60066037D01*
X49150125Y-60083150D01*
X49197379Y-60107326D01*
X49202388Y-60110013D01*
X49266023Y-60141927D01*
X49309659Y-60157579D01*
X49336798Y-60157745D01*
X49350943Y-60143204D01*
X49351025Y-60143000D01*
X49358095Y-60125779D01*
X49374958Y-60084899D01*
X49400305Y-60023525D01*
X49432829Y-59944819D01*
X49471222Y-59851947D01*
X49514178Y-59748072D01*
X49555778Y-59647502D01*
X49601496Y-59536516D01*
X49643474Y-59433703D01*
X49680452Y-59342215D01*
X49711173Y-59265201D01*
X49734378Y-59205815D01*
X49748810Y-59167209D01*
X49753257Y-59152800D01*
X49742104Y-59136272D01*
X49712931Y-59109930D01*
X49674029Y-59080887D01*
X49563243Y-58989039D01*
X49476649Y-58883759D01*
X49415284Y-58767266D01*
X49380185Y-58641776D01*
X49372392Y-58509507D01*
X49378057Y-58448457D01*
X49408922Y-58321795D01*
X49462080Y-58209941D01*
X49534233Y-58114001D01*
X49622083Y-58035076D01*
X49722335Y-57974270D01*
X49831690Y-57932687D01*
X49946853Y-57911428D01*
X50064525Y-57911599D01*
X50181410Y-57934301D01*
X50294211Y-57980638D01*
X50399631Y-58051713D01*
X50443632Y-58091911D01*
X50528021Y-58195129D01*
X50586778Y-58307925D01*
X50620296Y-58427010D01*
X50628965Y-58549095D01*
X50613177Y-58670893D01*
X50573322Y-58789116D01*
X50509793Y-58900475D01*
X50422979Y-59001684D01*
X50325971Y-59080887D01*
X50285563Y-59111162D01*
X50257018Y-59137219D01*
X50246743Y-59152825D01*
X50252123Y-59169843D01*
X50267425Y-59210500D01*
X50291388Y-59271642D01*
X50322756Y-59350119D01*
X50360268Y-59442780D01*
X50402667Y-59546472D01*
X50444337Y-59647526D01*
X50490310Y-59758607D01*
X50532893Y-59861541D01*
X50570779Y-59953165D01*
X50602660Y-60030316D01*
X50627229Y-60089831D01*
X50643180Y-60128544D01*
X50649090Y-60143000D01*
X50663052Y-60157685D01*
X50690060Y-60157642D01*
X50733587Y-60142099D01*
X50797110Y-60110284D01*
X50797612Y-60110013D01*
X50845440Y-60085323D01*
X50884103Y-60067338D01*
X50905905Y-60059614D01*
X50906867Y-60059543D01*
X50923279Y-60067378D01*
X50959513Y-60089165D01*
X51011526Y-60122328D01*
X51075275Y-60164291D01*
X51145940Y-60211943D01*
X51217884Y-60260191D01*
X51282726Y-60302151D01*
X51336265Y-60335227D01*
X51374303Y-60356821D01*
X51392467Y-60364343D01*
X51409192Y-60354457D01*
X51442820Y-60326826D01*
X51489990Y-60284495D01*
X51547342Y-60230505D01*
X51611516Y-60167899D01*
X51632503Y-60146983D01*
X51849501Y-59929623D01*
X51684332Y-59687220D01*
X51634136Y-59612781D01*
X51590081Y-59545972D01*
X51554638Y-59490665D01*
X51530281Y-59450729D01*
X51519478Y-59430036D01*
X51519162Y-59428563D01*
X51524857Y-59409058D01*
X51540174Y-59369822D01*
X51562463Y-59317430D01*
X51578107Y-59282355D01*
X51607359Y-59215201D01*
X51634906Y-59147358D01*
X51656263Y-59090034D01*
X51662065Y-59072572D01*
X51678548Y-59025938D01*
X51694660Y-58989905D01*
X51703510Y-58976287D01*
X51723040Y-58967952D01*
X51765666Y-58956137D01*
X51825855Y-58942181D01*
X51898078Y-58927422D01*
X51930400Y-58921355D01*
X52012478Y-58906273D01*
X52091205Y-58891669D01*
X52158891Y-58878980D01*
X52207840Y-58869642D01*
X52217057Y-58867839D01*
X52293257Y-58852799D01*
X52293257Y-58535492D01*
X52293086Y-58431154D01*
X52292384Y-58352213D01*
X52290866Y-58295038D01*
X52288251Y-58255999D01*
X52284254Y-58231465D01*
X52278591Y-58217805D01*
X52270980Y-58211389D01*
X52267857Y-58210199D01*
X52249022Y-58205980D01*
X52207412Y-58197562D01*
X52148370Y-58185961D01*
X52077243Y-58172195D01*
X51999375Y-58157280D01*
X51920113Y-58142232D01*
X51844802Y-58128069D01*
X51778787Y-58115806D01*
X51727413Y-58106461D01*
X51696025Y-58101050D01*
X51689041Y-58100114D01*
X51682715Y-58087596D01*
X51668710Y-58054246D01*
X51649645Y-58006377D01*
X51642366Y-57987629D01*
X51613004Y-57915195D01*
X51578429Y-57835170D01*
X51547463Y-57767728D01*
X51524677Y-57716159D01*
X51509518Y-57673785D01*
X51504458Y-57647834D01*
X51505264Y-57644356D01*
X51515959Y-57627936D01*
X51540380Y-57591417D01*
X51575905Y-57538687D01*
X51619913Y-57473635D01*
X51669783Y-57400151D01*
X51679644Y-57385645D01*
X51737508Y-57299704D01*
X51780044Y-57234261D01*
X51808946Y-57186304D01*
X51825910Y-57152820D01*
X51832633Y-57130795D01*
X51830810Y-57117217D01*
X51830764Y-57117131D01*
X51816414Y-57099297D01*
X51784677Y-57064817D01*
X51738990Y-57017268D01*
X51682796Y-56960222D01*
X51619532Y-56897255D01*
X51612398Y-56890227D01*
X51532670Y-56813020D01*
X51471143Y-56756330D01*
X51426579Y-56719110D01*
X51397743Y-56700315D01*
X51385042Y-56697889D01*
X51366506Y-56708471D01*
X51328039Y-56732916D01*
X51273614Y-56768612D01*
X51207202Y-56812947D01*
X51132775Y-56863311D01*
X51115399Y-56875160D01*
X50868703Y-57043626D01*
X50757294Y-56993062D01*
X50689543Y-56963595D01*
X50616817Y-56933959D01*
X50554297Y-56910330D01*
X50551543Y-56909358D01*
X50502640Y-56891457D01*
X50464943Y-56876320D01*
X50446575Y-56867210D01*
X50446544Y-56867184D01*
X50440715Y-56850717D01*
X50430808Y-56810219D01*
X50417805Y-56750242D01*
X50402691Y-56675340D01*
X50386448Y-56590064D01*
X50385119Y-56582875D01*
X50368825Y-56495014D01*
X50353867Y-56415260D01*
X50341209Y-56348681D01*
X50331814Y-56300347D01*
X50326646Y-56275325D01*
X50326556Y-56274943D01*
X50323411Y-56264299D01*
X50317296Y-56256262D01*
X50304547Y-56250467D01*
X50281500Y-56246547D01*
X50244491Y-56244135D01*
X50189856Y-56242865D01*
X50113933Y-56242371D01*
X50013056Y-56242286D01*
X50000000Y-56242286D01*
X49896090Y-56242348D01*
G37*
X49896090Y-56242348D02*
X49817546Y-56242778D01*
X49760702Y-56243942D01*
X49721895Y-56246207D01*
X49697462Y-56249940D01*
X49683738Y-56255506D01*
X49677060Y-56263273D01*
X49673764Y-56273605D01*
X49673444Y-56274943D01*
X49668438Y-56299079D01*
X49659171Y-56346701D01*
X49646608Y-56412741D01*
X49631713Y-56492128D01*
X49615449Y-56579796D01*
X49614881Y-56582875D01*
X49598590Y-56668789D01*
X49583348Y-56744696D01*
X49570139Y-56806045D01*
X49559946Y-56848282D01*
X49553752Y-56866855D01*
X49553457Y-56867184D01*
X49535212Y-56876253D01*
X49497595Y-56891367D01*
X49448729Y-56909262D01*
X49448457Y-56909358D01*
X49386907Y-56932493D01*
X49314343Y-56961965D01*
X49245943Y-56991597D01*
X49242706Y-56993062D01*
X49131298Y-57043626D01*
X48884601Y-56875160D01*
X48808923Y-56823803D01*
X48740369Y-56777889D01*
X48682912Y-56740030D01*
X48640524Y-56712837D01*
X48617175Y-56698921D01*
X48614958Y-56697889D01*
X48597990Y-56702484D01*
X48566299Y-56724655D01*
X48518648Y-56765447D01*
X48453802Y-56825905D01*
X48387603Y-56890227D01*
X48323786Y-56953612D01*
X48266671Y-57011451D01*
X48219695Y-57060175D01*
X48186297Y-57096210D01*
X48169915Y-57115984D01*
X48169306Y-57117002D01*
X48167495Y-57130572D01*
X48174317Y-57152733D01*
X48191460Y-57186478D01*
X48220607Y-57234800D01*
X48263445Y-57300692D01*
X48320552Y-57385517D01*
X48371234Y-57460177D01*
X48416539Y-57527140D01*
X48453850Y-57582516D01*
X48480548Y-57622420D01*
X48494015Y-57642962D01*
X48494863Y-57644356D01*
X48493219Y-57664038D01*
X48480755Y-57702293D01*
X48459952Y-57751889D01*
X48452538Y-57767728D01*
X48420186Y-57838290D01*
X48385672Y-57918353D01*
X48357635Y-57987629D01*
X48337432Y-58039045D01*
X48321385Y-58078119D01*
X48312112Y-58098541D01*
X48310959Y-58100114D01*
X48293904Y-58102721D01*
X48253702Y-58109863D01*
X48195698Y-58120523D01*
X48125237Y-58133685D01*
X48047665Y-58148333D01*
X47968328Y-58163449D01*
X47892569Y-58178018D01*
X47825736Y-58191022D01*
X47773172Y-58201445D01*
X47740224Y-58208270D01*
X47732143Y-58210199D01*
X47723795Y-58214962D01*
X47717494Y-58225718D01*
X47712955Y-58246098D01*
X47709896Y-58279734D01*
X47708033Y-58330255D01*
X47707082Y-58401292D01*
X47706760Y-58496476D01*
X47706743Y-58535492D01*
X47706743Y-58852799D01*
X47782943Y-58867839D01*
X47825337Y-58875995D01*
X47888600Y-58887899D01*
X47965038Y-58902116D01*
X48046957Y-58917210D01*
X48069600Y-58921355D01*
X48145194Y-58936053D01*
X48211047Y-58950505D01*
X48261634Y-58963375D01*
X48291426Y-58973322D01*
X48296388Y-58976287D01*
X48308574Y-58997283D01*
X48326047Y-59037967D01*
X48345423Y-59090322D01*
X48349266Y-59101600D01*
X48374661Y-59171523D01*
X48406183Y-59250418D01*
X48437031Y-59321266D01*
X48437183Y-59321595D01*
X48488553Y-59432733D01*
X48319601Y-59681253D01*
X48150648Y-59929772D01*
X48367571Y-60147058D01*
X48433181Y-60211726D01*
X48493021Y-60268733D01*
X48543733Y-60315033D01*
X48581954Y-60347584D01*
X48604325Y-60363343D01*
X48607534Y-60364343D01*
X48626374Y-60356469D01*
X48664820Y-60334578D01*
X48718670Y-60301267D01*
X48783724Y-60259131D01*
X48854060Y-60211943D01*
X48925445Y-60163810D01*
X48989092Y-60121928D01*
X49040959Y-60088871D01*
X49077005Y-60067218D01*
X49093133Y-60059543D01*
X49112811Y-60066037D01*
X49150125Y-60083150D01*
X49197379Y-60107326D01*
X49202388Y-60110013D01*
X49266023Y-60141927D01*
X49309659Y-60157579D01*
X49336798Y-60157745D01*
X49350943Y-60143204D01*
X49351025Y-60143000D01*
X49358095Y-60125779D01*
X49374958Y-60084899D01*
X49400305Y-60023525D01*
X49432829Y-59944819D01*
X49471222Y-59851947D01*
X49514178Y-59748072D01*
X49555778Y-59647502D01*
X49601496Y-59536516D01*
X49643474Y-59433703D01*
X49680452Y-59342215D01*
X49711173Y-59265201D01*
X49734378Y-59205815D01*
X49748810Y-59167209D01*
X49753257Y-59152800D01*
X49742104Y-59136272D01*
X49712931Y-59109930D01*
X49674029Y-59080887D01*
X49563243Y-58989039D01*
X49476649Y-58883759D01*
X49415284Y-58767266D01*
X49380185Y-58641776D01*
X49372392Y-58509507D01*
X49378057Y-58448457D01*
X49408922Y-58321795D01*
X49462080Y-58209941D01*
X49534233Y-58114001D01*
X49622083Y-58035076D01*
X49722335Y-57974270D01*
X49831690Y-57932687D01*
X49946853Y-57911428D01*
X50064525Y-57911599D01*
X50181410Y-57934301D01*
X50294211Y-57980638D01*
X50399631Y-58051713D01*
X50443632Y-58091911D01*
X50528021Y-58195129D01*
X50586778Y-58307925D01*
X50620296Y-58427010D01*
X50628965Y-58549095D01*
X50613177Y-58670893D01*
X50573322Y-58789116D01*
X50509793Y-58900475D01*
X50422979Y-59001684D01*
X50325971Y-59080887D01*
X50285563Y-59111162D01*
X50257018Y-59137219D01*
X50246743Y-59152825D01*
X50252123Y-59169843D01*
X50267425Y-59210500D01*
X50291388Y-59271642D01*
X50322756Y-59350119D01*
X50360268Y-59442780D01*
X50402667Y-59546472D01*
X50444337Y-59647526D01*
X50490310Y-59758607D01*
X50532893Y-59861541D01*
X50570779Y-59953165D01*
X50602660Y-60030316D01*
X50627229Y-60089831D01*
X50643180Y-60128544D01*
X50649090Y-60143000D01*
X50663052Y-60157685D01*
X50690060Y-60157642D01*
X50733587Y-60142099D01*
X50797110Y-60110284D01*
X50797612Y-60110013D01*
X50845440Y-60085323D01*
X50884103Y-60067338D01*
X50905905Y-60059614D01*
X50906867Y-60059543D01*
X50923279Y-60067378D01*
X50959513Y-60089165D01*
X51011526Y-60122328D01*
X51075275Y-60164291D01*
X51145940Y-60211943D01*
X51217884Y-60260191D01*
X51282726Y-60302151D01*
X51336265Y-60335227D01*
X51374303Y-60356821D01*
X51392467Y-60364343D01*
X51409192Y-60354457D01*
X51442820Y-60326826D01*
X51489990Y-60284495D01*
X51547342Y-60230505D01*
X51611516Y-60167899D01*
X51632503Y-60146983D01*
X51849501Y-59929623D01*
X51684332Y-59687220D01*
X51634136Y-59612781D01*
X51590081Y-59545972D01*
X51554638Y-59490665D01*
X51530281Y-59450729D01*
X51519478Y-59430036D01*
X51519162Y-59428563D01*
X51524857Y-59409058D01*
X51540174Y-59369822D01*
X51562463Y-59317430D01*
X51578107Y-59282355D01*
X51607359Y-59215201D01*
X51634906Y-59147358D01*
X51656263Y-59090034D01*
X51662065Y-59072572D01*
X51678548Y-59025938D01*
X51694660Y-58989905D01*
X51703510Y-58976287D01*
X51723040Y-58967952D01*
X51765666Y-58956137D01*
X51825855Y-58942181D01*
X51898078Y-58927422D01*
X51930400Y-58921355D01*
X52012478Y-58906273D01*
X52091205Y-58891669D01*
X52158891Y-58878980D01*
X52207840Y-58869642D01*
X52217057Y-58867839D01*
X52293257Y-58852799D01*
X52293257Y-58535492D01*
X52293086Y-58431154D01*
X52292384Y-58352213D01*
X52290866Y-58295038D01*
X52288251Y-58255999D01*
X52284254Y-58231465D01*
X52278591Y-58217805D01*
X52270980Y-58211389D01*
X52267857Y-58210199D01*
X52249022Y-58205980D01*
X52207412Y-58197562D01*
X52148370Y-58185961D01*
X52077243Y-58172195D01*
X51999375Y-58157280D01*
X51920113Y-58142232D01*
X51844802Y-58128069D01*
X51778787Y-58115806D01*
X51727413Y-58106461D01*
X51696025Y-58101050D01*
X51689041Y-58100114D01*
X51682715Y-58087596D01*
X51668710Y-58054246D01*
X51649645Y-58006377D01*
X51642366Y-57987629D01*
X51613004Y-57915195D01*
X51578429Y-57835170D01*
X51547463Y-57767728D01*
X51524677Y-57716159D01*
X51509518Y-57673785D01*
X51504458Y-57647834D01*
X51505264Y-57644356D01*
X51515959Y-57627936D01*
X51540380Y-57591417D01*
X51575905Y-57538687D01*
X51619913Y-57473635D01*
X51669783Y-57400151D01*
X51679644Y-57385645D01*
X51737508Y-57299704D01*
X51780044Y-57234261D01*
X51808946Y-57186304D01*
X51825910Y-57152820D01*
X51832633Y-57130795D01*
X51830810Y-57117217D01*
X51830764Y-57117131D01*
X51816414Y-57099297D01*
X51784677Y-57064817D01*
X51738990Y-57017268D01*
X51682796Y-56960222D01*
X51619532Y-56897255D01*
X51612398Y-56890227D01*
X51532670Y-56813020D01*
X51471143Y-56756330D01*
X51426579Y-56719110D01*
X51397743Y-56700315D01*
X51385042Y-56697889D01*
X51366506Y-56708471D01*
X51328039Y-56732916D01*
X51273614Y-56768612D01*
X51207202Y-56812947D01*
X51132775Y-56863311D01*
X51115399Y-56875160D01*
X50868703Y-57043626D01*
X50757294Y-56993062D01*
X50689543Y-56963595D01*
X50616817Y-56933959D01*
X50554297Y-56910330D01*
X50551543Y-56909358D01*
X50502640Y-56891457D01*
X50464943Y-56876320D01*
X50446575Y-56867210D01*
X50446544Y-56867184D01*
X50440715Y-56850717D01*
X50430808Y-56810219D01*
X50417805Y-56750242D01*
X50402691Y-56675340D01*
X50386448Y-56590064D01*
X50385119Y-56582875D01*
X50368825Y-56495014D01*
X50353867Y-56415260D01*
X50341209Y-56348681D01*
X50331814Y-56300347D01*
X50326646Y-56275325D01*
X50326556Y-56274943D01*
X50323411Y-56264299D01*
X50317296Y-56256262D01*
X50304547Y-56250467D01*
X50281500Y-56246547D01*
X50244491Y-56244135D01*
X50189856Y-56242865D01*
X50113933Y-56242371D01*
X50013056Y-56242286D01*
X50000000Y-56242286D01*
X49896090Y-56242348D01*
D12*
%TO.C,J4*%
X89710000Y-46985000D02*
X89260000Y-46985000D01*
X89710000Y-40015000D02*
X89710000Y-46985000D01*
X89260000Y-40015000D02*
X89710000Y-40015000D01*
X85290000Y-46985000D02*
X85290000Y-46035000D01*
X85740000Y-46985000D02*
X85290000Y-46985000D01*
X85290000Y-40965000D02*
X83800000Y-40965000D01*
X85290000Y-40015000D02*
X85290000Y-40965000D01*
X85740000Y-40015000D02*
X85290000Y-40015000D01*
%TO.C,J5*%
X85740000Y-53015000D02*
X85290000Y-53015000D01*
X85290000Y-53015000D02*
X85290000Y-53965000D01*
X85290000Y-53965000D02*
X83800000Y-53965000D01*
X85740000Y-59985000D02*
X85290000Y-59985000D01*
X85290000Y-59985000D02*
X85290000Y-59035000D01*
X89260000Y-53015000D02*
X89710000Y-53015000D01*
X89710000Y-53015000D02*
X89710000Y-59985000D01*
X89710000Y-59985000D02*
X89260000Y-59985000D01*
%TO.C,J1*%
X74860000Y-58990000D02*
X74860000Y-58540000D01*
X74860000Y-58540000D02*
X73910000Y-58540000D01*
X73910000Y-58540000D02*
X73910000Y-57050000D01*
X64140000Y-58990000D02*
X64140000Y-58540000D01*
X64140000Y-58540000D02*
X65090000Y-58540000D01*
X74860000Y-62510000D02*
X74860000Y-62960000D01*
X74860000Y-62960000D02*
X64140000Y-62960000D01*
X64140000Y-62960000D02*
X64140000Y-62510000D01*
%TO.C,J2*%
X66015000Y-41010000D02*
X66015000Y-41460000D01*
X66015000Y-41460000D02*
X66965000Y-41460000D01*
X66965000Y-41460000D02*
X66965000Y-42950000D01*
X72985000Y-41010000D02*
X72985000Y-41460000D01*
X72985000Y-41460000D02*
X72035000Y-41460000D01*
X66015000Y-37490000D02*
X66015000Y-37040000D01*
X66015000Y-37040000D02*
X72985000Y-37040000D01*
X72985000Y-37040000D02*
X72985000Y-37490000D01*
%TO.C,J8*%
X50140000Y-41010000D02*
X50140000Y-41460000D01*
X50140000Y-41460000D02*
X51090000Y-41460000D01*
X51090000Y-41460000D02*
X51090000Y-42950000D01*
X60860000Y-41010000D02*
X60860000Y-41460000D01*
X60860000Y-41460000D02*
X59910000Y-41460000D01*
X50140000Y-37490000D02*
X50140000Y-37040000D01*
X50140000Y-37040000D02*
X60860000Y-37040000D01*
X60860000Y-37040000D02*
X60860000Y-37490000D01*
%TO.C,J4*%
D10*
X84061904Y-46733333D02*
X84633333Y-46733333D01*
X84747619Y-46695238D01*
X84823809Y-46619047D01*
X84861904Y-46504761D01*
X84861904Y-46428571D01*
X84328571Y-47457142D02*
X84861904Y-47457142D01*
X84023809Y-47266666D02*
X84595238Y-47076190D01*
X84595238Y-47571428D01*
%TO.C,J5*%
X83561904Y-59733333D02*
X84133333Y-59733333D01*
X84247619Y-59695238D01*
X84323809Y-59619047D01*
X84361904Y-59504761D01*
X84361904Y-59428571D01*
X83561904Y-60495238D02*
X83561904Y-60114285D01*
X83942857Y-60076190D01*
X83904761Y-60114285D01*
X83866666Y-60190476D01*
X83866666Y-60380952D01*
X83904761Y-60457142D01*
X83942857Y-60495238D01*
X84019047Y-60533333D01*
X84209523Y-60533333D01*
X84285714Y-60495238D01*
X84323809Y-60457142D01*
X84361904Y-60380952D01*
X84361904Y-60190476D01*
X84323809Y-60114285D01*
X84285714Y-60076190D01*
%TO.C,J1*%
X77511904Y-59983333D02*
X78083333Y-59983333D01*
X78197619Y-59945238D01*
X78273809Y-59869047D01*
X78311904Y-59754761D01*
X78311904Y-59678571D01*
X78311904Y-60783333D02*
X78311904Y-60326190D01*
X78311904Y-60554761D02*
X77511904Y-60554761D01*
X77626190Y-60478571D01*
X77702380Y-60402380D01*
X77740476Y-60326190D01*
X71138095Y-56061904D02*
X71138095Y-55261904D01*
X70947619Y-55261904D01*
X70833333Y-55300000D01*
X70757142Y-55376190D01*
X70719047Y-55452380D01*
X70680952Y-55604761D01*
X70680952Y-55719047D01*
X70719047Y-55871428D01*
X70757142Y-55947619D01*
X70833333Y-56023809D01*
X70947619Y-56061904D01*
X71138095Y-56061904D01*
X70033333Y-56023809D02*
X70109523Y-56061904D01*
X70261904Y-56061904D01*
X70338095Y-56023809D01*
X70376190Y-55947619D01*
X70376190Y-55642857D01*
X70338095Y-55566666D01*
X70261904Y-55528571D01*
X70109523Y-55528571D01*
X70033333Y-55566666D01*
X69995238Y-55642857D01*
X69995238Y-55719047D01*
X70376190Y-55795238D01*
X69652380Y-56061904D02*
X69652380Y-55261904D01*
X69652380Y-55566666D02*
X69576190Y-55528571D01*
X69423809Y-55528571D01*
X69347619Y-55566666D01*
X69309523Y-55604761D01*
X69271428Y-55680952D01*
X69271428Y-55909523D01*
X69309523Y-55985714D01*
X69347619Y-56023809D01*
X69423809Y-56061904D01*
X69576190Y-56061904D01*
X69652380Y-56023809D01*
X68585714Y-55528571D02*
X68585714Y-56061904D01*
X68928571Y-55528571D02*
X68928571Y-55947619D01*
X68890476Y-56023809D01*
X68814285Y-56061904D01*
X68700000Y-56061904D01*
X68623809Y-56023809D01*
X68585714Y-55985714D01*
X67861904Y-55528571D02*
X67861904Y-56176190D01*
X67900000Y-56252380D01*
X67938095Y-56290476D01*
X68014285Y-56328571D01*
X68128571Y-56328571D01*
X68204761Y-56290476D01*
X67861904Y-56023809D02*
X67938095Y-56061904D01*
X68090476Y-56061904D01*
X68166666Y-56023809D01*
X68204761Y-55985714D01*
X68242857Y-55909523D01*
X68242857Y-55680952D01*
X68204761Y-55604761D01*
X68166666Y-55566666D01*
X68090476Y-55528571D01*
X67938095Y-55528571D01*
X67861904Y-55566666D01*
%TO.C,J2*%
X76866666Y-39311904D02*
X76866666Y-39883333D01*
X76904761Y-39997619D01*
X76980952Y-40073809D01*
X77095238Y-40111904D01*
X77171428Y-40111904D01*
X76523809Y-39388095D02*
X76485714Y-39350000D01*
X76409523Y-39311904D01*
X76219047Y-39311904D01*
X76142857Y-39350000D01*
X76104761Y-39388095D01*
X76066666Y-39464285D01*
X76066666Y-39540476D01*
X76104761Y-39654761D01*
X76561904Y-40111904D01*
X76066666Y-40111904D01*
X70826190Y-43511904D02*
X70826190Y-44159523D01*
X70788095Y-44235714D01*
X70750000Y-44273809D01*
X70673809Y-44311904D01*
X70521428Y-44311904D01*
X70445238Y-44273809D01*
X70407142Y-44235714D01*
X70369047Y-44159523D01*
X70369047Y-43511904D01*
X70026190Y-44083333D02*
X69645238Y-44083333D01*
X70102380Y-44311904D02*
X69835714Y-43511904D01*
X69569047Y-44311904D01*
X68845238Y-44311904D02*
X69111904Y-43930952D01*
X69302380Y-44311904D02*
X69302380Y-43511904D01*
X68997619Y-43511904D01*
X68921428Y-43550000D01*
X68883333Y-43588095D01*
X68845238Y-43664285D01*
X68845238Y-43778571D01*
X68883333Y-43854761D01*
X68921428Y-43892857D01*
X68997619Y-43930952D01*
X69302380Y-43930952D01*
X68616666Y-43511904D02*
X68159523Y-43511904D01*
X68388095Y-44311904D02*
X68388095Y-43511904D01*
%TO.C,J8*%
X47066666Y-39311904D02*
X47066666Y-39883333D01*
X47104761Y-39997619D01*
X47180952Y-40073809D01*
X47295238Y-40111904D01*
X47371428Y-40111904D01*
X46571428Y-39654761D02*
X46647619Y-39616666D01*
X46685714Y-39578571D01*
X46723809Y-39502380D01*
X46723809Y-39464285D01*
X46685714Y-39388095D01*
X46647619Y-39350000D01*
X46571428Y-39311904D01*
X46419047Y-39311904D01*
X46342857Y-39350000D01*
X46304761Y-39388095D01*
X46266666Y-39464285D01*
X46266666Y-39502380D01*
X46304761Y-39578571D01*
X46342857Y-39616666D01*
X46419047Y-39654761D01*
X46571428Y-39654761D01*
X46647619Y-39692857D01*
X46685714Y-39730952D01*
X46723809Y-39807142D01*
X46723809Y-39959523D01*
X46685714Y-40035714D01*
X46647619Y-40073809D01*
X46571428Y-40111904D01*
X46419047Y-40111904D01*
X46342857Y-40073809D01*
X46304761Y-40035714D01*
X46266666Y-39959523D01*
X46266666Y-39807142D01*
X46304761Y-39730952D01*
X46342857Y-39692857D01*
X46419047Y-39654761D01*
X57538095Y-44273809D02*
X57423809Y-44311904D01*
X57233333Y-44311904D01*
X57157142Y-44273809D01*
X57119047Y-44235714D01*
X57080952Y-44159523D01*
X57080952Y-44083333D01*
X57119047Y-44007142D01*
X57157142Y-43969047D01*
X57233333Y-43930952D01*
X57385714Y-43892857D01*
X57461904Y-43854761D01*
X57500000Y-43816666D01*
X57538095Y-43740476D01*
X57538095Y-43664285D01*
X57500000Y-43588095D01*
X57461904Y-43550000D01*
X57385714Y-43511904D01*
X57195238Y-43511904D01*
X57080952Y-43550000D01*
X56814285Y-43511904D02*
X56623809Y-44311904D01*
X56471428Y-43740476D01*
X56319047Y-44311904D01*
X56128571Y-43511904D01*
X55823809Y-44311904D02*
X55823809Y-43511904D01*
X55633333Y-43511904D01*
X55519047Y-43550000D01*
X55442857Y-43626190D01*
X55404761Y-43702380D01*
X55366666Y-43854761D01*
X55366666Y-43969047D01*
X55404761Y-44121428D01*
X55442857Y-44197619D01*
X55519047Y-44273809D01*
X55633333Y-44311904D01*
X55823809Y-44311904D01*
X54909523Y-44311904D02*
X54985714Y-44273809D01*
X55023809Y-44235714D01*
X55061904Y-44159523D01*
X55061904Y-43930952D01*
X55023809Y-43854761D01*
X54985714Y-43816666D01*
X54909523Y-43778571D01*
X54795238Y-43778571D01*
X54719047Y-43816666D01*
X54680952Y-43854761D01*
X54642857Y-43930952D01*
X54642857Y-44159523D01*
X54680952Y-44235714D01*
X54719047Y-44273809D01*
X54795238Y-44311904D01*
X54909523Y-44311904D01*
X53957142Y-43778571D02*
X53957142Y-44311904D01*
X54299999Y-43778571D02*
X54299999Y-44197619D01*
X54261904Y-44273809D01*
X54185714Y-44311904D01*
X54071428Y-44311904D01*
X53995238Y-44273809D01*
X53957142Y-44235714D01*
X53690476Y-43778571D02*
X53385714Y-43778571D01*
X53576190Y-43511904D02*
X53576190Y-44197619D01*
X53538095Y-44273809D01*
X53461904Y-44311904D01*
X53385714Y-44311904D01*
%TD*%
M02*
