%TF.GenerationSoftware,KiCad,Pcbnew,5.1.9*%
%TF.CreationDate,2021-02-28T20:30:44+01:00*%
%TF.ProjectId,can-usb-dongle,63616e2d-7573-4622-9d64-6f6e676c652e,rev?*%
%TF.SameCoordinates,Original*%
%TF.FileFunction,Copper,L4,Bot*%
%TF.FilePolarity,Positive*%
%FSLAX46Y46*%
G04 Gerber Fmt 4.6, Leading zero omitted, Abs format (unit mm)*
G04 Created by KiCad (PCBNEW 5.1.9) date 2021-02-28 20:30:44*
%MOMM*%
%LPD*%
G01*
G04 APERTURE LIST*
%TA.AperFunction,ComponentPad*%
%ADD10O,1.950000X1.700000*%
%TD*%
%TA.AperFunction,ViaPad*%
%ADD11C,0.500000*%
%TD*%
%TA.AperFunction,ViaPad*%
%ADD12C,0.600000*%
%TD*%
%TA.AperFunction,Conductor*%
%ADD13C,0.160000*%
%TD*%
%TA.AperFunction,Conductor*%
%ADD14C,0.500000*%
%TD*%
%TA.AperFunction,Conductor*%
%ADD15C,0.200000*%
%TD*%
%TA.AperFunction,Conductor*%
%ADD16C,0.100000*%
%TD*%
G04 APERTURE END LIST*
%TO.P,J6,1*%
%TO.N,VBUS*%
%TA.AperFunction,ComponentPad*%
G36*
G01*
X82725000Y-47850000D02*
X81275000Y-47850000D01*
G75*
G02*
X81025000Y-47600000I0J250000D01*
G01*
X81025000Y-46400000D01*
G75*
G02*
X81275000Y-46150000I250000J0D01*
G01*
X82725000Y-46150000D01*
G75*
G02*
X82975000Y-46400000I0J-250000D01*
G01*
X82975000Y-47600000D01*
G75*
G02*
X82725000Y-47850000I-250000J0D01*
G01*
G37*
%TD.AperFunction*%
D10*
%TO.P,J6,2*%
%TO.N,GND*%
X82000000Y-44500000D03*
%TO.P,J6,3*%
%TO.N,/CANH*%
X82000000Y-42000000D03*
%TO.P,J6,4*%
%TO.N,/CANL*%
X82000000Y-39500000D03*
%TD*%
%TO.P,J7,4*%
%TO.N,/CANL*%
X82000000Y-53000000D03*
%TO.P,J7,3*%
%TO.N,/CANH*%
X82000000Y-55500000D03*
%TO.P,J7,2*%
%TO.N,GND*%
X82000000Y-58000000D03*
%TO.P,J7,1*%
%TO.N,VBUS*%
%TA.AperFunction,ComponentPad*%
G36*
G01*
X82725000Y-61350000D02*
X81275000Y-61350000D01*
G75*
G02*
X81025000Y-61100000I0J250000D01*
G01*
X81025000Y-59900000D01*
G75*
G02*
X81275000Y-59650000I250000J0D01*
G01*
X82725000Y-59650000D01*
G75*
G02*
X82975000Y-59900000I0J-250000D01*
G01*
X82975000Y-61100000D01*
G75*
G02*
X82725000Y-61350000I-250000J0D01*
G01*
G37*
%TD.AperFunction*%
%TD*%
%TO.P,J4,MP*%
%TO.N,N/C*%
%TA.AperFunction,SMDPad,CuDef*%
G36*
G01*
X86249999Y-46875000D02*
X88750001Y-46875000D01*
G75*
G02*
X89000000Y-47124999I0J-249999D01*
G01*
X89000000Y-48725001D01*
G75*
G02*
X88750001Y-48975000I-249999J0D01*
G01*
X86249999Y-48975000D01*
G75*
G02*
X86000000Y-48725001I0J249999D01*
G01*
X86000000Y-47124999D01*
G75*
G02*
X86249999Y-46875000I249999J0D01*
G01*
G37*
%TD.AperFunction*%
%TA.AperFunction,SMDPad,CuDef*%
G36*
G01*
X86249999Y-38025000D02*
X88750001Y-38025000D01*
G75*
G02*
X89000000Y-38274999I0J-249999D01*
G01*
X89000000Y-39875001D01*
G75*
G02*
X88750001Y-40125000I-249999J0D01*
G01*
X86249999Y-40125000D01*
G75*
G02*
X86000000Y-39875001I0J249999D01*
G01*
X86000000Y-38274999D01*
G75*
G02*
X86249999Y-38025000I249999J0D01*
G01*
G37*
%TD.AperFunction*%
%TO.P,J4,4*%
%TO.N,/CANL*%
%TA.AperFunction,SMDPad,CuDef*%
G36*
G01*
X84000000Y-44975000D02*
X85200000Y-44975000D01*
G75*
G02*
X85400000Y-45175000I0J-200000D01*
G01*
X85400000Y-45575000D01*
G75*
G02*
X85200000Y-45775000I-200000J0D01*
G01*
X84000000Y-45775000D01*
G75*
G02*
X83800000Y-45575000I0J200000D01*
G01*
X83800000Y-45175000D01*
G75*
G02*
X84000000Y-44975000I200000J0D01*
G01*
G37*
%TD.AperFunction*%
%TO.P,J4,3*%
%TO.N,/CANH*%
%TA.AperFunction,SMDPad,CuDef*%
G36*
G01*
X84000000Y-43725000D02*
X85200000Y-43725000D01*
G75*
G02*
X85400000Y-43925000I0J-200000D01*
G01*
X85400000Y-44325000D01*
G75*
G02*
X85200000Y-44525000I-200000J0D01*
G01*
X84000000Y-44525000D01*
G75*
G02*
X83800000Y-44325000I0J200000D01*
G01*
X83800000Y-43925000D01*
G75*
G02*
X84000000Y-43725000I200000J0D01*
G01*
G37*
%TD.AperFunction*%
%TO.P,J4,2*%
%TO.N,GND*%
%TA.AperFunction,SMDPad,CuDef*%
G36*
G01*
X84000000Y-42475000D02*
X85200000Y-42475000D01*
G75*
G02*
X85400000Y-42675000I0J-200000D01*
G01*
X85400000Y-43075000D01*
G75*
G02*
X85200000Y-43275000I-200000J0D01*
G01*
X84000000Y-43275000D01*
G75*
G02*
X83800000Y-43075000I0J200000D01*
G01*
X83800000Y-42675000D01*
G75*
G02*
X84000000Y-42475000I200000J0D01*
G01*
G37*
%TD.AperFunction*%
%TO.P,J4,1*%
%TO.N,VBUS*%
%TA.AperFunction,SMDPad,CuDef*%
G36*
G01*
X84000000Y-41225000D02*
X85200000Y-41225000D01*
G75*
G02*
X85400000Y-41425000I0J-200000D01*
G01*
X85400000Y-41825000D01*
G75*
G02*
X85200000Y-42025000I-200000J0D01*
G01*
X84000000Y-42025000D01*
G75*
G02*
X83800000Y-41825000I0J200000D01*
G01*
X83800000Y-41425000D01*
G75*
G02*
X84000000Y-41225000I200000J0D01*
G01*
G37*
%TD.AperFunction*%
%TD*%
%TO.P,J5,1*%
%TO.N,VBUS*%
%TA.AperFunction,SMDPad,CuDef*%
G36*
G01*
X84000000Y-54225000D02*
X85200000Y-54225000D01*
G75*
G02*
X85400000Y-54425000I0J-200000D01*
G01*
X85400000Y-54825000D01*
G75*
G02*
X85200000Y-55025000I-200000J0D01*
G01*
X84000000Y-55025000D01*
G75*
G02*
X83800000Y-54825000I0J200000D01*
G01*
X83800000Y-54425000D01*
G75*
G02*
X84000000Y-54225000I200000J0D01*
G01*
G37*
%TD.AperFunction*%
%TO.P,J5,2*%
%TO.N,GND*%
%TA.AperFunction,SMDPad,CuDef*%
G36*
G01*
X84000000Y-55475000D02*
X85200000Y-55475000D01*
G75*
G02*
X85400000Y-55675000I0J-200000D01*
G01*
X85400000Y-56075000D01*
G75*
G02*
X85200000Y-56275000I-200000J0D01*
G01*
X84000000Y-56275000D01*
G75*
G02*
X83800000Y-56075000I0J200000D01*
G01*
X83800000Y-55675000D01*
G75*
G02*
X84000000Y-55475000I200000J0D01*
G01*
G37*
%TD.AperFunction*%
%TO.P,J5,3*%
%TO.N,/CANH*%
%TA.AperFunction,SMDPad,CuDef*%
G36*
G01*
X84000000Y-56725000D02*
X85200000Y-56725000D01*
G75*
G02*
X85400000Y-56925000I0J-200000D01*
G01*
X85400000Y-57325000D01*
G75*
G02*
X85200000Y-57525000I-200000J0D01*
G01*
X84000000Y-57525000D01*
G75*
G02*
X83800000Y-57325000I0J200000D01*
G01*
X83800000Y-56925000D01*
G75*
G02*
X84000000Y-56725000I200000J0D01*
G01*
G37*
%TD.AperFunction*%
%TO.P,J5,4*%
%TO.N,/CANL*%
%TA.AperFunction,SMDPad,CuDef*%
G36*
G01*
X84000000Y-57975000D02*
X85200000Y-57975000D01*
G75*
G02*
X85400000Y-58175000I0J-200000D01*
G01*
X85400000Y-58575000D01*
G75*
G02*
X85200000Y-58775000I-200000J0D01*
G01*
X84000000Y-58775000D01*
G75*
G02*
X83800000Y-58575000I0J200000D01*
G01*
X83800000Y-58175000D01*
G75*
G02*
X84000000Y-57975000I200000J0D01*
G01*
G37*
%TD.AperFunction*%
%TO.P,J5,MP*%
%TO.N,N/C*%
%TA.AperFunction,SMDPad,CuDef*%
G36*
G01*
X86249999Y-51025000D02*
X88750001Y-51025000D01*
G75*
G02*
X89000000Y-51274999I0J-249999D01*
G01*
X89000000Y-52875001D01*
G75*
G02*
X88750001Y-53125000I-249999J0D01*
G01*
X86249999Y-53125000D01*
G75*
G02*
X86000000Y-52875001I0J249999D01*
G01*
X86000000Y-51274999D01*
G75*
G02*
X86249999Y-51025000I249999J0D01*
G01*
G37*
%TD.AperFunction*%
%TA.AperFunction,SMDPad,CuDef*%
G36*
G01*
X86249999Y-59875000D02*
X88750001Y-59875000D01*
G75*
G02*
X89000000Y-60124999I0J-249999D01*
G01*
X89000000Y-61725001D01*
G75*
G02*
X88750001Y-61975000I-249999J0D01*
G01*
X86249999Y-61975000D01*
G75*
G02*
X86000000Y-61725001I0J249999D01*
G01*
X86000000Y-60124999D01*
G75*
G02*
X86249999Y-59875000I249999J0D01*
G01*
G37*
%TD.AperFunction*%
%TD*%
%TO.P,J1,1*%
%TO.N,+3V3*%
%TA.AperFunction,SMDPad,CuDef*%
G36*
G01*
X73650000Y-57250000D02*
X73650000Y-58450000D01*
G75*
G02*
X73450000Y-58650000I-200000J0D01*
G01*
X73050000Y-58650000D01*
G75*
G02*
X72850000Y-58450000I0J200000D01*
G01*
X72850000Y-57250000D01*
G75*
G02*
X73050000Y-57050000I200000J0D01*
G01*
X73450000Y-57050000D01*
G75*
G02*
X73650000Y-57250000I0J-200000D01*
G01*
G37*
%TD.AperFunction*%
%TO.P,J1,2*%
%TO.N,GND*%
%TA.AperFunction,SMDPad,CuDef*%
G36*
G01*
X72400000Y-57250000D02*
X72400000Y-58450000D01*
G75*
G02*
X72200000Y-58650000I-200000J0D01*
G01*
X71800000Y-58650000D01*
G75*
G02*
X71600000Y-58450000I0J200000D01*
G01*
X71600000Y-57250000D01*
G75*
G02*
X71800000Y-57050000I200000J0D01*
G01*
X72200000Y-57050000D01*
G75*
G02*
X72400000Y-57250000I0J-200000D01*
G01*
G37*
%TD.AperFunction*%
%TO.P,J1,3*%
%TO.N,/NRST*%
%TA.AperFunction,SMDPad,CuDef*%
G36*
G01*
X71150000Y-57250000D02*
X71150000Y-58450000D01*
G75*
G02*
X70950000Y-58650000I-200000J0D01*
G01*
X70550000Y-58650000D01*
G75*
G02*
X70350000Y-58450000I0J200000D01*
G01*
X70350000Y-57250000D01*
G75*
G02*
X70550000Y-57050000I200000J0D01*
G01*
X70950000Y-57050000D01*
G75*
G02*
X71150000Y-57250000I0J-200000D01*
G01*
G37*
%TD.AperFunction*%
%TO.P,J1,4*%
%TO.N,/SWDIO*%
%TA.AperFunction,SMDPad,CuDef*%
G36*
G01*
X69900000Y-57250000D02*
X69900000Y-58450000D01*
G75*
G02*
X69700000Y-58650000I-200000J0D01*
G01*
X69300000Y-58650000D01*
G75*
G02*
X69100000Y-58450000I0J200000D01*
G01*
X69100000Y-57250000D01*
G75*
G02*
X69300000Y-57050000I200000J0D01*
G01*
X69700000Y-57050000D01*
G75*
G02*
X69900000Y-57250000I0J-200000D01*
G01*
G37*
%TD.AperFunction*%
%TO.P,J1,5*%
%TO.N,/SWCLK*%
%TA.AperFunction,SMDPad,CuDef*%
G36*
G01*
X68650000Y-57250000D02*
X68650000Y-58450000D01*
G75*
G02*
X68450000Y-58650000I-200000J0D01*
G01*
X68050000Y-58650000D01*
G75*
G02*
X67850000Y-58450000I0J200000D01*
G01*
X67850000Y-57250000D01*
G75*
G02*
X68050000Y-57050000I200000J0D01*
G01*
X68450000Y-57050000D01*
G75*
G02*
X68650000Y-57250000I0J-200000D01*
G01*
G37*
%TD.AperFunction*%
%TO.P,J1,6*%
%TO.N,/UART1_TX*%
%TA.AperFunction,SMDPad,CuDef*%
G36*
G01*
X67400000Y-57250000D02*
X67400000Y-58450000D01*
G75*
G02*
X67200000Y-58650000I-200000J0D01*
G01*
X66800000Y-58650000D01*
G75*
G02*
X66600000Y-58450000I0J200000D01*
G01*
X66600000Y-57250000D01*
G75*
G02*
X66800000Y-57050000I200000J0D01*
G01*
X67200000Y-57050000D01*
G75*
G02*
X67400000Y-57250000I0J-200000D01*
G01*
G37*
%TD.AperFunction*%
%TO.P,J1,7*%
%TO.N,/UART1_RX*%
%TA.AperFunction,SMDPad,CuDef*%
G36*
G01*
X66150000Y-57250000D02*
X66150000Y-58450000D01*
G75*
G02*
X65950000Y-58650000I-200000J0D01*
G01*
X65550000Y-58650000D01*
G75*
G02*
X65350000Y-58450000I0J200000D01*
G01*
X65350000Y-57250000D01*
G75*
G02*
X65550000Y-57050000I200000J0D01*
G01*
X65950000Y-57050000D01*
G75*
G02*
X66150000Y-57250000I0J-200000D01*
G01*
G37*
%TD.AperFunction*%
%TO.P,J1,MP*%
%TO.N,N/C*%
%TA.AperFunction,SMDPad,CuDef*%
G36*
G01*
X76850000Y-59499999D02*
X76850000Y-62000001D01*
G75*
G02*
X76600001Y-62250000I-249999J0D01*
G01*
X74999999Y-62250000D01*
G75*
G02*
X74750000Y-62000001I0J249999D01*
G01*
X74750000Y-59499999D01*
G75*
G02*
X74999999Y-59250000I249999J0D01*
G01*
X76600001Y-59250000D01*
G75*
G02*
X76850000Y-59499999I0J-249999D01*
G01*
G37*
%TD.AperFunction*%
%TA.AperFunction,SMDPad,CuDef*%
G36*
G01*
X64250000Y-59499999D02*
X64250000Y-62000001D01*
G75*
G02*
X64000001Y-62250000I-249999J0D01*
G01*
X62399999Y-62250000D01*
G75*
G02*
X62150000Y-62000001I0J249999D01*
G01*
X62150000Y-59499999D01*
G75*
G02*
X62399999Y-59250000I249999J0D01*
G01*
X64000001Y-59250000D01*
G75*
G02*
X64250000Y-59499999I0J-249999D01*
G01*
G37*
%TD.AperFunction*%
%TD*%
%TO.P,J2,1*%
%TO.N,+3V3*%
%TA.AperFunction,SMDPad,CuDef*%
G36*
G01*
X67225000Y-42750000D02*
X67225000Y-41550000D01*
G75*
G02*
X67425000Y-41350000I200000J0D01*
G01*
X67825000Y-41350000D01*
G75*
G02*
X68025000Y-41550000I0J-200000D01*
G01*
X68025000Y-42750000D01*
G75*
G02*
X67825000Y-42950000I-200000J0D01*
G01*
X67425000Y-42950000D01*
G75*
G02*
X67225000Y-42750000I0J200000D01*
G01*
G37*
%TD.AperFunction*%
%TO.P,J2,2*%
%TO.N,GND*%
%TA.AperFunction,SMDPad,CuDef*%
G36*
G01*
X68475000Y-42750000D02*
X68475000Y-41550000D01*
G75*
G02*
X68675000Y-41350000I200000J0D01*
G01*
X69075000Y-41350000D01*
G75*
G02*
X69275000Y-41550000I0J-200000D01*
G01*
X69275000Y-42750000D01*
G75*
G02*
X69075000Y-42950000I-200000J0D01*
G01*
X68675000Y-42950000D01*
G75*
G02*
X68475000Y-42750000I0J200000D01*
G01*
G37*
%TD.AperFunction*%
%TO.P,J2,3*%
%TO.N,/UART1_RX*%
%TA.AperFunction,SMDPad,CuDef*%
G36*
G01*
X69725000Y-42750000D02*
X69725000Y-41550000D01*
G75*
G02*
X69925000Y-41350000I200000J0D01*
G01*
X70325000Y-41350000D01*
G75*
G02*
X70525000Y-41550000I0J-200000D01*
G01*
X70525000Y-42750000D01*
G75*
G02*
X70325000Y-42950000I-200000J0D01*
G01*
X69925000Y-42950000D01*
G75*
G02*
X69725000Y-42750000I0J200000D01*
G01*
G37*
%TD.AperFunction*%
%TO.P,J2,4*%
%TO.N,/UART1_TX*%
%TA.AperFunction,SMDPad,CuDef*%
G36*
G01*
X70975000Y-42750000D02*
X70975000Y-41550000D01*
G75*
G02*
X71175000Y-41350000I200000J0D01*
G01*
X71575000Y-41350000D01*
G75*
G02*
X71775000Y-41550000I0J-200000D01*
G01*
X71775000Y-42750000D01*
G75*
G02*
X71575000Y-42950000I-200000J0D01*
G01*
X71175000Y-42950000D01*
G75*
G02*
X70975000Y-42750000I0J200000D01*
G01*
G37*
%TD.AperFunction*%
%TO.P,J2,MP*%
%TO.N,N/C*%
%TA.AperFunction,SMDPad,CuDef*%
G36*
G01*
X64025000Y-40500001D02*
X64025000Y-37999999D01*
G75*
G02*
X64274999Y-37750000I249999J0D01*
G01*
X65875001Y-37750000D01*
G75*
G02*
X66125000Y-37999999I0J-249999D01*
G01*
X66125000Y-40500001D01*
G75*
G02*
X65875001Y-40750000I-249999J0D01*
G01*
X64274999Y-40750000D01*
G75*
G02*
X64025000Y-40500001I0J249999D01*
G01*
G37*
%TD.AperFunction*%
%TA.AperFunction,SMDPad,CuDef*%
G36*
G01*
X72875000Y-40500001D02*
X72875000Y-37999999D01*
G75*
G02*
X73124999Y-37750000I249999J0D01*
G01*
X74725001Y-37750000D01*
G75*
G02*
X74975000Y-37999999I0J-249999D01*
G01*
X74975000Y-40500001D01*
G75*
G02*
X74725001Y-40750000I-249999J0D01*
G01*
X73124999Y-40750000D01*
G75*
G02*
X72875000Y-40500001I0J249999D01*
G01*
G37*
%TD.AperFunction*%
%TD*%
%TO.P,J8,1*%
%TO.N,+3V3*%
%TA.AperFunction,SMDPad,CuDef*%
G36*
G01*
X51350000Y-42750000D02*
X51350000Y-41550000D01*
G75*
G02*
X51550000Y-41350000I200000J0D01*
G01*
X51950000Y-41350000D01*
G75*
G02*
X52150000Y-41550000I0J-200000D01*
G01*
X52150000Y-42750000D01*
G75*
G02*
X51950000Y-42950000I-200000J0D01*
G01*
X51550000Y-42950000D01*
G75*
G02*
X51350000Y-42750000I0J200000D01*
G01*
G37*
%TD.AperFunction*%
%TO.P,J8,2*%
%TO.N,GND*%
%TA.AperFunction,SMDPad,CuDef*%
G36*
G01*
X52600000Y-42750000D02*
X52600000Y-41550000D01*
G75*
G02*
X52800000Y-41350000I200000J0D01*
G01*
X53200000Y-41350000D01*
G75*
G02*
X53400000Y-41550000I0J-200000D01*
G01*
X53400000Y-42750000D01*
G75*
G02*
X53200000Y-42950000I-200000J0D01*
G01*
X52800000Y-42950000D01*
G75*
G02*
X52600000Y-42750000I0J200000D01*
G01*
G37*
%TD.AperFunction*%
%TO.P,J8,3*%
%TO.N,Net-(J8-Pad3)*%
%TA.AperFunction,SMDPad,CuDef*%
G36*
G01*
X53850000Y-42750000D02*
X53850000Y-41550000D01*
G75*
G02*
X54050000Y-41350000I200000J0D01*
G01*
X54450000Y-41350000D01*
G75*
G02*
X54650000Y-41550000I0J-200000D01*
G01*
X54650000Y-42750000D01*
G75*
G02*
X54450000Y-42950000I-200000J0D01*
G01*
X54050000Y-42950000D01*
G75*
G02*
X53850000Y-42750000I0J200000D01*
G01*
G37*
%TD.AperFunction*%
%TO.P,J8,4*%
%TO.N,Net-(J8-Pad4)*%
%TA.AperFunction,SMDPad,CuDef*%
G36*
G01*
X55100000Y-42750000D02*
X55100000Y-41550000D01*
G75*
G02*
X55300000Y-41350000I200000J0D01*
G01*
X55700000Y-41350000D01*
G75*
G02*
X55900000Y-41550000I0J-200000D01*
G01*
X55900000Y-42750000D01*
G75*
G02*
X55700000Y-42950000I-200000J0D01*
G01*
X55300000Y-42950000D01*
G75*
G02*
X55100000Y-42750000I0J200000D01*
G01*
G37*
%TD.AperFunction*%
%TO.P,J8,5*%
%TO.N,Net-(J8-Pad5)*%
%TA.AperFunction,SMDPad,CuDef*%
G36*
G01*
X56350000Y-42750000D02*
X56350000Y-41550000D01*
G75*
G02*
X56550000Y-41350000I200000J0D01*
G01*
X56950000Y-41350000D01*
G75*
G02*
X57150000Y-41550000I0J-200000D01*
G01*
X57150000Y-42750000D01*
G75*
G02*
X56950000Y-42950000I-200000J0D01*
G01*
X56550000Y-42950000D01*
G75*
G02*
X56350000Y-42750000I0J200000D01*
G01*
G37*
%TD.AperFunction*%
%TO.P,J8,6*%
%TO.N,/UART1_TX*%
%TA.AperFunction,SMDPad,CuDef*%
G36*
G01*
X57600000Y-42750000D02*
X57600000Y-41550000D01*
G75*
G02*
X57800000Y-41350000I200000J0D01*
G01*
X58200000Y-41350000D01*
G75*
G02*
X58400000Y-41550000I0J-200000D01*
G01*
X58400000Y-42750000D01*
G75*
G02*
X58200000Y-42950000I-200000J0D01*
G01*
X57800000Y-42950000D01*
G75*
G02*
X57600000Y-42750000I0J200000D01*
G01*
G37*
%TD.AperFunction*%
%TO.P,J8,7*%
%TO.N,/UART1_RX*%
%TA.AperFunction,SMDPad,CuDef*%
G36*
G01*
X58850000Y-42750000D02*
X58850000Y-41550000D01*
G75*
G02*
X59050000Y-41350000I200000J0D01*
G01*
X59450000Y-41350000D01*
G75*
G02*
X59650000Y-41550000I0J-200000D01*
G01*
X59650000Y-42750000D01*
G75*
G02*
X59450000Y-42950000I-200000J0D01*
G01*
X59050000Y-42950000D01*
G75*
G02*
X58850000Y-42750000I0J200000D01*
G01*
G37*
%TD.AperFunction*%
%TO.P,J8,MP*%
%TO.N,N/C*%
%TA.AperFunction,SMDPad,CuDef*%
G36*
G01*
X48150000Y-40500001D02*
X48150000Y-37999999D01*
G75*
G02*
X48399999Y-37750000I249999J0D01*
G01*
X50000001Y-37750000D01*
G75*
G02*
X50250000Y-37999999I0J-249999D01*
G01*
X50250000Y-40500001D01*
G75*
G02*
X50000001Y-40750000I-249999J0D01*
G01*
X48399999Y-40750000D01*
G75*
G02*
X48150000Y-40500001I0J249999D01*
G01*
G37*
%TD.AperFunction*%
%TA.AperFunction,SMDPad,CuDef*%
G36*
G01*
X60750000Y-40500001D02*
X60750000Y-37999999D01*
G75*
G02*
X60999999Y-37750000I249999J0D01*
G01*
X62600001Y-37750000D01*
G75*
G02*
X62850000Y-37999999I0J-249999D01*
G01*
X62850000Y-40500001D01*
G75*
G02*
X62600001Y-40750000I-249999J0D01*
G01*
X60999999Y-40750000D01*
G75*
G02*
X60750000Y-40500001I0J249999D01*
G01*
G37*
%TD.AperFunction*%
%TD*%
D11*
%TO.N,GND*%
X65300000Y-43100000D03*
X83950000Y-40500000D03*
X73700000Y-51150000D03*
X88600000Y-54100000D03*
X83750000Y-49650000D03*
D12*
X80200000Y-44900000D03*
X80100000Y-43400000D03*
X77400000Y-46500000D03*
X56900000Y-54400000D03*
X86100000Y-42900000D03*
X86400000Y-56200000D03*
X59600000Y-51100000D03*
D11*
X68900000Y-40000000D03*
X80700000Y-48800000D03*
D12*
%TO.N,/NRST*%
X68000000Y-48800000D03*
X58000000Y-55300000D03*
%TO.N,/SWCLK*%
X62600000Y-51800000D03*
%TO.N,/SWDIO*%
X64300000Y-51800000D03*
%TO.N,/CAN1_RX*%
X76300000Y-45400000D03*
X66200000Y-51200000D03*
%TO.N,/CAN1_TX*%
X71200000Y-46000000D03*
X67200004Y-51199994D03*
%TO.N,/UART1_RX*%
X67000000Y-60200000D03*
%TO.N,/UART1_TX*%
X66961084Y-59361083D03*
%TO.N,+3V3*%
X46800000Y-38050000D03*
X68200000Y-55800000D03*
X59100000Y-53800000D03*
X63900000Y-42100000D03*
X73100000Y-45600000D03*
X70900000Y-52200000D03*
X58950000Y-59750000D03*
X73250000Y-59300000D03*
X50350000Y-61500000D03*
X53300000Y-45450000D03*
%TO.N,VBUS*%
X86400000Y-54600000D03*
X79200000Y-49300000D03*
X79200000Y-50000000D03*
X79200000Y-50700000D03*
X79200000Y-51400000D03*
X56400000Y-38600000D03*
X87100000Y-42600000D03*
%TO.N,/VUSB*%
X58000000Y-54400000D03*
X58400000Y-45200000D03*
X54300008Y-51100000D03*
%TO.N,/BTN*%
X67600000Y-48000000D03*
X54900000Y-57700000D03*
X64100000Y-50300000D03*
%TO.N,/CAN_EN*%
X76300000Y-40600000D03*
X67399994Y-47200000D03*
D11*
%TO.N,Net-(J8-Pad3)*%
X55649998Y-40000000D03*
%TO.N,Net-(J8-Pad4)*%
X55539405Y-40839433D03*
%TO.N,Net-(J8-Pad5)*%
X56750020Y-40800000D03*
%TD*%
D13*
%TO.N,GND*%
X86075000Y-42875000D02*
X86100000Y-42900000D01*
D14*
X84600000Y-42875000D02*
X86075000Y-42875000D01*
X86075000Y-55875000D02*
X86400000Y-56200000D01*
X84600000Y-55875000D02*
X86075000Y-55875000D01*
D13*
%TO.N,/NRST*%
X66800000Y-48800000D02*
X68000000Y-48800000D01*
X65400000Y-50200000D02*
X66800000Y-48800000D01*
X65400000Y-50900000D02*
X65400000Y-50200000D01*
X62300000Y-50900000D02*
X65400000Y-50900000D01*
X61442201Y-51757799D02*
X62300000Y-50900000D01*
X61442201Y-54057799D02*
X61442201Y-51757799D01*
X60200000Y-55300000D02*
X61442201Y-54057799D01*
X58000000Y-55300000D02*
X60200000Y-55300000D01*
X65400000Y-51100000D02*
X65400000Y-50900000D01*
X65400000Y-51961580D02*
X65400000Y-51100000D01*
X67199999Y-52799999D02*
X66238419Y-52799999D01*
X66238419Y-52799999D02*
X65400000Y-51961580D01*
X70750000Y-56350000D02*
X67199999Y-52799999D01*
X70750000Y-57850000D02*
X70750000Y-56350000D01*
%TO.N,/SWCLK*%
X68250000Y-57850000D02*
X68250000Y-56750000D01*
X63300000Y-51800000D02*
X62600000Y-51800000D01*
X68250000Y-56750000D02*
X63300000Y-51800000D01*
%TO.N,/SWDIO*%
X65610010Y-53110010D02*
X64300000Y-51800000D01*
X69500000Y-56200000D02*
X66410010Y-53110010D01*
X66410010Y-53110010D02*
X65610010Y-53110010D01*
X69500000Y-57850000D02*
X69500000Y-56200000D01*
D15*
%TO.N,/CAN1_RX*%
X69750002Y-51949998D02*
X66949998Y-51949998D01*
X76300000Y-45400000D02*
X69750002Y-51949998D01*
X66949998Y-51949998D02*
X66200000Y-51200000D01*
%TO.N,/CAN1_TX*%
X67200004Y-51199994D02*
X69100006Y-51199994D01*
X71200000Y-49100000D02*
X71200000Y-46000000D01*
X69100006Y-51199994D02*
X71200000Y-49100000D01*
%TO.N,/UART1_RX*%
X66200000Y-60200000D02*
X67000000Y-60200000D01*
X65750000Y-59750000D02*
X66200000Y-60200000D01*
X65750000Y-57850000D02*
X65750000Y-59750000D01*
D13*
X70125000Y-42150000D02*
X70125000Y-43275000D01*
X70125000Y-43275000D02*
X69600000Y-43800000D01*
X69600000Y-43800000D02*
X59700000Y-43800000D01*
X59250000Y-43350000D02*
X59250000Y-42150000D01*
X59700000Y-43800000D02*
X59250000Y-43350000D01*
X64340000Y-56440000D02*
X65350000Y-57450000D01*
X49300000Y-57000000D02*
X51000000Y-58700000D01*
X65350000Y-57450000D02*
X65750000Y-57850000D01*
X58960000Y-56440000D02*
X64340000Y-56440000D01*
X51000000Y-58700000D02*
X56700000Y-58700000D01*
X49300000Y-42330789D02*
X49300000Y-57000000D01*
X52440800Y-39189989D02*
X49300000Y-42330789D01*
X57589989Y-39189989D02*
X52440800Y-39189989D01*
X59250000Y-40850000D02*
X57589989Y-39189989D01*
X56700000Y-58700000D02*
X58960000Y-56440000D01*
X59250000Y-42150000D02*
X59250000Y-40850000D01*
D15*
%TO.N,/UART1_TX*%
X67000000Y-59322167D02*
X66961084Y-59361083D01*
X67000000Y-57850000D02*
X67000000Y-59322167D01*
D13*
X58000000Y-43400000D02*
X58000000Y-42150000D01*
X58720000Y-44120000D02*
X58000000Y-43400000D01*
X70580000Y-44120000D02*
X58720000Y-44120000D01*
X71375000Y-43325000D02*
X70580000Y-44120000D01*
X71375000Y-42150000D02*
X71375000Y-43325000D01*
X58000000Y-40800000D02*
X58000000Y-42150000D01*
X49700000Y-42500000D02*
X52700000Y-39500000D01*
X52700000Y-39500000D02*
X56700000Y-39500000D01*
X49700000Y-56800000D02*
X49700000Y-42500000D01*
X51289989Y-58389989D02*
X49700000Y-56800000D01*
X56510011Y-58389989D02*
X51289989Y-58389989D01*
X58800000Y-56100000D02*
X56510011Y-58389989D01*
X66300000Y-56100000D02*
X58800000Y-56100000D01*
X56700000Y-39500000D02*
X58000000Y-40800000D01*
X67000000Y-56800000D02*
X66300000Y-56100000D01*
X67000000Y-57850000D02*
X67000000Y-56800000D01*
D14*
%TO.N,+3V3*%
X73250000Y-57850000D02*
X73250000Y-59300000D01*
X63950000Y-42150000D02*
X63900000Y-42100000D01*
X67625000Y-42150000D02*
X63950000Y-42150000D01*
X51750000Y-42150000D02*
X51750000Y-43900000D01*
X51750000Y-43900000D02*
X53300000Y-45450000D01*
%TO.N,VBUS*%
X86375000Y-54625000D02*
X86400000Y-54600000D01*
X84600000Y-54625000D02*
X86375000Y-54625000D01*
X86125000Y-41625000D02*
X87100000Y-42600000D01*
X84600000Y-41625000D02*
X86125000Y-41625000D01*
D13*
%TO.N,/BTN*%
X67600000Y-48000000D02*
X66400000Y-48000000D01*
X66400000Y-48000000D02*
X64049999Y-50350001D01*
X54900000Y-54400000D02*
X54900000Y-57700000D01*
X64049999Y-50350001D02*
X62049999Y-50350001D01*
X62049999Y-50350001D02*
X59557001Y-52842999D01*
X59557001Y-52842999D02*
X56457001Y-52842999D01*
X56457001Y-52842999D02*
X54900000Y-54400000D01*
D15*
%TO.N,/CAN_EN*%
X76300000Y-40600000D02*
X72100000Y-44800000D01*
X72100000Y-44800000D02*
X69799994Y-44800000D01*
X69799994Y-44800000D02*
X67399994Y-47200000D01*
D14*
%TO.N,/CANL*%
X85974989Y-40974989D02*
X84500000Y-39500000D01*
X84500000Y-39500000D02*
X82000000Y-39500000D01*
X87574989Y-40974989D02*
X85974989Y-40974989D01*
X88000002Y-41400002D02*
X87574989Y-40974989D01*
X88000002Y-44699998D02*
X88000002Y-41400002D01*
X87325000Y-45375000D02*
X88000002Y-44699998D01*
X84600000Y-45375000D02*
X87325000Y-45375000D01*
X85200000Y-53000000D02*
X82000000Y-53000000D01*
X87200000Y-53800000D02*
X86000000Y-53800000D01*
X86000000Y-53800000D02*
X85200000Y-53000000D01*
X88200000Y-54800000D02*
X87200000Y-53800000D01*
X88200000Y-57000000D02*
X88200000Y-54800000D01*
X86825000Y-58375000D02*
X88200000Y-57000000D01*
X84600000Y-58375000D02*
X86825000Y-58375000D01*
%TO.N,/CANH*%
X83000000Y-56900000D02*
X83000000Y-56500000D01*
X83000000Y-56500000D02*
X82000000Y-55500000D01*
X83225000Y-57125000D02*
X83000000Y-56900000D01*
X84600000Y-57125000D02*
X83225000Y-57125000D01*
X83200000Y-43200000D02*
X82000000Y-42000000D01*
X83200000Y-43600000D02*
X83200000Y-43200000D01*
X83725000Y-44125000D02*
X83200000Y-43600000D01*
X84600000Y-44125000D02*
X83725000Y-44125000D01*
D13*
%TO.N,Net-(J8-Pad3)*%
X54700000Y-40000000D02*
X55649998Y-40000000D01*
X54250000Y-40450000D02*
X54700000Y-40000000D01*
X54250000Y-42150000D02*
X54250000Y-40450000D01*
%TO.N,Net-(J8-Pad4)*%
X55500000Y-42150000D02*
X55500000Y-40878838D01*
X55500000Y-40878838D02*
X55539405Y-40839433D01*
%TO.N,Net-(J8-Pad5)*%
X56750000Y-42150000D02*
X56750000Y-40800020D01*
X56750000Y-40800020D02*
X56750020Y-40800000D01*
%TD*%
D15*
%TO.N,GND*%
X89600000Y-63100000D02*
X46519563Y-63100000D01*
X46286716Y-63077169D01*
X46081553Y-63015227D01*
X45892332Y-62914616D01*
X45726254Y-62779166D01*
X45589650Y-62614040D01*
X45487718Y-62425522D01*
X45424347Y-62220803D01*
X45400000Y-61989155D01*
X45400000Y-61440905D01*
X49750000Y-61440905D01*
X49750000Y-61559095D01*
X49773058Y-61675014D01*
X49818287Y-61784207D01*
X49883950Y-61882478D01*
X49967522Y-61966050D01*
X50065793Y-62031713D01*
X50174986Y-62076942D01*
X50290905Y-62100000D01*
X50409095Y-62100000D01*
X50525014Y-62076942D01*
X50634207Y-62031713D01*
X50732478Y-61966050D01*
X50816050Y-61882478D01*
X50881713Y-61784207D01*
X50926942Y-61675014D01*
X50950000Y-61559095D01*
X50950000Y-61440905D01*
X50926942Y-61324986D01*
X50881713Y-61215793D01*
X50816050Y-61117522D01*
X50732478Y-61033950D01*
X50634207Y-60968287D01*
X50525014Y-60923058D01*
X50409095Y-60900000D01*
X50290905Y-60900000D01*
X50174986Y-60923058D01*
X50065793Y-60968287D01*
X49967522Y-61033950D01*
X49883950Y-61117522D01*
X49818287Y-61215793D01*
X49773058Y-61324986D01*
X49750000Y-61440905D01*
X45400000Y-61440905D01*
X45400000Y-59690905D01*
X58350000Y-59690905D01*
X58350000Y-59809095D01*
X58373058Y-59925014D01*
X58418287Y-60034207D01*
X58483950Y-60132478D01*
X58567522Y-60216050D01*
X58665793Y-60281713D01*
X58774986Y-60326942D01*
X58890905Y-60350000D01*
X59009095Y-60350000D01*
X59125014Y-60326942D01*
X59234207Y-60281713D01*
X59332478Y-60216050D01*
X59416050Y-60132478D01*
X59481713Y-60034207D01*
X59526942Y-59925014D01*
X59550000Y-59809095D01*
X59550000Y-59690905D01*
X59526942Y-59574986D01*
X59495882Y-59499999D01*
X61848549Y-59499999D01*
X61848549Y-62000001D01*
X61859145Y-62107584D01*
X61890526Y-62211032D01*
X61941485Y-62306370D01*
X62010065Y-62389935D01*
X62093630Y-62458515D01*
X62188968Y-62509474D01*
X62292416Y-62540855D01*
X62399999Y-62551451D01*
X64000001Y-62551451D01*
X64107584Y-62540855D01*
X64211032Y-62509474D01*
X64306370Y-62458515D01*
X64389935Y-62389935D01*
X64458515Y-62306370D01*
X64509474Y-62211032D01*
X64540855Y-62107584D01*
X64551451Y-62000001D01*
X64551451Y-59499999D01*
X64540855Y-59392416D01*
X64509474Y-59288968D01*
X64458515Y-59193630D01*
X64389935Y-59110065D01*
X64306370Y-59041485D01*
X64211032Y-58990526D01*
X64107584Y-58959145D01*
X64000001Y-58948549D01*
X62399999Y-58948549D01*
X62292416Y-58959145D01*
X62188968Y-58990526D01*
X62093630Y-59041485D01*
X62010065Y-59110065D01*
X61941485Y-59193630D01*
X61890526Y-59288968D01*
X61859145Y-59392416D01*
X61848549Y-59499999D01*
X59495882Y-59499999D01*
X59481713Y-59465793D01*
X59416050Y-59367522D01*
X59332478Y-59283950D01*
X59234207Y-59218287D01*
X59125014Y-59173058D01*
X59009095Y-59150000D01*
X58890905Y-59150000D01*
X58774986Y-59173058D01*
X58665793Y-59218287D01*
X58567522Y-59283950D01*
X58483950Y-59367522D01*
X58418287Y-59465793D01*
X58373058Y-59574986D01*
X58350000Y-59690905D01*
X45400000Y-59690905D01*
X45400000Y-38019563D01*
X45402809Y-37990905D01*
X46200000Y-37990905D01*
X46200000Y-38109095D01*
X46223058Y-38225014D01*
X46268287Y-38334207D01*
X46333950Y-38432478D01*
X46417522Y-38516050D01*
X46515793Y-38581713D01*
X46624986Y-38626942D01*
X46740905Y-38650000D01*
X46859095Y-38650000D01*
X46975014Y-38626942D01*
X47084207Y-38581713D01*
X47182478Y-38516050D01*
X47266050Y-38432478D01*
X47331713Y-38334207D01*
X47376942Y-38225014D01*
X47400000Y-38109095D01*
X47400000Y-37999999D01*
X47848549Y-37999999D01*
X47848549Y-40500001D01*
X47859145Y-40607584D01*
X47890526Y-40711032D01*
X47941485Y-40806370D01*
X48010065Y-40889935D01*
X48093630Y-40958515D01*
X48188968Y-41009474D01*
X48292416Y-41040855D01*
X48399999Y-41051451D01*
X50000001Y-41051451D01*
X50046519Y-41046869D01*
X49044500Y-42048889D01*
X49030000Y-42060789D01*
X48982513Y-42118652D01*
X48947228Y-42184667D01*
X48925499Y-42256297D01*
X48920000Y-42312129D01*
X48920000Y-42312136D01*
X48918163Y-42330789D01*
X48920000Y-42349442D01*
X48920001Y-56981336D01*
X48918163Y-57000000D01*
X48925499Y-57074492D01*
X48947228Y-57146122D01*
X48947229Y-57146123D01*
X48982514Y-57212138D01*
X49030001Y-57270000D01*
X49044496Y-57281896D01*
X50718104Y-58955505D01*
X50730000Y-58970000D01*
X50787862Y-59017487D01*
X50853877Y-59052772D01*
X50908835Y-59069443D01*
X50925506Y-59074501D01*
X50933169Y-59075256D01*
X50981339Y-59080000D01*
X50981345Y-59080000D01*
X50999999Y-59081837D01*
X51018653Y-59080000D01*
X56681347Y-59080000D01*
X56700000Y-59081837D01*
X56718653Y-59080000D01*
X56718661Y-59080000D01*
X56774493Y-59074501D01*
X56846123Y-59052772D01*
X56912138Y-59017487D01*
X56970000Y-58970000D01*
X56981900Y-58955500D01*
X59117402Y-56820000D01*
X64182600Y-56820000D01*
X65048549Y-57685951D01*
X65048549Y-58450000D01*
X65058184Y-58547828D01*
X65086720Y-58641897D01*
X65133059Y-58728591D01*
X65195421Y-58804579D01*
X65271409Y-58866941D01*
X65350001Y-58908949D01*
X65350001Y-59730344D01*
X65348065Y-59750000D01*
X65355788Y-59828413D01*
X65378661Y-59903814D01*
X65415803Y-59973302D01*
X65453265Y-60018950D01*
X65453268Y-60018953D01*
X65465790Y-60034211D01*
X65481047Y-60046732D01*
X65903267Y-60468953D01*
X65915789Y-60484211D01*
X65931047Y-60496733D01*
X65931049Y-60496735D01*
X65944495Y-60507769D01*
X65976697Y-60534197D01*
X66046186Y-60571340D01*
X66121586Y-60594212D01*
X66180353Y-60600000D01*
X66180363Y-60600000D01*
X66199999Y-60601934D01*
X66219635Y-60600000D01*
X66551472Y-60600000D01*
X66617522Y-60666050D01*
X66715793Y-60731713D01*
X66824986Y-60776942D01*
X66940905Y-60800000D01*
X67059095Y-60800000D01*
X67175014Y-60776942D01*
X67284207Y-60731713D01*
X67382478Y-60666050D01*
X67466050Y-60582478D01*
X67531713Y-60484207D01*
X67576942Y-60375014D01*
X67600000Y-60259095D01*
X67600000Y-60140905D01*
X67576942Y-60024986D01*
X67531713Y-59915793D01*
X67466050Y-59817522D01*
X67409612Y-59761084D01*
X67427134Y-59743561D01*
X67492797Y-59645290D01*
X67538026Y-59536097D01*
X67561084Y-59420178D01*
X67561084Y-59301988D01*
X67538026Y-59186069D01*
X67492797Y-59076876D01*
X67427134Y-58978605D01*
X67400000Y-58951471D01*
X67400000Y-58908949D01*
X67478591Y-58866941D01*
X67554579Y-58804579D01*
X67616941Y-58728591D01*
X67625000Y-58713514D01*
X67633059Y-58728591D01*
X67695421Y-58804579D01*
X67771409Y-58866941D01*
X67858103Y-58913280D01*
X67952172Y-58941816D01*
X68050000Y-58951451D01*
X68450000Y-58951451D01*
X68547828Y-58941816D01*
X68641897Y-58913280D01*
X68728591Y-58866941D01*
X68804579Y-58804579D01*
X68866941Y-58728591D01*
X68875000Y-58713514D01*
X68883059Y-58728591D01*
X68945421Y-58804579D01*
X69021409Y-58866941D01*
X69108103Y-58913280D01*
X69202172Y-58941816D01*
X69300000Y-58951451D01*
X69700000Y-58951451D01*
X69797828Y-58941816D01*
X69891897Y-58913280D01*
X69978591Y-58866941D01*
X70054579Y-58804579D01*
X70116941Y-58728591D01*
X70125000Y-58713514D01*
X70133059Y-58728591D01*
X70195421Y-58804579D01*
X70271409Y-58866941D01*
X70358103Y-58913280D01*
X70452172Y-58941816D01*
X70550000Y-58951451D01*
X70950000Y-58951451D01*
X71047828Y-58941816D01*
X71141897Y-58913280D01*
X71228591Y-58866941D01*
X71304579Y-58804579D01*
X71327518Y-58776628D01*
X71349352Y-58817478D01*
X71386841Y-58863159D01*
X71432522Y-58900648D01*
X71484639Y-58928505D01*
X71541190Y-58945660D01*
X71600000Y-58951452D01*
X71900000Y-58950000D01*
X71975000Y-58875000D01*
X71975000Y-57875000D01*
X71955000Y-57875000D01*
X71955000Y-57825000D01*
X71975000Y-57825000D01*
X71975000Y-56825000D01*
X72025000Y-56825000D01*
X72025000Y-57825000D01*
X72045000Y-57825000D01*
X72045000Y-57875000D01*
X72025000Y-57875000D01*
X72025000Y-58875000D01*
X72100000Y-58950000D01*
X72400000Y-58951452D01*
X72458810Y-58945660D01*
X72515361Y-58928505D01*
X72567478Y-58900648D01*
X72613159Y-58863159D01*
X72650648Y-58817478D01*
X72672482Y-58776628D01*
X72695421Y-58804579D01*
X72700001Y-58808337D01*
X72700001Y-59059940D01*
X72673058Y-59124986D01*
X72650000Y-59240905D01*
X72650000Y-59359095D01*
X72673058Y-59475014D01*
X72718287Y-59584207D01*
X72783950Y-59682478D01*
X72867522Y-59766050D01*
X72965793Y-59831713D01*
X73074986Y-59876942D01*
X73190905Y-59900000D01*
X73309095Y-59900000D01*
X73425014Y-59876942D01*
X73534207Y-59831713D01*
X73632478Y-59766050D01*
X73716050Y-59682478D01*
X73781713Y-59584207D01*
X73816592Y-59499999D01*
X74448549Y-59499999D01*
X74448549Y-62000001D01*
X74459145Y-62107584D01*
X74490526Y-62211032D01*
X74541485Y-62306370D01*
X74610065Y-62389935D01*
X74693630Y-62458515D01*
X74788968Y-62509474D01*
X74892416Y-62540855D01*
X74999999Y-62551451D01*
X76600001Y-62551451D01*
X76707584Y-62540855D01*
X76811032Y-62509474D01*
X76906370Y-62458515D01*
X76989935Y-62389935D01*
X77058515Y-62306370D01*
X77109474Y-62211032D01*
X77140855Y-62107584D01*
X77151451Y-62000001D01*
X77151451Y-59900000D01*
X80723549Y-59900000D01*
X80723549Y-61100000D01*
X80734145Y-61207583D01*
X80765526Y-61311031D01*
X80816485Y-61406370D01*
X80885065Y-61489935D01*
X80968630Y-61558515D01*
X81063969Y-61609474D01*
X81167417Y-61640855D01*
X81275000Y-61651451D01*
X82725000Y-61651451D01*
X82832583Y-61640855D01*
X82936031Y-61609474D01*
X83031370Y-61558515D01*
X83114935Y-61489935D01*
X83183515Y-61406370D01*
X83234474Y-61311031D01*
X83265855Y-61207583D01*
X83276451Y-61100000D01*
X83276451Y-60124999D01*
X85698549Y-60124999D01*
X85698549Y-61725001D01*
X85709145Y-61832584D01*
X85740526Y-61936032D01*
X85791485Y-62031370D01*
X85860065Y-62114935D01*
X85943630Y-62183515D01*
X86038968Y-62234474D01*
X86142416Y-62265855D01*
X86249999Y-62276451D01*
X88750001Y-62276451D01*
X88857584Y-62265855D01*
X88961032Y-62234474D01*
X89056370Y-62183515D01*
X89139935Y-62114935D01*
X89208515Y-62031370D01*
X89259474Y-61936032D01*
X89290855Y-61832584D01*
X89301451Y-61725001D01*
X89301451Y-60124999D01*
X89290855Y-60017416D01*
X89259474Y-59913968D01*
X89208515Y-59818630D01*
X89139935Y-59735065D01*
X89056370Y-59666485D01*
X88961032Y-59615526D01*
X88857584Y-59584145D01*
X88750001Y-59573549D01*
X86249999Y-59573549D01*
X86142416Y-59584145D01*
X86038968Y-59615526D01*
X85943630Y-59666485D01*
X85860065Y-59735065D01*
X85791485Y-59818630D01*
X85740526Y-59913968D01*
X85709145Y-60017416D01*
X85698549Y-60124999D01*
X83276451Y-60124999D01*
X83276451Y-59900000D01*
X83265855Y-59792417D01*
X83234474Y-59688969D01*
X83183515Y-59593630D01*
X83114935Y-59510065D01*
X83031370Y-59441485D01*
X82936031Y-59390526D01*
X82832583Y-59359145D01*
X82725000Y-59348549D01*
X81275000Y-59348549D01*
X81167417Y-59359145D01*
X81063969Y-59390526D01*
X80968630Y-59441485D01*
X80885065Y-59510065D01*
X80816485Y-59593630D01*
X80765526Y-59688969D01*
X80734145Y-59792417D01*
X80723549Y-59900000D01*
X77151451Y-59900000D01*
X77151451Y-59499999D01*
X77140855Y-59392416D01*
X77109474Y-59288968D01*
X77058515Y-59193630D01*
X76989935Y-59110065D01*
X76906370Y-59041485D01*
X76811032Y-58990526D01*
X76707584Y-58959145D01*
X76600001Y-58948549D01*
X74999999Y-58948549D01*
X74892416Y-58959145D01*
X74788968Y-58990526D01*
X74693630Y-59041485D01*
X74610065Y-59110065D01*
X74541485Y-59193630D01*
X74490526Y-59288968D01*
X74459145Y-59392416D01*
X74448549Y-59499999D01*
X73816592Y-59499999D01*
X73826942Y-59475014D01*
X73850000Y-59359095D01*
X73850000Y-59240905D01*
X73826942Y-59124986D01*
X73800000Y-59059942D01*
X73800000Y-58808337D01*
X73804579Y-58804579D01*
X73866941Y-58728591D01*
X73913280Y-58641897D01*
X73941816Y-58547828D01*
X73951451Y-58450000D01*
X73951451Y-58204549D01*
X80743338Y-58204549D01*
X80802972Y-58416988D01*
X80904921Y-58618118D01*
X81044150Y-58795494D01*
X81215308Y-58942300D01*
X81411817Y-59052894D01*
X81626126Y-59123026D01*
X81850000Y-59150000D01*
X81975000Y-59150000D01*
X81975000Y-58025000D01*
X82025000Y-58025000D01*
X82025000Y-59150000D01*
X82150000Y-59150000D01*
X82373874Y-59123026D01*
X82588183Y-59052894D01*
X82784692Y-58942300D01*
X82955850Y-58795494D01*
X83095079Y-58618118D01*
X83197028Y-58416988D01*
X83256662Y-58204549D01*
X83199709Y-58025000D01*
X82025000Y-58025000D01*
X81975000Y-58025000D01*
X80800291Y-58025000D01*
X80743338Y-58204549D01*
X73951451Y-58204549D01*
X73951451Y-57795451D01*
X80743338Y-57795451D01*
X80800291Y-57975000D01*
X81975000Y-57975000D01*
X81975000Y-56850000D01*
X81850000Y-56850000D01*
X81626126Y-56876974D01*
X81411817Y-56947106D01*
X81215308Y-57057700D01*
X81044150Y-57204506D01*
X80904921Y-57381882D01*
X80802972Y-57583012D01*
X80743338Y-57795451D01*
X73951451Y-57795451D01*
X73951451Y-57250000D01*
X73941816Y-57152172D01*
X73913280Y-57058103D01*
X73866941Y-56971409D01*
X73804579Y-56895421D01*
X73728591Y-56833059D01*
X73641897Y-56786720D01*
X73547828Y-56758184D01*
X73450000Y-56748549D01*
X73050000Y-56748549D01*
X72952172Y-56758184D01*
X72858103Y-56786720D01*
X72771409Y-56833059D01*
X72695421Y-56895421D01*
X72672482Y-56923372D01*
X72650648Y-56882522D01*
X72613159Y-56836841D01*
X72567478Y-56799352D01*
X72515361Y-56771495D01*
X72458810Y-56754340D01*
X72400000Y-56748548D01*
X72100000Y-56750000D01*
X72025000Y-56825000D01*
X71975000Y-56825000D01*
X71900000Y-56750000D01*
X71600000Y-56748548D01*
X71541190Y-56754340D01*
X71484639Y-56771495D01*
X71432522Y-56799352D01*
X71386841Y-56836841D01*
X71349352Y-56882522D01*
X71327518Y-56923372D01*
X71304579Y-56895421D01*
X71228591Y-56833059D01*
X71141897Y-56786720D01*
X71130000Y-56783111D01*
X71130000Y-56368654D01*
X71131837Y-56350000D01*
X71130000Y-56331346D01*
X71130000Y-56331339D01*
X71124501Y-56275507D01*
X71102772Y-56203877D01*
X71067487Y-56137862D01*
X71020000Y-56080000D01*
X71005505Y-56068104D01*
X67937401Y-53000000D01*
X80719436Y-53000000D01*
X80741640Y-53225439D01*
X80807398Y-53442215D01*
X80914184Y-53641997D01*
X81057893Y-53817107D01*
X81233003Y-53960816D01*
X81432785Y-54067602D01*
X81649561Y-54133360D01*
X81818508Y-54150000D01*
X82181492Y-54150000D01*
X82350439Y-54133360D01*
X82567215Y-54067602D01*
X82766997Y-53960816D01*
X82942107Y-53817107D01*
X83085816Y-53641997D01*
X83134990Y-53550000D01*
X84972183Y-53550000D01*
X85380421Y-53958239D01*
X85297828Y-53933184D01*
X85200000Y-53923549D01*
X84000000Y-53923549D01*
X83902172Y-53933184D01*
X83808103Y-53961720D01*
X83721409Y-54008059D01*
X83645421Y-54070421D01*
X83583059Y-54146409D01*
X83536720Y-54233103D01*
X83508184Y-54327172D01*
X83498549Y-54425000D01*
X83498549Y-54825000D01*
X83508184Y-54922828D01*
X83536720Y-55016897D01*
X83583059Y-55103591D01*
X83645421Y-55179579D01*
X83673372Y-55202518D01*
X83632522Y-55224352D01*
X83586841Y-55261841D01*
X83549352Y-55307522D01*
X83521495Y-55359639D01*
X83504340Y-55416190D01*
X83498548Y-55475000D01*
X83500000Y-55775000D01*
X83575000Y-55850000D01*
X84575000Y-55850000D01*
X84575000Y-55830000D01*
X84625000Y-55830000D01*
X84625000Y-55850000D01*
X85625000Y-55850000D01*
X85700000Y-55775000D01*
X85701452Y-55475000D01*
X85695660Y-55416190D01*
X85678505Y-55359639D01*
X85650648Y-55307522D01*
X85613159Y-55261841D01*
X85567478Y-55224352D01*
X85526628Y-55202518D01*
X85554579Y-55179579D01*
X85558337Y-55175000D01*
X86220298Y-55175000D01*
X86224986Y-55176942D01*
X86340905Y-55200000D01*
X86459095Y-55200000D01*
X86575014Y-55176942D01*
X86684207Y-55131713D01*
X86782478Y-55066050D01*
X86866050Y-54982478D01*
X86931713Y-54884207D01*
X86976942Y-54775014D01*
X87000000Y-54659095D01*
X87000000Y-54540905D01*
X86976942Y-54424986D01*
X86945882Y-54350000D01*
X86972183Y-54350000D01*
X87650001Y-55027818D01*
X87650000Y-56772183D01*
X86597183Y-57825000D01*
X85558337Y-57825000D01*
X85554579Y-57820421D01*
X85478591Y-57758059D01*
X85463514Y-57750000D01*
X85478591Y-57741941D01*
X85554579Y-57679579D01*
X85616941Y-57603591D01*
X85663280Y-57516897D01*
X85691816Y-57422828D01*
X85701451Y-57325000D01*
X85701451Y-56925000D01*
X85691816Y-56827172D01*
X85663280Y-56733103D01*
X85616941Y-56646409D01*
X85554579Y-56570421D01*
X85526628Y-56547482D01*
X85567478Y-56525648D01*
X85613159Y-56488159D01*
X85650648Y-56442478D01*
X85678505Y-56390361D01*
X85695660Y-56333810D01*
X85701452Y-56275000D01*
X85700000Y-55975000D01*
X85625000Y-55900000D01*
X84625000Y-55900000D01*
X84625000Y-55920000D01*
X84575000Y-55920000D01*
X84575000Y-55900000D01*
X83575000Y-55900000D01*
X83500000Y-55975000D01*
X83498591Y-56266054D01*
X83459521Y-56192958D01*
X83408013Y-56130196D01*
X83390790Y-56109210D01*
X83369804Y-56091987D01*
X83198986Y-55921169D01*
X83258360Y-55725439D01*
X83280564Y-55500000D01*
X83258360Y-55274561D01*
X83192602Y-55057785D01*
X83085816Y-54858003D01*
X82942107Y-54682893D01*
X82766997Y-54539184D01*
X82567215Y-54432398D01*
X82350439Y-54366640D01*
X82181492Y-54350000D01*
X81818508Y-54350000D01*
X81649561Y-54366640D01*
X81432785Y-54432398D01*
X81233003Y-54539184D01*
X81057893Y-54682893D01*
X80914184Y-54858003D01*
X80807398Y-55057785D01*
X80741640Y-55274561D01*
X80719436Y-55500000D01*
X80741640Y-55725439D01*
X80807398Y-55942215D01*
X80914184Y-56141997D01*
X81057893Y-56317107D01*
X81233003Y-56460816D01*
X81432785Y-56567602D01*
X81649561Y-56633360D01*
X81818508Y-56650000D01*
X82181492Y-56650000D01*
X82350439Y-56633360D01*
X82354355Y-56632172D01*
X82450000Y-56727817D01*
X82450000Y-56872992D01*
X82447340Y-56900000D01*
X82447443Y-56901049D01*
X82373874Y-56876974D01*
X82150000Y-56850000D01*
X82025000Y-56850000D01*
X82025000Y-57975000D01*
X83199709Y-57975000D01*
X83256662Y-57795451D01*
X83223557Y-57677518D01*
X83224999Y-57677660D01*
X83252007Y-57675000D01*
X83641663Y-57675000D01*
X83645421Y-57679579D01*
X83721409Y-57741941D01*
X83736486Y-57750000D01*
X83721409Y-57758059D01*
X83645421Y-57820421D01*
X83583059Y-57896409D01*
X83536720Y-57983103D01*
X83508184Y-58077172D01*
X83498549Y-58175000D01*
X83498549Y-58575000D01*
X83508184Y-58672828D01*
X83536720Y-58766897D01*
X83583059Y-58853591D01*
X83645421Y-58929579D01*
X83721409Y-58991941D01*
X83808103Y-59038280D01*
X83902172Y-59066816D01*
X84000000Y-59076451D01*
X85200000Y-59076451D01*
X85297828Y-59066816D01*
X85391897Y-59038280D01*
X85478591Y-58991941D01*
X85554579Y-58929579D01*
X85558337Y-58925000D01*
X86797992Y-58925000D01*
X86825000Y-58927660D01*
X86852008Y-58925000D01*
X86852018Y-58925000D01*
X86932819Y-58917042D01*
X87036494Y-58885592D01*
X87132042Y-58834521D01*
X87179596Y-58795494D01*
X87194804Y-58783013D01*
X87215790Y-58765790D01*
X87233013Y-58744804D01*
X88569804Y-57408013D01*
X88590790Y-57390790D01*
X88659521Y-57307042D01*
X88710592Y-57211494D01*
X88742042Y-57107819D01*
X88750000Y-57027018D01*
X88750000Y-57027011D01*
X88752660Y-57000000D01*
X88750000Y-56972989D01*
X88750000Y-54827011D01*
X88752660Y-54800000D01*
X88750000Y-54772989D01*
X88750000Y-54772982D01*
X88742042Y-54692181D01*
X88710592Y-54588506D01*
X88659521Y-54492958D01*
X88590790Y-54409210D01*
X88569804Y-54391987D01*
X87608012Y-53430195D01*
X87604939Y-53426451D01*
X88750001Y-53426451D01*
X88857584Y-53415855D01*
X88961032Y-53384474D01*
X89056370Y-53333515D01*
X89139935Y-53264935D01*
X89208515Y-53181370D01*
X89259474Y-53086032D01*
X89290855Y-52982584D01*
X89301451Y-52875001D01*
X89301451Y-51274999D01*
X89290855Y-51167416D01*
X89259474Y-51063968D01*
X89208515Y-50968630D01*
X89139935Y-50885065D01*
X89056370Y-50816485D01*
X88961032Y-50765526D01*
X88857584Y-50734145D01*
X88750001Y-50723549D01*
X86249999Y-50723549D01*
X86142416Y-50734145D01*
X86038968Y-50765526D01*
X85943630Y-50816485D01*
X85860065Y-50885065D01*
X85791485Y-50968630D01*
X85740526Y-51063968D01*
X85709145Y-51167416D01*
X85698549Y-51274999D01*
X85698549Y-52720732D01*
X85608013Y-52630196D01*
X85590790Y-52609210D01*
X85564777Y-52587861D01*
X85507042Y-52540479D01*
X85479040Y-52525512D01*
X85411494Y-52489408D01*
X85307819Y-52457958D01*
X85227018Y-52450000D01*
X85227008Y-52450000D01*
X85200000Y-52447340D01*
X85172992Y-52450000D01*
X83134990Y-52450000D01*
X83085816Y-52358003D01*
X82942107Y-52182893D01*
X82766997Y-52039184D01*
X82567215Y-51932398D01*
X82350439Y-51866640D01*
X82181492Y-51850000D01*
X81818508Y-51850000D01*
X81649561Y-51866640D01*
X81432785Y-51932398D01*
X81233003Y-52039184D01*
X81057893Y-52182893D01*
X80914184Y-52358003D01*
X80807398Y-52557785D01*
X80741640Y-52774561D01*
X80719436Y-53000000D01*
X67937401Y-53000000D01*
X67481899Y-52544499D01*
X67469999Y-52529999D01*
X67412137Y-52482512D01*
X67346122Y-52447227D01*
X67274492Y-52425498D01*
X67218660Y-52419999D01*
X67218652Y-52419999D01*
X67199999Y-52418162D01*
X67181346Y-52419999D01*
X66395820Y-52419999D01*
X65780000Y-51804180D01*
X65780000Y-51628528D01*
X65817522Y-51666050D01*
X65915793Y-51731713D01*
X66024986Y-51776942D01*
X66140905Y-51800000D01*
X66234315Y-51800000D01*
X66653261Y-52218946D01*
X66665787Y-52234209D01*
X66726695Y-52284195D01*
X66796184Y-52321338D01*
X66871584Y-52344210D01*
X66930351Y-52349998D01*
X66930361Y-52349998D01*
X66949997Y-52351932D01*
X66969633Y-52349998D01*
X69730356Y-52349998D01*
X69750002Y-52351933D01*
X69769648Y-52349998D01*
X69769649Y-52349998D01*
X69828416Y-52344210D01*
X69903816Y-52321338D01*
X69973305Y-52284195D01*
X70034213Y-52234209D01*
X70046739Y-52218946D01*
X70405329Y-51860356D01*
X70368287Y-51915793D01*
X70323058Y-52024986D01*
X70300000Y-52140905D01*
X70300000Y-52259095D01*
X70323058Y-52375014D01*
X70368287Y-52484207D01*
X70433950Y-52582478D01*
X70517522Y-52666050D01*
X70615793Y-52731713D01*
X70724986Y-52776942D01*
X70840905Y-52800000D01*
X70959095Y-52800000D01*
X71075014Y-52776942D01*
X71184207Y-52731713D01*
X71282478Y-52666050D01*
X71366050Y-52582478D01*
X71431713Y-52484207D01*
X71476942Y-52375014D01*
X71500000Y-52259095D01*
X71500000Y-52140905D01*
X71476942Y-52024986D01*
X71431713Y-51915793D01*
X71366050Y-51817522D01*
X71282478Y-51733950D01*
X71184207Y-51668287D01*
X71075014Y-51623058D01*
X70959095Y-51600000D01*
X70840905Y-51600000D01*
X70724986Y-51623058D01*
X70615793Y-51668287D01*
X70560356Y-51705329D01*
X73024780Y-49240905D01*
X78600000Y-49240905D01*
X78600000Y-49359095D01*
X78623058Y-49475014D01*
X78668287Y-49584207D01*
X78712249Y-49650000D01*
X78668287Y-49715793D01*
X78623058Y-49824986D01*
X78600000Y-49940905D01*
X78600000Y-50059095D01*
X78623058Y-50175014D01*
X78668287Y-50284207D01*
X78712249Y-50350000D01*
X78668287Y-50415793D01*
X78623058Y-50524986D01*
X78600000Y-50640905D01*
X78600000Y-50759095D01*
X78623058Y-50875014D01*
X78668287Y-50984207D01*
X78712249Y-51050000D01*
X78668287Y-51115793D01*
X78623058Y-51224986D01*
X78600000Y-51340905D01*
X78600000Y-51459095D01*
X78623058Y-51575014D01*
X78668287Y-51684207D01*
X78733950Y-51782478D01*
X78817522Y-51866050D01*
X78915793Y-51931713D01*
X79024986Y-51976942D01*
X79140905Y-52000000D01*
X79259095Y-52000000D01*
X79375014Y-51976942D01*
X79484207Y-51931713D01*
X79582478Y-51866050D01*
X79666050Y-51782478D01*
X79731713Y-51684207D01*
X79776942Y-51575014D01*
X79800000Y-51459095D01*
X79800000Y-51340905D01*
X79776942Y-51224986D01*
X79731713Y-51115793D01*
X79687751Y-51050000D01*
X79731713Y-50984207D01*
X79776942Y-50875014D01*
X79800000Y-50759095D01*
X79800000Y-50640905D01*
X79776942Y-50524986D01*
X79731713Y-50415793D01*
X79687751Y-50350000D01*
X79731713Y-50284207D01*
X79776942Y-50175014D01*
X79800000Y-50059095D01*
X79800000Y-49940905D01*
X79776942Y-49824986D01*
X79731713Y-49715793D01*
X79687751Y-49650000D01*
X79731713Y-49584207D01*
X79776942Y-49475014D01*
X79800000Y-49359095D01*
X79800000Y-49240905D01*
X79776942Y-49124986D01*
X79731713Y-49015793D01*
X79666050Y-48917522D01*
X79582478Y-48833950D01*
X79484207Y-48768287D01*
X79375014Y-48723058D01*
X79259095Y-48700000D01*
X79140905Y-48700000D01*
X79024986Y-48723058D01*
X78915793Y-48768287D01*
X78817522Y-48833950D01*
X78733950Y-48917522D01*
X78668287Y-49015793D01*
X78623058Y-49124986D01*
X78600000Y-49240905D01*
X73024780Y-49240905D01*
X75865685Y-46400000D01*
X80723549Y-46400000D01*
X80723549Y-47600000D01*
X80734145Y-47707583D01*
X80765526Y-47811031D01*
X80816485Y-47906370D01*
X80885065Y-47989935D01*
X80968630Y-48058515D01*
X81063969Y-48109474D01*
X81167417Y-48140855D01*
X81275000Y-48151451D01*
X82725000Y-48151451D01*
X82832583Y-48140855D01*
X82936031Y-48109474D01*
X83031370Y-48058515D01*
X83114935Y-47989935D01*
X83183515Y-47906370D01*
X83234474Y-47811031D01*
X83265855Y-47707583D01*
X83276451Y-47600000D01*
X83276451Y-47124999D01*
X85698549Y-47124999D01*
X85698549Y-48725001D01*
X85709145Y-48832584D01*
X85740526Y-48936032D01*
X85791485Y-49031370D01*
X85860065Y-49114935D01*
X85943630Y-49183515D01*
X86038968Y-49234474D01*
X86142416Y-49265855D01*
X86249999Y-49276451D01*
X88750001Y-49276451D01*
X88857584Y-49265855D01*
X88961032Y-49234474D01*
X89056370Y-49183515D01*
X89139935Y-49114935D01*
X89208515Y-49031370D01*
X89259474Y-48936032D01*
X89290855Y-48832584D01*
X89301451Y-48725001D01*
X89301451Y-47124999D01*
X89290855Y-47017416D01*
X89259474Y-46913968D01*
X89208515Y-46818630D01*
X89139935Y-46735065D01*
X89056370Y-46666485D01*
X88961032Y-46615526D01*
X88857584Y-46584145D01*
X88750001Y-46573549D01*
X86249999Y-46573549D01*
X86142416Y-46584145D01*
X86038968Y-46615526D01*
X85943630Y-46666485D01*
X85860065Y-46735065D01*
X85791485Y-46818630D01*
X85740526Y-46913968D01*
X85709145Y-47017416D01*
X85698549Y-47124999D01*
X83276451Y-47124999D01*
X83276451Y-46400000D01*
X83265855Y-46292417D01*
X83234474Y-46188969D01*
X83183515Y-46093630D01*
X83114935Y-46010065D01*
X83031370Y-45941485D01*
X82936031Y-45890526D01*
X82832583Y-45859145D01*
X82725000Y-45848549D01*
X81275000Y-45848549D01*
X81167417Y-45859145D01*
X81063969Y-45890526D01*
X80968630Y-45941485D01*
X80885065Y-46010065D01*
X80816485Y-46093630D01*
X80765526Y-46188969D01*
X80734145Y-46292417D01*
X80723549Y-46400000D01*
X75865685Y-46400000D01*
X76265686Y-46000000D01*
X76359095Y-46000000D01*
X76475014Y-45976942D01*
X76584207Y-45931713D01*
X76682478Y-45866050D01*
X76766050Y-45782478D01*
X76831713Y-45684207D01*
X76876942Y-45575014D01*
X76900000Y-45459095D01*
X76900000Y-45340905D01*
X76876942Y-45224986D01*
X76831713Y-45115793D01*
X76766050Y-45017522D01*
X76682478Y-44933950D01*
X76584207Y-44868287D01*
X76475014Y-44823058D01*
X76359095Y-44800000D01*
X76240905Y-44800000D01*
X76124986Y-44823058D01*
X76015793Y-44868287D01*
X75917522Y-44933950D01*
X75833950Y-45017522D01*
X75768287Y-45115793D01*
X75723058Y-45224986D01*
X75700000Y-45340905D01*
X75700000Y-45434314D01*
X69584317Y-51549998D01*
X69293736Y-51549998D01*
X69323309Y-51534191D01*
X69384217Y-51484205D01*
X69396743Y-51468942D01*
X71468954Y-49396732D01*
X71484211Y-49384211D01*
X71504824Y-49359095D01*
X71534197Y-49323303D01*
X71559240Y-49276451D01*
X71571340Y-49253814D01*
X71594212Y-49178414D01*
X71600000Y-49119647D01*
X71600000Y-49119646D01*
X71601935Y-49100000D01*
X71600000Y-49080354D01*
X71600000Y-46448528D01*
X71666050Y-46382478D01*
X71731713Y-46284207D01*
X71776942Y-46175014D01*
X71800000Y-46059095D01*
X71800000Y-45940905D01*
X71776942Y-45824986D01*
X71731713Y-45715793D01*
X71666050Y-45617522D01*
X71589433Y-45540905D01*
X72500000Y-45540905D01*
X72500000Y-45659095D01*
X72523058Y-45775014D01*
X72568287Y-45884207D01*
X72633950Y-45982478D01*
X72717522Y-46066050D01*
X72815793Y-46131713D01*
X72924986Y-46176942D01*
X73040905Y-46200000D01*
X73159095Y-46200000D01*
X73275014Y-46176942D01*
X73384207Y-46131713D01*
X73482478Y-46066050D01*
X73566050Y-45982478D01*
X73631713Y-45884207D01*
X73676942Y-45775014D01*
X73700000Y-45659095D01*
X73700000Y-45540905D01*
X73676942Y-45424986D01*
X73631713Y-45315793D01*
X73566050Y-45217522D01*
X73482478Y-45133950D01*
X73384207Y-45068287D01*
X73275014Y-45023058D01*
X73159095Y-45000000D01*
X73040905Y-45000000D01*
X72924986Y-45023058D01*
X72815793Y-45068287D01*
X72717522Y-45133950D01*
X72633950Y-45217522D01*
X72568287Y-45315793D01*
X72523058Y-45424986D01*
X72500000Y-45540905D01*
X71589433Y-45540905D01*
X71582478Y-45533950D01*
X71484207Y-45468287D01*
X71375014Y-45423058D01*
X71259095Y-45400000D01*
X71140905Y-45400000D01*
X71024986Y-45423058D01*
X70915793Y-45468287D01*
X70817522Y-45533950D01*
X70733950Y-45617522D01*
X70668287Y-45715793D01*
X70623058Y-45824986D01*
X70600000Y-45940905D01*
X70600000Y-46059095D01*
X70623058Y-46175014D01*
X70668287Y-46284207D01*
X70733950Y-46382478D01*
X70800001Y-46448529D01*
X70800000Y-48934314D01*
X68934321Y-50799994D01*
X67648532Y-50799994D01*
X67582482Y-50733944D01*
X67484211Y-50668281D01*
X67375018Y-50623052D01*
X67259099Y-50599994D01*
X67140909Y-50599994D01*
X67024990Y-50623052D01*
X66915797Y-50668281D01*
X66817526Y-50733944D01*
X66733954Y-50817516D01*
X66700000Y-50868331D01*
X66666050Y-50817522D01*
X66582478Y-50733950D01*
X66484207Y-50668287D01*
X66375014Y-50623058D01*
X66259095Y-50600000D01*
X66140905Y-50600000D01*
X66024986Y-50623058D01*
X65915793Y-50668287D01*
X65817522Y-50733950D01*
X65780000Y-50771472D01*
X65780000Y-50357400D01*
X66957401Y-49180000D01*
X67532294Y-49180000D01*
X67533950Y-49182478D01*
X67617522Y-49266050D01*
X67715793Y-49331713D01*
X67824986Y-49376942D01*
X67940905Y-49400000D01*
X68059095Y-49400000D01*
X68175014Y-49376942D01*
X68284207Y-49331713D01*
X68382478Y-49266050D01*
X68466050Y-49182478D01*
X68531713Y-49084207D01*
X68576942Y-48975014D01*
X68600000Y-48859095D01*
X68600000Y-48740905D01*
X68576942Y-48624986D01*
X68531713Y-48515793D01*
X68466050Y-48417522D01*
X68382478Y-48333950D01*
X68284207Y-48268287D01*
X68175014Y-48223058D01*
X68158410Y-48219755D01*
X68176942Y-48175014D01*
X68200000Y-48059095D01*
X68200000Y-47940905D01*
X68176942Y-47824986D01*
X68131713Y-47715793D01*
X68066050Y-47617522D01*
X67982478Y-47533950D01*
X67924400Y-47495143D01*
X67931707Y-47484207D01*
X67976936Y-47375014D01*
X67999994Y-47259095D01*
X67999994Y-47165685D01*
X69965679Y-45200000D01*
X72080354Y-45200000D01*
X72100000Y-45201935D01*
X72119646Y-45200000D01*
X72119647Y-45200000D01*
X72178414Y-45194212D01*
X72253814Y-45171340D01*
X72323303Y-45134197D01*
X72384211Y-45084211D01*
X72396737Y-45068948D01*
X72761136Y-44704549D01*
X80743338Y-44704549D01*
X80802972Y-44916988D01*
X80904921Y-45118118D01*
X81044150Y-45295494D01*
X81215308Y-45442300D01*
X81411817Y-45552894D01*
X81626126Y-45623026D01*
X81850000Y-45650000D01*
X81975000Y-45650000D01*
X81975000Y-44525000D01*
X82025000Y-44525000D01*
X82025000Y-45650000D01*
X82150000Y-45650000D01*
X82373874Y-45623026D01*
X82588183Y-45552894D01*
X82784692Y-45442300D01*
X82955850Y-45295494D01*
X83095079Y-45118118D01*
X83197028Y-44916988D01*
X83256662Y-44704549D01*
X83199709Y-44525000D01*
X82025000Y-44525000D01*
X81975000Y-44525000D01*
X80800291Y-44525000D01*
X80743338Y-44704549D01*
X72761136Y-44704549D01*
X73170234Y-44295451D01*
X80743338Y-44295451D01*
X80800291Y-44475000D01*
X81975000Y-44475000D01*
X81975000Y-43350000D01*
X81850000Y-43350000D01*
X81626126Y-43376974D01*
X81411817Y-43447106D01*
X81215308Y-43557700D01*
X81044150Y-43704506D01*
X80904921Y-43881882D01*
X80802972Y-44083012D01*
X80743338Y-44295451D01*
X73170234Y-44295451D01*
X76265686Y-41200000D01*
X76359095Y-41200000D01*
X76475014Y-41176942D01*
X76584207Y-41131713D01*
X76682478Y-41066050D01*
X76766050Y-40982478D01*
X76831713Y-40884207D01*
X76876942Y-40775014D01*
X76900000Y-40659095D01*
X76900000Y-40540905D01*
X76876942Y-40424986D01*
X76831713Y-40315793D01*
X76766050Y-40217522D01*
X76682478Y-40133950D01*
X76584207Y-40068287D01*
X76475014Y-40023058D01*
X76359095Y-40000000D01*
X76240905Y-40000000D01*
X76124986Y-40023058D01*
X76015793Y-40068287D01*
X75917522Y-40133950D01*
X75833950Y-40217522D01*
X75768287Y-40315793D01*
X75723058Y-40424986D01*
X75700000Y-40540905D01*
X75700000Y-40634314D01*
X71934315Y-44400000D01*
X70837815Y-44400000D01*
X70850000Y-44390000D01*
X70861900Y-44375500D01*
X71630510Y-43606891D01*
X71645000Y-43595000D01*
X71656891Y-43580511D01*
X71656896Y-43580506D01*
X71675612Y-43557700D01*
X71692487Y-43537138D01*
X71727772Y-43471123D01*
X71749501Y-43399493D01*
X71755000Y-43343661D01*
X71755000Y-43343654D01*
X71756837Y-43325000D01*
X71755000Y-43306346D01*
X71755000Y-43216889D01*
X71766897Y-43213280D01*
X71853591Y-43166941D01*
X71929579Y-43104579D01*
X71991941Y-43028591D01*
X72038280Y-42941897D01*
X72066816Y-42847828D01*
X72076451Y-42750000D01*
X72076451Y-41550000D01*
X72066816Y-41452172D01*
X72038280Y-41358103D01*
X71991941Y-41271409D01*
X71929579Y-41195421D01*
X71853591Y-41133059D01*
X71766897Y-41086720D01*
X71672828Y-41058184D01*
X71575000Y-41048549D01*
X71175000Y-41048549D01*
X71077172Y-41058184D01*
X70983103Y-41086720D01*
X70896409Y-41133059D01*
X70820421Y-41195421D01*
X70758059Y-41271409D01*
X70750000Y-41286486D01*
X70741941Y-41271409D01*
X70679579Y-41195421D01*
X70603591Y-41133059D01*
X70516897Y-41086720D01*
X70422828Y-41058184D01*
X70325000Y-41048549D01*
X69925000Y-41048549D01*
X69827172Y-41058184D01*
X69733103Y-41086720D01*
X69646409Y-41133059D01*
X69570421Y-41195421D01*
X69547482Y-41223372D01*
X69525648Y-41182522D01*
X69488159Y-41136841D01*
X69442478Y-41099352D01*
X69390361Y-41071495D01*
X69333810Y-41054340D01*
X69275000Y-41048548D01*
X68975000Y-41050000D01*
X68900000Y-41125000D01*
X68900000Y-42125000D01*
X68920000Y-42125000D01*
X68920000Y-42175000D01*
X68900000Y-42175000D01*
X68900000Y-43175000D01*
X68975000Y-43250000D01*
X69275000Y-43251452D01*
X69333810Y-43245660D01*
X69390361Y-43228505D01*
X69442478Y-43200648D01*
X69488159Y-43163159D01*
X69525648Y-43117478D01*
X69547482Y-43076628D01*
X69570421Y-43104579D01*
X69646409Y-43166941D01*
X69678503Y-43184096D01*
X69442600Y-43420000D01*
X59857401Y-43420000D01*
X59647621Y-43210221D01*
X59728591Y-43166941D01*
X59804579Y-43104579D01*
X59866941Y-43028591D01*
X59913280Y-42941897D01*
X59941816Y-42847828D01*
X59951451Y-42750000D01*
X59951451Y-42040905D01*
X63300000Y-42040905D01*
X63300000Y-42159095D01*
X63323058Y-42275014D01*
X63368287Y-42384207D01*
X63433950Y-42482478D01*
X63517522Y-42566050D01*
X63615793Y-42631713D01*
X63724986Y-42676942D01*
X63840905Y-42700000D01*
X63922990Y-42700000D01*
X63950000Y-42702660D01*
X63977011Y-42700000D01*
X66923549Y-42700000D01*
X66923549Y-42750000D01*
X66933184Y-42847828D01*
X66961720Y-42941897D01*
X67008059Y-43028591D01*
X67070421Y-43104579D01*
X67146409Y-43166941D01*
X67233103Y-43213280D01*
X67327172Y-43241816D01*
X67425000Y-43251451D01*
X67825000Y-43251451D01*
X67922828Y-43241816D01*
X68016897Y-43213280D01*
X68103591Y-43166941D01*
X68179579Y-43104579D01*
X68202518Y-43076628D01*
X68224352Y-43117478D01*
X68261841Y-43163159D01*
X68307522Y-43200648D01*
X68359639Y-43228505D01*
X68416190Y-43245660D01*
X68475000Y-43251452D01*
X68775000Y-43250000D01*
X68850000Y-43175000D01*
X68850000Y-42175000D01*
X68830000Y-42175000D01*
X68830000Y-42125000D01*
X68850000Y-42125000D01*
X68850000Y-41125000D01*
X68775000Y-41050000D01*
X68475000Y-41048548D01*
X68416190Y-41054340D01*
X68359639Y-41071495D01*
X68307522Y-41099352D01*
X68261841Y-41136841D01*
X68224352Y-41182522D01*
X68202518Y-41223372D01*
X68179579Y-41195421D01*
X68103591Y-41133059D01*
X68016897Y-41086720D01*
X67922828Y-41058184D01*
X67825000Y-41048549D01*
X67425000Y-41048549D01*
X67327172Y-41058184D01*
X67233103Y-41086720D01*
X67146409Y-41133059D01*
X67070421Y-41195421D01*
X67008059Y-41271409D01*
X66961720Y-41358103D01*
X66933184Y-41452172D01*
X66923549Y-41550000D01*
X66923549Y-41600000D01*
X64231669Y-41600000D01*
X64184207Y-41568287D01*
X64075014Y-41523058D01*
X63959095Y-41500000D01*
X63840905Y-41500000D01*
X63724986Y-41523058D01*
X63615793Y-41568287D01*
X63517522Y-41633950D01*
X63433950Y-41717522D01*
X63368287Y-41815793D01*
X63323058Y-41924986D01*
X63300000Y-42040905D01*
X59951451Y-42040905D01*
X59951451Y-41550000D01*
X59941816Y-41452172D01*
X59913280Y-41358103D01*
X59866941Y-41271409D01*
X59804579Y-41195421D01*
X59728591Y-41133059D01*
X59641897Y-41086720D01*
X59630000Y-41083111D01*
X59630000Y-40868653D01*
X59631837Y-40849999D01*
X59630000Y-40831345D01*
X59630000Y-40831339D01*
X59624501Y-40775507D01*
X59624352Y-40775014D01*
X59611271Y-40731895D01*
X59602772Y-40703877D01*
X59567487Y-40637862D01*
X59520000Y-40580000D01*
X59505505Y-40568104D01*
X57871889Y-38934489D01*
X57859989Y-38919989D01*
X57802127Y-38872502D01*
X57736112Y-38837217D01*
X57664482Y-38815488D01*
X57608650Y-38809989D01*
X57608642Y-38809989D01*
X57589989Y-38808152D01*
X57571336Y-38809989D01*
X56962455Y-38809989D01*
X56976942Y-38775014D01*
X57000000Y-38659095D01*
X57000000Y-38540905D01*
X56976942Y-38424986D01*
X56931713Y-38315793D01*
X56866050Y-38217522D01*
X56782478Y-38133950D01*
X56684207Y-38068287D01*
X56575014Y-38023058D01*
X56459095Y-38000000D01*
X56340905Y-38000000D01*
X56224986Y-38023058D01*
X56115793Y-38068287D01*
X56017522Y-38133950D01*
X55933950Y-38217522D01*
X55868287Y-38315793D01*
X55823058Y-38424986D01*
X55800000Y-38540905D01*
X55800000Y-38659095D01*
X55823058Y-38775014D01*
X55837545Y-38809989D01*
X52459454Y-38809989D01*
X52440800Y-38808152D01*
X52422146Y-38809989D01*
X52422139Y-38809989D01*
X52366307Y-38815488D01*
X52294677Y-38837217D01*
X52228662Y-38872502D01*
X52170800Y-38919989D01*
X52158904Y-38934484D01*
X50546869Y-40546519D01*
X50551451Y-40500001D01*
X50551451Y-37999999D01*
X60448549Y-37999999D01*
X60448549Y-40500001D01*
X60459145Y-40607584D01*
X60490526Y-40711032D01*
X60541485Y-40806370D01*
X60610065Y-40889935D01*
X60693630Y-40958515D01*
X60788968Y-41009474D01*
X60892416Y-41040855D01*
X60999999Y-41051451D01*
X62600001Y-41051451D01*
X62707584Y-41040855D01*
X62811032Y-41009474D01*
X62906370Y-40958515D01*
X62989935Y-40889935D01*
X63058515Y-40806370D01*
X63109474Y-40711032D01*
X63140855Y-40607584D01*
X63151451Y-40500001D01*
X63151451Y-37999999D01*
X63723549Y-37999999D01*
X63723549Y-40500001D01*
X63734145Y-40607584D01*
X63765526Y-40711032D01*
X63816485Y-40806370D01*
X63885065Y-40889935D01*
X63968630Y-40958515D01*
X64063968Y-41009474D01*
X64167416Y-41040855D01*
X64274999Y-41051451D01*
X65875001Y-41051451D01*
X65982584Y-41040855D01*
X66086032Y-41009474D01*
X66181370Y-40958515D01*
X66264935Y-40889935D01*
X66333515Y-40806370D01*
X66384474Y-40711032D01*
X66415855Y-40607584D01*
X66426451Y-40500001D01*
X66426451Y-37999999D01*
X72573549Y-37999999D01*
X72573549Y-40500001D01*
X72584145Y-40607584D01*
X72615526Y-40711032D01*
X72666485Y-40806370D01*
X72735065Y-40889935D01*
X72818630Y-40958515D01*
X72913968Y-41009474D01*
X73017416Y-41040855D01*
X73124999Y-41051451D01*
X74725001Y-41051451D01*
X74832584Y-41040855D01*
X74936032Y-41009474D01*
X75031370Y-40958515D01*
X75114935Y-40889935D01*
X75183515Y-40806370D01*
X75234474Y-40711032D01*
X75265855Y-40607584D01*
X75276451Y-40500001D01*
X75276451Y-39500000D01*
X80719436Y-39500000D01*
X80741640Y-39725439D01*
X80807398Y-39942215D01*
X80914184Y-40141997D01*
X81057893Y-40317107D01*
X81233003Y-40460816D01*
X81432785Y-40567602D01*
X81649561Y-40633360D01*
X81818508Y-40650000D01*
X82181492Y-40650000D01*
X82350439Y-40633360D01*
X82567215Y-40567602D01*
X82766997Y-40460816D01*
X82942107Y-40317107D01*
X83085816Y-40141997D01*
X83134990Y-40050000D01*
X84272183Y-40050000D01*
X85145731Y-40923549D01*
X84000000Y-40923549D01*
X83902172Y-40933184D01*
X83808103Y-40961720D01*
X83721409Y-41008059D01*
X83645421Y-41070421D01*
X83583059Y-41146409D01*
X83536720Y-41233103D01*
X83508184Y-41327172D01*
X83498549Y-41425000D01*
X83498549Y-41825000D01*
X83508184Y-41922828D01*
X83536720Y-42016897D01*
X83583059Y-42103591D01*
X83645421Y-42179579D01*
X83673372Y-42202518D01*
X83632522Y-42224352D01*
X83586841Y-42261841D01*
X83549352Y-42307522D01*
X83521495Y-42359639D01*
X83504340Y-42416190D01*
X83498548Y-42475000D01*
X83499743Y-42721925D01*
X83198986Y-42421169D01*
X83258360Y-42225439D01*
X83280564Y-42000000D01*
X83258360Y-41774561D01*
X83192602Y-41557785D01*
X83085816Y-41358003D01*
X82942107Y-41182893D01*
X82766997Y-41039184D01*
X82567215Y-40932398D01*
X82350439Y-40866640D01*
X82181492Y-40850000D01*
X81818508Y-40850000D01*
X81649561Y-40866640D01*
X81432785Y-40932398D01*
X81233003Y-41039184D01*
X81057893Y-41182893D01*
X80914184Y-41358003D01*
X80807398Y-41557785D01*
X80741640Y-41774561D01*
X80719436Y-42000000D01*
X80741640Y-42225439D01*
X80807398Y-42442215D01*
X80914184Y-42641997D01*
X81057893Y-42817107D01*
X81233003Y-42960816D01*
X81432785Y-43067602D01*
X81649561Y-43133360D01*
X81818508Y-43150000D01*
X82181492Y-43150000D01*
X82350439Y-43133360D01*
X82354355Y-43132172D01*
X82650000Y-43427818D01*
X82650000Y-43481896D01*
X82588183Y-43447106D01*
X82373874Y-43376974D01*
X82150000Y-43350000D01*
X82025000Y-43350000D01*
X82025000Y-44475000D01*
X83199709Y-44475000D01*
X83223182Y-44401000D01*
X83316991Y-44494809D01*
X83334210Y-44515790D01*
X83355190Y-44533008D01*
X83355195Y-44533013D01*
X83417957Y-44584521D01*
X83469028Y-44611818D01*
X83513506Y-44635592D01*
X83617181Y-44667042D01*
X83636711Y-44668965D01*
X83645421Y-44679579D01*
X83721409Y-44741941D01*
X83736486Y-44750000D01*
X83721409Y-44758059D01*
X83645421Y-44820421D01*
X83583059Y-44896409D01*
X83536720Y-44983103D01*
X83508184Y-45077172D01*
X83498549Y-45175000D01*
X83498549Y-45575000D01*
X83508184Y-45672828D01*
X83536720Y-45766897D01*
X83583059Y-45853591D01*
X83645421Y-45929579D01*
X83721409Y-45991941D01*
X83808103Y-46038280D01*
X83902172Y-46066816D01*
X84000000Y-46076451D01*
X85200000Y-46076451D01*
X85297828Y-46066816D01*
X85391897Y-46038280D01*
X85478591Y-45991941D01*
X85554579Y-45929579D01*
X85558337Y-45925000D01*
X87297992Y-45925000D01*
X87325000Y-45927660D01*
X87352008Y-45925000D01*
X87352018Y-45925000D01*
X87432819Y-45917042D01*
X87536494Y-45885592D01*
X87632042Y-45834521D01*
X87643660Y-45824986D01*
X87694804Y-45783013D01*
X87715790Y-45765790D01*
X87733013Y-45744805D01*
X88369811Y-45108006D01*
X88390792Y-45090788D01*
X88408010Y-45069808D01*
X88408015Y-45069803D01*
X88459523Y-45007041D01*
X88508295Y-44915793D01*
X88510594Y-44911492D01*
X88542044Y-44807817D01*
X88550002Y-44727016D01*
X88550002Y-44727006D01*
X88552662Y-44699998D01*
X88550002Y-44672990D01*
X88550002Y-41427009D01*
X88552662Y-41400001D01*
X88550002Y-41372993D01*
X88550002Y-41372984D01*
X88542044Y-41292183D01*
X88510594Y-41188508D01*
X88472643Y-41117506D01*
X88459523Y-41092959D01*
X88408015Y-41030197D01*
X88408010Y-41030192D01*
X88390792Y-41009212D01*
X88369811Y-40991993D01*
X87983001Y-40605184D01*
X87965779Y-40584199D01*
X87882031Y-40515468D01*
X87786483Y-40464397D01*
X87682808Y-40432947D01*
X87616851Y-40426451D01*
X88750001Y-40426451D01*
X88857584Y-40415855D01*
X88961032Y-40384474D01*
X89056370Y-40333515D01*
X89139935Y-40264935D01*
X89208515Y-40181370D01*
X89259474Y-40086032D01*
X89290855Y-39982584D01*
X89301451Y-39875001D01*
X89301451Y-38274999D01*
X89290855Y-38167416D01*
X89259474Y-38063968D01*
X89208515Y-37968630D01*
X89139935Y-37885065D01*
X89056370Y-37816485D01*
X88961032Y-37765526D01*
X88857584Y-37734145D01*
X88750001Y-37723549D01*
X86249999Y-37723549D01*
X86142416Y-37734145D01*
X86038968Y-37765526D01*
X85943630Y-37816485D01*
X85860065Y-37885065D01*
X85791485Y-37968630D01*
X85740526Y-38063968D01*
X85709145Y-38167416D01*
X85698549Y-38274999D01*
X85698549Y-39875001D01*
X85703545Y-39925728D01*
X84908013Y-39130196D01*
X84890790Y-39109210D01*
X84807042Y-39040479D01*
X84711494Y-38989408D01*
X84607819Y-38957958D01*
X84527018Y-38950000D01*
X84527008Y-38950000D01*
X84500000Y-38947340D01*
X84472992Y-38950000D01*
X83134990Y-38950000D01*
X83085816Y-38858003D01*
X82942107Y-38682893D01*
X82766997Y-38539184D01*
X82567215Y-38432398D01*
X82350439Y-38366640D01*
X82181492Y-38350000D01*
X81818508Y-38350000D01*
X81649561Y-38366640D01*
X81432785Y-38432398D01*
X81233003Y-38539184D01*
X81057893Y-38682893D01*
X80914184Y-38858003D01*
X80807398Y-39057785D01*
X80741640Y-39274561D01*
X80719436Y-39500000D01*
X75276451Y-39500000D01*
X75276451Y-37999999D01*
X75265855Y-37892416D01*
X75234474Y-37788968D01*
X75183515Y-37693630D01*
X75114935Y-37610065D01*
X75031370Y-37541485D01*
X74936032Y-37490526D01*
X74832584Y-37459145D01*
X74725001Y-37448549D01*
X73124999Y-37448549D01*
X73017416Y-37459145D01*
X72913968Y-37490526D01*
X72818630Y-37541485D01*
X72735065Y-37610065D01*
X72666485Y-37693630D01*
X72615526Y-37788968D01*
X72584145Y-37892416D01*
X72573549Y-37999999D01*
X66426451Y-37999999D01*
X66415855Y-37892416D01*
X66384474Y-37788968D01*
X66333515Y-37693630D01*
X66264935Y-37610065D01*
X66181370Y-37541485D01*
X66086032Y-37490526D01*
X65982584Y-37459145D01*
X65875001Y-37448549D01*
X64274999Y-37448549D01*
X64167416Y-37459145D01*
X64063968Y-37490526D01*
X63968630Y-37541485D01*
X63885065Y-37610065D01*
X63816485Y-37693630D01*
X63765526Y-37788968D01*
X63734145Y-37892416D01*
X63723549Y-37999999D01*
X63151451Y-37999999D01*
X63140855Y-37892416D01*
X63109474Y-37788968D01*
X63058515Y-37693630D01*
X62989935Y-37610065D01*
X62906370Y-37541485D01*
X62811032Y-37490526D01*
X62707584Y-37459145D01*
X62600001Y-37448549D01*
X60999999Y-37448549D01*
X60892416Y-37459145D01*
X60788968Y-37490526D01*
X60693630Y-37541485D01*
X60610065Y-37610065D01*
X60541485Y-37693630D01*
X60490526Y-37788968D01*
X60459145Y-37892416D01*
X60448549Y-37999999D01*
X50551451Y-37999999D01*
X50540855Y-37892416D01*
X50509474Y-37788968D01*
X50458515Y-37693630D01*
X50389935Y-37610065D01*
X50306370Y-37541485D01*
X50211032Y-37490526D01*
X50107584Y-37459145D01*
X50000001Y-37448549D01*
X48399999Y-37448549D01*
X48292416Y-37459145D01*
X48188968Y-37490526D01*
X48093630Y-37541485D01*
X48010065Y-37610065D01*
X47941485Y-37693630D01*
X47890526Y-37788968D01*
X47859145Y-37892416D01*
X47848549Y-37999999D01*
X47400000Y-37999999D01*
X47400000Y-37990905D01*
X47376942Y-37874986D01*
X47331713Y-37765793D01*
X47266050Y-37667522D01*
X47182478Y-37583950D01*
X47084207Y-37518287D01*
X46975014Y-37473058D01*
X46859095Y-37450000D01*
X46740905Y-37450000D01*
X46624986Y-37473058D01*
X46515793Y-37518287D01*
X46417522Y-37583950D01*
X46333950Y-37667522D01*
X46268287Y-37765793D01*
X46223058Y-37874986D01*
X46200000Y-37990905D01*
X45402809Y-37990905D01*
X45422831Y-37786716D01*
X45484773Y-37581553D01*
X45585384Y-37392332D01*
X45720837Y-37226251D01*
X45885959Y-37089650D01*
X46074478Y-36987718D01*
X46279196Y-36924347D01*
X46510845Y-36900000D01*
X89600001Y-36900000D01*
X89600000Y-63100000D01*
%TA.AperFunction,Conductor*%
D16*
G36*
X89600000Y-63100000D02*
G01*
X46519563Y-63100000D01*
X46286716Y-63077169D01*
X46081553Y-63015227D01*
X45892332Y-62914616D01*
X45726254Y-62779166D01*
X45589650Y-62614040D01*
X45487718Y-62425522D01*
X45424347Y-62220803D01*
X45400000Y-61989155D01*
X45400000Y-61440905D01*
X49750000Y-61440905D01*
X49750000Y-61559095D01*
X49773058Y-61675014D01*
X49818287Y-61784207D01*
X49883950Y-61882478D01*
X49967522Y-61966050D01*
X50065793Y-62031713D01*
X50174986Y-62076942D01*
X50290905Y-62100000D01*
X50409095Y-62100000D01*
X50525014Y-62076942D01*
X50634207Y-62031713D01*
X50732478Y-61966050D01*
X50816050Y-61882478D01*
X50881713Y-61784207D01*
X50926942Y-61675014D01*
X50950000Y-61559095D01*
X50950000Y-61440905D01*
X50926942Y-61324986D01*
X50881713Y-61215793D01*
X50816050Y-61117522D01*
X50732478Y-61033950D01*
X50634207Y-60968287D01*
X50525014Y-60923058D01*
X50409095Y-60900000D01*
X50290905Y-60900000D01*
X50174986Y-60923058D01*
X50065793Y-60968287D01*
X49967522Y-61033950D01*
X49883950Y-61117522D01*
X49818287Y-61215793D01*
X49773058Y-61324986D01*
X49750000Y-61440905D01*
X45400000Y-61440905D01*
X45400000Y-59690905D01*
X58350000Y-59690905D01*
X58350000Y-59809095D01*
X58373058Y-59925014D01*
X58418287Y-60034207D01*
X58483950Y-60132478D01*
X58567522Y-60216050D01*
X58665793Y-60281713D01*
X58774986Y-60326942D01*
X58890905Y-60350000D01*
X59009095Y-60350000D01*
X59125014Y-60326942D01*
X59234207Y-60281713D01*
X59332478Y-60216050D01*
X59416050Y-60132478D01*
X59481713Y-60034207D01*
X59526942Y-59925014D01*
X59550000Y-59809095D01*
X59550000Y-59690905D01*
X59526942Y-59574986D01*
X59495882Y-59499999D01*
X61848549Y-59499999D01*
X61848549Y-62000001D01*
X61859145Y-62107584D01*
X61890526Y-62211032D01*
X61941485Y-62306370D01*
X62010065Y-62389935D01*
X62093630Y-62458515D01*
X62188968Y-62509474D01*
X62292416Y-62540855D01*
X62399999Y-62551451D01*
X64000001Y-62551451D01*
X64107584Y-62540855D01*
X64211032Y-62509474D01*
X64306370Y-62458515D01*
X64389935Y-62389935D01*
X64458515Y-62306370D01*
X64509474Y-62211032D01*
X64540855Y-62107584D01*
X64551451Y-62000001D01*
X64551451Y-59499999D01*
X64540855Y-59392416D01*
X64509474Y-59288968D01*
X64458515Y-59193630D01*
X64389935Y-59110065D01*
X64306370Y-59041485D01*
X64211032Y-58990526D01*
X64107584Y-58959145D01*
X64000001Y-58948549D01*
X62399999Y-58948549D01*
X62292416Y-58959145D01*
X62188968Y-58990526D01*
X62093630Y-59041485D01*
X62010065Y-59110065D01*
X61941485Y-59193630D01*
X61890526Y-59288968D01*
X61859145Y-59392416D01*
X61848549Y-59499999D01*
X59495882Y-59499999D01*
X59481713Y-59465793D01*
X59416050Y-59367522D01*
X59332478Y-59283950D01*
X59234207Y-59218287D01*
X59125014Y-59173058D01*
X59009095Y-59150000D01*
X58890905Y-59150000D01*
X58774986Y-59173058D01*
X58665793Y-59218287D01*
X58567522Y-59283950D01*
X58483950Y-59367522D01*
X58418287Y-59465793D01*
X58373058Y-59574986D01*
X58350000Y-59690905D01*
X45400000Y-59690905D01*
X45400000Y-38019563D01*
X45402809Y-37990905D01*
X46200000Y-37990905D01*
X46200000Y-38109095D01*
X46223058Y-38225014D01*
X46268287Y-38334207D01*
X46333950Y-38432478D01*
X46417522Y-38516050D01*
X46515793Y-38581713D01*
X46624986Y-38626942D01*
X46740905Y-38650000D01*
X46859095Y-38650000D01*
X46975014Y-38626942D01*
X47084207Y-38581713D01*
X47182478Y-38516050D01*
X47266050Y-38432478D01*
X47331713Y-38334207D01*
X47376942Y-38225014D01*
X47400000Y-38109095D01*
X47400000Y-37999999D01*
X47848549Y-37999999D01*
X47848549Y-40500001D01*
X47859145Y-40607584D01*
X47890526Y-40711032D01*
X47941485Y-40806370D01*
X48010065Y-40889935D01*
X48093630Y-40958515D01*
X48188968Y-41009474D01*
X48292416Y-41040855D01*
X48399999Y-41051451D01*
X50000001Y-41051451D01*
X50046519Y-41046869D01*
X49044500Y-42048889D01*
X49030000Y-42060789D01*
X48982513Y-42118652D01*
X48947228Y-42184667D01*
X48925499Y-42256297D01*
X48920000Y-42312129D01*
X48920000Y-42312136D01*
X48918163Y-42330789D01*
X48920000Y-42349442D01*
X48920001Y-56981336D01*
X48918163Y-57000000D01*
X48925499Y-57074492D01*
X48947228Y-57146122D01*
X48947229Y-57146123D01*
X48982514Y-57212138D01*
X49030001Y-57270000D01*
X49044496Y-57281896D01*
X50718104Y-58955505D01*
X50730000Y-58970000D01*
X50787862Y-59017487D01*
X50853877Y-59052772D01*
X50908835Y-59069443D01*
X50925506Y-59074501D01*
X50933169Y-59075256D01*
X50981339Y-59080000D01*
X50981345Y-59080000D01*
X50999999Y-59081837D01*
X51018653Y-59080000D01*
X56681347Y-59080000D01*
X56700000Y-59081837D01*
X56718653Y-59080000D01*
X56718661Y-59080000D01*
X56774493Y-59074501D01*
X56846123Y-59052772D01*
X56912138Y-59017487D01*
X56970000Y-58970000D01*
X56981900Y-58955500D01*
X59117402Y-56820000D01*
X64182600Y-56820000D01*
X65048549Y-57685951D01*
X65048549Y-58450000D01*
X65058184Y-58547828D01*
X65086720Y-58641897D01*
X65133059Y-58728591D01*
X65195421Y-58804579D01*
X65271409Y-58866941D01*
X65350001Y-58908949D01*
X65350001Y-59730344D01*
X65348065Y-59750000D01*
X65355788Y-59828413D01*
X65378661Y-59903814D01*
X65415803Y-59973302D01*
X65453265Y-60018950D01*
X65453268Y-60018953D01*
X65465790Y-60034211D01*
X65481047Y-60046732D01*
X65903267Y-60468953D01*
X65915789Y-60484211D01*
X65931047Y-60496733D01*
X65931049Y-60496735D01*
X65944495Y-60507769D01*
X65976697Y-60534197D01*
X66046186Y-60571340D01*
X66121586Y-60594212D01*
X66180353Y-60600000D01*
X66180363Y-60600000D01*
X66199999Y-60601934D01*
X66219635Y-60600000D01*
X66551472Y-60600000D01*
X66617522Y-60666050D01*
X66715793Y-60731713D01*
X66824986Y-60776942D01*
X66940905Y-60800000D01*
X67059095Y-60800000D01*
X67175014Y-60776942D01*
X67284207Y-60731713D01*
X67382478Y-60666050D01*
X67466050Y-60582478D01*
X67531713Y-60484207D01*
X67576942Y-60375014D01*
X67600000Y-60259095D01*
X67600000Y-60140905D01*
X67576942Y-60024986D01*
X67531713Y-59915793D01*
X67466050Y-59817522D01*
X67409612Y-59761084D01*
X67427134Y-59743561D01*
X67492797Y-59645290D01*
X67538026Y-59536097D01*
X67561084Y-59420178D01*
X67561084Y-59301988D01*
X67538026Y-59186069D01*
X67492797Y-59076876D01*
X67427134Y-58978605D01*
X67400000Y-58951471D01*
X67400000Y-58908949D01*
X67478591Y-58866941D01*
X67554579Y-58804579D01*
X67616941Y-58728591D01*
X67625000Y-58713514D01*
X67633059Y-58728591D01*
X67695421Y-58804579D01*
X67771409Y-58866941D01*
X67858103Y-58913280D01*
X67952172Y-58941816D01*
X68050000Y-58951451D01*
X68450000Y-58951451D01*
X68547828Y-58941816D01*
X68641897Y-58913280D01*
X68728591Y-58866941D01*
X68804579Y-58804579D01*
X68866941Y-58728591D01*
X68875000Y-58713514D01*
X68883059Y-58728591D01*
X68945421Y-58804579D01*
X69021409Y-58866941D01*
X69108103Y-58913280D01*
X69202172Y-58941816D01*
X69300000Y-58951451D01*
X69700000Y-58951451D01*
X69797828Y-58941816D01*
X69891897Y-58913280D01*
X69978591Y-58866941D01*
X70054579Y-58804579D01*
X70116941Y-58728591D01*
X70125000Y-58713514D01*
X70133059Y-58728591D01*
X70195421Y-58804579D01*
X70271409Y-58866941D01*
X70358103Y-58913280D01*
X70452172Y-58941816D01*
X70550000Y-58951451D01*
X70950000Y-58951451D01*
X71047828Y-58941816D01*
X71141897Y-58913280D01*
X71228591Y-58866941D01*
X71304579Y-58804579D01*
X71327518Y-58776628D01*
X71349352Y-58817478D01*
X71386841Y-58863159D01*
X71432522Y-58900648D01*
X71484639Y-58928505D01*
X71541190Y-58945660D01*
X71600000Y-58951452D01*
X71900000Y-58950000D01*
X71975000Y-58875000D01*
X71975000Y-57875000D01*
X71955000Y-57875000D01*
X71955000Y-57825000D01*
X71975000Y-57825000D01*
X71975000Y-56825000D01*
X72025000Y-56825000D01*
X72025000Y-57825000D01*
X72045000Y-57825000D01*
X72045000Y-57875000D01*
X72025000Y-57875000D01*
X72025000Y-58875000D01*
X72100000Y-58950000D01*
X72400000Y-58951452D01*
X72458810Y-58945660D01*
X72515361Y-58928505D01*
X72567478Y-58900648D01*
X72613159Y-58863159D01*
X72650648Y-58817478D01*
X72672482Y-58776628D01*
X72695421Y-58804579D01*
X72700001Y-58808337D01*
X72700001Y-59059940D01*
X72673058Y-59124986D01*
X72650000Y-59240905D01*
X72650000Y-59359095D01*
X72673058Y-59475014D01*
X72718287Y-59584207D01*
X72783950Y-59682478D01*
X72867522Y-59766050D01*
X72965793Y-59831713D01*
X73074986Y-59876942D01*
X73190905Y-59900000D01*
X73309095Y-59900000D01*
X73425014Y-59876942D01*
X73534207Y-59831713D01*
X73632478Y-59766050D01*
X73716050Y-59682478D01*
X73781713Y-59584207D01*
X73816592Y-59499999D01*
X74448549Y-59499999D01*
X74448549Y-62000001D01*
X74459145Y-62107584D01*
X74490526Y-62211032D01*
X74541485Y-62306370D01*
X74610065Y-62389935D01*
X74693630Y-62458515D01*
X74788968Y-62509474D01*
X74892416Y-62540855D01*
X74999999Y-62551451D01*
X76600001Y-62551451D01*
X76707584Y-62540855D01*
X76811032Y-62509474D01*
X76906370Y-62458515D01*
X76989935Y-62389935D01*
X77058515Y-62306370D01*
X77109474Y-62211032D01*
X77140855Y-62107584D01*
X77151451Y-62000001D01*
X77151451Y-59900000D01*
X80723549Y-59900000D01*
X80723549Y-61100000D01*
X80734145Y-61207583D01*
X80765526Y-61311031D01*
X80816485Y-61406370D01*
X80885065Y-61489935D01*
X80968630Y-61558515D01*
X81063969Y-61609474D01*
X81167417Y-61640855D01*
X81275000Y-61651451D01*
X82725000Y-61651451D01*
X82832583Y-61640855D01*
X82936031Y-61609474D01*
X83031370Y-61558515D01*
X83114935Y-61489935D01*
X83183515Y-61406370D01*
X83234474Y-61311031D01*
X83265855Y-61207583D01*
X83276451Y-61100000D01*
X83276451Y-60124999D01*
X85698549Y-60124999D01*
X85698549Y-61725001D01*
X85709145Y-61832584D01*
X85740526Y-61936032D01*
X85791485Y-62031370D01*
X85860065Y-62114935D01*
X85943630Y-62183515D01*
X86038968Y-62234474D01*
X86142416Y-62265855D01*
X86249999Y-62276451D01*
X88750001Y-62276451D01*
X88857584Y-62265855D01*
X88961032Y-62234474D01*
X89056370Y-62183515D01*
X89139935Y-62114935D01*
X89208515Y-62031370D01*
X89259474Y-61936032D01*
X89290855Y-61832584D01*
X89301451Y-61725001D01*
X89301451Y-60124999D01*
X89290855Y-60017416D01*
X89259474Y-59913968D01*
X89208515Y-59818630D01*
X89139935Y-59735065D01*
X89056370Y-59666485D01*
X88961032Y-59615526D01*
X88857584Y-59584145D01*
X88750001Y-59573549D01*
X86249999Y-59573549D01*
X86142416Y-59584145D01*
X86038968Y-59615526D01*
X85943630Y-59666485D01*
X85860065Y-59735065D01*
X85791485Y-59818630D01*
X85740526Y-59913968D01*
X85709145Y-60017416D01*
X85698549Y-60124999D01*
X83276451Y-60124999D01*
X83276451Y-59900000D01*
X83265855Y-59792417D01*
X83234474Y-59688969D01*
X83183515Y-59593630D01*
X83114935Y-59510065D01*
X83031370Y-59441485D01*
X82936031Y-59390526D01*
X82832583Y-59359145D01*
X82725000Y-59348549D01*
X81275000Y-59348549D01*
X81167417Y-59359145D01*
X81063969Y-59390526D01*
X80968630Y-59441485D01*
X80885065Y-59510065D01*
X80816485Y-59593630D01*
X80765526Y-59688969D01*
X80734145Y-59792417D01*
X80723549Y-59900000D01*
X77151451Y-59900000D01*
X77151451Y-59499999D01*
X77140855Y-59392416D01*
X77109474Y-59288968D01*
X77058515Y-59193630D01*
X76989935Y-59110065D01*
X76906370Y-59041485D01*
X76811032Y-58990526D01*
X76707584Y-58959145D01*
X76600001Y-58948549D01*
X74999999Y-58948549D01*
X74892416Y-58959145D01*
X74788968Y-58990526D01*
X74693630Y-59041485D01*
X74610065Y-59110065D01*
X74541485Y-59193630D01*
X74490526Y-59288968D01*
X74459145Y-59392416D01*
X74448549Y-59499999D01*
X73816592Y-59499999D01*
X73826942Y-59475014D01*
X73850000Y-59359095D01*
X73850000Y-59240905D01*
X73826942Y-59124986D01*
X73800000Y-59059942D01*
X73800000Y-58808337D01*
X73804579Y-58804579D01*
X73866941Y-58728591D01*
X73913280Y-58641897D01*
X73941816Y-58547828D01*
X73951451Y-58450000D01*
X73951451Y-58204549D01*
X80743338Y-58204549D01*
X80802972Y-58416988D01*
X80904921Y-58618118D01*
X81044150Y-58795494D01*
X81215308Y-58942300D01*
X81411817Y-59052894D01*
X81626126Y-59123026D01*
X81850000Y-59150000D01*
X81975000Y-59150000D01*
X81975000Y-58025000D01*
X82025000Y-58025000D01*
X82025000Y-59150000D01*
X82150000Y-59150000D01*
X82373874Y-59123026D01*
X82588183Y-59052894D01*
X82784692Y-58942300D01*
X82955850Y-58795494D01*
X83095079Y-58618118D01*
X83197028Y-58416988D01*
X83256662Y-58204549D01*
X83199709Y-58025000D01*
X82025000Y-58025000D01*
X81975000Y-58025000D01*
X80800291Y-58025000D01*
X80743338Y-58204549D01*
X73951451Y-58204549D01*
X73951451Y-57795451D01*
X80743338Y-57795451D01*
X80800291Y-57975000D01*
X81975000Y-57975000D01*
X81975000Y-56850000D01*
X81850000Y-56850000D01*
X81626126Y-56876974D01*
X81411817Y-56947106D01*
X81215308Y-57057700D01*
X81044150Y-57204506D01*
X80904921Y-57381882D01*
X80802972Y-57583012D01*
X80743338Y-57795451D01*
X73951451Y-57795451D01*
X73951451Y-57250000D01*
X73941816Y-57152172D01*
X73913280Y-57058103D01*
X73866941Y-56971409D01*
X73804579Y-56895421D01*
X73728591Y-56833059D01*
X73641897Y-56786720D01*
X73547828Y-56758184D01*
X73450000Y-56748549D01*
X73050000Y-56748549D01*
X72952172Y-56758184D01*
X72858103Y-56786720D01*
X72771409Y-56833059D01*
X72695421Y-56895421D01*
X72672482Y-56923372D01*
X72650648Y-56882522D01*
X72613159Y-56836841D01*
X72567478Y-56799352D01*
X72515361Y-56771495D01*
X72458810Y-56754340D01*
X72400000Y-56748548D01*
X72100000Y-56750000D01*
X72025000Y-56825000D01*
X71975000Y-56825000D01*
X71900000Y-56750000D01*
X71600000Y-56748548D01*
X71541190Y-56754340D01*
X71484639Y-56771495D01*
X71432522Y-56799352D01*
X71386841Y-56836841D01*
X71349352Y-56882522D01*
X71327518Y-56923372D01*
X71304579Y-56895421D01*
X71228591Y-56833059D01*
X71141897Y-56786720D01*
X71130000Y-56783111D01*
X71130000Y-56368654D01*
X71131837Y-56350000D01*
X71130000Y-56331346D01*
X71130000Y-56331339D01*
X71124501Y-56275507D01*
X71102772Y-56203877D01*
X71067487Y-56137862D01*
X71020000Y-56080000D01*
X71005505Y-56068104D01*
X67937401Y-53000000D01*
X80719436Y-53000000D01*
X80741640Y-53225439D01*
X80807398Y-53442215D01*
X80914184Y-53641997D01*
X81057893Y-53817107D01*
X81233003Y-53960816D01*
X81432785Y-54067602D01*
X81649561Y-54133360D01*
X81818508Y-54150000D01*
X82181492Y-54150000D01*
X82350439Y-54133360D01*
X82567215Y-54067602D01*
X82766997Y-53960816D01*
X82942107Y-53817107D01*
X83085816Y-53641997D01*
X83134990Y-53550000D01*
X84972183Y-53550000D01*
X85380421Y-53958239D01*
X85297828Y-53933184D01*
X85200000Y-53923549D01*
X84000000Y-53923549D01*
X83902172Y-53933184D01*
X83808103Y-53961720D01*
X83721409Y-54008059D01*
X83645421Y-54070421D01*
X83583059Y-54146409D01*
X83536720Y-54233103D01*
X83508184Y-54327172D01*
X83498549Y-54425000D01*
X83498549Y-54825000D01*
X83508184Y-54922828D01*
X83536720Y-55016897D01*
X83583059Y-55103591D01*
X83645421Y-55179579D01*
X83673372Y-55202518D01*
X83632522Y-55224352D01*
X83586841Y-55261841D01*
X83549352Y-55307522D01*
X83521495Y-55359639D01*
X83504340Y-55416190D01*
X83498548Y-55475000D01*
X83500000Y-55775000D01*
X83575000Y-55850000D01*
X84575000Y-55850000D01*
X84575000Y-55830000D01*
X84625000Y-55830000D01*
X84625000Y-55850000D01*
X85625000Y-55850000D01*
X85700000Y-55775000D01*
X85701452Y-55475000D01*
X85695660Y-55416190D01*
X85678505Y-55359639D01*
X85650648Y-55307522D01*
X85613159Y-55261841D01*
X85567478Y-55224352D01*
X85526628Y-55202518D01*
X85554579Y-55179579D01*
X85558337Y-55175000D01*
X86220298Y-55175000D01*
X86224986Y-55176942D01*
X86340905Y-55200000D01*
X86459095Y-55200000D01*
X86575014Y-55176942D01*
X86684207Y-55131713D01*
X86782478Y-55066050D01*
X86866050Y-54982478D01*
X86931713Y-54884207D01*
X86976942Y-54775014D01*
X87000000Y-54659095D01*
X87000000Y-54540905D01*
X86976942Y-54424986D01*
X86945882Y-54350000D01*
X86972183Y-54350000D01*
X87650001Y-55027818D01*
X87650000Y-56772183D01*
X86597183Y-57825000D01*
X85558337Y-57825000D01*
X85554579Y-57820421D01*
X85478591Y-57758059D01*
X85463514Y-57750000D01*
X85478591Y-57741941D01*
X85554579Y-57679579D01*
X85616941Y-57603591D01*
X85663280Y-57516897D01*
X85691816Y-57422828D01*
X85701451Y-57325000D01*
X85701451Y-56925000D01*
X85691816Y-56827172D01*
X85663280Y-56733103D01*
X85616941Y-56646409D01*
X85554579Y-56570421D01*
X85526628Y-56547482D01*
X85567478Y-56525648D01*
X85613159Y-56488159D01*
X85650648Y-56442478D01*
X85678505Y-56390361D01*
X85695660Y-56333810D01*
X85701452Y-56275000D01*
X85700000Y-55975000D01*
X85625000Y-55900000D01*
X84625000Y-55900000D01*
X84625000Y-55920000D01*
X84575000Y-55920000D01*
X84575000Y-55900000D01*
X83575000Y-55900000D01*
X83500000Y-55975000D01*
X83498591Y-56266054D01*
X83459521Y-56192958D01*
X83408013Y-56130196D01*
X83390790Y-56109210D01*
X83369804Y-56091987D01*
X83198986Y-55921169D01*
X83258360Y-55725439D01*
X83280564Y-55500000D01*
X83258360Y-55274561D01*
X83192602Y-55057785D01*
X83085816Y-54858003D01*
X82942107Y-54682893D01*
X82766997Y-54539184D01*
X82567215Y-54432398D01*
X82350439Y-54366640D01*
X82181492Y-54350000D01*
X81818508Y-54350000D01*
X81649561Y-54366640D01*
X81432785Y-54432398D01*
X81233003Y-54539184D01*
X81057893Y-54682893D01*
X80914184Y-54858003D01*
X80807398Y-55057785D01*
X80741640Y-55274561D01*
X80719436Y-55500000D01*
X80741640Y-55725439D01*
X80807398Y-55942215D01*
X80914184Y-56141997D01*
X81057893Y-56317107D01*
X81233003Y-56460816D01*
X81432785Y-56567602D01*
X81649561Y-56633360D01*
X81818508Y-56650000D01*
X82181492Y-56650000D01*
X82350439Y-56633360D01*
X82354355Y-56632172D01*
X82450000Y-56727817D01*
X82450000Y-56872992D01*
X82447340Y-56900000D01*
X82447443Y-56901049D01*
X82373874Y-56876974D01*
X82150000Y-56850000D01*
X82025000Y-56850000D01*
X82025000Y-57975000D01*
X83199709Y-57975000D01*
X83256662Y-57795451D01*
X83223557Y-57677518D01*
X83224999Y-57677660D01*
X83252007Y-57675000D01*
X83641663Y-57675000D01*
X83645421Y-57679579D01*
X83721409Y-57741941D01*
X83736486Y-57750000D01*
X83721409Y-57758059D01*
X83645421Y-57820421D01*
X83583059Y-57896409D01*
X83536720Y-57983103D01*
X83508184Y-58077172D01*
X83498549Y-58175000D01*
X83498549Y-58575000D01*
X83508184Y-58672828D01*
X83536720Y-58766897D01*
X83583059Y-58853591D01*
X83645421Y-58929579D01*
X83721409Y-58991941D01*
X83808103Y-59038280D01*
X83902172Y-59066816D01*
X84000000Y-59076451D01*
X85200000Y-59076451D01*
X85297828Y-59066816D01*
X85391897Y-59038280D01*
X85478591Y-58991941D01*
X85554579Y-58929579D01*
X85558337Y-58925000D01*
X86797992Y-58925000D01*
X86825000Y-58927660D01*
X86852008Y-58925000D01*
X86852018Y-58925000D01*
X86932819Y-58917042D01*
X87036494Y-58885592D01*
X87132042Y-58834521D01*
X87179596Y-58795494D01*
X87194804Y-58783013D01*
X87215790Y-58765790D01*
X87233013Y-58744804D01*
X88569804Y-57408013D01*
X88590790Y-57390790D01*
X88659521Y-57307042D01*
X88710592Y-57211494D01*
X88742042Y-57107819D01*
X88750000Y-57027018D01*
X88750000Y-57027011D01*
X88752660Y-57000000D01*
X88750000Y-56972989D01*
X88750000Y-54827011D01*
X88752660Y-54800000D01*
X88750000Y-54772989D01*
X88750000Y-54772982D01*
X88742042Y-54692181D01*
X88710592Y-54588506D01*
X88659521Y-54492958D01*
X88590790Y-54409210D01*
X88569804Y-54391987D01*
X87608012Y-53430195D01*
X87604939Y-53426451D01*
X88750001Y-53426451D01*
X88857584Y-53415855D01*
X88961032Y-53384474D01*
X89056370Y-53333515D01*
X89139935Y-53264935D01*
X89208515Y-53181370D01*
X89259474Y-53086032D01*
X89290855Y-52982584D01*
X89301451Y-52875001D01*
X89301451Y-51274999D01*
X89290855Y-51167416D01*
X89259474Y-51063968D01*
X89208515Y-50968630D01*
X89139935Y-50885065D01*
X89056370Y-50816485D01*
X88961032Y-50765526D01*
X88857584Y-50734145D01*
X88750001Y-50723549D01*
X86249999Y-50723549D01*
X86142416Y-50734145D01*
X86038968Y-50765526D01*
X85943630Y-50816485D01*
X85860065Y-50885065D01*
X85791485Y-50968630D01*
X85740526Y-51063968D01*
X85709145Y-51167416D01*
X85698549Y-51274999D01*
X85698549Y-52720732D01*
X85608013Y-52630196D01*
X85590790Y-52609210D01*
X85564777Y-52587861D01*
X85507042Y-52540479D01*
X85479040Y-52525512D01*
X85411494Y-52489408D01*
X85307819Y-52457958D01*
X85227018Y-52450000D01*
X85227008Y-52450000D01*
X85200000Y-52447340D01*
X85172992Y-52450000D01*
X83134990Y-52450000D01*
X83085816Y-52358003D01*
X82942107Y-52182893D01*
X82766997Y-52039184D01*
X82567215Y-51932398D01*
X82350439Y-51866640D01*
X82181492Y-51850000D01*
X81818508Y-51850000D01*
X81649561Y-51866640D01*
X81432785Y-51932398D01*
X81233003Y-52039184D01*
X81057893Y-52182893D01*
X80914184Y-52358003D01*
X80807398Y-52557785D01*
X80741640Y-52774561D01*
X80719436Y-53000000D01*
X67937401Y-53000000D01*
X67481899Y-52544499D01*
X67469999Y-52529999D01*
X67412137Y-52482512D01*
X67346122Y-52447227D01*
X67274492Y-52425498D01*
X67218660Y-52419999D01*
X67218652Y-52419999D01*
X67199999Y-52418162D01*
X67181346Y-52419999D01*
X66395820Y-52419999D01*
X65780000Y-51804180D01*
X65780000Y-51628528D01*
X65817522Y-51666050D01*
X65915793Y-51731713D01*
X66024986Y-51776942D01*
X66140905Y-51800000D01*
X66234315Y-51800000D01*
X66653261Y-52218946D01*
X66665787Y-52234209D01*
X66726695Y-52284195D01*
X66796184Y-52321338D01*
X66871584Y-52344210D01*
X66930351Y-52349998D01*
X66930361Y-52349998D01*
X66949997Y-52351932D01*
X66969633Y-52349998D01*
X69730356Y-52349998D01*
X69750002Y-52351933D01*
X69769648Y-52349998D01*
X69769649Y-52349998D01*
X69828416Y-52344210D01*
X69903816Y-52321338D01*
X69973305Y-52284195D01*
X70034213Y-52234209D01*
X70046739Y-52218946D01*
X70405329Y-51860356D01*
X70368287Y-51915793D01*
X70323058Y-52024986D01*
X70300000Y-52140905D01*
X70300000Y-52259095D01*
X70323058Y-52375014D01*
X70368287Y-52484207D01*
X70433950Y-52582478D01*
X70517522Y-52666050D01*
X70615793Y-52731713D01*
X70724986Y-52776942D01*
X70840905Y-52800000D01*
X70959095Y-52800000D01*
X71075014Y-52776942D01*
X71184207Y-52731713D01*
X71282478Y-52666050D01*
X71366050Y-52582478D01*
X71431713Y-52484207D01*
X71476942Y-52375014D01*
X71500000Y-52259095D01*
X71500000Y-52140905D01*
X71476942Y-52024986D01*
X71431713Y-51915793D01*
X71366050Y-51817522D01*
X71282478Y-51733950D01*
X71184207Y-51668287D01*
X71075014Y-51623058D01*
X70959095Y-51600000D01*
X70840905Y-51600000D01*
X70724986Y-51623058D01*
X70615793Y-51668287D01*
X70560356Y-51705329D01*
X73024780Y-49240905D01*
X78600000Y-49240905D01*
X78600000Y-49359095D01*
X78623058Y-49475014D01*
X78668287Y-49584207D01*
X78712249Y-49650000D01*
X78668287Y-49715793D01*
X78623058Y-49824986D01*
X78600000Y-49940905D01*
X78600000Y-50059095D01*
X78623058Y-50175014D01*
X78668287Y-50284207D01*
X78712249Y-50350000D01*
X78668287Y-50415793D01*
X78623058Y-50524986D01*
X78600000Y-50640905D01*
X78600000Y-50759095D01*
X78623058Y-50875014D01*
X78668287Y-50984207D01*
X78712249Y-51050000D01*
X78668287Y-51115793D01*
X78623058Y-51224986D01*
X78600000Y-51340905D01*
X78600000Y-51459095D01*
X78623058Y-51575014D01*
X78668287Y-51684207D01*
X78733950Y-51782478D01*
X78817522Y-51866050D01*
X78915793Y-51931713D01*
X79024986Y-51976942D01*
X79140905Y-52000000D01*
X79259095Y-52000000D01*
X79375014Y-51976942D01*
X79484207Y-51931713D01*
X79582478Y-51866050D01*
X79666050Y-51782478D01*
X79731713Y-51684207D01*
X79776942Y-51575014D01*
X79800000Y-51459095D01*
X79800000Y-51340905D01*
X79776942Y-51224986D01*
X79731713Y-51115793D01*
X79687751Y-51050000D01*
X79731713Y-50984207D01*
X79776942Y-50875014D01*
X79800000Y-50759095D01*
X79800000Y-50640905D01*
X79776942Y-50524986D01*
X79731713Y-50415793D01*
X79687751Y-50350000D01*
X79731713Y-50284207D01*
X79776942Y-50175014D01*
X79800000Y-50059095D01*
X79800000Y-49940905D01*
X79776942Y-49824986D01*
X79731713Y-49715793D01*
X79687751Y-49650000D01*
X79731713Y-49584207D01*
X79776942Y-49475014D01*
X79800000Y-49359095D01*
X79800000Y-49240905D01*
X79776942Y-49124986D01*
X79731713Y-49015793D01*
X79666050Y-48917522D01*
X79582478Y-48833950D01*
X79484207Y-48768287D01*
X79375014Y-48723058D01*
X79259095Y-48700000D01*
X79140905Y-48700000D01*
X79024986Y-48723058D01*
X78915793Y-48768287D01*
X78817522Y-48833950D01*
X78733950Y-48917522D01*
X78668287Y-49015793D01*
X78623058Y-49124986D01*
X78600000Y-49240905D01*
X73024780Y-49240905D01*
X75865685Y-46400000D01*
X80723549Y-46400000D01*
X80723549Y-47600000D01*
X80734145Y-47707583D01*
X80765526Y-47811031D01*
X80816485Y-47906370D01*
X80885065Y-47989935D01*
X80968630Y-48058515D01*
X81063969Y-48109474D01*
X81167417Y-48140855D01*
X81275000Y-48151451D01*
X82725000Y-48151451D01*
X82832583Y-48140855D01*
X82936031Y-48109474D01*
X83031370Y-48058515D01*
X83114935Y-47989935D01*
X83183515Y-47906370D01*
X83234474Y-47811031D01*
X83265855Y-47707583D01*
X83276451Y-47600000D01*
X83276451Y-47124999D01*
X85698549Y-47124999D01*
X85698549Y-48725001D01*
X85709145Y-48832584D01*
X85740526Y-48936032D01*
X85791485Y-49031370D01*
X85860065Y-49114935D01*
X85943630Y-49183515D01*
X86038968Y-49234474D01*
X86142416Y-49265855D01*
X86249999Y-49276451D01*
X88750001Y-49276451D01*
X88857584Y-49265855D01*
X88961032Y-49234474D01*
X89056370Y-49183515D01*
X89139935Y-49114935D01*
X89208515Y-49031370D01*
X89259474Y-48936032D01*
X89290855Y-48832584D01*
X89301451Y-48725001D01*
X89301451Y-47124999D01*
X89290855Y-47017416D01*
X89259474Y-46913968D01*
X89208515Y-46818630D01*
X89139935Y-46735065D01*
X89056370Y-46666485D01*
X88961032Y-46615526D01*
X88857584Y-46584145D01*
X88750001Y-46573549D01*
X86249999Y-46573549D01*
X86142416Y-46584145D01*
X86038968Y-46615526D01*
X85943630Y-46666485D01*
X85860065Y-46735065D01*
X85791485Y-46818630D01*
X85740526Y-46913968D01*
X85709145Y-47017416D01*
X85698549Y-47124999D01*
X83276451Y-47124999D01*
X83276451Y-46400000D01*
X83265855Y-46292417D01*
X83234474Y-46188969D01*
X83183515Y-46093630D01*
X83114935Y-46010065D01*
X83031370Y-45941485D01*
X82936031Y-45890526D01*
X82832583Y-45859145D01*
X82725000Y-45848549D01*
X81275000Y-45848549D01*
X81167417Y-45859145D01*
X81063969Y-45890526D01*
X80968630Y-45941485D01*
X80885065Y-46010065D01*
X80816485Y-46093630D01*
X80765526Y-46188969D01*
X80734145Y-46292417D01*
X80723549Y-46400000D01*
X75865685Y-46400000D01*
X76265686Y-46000000D01*
X76359095Y-46000000D01*
X76475014Y-45976942D01*
X76584207Y-45931713D01*
X76682478Y-45866050D01*
X76766050Y-45782478D01*
X76831713Y-45684207D01*
X76876942Y-45575014D01*
X76900000Y-45459095D01*
X76900000Y-45340905D01*
X76876942Y-45224986D01*
X76831713Y-45115793D01*
X76766050Y-45017522D01*
X76682478Y-44933950D01*
X76584207Y-44868287D01*
X76475014Y-44823058D01*
X76359095Y-44800000D01*
X76240905Y-44800000D01*
X76124986Y-44823058D01*
X76015793Y-44868287D01*
X75917522Y-44933950D01*
X75833950Y-45017522D01*
X75768287Y-45115793D01*
X75723058Y-45224986D01*
X75700000Y-45340905D01*
X75700000Y-45434314D01*
X69584317Y-51549998D01*
X69293736Y-51549998D01*
X69323309Y-51534191D01*
X69384217Y-51484205D01*
X69396743Y-51468942D01*
X71468954Y-49396732D01*
X71484211Y-49384211D01*
X71504824Y-49359095D01*
X71534197Y-49323303D01*
X71559240Y-49276451D01*
X71571340Y-49253814D01*
X71594212Y-49178414D01*
X71600000Y-49119647D01*
X71600000Y-49119646D01*
X71601935Y-49100000D01*
X71600000Y-49080354D01*
X71600000Y-46448528D01*
X71666050Y-46382478D01*
X71731713Y-46284207D01*
X71776942Y-46175014D01*
X71800000Y-46059095D01*
X71800000Y-45940905D01*
X71776942Y-45824986D01*
X71731713Y-45715793D01*
X71666050Y-45617522D01*
X71589433Y-45540905D01*
X72500000Y-45540905D01*
X72500000Y-45659095D01*
X72523058Y-45775014D01*
X72568287Y-45884207D01*
X72633950Y-45982478D01*
X72717522Y-46066050D01*
X72815793Y-46131713D01*
X72924986Y-46176942D01*
X73040905Y-46200000D01*
X73159095Y-46200000D01*
X73275014Y-46176942D01*
X73384207Y-46131713D01*
X73482478Y-46066050D01*
X73566050Y-45982478D01*
X73631713Y-45884207D01*
X73676942Y-45775014D01*
X73700000Y-45659095D01*
X73700000Y-45540905D01*
X73676942Y-45424986D01*
X73631713Y-45315793D01*
X73566050Y-45217522D01*
X73482478Y-45133950D01*
X73384207Y-45068287D01*
X73275014Y-45023058D01*
X73159095Y-45000000D01*
X73040905Y-45000000D01*
X72924986Y-45023058D01*
X72815793Y-45068287D01*
X72717522Y-45133950D01*
X72633950Y-45217522D01*
X72568287Y-45315793D01*
X72523058Y-45424986D01*
X72500000Y-45540905D01*
X71589433Y-45540905D01*
X71582478Y-45533950D01*
X71484207Y-45468287D01*
X71375014Y-45423058D01*
X71259095Y-45400000D01*
X71140905Y-45400000D01*
X71024986Y-45423058D01*
X70915793Y-45468287D01*
X70817522Y-45533950D01*
X70733950Y-45617522D01*
X70668287Y-45715793D01*
X70623058Y-45824986D01*
X70600000Y-45940905D01*
X70600000Y-46059095D01*
X70623058Y-46175014D01*
X70668287Y-46284207D01*
X70733950Y-46382478D01*
X70800001Y-46448529D01*
X70800000Y-48934314D01*
X68934321Y-50799994D01*
X67648532Y-50799994D01*
X67582482Y-50733944D01*
X67484211Y-50668281D01*
X67375018Y-50623052D01*
X67259099Y-50599994D01*
X67140909Y-50599994D01*
X67024990Y-50623052D01*
X66915797Y-50668281D01*
X66817526Y-50733944D01*
X66733954Y-50817516D01*
X66700000Y-50868331D01*
X66666050Y-50817522D01*
X66582478Y-50733950D01*
X66484207Y-50668287D01*
X66375014Y-50623058D01*
X66259095Y-50600000D01*
X66140905Y-50600000D01*
X66024986Y-50623058D01*
X65915793Y-50668287D01*
X65817522Y-50733950D01*
X65780000Y-50771472D01*
X65780000Y-50357400D01*
X66957401Y-49180000D01*
X67532294Y-49180000D01*
X67533950Y-49182478D01*
X67617522Y-49266050D01*
X67715793Y-49331713D01*
X67824986Y-49376942D01*
X67940905Y-49400000D01*
X68059095Y-49400000D01*
X68175014Y-49376942D01*
X68284207Y-49331713D01*
X68382478Y-49266050D01*
X68466050Y-49182478D01*
X68531713Y-49084207D01*
X68576942Y-48975014D01*
X68600000Y-48859095D01*
X68600000Y-48740905D01*
X68576942Y-48624986D01*
X68531713Y-48515793D01*
X68466050Y-48417522D01*
X68382478Y-48333950D01*
X68284207Y-48268287D01*
X68175014Y-48223058D01*
X68158410Y-48219755D01*
X68176942Y-48175014D01*
X68200000Y-48059095D01*
X68200000Y-47940905D01*
X68176942Y-47824986D01*
X68131713Y-47715793D01*
X68066050Y-47617522D01*
X67982478Y-47533950D01*
X67924400Y-47495143D01*
X67931707Y-47484207D01*
X67976936Y-47375014D01*
X67999994Y-47259095D01*
X67999994Y-47165685D01*
X69965679Y-45200000D01*
X72080354Y-45200000D01*
X72100000Y-45201935D01*
X72119646Y-45200000D01*
X72119647Y-45200000D01*
X72178414Y-45194212D01*
X72253814Y-45171340D01*
X72323303Y-45134197D01*
X72384211Y-45084211D01*
X72396737Y-45068948D01*
X72761136Y-44704549D01*
X80743338Y-44704549D01*
X80802972Y-44916988D01*
X80904921Y-45118118D01*
X81044150Y-45295494D01*
X81215308Y-45442300D01*
X81411817Y-45552894D01*
X81626126Y-45623026D01*
X81850000Y-45650000D01*
X81975000Y-45650000D01*
X81975000Y-44525000D01*
X82025000Y-44525000D01*
X82025000Y-45650000D01*
X82150000Y-45650000D01*
X82373874Y-45623026D01*
X82588183Y-45552894D01*
X82784692Y-45442300D01*
X82955850Y-45295494D01*
X83095079Y-45118118D01*
X83197028Y-44916988D01*
X83256662Y-44704549D01*
X83199709Y-44525000D01*
X82025000Y-44525000D01*
X81975000Y-44525000D01*
X80800291Y-44525000D01*
X80743338Y-44704549D01*
X72761136Y-44704549D01*
X73170234Y-44295451D01*
X80743338Y-44295451D01*
X80800291Y-44475000D01*
X81975000Y-44475000D01*
X81975000Y-43350000D01*
X81850000Y-43350000D01*
X81626126Y-43376974D01*
X81411817Y-43447106D01*
X81215308Y-43557700D01*
X81044150Y-43704506D01*
X80904921Y-43881882D01*
X80802972Y-44083012D01*
X80743338Y-44295451D01*
X73170234Y-44295451D01*
X76265686Y-41200000D01*
X76359095Y-41200000D01*
X76475014Y-41176942D01*
X76584207Y-41131713D01*
X76682478Y-41066050D01*
X76766050Y-40982478D01*
X76831713Y-40884207D01*
X76876942Y-40775014D01*
X76900000Y-40659095D01*
X76900000Y-40540905D01*
X76876942Y-40424986D01*
X76831713Y-40315793D01*
X76766050Y-40217522D01*
X76682478Y-40133950D01*
X76584207Y-40068287D01*
X76475014Y-40023058D01*
X76359095Y-40000000D01*
X76240905Y-40000000D01*
X76124986Y-40023058D01*
X76015793Y-40068287D01*
X75917522Y-40133950D01*
X75833950Y-40217522D01*
X75768287Y-40315793D01*
X75723058Y-40424986D01*
X75700000Y-40540905D01*
X75700000Y-40634314D01*
X71934315Y-44400000D01*
X70837815Y-44400000D01*
X70850000Y-44390000D01*
X70861900Y-44375500D01*
X71630510Y-43606891D01*
X71645000Y-43595000D01*
X71656891Y-43580511D01*
X71656896Y-43580506D01*
X71675612Y-43557700D01*
X71692487Y-43537138D01*
X71727772Y-43471123D01*
X71749501Y-43399493D01*
X71755000Y-43343661D01*
X71755000Y-43343654D01*
X71756837Y-43325000D01*
X71755000Y-43306346D01*
X71755000Y-43216889D01*
X71766897Y-43213280D01*
X71853591Y-43166941D01*
X71929579Y-43104579D01*
X71991941Y-43028591D01*
X72038280Y-42941897D01*
X72066816Y-42847828D01*
X72076451Y-42750000D01*
X72076451Y-41550000D01*
X72066816Y-41452172D01*
X72038280Y-41358103D01*
X71991941Y-41271409D01*
X71929579Y-41195421D01*
X71853591Y-41133059D01*
X71766897Y-41086720D01*
X71672828Y-41058184D01*
X71575000Y-41048549D01*
X71175000Y-41048549D01*
X71077172Y-41058184D01*
X70983103Y-41086720D01*
X70896409Y-41133059D01*
X70820421Y-41195421D01*
X70758059Y-41271409D01*
X70750000Y-41286486D01*
X70741941Y-41271409D01*
X70679579Y-41195421D01*
X70603591Y-41133059D01*
X70516897Y-41086720D01*
X70422828Y-41058184D01*
X70325000Y-41048549D01*
X69925000Y-41048549D01*
X69827172Y-41058184D01*
X69733103Y-41086720D01*
X69646409Y-41133059D01*
X69570421Y-41195421D01*
X69547482Y-41223372D01*
X69525648Y-41182522D01*
X69488159Y-41136841D01*
X69442478Y-41099352D01*
X69390361Y-41071495D01*
X69333810Y-41054340D01*
X69275000Y-41048548D01*
X68975000Y-41050000D01*
X68900000Y-41125000D01*
X68900000Y-42125000D01*
X68920000Y-42125000D01*
X68920000Y-42175000D01*
X68900000Y-42175000D01*
X68900000Y-43175000D01*
X68975000Y-43250000D01*
X69275000Y-43251452D01*
X69333810Y-43245660D01*
X69390361Y-43228505D01*
X69442478Y-43200648D01*
X69488159Y-43163159D01*
X69525648Y-43117478D01*
X69547482Y-43076628D01*
X69570421Y-43104579D01*
X69646409Y-43166941D01*
X69678503Y-43184096D01*
X69442600Y-43420000D01*
X59857401Y-43420000D01*
X59647621Y-43210221D01*
X59728591Y-43166941D01*
X59804579Y-43104579D01*
X59866941Y-43028591D01*
X59913280Y-42941897D01*
X59941816Y-42847828D01*
X59951451Y-42750000D01*
X59951451Y-42040905D01*
X63300000Y-42040905D01*
X63300000Y-42159095D01*
X63323058Y-42275014D01*
X63368287Y-42384207D01*
X63433950Y-42482478D01*
X63517522Y-42566050D01*
X63615793Y-42631713D01*
X63724986Y-42676942D01*
X63840905Y-42700000D01*
X63922990Y-42700000D01*
X63950000Y-42702660D01*
X63977011Y-42700000D01*
X66923549Y-42700000D01*
X66923549Y-42750000D01*
X66933184Y-42847828D01*
X66961720Y-42941897D01*
X67008059Y-43028591D01*
X67070421Y-43104579D01*
X67146409Y-43166941D01*
X67233103Y-43213280D01*
X67327172Y-43241816D01*
X67425000Y-43251451D01*
X67825000Y-43251451D01*
X67922828Y-43241816D01*
X68016897Y-43213280D01*
X68103591Y-43166941D01*
X68179579Y-43104579D01*
X68202518Y-43076628D01*
X68224352Y-43117478D01*
X68261841Y-43163159D01*
X68307522Y-43200648D01*
X68359639Y-43228505D01*
X68416190Y-43245660D01*
X68475000Y-43251452D01*
X68775000Y-43250000D01*
X68850000Y-43175000D01*
X68850000Y-42175000D01*
X68830000Y-42175000D01*
X68830000Y-42125000D01*
X68850000Y-42125000D01*
X68850000Y-41125000D01*
X68775000Y-41050000D01*
X68475000Y-41048548D01*
X68416190Y-41054340D01*
X68359639Y-41071495D01*
X68307522Y-41099352D01*
X68261841Y-41136841D01*
X68224352Y-41182522D01*
X68202518Y-41223372D01*
X68179579Y-41195421D01*
X68103591Y-41133059D01*
X68016897Y-41086720D01*
X67922828Y-41058184D01*
X67825000Y-41048549D01*
X67425000Y-41048549D01*
X67327172Y-41058184D01*
X67233103Y-41086720D01*
X67146409Y-41133059D01*
X67070421Y-41195421D01*
X67008059Y-41271409D01*
X66961720Y-41358103D01*
X66933184Y-41452172D01*
X66923549Y-41550000D01*
X66923549Y-41600000D01*
X64231669Y-41600000D01*
X64184207Y-41568287D01*
X64075014Y-41523058D01*
X63959095Y-41500000D01*
X63840905Y-41500000D01*
X63724986Y-41523058D01*
X63615793Y-41568287D01*
X63517522Y-41633950D01*
X63433950Y-41717522D01*
X63368287Y-41815793D01*
X63323058Y-41924986D01*
X63300000Y-42040905D01*
X59951451Y-42040905D01*
X59951451Y-41550000D01*
X59941816Y-41452172D01*
X59913280Y-41358103D01*
X59866941Y-41271409D01*
X59804579Y-41195421D01*
X59728591Y-41133059D01*
X59641897Y-41086720D01*
X59630000Y-41083111D01*
X59630000Y-40868653D01*
X59631837Y-40849999D01*
X59630000Y-40831345D01*
X59630000Y-40831339D01*
X59624501Y-40775507D01*
X59624352Y-40775014D01*
X59611271Y-40731895D01*
X59602772Y-40703877D01*
X59567487Y-40637862D01*
X59520000Y-40580000D01*
X59505505Y-40568104D01*
X57871889Y-38934489D01*
X57859989Y-38919989D01*
X57802127Y-38872502D01*
X57736112Y-38837217D01*
X57664482Y-38815488D01*
X57608650Y-38809989D01*
X57608642Y-38809989D01*
X57589989Y-38808152D01*
X57571336Y-38809989D01*
X56962455Y-38809989D01*
X56976942Y-38775014D01*
X57000000Y-38659095D01*
X57000000Y-38540905D01*
X56976942Y-38424986D01*
X56931713Y-38315793D01*
X56866050Y-38217522D01*
X56782478Y-38133950D01*
X56684207Y-38068287D01*
X56575014Y-38023058D01*
X56459095Y-38000000D01*
X56340905Y-38000000D01*
X56224986Y-38023058D01*
X56115793Y-38068287D01*
X56017522Y-38133950D01*
X55933950Y-38217522D01*
X55868287Y-38315793D01*
X55823058Y-38424986D01*
X55800000Y-38540905D01*
X55800000Y-38659095D01*
X55823058Y-38775014D01*
X55837545Y-38809989D01*
X52459454Y-38809989D01*
X52440800Y-38808152D01*
X52422146Y-38809989D01*
X52422139Y-38809989D01*
X52366307Y-38815488D01*
X52294677Y-38837217D01*
X52228662Y-38872502D01*
X52170800Y-38919989D01*
X52158904Y-38934484D01*
X50546869Y-40546519D01*
X50551451Y-40500001D01*
X50551451Y-37999999D01*
X60448549Y-37999999D01*
X60448549Y-40500001D01*
X60459145Y-40607584D01*
X60490526Y-40711032D01*
X60541485Y-40806370D01*
X60610065Y-40889935D01*
X60693630Y-40958515D01*
X60788968Y-41009474D01*
X60892416Y-41040855D01*
X60999999Y-41051451D01*
X62600001Y-41051451D01*
X62707584Y-41040855D01*
X62811032Y-41009474D01*
X62906370Y-40958515D01*
X62989935Y-40889935D01*
X63058515Y-40806370D01*
X63109474Y-40711032D01*
X63140855Y-40607584D01*
X63151451Y-40500001D01*
X63151451Y-37999999D01*
X63723549Y-37999999D01*
X63723549Y-40500001D01*
X63734145Y-40607584D01*
X63765526Y-40711032D01*
X63816485Y-40806370D01*
X63885065Y-40889935D01*
X63968630Y-40958515D01*
X64063968Y-41009474D01*
X64167416Y-41040855D01*
X64274999Y-41051451D01*
X65875001Y-41051451D01*
X65982584Y-41040855D01*
X66086032Y-41009474D01*
X66181370Y-40958515D01*
X66264935Y-40889935D01*
X66333515Y-40806370D01*
X66384474Y-40711032D01*
X66415855Y-40607584D01*
X66426451Y-40500001D01*
X66426451Y-37999999D01*
X72573549Y-37999999D01*
X72573549Y-40500001D01*
X72584145Y-40607584D01*
X72615526Y-40711032D01*
X72666485Y-40806370D01*
X72735065Y-40889935D01*
X72818630Y-40958515D01*
X72913968Y-41009474D01*
X73017416Y-41040855D01*
X73124999Y-41051451D01*
X74725001Y-41051451D01*
X74832584Y-41040855D01*
X74936032Y-41009474D01*
X75031370Y-40958515D01*
X75114935Y-40889935D01*
X75183515Y-40806370D01*
X75234474Y-40711032D01*
X75265855Y-40607584D01*
X75276451Y-40500001D01*
X75276451Y-39500000D01*
X80719436Y-39500000D01*
X80741640Y-39725439D01*
X80807398Y-39942215D01*
X80914184Y-40141997D01*
X81057893Y-40317107D01*
X81233003Y-40460816D01*
X81432785Y-40567602D01*
X81649561Y-40633360D01*
X81818508Y-40650000D01*
X82181492Y-40650000D01*
X82350439Y-40633360D01*
X82567215Y-40567602D01*
X82766997Y-40460816D01*
X82942107Y-40317107D01*
X83085816Y-40141997D01*
X83134990Y-40050000D01*
X84272183Y-40050000D01*
X85145731Y-40923549D01*
X84000000Y-40923549D01*
X83902172Y-40933184D01*
X83808103Y-40961720D01*
X83721409Y-41008059D01*
X83645421Y-41070421D01*
X83583059Y-41146409D01*
X83536720Y-41233103D01*
X83508184Y-41327172D01*
X83498549Y-41425000D01*
X83498549Y-41825000D01*
X83508184Y-41922828D01*
X83536720Y-42016897D01*
X83583059Y-42103591D01*
X83645421Y-42179579D01*
X83673372Y-42202518D01*
X83632522Y-42224352D01*
X83586841Y-42261841D01*
X83549352Y-42307522D01*
X83521495Y-42359639D01*
X83504340Y-42416190D01*
X83498548Y-42475000D01*
X83499743Y-42721925D01*
X83198986Y-42421169D01*
X83258360Y-42225439D01*
X83280564Y-42000000D01*
X83258360Y-41774561D01*
X83192602Y-41557785D01*
X83085816Y-41358003D01*
X82942107Y-41182893D01*
X82766997Y-41039184D01*
X82567215Y-40932398D01*
X82350439Y-40866640D01*
X82181492Y-40850000D01*
X81818508Y-40850000D01*
X81649561Y-40866640D01*
X81432785Y-40932398D01*
X81233003Y-41039184D01*
X81057893Y-41182893D01*
X80914184Y-41358003D01*
X80807398Y-41557785D01*
X80741640Y-41774561D01*
X80719436Y-42000000D01*
X80741640Y-42225439D01*
X80807398Y-42442215D01*
X80914184Y-42641997D01*
X81057893Y-42817107D01*
X81233003Y-42960816D01*
X81432785Y-43067602D01*
X81649561Y-43133360D01*
X81818508Y-43150000D01*
X82181492Y-43150000D01*
X82350439Y-43133360D01*
X82354355Y-43132172D01*
X82650000Y-43427818D01*
X82650000Y-43481896D01*
X82588183Y-43447106D01*
X82373874Y-43376974D01*
X82150000Y-43350000D01*
X82025000Y-43350000D01*
X82025000Y-44475000D01*
X83199709Y-44475000D01*
X83223182Y-44401000D01*
X83316991Y-44494809D01*
X83334210Y-44515790D01*
X83355190Y-44533008D01*
X83355195Y-44533013D01*
X83417957Y-44584521D01*
X83469028Y-44611818D01*
X83513506Y-44635592D01*
X83617181Y-44667042D01*
X83636711Y-44668965D01*
X83645421Y-44679579D01*
X83721409Y-44741941D01*
X83736486Y-44750000D01*
X83721409Y-44758059D01*
X83645421Y-44820421D01*
X83583059Y-44896409D01*
X83536720Y-44983103D01*
X83508184Y-45077172D01*
X83498549Y-45175000D01*
X83498549Y-45575000D01*
X83508184Y-45672828D01*
X83536720Y-45766897D01*
X83583059Y-45853591D01*
X83645421Y-45929579D01*
X83721409Y-45991941D01*
X83808103Y-46038280D01*
X83902172Y-46066816D01*
X84000000Y-46076451D01*
X85200000Y-46076451D01*
X85297828Y-46066816D01*
X85391897Y-46038280D01*
X85478591Y-45991941D01*
X85554579Y-45929579D01*
X85558337Y-45925000D01*
X87297992Y-45925000D01*
X87325000Y-45927660D01*
X87352008Y-45925000D01*
X87352018Y-45925000D01*
X87432819Y-45917042D01*
X87536494Y-45885592D01*
X87632042Y-45834521D01*
X87643660Y-45824986D01*
X87694804Y-45783013D01*
X87715790Y-45765790D01*
X87733013Y-45744805D01*
X88369811Y-45108006D01*
X88390792Y-45090788D01*
X88408010Y-45069808D01*
X88408015Y-45069803D01*
X88459523Y-45007041D01*
X88508295Y-44915793D01*
X88510594Y-44911492D01*
X88542044Y-44807817D01*
X88550002Y-44727016D01*
X88550002Y-44727006D01*
X88552662Y-44699998D01*
X88550002Y-44672990D01*
X88550002Y-41427009D01*
X88552662Y-41400001D01*
X88550002Y-41372993D01*
X88550002Y-41372984D01*
X88542044Y-41292183D01*
X88510594Y-41188508D01*
X88472643Y-41117506D01*
X88459523Y-41092959D01*
X88408015Y-41030197D01*
X88408010Y-41030192D01*
X88390792Y-41009212D01*
X88369811Y-40991993D01*
X87983001Y-40605184D01*
X87965779Y-40584199D01*
X87882031Y-40515468D01*
X87786483Y-40464397D01*
X87682808Y-40432947D01*
X87616851Y-40426451D01*
X88750001Y-40426451D01*
X88857584Y-40415855D01*
X88961032Y-40384474D01*
X89056370Y-40333515D01*
X89139935Y-40264935D01*
X89208515Y-40181370D01*
X89259474Y-40086032D01*
X89290855Y-39982584D01*
X89301451Y-39875001D01*
X89301451Y-38274999D01*
X89290855Y-38167416D01*
X89259474Y-38063968D01*
X89208515Y-37968630D01*
X89139935Y-37885065D01*
X89056370Y-37816485D01*
X88961032Y-37765526D01*
X88857584Y-37734145D01*
X88750001Y-37723549D01*
X86249999Y-37723549D01*
X86142416Y-37734145D01*
X86038968Y-37765526D01*
X85943630Y-37816485D01*
X85860065Y-37885065D01*
X85791485Y-37968630D01*
X85740526Y-38063968D01*
X85709145Y-38167416D01*
X85698549Y-38274999D01*
X85698549Y-39875001D01*
X85703545Y-39925728D01*
X84908013Y-39130196D01*
X84890790Y-39109210D01*
X84807042Y-39040479D01*
X84711494Y-38989408D01*
X84607819Y-38957958D01*
X84527018Y-38950000D01*
X84527008Y-38950000D01*
X84500000Y-38947340D01*
X84472992Y-38950000D01*
X83134990Y-38950000D01*
X83085816Y-38858003D01*
X82942107Y-38682893D01*
X82766997Y-38539184D01*
X82567215Y-38432398D01*
X82350439Y-38366640D01*
X82181492Y-38350000D01*
X81818508Y-38350000D01*
X81649561Y-38366640D01*
X81432785Y-38432398D01*
X81233003Y-38539184D01*
X81057893Y-38682893D01*
X80914184Y-38858003D01*
X80807398Y-39057785D01*
X80741640Y-39274561D01*
X80719436Y-39500000D01*
X75276451Y-39500000D01*
X75276451Y-37999999D01*
X75265855Y-37892416D01*
X75234474Y-37788968D01*
X75183515Y-37693630D01*
X75114935Y-37610065D01*
X75031370Y-37541485D01*
X74936032Y-37490526D01*
X74832584Y-37459145D01*
X74725001Y-37448549D01*
X73124999Y-37448549D01*
X73017416Y-37459145D01*
X72913968Y-37490526D01*
X72818630Y-37541485D01*
X72735065Y-37610065D01*
X72666485Y-37693630D01*
X72615526Y-37788968D01*
X72584145Y-37892416D01*
X72573549Y-37999999D01*
X66426451Y-37999999D01*
X66415855Y-37892416D01*
X66384474Y-37788968D01*
X66333515Y-37693630D01*
X66264935Y-37610065D01*
X66181370Y-37541485D01*
X66086032Y-37490526D01*
X65982584Y-37459145D01*
X65875001Y-37448549D01*
X64274999Y-37448549D01*
X64167416Y-37459145D01*
X64063968Y-37490526D01*
X63968630Y-37541485D01*
X63885065Y-37610065D01*
X63816485Y-37693630D01*
X63765526Y-37788968D01*
X63734145Y-37892416D01*
X63723549Y-37999999D01*
X63151451Y-37999999D01*
X63140855Y-37892416D01*
X63109474Y-37788968D01*
X63058515Y-37693630D01*
X62989935Y-37610065D01*
X62906370Y-37541485D01*
X62811032Y-37490526D01*
X62707584Y-37459145D01*
X62600001Y-37448549D01*
X60999999Y-37448549D01*
X60892416Y-37459145D01*
X60788968Y-37490526D01*
X60693630Y-37541485D01*
X60610065Y-37610065D01*
X60541485Y-37693630D01*
X60490526Y-37788968D01*
X60459145Y-37892416D01*
X60448549Y-37999999D01*
X50551451Y-37999999D01*
X50540855Y-37892416D01*
X50509474Y-37788968D01*
X50458515Y-37693630D01*
X50389935Y-37610065D01*
X50306370Y-37541485D01*
X50211032Y-37490526D01*
X50107584Y-37459145D01*
X50000001Y-37448549D01*
X48399999Y-37448549D01*
X48292416Y-37459145D01*
X48188968Y-37490526D01*
X48093630Y-37541485D01*
X48010065Y-37610065D01*
X47941485Y-37693630D01*
X47890526Y-37788968D01*
X47859145Y-37892416D01*
X47848549Y-37999999D01*
X47400000Y-37999999D01*
X47400000Y-37990905D01*
X47376942Y-37874986D01*
X47331713Y-37765793D01*
X47266050Y-37667522D01*
X47182478Y-37583950D01*
X47084207Y-37518287D01*
X46975014Y-37473058D01*
X46859095Y-37450000D01*
X46740905Y-37450000D01*
X46624986Y-37473058D01*
X46515793Y-37518287D01*
X46417522Y-37583950D01*
X46333950Y-37667522D01*
X46268287Y-37765793D01*
X46223058Y-37874986D01*
X46200000Y-37990905D01*
X45402809Y-37990905D01*
X45422831Y-37786716D01*
X45484773Y-37581553D01*
X45585384Y-37392332D01*
X45720837Y-37226251D01*
X45885959Y-37089650D01*
X46074478Y-36987718D01*
X46279196Y-36924347D01*
X46510845Y-36900000D01*
X89600001Y-36900000D01*
X89600000Y-63100000D01*
G37*
%TD.AperFunction*%
D15*
X62000000Y-51740905D02*
X62000000Y-51859095D01*
X62023058Y-51975014D01*
X62068287Y-52084207D01*
X62133950Y-52182478D01*
X62217522Y-52266050D01*
X62315793Y-52331713D01*
X62424986Y-52376942D01*
X62540905Y-52400000D01*
X62659095Y-52400000D01*
X62775014Y-52376942D01*
X62884207Y-52331713D01*
X62982478Y-52266050D01*
X63066050Y-52182478D01*
X63067706Y-52180000D01*
X63142600Y-52180000D01*
X67787211Y-56824612D01*
X67771409Y-56833059D01*
X67695421Y-56895421D01*
X67633059Y-56971409D01*
X67625000Y-56986486D01*
X67616941Y-56971409D01*
X67554579Y-56895421D01*
X67478591Y-56833059D01*
X67391897Y-56786720D01*
X67380179Y-56783165D01*
X67380000Y-56781345D01*
X67380000Y-56781339D01*
X67374501Y-56725507D01*
X67352772Y-56653877D01*
X67317487Y-56587862D01*
X67270000Y-56530000D01*
X67255505Y-56518104D01*
X66581900Y-55844500D01*
X66570000Y-55830000D01*
X66512138Y-55782513D01*
X66446123Y-55747228D01*
X66374493Y-55725499D01*
X66318661Y-55720000D01*
X66318653Y-55720000D01*
X66300000Y-55718163D01*
X66281347Y-55720000D01*
X58818661Y-55720000D01*
X58800000Y-55718162D01*
X58781339Y-55720000D01*
X58725507Y-55725499D01*
X58653877Y-55747228D01*
X58587862Y-55782513D01*
X58530000Y-55830000D01*
X58518104Y-55844495D01*
X56352611Y-58009989D01*
X55414486Y-58009989D01*
X55431713Y-57984207D01*
X55476942Y-57875014D01*
X55500000Y-57759095D01*
X55500000Y-57640905D01*
X55476942Y-57524986D01*
X55431713Y-57415793D01*
X55366050Y-57317522D01*
X55282478Y-57233950D01*
X55280000Y-57232294D01*
X55280000Y-54557400D01*
X56614402Y-53222999D01*
X58925283Y-53222999D01*
X58924986Y-53223058D01*
X58815793Y-53268287D01*
X58717522Y-53333950D01*
X58633950Y-53417522D01*
X58568287Y-53515793D01*
X58523058Y-53624986D01*
X58500000Y-53740905D01*
X58500000Y-53859095D01*
X58523058Y-53975014D01*
X58568287Y-54084207D01*
X58633950Y-54182478D01*
X58717522Y-54266050D01*
X58815793Y-54331713D01*
X58924986Y-54376942D01*
X59040905Y-54400000D01*
X59159095Y-54400000D01*
X59275014Y-54376942D01*
X59384207Y-54331713D01*
X59482478Y-54266050D01*
X59566050Y-54182478D01*
X59631713Y-54084207D01*
X59676942Y-53975014D01*
X59700000Y-53859095D01*
X59700000Y-53740905D01*
X59676942Y-53624986D01*
X59631713Y-53515793D01*
X59566050Y-53417522D01*
X59482478Y-53333950D01*
X59384207Y-53268287D01*
X59275014Y-53223058D01*
X59274717Y-53222999D01*
X59538348Y-53222999D01*
X59557001Y-53224836D01*
X59575654Y-53222999D01*
X59575662Y-53222999D01*
X59631494Y-53217500D01*
X59703124Y-53195771D01*
X59769139Y-53160486D01*
X59827001Y-53112999D01*
X59838901Y-53098499D01*
X61062202Y-51875199D01*
X61062201Y-53900398D01*
X60042600Y-54920000D01*
X58467706Y-54920000D01*
X58466050Y-54917522D01*
X58398528Y-54850000D01*
X58466050Y-54782478D01*
X58531713Y-54684207D01*
X58576942Y-54575014D01*
X58600000Y-54459095D01*
X58600000Y-54340905D01*
X58576942Y-54224986D01*
X58531713Y-54115793D01*
X58466050Y-54017522D01*
X58382478Y-53933950D01*
X58284207Y-53868287D01*
X58175014Y-53823058D01*
X58059095Y-53800000D01*
X57940905Y-53800000D01*
X57824986Y-53823058D01*
X57715793Y-53868287D01*
X57617522Y-53933950D01*
X57533950Y-54017522D01*
X57468287Y-54115793D01*
X57423058Y-54224986D01*
X57400000Y-54340905D01*
X57400000Y-54459095D01*
X57423058Y-54575014D01*
X57468287Y-54684207D01*
X57533950Y-54782478D01*
X57601472Y-54850000D01*
X57533950Y-54917522D01*
X57468287Y-55015793D01*
X57423058Y-55124986D01*
X57400000Y-55240905D01*
X57400000Y-55359095D01*
X57423058Y-55475014D01*
X57468287Y-55584207D01*
X57533950Y-55682478D01*
X57617522Y-55766050D01*
X57715793Y-55831713D01*
X57824986Y-55876942D01*
X57940905Y-55900000D01*
X58059095Y-55900000D01*
X58175014Y-55876942D01*
X58284207Y-55831713D01*
X58382478Y-55766050D01*
X58466050Y-55682478D01*
X58467706Y-55680000D01*
X60181347Y-55680000D01*
X60200000Y-55681837D01*
X60218653Y-55680000D01*
X60218661Y-55680000D01*
X60274493Y-55674501D01*
X60346123Y-55652772D01*
X60412138Y-55617487D01*
X60470000Y-55570000D01*
X60481900Y-55555500D01*
X61697707Y-54339694D01*
X61712201Y-54327799D01*
X61759688Y-54269937D01*
X61794973Y-54203922D01*
X61816702Y-54132292D01*
X61822201Y-54076460D01*
X61822201Y-54076459D01*
X61824039Y-54057799D01*
X61822201Y-54039138D01*
X61822201Y-51915199D01*
X62000870Y-51736530D01*
X62000000Y-51740905D01*
%TA.AperFunction,Conductor*%
D16*
G36*
X62000000Y-51740905D02*
G01*
X62000000Y-51859095D01*
X62023058Y-51975014D01*
X62068287Y-52084207D01*
X62133950Y-52182478D01*
X62217522Y-52266050D01*
X62315793Y-52331713D01*
X62424986Y-52376942D01*
X62540905Y-52400000D01*
X62659095Y-52400000D01*
X62775014Y-52376942D01*
X62884207Y-52331713D01*
X62982478Y-52266050D01*
X63066050Y-52182478D01*
X63067706Y-52180000D01*
X63142600Y-52180000D01*
X67787211Y-56824612D01*
X67771409Y-56833059D01*
X67695421Y-56895421D01*
X67633059Y-56971409D01*
X67625000Y-56986486D01*
X67616941Y-56971409D01*
X67554579Y-56895421D01*
X67478591Y-56833059D01*
X67391897Y-56786720D01*
X67380179Y-56783165D01*
X67380000Y-56781345D01*
X67380000Y-56781339D01*
X67374501Y-56725507D01*
X67352772Y-56653877D01*
X67317487Y-56587862D01*
X67270000Y-56530000D01*
X67255505Y-56518104D01*
X66581900Y-55844500D01*
X66570000Y-55830000D01*
X66512138Y-55782513D01*
X66446123Y-55747228D01*
X66374493Y-55725499D01*
X66318661Y-55720000D01*
X66318653Y-55720000D01*
X66300000Y-55718163D01*
X66281347Y-55720000D01*
X58818661Y-55720000D01*
X58800000Y-55718162D01*
X58781339Y-55720000D01*
X58725507Y-55725499D01*
X58653877Y-55747228D01*
X58587862Y-55782513D01*
X58530000Y-55830000D01*
X58518104Y-55844495D01*
X56352611Y-58009989D01*
X55414486Y-58009989D01*
X55431713Y-57984207D01*
X55476942Y-57875014D01*
X55500000Y-57759095D01*
X55500000Y-57640905D01*
X55476942Y-57524986D01*
X55431713Y-57415793D01*
X55366050Y-57317522D01*
X55282478Y-57233950D01*
X55280000Y-57232294D01*
X55280000Y-54557400D01*
X56614402Y-53222999D01*
X58925283Y-53222999D01*
X58924986Y-53223058D01*
X58815793Y-53268287D01*
X58717522Y-53333950D01*
X58633950Y-53417522D01*
X58568287Y-53515793D01*
X58523058Y-53624986D01*
X58500000Y-53740905D01*
X58500000Y-53859095D01*
X58523058Y-53975014D01*
X58568287Y-54084207D01*
X58633950Y-54182478D01*
X58717522Y-54266050D01*
X58815793Y-54331713D01*
X58924986Y-54376942D01*
X59040905Y-54400000D01*
X59159095Y-54400000D01*
X59275014Y-54376942D01*
X59384207Y-54331713D01*
X59482478Y-54266050D01*
X59566050Y-54182478D01*
X59631713Y-54084207D01*
X59676942Y-53975014D01*
X59700000Y-53859095D01*
X59700000Y-53740905D01*
X59676942Y-53624986D01*
X59631713Y-53515793D01*
X59566050Y-53417522D01*
X59482478Y-53333950D01*
X59384207Y-53268287D01*
X59275014Y-53223058D01*
X59274717Y-53222999D01*
X59538348Y-53222999D01*
X59557001Y-53224836D01*
X59575654Y-53222999D01*
X59575662Y-53222999D01*
X59631494Y-53217500D01*
X59703124Y-53195771D01*
X59769139Y-53160486D01*
X59827001Y-53112999D01*
X59838901Y-53098499D01*
X61062202Y-51875199D01*
X61062201Y-53900398D01*
X60042600Y-54920000D01*
X58467706Y-54920000D01*
X58466050Y-54917522D01*
X58398528Y-54850000D01*
X58466050Y-54782478D01*
X58531713Y-54684207D01*
X58576942Y-54575014D01*
X58600000Y-54459095D01*
X58600000Y-54340905D01*
X58576942Y-54224986D01*
X58531713Y-54115793D01*
X58466050Y-54017522D01*
X58382478Y-53933950D01*
X58284207Y-53868287D01*
X58175014Y-53823058D01*
X58059095Y-53800000D01*
X57940905Y-53800000D01*
X57824986Y-53823058D01*
X57715793Y-53868287D01*
X57617522Y-53933950D01*
X57533950Y-54017522D01*
X57468287Y-54115793D01*
X57423058Y-54224986D01*
X57400000Y-54340905D01*
X57400000Y-54459095D01*
X57423058Y-54575014D01*
X57468287Y-54684207D01*
X57533950Y-54782478D01*
X57601472Y-54850000D01*
X57533950Y-54917522D01*
X57468287Y-55015793D01*
X57423058Y-55124986D01*
X57400000Y-55240905D01*
X57400000Y-55359095D01*
X57423058Y-55475014D01*
X57468287Y-55584207D01*
X57533950Y-55682478D01*
X57617522Y-55766050D01*
X57715793Y-55831713D01*
X57824986Y-55876942D01*
X57940905Y-55900000D01*
X58059095Y-55900000D01*
X58175014Y-55876942D01*
X58284207Y-55831713D01*
X58382478Y-55766050D01*
X58466050Y-55682478D01*
X58467706Y-55680000D01*
X60181347Y-55680000D01*
X60200000Y-55681837D01*
X60218653Y-55680000D01*
X60218661Y-55680000D01*
X60274493Y-55674501D01*
X60346123Y-55652772D01*
X60412138Y-55617487D01*
X60470000Y-55570000D01*
X60481900Y-55555500D01*
X61697707Y-54339694D01*
X61712201Y-54327799D01*
X61759688Y-54269937D01*
X61794973Y-54203922D01*
X61816702Y-54132292D01*
X61822201Y-54076460D01*
X61822201Y-54076459D01*
X61824039Y-54057799D01*
X61822201Y-54039138D01*
X61822201Y-51915199D01*
X62000870Y-51736530D01*
X62000000Y-51740905D01*
G37*
%TD.AperFunction*%
D15*
X53994495Y-40168104D02*
X53980001Y-40180000D01*
X53932514Y-40237862D01*
X53917580Y-40265803D01*
X53897228Y-40303878D01*
X53875499Y-40375508D01*
X53868163Y-40450000D01*
X53870001Y-40468663D01*
X53870001Y-41083111D01*
X53858103Y-41086720D01*
X53771409Y-41133059D01*
X53695421Y-41195421D01*
X53672482Y-41223372D01*
X53650648Y-41182522D01*
X53613159Y-41136841D01*
X53567478Y-41099352D01*
X53515361Y-41071495D01*
X53458810Y-41054340D01*
X53400000Y-41048548D01*
X53100000Y-41050000D01*
X53025000Y-41125000D01*
X53025000Y-42125000D01*
X53045000Y-42125000D01*
X53045000Y-42175000D01*
X53025000Y-42175000D01*
X53025000Y-43175000D01*
X53100000Y-43250000D01*
X53400000Y-43251452D01*
X53458810Y-43245660D01*
X53515361Y-43228505D01*
X53567478Y-43200648D01*
X53613159Y-43163159D01*
X53650648Y-43117478D01*
X53672482Y-43076628D01*
X53695421Y-43104579D01*
X53771409Y-43166941D01*
X53858103Y-43213280D01*
X53952172Y-43241816D01*
X54050000Y-43251451D01*
X54450000Y-43251451D01*
X54547828Y-43241816D01*
X54641897Y-43213280D01*
X54728591Y-43166941D01*
X54804579Y-43104579D01*
X54866941Y-43028591D01*
X54875000Y-43013514D01*
X54883059Y-43028591D01*
X54945421Y-43104579D01*
X55021409Y-43166941D01*
X55108103Y-43213280D01*
X55202172Y-43241816D01*
X55300000Y-43251451D01*
X55700000Y-43251451D01*
X55797828Y-43241816D01*
X55891897Y-43213280D01*
X55978591Y-43166941D01*
X56054579Y-43104579D01*
X56116941Y-43028591D01*
X56125000Y-43013514D01*
X56133059Y-43028591D01*
X56195421Y-43104579D01*
X56271409Y-43166941D01*
X56358103Y-43213280D01*
X56452172Y-43241816D01*
X56550000Y-43251451D01*
X56950000Y-43251451D01*
X57047828Y-43241816D01*
X57141897Y-43213280D01*
X57228591Y-43166941D01*
X57304579Y-43104579D01*
X57366941Y-43028591D01*
X57375000Y-43013514D01*
X57383059Y-43028591D01*
X57445421Y-43104579D01*
X57521409Y-43166941D01*
X57608103Y-43213280D01*
X57620000Y-43216889D01*
X57620000Y-43381346D01*
X57618163Y-43400000D01*
X57620000Y-43418653D01*
X57620000Y-43418660D01*
X57625499Y-43474492D01*
X57647228Y-43546122D01*
X57682513Y-43612137D01*
X57730000Y-43670000D01*
X57744500Y-43681900D01*
X58438108Y-44375510D01*
X58450000Y-44390000D01*
X58464489Y-44401891D01*
X58464494Y-44401896D01*
X58484549Y-44418354D01*
X58507862Y-44437487D01*
X58573877Y-44472772D01*
X58645507Y-44494501D01*
X58701339Y-44500000D01*
X58701346Y-44500000D01*
X58720000Y-44501837D01*
X58738654Y-44500000D01*
X69535022Y-44500000D01*
X69515783Y-44515789D01*
X69503259Y-44531050D01*
X67434309Y-46600000D01*
X67340899Y-46600000D01*
X67224980Y-46623058D01*
X67115787Y-46668287D01*
X67017516Y-46733950D01*
X66933944Y-46817522D01*
X66868281Y-46915793D01*
X66823052Y-47024986D01*
X66799994Y-47140905D01*
X66799994Y-47259095D01*
X66823052Y-47375014D01*
X66868281Y-47484207D01*
X66933944Y-47582478D01*
X66971466Y-47620000D01*
X66418653Y-47620000D01*
X66399999Y-47618163D01*
X66381345Y-47620000D01*
X66381339Y-47620000D01*
X66333169Y-47624744D01*
X66325506Y-47625499D01*
X66303777Y-47632091D01*
X66253877Y-47647228D01*
X66187862Y-47682513D01*
X66130000Y-47730000D01*
X66118104Y-47744495D01*
X64162018Y-49700581D01*
X64159095Y-49700000D01*
X64040905Y-49700000D01*
X63924986Y-49723058D01*
X63815793Y-49768287D01*
X63717522Y-49833950D01*
X63633950Y-49917522D01*
X63598884Y-49970001D01*
X62068653Y-49970001D01*
X62049999Y-49968164D01*
X62031345Y-49970001D01*
X62031338Y-49970001D01*
X61975506Y-49975500D01*
X61903876Y-49997229D01*
X61837861Y-50032514D01*
X61779999Y-50080001D01*
X61768103Y-50094496D01*
X59399601Y-52462999D01*
X56475655Y-52462999D01*
X56457001Y-52461162D01*
X56438347Y-52462999D01*
X56438340Y-52462999D01*
X56382508Y-52468498D01*
X56310878Y-52490227D01*
X56244863Y-52525512D01*
X56187001Y-52572999D01*
X56175105Y-52587494D01*
X54644500Y-54118100D01*
X54630000Y-54130000D01*
X54582513Y-54187863D01*
X54547228Y-54253878D01*
X54525499Y-54325508D01*
X54520000Y-54381340D01*
X54520000Y-54381347D01*
X54518163Y-54400000D01*
X54520000Y-54418654D01*
X54520001Y-57232294D01*
X54517522Y-57233950D01*
X54433950Y-57317522D01*
X54368287Y-57415793D01*
X54323058Y-57524986D01*
X54300000Y-57640905D01*
X54300000Y-57759095D01*
X54323058Y-57875014D01*
X54368287Y-57984207D01*
X54385514Y-58009989D01*
X51447390Y-58009989D01*
X50080000Y-56642600D01*
X50080000Y-52828443D01*
X50335000Y-52828443D01*
X50335000Y-52951557D01*
X50359019Y-53072306D01*
X50406132Y-53186048D01*
X50474531Y-53288414D01*
X50561586Y-53375469D01*
X50663952Y-53443868D01*
X50777694Y-53490981D01*
X50898443Y-53515000D01*
X51021557Y-53515000D01*
X51142306Y-53490981D01*
X51256048Y-53443868D01*
X51358414Y-53375469D01*
X51445469Y-53288414D01*
X51513868Y-53186048D01*
X51560981Y-53072306D01*
X51585000Y-52951557D01*
X51585000Y-52828443D01*
X51560981Y-52707694D01*
X51513868Y-52593952D01*
X51445469Y-52491586D01*
X51358414Y-52404531D01*
X51256048Y-52336132D01*
X51142306Y-52289019D01*
X51021557Y-52265000D01*
X50898443Y-52265000D01*
X50777694Y-52289019D01*
X50663952Y-52336132D01*
X50561586Y-52404531D01*
X50474531Y-52491586D01*
X50406132Y-52593952D01*
X50359019Y-52707694D01*
X50335000Y-52828443D01*
X50080000Y-52828443D01*
X50080000Y-51040905D01*
X53700008Y-51040905D01*
X53700008Y-51159095D01*
X53723066Y-51275014D01*
X53768295Y-51384207D01*
X53833958Y-51482478D01*
X53917530Y-51566050D01*
X54015801Y-51631713D01*
X54124994Y-51676942D01*
X54240913Y-51700000D01*
X54359103Y-51700000D01*
X54475022Y-51676942D01*
X54584215Y-51631713D01*
X54682486Y-51566050D01*
X54766058Y-51482478D01*
X54831721Y-51384207D01*
X54876950Y-51275014D01*
X54900008Y-51159095D01*
X54900008Y-51040905D01*
X54876950Y-50924986D01*
X54831721Y-50815793D01*
X54766058Y-50717522D01*
X54682486Y-50633950D01*
X54584215Y-50568287D01*
X54475022Y-50523058D01*
X54359103Y-50500000D01*
X54240913Y-50500000D01*
X54124994Y-50523058D01*
X54015801Y-50568287D01*
X53917530Y-50633950D01*
X53833958Y-50717522D01*
X53768295Y-50815793D01*
X53723066Y-50924986D01*
X53700008Y-51040905D01*
X50080000Y-51040905D01*
X50080000Y-47048443D01*
X50335000Y-47048443D01*
X50335000Y-47171557D01*
X50359019Y-47292306D01*
X50406132Y-47406048D01*
X50474531Y-47508414D01*
X50561586Y-47595469D01*
X50663952Y-47663868D01*
X50777694Y-47710981D01*
X50898443Y-47735000D01*
X51021557Y-47735000D01*
X51142306Y-47710981D01*
X51256048Y-47663868D01*
X51358414Y-47595469D01*
X51445469Y-47508414D01*
X51513868Y-47406048D01*
X51560981Y-47292306D01*
X51585000Y-47171557D01*
X51585000Y-47048443D01*
X51560981Y-46927694D01*
X51513868Y-46813952D01*
X51445469Y-46711586D01*
X51358414Y-46624531D01*
X51256048Y-46556132D01*
X51142306Y-46509019D01*
X51021557Y-46485000D01*
X50898443Y-46485000D01*
X50777694Y-46509019D01*
X50663952Y-46556132D01*
X50561586Y-46624531D01*
X50474531Y-46711586D01*
X50406132Y-46813952D01*
X50359019Y-46927694D01*
X50335000Y-47048443D01*
X50080000Y-47048443D01*
X50080000Y-42657400D01*
X51048549Y-41688852D01*
X51048549Y-42750000D01*
X51058184Y-42847828D01*
X51086720Y-42941897D01*
X51133059Y-43028591D01*
X51195421Y-43104579D01*
X51200001Y-43108337D01*
X51200001Y-43872982D01*
X51197340Y-43900000D01*
X51207959Y-44007818D01*
X51239409Y-44111494D01*
X51290479Y-44207042D01*
X51341987Y-44269804D01*
X51341993Y-44269810D01*
X51359211Y-44290790D01*
X51380191Y-44308008D01*
X52741345Y-45669163D01*
X52768287Y-45734207D01*
X52833950Y-45832478D01*
X52917522Y-45916050D01*
X53015793Y-45981713D01*
X53124986Y-46026942D01*
X53240905Y-46050000D01*
X53359095Y-46050000D01*
X53475014Y-46026942D01*
X53584207Y-45981713D01*
X53682478Y-45916050D01*
X53766050Y-45832478D01*
X53831713Y-45734207D01*
X53876942Y-45625014D01*
X53900000Y-45509095D01*
X53900000Y-45390905D01*
X53876942Y-45274986D01*
X53831713Y-45165793D01*
X53815084Y-45140905D01*
X57800000Y-45140905D01*
X57800000Y-45259095D01*
X57823058Y-45375014D01*
X57868287Y-45484207D01*
X57933950Y-45582478D01*
X58017522Y-45666050D01*
X58115793Y-45731713D01*
X58224986Y-45776942D01*
X58340905Y-45800000D01*
X58459095Y-45800000D01*
X58575014Y-45776942D01*
X58684207Y-45731713D01*
X58782478Y-45666050D01*
X58866050Y-45582478D01*
X58931713Y-45484207D01*
X58976942Y-45375014D01*
X59000000Y-45259095D01*
X59000000Y-45140905D01*
X58976942Y-45024986D01*
X58931713Y-44915793D01*
X58866050Y-44817522D01*
X58782478Y-44733950D01*
X58684207Y-44668287D01*
X58575014Y-44623058D01*
X58459095Y-44600000D01*
X58340905Y-44600000D01*
X58224986Y-44623058D01*
X58115793Y-44668287D01*
X58017522Y-44733950D01*
X57933950Y-44817522D01*
X57868287Y-44915793D01*
X57823058Y-45024986D01*
X57800000Y-45140905D01*
X53815084Y-45140905D01*
X53766050Y-45067522D01*
X53682478Y-44983950D01*
X53584207Y-44918287D01*
X53519163Y-44891345D01*
X52300000Y-43672183D01*
X52300000Y-43108337D01*
X52304579Y-43104579D01*
X52327518Y-43076628D01*
X52349352Y-43117478D01*
X52386841Y-43163159D01*
X52432522Y-43200648D01*
X52484639Y-43228505D01*
X52541190Y-43245660D01*
X52600000Y-43251452D01*
X52900000Y-43250000D01*
X52975000Y-43175000D01*
X52975000Y-42175000D01*
X52955000Y-42175000D01*
X52955000Y-42125000D01*
X52975000Y-42125000D01*
X52975000Y-41125000D01*
X52900000Y-41050000D01*
X52600000Y-41048548D01*
X52541190Y-41054340D01*
X52484639Y-41071495D01*
X52432522Y-41099352D01*
X52386841Y-41136841D01*
X52349352Y-41182522D01*
X52327518Y-41223372D01*
X52304579Y-41195421D01*
X52228591Y-41133059D01*
X52141897Y-41086720D01*
X52047828Y-41058184D01*
X51950000Y-41048549D01*
X51688852Y-41048549D01*
X52857402Y-39880000D01*
X54282599Y-39880000D01*
X53994495Y-40168104D01*
%TA.AperFunction,Conductor*%
D16*
G36*
X53994495Y-40168104D02*
G01*
X53980001Y-40180000D01*
X53932514Y-40237862D01*
X53917580Y-40265803D01*
X53897228Y-40303878D01*
X53875499Y-40375508D01*
X53868163Y-40450000D01*
X53870001Y-40468663D01*
X53870001Y-41083111D01*
X53858103Y-41086720D01*
X53771409Y-41133059D01*
X53695421Y-41195421D01*
X53672482Y-41223372D01*
X53650648Y-41182522D01*
X53613159Y-41136841D01*
X53567478Y-41099352D01*
X53515361Y-41071495D01*
X53458810Y-41054340D01*
X53400000Y-41048548D01*
X53100000Y-41050000D01*
X53025000Y-41125000D01*
X53025000Y-42125000D01*
X53045000Y-42125000D01*
X53045000Y-42175000D01*
X53025000Y-42175000D01*
X53025000Y-43175000D01*
X53100000Y-43250000D01*
X53400000Y-43251452D01*
X53458810Y-43245660D01*
X53515361Y-43228505D01*
X53567478Y-43200648D01*
X53613159Y-43163159D01*
X53650648Y-43117478D01*
X53672482Y-43076628D01*
X53695421Y-43104579D01*
X53771409Y-43166941D01*
X53858103Y-43213280D01*
X53952172Y-43241816D01*
X54050000Y-43251451D01*
X54450000Y-43251451D01*
X54547828Y-43241816D01*
X54641897Y-43213280D01*
X54728591Y-43166941D01*
X54804579Y-43104579D01*
X54866941Y-43028591D01*
X54875000Y-43013514D01*
X54883059Y-43028591D01*
X54945421Y-43104579D01*
X55021409Y-43166941D01*
X55108103Y-43213280D01*
X55202172Y-43241816D01*
X55300000Y-43251451D01*
X55700000Y-43251451D01*
X55797828Y-43241816D01*
X55891897Y-43213280D01*
X55978591Y-43166941D01*
X56054579Y-43104579D01*
X56116941Y-43028591D01*
X56125000Y-43013514D01*
X56133059Y-43028591D01*
X56195421Y-43104579D01*
X56271409Y-43166941D01*
X56358103Y-43213280D01*
X56452172Y-43241816D01*
X56550000Y-43251451D01*
X56950000Y-43251451D01*
X57047828Y-43241816D01*
X57141897Y-43213280D01*
X57228591Y-43166941D01*
X57304579Y-43104579D01*
X57366941Y-43028591D01*
X57375000Y-43013514D01*
X57383059Y-43028591D01*
X57445421Y-43104579D01*
X57521409Y-43166941D01*
X57608103Y-43213280D01*
X57620000Y-43216889D01*
X57620000Y-43381346D01*
X57618163Y-43400000D01*
X57620000Y-43418653D01*
X57620000Y-43418660D01*
X57625499Y-43474492D01*
X57647228Y-43546122D01*
X57682513Y-43612137D01*
X57730000Y-43670000D01*
X57744500Y-43681900D01*
X58438108Y-44375510D01*
X58450000Y-44390000D01*
X58464489Y-44401891D01*
X58464494Y-44401896D01*
X58484549Y-44418354D01*
X58507862Y-44437487D01*
X58573877Y-44472772D01*
X58645507Y-44494501D01*
X58701339Y-44500000D01*
X58701346Y-44500000D01*
X58720000Y-44501837D01*
X58738654Y-44500000D01*
X69535022Y-44500000D01*
X69515783Y-44515789D01*
X69503259Y-44531050D01*
X67434309Y-46600000D01*
X67340899Y-46600000D01*
X67224980Y-46623058D01*
X67115787Y-46668287D01*
X67017516Y-46733950D01*
X66933944Y-46817522D01*
X66868281Y-46915793D01*
X66823052Y-47024986D01*
X66799994Y-47140905D01*
X66799994Y-47259095D01*
X66823052Y-47375014D01*
X66868281Y-47484207D01*
X66933944Y-47582478D01*
X66971466Y-47620000D01*
X66418653Y-47620000D01*
X66399999Y-47618163D01*
X66381345Y-47620000D01*
X66381339Y-47620000D01*
X66333169Y-47624744D01*
X66325506Y-47625499D01*
X66303777Y-47632091D01*
X66253877Y-47647228D01*
X66187862Y-47682513D01*
X66130000Y-47730000D01*
X66118104Y-47744495D01*
X64162018Y-49700581D01*
X64159095Y-49700000D01*
X64040905Y-49700000D01*
X63924986Y-49723058D01*
X63815793Y-49768287D01*
X63717522Y-49833950D01*
X63633950Y-49917522D01*
X63598884Y-49970001D01*
X62068653Y-49970001D01*
X62049999Y-49968164D01*
X62031345Y-49970001D01*
X62031338Y-49970001D01*
X61975506Y-49975500D01*
X61903876Y-49997229D01*
X61837861Y-50032514D01*
X61779999Y-50080001D01*
X61768103Y-50094496D01*
X59399601Y-52462999D01*
X56475655Y-52462999D01*
X56457001Y-52461162D01*
X56438347Y-52462999D01*
X56438340Y-52462999D01*
X56382508Y-52468498D01*
X56310878Y-52490227D01*
X56244863Y-52525512D01*
X56187001Y-52572999D01*
X56175105Y-52587494D01*
X54644500Y-54118100D01*
X54630000Y-54130000D01*
X54582513Y-54187863D01*
X54547228Y-54253878D01*
X54525499Y-54325508D01*
X54520000Y-54381340D01*
X54520000Y-54381347D01*
X54518163Y-54400000D01*
X54520000Y-54418654D01*
X54520001Y-57232294D01*
X54517522Y-57233950D01*
X54433950Y-57317522D01*
X54368287Y-57415793D01*
X54323058Y-57524986D01*
X54300000Y-57640905D01*
X54300000Y-57759095D01*
X54323058Y-57875014D01*
X54368287Y-57984207D01*
X54385514Y-58009989D01*
X51447390Y-58009989D01*
X50080000Y-56642600D01*
X50080000Y-52828443D01*
X50335000Y-52828443D01*
X50335000Y-52951557D01*
X50359019Y-53072306D01*
X50406132Y-53186048D01*
X50474531Y-53288414D01*
X50561586Y-53375469D01*
X50663952Y-53443868D01*
X50777694Y-53490981D01*
X50898443Y-53515000D01*
X51021557Y-53515000D01*
X51142306Y-53490981D01*
X51256048Y-53443868D01*
X51358414Y-53375469D01*
X51445469Y-53288414D01*
X51513868Y-53186048D01*
X51560981Y-53072306D01*
X51585000Y-52951557D01*
X51585000Y-52828443D01*
X51560981Y-52707694D01*
X51513868Y-52593952D01*
X51445469Y-52491586D01*
X51358414Y-52404531D01*
X51256048Y-52336132D01*
X51142306Y-52289019D01*
X51021557Y-52265000D01*
X50898443Y-52265000D01*
X50777694Y-52289019D01*
X50663952Y-52336132D01*
X50561586Y-52404531D01*
X50474531Y-52491586D01*
X50406132Y-52593952D01*
X50359019Y-52707694D01*
X50335000Y-52828443D01*
X50080000Y-52828443D01*
X50080000Y-51040905D01*
X53700008Y-51040905D01*
X53700008Y-51159095D01*
X53723066Y-51275014D01*
X53768295Y-51384207D01*
X53833958Y-51482478D01*
X53917530Y-51566050D01*
X54015801Y-51631713D01*
X54124994Y-51676942D01*
X54240913Y-51700000D01*
X54359103Y-51700000D01*
X54475022Y-51676942D01*
X54584215Y-51631713D01*
X54682486Y-51566050D01*
X54766058Y-51482478D01*
X54831721Y-51384207D01*
X54876950Y-51275014D01*
X54900008Y-51159095D01*
X54900008Y-51040905D01*
X54876950Y-50924986D01*
X54831721Y-50815793D01*
X54766058Y-50717522D01*
X54682486Y-50633950D01*
X54584215Y-50568287D01*
X54475022Y-50523058D01*
X54359103Y-50500000D01*
X54240913Y-50500000D01*
X54124994Y-50523058D01*
X54015801Y-50568287D01*
X53917530Y-50633950D01*
X53833958Y-50717522D01*
X53768295Y-50815793D01*
X53723066Y-50924986D01*
X53700008Y-51040905D01*
X50080000Y-51040905D01*
X50080000Y-47048443D01*
X50335000Y-47048443D01*
X50335000Y-47171557D01*
X50359019Y-47292306D01*
X50406132Y-47406048D01*
X50474531Y-47508414D01*
X50561586Y-47595469D01*
X50663952Y-47663868D01*
X50777694Y-47710981D01*
X50898443Y-47735000D01*
X51021557Y-47735000D01*
X51142306Y-47710981D01*
X51256048Y-47663868D01*
X51358414Y-47595469D01*
X51445469Y-47508414D01*
X51513868Y-47406048D01*
X51560981Y-47292306D01*
X51585000Y-47171557D01*
X51585000Y-47048443D01*
X51560981Y-46927694D01*
X51513868Y-46813952D01*
X51445469Y-46711586D01*
X51358414Y-46624531D01*
X51256048Y-46556132D01*
X51142306Y-46509019D01*
X51021557Y-46485000D01*
X50898443Y-46485000D01*
X50777694Y-46509019D01*
X50663952Y-46556132D01*
X50561586Y-46624531D01*
X50474531Y-46711586D01*
X50406132Y-46813952D01*
X50359019Y-46927694D01*
X50335000Y-47048443D01*
X50080000Y-47048443D01*
X50080000Y-42657400D01*
X51048549Y-41688852D01*
X51048549Y-42750000D01*
X51058184Y-42847828D01*
X51086720Y-42941897D01*
X51133059Y-43028591D01*
X51195421Y-43104579D01*
X51200001Y-43108337D01*
X51200001Y-43872982D01*
X51197340Y-43900000D01*
X51207959Y-44007818D01*
X51239409Y-44111494D01*
X51290479Y-44207042D01*
X51341987Y-44269804D01*
X51341993Y-44269810D01*
X51359211Y-44290790D01*
X51380191Y-44308008D01*
X52741345Y-45669163D01*
X52768287Y-45734207D01*
X52833950Y-45832478D01*
X52917522Y-45916050D01*
X53015793Y-45981713D01*
X53124986Y-46026942D01*
X53240905Y-46050000D01*
X53359095Y-46050000D01*
X53475014Y-46026942D01*
X53584207Y-45981713D01*
X53682478Y-45916050D01*
X53766050Y-45832478D01*
X53831713Y-45734207D01*
X53876942Y-45625014D01*
X53900000Y-45509095D01*
X53900000Y-45390905D01*
X53876942Y-45274986D01*
X53831713Y-45165793D01*
X53815084Y-45140905D01*
X57800000Y-45140905D01*
X57800000Y-45259095D01*
X57823058Y-45375014D01*
X57868287Y-45484207D01*
X57933950Y-45582478D01*
X58017522Y-45666050D01*
X58115793Y-45731713D01*
X58224986Y-45776942D01*
X58340905Y-45800000D01*
X58459095Y-45800000D01*
X58575014Y-45776942D01*
X58684207Y-45731713D01*
X58782478Y-45666050D01*
X58866050Y-45582478D01*
X58931713Y-45484207D01*
X58976942Y-45375014D01*
X59000000Y-45259095D01*
X59000000Y-45140905D01*
X58976942Y-45024986D01*
X58931713Y-44915793D01*
X58866050Y-44817522D01*
X58782478Y-44733950D01*
X58684207Y-44668287D01*
X58575014Y-44623058D01*
X58459095Y-44600000D01*
X58340905Y-44600000D01*
X58224986Y-44623058D01*
X58115793Y-44668287D01*
X58017522Y-44733950D01*
X57933950Y-44817522D01*
X57868287Y-44915793D01*
X57823058Y-45024986D01*
X57800000Y-45140905D01*
X53815084Y-45140905D01*
X53766050Y-45067522D01*
X53682478Y-44983950D01*
X53584207Y-44918287D01*
X53519163Y-44891345D01*
X52300000Y-43672183D01*
X52300000Y-43108337D01*
X52304579Y-43104579D01*
X52327518Y-43076628D01*
X52349352Y-43117478D01*
X52386841Y-43163159D01*
X52432522Y-43200648D01*
X52484639Y-43228505D01*
X52541190Y-43245660D01*
X52600000Y-43251452D01*
X52900000Y-43250000D01*
X52975000Y-43175000D01*
X52975000Y-42175000D01*
X52955000Y-42175000D01*
X52955000Y-42125000D01*
X52975000Y-42125000D01*
X52975000Y-41125000D01*
X52900000Y-41050000D01*
X52600000Y-41048548D01*
X52541190Y-41054340D01*
X52484639Y-41071495D01*
X52432522Y-41099352D01*
X52386841Y-41136841D01*
X52349352Y-41182522D01*
X52327518Y-41223372D01*
X52304579Y-41195421D01*
X52228591Y-41133059D01*
X52141897Y-41086720D01*
X52047828Y-41058184D01*
X51950000Y-41048549D01*
X51688852Y-41048549D01*
X52857402Y-39880000D01*
X54282599Y-39880000D01*
X53994495Y-40168104D01*
G37*
%TD.AperFunction*%
D15*
X86541345Y-42819163D02*
X86568287Y-42884207D01*
X86633950Y-42982478D01*
X86717522Y-43066050D01*
X86815793Y-43131713D01*
X86924986Y-43176942D01*
X87040905Y-43200000D01*
X87159095Y-43200000D01*
X87275014Y-43176942D01*
X87384207Y-43131713D01*
X87450002Y-43087750D01*
X87450002Y-44472180D01*
X87097183Y-44825000D01*
X85558337Y-44825000D01*
X85554579Y-44820421D01*
X85478591Y-44758059D01*
X85463514Y-44750000D01*
X85478591Y-44741941D01*
X85554579Y-44679579D01*
X85616941Y-44603591D01*
X85663280Y-44516897D01*
X85691816Y-44422828D01*
X85701451Y-44325000D01*
X85701451Y-43925000D01*
X85691816Y-43827172D01*
X85663280Y-43733103D01*
X85616941Y-43646409D01*
X85554579Y-43570421D01*
X85526628Y-43547482D01*
X85567478Y-43525648D01*
X85613159Y-43488159D01*
X85650648Y-43442478D01*
X85678505Y-43390361D01*
X85695660Y-43333810D01*
X85701452Y-43275000D01*
X85700000Y-42975000D01*
X85625000Y-42900000D01*
X84625000Y-42900000D01*
X84625000Y-42920000D01*
X84575000Y-42920000D01*
X84575000Y-42900000D01*
X84555000Y-42900000D01*
X84555000Y-42850000D01*
X84575000Y-42850000D01*
X84575000Y-42830000D01*
X84625000Y-42830000D01*
X84625000Y-42850000D01*
X85625000Y-42850000D01*
X85700000Y-42775000D01*
X85701452Y-42475000D01*
X85695660Y-42416190D01*
X85678505Y-42359639D01*
X85650648Y-42307522D01*
X85613159Y-42261841D01*
X85567478Y-42224352D01*
X85526628Y-42202518D01*
X85554579Y-42179579D01*
X85558337Y-42175000D01*
X85897183Y-42175000D01*
X86541345Y-42819163D01*
%TA.AperFunction,Conductor*%
D16*
G36*
X86541345Y-42819163D02*
G01*
X86568287Y-42884207D01*
X86633950Y-42982478D01*
X86717522Y-43066050D01*
X86815793Y-43131713D01*
X86924986Y-43176942D01*
X87040905Y-43200000D01*
X87159095Y-43200000D01*
X87275014Y-43176942D01*
X87384207Y-43131713D01*
X87450002Y-43087750D01*
X87450002Y-44472180D01*
X87097183Y-44825000D01*
X85558337Y-44825000D01*
X85554579Y-44820421D01*
X85478591Y-44758059D01*
X85463514Y-44750000D01*
X85478591Y-44741941D01*
X85554579Y-44679579D01*
X85616941Y-44603591D01*
X85663280Y-44516897D01*
X85691816Y-44422828D01*
X85701451Y-44325000D01*
X85701451Y-43925000D01*
X85691816Y-43827172D01*
X85663280Y-43733103D01*
X85616941Y-43646409D01*
X85554579Y-43570421D01*
X85526628Y-43547482D01*
X85567478Y-43525648D01*
X85613159Y-43488159D01*
X85650648Y-43442478D01*
X85678505Y-43390361D01*
X85695660Y-43333810D01*
X85701452Y-43275000D01*
X85700000Y-42975000D01*
X85625000Y-42900000D01*
X84625000Y-42900000D01*
X84625000Y-42920000D01*
X84575000Y-42920000D01*
X84575000Y-42900000D01*
X84555000Y-42900000D01*
X84555000Y-42850000D01*
X84575000Y-42850000D01*
X84575000Y-42830000D01*
X84625000Y-42830000D01*
X84625000Y-42850000D01*
X85625000Y-42850000D01*
X85700000Y-42775000D01*
X85701452Y-42475000D01*
X85695660Y-42416190D01*
X85678505Y-42359639D01*
X85650648Y-42307522D01*
X85613159Y-42261841D01*
X85567478Y-42224352D01*
X85526628Y-42202518D01*
X85554579Y-42179579D01*
X85558337Y-42175000D01*
X85897183Y-42175000D01*
X86541345Y-42819163D01*
G37*
%TD.AperFunction*%
%TD*%
M02*
