M48
;DRILL file {KiCad (2015-10-14 BZR 6267)-product} date 2015 October 25, Sunday 21:22:28
;FORMAT={-:-/ absolute / metric / decimal}
FMAT,2
METRIC,TZ
T1C0.400
T2C0.500
%
G90
G05
M71
T1
X47.142Y-40.059
X47.25Y-51.75
X50.5Y-51.75
X51.25Y-43.
X52.75Y-46.5
X54.75Y-51.75
X55.778Y-40.972
X56.7Y-45.5
X56.77Y-40.85
X57.265Y-43.79
X58.25Y-44.
X59.5Y-44.
X60.25Y-48.25
X60.4Y-45.7
X60.5Y-44.5
X61.5Y-49.
X62.Y-47.25
X62.5Y-51.
X64.5Y-45.25
X64.582Y-48.979
X67.5Y-47.25
X68.75Y-44.5
X72.Y-46.75
X73.Y-46.75
T2
X50.5Y-48.75
X51.Y-39.75
X51.Y-46.5
X53.Y-39.75
X53.25Y-47.75
X53.489Y-49.533
X54.Y-38.25
X54.25Y-41.986
X54.5Y-40.25
X56.25Y-48.
X63.5Y-39.25
X64.25Y-41.05
X65.25Y-38.5
X65.5Y-48.25
X69.5Y-50.078
X69.5Y-39.75
X70.25Y-41.75
X70.601Y-51.601
X70.75Y-39.75
X72.Y-39.75
X72.Y-44.5
X73.25Y-39.75
X73.75Y-44.5
X73.75Y-49.
T2
X46.85Y-41.7G85X46.15Y-41.7
G05
X46.85Y-48.3G85X46.15Y-48.3
G05
T0
M30
