%TF.GenerationSoftware,KiCad,Pcbnew,5.1.9*%
%TF.CreationDate,2021-03-09T21:57:36+01:00*%
%TF.ProjectId,can-usb-dongle,63616e2d-7573-4622-9d64-6f6e676c652e,rev?*%
%TF.SameCoordinates,Original*%
%TF.FileFunction,Paste,Bot*%
%TF.FilePolarity,Positive*%
%FSLAX46Y46*%
G04 Gerber Fmt 4.6, Leading zero omitted, Abs format (unit mm)*
G04 Created by KiCad (PCBNEW 5.1.9) date 2021-03-09 21:57:36*
%MOMM*%
%LPD*%
G01*
G04 APERTURE LIST*
G04 APERTURE END LIST*
%TO.C,J4*%
G36*
G01*
X86374999Y-46980000D02*
X88625001Y-46980000D01*
G75*
G02*
X88850000Y-47204999I0J-224999D01*
G01*
X88850000Y-48645001D01*
G75*
G02*
X88625001Y-48870000I-224999J0D01*
G01*
X86374999Y-48870000D01*
G75*
G02*
X86150000Y-48645001I0J224999D01*
G01*
X86150000Y-47204999D01*
G75*
G02*
X86374999Y-46980000I224999J0D01*
G01*
G37*
G36*
G01*
X86374999Y-38130000D02*
X88625001Y-38130000D01*
G75*
G02*
X88850000Y-38354999I0J-224999D01*
G01*
X88850000Y-39795001D01*
G75*
G02*
X88625001Y-40020000I-224999J0D01*
G01*
X86374999Y-40020000D01*
G75*
G02*
X86150000Y-39795001I0J224999D01*
G01*
X86150000Y-38354999D01*
G75*
G02*
X86374999Y-38130000I224999J0D01*
G01*
G37*
G36*
G01*
X84060000Y-45015000D02*
X85140000Y-45015000D01*
G75*
G02*
X85320000Y-45195000I0J-180000D01*
G01*
X85320000Y-45555000D01*
G75*
G02*
X85140000Y-45735000I-180000J0D01*
G01*
X84060000Y-45735000D01*
G75*
G02*
X83880000Y-45555000I0J180000D01*
G01*
X83880000Y-45195000D01*
G75*
G02*
X84060000Y-45015000I180000J0D01*
G01*
G37*
G36*
G01*
X84060000Y-43765000D02*
X85140000Y-43765000D01*
G75*
G02*
X85320000Y-43945000I0J-180000D01*
G01*
X85320000Y-44305000D01*
G75*
G02*
X85140000Y-44485000I-180000J0D01*
G01*
X84060000Y-44485000D01*
G75*
G02*
X83880000Y-44305000I0J180000D01*
G01*
X83880000Y-43945000D01*
G75*
G02*
X84060000Y-43765000I180000J0D01*
G01*
G37*
G36*
G01*
X84060000Y-42515000D02*
X85140000Y-42515000D01*
G75*
G02*
X85320000Y-42695000I0J-180000D01*
G01*
X85320000Y-43055000D01*
G75*
G02*
X85140000Y-43235000I-180000J0D01*
G01*
X84060000Y-43235000D01*
G75*
G02*
X83880000Y-43055000I0J180000D01*
G01*
X83880000Y-42695000D01*
G75*
G02*
X84060000Y-42515000I180000J0D01*
G01*
G37*
G36*
G01*
X84060000Y-41265000D02*
X85140000Y-41265000D01*
G75*
G02*
X85320000Y-41445000I0J-180000D01*
G01*
X85320000Y-41805000D01*
G75*
G02*
X85140000Y-41985000I-180000J0D01*
G01*
X84060000Y-41985000D01*
G75*
G02*
X83880000Y-41805000I0J180000D01*
G01*
X83880000Y-41445000D01*
G75*
G02*
X84060000Y-41265000I180000J0D01*
G01*
G37*
%TD*%
%TO.C,J5*%
G36*
G01*
X84060000Y-54265000D02*
X85140000Y-54265000D01*
G75*
G02*
X85320000Y-54445000I0J-180000D01*
G01*
X85320000Y-54805000D01*
G75*
G02*
X85140000Y-54985000I-180000J0D01*
G01*
X84060000Y-54985000D01*
G75*
G02*
X83880000Y-54805000I0J180000D01*
G01*
X83880000Y-54445000D01*
G75*
G02*
X84060000Y-54265000I180000J0D01*
G01*
G37*
G36*
G01*
X84060000Y-55515000D02*
X85140000Y-55515000D01*
G75*
G02*
X85320000Y-55695000I0J-180000D01*
G01*
X85320000Y-56055000D01*
G75*
G02*
X85140000Y-56235000I-180000J0D01*
G01*
X84060000Y-56235000D01*
G75*
G02*
X83880000Y-56055000I0J180000D01*
G01*
X83880000Y-55695000D01*
G75*
G02*
X84060000Y-55515000I180000J0D01*
G01*
G37*
G36*
G01*
X84060000Y-56765000D02*
X85140000Y-56765000D01*
G75*
G02*
X85320000Y-56945000I0J-180000D01*
G01*
X85320000Y-57305000D01*
G75*
G02*
X85140000Y-57485000I-180000J0D01*
G01*
X84060000Y-57485000D01*
G75*
G02*
X83880000Y-57305000I0J180000D01*
G01*
X83880000Y-56945000D01*
G75*
G02*
X84060000Y-56765000I180000J0D01*
G01*
G37*
G36*
G01*
X84060000Y-58015000D02*
X85140000Y-58015000D01*
G75*
G02*
X85320000Y-58195000I0J-180000D01*
G01*
X85320000Y-58555000D01*
G75*
G02*
X85140000Y-58735000I-180000J0D01*
G01*
X84060000Y-58735000D01*
G75*
G02*
X83880000Y-58555000I0J180000D01*
G01*
X83880000Y-58195000D01*
G75*
G02*
X84060000Y-58015000I180000J0D01*
G01*
G37*
G36*
G01*
X86374999Y-51130000D02*
X88625001Y-51130000D01*
G75*
G02*
X88850000Y-51354999I0J-224999D01*
G01*
X88850000Y-52795001D01*
G75*
G02*
X88625001Y-53020000I-224999J0D01*
G01*
X86374999Y-53020000D01*
G75*
G02*
X86150000Y-52795001I0J224999D01*
G01*
X86150000Y-51354999D01*
G75*
G02*
X86374999Y-51130000I224999J0D01*
G01*
G37*
G36*
G01*
X86374999Y-59980000D02*
X88625001Y-59980000D01*
G75*
G02*
X88850000Y-60204999I0J-224999D01*
G01*
X88850000Y-61645001D01*
G75*
G02*
X88625001Y-61870000I-224999J0D01*
G01*
X86374999Y-61870000D01*
G75*
G02*
X86150000Y-61645001I0J224999D01*
G01*
X86150000Y-60204999D01*
G75*
G02*
X86374999Y-59980000I224999J0D01*
G01*
G37*
%TD*%
%TO.C,J1*%
G36*
G01*
X73610000Y-57310000D02*
X73610000Y-58390000D01*
G75*
G02*
X73430000Y-58570000I-180000J0D01*
G01*
X73070000Y-58570000D01*
G75*
G02*
X72890000Y-58390000I0J180000D01*
G01*
X72890000Y-57310000D01*
G75*
G02*
X73070000Y-57130000I180000J0D01*
G01*
X73430000Y-57130000D01*
G75*
G02*
X73610000Y-57310000I0J-180000D01*
G01*
G37*
G36*
G01*
X72360000Y-57310000D02*
X72360000Y-58390000D01*
G75*
G02*
X72180000Y-58570000I-180000J0D01*
G01*
X71820000Y-58570000D01*
G75*
G02*
X71640000Y-58390000I0J180000D01*
G01*
X71640000Y-57310000D01*
G75*
G02*
X71820000Y-57130000I180000J0D01*
G01*
X72180000Y-57130000D01*
G75*
G02*
X72360000Y-57310000I0J-180000D01*
G01*
G37*
G36*
G01*
X71110000Y-57310000D02*
X71110000Y-58390000D01*
G75*
G02*
X70930000Y-58570000I-180000J0D01*
G01*
X70570000Y-58570000D01*
G75*
G02*
X70390000Y-58390000I0J180000D01*
G01*
X70390000Y-57310000D01*
G75*
G02*
X70570000Y-57130000I180000J0D01*
G01*
X70930000Y-57130000D01*
G75*
G02*
X71110000Y-57310000I0J-180000D01*
G01*
G37*
G36*
G01*
X69860000Y-57310000D02*
X69860000Y-58390000D01*
G75*
G02*
X69680000Y-58570000I-180000J0D01*
G01*
X69320000Y-58570000D01*
G75*
G02*
X69140000Y-58390000I0J180000D01*
G01*
X69140000Y-57310000D01*
G75*
G02*
X69320000Y-57130000I180000J0D01*
G01*
X69680000Y-57130000D01*
G75*
G02*
X69860000Y-57310000I0J-180000D01*
G01*
G37*
G36*
G01*
X68610000Y-57310000D02*
X68610000Y-58390000D01*
G75*
G02*
X68430000Y-58570000I-180000J0D01*
G01*
X68070000Y-58570000D01*
G75*
G02*
X67890000Y-58390000I0J180000D01*
G01*
X67890000Y-57310000D01*
G75*
G02*
X68070000Y-57130000I180000J0D01*
G01*
X68430000Y-57130000D01*
G75*
G02*
X68610000Y-57310000I0J-180000D01*
G01*
G37*
G36*
G01*
X67360000Y-57310000D02*
X67360000Y-58390000D01*
G75*
G02*
X67180000Y-58570000I-180000J0D01*
G01*
X66820000Y-58570000D01*
G75*
G02*
X66640000Y-58390000I0J180000D01*
G01*
X66640000Y-57310000D01*
G75*
G02*
X66820000Y-57130000I180000J0D01*
G01*
X67180000Y-57130000D01*
G75*
G02*
X67360000Y-57310000I0J-180000D01*
G01*
G37*
G36*
G01*
X66110000Y-57310000D02*
X66110000Y-58390000D01*
G75*
G02*
X65930000Y-58570000I-180000J0D01*
G01*
X65570000Y-58570000D01*
G75*
G02*
X65390000Y-58390000I0J180000D01*
G01*
X65390000Y-57310000D01*
G75*
G02*
X65570000Y-57130000I180000J0D01*
G01*
X65930000Y-57130000D01*
G75*
G02*
X66110000Y-57310000I0J-180000D01*
G01*
G37*
G36*
G01*
X76745000Y-59624999D02*
X76745000Y-61875001D01*
G75*
G02*
X76520001Y-62100000I-224999J0D01*
G01*
X75079999Y-62100000D01*
G75*
G02*
X74855000Y-61875001I0J224999D01*
G01*
X74855000Y-59624999D01*
G75*
G02*
X75079999Y-59400000I224999J0D01*
G01*
X76520001Y-59400000D01*
G75*
G02*
X76745000Y-59624999I0J-224999D01*
G01*
G37*
G36*
G01*
X64145000Y-59624999D02*
X64145000Y-61875001D01*
G75*
G02*
X63920001Y-62100000I-224999J0D01*
G01*
X62479999Y-62100000D01*
G75*
G02*
X62255000Y-61875001I0J224999D01*
G01*
X62255000Y-59624999D01*
G75*
G02*
X62479999Y-59400000I224999J0D01*
G01*
X63920001Y-59400000D01*
G75*
G02*
X64145000Y-59624999I0J-224999D01*
G01*
G37*
%TD*%
%TO.C,J2*%
G36*
G01*
X67265000Y-42690000D02*
X67265000Y-41610000D01*
G75*
G02*
X67445000Y-41430000I180000J0D01*
G01*
X67805000Y-41430000D01*
G75*
G02*
X67985000Y-41610000I0J-180000D01*
G01*
X67985000Y-42690000D01*
G75*
G02*
X67805000Y-42870000I-180000J0D01*
G01*
X67445000Y-42870000D01*
G75*
G02*
X67265000Y-42690000I0J180000D01*
G01*
G37*
G36*
G01*
X68515000Y-42690000D02*
X68515000Y-41610000D01*
G75*
G02*
X68695000Y-41430000I180000J0D01*
G01*
X69055000Y-41430000D01*
G75*
G02*
X69235000Y-41610000I0J-180000D01*
G01*
X69235000Y-42690000D01*
G75*
G02*
X69055000Y-42870000I-180000J0D01*
G01*
X68695000Y-42870000D01*
G75*
G02*
X68515000Y-42690000I0J180000D01*
G01*
G37*
G36*
G01*
X69765000Y-42690000D02*
X69765000Y-41610000D01*
G75*
G02*
X69945000Y-41430000I180000J0D01*
G01*
X70305000Y-41430000D01*
G75*
G02*
X70485000Y-41610000I0J-180000D01*
G01*
X70485000Y-42690000D01*
G75*
G02*
X70305000Y-42870000I-180000J0D01*
G01*
X69945000Y-42870000D01*
G75*
G02*
X69765000Y-42690000I0J180000D01*
G01*
G37*
G36*
G01*
X71015000Y-42690000D02*
X71015000Y-41610000D01*
G75*
G02*
X71195000Y-41430000I180000J0D01*
G01*
X71555000Y-41430000D01*
G75*
G02*
X71735000Y-41610000I0J-180000D01*
G01*
X71735000Y-42690000D01*
G75*
G02*
X71555000Y-42870000I-180000J0D01*
G01*
X71195000Y-42870000D01*
G75*
G02*
X71015000Y-42690000I0J180000D01*
G01*
G37*
G36*
G01*
X64130000Y-40375001D02*
X64130000Y-38124999D01*
G75*
G02*
X64354999Y-37900000I224999J0D01*
G01*
X65795001Y-37900000D01*
G75*
G02*
X66020000Y-38124999I0J-224999D01*
G01*
X66020000Y-40375001D01*
G75*
G02*
X65795001Y-40600000I-224999J0D01*
G01*
X64354999Y-40600000D01*
G75*
G02*
X64130000Y-40375001I0J224999D01*
G01*
G37*
G36*
G01*
X72980000Y-40375001D02*
X72980000Y-38124999D01*
G75*
G02*
X73204999Y-37900000I224999J0D01*
G01*
X74645001Y-37900000D01*
G75*
G02*
X74870000Y-38124999I0J-224999D01*
G01*
X74870000Y-40375001D01*
G75*
G02*
X74645001Y-40600000I-224999J0D01*
G01*
X73204999Y-40600000D01*
G75*
G02*
X72980000Y-40375001I0J224999D01*
G01*
G37*
%TD*%
%TO.C,J8*%
G36*
G01*
X51390000Y-42690000D02*
X51390000Y-41610000D01*
G75*
G02*
X51570000Y-41430000I180000J0D01*
G01*
X51930000Y-41430000D01*
G75*
G02*
X52110000Y-41610000I0J-180000D01*
G01*
X52110000Y-42690000D01*
G75*
G02*
X51930000Y-42870000I-180000J0D01*
G01*
X51570000Y-42870000D01*
G75*
G02*
X51390000Y-42690000I0J180000D01*
G01*
G37*
G36*
G01*
X52640000Y-42690000D02*
X52640000Y-41610000D01*
G75*
G02*
X52820000Y-41430000I180000J0D01*
G01*
X53180000Y-41430000D01*
G75*
G02*
X53360000Y-41610000I0J-180000D01*
G01*
X53360000Y-42690000D01*
G75*
G02*
X53180000Y-42870000I-180000J0D01*
G01*
X52820000Y-42870000D01*
G75*
G02*
X52640000Y-42690000I0J180000D01*
G01*
G37*
G36*
G01*
X53890000Y-42690000D02*
X53890000Y-41610000D01*
G75*
G02*
X54070000Y-41430000I180000J0D01*
G01*
X54430000Y-41430000D01*
G75*
G02*
X54610000Y-41610000I0J-180000D01*
G01*
X54610000Y-42690000D01*
G75*
G02*
X54430000Y-42870000I-180000J0D01*
G01*
X54070000Y-42870000D01*
G75*
G02*
X53890000Y-42690000I0J180000D01*
G01*
G37*
G36*
G01*
X55140000Y-42690000D02*
X55140000Y-41610000D01*
G75*
G02*
X55320000Y-41430000I180000J0D01*
G01*
X55680000Y-41430000D01*
G75*
G02*
X55860000Y-41610000I0J-180000D01*
G01*
X55860000Y-42690000D01*
G75*
G02*
X55680000Y-42870000I-180000J0D01*
G01*
X55320000Y-42870000D01*
G75*
G02*
X55140000Y-42690000I0J180000D01*
G01*
G37*
G36*
G01*
X56390000Y-42690000D02*
X56390000Y-41610000D01*
G75*
G02*
X56570000Y-41430000I180000J0D01*
G01*
X56930000Y-41430000D01*
G75*
G02*
X57110000Y-41610000I0J-180000D01*
G01*
X57110000Y-42690000D01*
G75*
G02*
X56930000Y-42870000I-180000J0D01*
G01*
X56570000Y-42870000D01*
G75*
G02*
X56390000Y-42690000I0J180000D01*
G01*
G37*
G36*
G01*
X57640000Y-42690000D02*
X57640000Y-41610000D01*
G75*
G02*
X57820000Y-41430000I180000J0D01*
G01*
X58180000Y-41430000D01*
G75*
G02*
X58360000Y-41610000I0J-180000D01*
G01*
X58360000Y-42690000D01*
G75*
G02*
X58180000Y-42870000I-180000J0D01*
G01*
X57820000Y-42870000D01*
G75*
G02*
X57640000Y-42690000I0J180000D01*
G01*
G37*
G36*
G01*
X58890000Y-42690000D02*
X58890000Y-41610000D01*
G75*
G02*
X59070000Y-41430000I180000J0D01*
G01*
X59430000Y-41430000D01*
G75*
G02*
X59610000Y-41610000I0J-180000D01*
G01*
X59610000Y-42690000D01*
G75*
G02*
X59430000Y-42870000I-180000J0D01*
G01*
X59070000Y-42870000D01*
G75*
G02*
X58890000Y-42690000I0J180000D01*
G01*
G37*
G36*
G01*
X48255000Y-40375001D02*
X48255000Y-38124999D01*
G75*
G02*
X48479999Y-37900000I224999J0D01*
G01*
X49920001Y-37900000D01*
G75*
G02*
X50145000Y-38124999I0J-224999D01*
G01*
X50145000Y-40375001D01*
G75*
G02*
X49920001Y-40600000I-224999J0D01*
G01*
X48479999Y-40600000D01*
G75*
G02*
X48255000Y-40375001I0J224999D01*
G01*
G37*
G36*
G01*
X60855000Y-40375001D02*
X60855000Y-38124999D01*
G75*
G02*
X61079999Y-37900000I224999J0D01*
G01*
X62520001Y-37900000D01*
G75*
G02*
X62745000Y-38124999I0J-224999D01*
G01*
X62745000Y-40375001D01*
G75*
G02*
X62520001Y-40600000I-224999J0D01*
G01*
X61079999Y-40600000D01*
G75*
G02*
X60855000Y-40375001I0J224999D01*
G01*
G37*
%TD*%
M02*
