G04 #@! TF.FileFunction,Paste,Top*
%FSLAX46Y46*%
G04 Gerber Fmt 4.6, Leading zero omitted, Abs format (unit mm)*
G04 Created by KiCad (PCBNEW (2015-10-14 BZR 6267)-product) date 2015 October 25, Sunday 21:22:18*
%MOMM*%
G01*
G04 APERTURE LIST*
%ADD10C,0.100000*%
%ADD11R,1.710000X1.710000*%
%ADD12R,1.260000X1.440000*%
%ADD13R,1.215000X0.360000*%
%ADD14R,0.900000X0.630000*%
%ADD15R,0.225000X1.170000*%
%ADD16R,1.170000X0.225000*%
%ADD17R,0.630000X1.170000*%
%ADD18R,1.260000X1.035000*%
%ADD19R,0.405000X0.270000*%
%ADD20R,1.440000X0.720000*%
%ADD21R,2.700000X1.890000*%
%ADD22R,0.630000X0.900000*%
%ADD23R,0.674370X0.358902*%
%ADD24R,0.720000X1.080000*%
%ADD25R,0.720000X1.170000*%
G04 APERTURE END LIST*
D10*
D11*
X46500000Y-46200000D03*
X46500000Y-43800000D03*
D12*
X48950000Y-41800000D03*
X48950000Y-48200000D03*
D13*
X49175000Y-43700000D03*
X49175000Y-44350000D03*
X49175000Y-46300000D03*
X49175000Y-45650000D03*
X49175000Y-45000000D03*
D14*
X66750000Y-46800000D03*
X66750000Y-48200000D03*
D15*
X61750000Y-42150000D03*
X61250000Y-42150000D03*
X60750000Y-42150000D03*
X60250000Y-42150000D03*
X59750000Y-42150000D03*
X59250000Y-42150000D03*
X58750000Y-42150000D03*
X58250000Y-42150000D03*
X57750000Y-42150000D03*
X57250000Y-42150000D03*
X56750000Y-42150000D03*
X56250000Y-42150000D03*
D16*
X54650000Y-43750000D03*
X54650000Y-44250000D03*
X54650000Y-44750000D03*
X54650000Y-45250000D03*
X54650000Y-45750000D03*
X54650000Y-46250000D03*
X54650000Y-46750000D03*
X54650000Y-47250000D03*
X54650000Y-47750000D03*
X54650000Y-48250000D03*
X54650000Y-48750000D03*
X54650000Y-49250000D03*
D15*
X56250000Y-50850000D03*
X56750000Y-50850000D03*
X57250000Y-50850000D03*
X57750000Y-50850000D03*
X58250000Y-50850000D03*
X58750000Y-50850000D03*
X59250000Y-50850000D03*
X59750000Y-50850000D03*
X60250000Y-50850000D03*
X60750000Y-50850000D03*
X61250000Y-50850000D03*
X61750000Y-50850000D03*
D16*
X63350000Y-49250000D03*
X63350000Y-48750000D03*
X63350000Y-48250000D03*
X63350000Y-47750000D03*
X63350000Y-47250000D03*
X63350000Y-46750000D03*
X63350000Y-46250000D03*
X63350000Y-45750000D03*
X63350000Y-45250000D03*
X63350000Y-44750000D03*
X63350000Y-44250000D03*
X63350000Y-43750000D03*
D17*
X49700000Y-38750000D03*
X47800000Y-38750000D03*
D14*
X46250000Y-39950000D03*
X46250000Y-38550000D03*
D18*
X58150000Y-38450000D03*
X60350000Y-38450000D03*
X60350000Y-40050000D03*
X58150000Y-40050000D03*
D19*
X52675000Y-45500000D03*
X52675000Y-45000000D03*
X52675000Y-44500000D03*
X51325000Y-44500000D03*
X51325000Y-45000000D03*
X51325000Y-45500000D03*
D20*
X70350000Y-44875000D03*
X70350000Y-46125000D03*
X70350000Y-47375000D03*
X70350000Y-48625000D03*
D21*
X73250000Y-51175000D03*
X73250000Y-42325000D03*
D14*
X53250000Y-51700000D03*
X53250000Y-50300000D03*
X64000000Y-51700000D03*
X64000000Y-50300000D03*
D22*
X65450000Y-42000000D03*
X64050000Y-42000000D03*
D14*
X51750000Y-51700000D03*
X51750000Y-50300000D03*
X56500000Y-39700000D03*
X56500000Y-38300000D03*
X62000000Y-39700000D03*
X62000000Y-38300000D03*
X55000000Y-38300000D03*
X55000000Y-39700000D03*
X68250000Y-46800000D03*
X68250000Y-48200000D03*
X46000000Y-51700000D03*
X46000000Y-50300000D03*
X51750000Y-47800000D03*
X51750000Y-49200000D03*
X66750000Y-43200000D03*
X66750000Y-41800000D03*
X68250000Y-43200000D03*
X68250000Y-41800000D03*
D23*
X67449960Y-51400240D03*
X67449960Y-50750000D03*
X67449960Y-50099760D03*
X65550040Y-50099760D03*
X65550040Y-50750000D03*
X65550040Y-51400240D03*
D24*
X51050000Y-41025000D03*
X52950000Y-41025000D03*
D25*
X52000000Y-38475000D03*
M02*
