%TF.GenerationSoftware,KiCad,Pcbnew,5.1.9*%
%TF.CreationDate,2021-03-09T21:57:36+01:00*%
%TF.ProjectId,can-usb-dongle,63616e2d-7573-4622-9d64-6f6e676c652e,rev?*%
%TF.SameCoordinates,Original*%
%TF.FileFunction,Soldermask,Bot*%
%TF.FilePolarity,Negative*%
%FSLAX46Y46*%
G04 Gerber Fmt 4.6, Leading zero omitted, Abs format (unit mm)*
G04 Created by KiCad (PCBNEW 5.1.9) date 2021-03-09 21:57:36*
%MOMM*%
%LPD*%
G01*
G04 APERTURE LIST*
%ADD10C,0.010000*%
%ADD11C,0.910000*%
%ADD12O,2.210000X1.960000*%
G04 APERTURE END LIST*
D10*
%TO.C,G\u002A\u002A\u002A*%
G36*
X59095991Y-51572681D02*
G01*
X59181778Y-51572670D01*
X59259857Y-51572646D01*
X59330607Y-51572607D01*
X59394408Y-51572548D01*
X59451639Y-51572465D01*
X59502679Y-51572356D01*
X59547908Y-51572215D01*
X59587704Y-51572039D01*
X59622448Y-51571826D01*
X59652519Y-51571569D01*
X59678295Y-51571267D01*
X59700157Y-51570915D01*
X59718483Y-51570510D01*
X59733653Y-51570047D01*
X59746046Y-51569523D01*
X59756042Y-51568934D01*
X59764019Y-51568277D01*
X59770358Y-51567547D01*
X59775437Y-51566742D01*
X59779636Y-51565856D01*
X59783167Y-51564934D01*
X59830245Y-51549509D01*
X59870926Y-51531229D01*
X59907081Y-51509079D01*
X59940575Y-51482045D01*
X59947202Y-51475884D01*
X59958522Y-51464904D01*
X59968767Y-51454294D01*
X59978488Y-51443238D01*
X59988233Y-51430922D01*
X59998553Y-51416528D01*
X60009997Y-51399243D01*
X60023115Y-51378249D01*
X60038456Y-51352732D01*
X60056569Y-51321876D01*
X60078006Y-51284866D01*
X60090226Y-51263650D01*
X60111272Y-51227079D01*
X60134129Y-51187373D01*
X60157659Y-51146508D01*
X60180725Y-51106458D01*
X60202190Y-51069198D01*
X60220918Y-51036701D01*
X60225903Y-51028056D01*
X60286072Y-50923694D01*
X59957361Y-50734210D01*
X59908872Y-50706261D01*
X59862471Y-50679518D01*
X59818685Y-50654285D01*
X59778038Y-50630865D01*
X59741055Y-50609560D01*
X59708262Y-50590672D01*
X59680184Y-50574503D01*
X59657347Y-50561357D01*
X59640274Y-50551536D01*
X59629493Y-50545343D01*
X59625531Y-50543082D01*
X59621469Y-50545235D01*
X59613195Y-50552382D01*
X59602158Y-50563217D01*
X59596167Y-50569494D01*
X59546507Y-50617303D01*
X59490188Y-50662112D01*
X59428784Y-50702889D01*
X59363870Y-50738603D01*
X59297021Y-50768220D01*
X59287025Y-50772036D01*
X59209344Y-50796596D01*
X59129765Y-50813140D01*
X59049010Y-50821702D01*
X58967800Y-50822318D01*
X58886858Y-50815021D01*
X58806904Y-50799847D01*
X58728662Y-50776831D01*
X58652851Y-50746006D01*
X58642284Y-50740978D01*
X58576165Y-50705388D01*
X58515433Y-50665048D01*
X58458217Y-50618612D01*
X58415800Y-50578283D01*
X58401753Y-50564260D01*
X58389909Y-50552778D01*
X58381492Y-50545001D01*
X58377727Y-50542090D01*
X58377700Y-50542090D01*
X58373805Y-50544190D01*
X58363106Y-50550229D01*
X58346128Y-50559906D01*
X58323396Y-50572918D01*
X58295435Y-50588966D01*
X58262769Y-50607747D01*
X58225922Y-50628959D01*
X58185419Y-50652301D01*
X58141785Y-50677471D01*
X58095544Y-50704168D01*
X58049617Y-50730705D01*
X58001332Y-50758630D01*
X57955132Y-50785380D01*
X57911545Y-50810646D01*
X57871099Y-50834121D01*
X57834322Y-50855498D01*
X57801741Y-50874470D01*
X57773884Y-50890729D01*
X57751279Y-50903968D01*
X57734454Y-50913879D01*
X57723937Y-50920155D01*
X57720273Y-50922468D01*
X57721644Y-50926704D01*
X57726928Y-50937504D01*
X57735712Y-50954154D01*
X57747584Y-50975940D01*
X57762130Y-51002148D01*
X57778937Y-51032064D01*
X57797591Y-51064973D01*
X57817680Y-51100163D01*
X57838791Y-51136919D01*
X57860509Y-51174528D01*
X57882423Y-51212274D01*
X57904119Y-51249445D01*
X57925184Y-51285326D01*
X57945204Y-51319204D01*
X57963767Y-51350364D01*
X57980460Y-51378093D01*
X57994868Y-51401677D01*
X58006580Y-51420401D01*
X58015181Y-51433552D01*
X58019475Y-51439494D01*
X58055527Y-51477640D01*
X58097543Y-51510648D01*
X58144180Y-51537659D01*
X58194096Y-51557811D01*
X58212600Y-51563219D01*
X58248583Y-51572684D01*
X59002117Y-51572684D01*
X59095991Y-51572681D01*
G37*
X59095991Y-51572681D02*
X59181778Y-51572670D01*
X59259857Y-51572646D01*
X59330607Y-51572607D01*
X59394408Y-51572548D01*
X59451639Y-51572465D01*
X59502679Y-51572356D01*
X59547908Y-51572215D01*
X59587704Y-51572039D01*
X59622448Y-51571826D01*
X59652519Y-51571569D01*
X59678295Y-51571267D01*
X59700157Y-51570915D01*
X59718483Y-51570510D01*
X59733653Y-51570047D01*
X59746046Y-51569523D01*
X59756042Y-51568934D01*
X59764019Y-51568277D01*
X59770358Y-51567547D01*
X59775437Y-51566742D01*
X59779636Y-51565856D01*
X59783167Y-51564934D01*
X59830245Y-51549509D01*
X59870926Y-51531229D01*
X59907081Y-51509079D01*
X59940575Y-51482045D01*
X59947202Y-51475884D01*
X59958522Y-51464904D01*
X59968767Y-51454294D01*
X59978488Y-51443238D01*
X59988233Y-51430922D01*
X59998553Y-51416528D01*
X60009997Y-51399243D01*
X60023115Y-51378249D01*
X60038456Y-51352732D01*
X60056569Y-51321876D01*
X60078006Y-51284866D01*
X60090226Y-51263650D01*
X60111272Y-51227079D01*
X60134129Y-51187373D01*
X60157659Y-51146508D01*
X60180725Y-51106458D01*
X60202190Y-51069198D01*
X60220918Y-51036701D01*
X60225903Y-51028056D01*
X60286072Y-50923694D01*
X59957361Y-50734210D01*
X59908872Y-50706261D01*
X59862471Y-50679518D01*
X59818685Y-50654285D01*
X59778038Y-50630865D01*
X59741055Y-50609560D01*
X59708262Y-50590672D01*
X59680184Y-50574503D01*
X59657347Y-50561357D01*
X59640274Y-50551536D01*
X59629493Y-50545343D01*
X59625531Y-50543082D01*
X59621469Y-50545235D01*
X59613195Y-50552382D01*
X59602158Y-50563217D01*
X59596167Y-50569494D01*
X59546507Y-50617303D01*
X59490188Y-50662112D01*
X59428784Y-50702889D01*
X59363870Y-50738603D01*
X59297021Y-50768220D01*
X59287025Y-50772036D01*
X59209344Y-50796596D01*
X59129765Y-50813140D01*
X59049010Y-50821702D01*
X58967800Y-50822318D01*
X58886858Y-50815021D01*
X58806904Y-50799847D01*
X58728662Y-50776831D01*
X58652851Y-50746006D01*
X58642284Y-50740978D01*
X58576165Y-50705388D01*
X58515433Y-50665048D01*
X58458217Y-50618612D01*
X58415800Y-50578283D01*
X58401753Y-50564260D01*
X58389909Y-50552778D01*
X58381492Y-50545001D01*
X58377727Y-50542090D01*
X58377700Y-50542090D01*
X58373805Y-50544190D01*
X58363106Y-50550229D01*
X58346128Y-50559906D01*
X58323396Y-50572918D01*
X58295435Y-50588966D01*
X58262769Y-50607747D01*
X58225922Y-50628959D01*
X58185419Y-50652301D01*
X58141785Y-50677471D01*
X58095544Y-50704168D01*
X58049617Y-50730705D01*
X58001332Y-50758630D01*
X57955132Y-50785380D01*
X57911545Y-50810646D01*
X57871099Y-50834121D01*
X57834322Y-50855498D01*
X57801741Y-50874470D01*
X57773884Y-50890729D01*
X57751279Y-50903968D01*
X57734454Y-50913879D01*
X57723937Y-50920155D01*
X57720273Y-50922468D01*
X57721644Y-50926704D01*
X57726928Y-50937504D01*
X57735712Y-50954154D01*
X57747584Y-50975940D01*
X57762130Y-51002148D01*
X57778937Y-51032064D01*
X57797591Y-51064973D01*
X57817680Y-51100163D01*
X57838791Y-51136919D01*
X57860509Y-51174528D01*
X57882423Y-51212274D01*
X57904119Y-51249445D01*
X57925184Y-51285326D01*
X57945204Y-51319204D01*
X57963767Y-51350364D01*
X57980460Y-51378093D01*
X57994868Y-51401677D01*
X58006580Y-51420401D01*
X58015181Y-51433552D01*
X58019475Y-51439494D01*
X58055527Y-51477640D01*
X58097543Y-51510648D01*
X58144180Y-51537659D01*
X58194096Y-51557811D01*
X58212600Y-51563219D01*
X58248583Y-51572684D01*
X59002117Y-51572684D01*
X59095991Y-51572681D01*
G36*
X59065156Y-50544836D02*
G01*
X59105125Y-50539032D01*
X59108939Y-50538247D01*
X59175259Y-50520005D01*
X59237774Y-50494510D01*
X59296007Y-50462189D01*
X59349484Y-50423472D01*
X59397726Y-50378786D01*
X59440259Y-50328559D01*
X59476606Y-50273221D01*
X59506290Y-50213197D01*
X59523978Y-50165100D01*
X59533581Y-50132276D01*
X59540396Y-50102285D01*
X59544803Y-50072429D01*
X59547183Y-50040012D01*
X59547918Y-50002334D01*
X59547909Y-49995767D01*
X59546975Y-49955957D01*
X59544183Y-49921613D01*
X59539076Y-49889848D01*
X59531198Y-49857779D01*
X59520801Y-49824615D01*
X59495374Y-49762298D01*
X59462920Y-49704245D01*
X59423987Y-49650940D01*
X59379122Y-49602865D01*
X59328874Y-49560501D01*
X59273790Y-49524332D01*
X59214419Y-49494839D01*
X59151307Y-49472506D01*
X59109160Y-49462182D01*
X59074508Y-49456649D01*
X59035925Y-49453036D01*
X58996623Y-49451490D01*
X58959809Y-49452158D01*
X58935845Y-49454193D01*
X58869717Y-49466510D01*
X58806363Y-49486481D01*
X58746360Y-49513638D01*
X58690288Y-49547514D01*
X58638726Y-49587642D01*
X58592253Y-49633555D01*
X58551448Y-49684786D01*
X58516891Y-49740867D01*
X58489159Y-49801332D01*
X58482316Y-49820084D01*
X58467556Y-49869585D01*
X58458153Y-49917895D01*
X58453556Y-49968381D01*
X58452876Y-50000000D01*
X58456554Y-50064848D01*
X58467355Y-50128406D01*
X58484927Y-50189138D01*
X58508919Y-50245505D01*
X58508944Y-50245554D01*
X58529197Y-50281145D01*
X58554398Y-50318357D01*
X58582378Y-50354225D01*
X58610970Y-50385781D01*
X58612535Y-50387350D01*
X58664228Y-50433078D01*
X58720225Y-50471571D01*
X58780219Y-50502661D01*
X58843901Y-50526183D01*
X58890215Y-50537993D01*
X58930125Y-50544205D01*
X58974614Y-50547419D01*
X59020638Y-50547630D01*
X59065156Y-50544836D01*
G37*
X59065156Y-50544836D02*
X59105125Y-50539032D01*
X59108939Y-50538247D01*
X59175259Y-50520005D01*
X59237774Y-50494510D01*
X59296007Y-50462189D01*
X59349484Y-50423472D01*
X59397726Y-50378786D01*
X59440259Y-50328559D01*
X59476606Y-50273221D01*
X59506290Y-50213197D01*
X59523978Y-50165100D01*
X59533581Y-50132276D01*
X59540396Y-50102285D01*
X59544803Y-50072429D01*
X59547183Y-50040012D01*
X59547918Y-50002334D01*
X59547909Y-49995767D01*
X59546975Y-49955957D01*
X59544183Y-49921613D01*
X59539076Y-49889848D01*
X59531198Y-49857779D01*
X59520801Y-49824615D01*
X59495374Y-49762298D01*
X59462920Y-49704245D01*
X59423987Y-49650940D01*
X59379122Y-49602865D01*
X59328874Y-49560501D01*
X59273790Y-49524332D01*
X59214419Y-49494839D01*
X59151307Y-49472506D01*
X59109160Y-49462182D01*
X59074508Y-49456649D01*
X59035925Y-49453036D01*
X58996623Y-49451490D01*
X58959809Y-49452158D01*
X58935845Y-49454193D01*
X58869717Y-49466510D01*
X58806363Y-49486481D01*
X58746360Y-49513638D01*
X58690288Y-49547514D01*
X58638726Y-49587642D01*
X58592253Y-49633555D01*
X58551448Y-49684786D01*
X58516891Y-49740867D01*
X58489159Y-49801332D01*
X58482316Y-49820084D01*
X58467556Y-49869585D01*
X58458153Y-49917895D01*
X58453556Y-49968381D01*
X58452876Y-50000000D01*
X58456554Y-50064848D01*
X58467355Y-50128406D01*
X58484927Y-50189138D01*
X58508919Y-50245505D01*
X58508944Y-50245554D01*
X58529197Y-50281145D01*
X58554398Y-50318357D01*
X58582378Y-50354225D01*
X58610970Y-50385781D01*
X58612535Y-50387350D01*
X58664228Y-50433078D01*
X58720225Y-50471571D01*
X58780219Y-50502661D01*
X58843901Y-50526183D01*
X58890215Y-50537993D01*
X58930125Y-50544205D01*
X58974614Y-50547419D01*
X59020638Y-50547630D01*
X59065156Y-50544836D01*
G36*
X60444873Y-50644084D02*
G01*
X60451466Y-50633856D01*
X60461384Y-50617702D01*
X60474208Y-50596346D01*
X60489523Y-50570512D01*
X60506912Y-50540925D01*
X60525957Y-50508309D01*
X60546242Y-50473389D01*
X60567351Y-50436890D01*
X60588865Y-50399535D01*
X60610370Y-50362049D01*
X60631447Y-50325157D01*
X60651680Y-50289583D01*
X60670652Y-50256051D01*
X60687947Y-50225287D01*
X60703147Y-50198014D01*
X60715836Y-50174958D01*
X60725597Y-50156842D01*
X60732013Y-50144390D01*
X60733979Y-50140185D01*
X60750003Y-50092571D01*
X60759074Y-50041859D01*
X60761193Y-49989769D01*
X60756359Y-49938024D01*
X60744572Y-49888343D01*
X60734023Y-49859917D01*
X60730476Y-49852909D01*
X60722951Y-49839051D01*
X60711720Y-49818814D01*
X60697056Y-49792670D01*
X60679229Y-49761092D01*
X60658513Y-49724552D01*
X60635179Y-49683522D01*
X60609498Y-49638474D01*
X60581744Y-49589881D01*
X60552187Y-49538214D01*
X60521099Y-49483946D01*
X60488753Y-49427549D01*
X60455420Y-49369495D01*
X60421373Y-49310256D01*
X60386882Y-49250305D01*
X60352221Y-49190114D01*
X60317660Y-49130154D01*
X60283473Y-49070899D01*
X60249930Y-49012820D01*
X60217304Y-48956389D01*
X60185866Y-48902078D01*
X60155889Y-48850361D01*
X60127644Y-48801708D01*
X60101403Y-48756593D01*
X60077438Y-48715487D01*
X60056022Y-48678862D01*
X60037425Y-48647191D01*
X60021920Y-48620946D01*
X60009779Y-48600599D01*
X60001273Y-48586622D01*
X59996825Y-48579699D01*
X59970740Y-48547786D01*
X59938865Y-48517091D01*
X59903445Y-48489408D01*
X59866724Y-48466529D01*
X59838200Y-48453002D01*
X59826496Y-48448263D01*
X59816243Y-48444153D01*
X59806775Y-48440625D01*
X59797423Y-48437631D01*
X59787520Y-48435125D01*
X59776398Y-48433059D01*
X59763391Y-48431385D01*
X59747829Y-48430057D01*
X59729047Y-48429027D01*
X59706375Y-48428247D01*
X59679148Y-48427671D01*
X59646696Y-48427251D01*
X59608353Y-48426941D01*
X59563451Y-48426691D01*
X59511323Y-48426456D01*
X59460375Y-48426230D01*
X59156633Y-48424834D01*
X59156633Y-49190243D01*
X59200917Y-49201290D01*
X59279815Y-49225255D01*
X59355228Y-49256724D01*
X59426708Y-49295296D01*
X59493805Y-49340572D01*
X59556072Y-49392150D01*
X59613057Y-49449633D01*
X59664314Y-49512618D01*
X59709392Y-49580706D01*
X59747844Y-49653497D01*
X59771715Y-49710017D01*
X59791820Y-49769083D01*
X59806561Y-49827066D01*
X59816343Y-49886262D01*
X59821569Y-49948970D01*
X59822744Y-50000000D01*
X59822278Y-50042230D01*
X59820572Y-50078644D01*
X59817300Y-50111842D01*
X59812134Y-50144428D01*
X59804747Y-50179001D01*
X59795753Y-50214630D01*
X59790774Y-50233717D01*
X59786726Y-50249869D01*
X59784046Y-50261292D01*
X59783167Y-50266084D01*
X59786567Y-50270160D01*
X59795395Y-50276650D01*
X59805392Y-50282774D01*
X59817419Y-50289657D01*
X59834647Y-50299568D01*
X59854957Y-50311284D01*
X59876227Y-50323584D01*
X59880534Y-50326078D01*
X59903294Y-50339253D01*
X59931899Y-50355793D01*
X59965342Y-50375117D01*
X60002615Y-50396645D01*
X60042711Y-50419794D01*
X60084624Y-50443986D01*
X60127345Y-50468637D01*
X60169869Y-50493168D01*
X60211188Y-50516997D01*
X60250294Y-50539543D01*
X60286182Y-50560225D01*
X60317843Y-50578462D01*
X60344271Y-50593674D01*
X60364459Y-50605278D01*
X60365820Y-50606060D01*
X60388261Y-50618838D01*
X60408253Y-50630025D01*
X60424621Y-50638979D01*
X60436188Y-50645058D01*
X60441778Y-50647619D01*
X60442020Y-50647660D01*
X60444873Y-50644084D01*
G37*
X60444873Y-50644084D02*
X60451466Y-50633856D01*
X60461384Y-50617702D01*
X60474208Y-50596346D01*
X60489523Y-50570512D01*
X60506912Y-50540925D01*
X60525957Y-50508309D01*
X60546242Y-50473389D01*
X60567351Y-50436890D01*
X60588865Y-50399535D01*
X60610370Y-50362049D01*
X60631447Y-50325157D01*
X60651680Y-50289583D01*
X60670652Y-50256051D01*
X60687947Y-50225287D01*
X60703147Y-50198014D01*
X60715836Y-50174958D01*
X60725597Y-50156842D01*
X60732013Y-50144390D01*
X60733979Y-50140185D01*
X60750003Y-50092571D01*
X60759074Y-50041859D01*
X60761193Y-49989769D01*
X60756359Y-49938024D01*
X60744572Y-49888343D01*
X60734023Y-49859917D01*
X60730476Y-49852909D01*
X60722951Y-49839051D01*
X60711720Y-49818814D01*
X60697056Y-49792670D01*
X60679229Y-49761092D01*
X60658513Y-49724552D01*
X60635179Y-49683522D01*
X60609498Y-49638474D01*
X60581744Y-49589881D01*
X60552187Y-49538214D01*
X60521099Y-49483946D01*
X60488753Y-49427549D01*
X60455420Y-49369495D01*
X60421373Y-49310256D01*
X60386882Y-49250305D01*
X60352221Y-49190114D01*
X60317660Y-49130154D01*
X60283473Y-49070899D01*
X60249930Y-49012820D01*
X60217304Y-48956389D01*
X60185866Y-48902078D01*
X60155889Y-48850361D01*
X60127644Y-48801708D01*
X60101403Y-48756593D01*
X60077438Y-48715487D01*
X60056022Y-48678862D01*
X60037425Y-48647191D01*
X60021920Y-48620946D01*
X60009779Y-48600599D01*
X60001273Y-48586622D01*
X59996825Y-48579699D01*
X59970740Y-48547786D01*
X59938865Y-48517091D01*
X59903445Y-48489408D01*
X59866724Y-48466529D01*
X59838200Y-48453002D01*
X59826496Y-48448263D01*
X59816243Y-48444153D01*
X59806775Y-48440625D01*
X59797423Y-48437631D01*
X59787520Y-48435125D01*
X59776398Y-48433059D01*
X59763391Y-48431385D01*
X59747829Y-48430057D01*
X59729047Y-48429027D01*
X59706375Y-48428247D01*
X59679148Y-48427671D01*
X59646696Y-48427251D01*
X59608353Y-48426941D01*
X59563451Y-48426691D01*
X59511323Y-48426456D01*
X59460375Y-48426230D01*
X59156633Y-48424834D01*
X59156633Y-49190243D01*
X59200917Y-49201290D01*
X59279815Y-49225255D01*
X59355228Y-49256724D01*
X59426708Y-49295296D01*
X59493805Y-49340572D01*
X59556072Y-49392150D01*
X59613057Y-49449633D01*
X59664314Y-49512618D01*
X59709392Y-49580706D01*
X59747844Y-49653497D01*
X59771715Y-49710017D01*
X59791820Y-49769083D01*
X59806561Y-49827066D01*
X59816343Y-49886262D01*
X59821569Y-49948970D01*
X59822744Y-50000000D01*
X59822278Y-50042230D01*
X59820572Y-50078644D01*
X59817300Y-50111842D01*
X59812134Y-50144428D01*
X59804747Y-50179001D01*
X59795753Y-50214630D01*
X59790774Y-50233717D01*
X59786726Y-50249869D01*
X59784046Y-50261292D01*
X59783167Y-50266084D01*
X59786567Y-50270160D01*
X59795395Y-50276650D01*
X59805392Y-50282774D01*
X59817419Y-50289657D01*
X59834647Y-50299568D01*
X59854957Y-50311284D01*
X59876227Y-50323584D01*
X59880534Y-50326078D01*
X59903294Y-50339253D01*
X59931899Y-50355793D01*
X59965342Y-50375117D01*
X60002615Y-50396645D01*
X60042711Y-50419794D01*
X60084624Y-50443986D01*
X60127345Y-50468637D01*
X60169869Y-50493168D01*
X60211188Y-50516997D01*
X60250294Y-50539543D01*
X60286182Y-50560225D01*
X60317843Y-50578462D01*
X60344271Y-50593674D01*
X60364459Y-50605278D01*
X60365820Y-50606060D01*
X60388261Y-50618838D01*
X60408253Y-50630025D01*
X60424621Y-50638979D01*
X60436188Y-50645058D01*
X60441778Y-50647619D01*
X60442020Y-50647660D01*
X60444873Y-50644084D01*
G36*
X57561616Y-50648565D02*
G01*
X57571924Y-50642793D01*
X57588186Y-50633564D01*
X57609713Y-50621272D01*
X57635820Y-50606310D01*
X57665820Y-50589072D01*
X57699025Y-50569950D01*
X57734749Y-50549337D01*
X57746933Y-50542298D01*
X57789896Y-50517476D01*
X57835951Y-50490875D01*
X57883518Y-50463407D01*
X57931020Y-50435983D01*
X57976878Y-50409514D01*
X58019513Y-50384912D01*
X58057347Y-50363089D01*
X58077133Y-50351680D01*
X58108637Y-50333508D01*
X58137772Y-50316686D01*
X58163739Y-50301675D01*
X58185738Y-50288939D01*
X58202972Y-50278939D01*
X58214640Y-50272139D01*
X58219944Y-50269001D01*
X58220176Y-50268849D01*
X58219566Y-50264613D01*
X58216966Y-50253970D01*
X58212816Y-50238624D01*
X58208597Y-50223846D01*
X58199051Y-50188667D01*
X58191825Y-50155786D01*
X58186581Y-50122834D01*
X58182980Y-50087444D01*
X58180682Y-50047247D01*
X58179877Y-50023188D01*
X58179688Y-49963401D01*
X58182800Y-49909037D01*
X58189552Y-49857585D01*
X58200281Y-49806536D01*
X58215327Y-49753380D01*
X58216997Y-49748117D01*
X58245564Y-49672389D01*
X58281399Y-49600252D01*
X58323990Y-49532180D01*
X58372821Y-49468648D01*
X58427380Y-49410129D01*
X58487153Y-49357098D01*
X58551625Y-49310030D01*
X58620285Y-49269397D01*
X58692617Y-49235674D01*
X58768109Y-49209336D01*
X58813414Y-49197568D01*
X58843367Y-49190755D01*
X58843367Y-48425200D01*
X58552325Y-48425537D01*
X58492475Y-48425639D01*
X58440518Y-48425803D01*
X58395878Y-48426041D01*
X58357983Y-48426364D01*
X58326257Y-48426784D01*
X58300128Y-48427311D01*
X58279020Y-48427956D01*
X58262359Y-48428731D01*
X58249572Y-48429648D01*
X58240083Y-48430717D01*
X58234245Y-48431739D01*
X58178297Y-48447843D01*
X58127227Y-48470765D01*
X58081219Y-48500384D01*
X58040454Y-48536580D01*
X58005116Y-48579233D01*
X57999989Y-48586632D01*
X57995336Y-48594064D01*
X57986777Y-48608320D01*
X57974589Y-48628924D01*
X57959044Y-48655400D01*
X57940417Y-48687272D01*
X57918982Y-48724063D01*
X57895014Y-48765299D01*
X57868785Y-48810502D01*
X57840571Y-48859196D01*
X57810645Y-48910907D01*
X57779282Y-48965157D01*
X57746756Y-49021471D01*
X57713341Y-49079372D01*
X57679311Y-49138385D01*
X57644940Y-49198033D01*
X57610502Y-49257841D01*
X57576272Y-49317332D01*
X57542523Y-49376031D01*
X57509531Y-49433461D01*
X57477568Y-49489146D01*
X57446908Y-49542611D01*
X57417827Y-49593379D01*
X57390599Y-49640974D01*
X57365496Y-49684920D01*
X57342794Y-49724742D01*
X57322767Y-49759962D01*
X57305689Y-49790106D01*
X57291833Y-49814696D01*
X57281474Y-49833258D01*
X57274887Y-49845314D01*
X57272625Y-49849717D01*
X57259463Y-49880880D01*
X57250319Y-49910020D01*
X57244650Y-49939830D01*
X57241913Y-49973002D01*
X57241474Y-50004234D01*
X57241901Y-50029743D01*
X57242961Y-50049356D01*
X57244969Y-50065636D01*
X57248245Y-50081148D01*
X57253104Y-50098457D01*
X57253154Y-50098623D01*
X57260014Y-50119267D01*
X57268070Y-50140485D01*
X57275808Y-50158342D01*
X57277357Y-50161507D01*
X57280816Y-50167870D01*
X57287951Y-50180602D01*
X57298335Y-50198959D01*
X57311539Y-50222195D01*
X57327137Y-50249567D01*
X57344701Y-50280327D01*
X57363802Y-50313732D01*
X57384015Y-50349036D01*
X57404910Y-50385493D01*
X57426061Y-50422360D01*
X57447039Y-50458890D01*
X57467418Y-50494338D01*
X57486769Y-50527960D01*
X57504665Y-50559010D01*
X57520679Y-50586743D01*
X57534383Y-50610414D01*
X57545349Y-50629278D01*
X57553149Y-50642589D01*
X57557357Y-50649602D01*
X57557948Y-50650488D01*
X57561616Y-50648565D01*
G37*
X57561616Y-50648565D02*
X57571924Y-50642793D01*
X57588186Y-50633564D01*
X57609713Y-50621272D01*
X57635820Y-50606310D01*
X57665820Y-50589072D01*
X57699025Y-50569950D01*
X57734749Y-50549337D01*
X57746933Y-50542298D01*
X57789896Y-50517476D01*
X57835951Y-50490875D01*
X57883518Y-50463407D01*
X57931020Y-50435983D01*
X57976878Y-50409514D01*
X58019513Y-50384912D01*
X58057347Y-50363089D01*
X58077133Y-50351680D01*
X58108637Y-50333508D01*
X58137772Y-50316686D01*
X58163739Y-50301675D01*
X58185738Y-50288939D01*
X58202972Y-50278939D01*
X58214640Y-50272139D01*
X58219944Y-50269001D01*
X58220176Y-50268849D01*
X58219566Y-50264613D01*
X58216966Y-50253970D01*
X58212816Y-50238624D01*
X58208597Y-50223846D01*
X58199051Y-50188667D01*
X58191825Y-50155786D01*
X58186581Y-50122834D01*
X58182980Y-50087444D01*
X58180682Y-50047247D01*
X58179877Y-50023188D01*
X58179688Y-49963401D01*
X58182800Y-49909037D01*
X58189552Y-49857585D01*
X58200281Y-49806536D01*
X58215327Y-49753380D01*
X58216997Y-49748117D01*
X58245564Y-49672389D01*
X58281399Y-49600252D01*
X58323990Y-49532180D01*
X58372821Y-49468648D01*
X58427380Y-49410129D01*
X58487153Y-49357098D01*
X58551625Y-49310030D01*
X58620285Y-49269397D01*
X58692617Y-49235674D01*
X58768109Y-49209336D01*
X58813414Y-49197568D01*
X58843367Y-49190755D01*
X58843367Y-48425200D01*
X58552325Y-48425537D01*
X58492475Y-48425639D01*
X58440518Y-48425803D01*
X58395878Y-48426041D01*
X58357983Y-48426364D01*
X58326257Y-48426784D01*
X58300128Y-48427311D01*
X58279020Y-48427956D01*
X58262359Y-48428731D01*
X58249572Y-48429648D01*
X58240083Y-48430717D01*
X58234245Y-48431739D01*
X58178297Y-48447843D01*
X58127227Y-48470765D01*
X58081219Y-48500384D01*
X58040454Y-48536580D01*
X58005116Y-48579233D01*
X57999989Y-48586632D01*
X57995336Y-48594064D01*
X57986777Y-48608320D01*
X57974589Y-48628924D01*
X57959044Y-48655400D01*
X57940417Y-48687272D01*
X57918982Y-48724063D01*
X57895014Y-48765299D01*
X57868785Y-48810502D01*
X57840571Y-48859196D01*
X57810645Y-48910907D01*
X57779282Y-48965157D01*
X57746756Y-49021471D01*
X57713341Y-49079372D01*
X57679311Y-49138385D01*
X57644940Y-49198033D01*
X57610502Y-49257841D01*
X57576272Y-49317332D01*
X57542523Y-49376031D01*
X57509531Y-49433461D01*
X57477568Y-49489146D01*
X57446908Y-49542611D01*
X57417827Y-49593379D01*
X57390599Y-49640974D01*
X57365496Y-49684920D01*
X57342794Y-49724742D01*
X57322767Y-49759962D01*
X57305689Y-49790106D01*
X57291833Y-49814696D01*
X57281474Y-49833258D01*
X57274887Y-49845314D01*
X57272625Y-49849717D01*
X57259463Y-49880880D01*
X57250319Y-49910020D01*
X57244650Y-49939830D01*
X57241913Y-49973002D01*
X57241474Y-50004234D01*
X57241901Y-50029743D01*
X57242961Y-50049356D01*
X57244969Y-50065636D01*
X57248245Y-50081148D01*
X57253104Y-50098457D01*
X57253154Y-50098623D01*
X57260014Y-50119267D01*
X57268070Y-50140485D01*
X57275808Y-50158342D01*
X57277357Y-50161507D01*
X57280816Y-50167870D01*
X57287951Y-50180602D01*
X57298335Y-50198959D01*
X57311539Y-50222195D01*
X57327137Y-50249567D01*
X57344701Y-50280327D01*
X57363802Y-50313732D01*
X57384015Y-50349036D01*
X57404910Y-50385493D01*
X57426061Y-50422360D01*
X57447039Y-50458890D01*
X57467418Y-50494338D01*
X57486769Y-50527960D01*
X57504665Y-50559010D01*
X57520679Y-50586743D01*
X57534383Y-50610414D01*
X57545349Y-50629278D01*
X57553149Y-50642589D01*
X57557357Y-50649602D01*
X57557948Y-50650488D01*
X57561616Y-50648565D01*
G36*
X59095991Y-51572681D02*
G01*
X59181778Y-51572670D01*
X59259857Y-51572646D01*
X59330607Y-51572607D01*
X59394408Y-51572548D01*
X59451639Y-51572465D01*
X59502679Y-51572356D01*
X59547908Y-51572215D01*
X59587704Y-51572039D01*
X59622448Y-51571826D01*
X59652519Y-51571569D01*
X59678295Y-51571267D01*
X59700157Y-51570915D01*
X59718483Y-51570510D01*
X59733653Y-51570047D01*
X59746046Y-51569523D01*
X59756042Y-51568934D01*
X59764019Y-51568277D01*
X59770358Y-51567547D01*
X59775437Y-51566742D01*
X59779636Y-51565856D01*
X59783167Y-51564934D01*
X59830245Y-51549509D01*
X59870926Y-51531229D01*
X59907081Y-51509079D01*
X59940575Y-51482045D01*
X59947202Y-51475884D01*
X59958522Y-51464904D01*
X59968767Y-51454294D01*
X59978488Y-51443238D01*
X59988233Y-51430922D01*
X59998553Y-51416528D01*
X60009997Y-51399243D01*
X60023115Y-51378249D01*
X60038456Y-51352732D01*
X60056569Y-51321876D01*
X60078006Y-51284866D01*
X60090226Y-51263650D01*
X60111272Y-51227079D01*
X60134129Y-51187373D01*
X60157659Y-51146508D01*
X60180725Y-51106458D01*
X60202190Y-51069198D01*
X60220918Y-51036701D01*
X60225903Y-51028056D01*
X60286072Y-50923694D01*
X59957361Y-50734210D01*
X59908872Y-50706261D01*
X59862471Y-50679518D01*
X59818685Y-50654285D01*
X59778038Y-50630865D01*
X59741055Y-50609560D01*
X59708262Y-50590672D01*
X59680184Y-50574503D01*
X59657347Y-50561357D01*
X59640274Y-50551536D01*
X59629493Y-50545343D01*
X59625531Y-50543082D01*
X59621469Y-50545235D01*
X59613195Y-50552382D01*
X59602158Y-50563217D01*
X59596167Y-50569494D01*
X59546507Y-50617303D01*
X59490188Y-50662112D01*
X59428784Y-50702889D01*
X59363870Y-50738603D01*
X59297021Y-50768220D01*
X59287025Y-50772036D01*
X59209344Y-50796596D01*
X59129765Y-50813140D01*
X59049010Y-50821702D01*
X58967800Y-50822318D01*
X58886858Y-50815021D01*
X58806904Y-50799847D01*
X58728662Y-50776831D01*
X58652851Y-50746006D01*
X58642284Y-50740978D01*
X58576165Y-50705388D01*
X58515433Y-50665048D01*
X58458217Y-50618612D01*
X58415800Y-50578283D01*
X58401753Y-50564260D01*
X58389909Y-50552778D01*
X58381492Y-50545001D01*
X58377727Y-50542090D01*
X58377700Y-50542090D01*
X58373805Y-50544190D01*
X58363106Y-50550229D01*
X58346128Y-50559906D01*
X58323396Y-50572918D01*
X58295435Y-50588966D01*
X58262769Y-50607747D01*
X58225922Y-50628959D01*
X58185419Y-50652301D01*
X58141785Y-50677471D01*
X58095544Y-50704168D01*
X58049617Y-50730705D01*
X58001332Y-50758630D01*
X57955132Y-50785380D01*
X57911545Y-50810646D01*
X57871099Y-50834121D01*
X57834322Y-50855498D01*
X57801741Y-50874470D01*
X57773884Y-50890729D01*
X57751279Y-50903968D01*
X57734454Y-50913879D01*
X57723937Y-50920155D01*
X57720273Y-50922468D01*
X57721644Y-50926704D01*
X57726928Y-50937504D01*
X57735712Y-50954154D01*
X57747584Y-50975940D01*
X57762130Y-51002148D01*
X57778937Y-51032064D01*
X57797591Y-51064973D01*
X57817680Y-51100163D01*
X57838791Y-51136919D01*
X57860509Y-51174528D01*
X57882423Y-51212274D01*
X57904119Y-51249445D01*
X57925184Y-51285326D01*
X57945204Y-51319204D01*
X57963767Y-51350364D01*
X57980460Y-51378093D01*
X57994868Y-51401677D01*
X58006580Y-51420401D01*
X58015181Y-51433552D01*
X58019475Y-51439494D01*
X58055527Y-51477640D01*
X58097543Y-51510648D01*
X58144180Y-51537659D01*
X58194096Y-51557811D01*
X58212600Y-51563219D01*
X58248583Y-51572684D01*
X59002117Y-51572684D01*
X59095991Y-51572681D01*
G37*
X59095991Y-51572681D02*
X59181778Y-51572670D01*
X59259857Y-51572646D01*
X59330607Y-51572607D01*
X59394408Y-51572548D01*
X59451639Y-51572465D01*
X59502679Y-51572356D01*
X59547908Y-51572215D01*
X59587704Y-51572039D01*
X59622448Y-51571826D01*
X59652519Y-51571569D01*
X59678295Y-51571267D01*
X59700157Y-51570915D01*
X59718483Y-51570510D01*
X59733653Y-51570047D01*
X59746046Y-51569523D01*
X59756042Y-51568934D01*
X59764019Y-51568277D01*
X59770358Y-51567547D01*
X59775437Y-51566742D01*
X59779636Y-51565856D01*
X59783167Y-51564934D01*
X59830245Y-51549509D01*
X59870926Y-51531229D01*
X59907081Y-51509079D01*
X59940575Y-51482045D01*
X59947202Y-51475884D01*
X59958522Y-51464904D01*
X59968767Y-51454294D01*
X59978488Y-51443238D01*
X59988233Y-51430922D01*
X59998553Y-51416528D01*
X60009997Y-51399243D01*
X60023115Y-51378249D01*
X60038456Y-51352732D01*
X60056569Y-51321876D01*
X60078006Y-51284866D01*
X60090226Y-51263650D01*
X60111272Y-51227079D01*
X60134129Y-51187373D01*
X60157659Y-51146508D01*
X60180725Y-51106458D01*
X60202190Y-51069198D01*
X60220918Y-51036701D01*
X60225903Y-51028056D01*
X60286072Y-50923694D01*
X59957361Y-50734210D01*
X59908872Y-50706261D01*
X59862471Y-50679518D01*
X59818685Y-50654285D01*
X59778038Y-50630865D01*
X59741055Y-50609560D01*
X59708262Y-50590672D01*
X59680184Y-50574503D01*
X59657347Y-50561357D01*
X59640274Y-50551536D01*
X59629493Y-50545343D01*
X59625531Y-50543082D01*
X59621469Y-50545235D01*
X59613195Y-50552382D01*
X59602158Y-50563217D01*
X59596167Y-50569494D01*
X59546507Y-50617303D01*
X59490188Y-50662112D01*
X59428784Y-50702889D01*
X59363870Y-50738603D01*
X59297021Y-50768220D01*
X59287025Y-50772036D01*
X59209344Y-50796596D01*
X59129765Y-50813140D01*
X59049010Y-50821702D01*
X58967800Y-50822318D01*
X58886858Y-50815021D01*
X58806904Y-50799847D01*
X58728662Y-50776831D01*
X58652851Y-50746006D01*
X58642284Y-50740978D01*
X58576165Y-50705388D01*
X58515433Y-50665048D01*
X58458217Y-50618612D01*
X58415800Y-50578283D01*
X58401753Y-50564260D01*
X58389909Y-50552778D01*
X58381492Y-50545001D01*
X58377727Y-50542090D01*
X58377700Y-50542090D01*
X58373805Y-50544190D01*
X58363106Y-50550229D01*
X58346128Y-50559906D01*
X58323396Y-50572918D01*
X58295435Y-50588966D01*
X58262769Y-50607747D01*
X58225922Y-50628959D01*
X58185419Y-50652301D01*
X58141785Y-50677471D01*
X58095544Y-50704168D01*
X58049617Y-50730705D01*
X58001332Y-50758630D01*
X57955132Y-50785380D01*
X57911545Y-50810646D01*
X57871099Y-50834121D01*
X57834322Y-50855498D01*
X57801741Y-50874470D01*
X57773884Y-50890729D01*
X57751279Y-50903968D01*
X57734454Y-50913879D01*
X57723937Y-50920155D01*
X57720273Y-50922468D01*
X57721644Y-50926704D01*
X57726928Y-50937504D01*
X57735712Y-50954154D01*
X57747584Y-50975940D01*
X57762130Y-51002148D01*
X57778937Y-51032064D01*
X57797591Y-51064973D01*
X57817680Y-51100163D01*
X57838791Y-51136919D01*
X57860509Y-51174528D01*
X57882423Y-51212274D01*
X57904119Y-51249445D01*
X57925184Y-51285326D01*
X57945204Y-51319204D01*
X57963767Y-51350364D01*
X57980460Y-51378093D01*
X57994868Y-51401677D01*
X58006580Y-51420401D01*
X58015181Y-51433552D01*
X58019475Y-51439494D01*
X58055527Y-51477640D01*
X58097543Y-51510648D01*
X58144180Y-51537659D01*
X58194096Y-51557811D01*
X58212600Y-51563219D01*
X58248583Y-51572684D01*
X59002117Y-51572684D01*
X59095991Y-51572681D01*
G36*
X59065156Y-50544836D02*
G01*
X59105125Y-50539032D01*
X59108939Y-50538247D01*
X59175259Y-50520005D01*
X59237774Y-50494510D01*
X59296007Y-50462189D01*
X59349484Y-50423472D01*
X59397726Y-50378786D01*
X59440259Y-50328559D01*
X59476606Y-50273221D01*
X59506290Y-50213197D01*
X59523978Y-50165100D01*
X59533581Y-50132276D01*
X59540396Y-50102285D01*
X59544803Y-50072429D01*
X59547183Y-50040012D01*
X59547918Y-50002334D01*
X59547909Y-49995767D01*
X59546975Y-49955957D01*
X59544183Y-49921613D01*
X59539076Y-49889848D01*
X59531198Y-49857779D01*
X59520801Y-49824615D01*
X59495374Y-49762298D01*
X59462920Y-49704245D01*
X59423987Y-49650940D01*
X59379122Y-49602865D01*
X59328874Y-49560501D01*
X59273790Y-49524332D01*
X59214419Y-49494839D01*
X59151307Y-49472506D01*
X59109160Y-49462182D01*
X59074508Y-49456649D01*
X59035925Y-49453036D01*
X58996623Y-49451490D01*
X58959809Y-49452158D01*
X58935845Y-49454193D01*
X58869717Y-49466510D01*
X58806363Y-49486481D01*
X58746360Y-49513638D01*
X58690288Y-49547514D01*
X58638726Y-49587642D01*
X58592253Y-49633555D01*
X58551448Y-49684786D01*
X58516891Y-49740867D01*
X58489159Y-49801332D01*
X58482316Y-49820084D01*
X58467556Y-49869585D01*
X58458153Y-49917895D01*
X58453556Y-49968381D01*
X58452876Y-50000000D01*
X58456554Y-50064848D01*
X58467355Y-50128406D01*
X58484927Y-50189138D01*
X58508919Y-50245505D01*
X58508944Y-50245554D01*
X58529197Y-50281145D01*
X58554398Y-50318357D01*
X58582378Y-50354225D01*
X58610970Y-50385781D01*
X58612535Y-50387350D01*
X58664228Y-50433078D01*
X58720225Y-50471571D01*
X58780219Y-50502661D01*
X58843901Y-50526183D01*
X58890215Y-50537993D01*
X58930125Y-50544205D01*
X58974614Y-50547419D01*
X59020638Y-50547630D01*
X59065156Y-50544836D01*
G37*
X59065156Y-50544836D02*
X59105125Y-50539032D01*
X59108939Y-50538247D01*
X59175259Y-50520005D01*
X59237774Y-50494510D01*
X59296007Y-50462189D01*
X59349484Y-50423472D01*
X59397726Y-50378786D01*
X59440259Y-50328559D01*
X59476606Y-50273221D01*
X59506290Y-50213197D01*
X59523978Y-50165100D01*
X59533581Y-50132276D01*
X59540396Y-50102285D01*
X59544803Y-50072429D01*
X59547183Y-50040012D01*
X59547918Y-50002334D01*
X59547909Y-49995767D01*
X59546975Y-49955957D01*
X59544183Y-49921613D01*
X59539076Y-49889848D01*
X59531198Y-49857779D01*
X59520801Y-49824615D01*
X59495374Y-49762298D01*
X59462920Y-49704245D01*
X59423987Y-49650940D01*
X59379122Y-49602865D01*
X59328874Y-49560501D01*
X59273790Y-49524332D01*
X59214419Y-49494839D01*
X59151307Y-49472506D01*
X59109160Y-49462182D01*
X59074508Y-49456649D01*
X59035925Y-49453036D01*
X58996623Y-49451490D01*
X58959809Y-49452158D01*
X58935845Y-49454193D01*
X58869717Y-49466510D01*
X58806363Y-49486481D01*
X58746360Y-49513638D01*
X58690288Y-49547514D01*
X58638726Y-49587642D01*
X58592253Y-49633555D01*
X58551448Y-49684786D01*
X58516891Y-49740867D01*
X58489159Y-49801332D01*
X58482316Y-49820084D01*
X58467556Y-49869585D01*
X58458153Y-49917895D01*
X58453556Y-49968381D01*
X58452876Y-50000000D01*
X58456554Y-50064848D01*
X58467355Y-50128406D01*
X58484927Y-50189138D01*
X58508919Y-50245505D01*
X58508944Y-50245554D01*
X58529197Y-50281145D01*
X58554398Y-50318357D01*
X58582378Y-50354225D01*
X58610970Y-50385781D01*
X58612535Y-50387350D01*
X58664228Y-50433078D01*
X58720225Y-50471571D01*
X58780219Y-50502661D01*
X58843901Y-50526183D01*
X58890215Y-50537993D01*
X58930125Y-50544205D01*
X58974614Y-50547419D01*
X59020638Y-50547630D01*
X59065156Y-50544836D01*
G36*
X60444873Y-50644084D02*
G01*
X60451466Y-50633856D01*
X60461384Y-50617702D01*
X60474208Y-50596346D01*
X60489523Y-50570512D01*
X60506912Y-50540925D01*
X60525957Y-50508309D01*
X60546242Y-50473389D01*
X60567351Y-50436890D01*
X60588865Y-50399535D01*
X60610370Y-50362049D01*
X60631447Y-50325157D01*
X60651680Y-50289583D01*
X60670652Y-50256051D01*
X60687947Y-50225287D01*
X60703147Y-50198014D01*
X60715836Y-50174958D01*
X60725597Y-50156842D01*
X60732013Y-50144390D01*
X60733979Y-50140185D01*
X60750003Y-50092571D01*
X60759074Y-50041859D01*
X60761193Y-49989769D01*
X60756359Y-49938024D01*
X60744572Y-49888343D01*
X60734023Y-49859917D01*
X60730476Y-49852909D01*
X60722951Y-49839051D01*
X60711720Y-49818814D01*
X60697056Y-49792670D01*
X60679229Y-49761092D01*
X60658513Y-49724552D01*
X60635179Y-49683522D01*
X60609498Y-49638474D01*
X60581744Y-49589881D01*
X60552187Y-49538214D01*
X60521099Y-49483946D01*
X60488753Y-49427549D01*
X60455420Y-49369495D01*
X60421373Y-49310256D01*
X60386882Y-49250305D01*
X60352221Y-49190114D01*
X60317660Y-49130154D01*
X60283473Y-49070899D01*
X60249930Y-49012820D01*
X60217304Y-48956389D01*
X60185866Y-48902078D01*
X60155889Y-48850361D01*
X60127644Y-48801708D01*
X60101403Y-48756593D01*
X60077438Y-48715487D01*
X60056022Y-48678862D01*
X60037425Y-48647191D01*
X60021920Y-48620946D01*
X60009779Y-48600599D01*
X60001273Y-48586622D01*
X59996825Y-48579699D01*
X59970740Y-48547786D01*
X59938865Y-48517091D01*
X59903445Y-48489408D01*
X59866724Y-48466529D01*
X59838200Y-48453002D01*
X59826496Y-48448263D01*
X59816243Y-48444153D01*
X59806775Y-48440625D01*
X59797423Y-48437631D01*
X59787520Y-48435125D01*
X59776398Y-48433059D01*
X59763391Y-48431385D01*
X59747829Y-48430057D01*
X59729047Y-48429027D01*
X59706375Y-48428247D01*
X59679148Y-48427671D01*
X59646696Y-48427251D01*
X59608353Y-48426941D01*
X59563451Y-48426691D01*
X59511323Y-48426456D01*
X59460375Y-48426230D01*
X59156633Y-48424834D01*
X59156633Y-49190243D01*
X59200917Y-49201290D01*
X59279815Y-49225255D01*
X59355228Y-49256724D01*
X59426708Y-49295296D01*
X59493805Y-49340572D01*
X59556072Y-49392150D01*
X59613057Y-49449633D01*
X59664314Y-49512618D01*
X59709392Y-49580706D01*
X59747844Y-49653497D01*
X59771715Y-49710017D01*
X59791820Y-49769083D01*
X59806561Y-49827066D01*
X59816343Y-49886262D01*
X59821569Y-49948970D01*
X59822744Y-50000000D01*
X59822278Y-50042230D01*
X59820572Y-50078644D01*
X59817300Y-50111842D01*
X59812134Y-50144428D01*
X59804747Y-50179001D01*
X59795753Y-50214630D01*
X59790774Y-50233717D01*
X59786726Y-50249869D01*
X59784046Y-50261292D01*
X59783167Y-50266084D01*
X59786567Y-50270160D01*
X59795395Y-50276650D01*
X59805392Y-50282774D01*
X59817419Y-50289657D01*
X59834647Y-50299568D01*
X59854957Y-50311284D01*
X59876227Y-50323584D01*
X59880534Y-50326078D01*
X59903294Y-50339253D01*
X59931899Y-50355793D01*
X59965342Y-50375117D01*
X60002615Y-50396645D01*
X60042711Y-50419794D01*
X60084624Y-50443986D01*
X60127345Y-50468637D01*
X60169869Y-50493168D01*
X60211188Y-50516997D01*
X60250294Y-50539543D01*
X60286182Y-50560225D01*
X60317843Y-50578462D01*
X60344271Y-50593674D01*
X60364459Y-50605278D01*
X60365820Y-50606060D01*
X60388261Y-50618838D01*
X60408253Y-50630025D01*
X60424621Y-50638979D01*
X60436188Y-50645058D01*
X60441778Y-50647619D01*
X60442020Y-50647660D01*
X60444873Y-50644084D01*
G37*
X60444873Y-50644084D02*
X60451466Y-50633856D01*
X60461384Y-50617702D01*
X60474208Y-50596346D01*
X60489523Y-50570512D01*
X60506912Y-50540925D01*
X60525957Y-50508309D01*
X60546242Y-50473389D01*
X60567351Y-50436890D01*
X60588865Y-50399535D01*
X60610370Y-50362049D01*
X60631447Y-50325157D01*
X60651680Y-50289583D01*
X60670652Y-50256051D01*
X60687947Y-50225287D01*
X60703147Y-50198014D01*
X60715836Y-50174958D01*
X60725597Y-50156842D01*
X60732013Y-50144390D01*
X60733979Y-50140185D01*
X60750003Y-50092571D01*
X60759074Y-50041859D01*
X60761193Y-49989769D01*
X60756359Y-49938024D01*
X60744572Y-49888343D01*
X60734023Y-49859917D01*
X60730476Y-49852909D01*
X60722951Y-49839051D01*
X60711720Y-49818814D01*
X60697056Y-49792670D01*
X60679229Y-49761092D01*
X60658513Y-49724552D01*
X60635179Y-49683522D01*
X60609498Y-49638474D01*
X60581744Y-49589881D01*
X60552187Y-49538214D01*
X60521099Y-49483946D01*
X60488753Y-49427549D01*
X60455420Y-49369495D01*
X60421373Y-49310256D01*
X60386882Y-49250305D01*
X60352221Y-49190114D01*
X60317660Y-49130154D01*
X60283473Y-49070899D01*
X60249930Y-49012820D01*
X60217304Y-48956389D01*
X60185866Y-48902078D01*
X60155889Y-48850361D01*
X60127644Y-48801708D01*
X60101403Y-48756593D01*
X60077438Y-48715487D01*
X60056022Y-48678862D01*
X60037425Y-48647191D01*
X60021920Y-48620946D01*
X60009779Y-48600599D01*
X60001273Y-48586622D01*
X59996825Y-48579699D01*
X59970740Y-48547786D01*
X59938865Y-48517091D01*
X59903445Y-48489408D01*
X59866724Y-48466529D01*
X59838200Y-48453002D01*
X59826496Y-48448263D01*
X59816243Y-48444153D01*
X59806775Y-48440625D01*
X59797423Y-48437631D01*
X59787520Y-48435125D01*
X59776398Y-48433059D01*
X59763391Y-48431385D01*
X59747829Y-48430057D01*
X59729047Y-48429027D01*
X59706375Y-48428247D01*
X59679148Y-48427671D01*
X59646696Y-48427251D01*
X59608353Y-48426941D01*
X59563451Y-48426691D01*
X59511323Y-48426456D01*
X59460375Y-48426230D01*
X59156633Y-48424834D01*
X59156633Y-49190243D01*
X59200917Y-49201290D01*
X59279815Y-49225255D01*
X59355228Y-49256724D01*
X59426708Y-49295296D01*
X59493805Y-49340572D01*
X59556072Y-49392150D01*
X59613057Y-49449633D01*
X59664314Y-49512618D01*
X59709392Y-49580706D01*
X59747844Y-49653497D01*
X59771715Y-49710017D01*
X59791820Y-49769083D01*
X59806561Y-49827066D01*
X59816343Y-49886262D01*
X59821569Y-49948970D01*
X59822744Y-50000000D01*
X59822278Y-50042230D01*
X59820572Y-50078644D01*
X59817300Y-50111842D01*
X59812134Y-50144428D01*
X59804747Y-50179001D01*
X59795753Y-50214630D01*
X59790774Y-50233717D01*
X59786726Y-50249869D01*
X59784046Y-50261292D01*
X59783167Y-50266084D01*
X59786567Y-50270160D01*
X59795395Y-50276650D01*
X59805392Y-50282774D01*
X59817419Y-50289657D01*
X59834647Y-50299568D01*
X59854957Y-50311284D01*
X59876227Y-50323584D01*
X59880534Y-50326078D01*
X59903294Y-50339253D01*
X59931899Y-50355793D01*
X59965342Y-50375117D01*
X60002615Y-50396645D01*
X60042711Y-50419794D01*
X60084624Y-50443986D01*
X60127345Y-50468637D01*
X60169869Y-50493168D01*
X60211188Y-50516997D01*
X60250294Y-50539543D01*
X60286182Y-50560225D01*
X60317843Y-50578462D01*
X60344271Y-50593674D01*
X60364459Y-50605278D01*
X60365820Y-50606060D01*
X60388261Y-50618838D01*
X60408253Y-50630025D01*
X60424621Y-50638979D01*
X60436188Y-50645058D01*
X60441778Y-50647619D01*
X60442020Y-50647660D01*
X60444873Y-50644084D01*
G36*
X57561616Y-50648565D02*
G01*
X57571924Y-50642793D01*
X57588186Y-50633564D01*
X57609713Y-50621272D01*
X57635820Y-50606310D01*
X57665820Y-50589072D01*
X57699025Y-50569950D01*
X57734749Y-50549337D01*
X57746933Y-50542298D01*
X57789896Y-50517476D01*
X57835951Y-50490875D01*
X57883518Y-50463407D01*
X57931020Y-50435983D01*
X57976878Y-50409514D01*
X58019513Y-50384912D01*
X58057347Y-50363089D01*
X58077133Y-50351680D01*
X58108637Y-50333508D01*
X58137772Y-50316686D01*
X58163739Y-50301675D01*
X58185738Y-50288939D01*
X58202972Y-50278939D01*
X58214640Y-50272139D01*
X58219944Y-50269001D01*
X58220176Y-50268849D01*
X58219566Y-50264613D01*
X58216966Y-50253970D01*
X58212816Y-50238624D01*
X58208597Y-50223846D01*
X58199051Y-50188667D01*
X58191825Y-50155786D01*
X58186581Y-50122834D01*
X58182980Y-50087444D01*
X58180682Y-50047247D01*
X58179877Y-50023188D01*
X58179688Y-49963401D01*
X58182800Y-49909037D01*
X58189552Y-49857585D01*
X58200281Y-49806536D01*
X58215327Y-49753380D01*
X58216997Y-49748117D01*
X58245564Y-49672389D01*
X58281399Y-49600252D01*
X58323990Y-49532180D01*
X58372821Y-49468648D01*
X58427380Y-49410129D01*
X58487153Y-49357098D01*
X58551625Y-49310030D01*
X58620285Y-49269397D01*
X58692617Y-49235674D01*
X58768109Y-49209336D01*
X58813414Y-49197568D01*
X58843367Y-49190755D01*
X58843367Y-48425200D01*
X58552325Y-48425537D01*
X58492475Y-48425639D01*
X58440518Y-48425803D01*
X58395878Y-48426041D01*
X58357983Y-48426364D01*
X58326257Y-48426784D01*
X58300128Y-48427311D01*
X58279020Y-48427956D01*
X58262359Y-48428731D01*
X58249572Y-48429648D01*
X58240083Y-48430717D01*
X58234245Y-48431739D01*
X58178297Y-48447843D01*
X58127227Y-48470765D01*
X58081219Y-48500384D01*
X58040454Y-48536580D01*
X58005116Y-48579233D01*
X57999989Y-48586632D01*
X57995336Y-48594064D01*
X57986777Y-48608320D01*
X57974589Y-48628924D01*
X57959044Y-48655400D01*
X57940417Y-48687272D01*
X57918982Y-48724063D01*
X57895014Y-48765299D01*
X57868785Y-48810502D01*
X57840571Y-48859196D01*
X57810645Y-48910907D01*
X57779282Y-48965157D01*
X57746756Y-49021471D01*
X57713341Y-49079372D01*
X57679311Y-49138385D01*
X57644940Y-49198033D01*
X57610502Y-49257841D01*
X57576272Y-49317332D01*
X57542523Y-49376031D01*
X57509531Y-49433461D01*
X57477568Y-49489146D01*
X57446908Y-49542611D01*
X57417827Y-49593379D01*
X57390599Y-49640974D01*
X57365496Y-49684920D01*
X57342794Y-49724742D01*
X57322767Y-49759962D01*
X57305689Y-49790106D01*
X57291833Y-49814696D01*
X57281474Y-49833258D01*
X57274887Y-49845314D01*
X57272625Y-49849717D01*
X57259463Y-49880880D01*
X57250319Y-49910020D01*
X57244650Y-49939830D01*
X57241913Y-49973002D01*
X57241474Y-50004234D01*
X57241901Y-50029743D01*
X57242961Y-50049356D01*
X57244969Y-50065636D01*
X57248245Y-50081148D01*
X57253104Y-50098457D01*
X57253154Y-50098623D01*
X57260014Y-50119267D01*
X57268070Y-50140485D01*
X57275808Y-50158342D01*
X57277357Y-50161507D01*
X57280816Y-50167870D01*
X57287951Y-50180602D01*
X57298335Y-50198959D01*
X57311539Y-50222195D01*
X57327137Y-50249567D01*
X57344701Y-50280327D01*
X57363802Y-50313732D01*
X57384015Y-50349036D01*
X57404910Y-50385493D01*
X57426061Y-50422360D01*
X57447039Y-50458890D01*
X57467418Y-50494338D01*
X57486769Y-50527960D01*
X57504665Y-50559010D01*
X57520679Y-50586743D01*
X57534383Y-50610414D01*
X57545349Y-50629278D01*
X57553149Y-50642589D01*
X57557357Y-50649602D01*
X57557948Y-50650488D01*
X57561616Y-50648565D01*
G37*
X57561616Y-50648565D02*
X57571924Y-50642793D01*
X57588186Y-50633564D01*
X57609713Y-50621272D01*
X57635820Y-50606310D01*
X57665820Y-50589072D01*
X57699025Y-50569950D01*
X57734749Y-50549337D01*
X57746933Y-50542298D01*
X57789896Y-50517476D01*
X57835951Y-50490875D01*
X57883518Y-50463407D01*
X57931020Y-50435983D01*
X57976878Y-50409514D01*
X58019513Y-50384912D01*
X58057347Y-50363089D01*
X58077133Y-50351680D01*
X58108637Y-50333508D01*
X58137772Y-50316686D01*
X58163739Y-50301675D01*
X58185738Y-50288939D01*
X58202972Y-50278939D01*
X58214640Y-50272139D01*
X58219944Y-50269001D01*
X58220176Y-50268849D01*
X58219566Y-50264613D01*
X58216966Y-50253970D01*
X58212816Y-50238624D01*
X58208597Y-50223846D01*
X58199051Y-50188667D01*
X58191825Y-50155786D01*
X58186581Y-50122834D01*
X58182980Y-50087444D01*
X58180682Y-50047247D01*
X58179877Y-50023188D01*
X58179688Y-49963401D01*
X58182800Y-49909037D01*
X58189552Y-49857585D01*
X58200281Y-49806536D01*
X58215327Y-49753380D01*
X58216997Y-49748117D01*
X58245564Y-49672389D01*
X58281399Y-49600252D01*
X58323990Y-49532180D01*
X58372821Y-49468648D01*
X58427380Y-49410129D01*
X58487153Y-49357098D01*
X58551625Y-49310030D01*
X58620285Y-49269397D01*
X58692617Y-49235674D01*
X58768109Y-49209336D01*
X58813414Y-49197568D01*
X58843367Y-49190755D01*
X58843367Y-48425200D01*
X58552325Y-48425537D01*
X58492475Y-48425639D01*
X58440518Y-48425803D01*
X58395878Y-48426041D01*
X58357983Y-48426364D01*
X58326257Y-48426784D01*
X58300128Y-48427311D01*
X58279020Y-48427956D01*
X58262359Y-48428731D01*
X58249572Y-48429648D01*
X58240083Y-48430717D01*
X58234245Y-48431739D01*
X58178297Y-48447843D01*
X58127227Y-48470765D01*
X58081219Y-48500384D01*
X58040454Y-48536580D01*
X58005116Y-48579233D01*
X57999989Y-48586632D01*
X57995336Y-48594064D01*
X57986777Y-48608320D01*
X57974589Y-48628924D01*
X57959044Y-48655400D01*
X57940417Y-48687272D01*
X57918982Y-48724063D01*
X57895014Y-48765299D01*
X57868785Y-48810502D01*
X57840571Y-48859196D01*
X57810645Y-48910907D01*
X57779282Y-48965157D01*
X57746756Y-49021471D01*
X57713341Y-49079372D01*
X57679311Y-49138385D01*
X57644940Y-49198033D01*
X57610502Y-49257841D01*
X57576272Y-49317332D01*
X57542523Y-49376031D01*
X57509531Y-49433461D01*
X57477568Y-49489146D01*
X57446908Y-49542611D01*
X57417827Y-49593379D01*
X57390599Y-49640974D01*
X57365496Y-49684920D01*
X57342794Y-49724742D01*
X57322767Y-49759962D01*
X57305689Y-49790106D01*
X57291833Y-49814696D01*
X57281474Y-49833258D01*
X57274887Y-49845314D01*
X57272625Y-49849717D01*
X57259463Y-49880880D01*
X57250319Y-49910020D01*
X57244650Y-49939830D01*
X57241913Y-49973002D01*
X57241474Y-50004234D01*
X57241901Y-50029743D01*
X57242961Y-50049356D01*
X57244969Y-50065636D01*
X57248245Y-50081148D01*
X57253104Y-50098457D01*
X57253154Y-50098623D01*
X57260014Y-50119267D01*
X57268070Y-50140485D01*
X57275808Y-50158342D01*
X57277357Y-50161507D01*
X57280816Y-50167870D01*
X57287951Y-50180602D01*
X57298335Y-50198959D01*
X57311539Y-50222195D01*
X57327137Y-50249567D01*
X57344701Y-50280327D01*
X57363802Y-50313732D01*
X57384015Y-50349036D01*
X57404910Y-50385493D01*
X57426061Y-50422360D01*
X57447039Y-50458890D01*
X57467418Y-50494338D01*
X57486769Y-50527960D01*
X57504665Y-50559010D01*
X57520679Y-50586743D01*
X57534383Y-50610414D01*
X57545349Y-50629278D01*
X57553149Y-50642589D01*
X57557357Y-50649602D01*
X57557948Y-50650488D01*
X57561616Y-50648565D01*
%TD*%
D11*
%TO.C,J3*%
X50960000Y-47110000D03*
X50960000Y-52890000D03*
%TD*%
%TO.C,J6*%
G36*
G01*
X82816765Y-47980000D02*
X81183235Y-47980000D01*
G75*
G02*
X80895000Y-47691765I0J288235D01*
G01*
X80895000Y-46308235D01*
G75*
G02*
X81183235Y-46020000I288235J0D01*
G01*
X82816765Y-46020000D01*
G75*
G02*
X83105000Y-46308235I0J-288235D01*
G01*
X83105000Y-47691765D01*
G75*
G02*
X82816765Y-47980000I-288235J0D01*
G01*
G37*
D12*
X82000000Y-44500000D03*
X82000000Y-42000000D03*
X82000000Y-39500000D03*
%TD*%
%TO.C,J7*%
X82000000Y-53000000D03*
X82000000Y-55500000D03*
X82000000Y-58000000D03*
G36*
G01*
X82816765Y-61480000D02*
X81183235Y-61480000D01*
G75*
G02*
X80895000Y-61191765I0J288235D01*
G01*
X80895000Y-59808235D01*
G75*
G02*
X81183235Y-59520000I288235J0D01*
G01*
X82816765Y-59520000D01*
G75*
G02*
X83105000Y-59808235I0J-288235D01*
G01*
X83105000Y-61191765D01*
G75*
G02*
X82816765Y-61480000I-288235J0D01*
G01*
G37*
%TD*%
%TO.C,J4*%
G36*
G01*
X86150951Y-46745000D02*
X88849049Y-46745000D01*
G75*
G02*
X89130000Y-47025951I0J-280951D01*
G01*
X89130000Y-48824049D01*
G75*
G02*
X88849049Y-49105000I-280951J0D01*
G01*
X86150951Y-49105000D01*
G75*
G02*
X85870000Y-48824049I0J280951D01*
G01*
X85870000Y-47025951D01*
G75*
G02*
X86150951Y-46745000I280951J0D01*
G01*
G37*
G36*
G01*
X86150951Y-37895000D02*
X88849049Y-37895000D01*
G75*
G02*
X89130000Y-38175951I0J-280951D01*
G01*
X89130000Y-39974049D01*
G75*
G02*
X88849049Y-40255000I-280951J0D01*
G01*
X86150951Y-40255000D01*
G75*
G02*
X85870000Y-39974049I0J280951D01*
G01*
X85870000Y-38175951D01*
G75*
G02*
X86150951Y-37895000I280951J0D01*
G01*
G37*
G36*
G01*
X83935000Y-44845000D02*
X85265000Y-44845000D01*
G75*
G02*
X85530000Y-45110000I0J-265000D01*
G01*
X85530000Y-45640000D01*
G75*
G02*
X85265000Y-45905000I-265000J0D01*
G01*
X83935000Y-45905000D01*
G75*
G02*
X83670000Y-45640000I0J265000D01*
G01*
X83670000Y-45110000D01*
G75*
G02*
X83935000Y-44845000I265000J0D01*
G01*
G37*
G36*
G01*
X83935000Y-43595000D02*
X85265000Y-43595000D01*
G75*
G02*
X85530000Y-43860000I0J-265000D01*
G01*
X85530000Y-44390000D01*
G75*
G02*
X85265000Y-44655000I-265000J0D01*
G01*
X83935000Y-44655000D01*
G75*
G02*
X83670000Y-44390000I0J265000D01*
G01*
X83670000Y-43860000D01*
G75*
G02*
X83935000Y-43595000I265000J0D01*
G01*
G37*
G36*
G01*
X83935000Y-42345000D02*
X85265000Y-42345000D01*
G75*
G02*
X85530000Y-42610000I0J-265000D01*
G01*
X85530000Y-43140000D01*
G75*
G02*
X85265000Y-43405000I-265000J0D01*
G01*
X83935000Y-43405000D01*
G75*
G02*
X83670000Y-43140000I0J265000D01*
G01*
X83670000Y-42610000D01*
G75*
G02*
X83935000Y-42345000I265000J0D01*
G01*
G37*
G36*
G01*
X83935000Y-41095000D02*
X85265000Y-41095000D01*
G75*
G02*
X85530000Y-41360000I0J-265000D01*
G01*
X85530000Y-41890000D01*
G75*
G02*
X85265000Y-42155000I-265000J0D01*
G01*
X83935000Y-42155000D01*
G75*
G02*
X83670000Y-41890000I0J265000D01*
G01*
X83670000Y-41360000D01*
G75*
G02*
X83935000Y-41095000I265000J0D01*
G01*
G37*
%TD*%
%TO.C,J5*%
G36*
G01*
X83935000Y-54095000D02*
X85265000Y-54095000D01*
G75*
G02*
X85530000Y-54360000I0J-265000D01*
G01*
X85530000Y-54890000D01*
G75*
G02*
X85265000Y-55155000I-265000J0D01*
G01*
X83935000Y-55155000D01*
G75*
G02*
X83670000Y-54890000I0J265000D01*
G01*
X83670000Y-54360000D01*
G75*
G02*
X83935000Y-54095000I265000J0D01*
G01*
G37*
G36*
G01*
X83935000Y-55345000D02*
X85265000Y-55345000D01*
G75*
G02*
X85530000Y-55610000I0J-265000D01*
G01*
X85530000Y-56140000D01*
G75*
G02*
X85265000Y-56405000I-265000J0D01*
G01*
X83935000Y-56405000D01*
G75*
G02*
X83670000Y-56140000I0J265000D01*
G01*
X83670000Y-55610000D01*
G75*
G02*
X83935000Y-55345000I265000J0D01*
G01*
G37*
G36*
G01*
X83935000Y-56595000D02*
X85265000Y-56595000D01*
G75*
G02*
X85530000Y-56860000I0J-265000D01*
G01*
X85530000Y-57390000D01*
G75*
G02*
X85265000Y-57655000I-265000J0D01*
G01*
X83935000Y-57655000D01*
G75*
G02*
X83670000Y-57390000I0J265000D01*
G01*
X83670000Y-56860000D01*
G75*
G02*
X83935000Y-56595000I265000J0D01*
G01*
G37*
G36*
G01*
X83935000Y-57845000D02*
X85265000Y-57845000D01*
G75*
G02*
X85530000Y-58110000I0J-265000D01*
G01*
X85530000Y-58640000D01*
G75*
G02*
X85265000Y-58905000I-265000J0D01*
G01*
X83935000Y-58905000D01*
G75*
G02*
X83670000Y-58640000I0J265000D01*
G01*
X83670000Y-58110000D01*
G75*
G02*
X83935000Y-57845000I265000J0D01*
G01*
G37*
G36*
G01*
X86150951Y-50895000D02*
X88849049Y-50895000D01*
G75*
G02*
X89130000Y-51175951I0J-280951D01*
G01*
X89130000Y-52974049D01*
G75*
G02*
X88849049Y-53255000I-280951J0D01*
G01*
X86150951Y-53255000D01*
G75*
G02*
X85870000Y-52974049I0J280951D01*
G01*
X85870000Y-51175951D01*
G75*
G02*
X86150951Y-50895000I280951J0D01*
G01*
G37*
G36*
G01*
X86150951Y-59745000D02*
X88849049Y-59745000D01*
G75*
G02*
X89130000Y-60025951I0J-280951D01*
G01*
X89130000Y-61824049D01*
G75*
G02*
X88849049Y-62105000I-280951J0D01*
G01*
X86150951Y-62105000D01*
G75*
G02*
X85870000Y-61824049I0J280951D01*
G01*
X85870000Y-60025951D01*
G75*
G02*
X86150951Y-59745000I280951J0D01*
G01*
G37*
%TD*%
%TO.C,J1*%
G36*
G01*
X73780000Y-57185000D02*
X73780000Y-58515000D01*
G75*
G02*
X73515000Y-58780000I-265000J0D01*
G01*
X72985000Y-58780000D01*
G75*
G02*
X72720000Y-58515000I0J265000D01*
G01*
X72720000Y-57185000D01*
G75*
G02*
X72985000Y-56920000I265000J0D01*
G01*
X73515000Y-56920000D01*
G75*
G02*
X73780000Y-57185000I0J-265000D01*
G01*
G37*
G36*
G01*
X72530000Y-57185000D02*
X72530000Y-58515000D01*
G75*
G02*
X72265000Y-58780000I-265000J0D01*
G01*
X71735000Y-58780000D01*
G75*
G02*
X71470000Y-58515000I0J265000D01*
G01*
X71470000Y-57185000D01*
G75*
G02*
X71735000Y-56920000I265000J0D01*
G01*
X72265000Y-56920000D01*
G75*
G02*
X72530000Y-57185000I0J-265000D01*
G01*
G37*
G36*
G01*
X71280000Y-57185000D02*
X71280000Y-58515000D01*
G75*
G02*
X71015000Y-58780000I-265000J0D01*
G01*
X70485000Y-58780000D01*
G75*
G02*
X70220000Y-58515000I0J265000D01*
G01*
X70220000Y-57185000D01*
G75*
G02*
X70485000Y-56920000I265000J0D01*
G01*
X71015000Y-56920000D01*
G75*
G02*
X71280000Y-57185000I0J-265000D01*
G01*
G37*
G36*
G01*
X70030000Y-57185000D02*
X70030000Y-58515000D01*
G75*
G02*
X69765000Y-58780000I-265000J0D01*
G01*
X69235000Y-58780000D01*
G75*
G02*
X68970000Y-58515000I0J265000D01*
G01*
X68970000Y-57185000D01*
G75*
G02*
X69235000Y-56920000I265000J0D01*
G01*
X69765000Y-56920000D01*
G75*
G02*
X70030000Y-57185000I0J-265000D01*
G01*
G37*
G36*
G01*
X68780000Y-57185000D02*
X68780000Y-58515000D01*
G75*
G02*
X68515000Y-58780000I-265000J0D01*
G01*
X67985000Y-58780000D01*
G75*
G02*
X67720000Y-58515000I0J265000D01*
G01*
X67720000Y-57185000D01*
G75*
G02*
X67985000Y-56920000I265000J0D01*
G01*
X68515000Y-56920000D01*
G75*
G02*
X68780000Y-57185000I0J-265000D01*
G01*
G37*
G36*
G01*
X67530000Y-57185000D02*
X67530000Y-58515000D01*
G75*
G02*
X67265000Y-58780000I-265000J0D01*
G01*
X66735000Y-58780000D01*
G75*
G02*
X66470000Y-58515000I0J265000D01*
G01*
X66470000Y-57185000D01*
G75*
G02*
X66735000Y-56920000I265000J0D01*
G01*
X67265000Y-56920000D01*
G75*
G02*
X67530000Y-57185000I0J-265000D01*
G01*
G37*
G36*
G01*
X66280000Y-57185000D02*
X66280000Y-58515000D01*
G75*
G02*
X66015000Y-58780000I-265000J0D01*
G01*
X65485000Y-58780000D01*
G75*
G02*
X65220000Y-58515000I0J265000D01*
G01*
X65220000Y-57185000D01*
G75*
G02*
X65485000Y-56920000I265000J0D01*
G01*
X66015000Y-56920000D01*
G75*
G02*
X66280000Y-57185000I0J-265000D01*
G01*
G37*
G36*
G01*
X76980000Y-59400951D02*
X76980000Y-62099049D01*
G75*
G02*
X76699049Y-62380000I-280951J0D01*
G01*
X74900951Y-62380000D01*
G75*
G02*
X74620000Y-62099049I0J280951D01*
G01*
X74620000Y-59400951D01*
G75*
G02*
X74900951Y-59120000I280951J0D01*
G01*
X76699049Y-59120000D01*
G75*
G02*
X76980000Y-59400951I0J-280951D01*
G01*
G37*
G36*
G01*
X64380000Y-59400951D02*
X64380000Y-62099049D01*
G75*
G02*
X64099049Y-62380000I-280951J0D01*
G01*
X62300951Y-62380000D01*
G75*
G02*
X62020000Y-62099049I0J280951D01*
G01*
X62020000Y-59400951D01*
G75*
G02*
X62300951Y-59120000I280951J0D01*
G01*
X64099049Y-59120000D01*
G75*
G02*
X64380000Y-59400951I0J-280951D01*
G01*
G37*
%TD*%
%TO.C,J2*%
G36*
G01*
X67095000Y-42815000D02*
X67095000Y-41485000D01*
G75*
G02*
X67360000Y-41220000I265000J0D01*
G01*
X67890000Y-41220000D01*
G75*
G02*
X68155000Y-41485000I0J-265000D01*
G01*
X68155000Y-42815000D01*
G75*
G02*
X67890000Y-43080000I-265000J0D01*
G01*
X67360000Y-43080000D01*
G75*
G02*
X67095000Y-42815000I0J265000D01*
G01*
G37*
G36*
G01*
X68345000Y-42815000D02*
X68345000Y-41485000D01*
G75*
G02*
X68610000Y-41220000I265000J0D01*
G01*
X69140000Y-41220000D01*
G75*
G02*
X69405000Y-41485000I0J-265000D01*
G01*
X69405000Y-42815000D01*
G75*
G02*
X69140000Y-43080000I-265000J0D01*
G01*
X68610000Y-43080000D01*
G75*
G02*
X68345000Y-42815000I0J265000D01*
G01*
G37*
G36*
G01*
X69595000Y-42815000D02*
X69595000Y-41485000D01*
G75*
G02*
X69860000Y-41220000I265000J0D01*
G01*
X70390000Y-41220000D01*
G75*
G02*
X70655000Y-41485000I0J-265000D01*
G01*
X70655000Y-42815000D01*
G75*
G02*
X70390000Y-43080000I-265000J0D01*
G01*
X69860000Y-43080000D01*
G75*
G02*
X69595000Y-42815000I0J265000D01*
G01*
G37*
G36*
G01*
X70845000Y-42815000D02*
X70845000Y-41485000D01*
G75*
G02*
X71110000Y-41220000I265000J0D01*
G01*
X71640000Y-41220000D01*
G75*
G02*
X71905000Y-41485000I0J-265000D01*
G01*
X71905000Y-42815000D01*
G75*
G02*
X71640000Y-43080000I-265000J0D01*
G01*
X71110000Y-43080000D01*
G75*
G02*
X70845000Y-42815000I0J265000D01*
G01*
G37*
G36*
G01*
X63895000Y-40599049D02*
X63895000Y-37900951D01*
G75*
G02*
X64175951Y-37620000I280951J0D01*
G01*
X65974049Y-37620000D01*
G75*
G02*
X66255000Y-37900951I0J-280951D01*
G01*
X66255000Y-40599049D01*
G75*
G02*
X65974049Y-40880000I-280951J0D01*
G01*
X64175951Y-40880000D01*
G75*
G02*
X63895000Y-40599049I0J280951D01*
G01*
G37*
G36*
G01*
X72745000Y-40599049D02*
X72745000Y-37900951D01*
G75*
G02*
X73025951Y-37620000I280951J0D01*
G01*
X74824049Y-37620000D01*
G75*
G02*
X75105000Y-37900951I0J-280951D01*
G01*
X75105000Y-40599049D01*
G75*
G02*
X74824049Y-40880000I-280951J0D01*
G01*
X73025951Y-40880000D01*
G75*
G02*
X72745000Y-40599049I0J280951D01*
G01*
G37*
%TD*%
%TO.C,J8*%
G36*
G01*
X51220000Y-42815000D02*
X51220000Y-41485000D01*
G75*
G02*
X51485000Y-41220000I265000J0D01*
G01*
X52015000Y-41220000D01*
G75*
G02*
X52280000Y-41485000I0J-265000D01*
G01*
X52280000Y-42815000D01*
G75*
G02*
X52015000Y-43080000I-265000J0D01*
G01*
X51485000Y-43080000D01*
G75*
G02*
X51220000Y-42815000I0J265000D01*
G01*
G37*
G36*
G01*
X52470000Y-42815000D02*
X52470000Y-41485000D01*
G75*
G02*
X52735000Y-41220000I265000J0D01*
G01*
X53265000Y-41220000D01*
G75*
G02*
X53530000Y-41485000I0J-265000D01*
G01*
X53530000Y-42815000D01*
G75*
G02*
X53265000Y-43080000I-265000J0D01*
G01*
X52735000Y-43080000D01*
G75*
G02*
X52470000Y-42815000I0J265000D01*
G01*
G37*
G36*
G01*
X53720000Y-42815000D02*
X53720000Y-41485000D01*
G75*
G02*
X53985000Y-41220000I265000J0D01*
G01*
X54515000Y-41220000D01*
G75*
G02*
X54780000Y-41485000I0J-265000D01*
G01*
X54780000Y-42815000D01*
G75*
G02*
X54515000Y-43080000I-265000J0D01*
G01*
X53985000Y-43080000D01*
G75*
G02*
X53720000Y-42815000I0J265000D01*
G01*
G37*
G36*
G01*
X54970000Y-42815000D02*
X54970000Y-41485000D01*
G75*
G02*
X55235000Y-41220000I265000J0D01*
G01*
X55765000Y-41220000D01*
G75*
G02*
X56030000Y-41485000I0J-265000D01*
G01*
X56030000Y-42815000D01*
G75*
G02*
X55765000Y-43080000I-265000J0D01*
G01*
X55235000Y-43080000D01*
G75*
G02*
X54970000Y-42815000I0J265000D01*
G01*
G37*
G36*
G01*
X56220000Y-42815000D02*
X56220000Y-41485000D01*
G75*
G02*
X56485000Y-41220000I265000J0D01*
G01*
X57015000Y-41220000D01*
G75*
G02*
X57280000Y-41485000I0J-265000D01*
G01*
X57280000Y-42815000D01*
G75*
G02*
X57015000Y-43080000I-265000J0D01*
G01*
X56485000Y-43080000D01*
G75*
G02*
X56220000Y-42815000I0J265000D01*
G01*
G37*
G36*
G01*
X57470000Y-42815000D02*
X57470000Y-41485000D01*
G75*
G02*
X57735000Y-41220000I265000J0D01*
G01*
X58265000Y-41220000D01*
G75*
G02*
X58530000Y-41485000I0J-265000D01*
G01*
X58530000Y-42815000D01*
G75*
G02*
X58265000Y-43080000I-265000J0D01*
G01*
X57735000Y-43080000D01*
G75*
G02*
X57470000Y-42815000I0J265000D01*
G01*
G37*
G36*
G01*
X58720000Y-42815000D02*
X58720000Y-41485000D01*
G75*
G02*
X58985000Y-41220000I265000J0D01*
G01*
X59515000Y-41220000D01*
G75*
G02*
X59780000Y-41485000I0J-265000D01*
G01*
X59780000Y-42815000D01*
G75*
G02*
X59515000Y-43080000I-265000J0D01*
G01*
X58985000Y-43080000D01*
G75*
G02*
X58720000Y-42815000I0J265000D01*
G01*
G37*
G36*
G01*
X48020000Y-40599049D02*
X48020000Y-37900951D01*
G75*
G02*
X48300951Y-37620000I280951J0D01*
G01*
X50099049Y-37620000D01*
G75*
G02*
X50380000Y-37900951I0J-280951D01*
G01*
X50380000Y-40599049D01*
G75*
G02*
X50099049Y-40880000I-280951J0D01*
G01*
X48300951Y-40880000D01*
G75*
G02*
X48020000Y-40599049I0J280951D01*
G01*
G37*
G36*
G01*
X60620000Y-40599049D02*
X60620000Y-37900951D01*
G75*
G02*
X60900951Y-37620000I280951J0D01*
G01*
X62699049Y-37620000D01*
G75*
G02*
X62980000Y-37900951I0J-280951D01*
G01*
X62980000Y-40599049D01*
G75*
G02*
X62699049Y-40880000I-280951J0D01*
G01*
X60900951Y-40880000D01*
G75*
G02*
X60620000Y-40599049I0J280951D01*
G01*
G37*
%TD*%
M02*
