%TF.GenerationSoftware,KiCad,Pcbnew,5.1.9*%
%TF.CreationDate,2021-03-09T21:57:36+01:00*%
%TF.ProjectId,can-usb-dongle,63616e2d-7573-4622-9d64-6f6e676c652e,rev?*%
%TF.SameCoordinates,Original*%
%TF.FileFunction,Paste,Top*%
%TF.FilePolarity,Positive*%
%FSLAX46Y46*%
G04 Gerber Fmt 4.6, Leading zero omitted, Abs format (unit mm)*
G04 Created by KiCad (PCBNEW 5.1.9) date 2021-03-09 21:57:36*
%MOMM*%
%LPD*%
G01*
G04 APERTURE LIST*
%ADD10R,1.305000X1.620000*%
%ADD11R,1.305000X0.540000*%
%ADD12R,1.305000X0.270000*%
%ADD13R,0.900000X0.675000*%
%ADD14R,1.170000X0.630000*%
%ADD15R,0.720000X0.810000*%
%ADD16R,1.080000X1.260000*%
%ADD17R,0.630000X0.459000*%
%ADD18R,0.954000X0.585000*%
G04 APERTURE END LIST*
D10*
%TO.C,J3*%
X51490000Y-44930000D03*
X51490000Y-55070000D03*
X47310000Y-44930000D03*
X47310000Y-55070000D03*
D11*
X52400000Y-46775000D03*
X52400000Y-47550000D03*
X52400000Y-53225000D03*
X52400000Y-52450000D03*
D12*
X52400000Y-48250000D03*
X52400000Y-48750000D03*
X52400000Y-49250000D03*
X52400000Y-49750000D03*
X52400000Y-50250000D03*
X52400000Y-50750000D03*
X52400000Y-51250000D03*
X52400000Y-51750000D03*
%TD*%
D13*
%TO.C,S1*%
X53200000Y-61475000D03*
X47200000Y-61475000D03*
X53200000Y-57725000D03*
X47200000Y-57725000D03*
%TD*%
%TO.C,C2*%
G36*
G01*
X57718000Y-57503000D02*
X57718000Y-57197000D01*
G75*
G02*
X57844000Y-57071000I126000J0D01*
G01*
X58096000Y-57071000D01*
G75*
G02*
X58222000Y-57197000I0J-126000D01*
G01*
X58222000Y-57503000D01*
G75*
G02*
X58096000Y-57629000I-126000J0D01*
G01*
X57844000Y-57629000D01*
G75*
G02*
X57718000Y-57503000I0J126000D01*
G01*
G37*
G36*
G01*
X58678000Y-57503000D02*
X58678000Y-57197000D01*
G75*
G02*
X58804000Y-57071000I126000J0D01*
G01*
X59056000Y-57071000D01*
G75*
G02*
X59182000Y-57197000I0J-126000D01*
G01*
X59182000Y-57503000D01*
G75*
G02*
X59056000Y-57629000I-126000J0D01*
G01*
X58804000Y-57629000D01*
G75*
G02*
X58678000Y-57503000I0J126000D01*
G01*
G37*
%TD*%
%TO.C,C10*%
G36*
G01*
X72828000Y-46853000D02*
X72828000Y-46547000D01*
G75*
G02*
X72954000Y-46421000I126000J0D01*
G01*
X73206000Y-46421000D01*
G75*
G02*
X73332000Y-46547000I0J-126000D01*
G01*
X73332000Y-46853000D01*
G75*
G02*
X73206000Y-46979000I-126000J0D01*
G01*
X72954000Y-46979000D01*
G75*
G02*
X72828000Y-46853000I0J126000D01*
G01*
G37*
G36*
G01*
X71868000Y-46853000D02*
X71868000Y-46547000D01*
G75*
G02*
X71994000Y-46421000I126000J0D01*
G01*
X72246000Y-46421000D01*
G75*
G02*
X72372000Y-46547000I0J-126000D01*
G01*
X72372000Y-46853000D01*
G75*
G02*
X72246000Y-46979000I-126000J0D01*
G01*
X71994000Y-46979000D01*
G75*
G02*
X71868000Y-46853000I0J126000D01*
G01*
G37*
%TD*%
%TO.C,R1*%
G36*
G01*
X58183000Y-58383500D02*
X58183000Y-58716500D01*
G75*
G02*
X58061500Y-58838000I-121500J0D01*
G01*
X57818500Y-58838000D01*
G75*
G02*
X57697000Y-58716500I0J121500D01*
G01*
X57697000Y-58383500D01*
G75*
G02*
X57818500Y-58262000I121500J0D01*
G01*
X58061500Y-58262000D01*
G75*
G02*
X58183000Y-58383500I0J-121500D01*
G01*
G37*
G36*
G01*
X59203000Y-58383500D02*
X59203000Y-58716500D01*
G75*
G02*
X59081500Y-58838000I-121500J0D01*
G01*
X58838500Y-58838000D01*
G75*
G02*
X58717000Y-58716500I0J121500D01*
G01*
X58717000Y-58383500D01*
G75*
G02*
X58838500Y-58262000I121500J0D01*
G01*
X59081500Y-58262000D01*
G75*
G02*
X59203000Y-58383500I0J-121500D01*
G01*
G37*
%TD*%
%TO.C,C9*%
G36*
G01*
X71868000Y-47953000D02*
X71868000Y-47647000D01*
G75*
G02*
X71994000Y-47521000I126000J0D01*
G01*
X72246000Y-47521000D01*
G75*
G02*
X72372000Y-47647000I0J-126000D01*
G01*
X72372000Y-47953000D01*
G75*
G02*
X72246000Y-48079000I-126000J0D01*
G01*
X71994000Y-48079000D01*
G75*
G02*
X71868000Y-47953000I0J126000D01*
G01*
G37*
G36*
G01*
X72828000Y-47953000D02*
X72828000Y-47647000D01*
G75*
G02*
X72954000Y-47521000I126000J0D01*
G01*
X73206000Y-47521000D01*
G75*
G02*
X73332000Y-47647000I0J-126000D01*
G01*
X73332000Y-47953000D01*
G75*
G02*
X73206000Y-48079000I-126000J0D01*
G01*
X72954000Y-48079000D01*
G75*
G02*
X72828000Y-47953000I0J126000D01*
G01*
G37*
%TD*%
D14*
%TO.C,F1*%
X56600000Y-44250000D03*
X56600000Y-46150000D03*
%TD*%
%TO.C,C1*%
G36*
G01*
X73253000Y-55752000D02*
X72947000Y-55752000D01*
G75*
G02*
X72821000Y-55626000I0J126000D01*
G01*
X72821000Y-55374000D01*
G75*
G02*
X72947000Y-55248000I126000J0D01*
G01*
X73253000Y-55248000D01*
G75*
G02*
X73379000Y-55374000I0J-126000D01*
G01*
X73379000Y-55626000D01*
G75*
G02*
X73253000Y-55752000I-126000J0D01*
G01*
G37*
G36*
G01*
X73253000Y-56712000D02*
X72947000Y-56712000D01*
G75*
G02*
X72821000Y-56586000I0J126000D01*
G01*
X72821000Y-56334000D01*
G75*
G02*
X72947000Y-56208000I126000J0D01*
G01*
X73253000Y-56208000D01*
G75*
G02*
X73379000Y-56334000I0J-126000D01*
G01*
X73379000Y-56586000D01*
G75*
G02*
X73253000Y-56712000I-126000J0D01*
G01*
G37*
%TD*%
%TO.C,C3*%
G36*
G01*
X62852000Y-41897000D02*
X62852000Y-42203000D01*
G75*
G02*
X62726000Y-42329000I-126000J0D01*
G01*
X62474000Y-42329000D01*
G75*
G02*
X62348000Y-42203000I0J126000D01*
G01*
X62348000Y-41897000D01*
G75*
G02*
X62474000Y-41771000I126000J0D01*
G01*
X62726000Y-41771000D01*
G75*
G02*
X62852000Y-41897000I0J-126000D01*
G01*
G37*
G36*
G01*
X61892000Y-41897000D02*
X61892000Y-42203000D01*
G75*
G02*
X61766000Y-42329000I-126000J0D01*
G01*
X61514000Y-42329000D01*
G75*
G02*
X61388000Y-42203000I0J126000D01*
G01*
X61388000Y-41897000D01*
G75*
G02*
X61514000Y-41771000I126000J0D01*
G01*
X61766000Y-41771000D01*
G75*
G02*
X61892000Y-41897000I0J-126000D01*
G01*
G37*
%TD*%
%TO.C,C4*%
G36*
G01*
X75732000Y-52597000D02*
X75732000Y-52903000D01*
G75*
G02*
X75606000Y-53029000I-126000J0D01*
G01*
X75354000Y-53029000D01*
G75*
G02*
X75228000Y-52903000I0J126000D01*
G01*
X75228000Y-52597000D01*
G75*
G02*
X75354000Y-52471000I126000J0D01*
G01*
X75606000Y-52471000D01*
G75*
G02*
X75732000Y-52597000I0J-126000D01*
G01*
G37*
G36*
G01*
X74772000Y-52597000D02*
X74772000Y-52903000D01*
G75*
G02*
X74646000Y-53029000I-126000J0D01*
G01*
X74394000Y-53029000D01*
G75*
G02*
X74268000Y-52903000I0J126000D01*
G01*
X74268000Y-52597000D01*
G75*
G02*
X74394000Y-52471000I126000J0D01*
G01*
X74646000Y-52471000D01*
G75*
G02*
X74772000Y-52597000I0J-126000D01*
G01*
G37*
%TD*%
%TO.C,C5*%
G36*
G01*
X61892000Y-42897000D02*
X61892000Y-43203000D01*
G75*
G02*
X61766000Y-43329000I-126000J0D01*
G01*
X61514000Y-43329000D01*
G75*
G02*
X61388000Y-43203000I0J126000D01*
G01*
X61388000Y-42897000D01*
G75*
G02*
X61514000Y-42771000I126000J0D01*
G01*
X61766000Y-42771000D01*
G75*
G02*
X61892000Y-42897000I0J-126000D01*
G01*
G37*
G36*
G01*
X62852000Y-42897000D02*
X62852000Y-43203000D01*
G75*
G02*
X62726000Y-43329000I-126000J0D01*
G01*
X62474000Y-43329000D01*
G75*
G02*
X62348000Y-43203000I0J126000D01*
G01*
X62348000Y-42897000D01*
G75*
G02*
X62474000Y-42771000I126000J0D01*
G01*
X62726000Y-42771000D01*
G75*
G02*
X62852000Y-42897000I0J-126000D01*
G01*
G37*
%TD*%
%TO.C,C6*%
G36*
G01*
X59253000Y-53112000D02*
X58947000Y-53112000D01*
G75*
G02*
X58821000Y-52986000I0J126000D01*
G01*
X58821000Y-52734000D01*
G75*
G02*
X58947000Y-52608000I126000J0D01*
G01*
X59253000Y-52608000D01*
G75*
G02*
X59379000Y-52734000I0J-126000D01*
G01*
X59379000Y-52986000D01*
G75*
G02*
X59253000Y-53112000I-126000J0D01*
G01*
G37*
G36*
G01*
X59253000Y-52152000D02*
X58947000Y-52152000D01*
G75*
G02*
X58821000Y-52026000I0J126000D01*
G01*
X58821000Y-51774000D01*
G75*
G02*
X58947000Y-51648000I126000J0D01*
G01*
X59253000Y-51648000D01*
G75*
G02*
X59379000Y-51774000I0J-126000D01*
G01*
X59379000Y-52026000D01*
G75*
G02*
X59253000Y-52152000I-126000J0D01*
G01*
G37*
%TD*%
%TO.C,C7*%
G36*
G01*
X68908000Y-55053000D02*
X68908000Y-54747000D01*
G75*
G02*
X69034000Y-54621000I126000J0D01*
G01*
X69286000Y-54621000D01*
G75*
G02*
X69412000Y-54747000I0J-126000D01*
G01*
X69412000Y-55053000D01*
G75*
G02*
X69286000Y-55179000I-126000J0D01*
G01*
X69034000Y-55179000D01*
G75*
G02*
X68908000Y-55053000I0J126000D01*
G01*
G37*
G36*
G01*
X67948000Y-55053000D02*
X67948000Y-54747000D01*
G75*
G02*
X68074000Y-54621000I126000J0D01*
G01*
X68326000Y-54621000D01*
G75*
G02*
X68452000Y-54747000I0J-126000D01*
G01*
X68452000Y-55053000D01*
G75*
G02*
X68326000Y-55179000I-126000J0D01*
G01*
X68074000Y-55179000D01*
G75*
G02*
X67948000Y-55053000I0J126000D01*
G01*
G37*
%TD*%
%TO.C,C8*%
G36*
G01*
X73472000Y-60947000D02*
X73472000Y-61253000D01*
G75*
G02*
X73346000Y-61379000I-126000J0D01*
G01*
X73094000Y-61379000D01*
G75*
G02*
X72968000Y-61253000I0J126000D01*
G01*
X72968000Y-60947000D01*
G75*
G02*
X73094000Y-60821000I126000J0D01*
G01*
X73346000Y-60821000D01*
G75*
G02*
X73472000Y-60947000I0J-126000D01*
G01*
G37*
G36*
G01*
X74432000Y-60947000D02*
X74432000Y-61253000D01*
G75*
G02*
X74306000Y-61379000I-126000J0D01*
G01*
X74054000Y-61379000D01*
G75*
G02*
X73928000Y-61253000I0J126000D01*
G01*
X73928000Y-60947000D01*
G75*
G02*
X74054000Y-60821000I126000J0D01*
G01*
X74306000Y-60821000D01*
G75*
G02*
X74432000Y-60947000I0J-126000D01*
G01*
G37*
%TD*%
%TO.C,C11*%
G36*
G01*
X53422000Y-42947000D02*
X53422000Y-43253000D01*
G75*
G02*
X53296000Y-43379000I-126000J0D01*
G01*
X53044000Y-43379000D01*
G75*
G02*
X52918000Y-43253000I0J126000D01*
G01*
X52918000Y-42947000D01*
G75*
G02*
X53044000Y-42821000I126000J0D01*
G01*
X53296000Y-42821000D01*
G75*
G02*
X53422000Y-42947000I0J-126000D01*
G01*
G37*
G36*
G01*
X54382000Y-42947000D02*
X54382000Y-43253000D01*
G75*
G02*
X54256000Y-43379000I-126000J0D01*
G01*
X54004000Y-43379000D01*
G75*
G02*
X53878000Y-43253000I0J126000D01*
G01*
X53878000Y-42947000D01*
G75*
G02*
X54004000Y-42821000I126000J0D01*
G01*
X54256000Y-42821000D01*
G75*
G02*
X54382000Y-42947000I0J-126000D01*
G01*
G37*
%TD*%
%TO.C,C12*%
G36*
G01*
X46548000Y-39353000D02*
X46548000Y-39047000D01*
G75*
G02*
X46674000Y-38921000I126000J0D01*
G01*
X46926000Y-38921000D01*
G75*
G02*
X47052000Y-39047000I0J-126000D01*
G01*
X47052000Y-39353000D01*
G75*
G02*
X46926000Y-39479000I-126000J0D01*
G01*
X46674000Y-39479000D01*
G75*
G02*
X46548000Y-39353000I0J126000D01*
G01*
G37*
G36*
G01*
X47508000Y-39353000D02*
X47508000Y-39047000D01*
G75*
G02*
X47634000Y-38921000I126000J0D01*
G01*
X47886000Y-38921000D01*
G75*
G02*
X48012000Y-39047000I0J-126000D01*
G01*
X48012000Y-39353000D01*
G75*
G02*
X47886000Y-39479000I-126000J0D01*
G01*
X47634000Y-39479000D01*
G75*
G02*
X47508000Y-39353000I0J126000D01*
G01*
G37*
%TD*%
%TO.C,C13*%
G36*
G01*
X50547000Y-38018000D02*
X50853000Y-38018000D01*
G75*
G02*
X50979000Y-38144000I0J-126000D01*
G01*
X50979000Y-38396000D01*
G75*
G02*
X50853000Y-38522000I-126000J0D01*
G01*
X50547000Y-38522000D01*
G75*
G02*
X50421000Y-38396000I0J126000D01*
G01*
X50421000Y-38144000D01*
G75*
G02*
X50547000Y-38018000I126000J0D01*
G01*
G37*
G36*
G01*
X50547000Y-38978000D02*
X50853000Y-38978000D01*
G75*
G02*
X50979000Y-39104000I0J-126000D01*
G01*
X50979000Y-39356000D01*
G75*
G02*
X50853000Y-39482000I-126000J0D01*
G01*
X50547000Y-39482000D01*
G75*
G02*
X50421000Y-39356000I0J126000D01*
G01*
X50421000Y-39104000D01*
G75*
G02*
X50547000Y-38978000I126000J0D01*
G01*
G37*
%TD*%
%TO.C,C14*%
G36*
G01*
X56608000Y-52653000D02*
X56608000Y-52347000D01*
G75*
G02*
X56734000Y-52221000I126000J0D01*
G01*
X56986000Y-52221000D01*
G75*
G02*
X57112000Y-52347000I0J-126000D01*
G01*
X57112000Y-52653000D01*
G75*
G02*
X56986000Y-52779000I-126000J0D01*
G01*
X56734000Y-52779000D01*
G75*
G02*
X56608000Y-52653000I0J126000D01*
G01*
G37*
G36*
G01*
X55648000Y-52653000D02*
X55648000Y-52347000D01*
G75*
G02*
X55774000Y-52221000I126000J0D01*
G01*
X56026000Y-52221000D01*
G75*
G02*
X56152000Y-52347000I0J-126000D01*
G01*
X56152000Y-52653000D01*
G75*
G02*
X56026000Y-52779000I-126000J0D01*
G01*
X55774000Y-52779000D01*
G75*
G02*
X55648000Y-52653000I0J126000D01*
G01*
G37*
%TD*%
%TO.C,D1*%
G36*
G01*
X66380000Y-58975000D02*
X66380000Y-59425000D01*
G75*
G02*
X66177500Y-59627500I-202500J0D01*
G01*
X65772500Y-59627500D01*
G75*
G02*
X65570000Y-59425000I0J202500D01*
G01*
X65570000Y-58975000D01*
G75*
G02*
X65772500Y-58772500I202500J0D01*
G01*
X66177500Y-58772500D01*
G75*
G02*
X66380000Y-58975000I0J-202500D01*
G01*
G37*
G36*
G01*
X64830000Y-58975000D02*
X64830000Y-59425000D01*
G75*
G02*
X64627500Y-59627500I-202500J0D01*
G01*
X64222500Y-59627500D01*
G75*
G02*
X64020000Y-59425000I0J202500D01*
G01*
X64020000Y-58975000D01*
G75*
G02*
X64222500Y-58772500I202500J0D01*
G01*
X64627500Y-58772500D01*
G75*
G02*
X64830000Y-58975000I0J-202500D01*
G01*
G37*
%TD*%
%TO.C,D2*%
G36*
G01*
X64830000Y-60575000D02*
X64830000Y-61025000D01*
G75*
G02*
X64627500Y-61227500I-202500J0D01*
G01*
X64222500Y-61227500D01*
G75*
G02*
X64020000Y-61025000I0J202500D01*
G01*
X64020000Y-60575000D01*
G75*
G02*
X64222500Y-60372500I202500J0D01*
G01*
X64627500Y-60372500D01*
G75*
G02*
X64830000Y-60575000I0J-202500D01*
G01*
G37*
G36*
G01*
X66380000Y-60575000D02*
X66380000Y-61025000D01*
G75*
G02*
X66177500Y-61227500I-202500J0D01*
G01*
X65772500Y-61227500D01*
G75*
G02*
X65570000Y-61025000I0J202500D01*
G01*
X65570000Y-60575000D01*
G75*
G02*
X65772500Y-60372500I202500J0D01*
G01*
X66177500Y-60372500D01*
G75*
G02*
X66380000Y-60575000I0J-202500D01*
G01*
G37*
%TD*%
%TO.C,D3*%
G36*
G01*
X66405000Y-62175000D02*
X66405000Y-62625000D01*
G75*
G02*
X66202500Y-62827500I-202500J0D01*
G01*
X65797500Y-62827500D01*
G75*
G02*
X65595000Y-62625000I0J202500D01*
G01*
X65595000Y-62175000D01*
G75*
G02*
X65797500Y-61972500I202500J0D01*
G01*
X66202500Y-61972500D01*
G75*
G02*
X66405000Y-62175000I0J-202500D01*
G01*
G37*
G36*
G01*
X64855000Y-62175000D02*
X64855000Y-62625000D01*
G75*
G02*
X64652500Y-62827500I-202500J0D01*
G01*
X64247500Y-62827500D01*
G75*
G02*
X64045000Y-62625000I0J202500D01*
G01*
X64045000Y-62175000D01*
G75*
G02*
X64247500Y-61972500I202500J0D01*
G01*
X64652500Y-61972500D01*
G75*
G02*
X64855000Y-62175000I0J-202500D01*
G01*
G37*
%TD*%
%TO.C,R2*%
G36*
G01*
X73433000Y-62233500D02*
X73433000Y-62566500D01*
G75*
G02*
X73311500Y-62688000I-121500J0D01*
G01*
X73068500Y-62688000D01*
G75*
G02*
X72947000Y-62566500I0J121500D01*
G01*
X72947000Y-62233500D01*
G75*
G02*
X73068500Y-62112000I121500J0D01*
G01*
X73311500Y-62112000D01*
G75*
G02*
X73433000Y-62233500I0J-121500D01*
G01*
G37*
G36*
G01*
X74453000Y-62233500D02*
X74453000Y-62566500D01*
G75*
G02*
X74331500Y-62688000I-121500J0D01*
G01*
X74088500Y-62688000D01*
G75*
G02*
X73967000Y-62566500I0J121500D01*
G01*
X73967000Y-62233500D01*
G75*
G02*
X74088500Y-62112000I121500J0D01*
G01*
X74331500Y-62112000D01*
G75*
G02*
X74453000Y-62233500I0J-121500D01*
G01*
G37*
%TD*%
%TO.C,R3*%
G36*
G01*
X72243000Y-62233500D02*
X72243000Y-62566500D01*
G75*
G02*
X72121500Y-62688000I-121500J0D01*
G01*
X71878500Y-62688000D01*
G75*
G02*
X71757000Y-62566500I0J121500D01*
G01*
X71757000Y-62233500D01*
G75*
G02*
X71878500Y-62112000I121500J0D01*
G01*
X72121500Y-62112000D01*
G75*
G02*
X72243000Y-62233500I0J-121500D01*
G01*
G37*
G36*
G01*
X71223000Y-62233500D02*
X71223000Y-62566500D01*
G75*
G02*
X71101500Y-62688000I-121500J0D01*
G01*
X70858500Y-62688000D01*
G75*
G02*
X70737000Y-62566500I0J121500D01*
G01*
X70737000Y-62233500D01*
G75*
G02*
X70858500Y-62112000I121500J0D01*
G01*
X71101500Y-62112000D01*
G75*
G02*
X71223000Y-62233500I0J-121500D01*
G01*
G37*
%TD*%
%TO.C,R4*%
G36*
G01*
X62857000Y-59366500D02*
X62857000Y-59033500D01*
G75*
G02*
X62978500Y-58912000I121500J0D01*
G01*
X63221500Y-58912000D01*
G75*
G02*
X63343000Y-59033500I0J-121500D01*
G01*
X63343000Y-59366500D01*
G75*
G02*
X63221500Y-59488000I-121500J0D01*
G01*
X62978500Y-59488000D01*
G75*
G02*
X62857000Y-59366500I0J121500D01*
G01*
G37*
G36*
G01*
X61837000Y-59366500D02*
X61837000Y-59033500D01*
G75*
G02*
X61958500Y-58912000I121500J0D01*
G01*
X62201500Y-58912000D01*
G75*
G02*
X62323000Y-59033500I0J-121500D01*
G01*
X62323000Y-59366500D01*
G75*
G02*
X62201500Y-59488000I-121500J0D01*
G01*
X61958500Y-59488000D01*
G75*
G02*
X61837000Y-59366500I0J121500D01*
G01*
G37*
%TD*%
%TO.C,R5*%
G36*
G01*
X62867000Y-60966500D02*
X62867000Y-60633500D01*
G75*
G02*
X62988500Y-60512000I121500J0D01*
G01*
X63231500Y-60512000D01*
G75*
G02*
X63353000Y-60633500I0J-121500D01*
G01*
X63353000Y-60966500D01*
G75*
G02*
X63231500Y-61088000I-121500J0D01*
G01*
X62988500Y-61088000D01*
G75*
G02*
X62867000Y-60966500I0J121500D01*
G01*
G37*
G36*
G01*
X61847000Y-60966500D02*
X61847000Y-60633500D01*
G75*
G02*
X61968500Y-60512000I121500J0D01*
G01*
X62211500Y-60512000D01*
G75*
G02*
X62333000Y-60633500I0J-121500D01*
G01*
X62333000Y-60966500D01*
G75*
G02*
X62211500Y-61088000I-121500J0D01*
G01*
X61968500Y-61088000D01*
G75*
G02*
X61847000Y-60966500I0J121500D01*
G01*
G37*
%TD*%
%TO.C,R6*%
G36*
G01*
X61847000Y-62566500D02*
X61847000Y-62233500D01*
G75*
G02*
X61968500Y-62112000I121500J0D01*
G01*
X62211500Y-62112000D01*
G75*
G02*
X62333000Y-62233500I0J-121500D01*
G01*
X62333000Y-62566500D01*
G75*
G02*
X62211500Y-62688000I-121500J0D01*
G01*
X61968500Y-62688000D01*
G75*
G02*
X61847000Y-62566500I0J121500D01*
G01*
G37*
G36*
G01*
X62867000Y-62566500D02*
X62867000Y-62233500D01*
G75*
G02*
X62988500Y-62112000I121500J0D01*
G01*
X63231500Y-62112000D01*
G75*
G02*
X63353000Y-62233500I0J-121500D01*
G01*
X63353000Y-62566500D01*
G75*
G02*
X63231500Y-62688000I-121500J0D01*
G01*
X62988500Y-62688000D01*
G75*
G02*
X62867000Y-62566500I0J121500D01*
G01*
G37*
%TD*%
%TO.C,R7*%
G36*
G01*
X66453000Y-41883500D02*
X66453000Y-42216500D01*
G75*
G02*
X66331500Y-42338000I-121500J0D01*
G01*
X66088500Y-42338000D01*
G75*
G02*
X65967000Y-42216500I0J121500D01*
G01*
X65967000Y-41883500D01*
G75*
G02*
X66088500Y-41762000I121500J0D01*
G01*
X66331500Y-41762000D01*
G75*
G02*
X66453000Y-41883500I0J-121500D01*
G01*
G37*
G36*
G01*
X65433000Y-41883500D02*
X65433000Y-42216500D01*
G75*
G02*
X65311500Y-42338000I-121500J0D01*
G01*
X65068500Y-42338000D01*
G75*
G02*
X64947000Y-42216500I0J121500D01*
G01*
X64947000Y-41883500D01*
G75*
G02*
X65068500Y-41762000I121500J0D01*
G01*
X65311500Y-41762000D01*
G75*
G02*
X65433000Y-41883500I0J-121500D01*
G01*
G37*
%TD*%
%TO.C,R8*%
G36*
G01*
X70516500Y-45253000D02*
X70183500Y-45253000D01*
G75*
G02*
X70062000Y-45131500I0J121500D01*
G01*
X70062000Y-44888500D01*
G75*
G02*
X70183500Y-44767000I121500J0D01*
G01*
X70516500Y-44767000D01*
G75*
G02*
X70638000Y-44888500I0J-121500D01*
G01*
X70638000Y-45131500D01*
G75*
G02*
X70516500Y-45253000I-121500J0D01*
G01*
G37*
G36*
G01*
X70516500Y-44233000D02*
X70183500Y-44233000D01*
G75*
G02*
X70062000Y-44111500I0J121500D01*
G01*
X70062000Y-43868500D01*
G75*
G02*
X70183500Y-43747000I121500J0D01*
G01*
X70516500Y-43747000D01*
G75*
G02*
X70638000Y-43868500I0J-121500D01*
G01*
X70638000Y-44111500D01*
G75*
G02*
X70516500Y-44233000I-121500J0D01*
G01*
G37*
%TD*%
%TO.C,R9*%
G36*
G01*
X66783500Y-55767000D02*
X67116500Y-55767000D01*
G75*
G02*
X67238000Y-55888500I0J-121500D01*
G01*
X67238000Y-56131500D01*
G75*
G02*
X67116500Y-56253000I-121500J0D01*
G01*
X66783500Y-56253000D01*
G75*
G02*
X66662000Y-56131500I0J121500D01*
G01*
X66662000Y-55888500D01*
G75*
G02*
X66783500Y-55767000I121500J0D01*
G01*
G37*
G36*
G01*
X66783500Y-54747000D02*
X67116500Y-54747000D01*
G75*
G02*
X67238000Y-54868500I0J-121500D01*
G01*
X67238000Y-55111500D01*
G75*
G02*
X67116500Y-55233000I-121500J0D01*
G01*
X66783500Y-55233000D01*
G75*
G02*
X66662000Y-55111500I0J121500D01*
G01*
X66662000Y-54868500D01*
G75*
G02*
X66783500Y-54747000I121500J0D01*
G01*
G37*
%TD*%
%TO.C,R10*%
G36*
G01*
X65683500Y-54747000D02*
X66016500Y-54747000D01*
G75*
G02*
X66138000Y-54868500I0J-121500D01*
G01*
X66138000Y-55111500D01*
G75*
G02*
X66016500Y-55233000I-121500J0D01*
G01*
X65683500Y-55233000D01*
G75*
G02*
X65562000Y-55111500I0J121500D01*
G01*
X65562000Y-54868500D01*
G75*
G02*
X65683500Y-54747000I121500J0D01*
G01*
G37*
G36*
G01*
X65683500Y-55767000D02*
X66016500Y-55767000D01*
G75*
G02*
X66138000Y-55888500I0J-121500D01*
G01*
X66138000Y-56131500D01*
G75*
G02*
X66016500Y-56253000I-121500J0D01*
G01*
X65683500Y-56253000D01*
G75*
G02*
X65562000Y-56131500I0J121500D01*
G01*
X65562000Y-55888500D01*
G75*
G02*
X65683500Y-55767000I121500J0D01*
G01*
G37*
%TD*%
%TO.C,R11*%
G36*
G01*
X57833500Y-53267000D02*
X58166500Y-53267000D01*
G75*
G02*
X58288000Y-53388500I0J-121500D01*
G01*
X58288000Y-53631500D01*
G75*
G02*
X58166500Y-53753000I-121500J0D01*
G01*
X57833500Y-53753000D01*
G75*
G02*
X57712000Y-53631500I0J121500D01*
G01*
X57712000Y-53388500D01*
G75*
G02*
X57833500Y-53267000I121500J0D01*
G01*
G37*
G36*
G01*
X57833500Y-52247000D02*
X58166500Y-52247000D01*
G75*
G02*
X58288000Y-52368500I0J-121500D01*
G01*
X58288000Y-52611500D01*
G75*
G02*
X58166500Y-52733000I-121500J0D01*
G01*
X57833500Y-52733000D01*
G75*
G02*
X57712000Y-52611500I0J121500D01*
G01*
X57712000Y-52368500D01*
G75*
G02*
X57833500Y-52247000I121500J0D01*
G01*
G37*
%TD*%
%TO.C,R12*%
G36*
G01*
X55747000Y-47566500D02*
X55747000Y-47233500D01*
G75*
G02*
X55868500Y-47112000I121500J0D01*
G01*
X56111500Y-47112000D01*
G75*
G02*
X56233000Y-47233500I0J-121500D01*
G01*
X56233000Y-47566500D01*
G75*
G02*
X56111500Y-47688000I-121500J0D01*
G01*
X55868500Y-47688000D01*
G75*
G02*
X55747000Y-47566500I0J121500D01*
G01*
G37*
G36*
G01*
X56767000Y-47566500D02*
X56767000Y-47233500D01*
G75*
G02*
X56888500Y-47112000I121500J0D01*
G01*
X57131500Y-47112000D01*
G75*
G02*
X57253000Y-47233500I0J-121500D01*
G01*
X57253000Y-47566500D01*
G75*
G02*
X57131500Y-47688000I-121500J0D01*
G01*
X56888500Y-47688000D01*
G75*
G02*
X56767000Y-47566500I0J121500D01*
G01*
G37*
%TD*%
%TO.C,R13*%
G36*
G01*
X55647000Y-53666500D02*
X55647000Y-53333500D01*
G75*
G02*
X55768500Y-53212000I121500J0D01*
G01*
X56011500Y-53212000D01*
G75*
G02*
X56133000Y-53333500I0J-121500D01*
G01*
X56133000Y-53666500D01*
G75*
G02*
X56011500Y-53788000I-121500J0D01*
G01*
X55768500Y-53788000D01*
G75*
G02*
X55647000Y-53666500I0J121500D01*
G01*
G37*
G36*
G01*
X56667000Y-53666500D02*
X56667000Y-53333500D01*
G75*
G02*
X56788500Y-53212000I121500J0D01*
G01*
X57031500Y-53212000D01*
G75*
G02*
X57153000Y-53333500I0J-121500D01*
G01*
X57153000Y-53666500D01*
G75*
G02*
X57031500Y-53788000I-121500J0D01*
G01*
X56788500Y-53788000D01*
G75*
G02*
X56667000Y-53666500I0J121500D01*
G01*
G37*
%TD*%
%TO.C,U1*%
G36*
G01*
X70226250Y-51782500D02*
X70226250Y-51917500D01*
G75*
G02*
X70158750Y-51985000I-67500J0D01*
G01*
X68966250Y-51985000D01*
G75*
G02*
X68898750Y-51917500I0J67500D01*
G01*
X68898750Y-51782500D01*
G75*
G02*
X68966250Y-51715000I67500J0D01*
G01*
X70158750Y-51715000D01*
G75*
G02*
X70226250Y-51782500I0J-67500D01*
G01*
G37*
G36*
G01*
X70226250Y-51282500D02*
X70226250Y-51417500D01*
G75*
G02*
X70158750Y-51485000I-67500J0D01*
G01*
X68966250Y-51485000D01*
G75*
G02*
X68898750Y-51417500I0J67500D01*
G01*
X68898750Y-51282500D01*
G75*
G02*
X68966250Y-51215000I67500J0D01*
G01*
X70158750Y-51215000D01*
G75*
G02*
X70226250Y-51282500I0J-67500D01*
G01*
G37*
G36*
G01*
X70226250Y-50782500D02*
X70226250Y-50917500D01*
G75*
G02*
X70158750Y-50985000I-67500J0D01*
G01*
X68966250Y-50985000D01*
G75*
G02*
X68898750Y-50917500I0J67500D01*
G01*
X68898750Y-50782500D01*
G75*
G02*
X68966250Y-50715000I67500J0D01*
G01*
X70158750Y-50715000D01*
G75*
G02*
X70226250Y-50782500I0J-67500D01*
G01*
G37*
G36*
G01*
X70226250Y-50282500D02*
X70226250Y-50417500D01*
G75*
G02*
X70158750Y-50485000I-67500J0D01*
G01*
X68966250Y-50485000D01*
G75*
G02*
X68898750Y-50417500I0J67500D01*
G01*
X68898750Y-50282500D01*
G75*
G02*
X68966250Y-50215000I67500J0D01*
G01*
X70158750Y-50215000D01*
G75*
G02*
X70226250Y-50282500I0J-67500D01*
G01*
G37*
G36*
G01*
X70226250Y-49782500D02*
X70226250Y-49917500D01*
G75*
G02*
X70158750Y-49985000I-67500J0D01*
G01*
X68966250Y-49985000D01*
G75*
G02*
X68898750Y-49917500I0J67500D01*
G01*
X68898750Y-49782500D01*
G75*
G02*
X68966250Y-49715000I67500J0D01*
G01*
X70158750Y-49715000D01*
G75*
G02*
X70226250Y-49782500I0J-67500D01*
G01*
G37*
G36*
G01*
X70226250Y-49282500D02*
X70226250Y-49417500D01*
G75*
G02*
X70158750Y-49485000I-67500J0D01*
G01*
X68966250Y-49485000D01*
G75*
G02*
X68898750Y-49417500I0J67500D01*
G01*
X68898750Y-49282500D01*
G75*
G02*
X68966250Y-49215000I67500J0D01*
G01*
X70158750Y-49215000D01*
G75*
G02*
X70226250Y-49282500I0J-67500D01*
G01*
G37*
G36*
G01*
X70226250Y-48782500D02*
X70226250Y-48917500D01*
G75*
G02*
X70158750Y-48985000I-67500J0D01*
G01*
X68966250Y-48985000D01*
G75*
G02*
X68898750Y-48917500I0J67500D01*
G01*
X68898750Y-48782500D01*
G75*
G02*
X68966250Y-48715000I67500J0D01*
G01*
X70158750Y-48715000D01*
G75*
G02*
X70226250Y-48782500I0J-67500D01*
G01*
G37*
G36*
G01*
X70226250Y-48282500D02*
X70226250Y-48417500D01*
G75*
G02*
X70158750Y-48485000I-67500J0D01*
G01*
X68966250Y-48485000D01*
G75*
G02*
X68898750Y-48417500I0J67500D01*
G01*
X68898750Y-48282500D01*
G75*
G02*
X68966250Y-48215000I67500J0D01*
G01*
X70158750Y-48215000D01*
G75*
G02*
X70226250Y-48282500I0J-67500D01*
G01*
G37*
G36*
G01*
X70226250Y-47782500D02*
X70226250Y-47917500D01*
G75*
G02*
X70158750Y-47985000I-67500J0D01*
G01*
X68966250Y-47985000D01*
G75*
G02*
X68898750Y-47917500I0J67500D01*
G01*
X68898750Y-47782500D01*
G75*
G02*
X68966250Y-47715000I67500J0D01*
G01*
X70158750Y-47715000D01*
G75*
G02*
X70226250Y-47782500I0J-67500D01*
G01*
G37*
G36*
G01*
X70226250Y-47282500D02*
X70226250Y-47417500D01*
G75*
G02*
X70158750Y-47485000I-67500J0D01*
G01*
X68966250Y-47485000D01*
G75*
G02*
X68898750Y-47417500I0J67500D01*
G01*
X68898750Y-47282500D01*
G75*
G02*
X68966250Y-47215000I67500J0D01*
G01*
X70158750Y-47215000D01*
G75*
G02*
X70226250Y-47282500I0J-67500D01*
G01*
G37*
G36*
G01*
X70226250Y-46782500D02*
X70226250Y-46917500D01*
G75*
G02*
X70158750Y-46985000I-67500J0D01*
G01*
X68966250Y-46985000D01*
G75*
G02*
X68898750Y-46917500I0J67500D01*
G01*
X68898750Y-46782500D01*
G75*
G02*
X68966250Y-46715000I67500J0D01*
G01*
X70158750Y-46715000D01*
G75*
G02*
X70226250Y-46782500I0J-67500D01*
G01*
G37*
G36*
G01*
X70226250Y-46282500D02*
X70226250Y-46417500D01*
G75*
G02*
X70158750Y-46485000I-67500J0D01*
G01*
X68966250Y-46485000D01*
G75*
G02*
X68898750Y-46417500I0J67500D01*
G01*
X68898750Y-46282500D01*
G75*
G02*
X68966250Y-46215000I67500J0D01*
G01*
X70158750Y-46215000D01*
G75*
G02*
X70226250Y-46282500I0J-67500D01*
G01*
G37*
G36*
G01*
X68285000Y-44341250D02*
X68285000Y-45533750D01*
G75*
G02*
X68217500Y-45601250I-67500J0D01*
G01*
X68082500Y-45601250D01*
G75*
G02*
X68015000Y-45533750I0J67500D01*
G01*
X68015000Y-44341250D01*
G75*
G02*
X68082500Y-44273750I67500J0D01*
G01*
X68217500Y-44273750D01*
G75*
G02*
X68285000Y-44341250I0J-67500D01*
G01*
G37*
G36*
G01*
X67785000Y-44341250D02*
X67785000Y-45533750D01*
G75*
G02*
X67717500Y-45601250I-67500J0D01*
G01*
X67582500Y-45601250D01*
G75*
G02*
X67515000Y-45533750I0J67500D01*
G01*
X67515000Y-44341250D01*
G75*
G02*
X67582500Y-44273750I67500J0D01*
G01*
X67717500Y-44273750D01*
G75*
G02*
X67785000Y-44341250I0J-67500D01*
G01*
G37*
G36*
G01*
X67285000Y-44341250D02*
X67285000Y-45533750D01*
G75*
G02*
X67217500Y-45601250I-67500J0D01*
G01*
X67082500Y-45601250D01*
G75*
G02*
X67015000Y-45533750I0J67500D01*
G01*
X67015000Y-44341250D01*
G75*
G02*
X67082500Y-44273750I67500J0D01*
G01*
X67217500Y-44273750D01*
G75*
G02*
X67285000Y-44341250I0J-67500D01*
G01*
G37*
G36*
G01*
X66785000Y-44341250D02*
X66785000Y-45533750D01*
G75*
G02*
X66717500Y-45601250I-67500J0D01*
G01*
X66582500Y-45601250D01*
G75*
G02*
X66515000Y-45533750I0J67500D01*
G01*
X66515000Y-44341250D01*
G75*
G02*
X66582500Y-44273750I67500J0D01*
G01*
X66717500Y-44273750D01*
G75*
G02*
X66785000Y-44341250I0J-67500D01*
G01*
G37*
G36*
G01*
X66285000Y-44341250D02*
X66285000Y-45533750D01*
G75*
G02*
X66217500Y-45601250I-67500J0D01*
G01*
X66082500Y-45601250D01*
G75*
G02*
X66015000Y-45533750I0J67500D01*
G01*
X66015000Y-44341250D01*
G75*
G02*
X66082500Y-44273750I67500J0D01*
G01*
X66217500Y-44273750D01*
G75*
G02*
X66285000Y-44341250I0J-67500D01*
G01*
G37*
G36*
G01*
X65785000Y-44341250D02*
X65785000Y-45533750D01*
G75*
G02*
X65717500Y-45601250I-67500J0D01*
G01*
X65582500Y-45601250D01*
G75*
G02*
X65515000Y-45533750I0J67500D01*
G01*
X65515000Y-44341250D01*
G75*
G02*
X65582500Y-44273750I67500J0D01*
G01*
X65717500Y-44273750D01*
G75*
G02*
X65785000Y-44341250I0J-67500D01*
G01*
G37*
G36*
G01*
X65285000Y-44341250D02*
X65285000Y-45533750D01*
G75*
G02*
X65217500Y-45601250I-67500J0D01*
G01*
X65082500Y-45601250D01*
G75*
G02*
X65015000Y-45533750I0J67500D01*
G01*
X65015000Y-44341250D01*
G75*
G02*
X65082500Y-44273750I67500J0D01*
G01*
X65217500Y-44273750D01*
G75*
G02*
X65285000Y-44341250I0J-67500D01*
G01*
G37*
G36*
G01*
X64785000Y-44341250D02*
X64785000Y-45533750D01*
G75*
G02*
X64717500Y-45601250I-67500J0D01*
G01*
X64582500Y-45601250D01*
G75*
G02*
X64515000Y-45533750I0J67500D01*
G01*
X64515000Y-44341250D01*
G75*
G02*
X64582500Y-44273750I67500J0D01*
G01*
X64717500Y-44273750D01*
G75*
G02*
X64785000Y-44341250I0J-67500D01*
G01*
G37*
G36*
G01*
X64285000Y-44341250D02*
X64285000Y-45533750D01*
G75*
G02*
X64217500Y-45601250I-67500J0D01*
G01*
X64082500Y-45601250D01*
G75*
G02*
X64015000Y-45533750I0J67500D01*
G01*
X64015000Y-44341250D01*
G75*
G02*
X64082500Y-44273750I67500J0D01*
G01*
X64217500Y-44273750D01*
G75*
G02*
X64285000Y-44341250I0J-67500D01*
G01*
G37*
G36*
G01*
X63785000Y-44341250D02*
X63785000Y-45533750D01*
G75*
G02*
X63717500Y-45601250I-67500J0D01*
G01*
X63582500Y-45601250D01*
G75*
G02*
X63515000Y-45533750I0J67500D01*
G01*
X63515000Y-44341250D01*
G75*
G02*
X63582500Y-44273750I67500J0D01*
G01*
X63717500Y-44273750D01*
G75*
G02*
X63785000Y-44341250I0J-67500D01*
G01*
G37*
G36*
G01*
X63285000Y-44341250D02*
X63285000Y-45533750D01*
G75*
G02*
X63217500Y-45601250I-67500J0D01*
G01*
X63082500Y-45601250D01*
G75*
G02*
X63015000Y-45533750I0J67500D01*
G01*
X63015000Y-44341250D01*
G75*
G02*
X63082500Y-44273750I67500J0D01*
G01*
X63217500Y-44273750D01*
G75*
G02*
X63285000Y-44341250I0J-67500D01*
G01*
G37*
G36*
G01*
X62785000Y-44341250D02*
X62785000Y-45533750D01*
G75*
G02*
X62717500Y-45601250I-67500J0D01*
G01*
X62582500Y-45601250D01*
G75*
G02*
X62515000Y-45533750I0J67500D01*
G01*
X62515000Y-44341250D01*
G75*
G02*
X62582500Y-44273750I67500J0D01*
G01*
X62717500Y-44273750D01*
G75*
G02*
X62785000Y-44341250I0J-67500D01*
G01*
G37*
G36*
G01*
X61901250Y-46282500D02*
X61901250Y-46417500D01*
G75*
G02*
X61833750Y-46485000I-67500J0D01*
G01*
X60641250Y-46485000D01*
G75*
G02*
X60573750Y-46417500I0J67500D01*
G01*
X60573750Y-46282500D01*
G75*
G02*
X60641250Y-46215000I67500J0D01*
G01*
X61833750Y-46215000D01*
G75*
G02*
X61901250Y-46282500I0J-67500D01*
G01*
G37*
G36*
G01*
X61901250Y-46782500D02*
X61901250Y-46917500D01*
G75*
G02*
X61833750Y-46985000I-67500J0D01*
G01*
X60641250Y-46985000D01*
G75*
G02*
X60573750Y-46917500I0J67500D01*
G01*
X60573750Y-46782500D01*
G75*
G02*
X60641250Y-46715000I67500J0D01*
G01*
X61833750Y-46715000D01*
G75*
G02*
X61901250Y-46782500I0J-67500D01*
G01*
G37*
G36*
G01*
X61901250Y-47282500D02*
X61901250Y-47417500D01*
G75*
G02*
X61833750Y-47485000I-67500J0D01*
G01*
X60641250Y-47485000D01*
G75*
G02*
X60573750Y-47417500I0J67500D01*
G01*
X60573750Y-47282500D01*
G75*
G02*
X60641250Y-47215000I67500J0D01*
G01*
X61833750Y-47215000D01*
G75*
G02*
X61901250Y-47282500I0J-67500D01*
G01*
G37*
G36*
G01*
X61901250Y-47782500D02*
X61901250Y-47917500D01*
G75*
G02*
X61833750Y-47985000I-67500J0D01*
G01*
X60641250Y-47985000D01*
G75*
G02*
X60573750Y-47917500I0J67500D01*
G01*
X60573750Y-47782500D01*
G75*
G02*
X60641250Y-47715000I67500J0D01*
G01*
X61833750Y-47715000D01*
G75*
G02*
X61901250Y-47782500I0J-67500D01*
G01*
G37*
G36*
G01*
X61901250Y-48282500D02*
X61901250Y-48417500D01*
G75*
G02*
X61833750Y-48485000I-67500J0D01*
G01*
X60641250Y-48485000D01*
G75*
G02*
X60573750Y-48417500I0J67500D01*
G01*
X60573750Y-48282500D01*
G75*
G02*
X60641250Y-48215000I67500J0D01*
G01*
X61833750Y-48215000D01*
G75*
G02*
X61901250Y-48282500I0J-67500D01*
G01*
G37*
G36*
G01*
X61901250Y-48782500D02*
X61901250Y-48917500D01*
G75*
G02*
X61833750Y-48985000I-67500J0D01*
G01*
X60641250Y-48985000D01*
G75*
G02*
X60573750Y-48917500I0J67500D01*
G01*
X60573750Y-48782500D01*
G75*
G02*
X60641250Y-48715000I67500J0D01*
G01*
X61833750Y-48715000D01*
G75*
G02*
X61901250Y-48782500I0J-67500D01*
G01*
G37*
G36*
G01*
X61901250Y-49282500D02*
X61901250Y-49417500D01*
G75*
G02*
X61833750Y-49485000I-67500J0D01*
G01*
X60641250Y-49485000D01*
G75*
G02*
X60573750Y-49417500I0J67500D01*
G01*
X60573750Y-49282500D01*
G75*
G02*
X60641250Y-49215000I67500J0D01*
G01*
X61833750Y-49215000D01*
G75*
G02*
X61901250Y-49282500I0J-67500D01*
G01*
G37*
G36*
G01*
X61901250Y-49782500D02*
X61901250Y-49917500D01*
G75*
G02*
X61833750Y-49985000I-67500J0D01*
G01*
X60641250Y-49985000D01*
G75*
G02*
X60573750Y-49917500I0J67500D01*
G01*
X60573750Y-49782500D01*
G75*
G02*
X60641250Y-49715000I67500J0D01*
G01*
X61833750Y-49715000D01*
G75*
G02*
X61901250Y-49782500I0J-67500D01*
G01*
G37*
G36*
G01*
X61901250Y-50282500D02*
X61901250Y-50417500D01*
G75*
G02*
X61833750Y-50485000I-67500J0D01*
G01*
X60641250Y-50485000D01*
G75*
G02*
X60573750Y-50417500I0J67500D01*
G01*
X60573750Y-50282500D01*
G75*
G02*
X60641250Y-50215000I67500J0D01*
G01*
X61833750Y-50215000D01*
G75*
G02*
X61901250Y-50282500I0J-67500D01*
G01*
G37*
G36*
G01*
X61901250Y-50782500D02*
X61901250Y-50917500D01*
G75*
G02*
X61833750Y-50985000I-67500J0D01*
G01*
X60641250Y-50985000D01*
G75*
G02*
X60573750Y-50917500I0J67500D01*
G01*
X60573750Y-50782500D01*
G75*
G02*
X60641250Y-50715000I67500J0D01*
G01*
X61833750Y-50715000D01*
G75*
G02*
X61901250Y-50782500I0J-67500D01*
G01*
G37*
G36*
G01*
X61901250Y-51282500D02*
X61901250Y-51417500D01*
G75*
G02*
X61833750Y-51485000I-67500J0D01*
G01*
X60641250Y-51485000D01*
G75*
G02*
X60573750Y-51417500I0J67500D01*
G01*
X60573750Y-51282500D01*
G75*
G02*
X60641250Y-51215000I67500J0D01*
G01*
X61833750Y-51215000D01*
G75*
G02*
X61901250Y-51282500I0J-67500D01*
G01*
G37*
G36*
G01*
X61901250Y-51782500D02*
X61901250Y-51917500D01*
G75*
G02*
X61833750Y-51985000I-67500J0D01*
G01*
X60641250Y-51985000D01*
G75*
G02*
X60573750Y-51917500I0J67500D01*
G01*
X60573750Y-51782500D01*
G75*
G02*
X60641250Y-51715000I67500J0D01*
G01*
X61833750Y-51715000D01*
G75*
G02*
X61901250Y-51782500I0J-67500D01*
G01*
G37*
G36*
G01*
X62785000Y-52666250D02*
X62785000Y-53858750D01*
G75*
G02*
X62717500Y-53926250I-67500J0D01*
G01*
X62582500Y-53926250D01*
G75*
G02*
X62515000Y-53858750I0J67500D01*
G01*
X62515000Y-52666250D01*
G75*
G02*
X62582500Y-52598750I67500J0D01*
G01*
X62717500Y-52598750D01*
G75*
G02*
X62785000Y-52666250I0J-67500D01*
G01*
G37*
G36*
G01*
X63285000Y-52666250D02*
X63285000Y-53858750D01*
G75*
G02*
X63217500Y-53926250I-67500J0D01*
G01*
X63082500Y-53926250D01*
G75*
G02*
X63015000Y-53858750I0J67500D01*
G01*
X63015000Y-52666250D01*
G75*
G02*
X63082500Y-52598750I67500J0D01*
G01*
X63217500Y-52598750D01*
G75*
G02*
X63285000Y-52666250I0J-67500D01*
G01*
G37*
G36*
G01*
X63785000Y-52666250D02*
X63785000Y-53858750D01*
G75*
G02*
X63717500Y-53926250I-67500J0D01*
G01*
X63582500Y-53926250D01*
G75*
G02*
X63515000Y-53858750I0J67500D01*
G01*
X63515000Y-52666250D01*
G75*
G02*
X63582500Y-52598750I67500J0D01*
G01*
X63717500Y-52598750D01*
G75*
G02*
X63785000Y-52666250I0J-67500D01*
G01*
G37*
G36*
G01*
X64285000Y-52666250D02*
X64285000Y-53858750D01*
G75*
G02*
X64217500Y-53926250I-67500J0D01*
G01*
X64082500Y-53926250D01*
G75*
G02*
X64015000Y-53858750I0J67500D01*
G01*
X64015000Y-52666250D01*
G75*
G02*
X64082500Y-52598750I67500J0D01*
G01*
X64217500Y-52598750D01*
G75*
G02*
X64285000Y-52666250I0J-67500D01*
G01*
G37*
G36*
G01*
X64785000Y-52666250D02*
X64785000Y-53858750D01*
G75*
G02*
X64717500Y-53926250I-67500J0D01*
G01*
X64582500Y-53926250D01*
G75*
G02*
X64515000Y-53858750I0J67500D01*
G01*
X64515000Y-52666250D01*
G75*
G02*
X64582500Y-52598750I67500J0D01*
G01*
X64717500Y-52598750D01*
G75*
G02*
X64785000Y-52666250I0J-67500D01*
G01*
G37*
G36*
G01*
X65285000Y-52666250D02*
X65285000Y-53858750D01*
G75*
G02*
X65217500Y-53926250I-67500J0D01*
G01*
X65082500Y-53926250D01*
G75*
G02*
X65015000Y-53858750I0J67500D01*
G01*
X65015000Y-52666250D01*
G75*
G02*
X65082500Y-52598750I67500J0D01*
G01*
X65217500Y-52598750D01*
G75*
G02*
X65285000Y-52666250I0J-67500D01*
G01*
G37*
G36*
G01*
X65785000Y-52666250D02*
X65785000Y-53858750D01*
G75*
G02*
X65717500Y-53926250I-67500J0D01*
G01*
X65582500Y-53926250D01*
G75*
G02*
X65515000Y-53858750I0J67500D01*
G01*
X65515000Y-52666250D01*
G75*
G02*
X65582500Y-52598750I67500J0D01*
G01*
X65717500Y-52598750D01*
G75*
G02*
X65785000Y-52666250I0J-67500D01*
G01*
G37*
G36*
G01*
X66285000Y-52666250D02*
X66285000Y-53858750D01*
G75*
G02*
X66217500Y-53926250I-67500J0D01*
G01*
X66082500Y-53926250D01*
G75*
G02*
X66015000Y-53858750I0J67500D01*
G01*
X66015000Y-52666250D01*
G75*
G02*
X66082500Y-52598750I67500J0D01*
G01*
X66217500Y-52598750D01*
G75*
G02*
X66285000Y-52666250I0J-67500D01*
G01*
G37*
G36*
G01*
X66785000Y-52666250D02*
X66785000Y-53858750D01*
G75*
G02*
X66717500Y-53926250I-67500J0D01*
G01*
X66582500Y-53926250D01*
G75*
G02*
X66515000Y-53858750I0J67500D01*
G01*
X66515000Y-52666250D01*
G75*
G02*
X66582500Y-52598750I67500J0D01*
G01*
X66717500Y-52598750D01*
G75*
G02*
X66785000Y-52666250I0J-67500D01*
G01*
G37*
G36*
G01*
X67285000Y-52666250D02*
X67285000Y-53858750D01*
G75*
G02*
X67217500Y-53926250I-67500J0D01*
G01*
X67082500Y-53926250D01*
G75*
G02*
X67015000Y-53858750I0J67500D01*
G01*
X67015000Y-52666250D01*
G75*
G02*
X67082500Y-52598750I67500J0D01*
G01*
X67217500Y-52598750D01*
G75*
G02*
X67285000Y-52666250I0J-67500D01*
G01*
G37*
G36*
G01*
X67785000Y-52666250D02*
X67785000Y-53858750D01*
G75*
G02*
X67717500Y-53926250I-67500J0D01*
G01*
X67582500Y-53926250D01*
G75*
G02*
X67515000Y-53858750I0J67500D01*
G01*
X67515000Y-52666250D01*
G75*
G02*
X67582500Y-52598750I67500J0D01*
G01*
X67717500Y-52598750D01*
G75*
G02*
X67785000Y-52666250I0J-67500D01*
G01*
G37*
G36*
G01*
X68285000Y-52666250D02*
X68285000Y-53858750D01*
G75*
G02*
X68217500Y-53926250I-67500J0D01*
G01*
X68082500Y-53926250D01*
G75*
G02*
X68015000Y-53858750I0J67500D01*
G01*
X68015000Y-52666250D01*
G75*
G02*
X68082500Y-52598750I67500J0D01*
G01*
X68217500Y-52598750D01*
G75*
G02*
X68285000Y-52666250I0J-67500D01*
G01*
G37*
%TD*%
D15*
%TO.C,U2*%
X48700000Y-40500000D03*
X46800000Y-40500000D03*
X47750000Y-42500000D03*
%TD*%
%TO.C,U5*%
G36*
G01*
X72630000Y-44652500D02*
X72360000Y-44652500D01*
G75*
G02*
X72225000Y-44517500I0J135000D01*
G01*
X72225000Y-43032500D01*
G75*
G02*
X72360000Y-42897500I135000J0D01*
G01*
X72630000Y-42897500D01*
G75*
G02*
X72765000Y-43032500I0J-135000D01*
G01*
X72765000Y-44517500D01*
G75*
G02*
X72630000Y-44652500I-135000J0D01*
G01*
G37*
G36*
G01*
X73900000Y-44652500D02*
X73630000Y-44652500D01*
G75*
G02*
X73495000Y-44517500I0J135000D01*
G01*
X73495000Y-43032500D01*
G75*
G02*
X73630000Y-42897500I135000J0D01*
G01*
X73900000Y-42897500D01*
G75*
G02*
X74035000Y-43032500I0J-135000D01*
G01*
X74035000Y-44517500D01*
G75*
G02*
X73900000Y-44652500I-135000J0D01*
G01*
G37*
G36*
G01*
X75170000Y-44652500D02*
X74900000Y-44652500D01*
G75*
G02*
X74765000Y-44517500I0J135000D01*
G01*
X74765000Y-43032500D01*
G75*
G02*
X74900000Y-42897500I135000J0D01*
G01*
X75170000Y-42897500D01*
G75*
G02*
X75305000Y-43032500I0J-135000D01*
G01*
X75305000Y-44517500D01*
G75*
G02*
X75170000Y-44652500I-135000J0D01*
G01*
G37*
G36*
G01*
X76440000Y-44652500D02*
X76170000Y-44652500D01*
G75*
G02*
X76035000Y-44517500I0J135000D01*
G01*
X76035000Y-43032500D01*
G75*
G02*
X76170000Y-42897500I135000J0D01*
G01*
X76440000Y-42897500D01*
G75*
G02*
X76575000Y-43032500I0J-135000D01*
G01*
X76575000Y-44517500D01*
G75*
G02*
X76440000Y-44652500I-135000J0D01*
G01*
G37*
G36*
G01*
X76440000Y-39702500D02*
X76170000Y-39702500D01*
G75*
G02*
X76035000Y-39567500I0J135000D01*
G01*
X76035000Y-38082500D01*
G75*
G02*
X76170000Y-37947500I135000J0D01*
G01*
X76440000Y-37947500D01*
G75*
G02*
X76575000Y-38082500I0J-135000D01*
G01*
X76575000Y-39567500D01*
G75*
G02*
X76440000Y-39702500I-135000J0D01*
G01*
G37*
G36*
G01*
X75170000Y-39702500D02*
X74900000Y-39702500D01*
G75*
G02*
X74765000Y-39567500I0J135000D01*
G01*
X74765000Y-38082500D01*
G75*
G02*
X74900000Y-37947500I135000J0D01*
G01*
X75170000Y-37947500D01*
G75*
G02*
X75305000Y-38082500I0J-135000D01*
G01*
X75305000Y-39567500D01*
G75*
G02*
X75170000Y-39702500I-135000J0D01*
G01*
G37*
G36*
G01*
X73900000Y-39702500D02*
X73630000Y-39702500D01*
G75*
G02*
X73495000Y-39567500I0J135000D01*
G01*
X73495000Y-38082500D01*
G75*
G02*
X73630000Y-37947500I135000J0D01*
G01*
X73900000Y-37947500D01*
G75*
G02*
X74035000Y-38082500I0J-135000D01*
G01*
X74035000Y-39567500D01*
G75*
G02*
X73900000Y-39702500I-135000J0D01*
G01*
G37*
G36*
G01*
X72630000Y-39702500D02*
X72360000Y-39702500D01*
G75*
G02*
X72225000Y-39567500I0J135000D01*
G01*
X72225000Y-38082500D01*
G75*
G02*
X72360000Y-37947500I135000J0D01*
G01*
X72630000Y-37947500D01*
G75*
G02*
X72765000Y-38082500I0J-135000D01*
G01*
X72765000Y-39567500D01*
G75*
G02*
X72630000Y-39702500I-135000J0D01*
G01*
G37*
%TD*%
D16*
%TO.C,X1*%
X76250000Y-56550000D03*
X76250000Y-54350000D03*
X74550000Y-54350000D03*
X74550000Y-56550000D03*
%TD*%
%TO.C,C15*%
G36*
G01*
X74847000Y-45368000D02*
X75153000Y-45368000D01*
G75*
G02*
X75279000Y-45494000I0J-126000D01*
G01*
X75279000Y-45746000D01*
G75*
G02*
X75153000Y-45872000I-126000J0D01*
G01*
X74847000Y-45872000D01*
G75*
G02*
X74721000Y-45746000I0J126000D01*
G01*
X74721000Y-45494000D01*
G75*
G02*
X74847000Y-45368000I126000J0D01*
G01*
G37*
G36*
G01*
X74847000Y-46328000D02*
X75153000Y-46328000D01*
G75*
G02*
X75279000Y-46454000I0J-126000D01*
G01*
X75279000Y-46706000D01*
G75*
G02*
X75153000Y-46832000I-126000J0D01*
G01*
X74847000Y-46832000D01*
G75*
G02*
X74721000Y-46706000I0J126000D01*
G01*
X74721000Y-46454000D01*
G75*
G02*
X74847000Y-46328000I126000J0D01*
G01*
G37*
%TD*%
D17*
%TO.C,U4*%
X57960000Y-50750000D03*
X57960000Y-49800000D03*
X57960000Y-48850000D03*
X55640000Y-48850000D03*
X55640000Y-49800000D03*
X55640000Y-50750000D03*
%TD*%
%TO.C,R14*%
G36*
G01*
X61966500Y-40153000D02*
X61633500Y-40153000D01*
G75*
G02*
X61512000Y-40031500I0J121500D01*
G01*
X61512000Y-39788500D01*
G75*
G02*
X61633500Y-39667000I121500J0D01*
G01*
X61966500Y-39667000D01*
G75*
G02*
X62088000Y-39788500I0J-121500D01*
G01*
X62088000Y-40031500D01*
G75*
G02*
X61966500Y-40153000I-121500J0D01*
G01*
G37*
G36*
G01*
X61966500Y-39133000D02*
X61633500Y-39133000D01*
G75*
G02*
X61512000Y-39011500I0J121500D01*
G01*
X61512000Y-38768500D01*
G75*
G02*
X61633500Y-38647000I121500J0D01*
G01*
X61966500Y-38647000D01*
G75*
G02*
X62088000Y-38768500I0J-121500D01*
G01*
X62088000Y-39011500D01*
G75*
G02*
X61966500Y-39133000I-121500J0D01*
G01*
G37*
%TD*%
%TO.C,R15*%
G36*
G01*
X60966500Y-39133000D02*
X60633500Y-39133000D01*
G75*
G02*
X60512000Y-39011500I0J121500D01*
G01*
X60512000Y-38768500D01*
G75*
G02*
X60633500Y-38647000I121500J0D01*
G01*
X60966500Y-38647000D01*
G75*
G02*
X61088000Y-38768500I0J-121500D01*
G01*
X61088000Y-39011500D01*
G75*
G02*
X60966500Y-39133000I-121500J0D01*
G01*
G37*
G36*
G01*
X60966500Y-40153000D02*
X60633500Y-40153000D01*
G75*
G02*
X60512000Y-40031500I0J121500D01*
G01*
X60512000Y-39788500D01*
G75*
G02*
X60633500Y-39667000I121500J0D01*
G01*
X60966500Y-39667000D01*
G75*
G02*
X61088000Y-39788500I0J-121500D01*
G01*
X61088000Y-40031500D01*
G75*
G02*
X60966500Y-40153000I-121500J0D01*
G01*
G37*
%TD*%
%TO.C,R16*%
G36*
G01*
X59966500Y-40153000D02*
X59633500Y-40153000D01*
G75*
G02*
X59512000Y-40031500I0J121500D01*
G01*
X59512000Y-39788500D01*
G75*
G02*
X59633500Y-39667000I121500J0D01*
G01*
X59966500Y-39667000D01*
G75*
G02*
X60088000Y-39788500I0J-121500D01*
G01*
X60088000Y-40031500D01*
G75*
G02*
X59966500Y-40153000I-121500J0D01*
G01*
G37*
G36*
G01*
X59966500Y-39133000D02*
X59633500Y-39133000D01*
G75*
G02*
X59512000Y-39011500I0J121500D01*
G01*
X59512000Y-38768500D01*
G75*
G02*
X59633500Y-38647000I121500J0D01*
G01*
X59966500Y-38647000D01*
G75*
G02*
X60088000Y-38768500I0J-121500D01*
G01*
X60088000Y-39011500D01*
G75*
G02*
X59966500Y-39133000I-121500J0D01*
G01*
G37*
%TD*%
D18*
%TO.C,U3*%
X52150000Y-38250000D03*
X52150000Y-39200000D03*
X52150000Y-40150000D03*
X54350000Y-40150000D03*
X54350000Y-38250000D03*
%TD*%
%TO.C,R17*%
G36*
G01*
X67166500Y-39133000D02*
X66833500Y-39133000D01*
G75*
G02*
X66712000Y-39011500I0J121500D01*
G01*
X66712000Y-38768500D01*
G75*
G02*
X66833500Y-38647000I121500J0D01*
G01*
X67166500Y-38647000D01*
G75*
G02*
X67288000Y-38768500I0J-121500D01*
G01*
X67288000Y-39011500D01*
G75*
G02*
X67166500Y-39133000I-121500J0D01*
G01*
G37*
G36*
G01*
X67166500Y-40153000D02*
X66833500Y-40153000D01*
G75*
G02*
X66712000Y-40031500I0J121500D01*
G01*
X66712000Y-39788500D01*
G75*
G02*
X66833500Y-39667000I121500J0D01*
G01*
X67166500Y-39667000D01*
G75*
G02*
X67288000Y-39788500I0J-121500D01*
G01*
X67288000Y-40031500D01*
G75*
G02*
X67166500Y-40153000I-121500J0D01*
G01*
G37*
%TD*%
%TO.C,R18*%
G36*
G01*
X68166500Y-40153000D02*
X67833500Y-40153000D01*
G75*
G02*
X67712000Y-40031500I0J121500D01*
G01*
X67712000Y-39788500D01*
G75*
G02*
X67833500Y-39667000I121500J0D01*
G01*
X68166500Y-39667000D01*
G75*
G02*
X68288000Y-39788500I0J-121500D01*
G01*
X68288000Y-40031500D01*
G75*
G02*
X68166500Y-40153000I-121500J0D01*
G01*
G37*
G36*
G01*
X68166500Y-39133000D02*
X67833500Y-39133000D01*
G75*
G02*
X67712000Y-39011500I0J121500D01*
G01*
X67712000Y-38768500D01*
G75*
G02*
X67833500Y-38647000I121500J0D01*
G01*
X68166500Y-38647000D01*
G75*
G02*
X68288000Y-38768500I0J-121500D01*
G01*
X68288000Y-39011500D01*
G75*
G02*
X68166500Y-39133000I-121500J0D01*
G01*
G37*
%TD*%
M02*
