%TF.GenerationSoftware,KiCad,Pcbnew,5.1.9*%
%TF.CreationDate,2021-02-28T20:30:44+01:00*%
%TF.ProjectId,can-usb-dongle,63616e2d-7573-4622-9d64-6f6e676c652e,rev?*%
%TF.SameCoordinates,Original*%
%TF.FileFunction,Legend,Bot*%
%TF.FilePolarity,Positive*%
%FSLAX46Y46*%
G04 Gerber Fmt 4.6, Leading zero omitted, Abs format (unit mm)*
G04 Created by KiCad (PCBNEW 5.1.9) date 2021-02-28 20:30:44*
%MOMM*%
%LPD*%
G01*
G04 APERTURE LIST*
%ADD10C,0.120000*%
%ADD11C,0.150000*%
G04 APERTURE END LIST*
D10*
%TO.C,J4*%
X89710000Y-46985000D02*
X89260000Y-46985000D01*
X89710000Y-40015000D02*
X89710000Y-46985000D01*
X89260000Y-40015000D02*
X89710000Y-40015000D01*
X85290000Y-46985000D02*
X85290000Y-46035000D01*
X85740000Y-46985000D02*
X85290000Y-46985000D01*
X85290000Y-40965000D02*
X83800000Y-40965000D01*
X85290000Y-40015000D02*
X85290000Y-40965000D01*
X85740000Y-40015000D02*
X85290000Y-40015000D01*
%TO.C,J5*%
X85740000Y-53015000D02*
X85290000Y-53015000D01*
X85290000Y-53015000D02*
X85290000Y-53965000D01*
X85290000Y-53965000D02*
X83800000Y-53965000D01*
X85740000Y-59985000D02*
X85290000Y-59985000D01*
X85290000Y-59985000D02*
X85290000Y-59035000D01*
X89260000Y-53015000D02*
X89710000Y-53015000D01*
X89710000Y-53015000D02*
X89710000Y-59985000D01*
X89710000Y-59985000D02*
X89260000Y-59985000D01*
%TO.C,J1*%
X74860000Y-58990000D02*
X74860000Y-58540000D01*
X74860000Y-58540000D02*
X73910000Y-58540000D01*
X73910000Y-58540000D02*
X73910000Y-57050000D01*
X64140000Y-58990000D02*
X64140000Y-58540000D01*
X64140000Y-58540000D02*
X65090000Y-58540000D01*
X74860000Y-62510000D02*
X74860000Y-62960000D01*
X74860000Y-62960000D02*
X64140000Y-62960000D01*
X64140000Y-62960000D02*
X64140000Y-62510000D01*
%TO.C,J2*%
X66015000Y-41010000D02*
X66015000Y-41460000D01*
X66015000Y-41460000D02*
X66965000Y-41460000D01*
X66965000Y-41460000D02*
X66965000Y-42950000D01*
X72985000Y-41010000D02*
X72985000Y-41460000D01*
X72985000Y-41460000D02*
X72035000Y-41460000D01*
X66015000Y-37490000D02*
X66015000Y-37040000D01*
X66015000Y-37040000D02*
X72985000Y-37040000D01*
X72985000Y-37040000D02*
X72985000Y-37490000D01*
%TO.C,J8*%
X50140000Y-41010000D02*
X50140000Y-41460000D01*
X50140000Y-41460000D02*
X51090000Y-41460000D01*
X51090000Y-41460000D02*
X51090000Y-42950000D01*
X60860000Y-41010000D02*
X60860000Y-41460000D01*
X60860000Y-41460000D02*
X59910000Y-41460000D01*
X50140000Y-37490000D02*
X50140000Y-37040000D01*
X50140000Y-37040000D02*
X60860000Y-37040000D01*
X60860000Y-37040000D02*
X60860000Y-37490000D01*
%TO.C,J4*%
D11*
X84061904Y-46733333D02*
X84633333Y-46733333D01*
X84747619Y-46695238D01*
X84823809Y-46619047D01*
X84861904Y-46504761D01*
X84861904Y-46428571D01*
X84328571Y-47457142D02*
X84861904Y-47457142D01*
X84023809Y-47266666D02*
X84595238Y-47076190D01*
X84595238Y-47571428D01*
%TO.C,J5*%
X83561904Y-59733333D02*
X84133333Y-59733333D01*
X84247619Y-59695238D01*
X84323809Y-59619047D01*
X84361904Y-59504761D01*
X84361904Y-59428571D01*
X83561904Y-60495238D02*
X83561904Y-60114285D01*
X83942857Y-60076190D01*
X83904761Y-60114285D01*
X83866666Y-60190476D01*
X83866666Y-60380952D01*
X83904761Y-60457142D01*
X83942857Y-60495238D01*
X84019047Y-60533333D01*
X84209523Y-60533333D01*
X84285714Y-60495238D01*
X84323809Y-60457142D01*
X84361904Y-60380952D01*
X84361904Y-60190476D01*
X84323809Y-60114285D01*
X84285714Y-60076190D01*
%TO.C,J1*%
X69833333Y-55302380D02*
X69833333Y-56016666D01*
X69880952Y-56159523D01*
X69976190Y-56254761D01*
X70119047Y-56302380D01*
X70214285Y-56302380D01*
X68833333Y-56302380D02*
X69404761Y-56302380D01*
X69119047Y-56302380D02*
X69119047Y-55302380D01*
X69214285Y-55445238D01*
X69309523Y-55540476D01*
X69404761Y-55588095D01*
%TO.C,J2*%
X69833333Y-43602380D02*
X69833333Y-44316666D01*
X69880952Y-44459523D01*
X69976190Y-44554761D01*
X70119047Y-44602380D01*
X70214285Y-44602380D01*
X69404761Y-43697619D02*
X69357142Y-43650000D01*
X69261904Y-43602380D01*
X69023809Y-43602380D01*
X68928571Y-43650000D01*
X68880952Y-43697619D01*
X68833333Y-43792857D01*
X68833333Y-43888095D01*
X68880952Y-44030952D01*
X69452380Y-44602380D01*
X68833333Y-44602380D01*
%TO.C,J8*%
X55833333Y-43602380D02*
X55833333Y-44316666D01*
X55880952Y-44459523D01*
X55976190Y-44554761D01*
X56119047Y-44602380D01*
X56214285Y-44602380D01*
X55214285Y-44030952D02*
X55309523Y-43983333D01*
X55357142Y-43935714D01*
X55404761Y-43840476D01*
X55404761Y-43792857D01*
X55357142Y-43697619D01*
X55309523Y-43650000D01*
X55214285Y-43602380D01*
X55023809Y-43602380D01*
X54928571Y-43650000D01*
X54880952Y-43697619D01*
X54833333Y-43792857D01*
X54833333Y-43840476D01*
X54880952Y-43935714D01*
X54928571Y-43983333D01*
X55023809Y-44030952D01*
X55214285Y-44030952D01*
X55309523Y-44078571D01*
X55357142Y-44126190D01*
X55404761Y-44221428D01*
X55404761Y-44411904D01*
X55357142Y-44507142D01*
X55309523Y-44554761D01*
X55214285Y-44602380D01*
X55023809Y-44602380D01*
X54928571Y-44554761D01*
X54880952Y-44507142D01*
X54833333Y-44411904D01*
X54833333Y-44221428D01*
X54880952Y-44126190D01*
X54928571Y-44078571D01*
X55023809Y-44030952D01*
%TD*%
M02*
