G04 #@! TF.FileFunction,Copper,L2,Bot,Signal*
%FSLAX46Y46*%
G04 Gerber Fmt 4.6, Leading zero omitted, Abs format (unit mm)*
G04 Created by KiCad (PCBNEW (2015-10-14 BZR 6267)-product) date 2015 October 25, Sunday 21:22:18*
%MOMM*%
G01*
G04 APERTURE LIST*
%ADD10C,0.100000*%
%ADD11O,1.600000X0.900000*%
%ADD12R,1.600000X0.800000*%
%ADD13R,3.000000X2.100000*%
%ADD14R,0.800000X2.000000*%
%ADD15R,0.700000X1.000000*%
%ADD16R,1.000000X0.700000*%
%ADD17R,2.000000X1.100000*%
%ADD18R,1.550000X0.600000*%
%ADD19R,0.800000X0.800000*%
%ADD20C,0.800000*%
%ADD21C,1.000000*%
%ADD22C,0.200000*%
%ADD23C,0.300000*%
%ADD24C,0.250000*%
G04 APERTURE END LIST*
D10*
D11*
X46500000Y-48300000D03*
X46500000Y-41700000D03*
D12*
X70350000Y-48625000D03*
X70350000Y-47375000D03*
X70350000Y-46125000D03*
X70350000Y-44875000D03*
D13*
X73250000Y-42325000D03*
X73250000Y-51175000D03*
D14*
X56980000Y-50250000D03*
X55710000Y-50250000D03*
X58250000Y-50250000D03*
X59520000Y-50250000D03*
X60790000Y-50250000D03*
D15*
X57300000Y-48250000D03*
X58700000Y-48250000D03*
D16*
X54500000Y-42800000D03*
X54500000Y-44200000D03*
X58500000Y-43200000D03*
X58500000Y-41800000D03*
D15*
X68450000Y-48500000D03*
X67050000Y-48500000D03*
X51550000Y-40750000D03*
X52950000Y-40750000D03*
D16*
X46000000Y-51700000D03*
X46000000Y-50300000D03*
D15*
X67050000Y-51500000D03*
X68450000Y-51500000D03*
X67050000Y-50000000D03*
X68450000Y-50000000D03*
X59300000Y-47000000D03*
X60700000Y-47000000D03*
X49950000Y-40750000D03*
X48550000Y-40750000D03*
X59550000Y-40250000D03*
X60950000Y-40250000D03*
D16*
X55750000Y-38550000D03*
X55750000Y-39950000D03*
D15*
X65700000Y-51500000D03*
X64300000Y-51500000D03*
X65700000Y-50000000D03*
X64300000Y-50000000D03*
D17*
X49000000Y-42775000D03*
X49000000Y-47225000D03*
D18*
X61550000Y-45655000D03*
X61550000Y-44385000D03*
X61550000Y-43115000D03*
X61550000Y-41845000D03*
X66950000Y-41845000D03*
X66950000Y-43115000D03*
X66950000Y-44385000D03*
X66950000Y-45655000D03*
D16*
X56000000Y-42800000D03*
X56000000Y-44200000D03*
D19*
X69500000Y-39750000D03*
D20*
X70750000Y-39750000D03*
X72000000Y-39750000D03*
X73250000Y-39750000D03*
D16*
X57750000Y-39950000D03*
X57750000Y-38550000D03*
D21*
X64250000Y-41050010D03*
X63500000Y-39250000D03*
X53000000Y-39750000D03*
X53489109Y-49532673D03*
D20*
X57265079Y-43790486D03*
X62500000Y-51000000D03*
D21*
X54250000Y-41985560D03*
X50500000Y-48750000D03*
D20*
X67500000Y-47250000D03*
D21*
X69499990Y-50077642D03*
X53250000Y-47750000D03*
X70250000Y-41750000D03*
X73750000Y-44500000D03*
X70601048Y-51601048D03*
X73750000Y-49000000D03*
D20*
X54750000Y-51750000D03*
X50500000Y-51750000D03*
X60500000Y-44500000D03*
X47141570Y-40059143D03*
D21*
X56250000Y-48000000D03*
X51000000Y-39750000D03*
X51000000Y-46500000D03*
X65250000Y-38500000D03*
X54000000Y-38250000D03*
D20*
X58250000Y-44000000D03*
X59500000Y-44000000D03*
D21*
X65500000Y-48250000D03*
X54500000Y-40250000D03*
D20*
X61500000Y-49000000D03*
X60250000Y-48250000D03*
X68750000Y-44500000D03*
X73000000Y-46750000D03*
X72000000Y-46750000D03*
X51250000Y-43000000D03*
X55777820Y-40972180D03*
X56700000Y-45500000D03*
X52750000Y-46500000D03*
X64500000Y-45250000D03*
X60400000Y-45700000D03*
X56770330Y-40850002D03*
X62000000Y-47250000D03*
X64582087Y-48979479D03*
X47250000Y-51750000D03*
D21*
X72000000Y-44500000D03*
D22*
X60700000Y-47000000D02*
X60700000Y-47150000D01*
X60700000Y-47150000D02*
X62500000Y-48950000D01*
X62500000Y-48950000D02*
X62500000Y-50434315D01*
X62500000Y-50434315D02*
X62500000Y-51000000D01*
D23*
X53000000Y-39750000D02*
X53741998Y-39750000D01*
X53741998Y-39750000D02*
X54241998Y-39250000D01*
X60500000Y-39250000D02*
X63500000Y-39250000D01*
X54241998Y-39250000D02*
X60500000Y-39250000D01*
X66950000Y-41845000D02*
X65044990Y-41845000D01*
X65044990Y-41845000D02*
X64250000Y-41050010D01*
X63500000Y-39250000D02*
X64741998Y-39250000D01*
X64741998Y-39250000D02*
X65241998Y-39750000D01*
X65241998Y-39750000D02*
X68800000Y-39750000D01*
X52950000Y-41250000D02*
X52950000Y-39800000D01*
X52950000Y-39800000D02*
X53000000Y-39750000D01*
X52950000Y-41250000D02*
X52950000Y-43960290D01*
X52950000Y-43960290D02*
X53200000Y-44210290D01*
D22*
X49000000Y-47225000D02*
X50200000Y-47225000D01*
X51018563Y-48043563D02*
X51999999Y-48043563D01*
X50200000Y-47225000D02*
X51018563Y-48043563D01*
D23*
X53200000Y-44210290D02*
X53200000Y-44939998D01*
X54500000Y-44200000D02*
X53210290Y-44200000D01*
X53210290Y-44200000D02*
X53200000Y-44210290D01*
X56000000Y-44200000D02*
X54500000Y-44200000D01*
X56000000Y-44200000D02*
X56855565Y-44200000D01*
X56855565Y-44200000D02*
X57265079Y-43790486D01*
X55710000Y-50250000D02*
X54206436Y-50250000D01*
X54206436Y-50250000D02*
X53489109Y-49532673D01*
X53200000Y-44939998D02*
X51999999Y-46139999D01*
X51999999Y-46139999D02*
X51999999Y-48043563D01*
X51999999Y-48043563D02*
X52989110Y-49032674D01*
X52989110Y-49032674D02*
X53489109Y-49532673D01*
X68800000Y-39750000D02*
X69500000Y-39750000D01*
X55910000Y-51750000D02*
X61750000Y-51750000D01*
X61750000Y-51750000D02*
X62500000Y-51000000D01*
X55710000Y-51550000D02*
X55910000Y-51750000D01*
X55710000Y-50250000D02*
X55710000Y-51550000D01*
X51550000Y-40750000D02*
X51550000Y-40300000D01*
X51550000Y-40300000D02*
X51000000Y-39750000D01*
D22*
X49950000Y-40750000D02*
X51550000Y-40750000D01*
X68450000Y-50000000D02*
X68450000Y-51500000D01*
X68450000Y-48500000D02*
X68450000Y-50000000D01*
D23*
X64750001Y-38000001D02*
X61328853Y-38000001D01*
X57750000Y-38550000D02*
X60778854Y-38550000D01*
X60778854Y-38550000D02*
X61328853Y-38000001D01*
X65250000Y-38500000D02*
X64750001Y-38000001D01*
X55750000Y-38550000D02*
X57750000Y-38550000D01*
X55750000Y-38550000D02*
X54300000Y-38550000D01*
X54300000Y-38550000D02*
X54000000Y-38250000D01*
X54500000Y-42800000D02*
X54500000Y-42235560D01*
X54500000Y-42235560D02*
X54250000Y-41985560D01*
X56250000Y-48000000D02*
X58250000Y-46000000D01*
X58250000Y-46000000D02*
X58250000Y-44000000D01*
X73250000Y-42325000D02*
X73250000Y-44000000D01*
X73250000Y-44000000D02*
X73750000Y-44500000D01*
X73250000Y-51175000D02*
X73250000Y-49500000D01*
X73250000Y-49500000D02*
X73750000Y-49000000D01*
D22*
X60474999Y-43224999D02*
X60474999Y-44284999D01*
X60474999Y-44284999D02*
X60575000Y-44385000D01*
X60575000Y-44385000D02*
X61550000Y-44385000D01*
X59500000Y-42950000D02*
X60200000Y-42950000D01*
X60200000Y-42950000D02*
X60474999Y-43224999D01*
X61550000Y-44385000D02*
X61075000Y-44385000D01*
X60500000Y-43963998D02*
X60500000Y-44500000D01*
D23*
X57300000Y-48250000D02*
X57300000Y-49930000D01*
X57300000Y-49930000D02*
X56980000Y-50250000D01*
X65000000Y-38250000D02*
X65250000Y-38500000D01*
X51000000Y-39750000D02*
X51000000Y-39292894D01*
X51000000Y-39292894D02*
X52042894Y-38250000D01*
X52042894Y-38250000D02*
X54000000Y-38250000D01*
X70350000Y-46125000D02*
X71450000Y-46125000D01*
X71450000Y-46125000D02*
X72224999Y-45350001D01*
X72224999Y-45350001D02*
X72408001Y-45350001D01*
X72408001Y-45350001D02*
X73250000Y-44508002D01*
X73250000Y-44508002D02*
X73250000Y-43675000D01*
X73250000Y-43675000D02*
X73250000Y-42325000D01*
X58338515Y-42950000D02*
X57532674Y-42950000D01*
X56000000Y-42800000D02*
X57382674Y-42800000D01*
X57382674Y-42800000D02*
X57532674Y-42950000D01*
X54500000Y-42800000D02*
X56000000Y-42800000D01*
X59500000Y-42950000D02*
X59650000Y-42950000D01*
X61085000Y-44385000D02*
X61550000Y-44385000D01*
X59500000Y-42950000D02*
X58338515Y-42950000D01*
X58250000Y-44000000D02*
X58250000Y-43038515D01*
X58250000Y-43038515D02*
X58338515Y-42950000D01*
X61550000Y-44385000D02*
X61245002Y-44385000D01*
X58296242Y-44163752D02*
X58246251Y-44113761D01*
D22*
X59300000Y-47000000D02*
X59300000Y-46040002D01*
X59300000Y-46040002D02*
X59500000Y-45840002D01*
X59500000Y-44565685D02*
X59500000Y-44000000D01*
X59500000Y-45840002D02*
X59500000Y-44565685D01*
X58700000Y-48250000D02*
X58700000Y-47600000D01*
X58700000Y-47600000D02*
X59300000Y-47000000D01*
X58250000Y-50250000D02*
X58250000Y-48700000D01*
X58250000Y-48700000D02*
X58700000Y-48250000D01*
D23*
X67050000Y-48500000D02*
X65750000Y-48500000D01*
X65750000Y-48500000D02*
X65500000Y-48250000D01*
X63250000Y-46000000D02*
X65500000Y-48250000D01*
X63250000Y-46000000D02*
X63250000Y-44340000D01*
X63250000Y-44340000D02*
X62025000Y-43115000D01*
X62025000Y-43115000D02*
X61550000Y-43115000D01*
X54500000Y-40250000D02*
X54500000Y-40957106D01*
X54500000Y-40957106D02*
X55342894Y-41800000D01*
X55342894Y-41800000D02*
X57700000Y-41800000D01*
X57700000Y-41800000D02*
X58500000Y-41800000D01*
X58500000Y-41800000D02*
X59760000Y-41800000D01*
X59760000Y-41800000D02*
X61075000Y-43115000D01*
X61075000Y-43115000D02*
X61550000Y-43115000D01*
X58449998Y-41749998D02*
X58500000Y-41800000D01*
D22*
X60790000Y-50250000D02*
X60790000Y-49710000D01*
X60790000Y-49710000D02*
X61500000Y-49000000D01*
X59520000Y-50250000D02*
X59520000Y-48980000D01*
X59520000Y-48980000D02*
X60250000Y-48250000D01*
X66950000Y-43115000D02*
X67425000Y-43115000D01*
X67425000Y-43115000D02*
X68750000Y-44440000D01*
X68750000Y-44440000D02*
X68750000Y-44500000D01*
X70350000Y-48625000D02*
X71350000Y-48625000D01*
X71350000Y-48625000D02*
X73000000Y-46975000D01*
X73000000Y-46975000D02*
X73000000Y-46750000D01*
X67425000Y-44385000D02*
X68489369Y-45449369D01*
X70350000Y-47375000D02*
X69859998Y-47375000D01*
X69859998Y-47375000D02*
X68489369Y-46004371D01*
X68489369Y-46004371D02*
X68489369Y-45449369D01*
X66950000Y-44385000D02*
X67425000Y-44385000D01*
X70350000Y-47375000D02*
X71375000Y-47375000D01*
X71375000Y-47375000D02*
X72000000Y-46750000D01*
X48550000Y-40750000D02*
X48550000Y-42325000D01*
X48550000Y-42325000D02*
X49000000Y-42775000D01*
X49050000Y-42725000D02*
X49000000Y-42775000D01*
X49000000Y-42775000D02*
X51025000Y-42775000D01*
X51025000Y-42775000D02*
X51250000Y-43000000D01*
X57750000Y-39950000D02*
X59250000Y-39950000D01*
X59250000Y-39950000D02*
X59550000Y-40250000D01*
X55750000Y-39950000D02*
X57750000Y-39950000D01*
X55777820Y-40972180D02*
X55777820Y-39977820D01*
X55777820Y-39977820D02*
X55750000Y-39950000D01*
X56700000Y-45500000D02*
X53750000Y-45500000D01*
X53750000Y-45500000D02*
X52750000Y-46500000D01*
X62160685Y-41845000D02*
X61550000Y-41845000D01*
X64500000Y-44184315D02*
X62160685Y-41845000D01*
X64500000Y-45250000D02*
X64500000Y-44184315D01*
X61550000Y-45655000D02*
X60445000Y-45655000D01*
X60445000Y-45655000D02*
X60400000Y-45700000D01*
X62470001Y-41149999D02*
X65239758Y-43919756D01*
X66604998Y-45655000D02*
X65239758Y-44289760D01*
X66950000Y-45655000D02*
X66604998Y-45655000D01*
X65239758Y-44289760D02*
X65239758Y-43919756D01*
X56770330Y-40850002D02*
X58760000Y-40850002D01*
X58760000Y-40850002D02*
X59059997Y-41149999D01*
X59059997Y-41149999D02*
X62470001Y-41149999D01*
X62000000Y-47250000D02*
X63332834Y-48582834D01*
X63332834Y-48582834D02*
X63332834Y-51082834D01*
X63332834Y-51082834D02*
X63750000Y-51500000D01*
X63750000Y-51500000D02*
X64300000Y-51500000D01*
X64300000Y-50000000D02*
X64300000Y-49261566D01*
X64300000Y-49261566D02*
X64582087Y-48979479D01*
X47250000Y-51750000D02*
X46050000Y-51750000D01*
X46050000Y-51750000D02*
X46000000Y-51700000D01*
X65700000Y-51500000D02*
X67050000Y-51500000D01*
X65700000Y-50000000D02*
X67050000Y-50000000D01*
X60950000Y-40250000D02*
X66970002Y-40250000D01*
X66970002Y-40250000D02*
X70350000Y-43629998D01*
X70350000Y-43629998D02*
X70350000Y-44875000D01*
D23*
X70350000Y-44875000D02*
X71625000Y-44875000D01*
X71625000Y-44875000D02*
X72000000Y-44500000D01*
D24*
X70350000Y-44875000D02*
X70750000Y-44875000D01*
D22*
G36*
X55080064Y-37945672D02*
X54995672Y-38030063D01*
X54950000Y-38140326D01*
X54950000Y-38450000D01*
X55025000Y-38525000D01*
X55725000Y-38525000D01*
X55725000Y-37975000D01*
X55650000Y-37900000D01*
X55850000Y-37900000D01*
X55775000Y-37975000D01*
X55775000Y-38525000D01*
X56475000Y-38525000D01*
X56550000Y-38450000D01*
X56550000Y-38140326D01*
X56504328Y-38030063D01*
X56419936Y-37945672D01*
X56309673Y-37900000D01*
X57190327Y-37900000D01*
X57080064Y-37945672D01*
X56995672Y-38030063D01*
X56950000Y-38140326D01*
X56950000Y-38450000D01*
X57025000Y-38525000D01*
X57725000Y-38525000D01*
X57725000Y-37975000D01*
X57650000Y-37900000D01*
X57850000Y-37900000D01*
X57775000Y-37975000D01*
X57775000Y-38525000D01*
X58475000Y-38525000D01*
X58550000Y-38450000D01*
X58550000Y-38140326D01*
X58504328Y-38030063D01*
X58419936Y-37945672D01*
X58309673Y-37900000D01*
X74600000Y-37900000D01*
X74600000Y-40975000D01*
X73350000Y-40975000D01*
X73275000Y-41050000D01*
X73275000Y-42300000D01*
X73295000Y-42300000D01*
X73295000Y-42350000D01*
X73275000Y-42350000D01*
X73275000Y-43600000D01*
X73350000Y-43675000D01*
X74600000Y-43675000D01*
X74600000Y-49825000D01*
X73350000Y-49825000D01*
X73275000Y-49900000D01*
X73275000Y-51150000D01*
X73295000Y-51150000D01*
X73295000Y-51200000D01*
X73275000Y-51200000D01*
X73275000Y-51220000D01*
X73225000Y-51220000D01*
X73225000Y-51200000D01*
X71525000Y-51200000D01*
X71450000Y-51275000D01*
X71450000Y-52100000D01*
X69083296Y-52100000D01*
X69100000Y-52059673D01*
X69100000Y-51600000D01*
X69025000Y-51525000D01*
X68475000Y-51525000D01*
X68475000Y-51545000D01*
X68425000Y-51545000D01*
X68425000Y-51525000D01*
X67875000Y-51525000D01*
X67800000Y-51600000D01*
X67800000Y-52059673D01*
X67816704Y-52100000D01*
X67685626Y-52100000D01*
X67705877Y-52000000D01*
X67705877Y-51000000D01*
X67684958Y-50888827D01*
X67619255Y-50786721D01*
X67565506Y-50749996D01*
X67613279Y-50719255D01*
X67681778Y-50619003D01*
X67705877Y-50500000D01*
X67705877Y-50100000D01*
X67800000Y-50100000D01*
X67800000Y-50559673D01*
X67845672Y-50669936D01*
X67925735Y-50750000D01*
X67845672Y-50830064D01*
X67800000Y-50940327D01*
X67800000Y-51400000D01*
X67875000Y-51475000D01*
X68425000Y-51475000D01*
X68425000Y-50775000D01*
X68400000Y-50750000D01*
X68425000Y-50725000D01*
X68425000Y-50025000D01*
X68475000Y-50025000D01*
X68475000Y-50725000D01*
X68500000Y-50750000D01*
X68475000Y-50775000D01*
X68475000Y-51475000D01*
X69025000Y-51475000D01*
X69100000Y-51400000D01*
X69100000Y-50940327D01*
X69054328Y-50830064D01*
X68974265Y-50750000D01*
X69054328Y-50669936D01*
X69100000Y-50559673D01*
X69100000Y-50100000D01*
X69065326Y-50065326D01*
X71450000Y-50065326D01*
X71450000Y-51075000D01*
X71525000Y-51150000D01*
X73225000Y-51150000D01*
X73225000Y-49900000D01*
X73150000Y-49825000D01*
X71690327Y-49825000D01*
X71580064Y-49870672D01*
X71495672Y-49955063D01*
X71450000Y-50065326D01*
X69065326Y-50065326D01*
X69025000Y-50025000D01*
X68475000Y-50025000D01*
X68425000Y-50025000D01*
X67875000Y-50025000D01*
X67800000Y-50100000D01*
X67705877Y-50100000D01*
X67705877Y-49500000D01*
X67684958Y-49388827D01*
X67619255Y-49286721D01*
X67565506Y-49249996D01*
X67613279Y-49219255D01*
X67681778Y-49119003D01*
X67705877Y-49000000D01*
X67705877Y-48600000D01*
X67800000Y-48600000D01*
X67800000Y-49059673D01*
X67845672Y-49169936D01*
X67925735Y-49250000D01*
X67845672Y-49330064D01*
X67800000Y-49440327D01*
X67800000Y-49900000D01*
X67875000Y-49975000D01*
X68425000Y-49975000D01*
X68425000Y-49275000D01*
X68400000Y-49250000D01*
X68425000Y-49225000D01*
X68425000Y-48525000D01*
X68475000Y-48525000D01*
X68475000Y-49225000D01*
X68500000Y-49250000D01*
X68475000Y-49275000D01*
X68475000Y-49975000D01*
X69025000Y-49975000D01*
X69100000Y-49900000D01*
X69100000Y-49440327D01*
X69054328Y-49330064D01*
X68974265Y-49250000D01*
X69054328Y-49169936D01*
X69100000Y-49059673D01*
X69100000Y-48600000D01*
X69025000Y-48525000D01*
X68475000Y-48525000D01*
X68425000Y-48525000D01*
X67875000Y-48525000D01*
X67800000Y-48600000D01*
X67705877Y-48600000D01*
X67705877Y-48000000D01*
X67694649Y-47940327D01*
X67800000Y-47940327D01*
X67800000Y-48400000D01*
X67875000Y-48475000D01*
X68425000Y-48475000D01*
X68425000Y-47775000D01*
X68475000Y-47775000D01*
X68475000Y-48475000D01*
X69025000Y-48475000D01*
X69100000Y-48400000D01*
X69100000Y-47940327D01*
X69054328Y-47830064D01*
X68969937Y-47745672D01*
X68859674Y-47700000D01*
X68550000Y-47700000D01*
X68475000Y-47775000D01*
X68425000Y-47775000D01*
X68350000Y-47700000D01*
X68040326Y-47700000D01*
X67930063Y-47745672D01*
X67845672Y-47830064D01*
X67800000Y-47940327D01*
X67694649Y-47940327D01*
X67684958Y-47888827D01*
X67619255Y-47786721D01*
X67519003Y-47718222D01*
X67400000Y-47694123D01*
X66700000Y-47694123D01*
X66588827Y-47715042D01*
X66486721Y-47780745D01*
X66418222Y-47880997D01*
X66394123Y-48000000D01*
X66394123Y-48050000D01*
X66282963Y-48050000D01*
X66178603Y-47797428D01*
X65953755Y-47572188D01*
X65659828Y-47450139D01*
X65341568Y-47449861D01*
X65337810Y-47451414D01*
X63700000Y-45813604D01*
X63700000Y-44340000D01*
X63687765Y-44278488D01*
X63665747Y-44167793D01*
X63568198Y-44021802D01*
X62630877Y-43084481D01*
X62630877Y-42880878D01*
X64100000Y-44350001D01*
X64100000Y-44660216D01*
X63906915Y-44852964D01*
X63800122Y-45110150D01*
X63799879Y-45388628D01*
X63906223Y-45646000D01*
X64102964Y-45843085D01*
X64360150Y-45949878D01*
X64638628Y-45950121D01*
X64896000Y-45843777D01*
X65093085Y-45647036D01*
X65199878Y-45389850D01*
X65200121Y-45111372D01*
X65093777Y-44854000D01*
X64900000Y-44659884D01*
X64900000Y-44487424D01*
X64956915Y-44572603D01*
X65869123Y-45484811D01*
X65869123Y-45955000D01*
X65890042Y-46066173D01*
X65955745Y-46168279D01*
X66055997Y-46236778D01*
X66175000Y-46260877D01*
X67725000Y-46260877D01*
X67836173Y-46239958D01*
X67938279Y-46174255D01*
X68006778Y-46074003D01*
X68030877Y-45955000D01*
X68030877Y-45556563D01*
X68089369Y-45615055D01*
X68089369Y-46004371D01*
X68119817Y-46157445D01*
X68206526Y-46287214D01*
X69244123Y-47324811D01*
X69244123Y-47775000D01*
X69265042Y-47886173D01*
X69330745Y-47988279D01*
X69346808Y-47999254D01*
X69336721Y-48005745D01*
X69268222Y-48105997D01*
X69244123Y-48225000D01*
X69244123Y-49025000D01*
X69265042Y-49136173D01*
X69330745Y-49238279D01*
X69430997Y-49306778D01*
X69550000Y-49330877D01*
X71150000Y-49330877D01*
X71261173Y-49309958D01*
X71363279Y-49244255D01*
X71431778Y-49144003D01*
X71455877Y-49025000D01*
X71455877Y-49003940D01*
X71503074Y-48994552D01*
X71632843Y-48907843D01*
X73090606Y-47450079D01*
X73138628Y-47450121D01*
X73396000Y-47343777D01*
X73593085Y-47147036D01*
X73699878Y-46889850D01*
X73700121Y-46611372D01*
X73593777Y-46354000D01*
X73397036Y-46156915D01*
X73139850Y-46050122D01*
X72861372Y-46049879D01*
X72604000Y-46156223D01*
X72499991Y-46260050D01*
X72397036Y-46156915D01*
X72139850Y-46050122D01*
X71861372Y-46049879D01*
X71604000Y-46156223D01*
X71450000Y-46309954D01*
X71450000Y-46225000D01*
X71375000Y-46150000D01*
X70375000Y-46150000D01*
X70375000Y-46170000D01*
X70325000Y-46170000D01*
X70325000Y-46150000D01*
X69325000Y-46150000D01*
X69262842Y-46212158D01*
X68889369Y-45838685D01*
X68889369Y-45449369D01*
X68864631Y-45325000D01*
X68858921Y-45296295D01*
X68794605Y-45200039D01*
X68888628Y-45200121D01*
X69146000Y-45093777D01*
X69244123Y-44995825D01*
X69244123Y-45275000D01*
X69265042Y-45386173D01*
X69330745Y-45488279D01*
X69349584Y-45501151D01*
X69295672Y-45555063D01*
X69250000Y-45665326D01*
X69250000Y-46025000D01*
X69325000Y-46100000D01*
X70325000Y-46100000D01*
X70325000Y-46080000D01*
X70375000Y-46080000D01*
X70375000Y-46100000D01*
X71375000Y-46100000D01*
X71450000Y-46025000D01*
X71450000Y-45665326D01*
X71404328Y-45555063D01*
X71351256Y-45501992D01*
X71363279Y-45494255D01*
X71431778Y-45394003D01*
X71445752Y-45325000D01*
X71625000Y-45325000D01*
X71797208Y-45290746D01*
X71805261Y-45285365D01*
X71840172Y-45299861D01*
X72158432Y-45300139D01*
X72452572Y-45178603D01*
X72677812Y-44953755D01*
X72799861Y-44659828D01*
X72800139Y-44341568D01*
X72678603Y-44047428D01*
X72453755Y-43822188D01*
X72159828Y-43700139D01*
X71841568Y-43699861D01*
X71547428Y-43821397D01*
X71322188Y-44046245D01*
X71261766Y-44191757D01*
X71150000Y-44169123D01*
X70750000Y-44169123D01*
X70750000Y-43629998D01*
X70737712Y-43568222D01*
X70719552Y-43476924D01*
X70632843Y-43347155D01*
X69710688Y-42425000D01*
X71450000Y-42425000D01*
X71450000Y-43434674D01*
X71495672Y-43544937D01*
X71580064Y-43629328D01*
X71690327Y-43675000D01*
X73150000Y-43675000D01*
X73225000Y-43600000D01*
X73225000Y-42350000D01*
X71525000Y-42350000D01*
X71450000Y-42425000D01*
X69710688Y-42425000D01*
X68501014Y-41215326D01*
X71450000Y-41215326D01*
X71450000Y-42225000D01*
X71525000Y-42300000D01*
X73225000Y-42300000D01*
X73225000Y-41050000D01*
X73150000Y-40975000D01*
X71690327Y-40975000D01*
X71580064Y-41020672D01*
X71495672Y-41105063D01*
X71450000Y-41215326D01*
X68501014Y-41215326D01*
X67485688Y-40200000D01*
X68803531Y-40200000D01*
X68815042Y-40261173D01*
X68880745Y-40363279D01*
X68980997Y-40431778D01*
X69100000Y-40455877D01*
X69900000Y-40455877D01*
X70011173Y-40434958D01*
X70113279Y-40369255D01*
X70181778Y-40269003D01*
X70191909Y-40218971D01*
X70316384Y-40218971D01*
X70350972Y-40341747D01*
X70607798Y-40449405D01*
X70886274Y-40450584D01*
X71144002Y-40345106D01*
X71149028Y-40341747D01*
X71183616Y-40218971D01*
X70750000Y-39785355D01*
X70316384Y-40218971D01*
X70191909Y-40218971D01*
X70203493Y-40161773D01*
X70281029Y-40183616D01*
X70714645Y-39750000D01*
X70785355Y-39750000D01*
X71218971Y-40183616D01*
X71341747Y-40149028D01*
X71374847Y-40070065D01*
X71406223Y-40146000D01*
X71602964Y-40343085D01*
X71860150Y-40449878D01*
X72138628Y-40450121D01*
X72396000Y-40343777D01*
X72593085Y-40147036D01*
X72624946Y-40070305D01*
X72656223Y-40146000D01*
X72852964Y-40343085D01*
X73110150Y-40449878D01*
X73388628Y-40450121D01*
X73646000Y-40343777D01*
X73843085Y-40147036D01*
X73949878Y-39889850D01*
X73950121Y-39611372D01*
X73843777Y-39354000D01*
X73647036Y-39156915D01*
X73389850Y-39050122D01*
X73111372Y-39049879D01*
X72854000Y-39156223D01*
X72656915Y-39352964D01*
X72625054Y-39429695D01*
X72593777Y-39354000D01*
X72397036Y-39156915D01*
X72139850Y-39050122D01*
X71861372Y-39049879D01*
X71604000Y-39156223D01*
X71406915Y-39352964D01*
X71375161Y-39429436D01*
X71345106Y-39355998D01*
X71341747Y-39350972D01*
X71218971Y-39316384D01*
X70785355Y-39750000D01*
X70714645Y-39750000D01*
X70281029Y-39316384D01*
X70203653Y-39338182D01*
X70192899Y-39281029D01*
X70316384Y-39281029D01*
X70750000Y-39714645D01*
X71183616Y-39281029D01*
X71149028Y-39158253D01*
X70892202Y-39050595D01*
X70613726Y-39049416D01*
X70355998Y-39154894D01*
X70350972Y-39158253D01*
X70316384Y-39281029D01*
X70192899Y-39281029D01*
X70184958Y-39238827D01*
X70119255Y-39136721D01*
X70019003Y-39068222D01*
X69900000Y-39044123D01*
X69100000Y-39044123D01*
X68988827Y-39065042D01*
X68886721Y-39130745D01*
X68818222Y-39230997D01*
X68804248Y-39300000D01*
X65428394Y-39300000D01*
X65060196Y-38931802D01*
X64914206Y-38834254D01*
X64741998Y-38800000D01*
X64179666Y-38800000D01*
X64178603Y-38797428D01*
X63953755Y-38572188D01*
X63659828Y-38450139D01*
X63341568Y-38449861D01*
X63047428Y-38571397D01*
X62822188Y-38796245D01*
X62820629Y-38800000D01*
X58550000Y-38800000D01*
X58550000Y-38650000D01*
X58475000Y-38575000D01*
X57775000Y-38575000D01*
X57775000Y-38595000D01*
X57725000Y-38595000D01*
X57725000Y-38575000D01*
X57025000Y-38575000D01*
X56950000Y-38650000D01*
X56950000Y-38800000D01*
X56550000Y-38800000D01*
X56550000Y-38650000D01*
X56475000Y-38575000D01*
X55775000Y-38575000D01*
X55775000Y-38595000D01*
X55725000Y-38595000D01*
X55725000Y-38575000D01*
X55025000Y-38575000D01*
X54950000Y-38650000D01*
X54950000Y-38800000D01*
X54241998Y-38800000D01*
X54069790Y-38834254D01*
X53923800Y-38931802D01*
X53618441Y-39237161D01*
X53453755Y-39072188D01*
X53159828Y-38950139D01*
X52841568Y-38949861D01*
X52547428Y-39071397D01*
X52322188Y-39296245D01*
X52200139Y-39590172D01*
X52199861Y-39908432D01*
X52309539Y-40173874D01*
X52294123Y-40250000D01*
X52294123Y-41250000D01*
X52315042Y-41361173D01*
X52380745Y-41463279D01*
X52480997Y-41531778D01*
X52500000Y-41535626D01*
X52500000Y-43960290D01*
X52534254Y-44132498D01*
X52600690Y-44231926D01*
X52631802Y-44278488D01*
X52750000Y-44396686D01*
X52750000Y-44753602D01*
X51681801Y-45821801D01*
X51584253Y-45967791D01*
X51549999Y-46139999D01*
X51549999Y-47643563D01*
X51184249Y-47643563D01*
X50482843Y-46942157D01*
X50353074Y-46855448D01*
X50305877Y-46846060D01*
X50305877Y-46675000D01*
X50284958Y-46563827D01*
X50219255Y-46461721D01*
X50119003Y-46393222D01*
X50000000Y-46369123D01*
X48000000Y-46369123D01*
X47888827Y-46390042D01*
X47786721Y-46455745D01*
X47718222Y-46555997D01*
X47694123Y-46675000D01*
X47694123Y-47775000D01*
X47715042Y-47886173D01*
X47780745Y-47988279D01*
X47880997Y-48056778D01*
X48000000Y-48080877D01*
X50000000Y-48080877D01*
X50111173Y-48059958D01*
X50213279Y-47994255D01*
X50281778Y-47894003D01*
X50285405Y-47876091D01*
X50735720Y-48326406D01*
X50865489Y-48413115D01*
X51018563Y-48443563D01*
X51763603Y-48443563D01*
X52690315Y-49370275D01*
X52689248Y-49372845D01*
X52688970Y-49691105D01*
X52810506Y-49985245D01*
X53035354Y-50210485D01*
X53329281Y-50332534D01*
X53647541Y-50332812D01*
X53651299Y-50331259D01*
X53888238Y-50568198D01*
X54034229Y-50665747D01*
X54206436Y-50700000D01*
X55004123Y-50700000D01*
X55004123Y-51250000D01*
X55025042Y-51361173D01*
X55090745Y-51463279D01*
X55190997Y-51531778D01*
X55260000Y-51545752D01*
X55260000Y-51550000D01*
X55294254Y-51722208D01*
X55381696Y-51853074D01*
X55391802Y-51868198D01*
X55591802Y-52068198D01*
X55639397Y-52100000D01*
X47862616Y-52100000D01*
X47949878Y-51889850D01*
X47950121Y-51611372D01*
X47843777Y-51354000D01*
X47647036Y-51156915D01*
X47389850Y-51050122D01*
X47111372Y-51049879D01*
X46854000Y-51156223D01*
X46779597Y-51230496D01*
X46719255Y-51136721D01*
X46619003Y-51068222D01*
X46500000Y-51044123D01*
X45500000Y-51044123D01*
X45400000Y-51062940D01*
X45400000Y-50933296D01*
X45440327Y-50950000D01*
X45900000Y-50950000D01*
X45975000Y-50875000D01*
X45975000Y-50325000D01*
X46025000Y-50325000D01*
X46025000Y-50875000D01*
X46100000Y-50950000D01*
X46559673Y-50950000D01*
X46669936Y-50904328D01*
X46754328Y-50819937D01*
X46800000Y-50709674D01*
X46800000Y-50400000D01*
X46725000Y-50325000D01*
X46025000Y-50325000D01*
X45975000Y-50325000D01*
X45955000Y-50325000D01*
X45955000Y-50275000D01*
X45975000Y-50275000D01*
X45975000Y-49725000D01*
X46025000Y-49725000D01*
X46025000Y-50275000D01*
X46725000Y-50275000D01*
X46800000Y-50200000D01*
X46800000Y-49890326D01*
X46754328Y-49780063D01*
X46669936Y-49695672D01*
X46559673Y-49650000D01*
X46100000Y-49650000D01*
X46025000Y-49725000D01*
X45975000Y-49725000D01*
X45900000Y-49650000D01*
X45440327Y-49650000D01*
X45400000Y-49666704D01*
X45400000Y-48408340D01*
X45435540Y-48587013D01*
X45598120Y-48830330D01*
X45841437Y-48992910D01*
X46128450Y-49050000D01*
X46871550Y-49050000D01*
X47158563Y-48992910D01*
X47401880Y-48830330D01*
X47564460Y-48587013D01*
X47621550Y-48300000D01*
X47564460Y-48012987D01*
X47401880Y-47769670D01*
X47158563Y-47607090D01*
X46871550Y-47550000D01*
X46128450Y-47550000D01*
X45841437Y-47607090D01*
X45598120Y-47769670D01*
X45435540Y-48012987D01*
X45400000Y-48191660D01*
X45400000Y-41808340D01*
X45435540Y-41987013D01*
X45598120Y-42230330D01*
X45841437Y-42392910D01*
X46128450Y-42450000D01*
X46871550Y-42450000D01*
X47158563Y-42392910D01*
X47401880Y-42230330D01*
X47405441Y-42225000D01*
X47694123Y-42225000D01*
X47694123Y-43325000D01*
X47715042Y-43436173D01*
X47780745Y-43538279D01*
X47880997Y-43606778D01*
X48000000Y-43630877D01*
X50000000Y-43630877D01*
X50111173Y-43609958D01*
X50213279Y-43544255D01*
X50281778Y-43444003D01*
X50305877Y-43325000D01*
X50305877Y-43175000D01*
X50564908Y-43175000D01*
X50656223Y-43396000D01*
X50852964Y-43593085D01*
X51110150Y-43699878D01*
X51388628Y-43700121D01*
X51646000Y-43593777D01*
X51843085Y-43397036D01*
X51949878Y-43139850D01*
X51950121Y-42861372D01*
X51843777Y-42604000D01*
X51647036Y-42406915D01*
X51389850Y-42300122D01*
X51111372Y-42299879D01*
X50929565Y-42375000D01*
X50305877Y-42375000D01*
X50305877Y-42225000D01*
X50284958Y-42113827D01*
X50219255Y-42011721D01*
X50119003Y-41943222D01*
X50000000Y-41919123D01*
X48950000Y-41919123D01*
X48950000Y-41546469D01*
X49011173Y-41534958D01*
X49113279Y-41469255D01*
X49181778Y-41369003D01*
X49205877Y-41250000D01*
X49205877Y-40850000D01*
X49300000Y-40850000D01*
X49300000Y-41309673D01*
X49345672Y-41419936D01*
X49430063Y-41504328D01*
X49540326Y-41550000D01*
X49850000Y-41550000D01*
X49925000Y-41475000D01*
X49925000Y-40775000D01*
X49975000Y-40775000D01*
X49975000Y-41475000D01*
X50050000Y-41550000D01*
X50359674Y-41550000D01*
X50469937Y-41504328D01*
X50554328Y-41419936D01*
X50600000Y-41309673D01*
X50600000Y-40850000D01*
X50900000Y-40850000D01*
X50900000Y-41309673D01*
X50945672Y-41419936D01*
X51030063Y-41504328D01*
X51140326Y-41550000D01*
X51450000Y-41550000D01*
X51525000Y-41475000D01*
X51525000Y-40775000D01*
X51575000Y-40775000D01*
X51575000Y-41475000D01*
X51650000Y-41550000D01*
X51959674Y-41550000D01*
X52069937Y-41504328D01*
X52154328Y-41419936D01*
X52200000Y-41309673D01*
X52200000Y-40850000D01*
X52125000Y-40775000D01*
X51575000Y-40775000D01*
X51525000Y-40775000D01*
X50975000Y-40775000D01*
X50900000Y-40850000D01*
X50600000Y-40850000D01*
X50525000Y-40775000D01*
X49975000Y-40775000D01*
X49925000Y-40775000D01*
X49375000Y-40775000D01*
X49300000Y-40850000D01*
X49205877Y-40850000D01*
X49205877Y-40250000D01*
X49194649Y-40190327D01*
X49300000Y-40190327D01*
X49300000Y-40650000D01*
X49375000Y-40725000D01*
X49925000Y-40725000D01*
X49925000Y-40025000D01*
X49975000Y-40025000D01*
X49975000Y-40725000D01*
X50525000Y-40725000D01*
X50600000Y-40650000D01*
X50600000Y-40190327D01*
X50900000Y-40190327D01*
X50900000Y-40650000D01*
X50975000Y-40725000D01*
X51525000Y-40725000D01*
X51525000Y-40025000D01*
X51575000Y-40025000D01*
X51575000Y-40725000D01*
X52125000Y-40725000D01*
X52200000Y-40650000D01*
X52200000Y-40190327D01*
X52154328Y-40080064D01*
X52069937Y-39995672D01*
X51959674Y-39950000D01*
X51650000Y-39950000D01*
X51575000Y-40025000D01*
X51525000Y-40025000D01*
X51450000Y-39950000D01*
X51140326Y-39950000D01*
X51030063Y-39995672D01*
X50945672Y-40080064D01*
X50900000Y-40190327D01*
X50600000Y-40190327D01*
X50554328Y-40080064D01*
X50469937Y-39995672D01*
X50359674Y-39950000D01*
X50050000Y-39950000D01*
X49975000Y-40025000D01*
X49925000Y-40025000D01*
X49850000Y-39950000D01*
X49540326Y-39950000D01*
X49430063Y-39995672D01*
X49345672Y-40080064D01*
X49300000Y-40190327D01*
X49194649Y-40190327D01*
X49184958Y-40138827D01*
X49119255Y-40036721D01*
X49019003Y-39968222D01*
X48900000Y-39944123D01*
X48200000Y-39944123D01*
X48088827Y-39965042D01*
X47986721Y-40030745D01*
X47918222Y-40130997D01*
X47894123Y-40250000D01*
X47894123Y-41250000D01*
X47915042Y-41361173D01*
X47980745Y-41463279D01*
X48080997Y-41531778D01*
X48150000Y-41545752D01*
X48150000Y-41919123D01*
X48000000Y-41919123D01*
X47888827Y-41940042D01*
X47786721Y-42005745D01*
X47718222Y-42105997D01*
X47694123Y-42225000D01*
X47405441Y-42225000D01*
X47564460Y-41987013D01*
X47621550Y-41700000D01*
X47564460Y-41412987D01*
X47401880Y-41169670D01*
X47158563Y-41007090D01*
X46871550Y-40950000D01*
X46128450Y-40950000D01*
X45841437Y-41007090D01*
X45598120Y-41169670D01*
X45435540Y-41412987D01*
X45400000Y-41591660D01*
X45400000Y-37900000D01*
X55190327Y-37900000D01*
X55080064Y-37945672D01*
X55080064Y-37945672D01*
G37*
X55080064Y-37945672D02*
X54995672Y-38030063D01*
X54950000Y-38140326D01*
X54950000Y-38450000D01*
X55025000Y-38525000D01*
X55725000Y-38525000D01*
X55725000Y-37975000D01*
X55650000Y-37900000D01*
X55850000Y-37900000D01*
X55775000Y-37975000D01*
X55775000Y-38525000D01*
X56475000Y-38525000D01*
X56550000Y-38450000D01*
X56550000Y-38140326D01*
X56504328Y-38030063D01*
X56419936Y-37945672D01*
X56309673Y-37900000D01*
X57190327Y-37900000D01*
X57080064Y-37945672D01*
X56995672Y-38030063D01*
X56950000Y-38140326D01*
X56950000Y-38450000D01*
X57025000Y-38525000D01*
X57725000Y-38525000D01*
X57725000Y-37975000D01*
X57650000Y-37900000D01*
X57850000Y-37900000D01*
X57775000Y-37975000D01*
X57775000Y-38525000D01*
X58475000Y-38525000D01*
X58550000Y-38450000D01*
X58550000Y-38140326D01*
X58504328Y-38030063D01*
X58419936Y-37945672D01*
X58309673Y-37900000D01*
X74600000Y-37900000D01*
X74600000Y-40975000D01*
X73350000Y-40975000D01*
X73275000Y-41050000D01*
X73275000Y-42300000D01*
X73295000Y-42300000D01*
X73295000Y-42350000D01*
X73275000Y-42350000D01*
X73275000Y-43600000D01*
X73350000Y-43675000D01*
X74600000Y-43675000D01*
X74600000Y-49825000D01*
X73350000Y-49825000D01*
X73275000Y-49900000D01*
X73275000Y-51150000D01*
X73295000Y-51150000D01*
X73295000Y-51200000D01*
X73275000Y-51200000D01*
X73275000Y-51220000D01*
X73225000Y-51220000D01*
X73225000Y-51200000D01*
X71525000Y-51200000D01*
X71450000Y-51275000D01*
X71450000Y-52100000D01*
X69083296Y-52100000D01*
X69100000Y-52059673D01*
X69100000Y-51600000D01*
X69025000Y-51525000D01*
X68475000Y-51525000D01*
X68475000Y-51545000D01*
X68425000Y-51545000D01*
X68425000Y-51525000D01*
X67875000Y-51525000D01*
X67800000Y-51600000D01*
X67800000Y-52059673D01*
X67816704Y-52100000D01*
X67685626Y-52100000D01*
X67705877Y-52000000D01*
X67705877Y-51000000D01*
X67684958Y-50888827D01*
X67619255Y-50786721D01*
X67565506Y-50749996D01*
X67613279Y-50719255D01*
X67681778Y-50619003D01*
X67705877Y-50500000D01*
X67705877Y-50100000D01*
X67800000Y-50100000D01*
X67800000Y-50559673D01*
X67845672Y-50669936D01*
X67925735Y-50750000D01*
X67845672Y-50830064D01*
X67800000Y-50940327D01*
X67800000Y-51400000D01*
X67875000Y-51475000D01*
X68425000Y-51475000D01*
X68425000Y-50775000D01*
X68400000Y-50750000D01*
X68425000Y-50725000D01*
X68425000Y-50025000D01*
X68475000Y-50025000D01*
X68475000Y-50725000D01*
X68500000Y-50750000D01*
X68475000Y-50775000D01*
X68475000Y-51475000D01*
X69025000Y-51475000D01*
X69100000Y-51400000D01*
X69100000Y-50940327D01*
X69054328Y-50830064D01*
X68974265Y-50750000D01*
X69054328Y-50669936D01*
X69100000Y-50559673D01*
X69100000Y-50100000D01*
X69065326Y-50065326D01*
X71450000Y-50065326D01*
X71450000Y-51075000D01*
X71525000Y-51150000D01*
X73225000Y-51150000D01*
X73225000Y-49900000D01*
X73150000Y-49825000D01*
X71690327Y-49825000D01*
X71580064Y-49870672D01*
X71495672Y-49955063D01*
X71450000Y-50065326D01*
X69065326Y-50065326D01*
X69025000Y-50025000D01*
X68475000Y-50025000D01*
X68425000Y-50025000D01*
X67875000Y-50025000D01*
X67800000Y-50100000D01*
X67705877Y-50100000D01*
X67705877Y-49500000D01*
X67684958Y-49388827D01*
X67619255Y-49286721D01*
X67565506Y-49249996D01*
X67613279Y-49219255D01*
X67681778Y-49119003D01*
X67705877Y-49000000D01*
X67705877Y-48600000D01*
X67800000Y-48600000D01*
X67800000Y-49059673D01*
X67845672Y-49169936D01*
X67925735Y-49250000D01*
X67845672Y-49330064D01*
X67800000Y-49440327D01*
X67800000Y-49900000D01*
X67875000Y-49975000D01*
X68425000Y-49975000D01*
X68425000Y-49275000D01*
X68400000Y-49250000D01*
X68425000Y-49225000D01*
X68425000Y-48525000D01*
X68475000Y-48525000D01*
X68475000Y-49225000D01*
X68500000Y-49250000D01*
X68475000Y-49275000D01*
X68475000Y-49975000D01*
X69025000Y-49975000D01*
X69100000Y-49900000D01*
X69100000Y-49440327D01*
X69054328Y-49330064D01*
X68974265Y-49250000D01*
X69054328Y-49169936D01*
X69100000Y-49059673D01*
X69100000Y-48600000D01*
X69025000Y-48525000D01*
X68475000Y-48525000D01*
X68425000Y-48525000D01*
X67875000Y-48525000D01*
X67800000Y-48600000D01*
X67705877Y-48600000D01*
X67705877Y-48000000D01*
X67694649Y-47940327D01*
X67800000Y-47940327D01*
X67800000Y-48400000D01*
X67875000Y-48475000D01*
X68425000Y-48475000D01*
X68425000Y-47775000D01*
X68475000Y-47775000D01*
X68475000Y-48475000D01*
X69025000Y-48475000D01*
X69100000Y-48400000D01*
X69100000Y-47940327D01*
X69054328Y-47830064D01*
X68969937Y-47745672D01*
X68859674Y-47700000D01*
X68550000Y-47700000D01*
X68475000Y-47775000D01*
X68425000Y-47775000D01*
X68350000Y-47700000D01*
X68040326Y-47700000D01*
X67930063Y-47745672D01*
X67845672Y-47830064D01*
X67800000Y-47940327D01*
X67694649Y-47940327D01*
X67684958Y-47888827D01*
X67619255Y-47786721D01*
X67519003Y-47718222D01*
X67400000Y-47694123D01*
X66700000Y-47694123D01*
X66588827Y-47715042D01*
X66486721Y-47780745D01*
X66418222Y-47880997D01*
X66394123Y-48000000D01*
X66394123Y-48050000D01*
X66282963Y-48050000D01*
X66178603Y-47797428D01*
X65953755Y-47572188D01*
X65659828Y-47450139D01*
X65341568Y-47449861D01*
X65337810Y-47451414D01*
X63700000Y-45813604D01*
X63700000Y-44340000D01*
X63687765Y-44278488D01*
X63665747Y-44167793D01*
X63568198Y-44021802D01*
X62630877Y-43084481D01*
X62630877Y-42880878D01*
X64100000Y-44350001D01*
X64100000Y-44660216D01*
X63906915Y-44852964D01*
X63800122Y-45110150D01*
X63799879Y-45388628D01*
X63906223Y-45646000D01*
X64102964Y-45843085D01*
X64360150Y-45949878D01*
X64638628Y-45950121D01*
X64896000Y-45843777D01*
X65093085Y-45647036D01*
X65199878Y-45389850D01*
X65200121Y-45111372D01*
X65093777Y-44854000D01*
X64900000Y-44659884D01*
X64900000Y-44487424D01*
X64956915Y-44572603D01*
X65869123Y-45484811D01*
X65869123Y-45955000D01*
X65890042Y-46066173D01*
X65955745Y-46168279D01*
X66055997Y-46236778D01*
X66175000Y-46260877D01*
X67725000Y-46260877D01*
X67836173Y-46239958D01*
X67938279Y-46174255D01*
X68006778Y-46074003D01*
X68030877Y-45955000D01*
X68030877Y-45556563D01*
X68089369Y-45615055D01*
X68089369Y-46004371D01*
X68119817Y-46157445D01*
X68206526Y-46287214D01*
X69244123Y-47324811D01*
X69244123Y-47775000D01*
X69265042Y-47886173D01*
X69330745Y-47988279D01*
X69346808Y-47999254D01*
X69336721Y-48005745D01*
X69268222Y-48105997D01*
X69244123Y-48225000D01*
X69244123Y-49025000D01*
X69265042Y-49136173D01*
X69330745Y-49238279D01*
X69430997Y-49306778D01*
X69550000Y-49330877D01*
X71150000Y-49330877D01*
X71261173Y-49309958D01*
X71363279Y-49244255D01*
X71431778Y-49144003D01*
X71455877Y-49025000D01*
X71455877Y-49003940D01*
X71503074Y-48994552D01*
X71632843Y-48907843D01*
X73090606Y-47450079D01*
X73138628Y-47450121D01*
X73396000Y-47343777D01*
X73593085Y-47147036D01*
X73699878Y-46889850D01*
X73700121Y-46611372D01*
X73593777Y-46354000D01*
X73397036Y-46156915D01*
X73139850Y-46050122D01*
X72861372Y-46049879D01*
X72604000Y-46156223D01*
X72499991Y-46260050D01*
X72397036Y-46156915D01*
X72139850Y-46050122D01*
X71861372Y-46049879D01*
X71604000Y-46156223D01*
X71450000Y-46309954D01*
X71450000Y-46225000D01*
X71375000Y-46150000D01*
X70375000Y-46150000D01*
X70375000Y-46170000D01*
X70325000Y-46170000D01*
X70325000Y-46150000D01*
X69325000Y-46150000D01*
X69262842Y-46212158D01*
X68889369Y-45838685D01*
X68889369Y-45449369D01*
X68864631Y-45325000D01*
X68858921Y-45296295D01*
X68794605Y-45200039D01*
X68888628Y-45200121D01*
X69146000Y-45093777D01*
X69244123Y-44995825D01*
X69244123Y-45275000D01*
X69265042Y-45386173D01*
X69330745Y-45488279D01*
X69349584Y-45501151D01*
X69295672Y-45555063D01*
X69250000Y-45665326D01*
X69250000Y-46025000D01*
X69325000Y-46100000D01*
X70325000Y-46100000D01*
X70325000Y-46080000D01*
X70375000Y-46080000D01*
X70375000Y-46100000D01*
X71375000Y-46100000D01*
X71450000Y-46025000D01*
X71450000Y-45665326D01*
X71404328Y-45555063D01*
X71351256Y-45501992D01*
X71363279Y-45494255D01*
X71431778Y-45394003D01*
X71445752Y-45325000D01*
X71625000Y-45325000D01*
X71797208Y-45290746D01*
X71805261Y-45285365D01*
X71840172Y-45299861D01*
X72158432Y-45300139D01*
X72452572Y-45178603D01*
X72677812Y-44953755D01*
X72799861Y-44659828D01*
X72800139Y-44341568D01*
X72678603Y-44047428D01*
X72453755Y-43822188D01*
X72159828Y-43700139D01*
X71841568Y-43699861D01*
X71547428Y-43821397D01*
X71322188Y-44046245D01*
X71261766Y-44191757D01*
X71150000Y-44169123D01*
X70750000Y-44169123D01*
X70750000Y-43629998D01*
X70737712Y-43568222D01*
X70719552Y-43476924D01*
X70632843Y-43347155D01*
X69710688Y-42425000D01*
X71450000Y-42425000D01*
X71450000Y-43434674D01*
X71495672Y-43544937D01*
X71580064Y-43629328D01*
X71690327Y-43675000D01*
X73150000Y-43675000D01*
X73225000Y-43600000D01*
X73225000Y-42350000D01*
X71525000Y-42350000D01*
X71450000Y-42425000D01*
X69710688Y-42425000D01*
X68501014Y-41215326D01*
X71450000Y-41215326D01*
X71450000Y-42225000D01*
X71525000Y-42300000D01*
X73225000Y-42300000D01*
X73225000Y-41050000D01*
X73150000Y-40975000D01*
X71690327Y-40975000D01*
X71580064Y-41020672D01*
X71495672Y-41105063D01*
X71450000Y-41215326D01*
X68501014Y-41215326D01*
X67485688Y-40200000D01*
X68803531Y-40200000D01*
X68815042Y-40261173D01*
X68880745Y-40363279D01*
X68980997Y-40431778D01*
X69100000Y-40455877D01*
X69900000Y-40455877D01*
X70011173Y-40434958D01*
X70113279Y-40369255D01*
X70181778Y-40269003D01*
X70191909Y-40218971D01*
X70316384Y-40218971D01*
X70350972Y-40341747D01*
X70607798Y-40449405D01*
X70886274Y-40450584D01*
X71144002Y-40345106D01*
X71149028Y-40341747D01*
X71183616Y-40218971D01*
X70750000Y-39785355D01*
X70316384Y-40218971D01*
X70191909Y-40218971D01*
X70203493Y-40161773D01*
X70281029Y-40183616D01*
X70714645Y-39750000D01*
X70785355Y-39750000D01*
X71218971Y-40183616D01*
X71341747Y-40149028D01*
X71374847Y-40070065D01*
X71406223Y-40146000D01*
X71602964Y-40343085D01*
X71860150Y-40449878D01*
X72138628Y-40450121D01*
X72396000Y-40343777D01*
X72593085Y-40147036D01*
X72624946Y-40070305D01*
X72656223Y-40146000D01*
X72852964Y-40343085D01*
X73110150Y-40449878D01*
X73388628Y-40450121D01*
X73646000Y-40343777D01*
X73843085Y-40147036D01*
X73949878Y-39889850D01*
X73950121Y-39611372D01*
X73843777Y-39354000D01*
X73647036Y-39156915D01*
X73389850Y-39050122D01*
X73111372Y-39049879D01*
X72854000Y-39156223D01*
X72656915Y-39352964D01*
X72625054Y-39429695D01*
X72593777Y-39354000D01*
X72397036Y-39156915D01*
X72139850Y-39050122D01*
X71861372Y-39049879D01*
X71604000Y-39156223D01*
X71406915Y-39352964D01*
X71375161Y-39429436D01*
X71345106Y-39355998D01*
X71341747Y-39350972D01*
X71218971Y-39316384D01*
X70785355Y-39750000D01*
X70714645Y-39750000D01*
X70281029Y-39316384D01*
X70203653Y-39338182D01*
X70192899Y-39281029D01*
X70316384Y-39281029D01*
X70750000Y-39714645D01*
X71183616Y-39281029D01*
X71149028Y-39158253D01*
X70892202Y-39050595D01*
X70613726Y-39049416D01*
X70355998Y-39154894D01*
X70350972Y-39158253D01*
X70316384Y-39281029D01*
X70192899Y-39281029D01*
X70184958Y-39238827D01*
X70119255Y-39136721D01*
X70019003Y-39068222D01*
X69900000Y-39044123D01*
X69100000Y-39044123D01*
X68988827Y-39065042D01*
X68886721Y-39130745D01*
X68818222Y-39230997D01*
X68804248Y-39300000D01*
X65428394Y-39300000D01*
X65060196Y-38931802D01*
X64914206Y-38834254D01*
X64741998Y-38800000D01*
X64179666Y-38800000D01*
X64178603Y-38797428D01*
X63953755Y-38572188D01*
X63659828Y-38450139D01*
X63341568Y-38449861D01*
X63047428Y-38571397D01*
X62822188Y-38796245D01*
X62820629Y-38800000D01*
X58550000Y-38800000D01*
X58550000Y-38650000D01*
X58475000Y-38575000D01*
X57775000Y-38575000D01*
X57775000Y-38595000D01*
X57725000Y-38595000D01*
X57725000Y-38575000D01*
X57025000Y-38575000D01*
X56950000Y-38650000D01*
X56950000Y-38800000D01*
X56550000Y-38800000D01*
X56550000Y-38650000D01*
X56475000Y-38575000D01*
X55775000Y-38575000D01*
X55775000Y-38595000D01*
X55725000Y-38595000D01*
X55725000Y-38575000D01*
X55025000Y-38575000D01*
X54950000Y-38650000D01*
X54950000Y-38800000D01*
X54241998Y-38800000D01*
X54069790Y-38834254D01*
X53923800Y-38931802D01*
X53618441Y-39237161D01*
X53453755Y-39072188D01*
X53159828Y-38950139D01*
X52841568Y-38949861D01*
X52547428Y-39071397D01*
X52322188Y-39296245D01*
X52200139Y-39590172D01*
X52199861Y-39908432D01*
X52309539Y-40173874D01*
X52294123Y-40250000D01*
X52294123Y-41250000D01*
X52315042Y-41361173D01*
X52380745Y-41463279D01*
X52480997Y-41531778D01*
X52500000Y-41535626D01*
X52500000Y-43960290D01*
X52534254Y-44132498D01*
X52600690Y-44231926D01*
X52631802Y-44278488D01*
X52750000Y-44396686D01*
X52750000Y-44753602D01*
X51681801Y-45821801D01*
X51584253Y-45967791D01*
X51549999Y-46139999D01*
X51549999Y-47643563D01*
X51184249Y-47643563D01*
X50482843Y-46942157D01*
X50353074Y-46855448D01*
X50305877Y-46846060D01*
X50305877Y-46675000D01*
X50284958Y-46563827D01*
X50219255Y-46461721D01*
X50119003Y-46393222D01*
X50000000Y-46369123D01*
X48000000Y-46369123D01*
X47888827Y-46390042D01*
X47786721Y-46455745D01*
X47718222Y-46555997D01*
X47694123Y-46675000D01*
X47694123Y-47775000D01*
X47715042Y-47886173D01*
X47780745Y-47988279D01*
X47880997Y-48056778D01*
X48000000Y-48080877D01*
X50000000Y-48080877D01*
X50111173Y-48059958D01*
X50213279Y-47994255D01*
X50281778Y-47894003D01*
X50285405Y-47876091D01*
X50735720Y-48326406D01*
X50865489Y-48413115D01*
X51018563Y-48443563D01*
X51763603Y-48443563D01*
X52690315Y-49370275D01*
X52689248Y-49372845D01*
X52688970Y-49691105D01*
X52810506Y-49985245D01*
X53035354Y-50210485D01*
X53329281Y-50332534D01*
X53647541Y-50332812D01*
X53651299Y-50331259D01*
X53888238Y-50568198D01*
X54034229Y-50665747D01*
X54206436Y-50700000D01*
X55004123Y-50700000D01*
X55004123Y-51250000D01*
X55025042Y-51361173D01*
X55090745Y-51463279D01*
X55190997Y-51531778D01*
X55260000Y-51545752D01*
X55260000Y-51550000D01*
X55294254Y-51722208D01*
X55381696Y-51853074D01*
X55391802Y-51868198D01*
X55591802Y-52068198D01*
X55639397Y-52100000D01*
X47862616Y-52100000D01*
X47949878Y-51889850D01*
X47950121Y-51611372D01*
X47843777Y-51354000D01*
X47647036Y-51156915D01*
X47389850Y-51050122D01*
X47111372Y-51049879D01*
X46854000Y-51156223D01*
X46779597Y-51230496D01*
X46719255Y-51136721D01*
X46619003Y-51068222D01*
X46500000Y-51044123D01*
X45500000Y-51044123D01*
X45400000Y-51062940D01*
X45400000Y-50933296D01*
X45440327Y-50950000D01*
X45900000Y-50950000D01*
X45975000Y-50875000D01*
X45975000Y-50325000D01*
X46025000Y-50325000D01*
X46025000Y-50875000D01*
X46100000Y-50950000D01*
X46559673Y-50950000D01*
X46669936Y-50904328D01*
X46754328Y-50819937D01*
X46800000Y-50709674D01*
X46800000Y-50400000D01*
X46725000Y-50325000D01*
X46025000Y-50325000D01*
X45975000Y-50325000D01*
X45955000Y-50325000D01*
X45955000Y-50275000D01*
X45975000Y-50275000D01*
X45975000Y-49725000D01*
X46025000Y-49725000D01*
X46025000Y-50275000D01*
X46725000Y-50275000D01*
X46800000Y-50200000D01*
X46800000Y-49890326D01*
X46754328Y-49780063D01*
X46669936Y-49695672D01*
X46559673Y-49650000D01*
X46100000Y-49650000D01*
X46025000Y-49725000D01*
X45975000Y-49725000D01*
X45900000Y-49650000D01*
X45440327Y-49650000D01*
X45400000Y-49666704D01*
X45400000Y-48408340D01*
X45435540Y-48587013D01*
X45598120Y-48830330D01*
X45841437Y-48992910D01*
X46128450Y-49050000D01*
X46871550Y-49050000D01*
X47158563Y-48992910D01*
X47401880Y-48830330D01*
X47564460Y-48587013D01*
X47621550Y-48300000D01*
X47564460Y-48012987D01*
X47401880Y-47769670D01*
X47158563Y-47607090D01*
X46871550Y-47550000D01*
X46128450Y-47550000D01*
X45841437Y-47607090D01*
X45598120Y-47769670D01*
X45435540Y-48012987D01*
X45400000Y-48191660D01*
X45400000Y-41808340D01*
X45435540Y-41987013D01*
X45598120Y-42230330D01*
X45841437Y-42392910D01*
X46128450Y-42450000D01*
X46871550Y-42450000D01*
X47158563Y-42392910D01*
X47401880Y-42230330D01*
X47405441Y-42225000D01*
X47694123Y-42225000D01*
X47694123Y-43325000D01*
X47715042Y-43436173D01*
X47780745Y-43538279D01*
X47880997Y-43606778D01*
X48000000Y-43630877D01*
X50000000Y-43630877D01*
X50111173Y-43609958D01*
X50213279Y-43544255D01*
X50281778Y-43444003D01*
X50305877Y-43325000D01*
X50305877Y-43175000D01*
X50564908Y-43175000D01*
X50656223Y-43396000D01*
X50852964Y-43593085D01*
X51110150Y-43699878D01*
X51388628Y-43700121D01*
X51646000Y-43593777D01*
X51843085Y-43397036D01*
X51949878Y-43139850D01*
X51950121Y-42861372D01*
X51843777Y-42604000D01*
X51647036Y-42406915D01*
X51389850Y-42300122D01*
X51111372Y-42299879D01*
X50929565Y-42375000D01*
X50305877Y-42375000D01*
X50305877Y-42225000D01*
X50284958Y-42113827D01*
X50219255Y-42011721D01*
X50119003Y-41943222D01*
X50000000Y-41919123D01*
X48950000Y-41919123D01*
X48950000Y-41546469D01*
X49011173Y-41534958D01*
X49113279Y-41469255D01*
X49181778Y-41369003D01*
X49205877Y-41250000D01*
X49205877Y-40850000D01*
X49300000Y-40850000D01*
X49300000Y-41309673D01*
X49345672Y-41419936D01*
X49430063Y-41504328D01*
X49540326Y-41550000D01*
X49850000Y-41550000D01*
X49925000Y-41475000D01*
X49925000Y-40775000D01*
X49975000Y-40775000D01*
X49975000Y-41475000D01*
X50050000Y-41550000D01*
X50359674Y-41550000D01*
X50469937Y-41504328D01*
X50554328Y-41419936D01*
X50600000Y-41309673D01*
X50600000Y-40850000D01*
X50900000Y-40850000D01*
X50900000Y-41309673D01*
X50945672Y-41419936D01*
X51030063Y-41504328D01*
X51140326Y-41550000D01*
X51450000Y-41550000D01*
X51525000Y-41475000D01*
X51525000Y-40775000D01*
X51575000Y-40775000D01*
X51575000Y-41475000D01*
X51650000Y-41550000D01*
X51959674Y-41550000D01*
X52069937Y-41504328D01*
X52154328Y-41419936D01*
X52200000Y-41309673D01*
X52200000Y-40850000D01*
X52125000Y-40775000D01*
X51575000Y-40775000D01*
X51525000Y-40775000D01*
X50975000Y-40775000D01*
X50900000Y-40850000D01*
X50600000Y-40850000D01*
X50525000Y-40775000D01*
X49975000Y-40775000D01*
X49925000Y-40775000D01*
X49375000Y-40775000D01*
X49300000Y-40850000D01*
X49205877Y-40850000D01*
X49205877Y-40250000D01*
X49194649Y-40190327D01*
X49300000Y-40190327D01*
X49300000Y-40650000D01*
X49375000Y-40725000D01*
X49925000Y-40725000D01*
X49925000Y-40025000D01*
X49975000Y-40025000D01*
X49975000Y-40725000D01*
X50525000Y-40725000D01*
X50600000Y-40650000D01*
X50600000Y-40190327D01*
X50900000Y-40190327D01*
X50900000Y-40650000D01*
X50975000Y-40725000D01*
X51525000Y-40725000D01*
X51525000Y-40025000D01*
X51575000Y-40025000D01*
X51575000Y-40725000D01*
X52125000Y-40725000D01*
X52200000Y-40650000D01*
X52200000Y-40190327D01*
X52154328Y-40080064D01*
X52069937Y-39995672D01*
X51959674Y-39950000D01*
X51650000Y-39950000D01*
X51575000Y-40025000D01*
X51525000Y-40025000D01*
X51450000Y-39950000D01*
X51140326Y-39950000D01*
X51030063Y-39995672D01*
X50945672Y-40080064D01*
X50900000Y-40190327D01*
X50600000Y-40190327D01*
X50554328Y-40080064D01*
X50469937Y-39995672D01*
X50359674Y-39950000D01*
X50050000Y-39950000D01*
X49975000Y-40025000D01*
X49925000Y-40025000D01*
X49850000Y-39950000D01*
X49540326Y-39950000D01*
X49430063Y-39995672D01*
X49345672Y-40080064D01*
X49300000Y-40190327D01*
X49194649Y-40190327D01*
X49184958Y-40138827D01*
X49119255Y-40036721D01*
X49019003Y-39968222D01*
X48900000Y-39944123D01*
X48200000Y-39944123D01*
X48088827Y-39965042D01*
X47986721Y-40030745D01*
X47918222Y-40130997D01*
X47894123Y-40250000D01*
X47894123Y-41250000D01*
X47915042Y-41361173D01*
X47980745Y-41463279D01*
X48080997Y-41531778D01*
X48150000Y-41545752D01*
X48150000Y-41919123D01*
X48000000Y-41919123D01*
X47888827Y-41940042D01*
X47786721Y-42005745D01*
X47718222Y-42105997D01*
X47694123Y-42225000D01*
X47405441Y-42225000D01*
X47564460Y-41987013D01*
X47621550Y-41700000D01*
X47564460Y-41412987D01*
X47401880Y-41169670D01*
X47158563Y-41007090D01*
X46871550Y-40950000D01*
X46128450Y-40950000D01*
X45841437Y-41007090D01*
X45598120Y-41169670D01*
X45435540Y-41412987D01*
X45400000Y-41591660D01*
X45400000Y-37900000D01*
X55190327Y-37900000D01*
X55080064Y-37945672D01*
G36*
X57005000Y-50225000D02*
X57025000Y-50225000D01*
X57025000Y-50275000D01*
X57005000Y-50275000D01*
X57005000Y-50295000D01*
X56955000Y-50295000D01*
X56955000Y-50275000D01*
X56935000Y-50275000D01*
X56935000Y-50225000D01*
X56955000Y-50225000D01*
X56955000Y-50205000D01*
X57005000Y-50205000D01*
X57005000Y-50225000D01*
X57005000Y-50225000D01*
G37*
X57005000Y-50225000D02*
X57025000Y-50225000D01*
X57025000Y-50275000D01*
X57005000Y-50275000D01*
X57005000Y-50295000D01*
X56955000Y-50295000D01*
X56955000Y-50275000D01*
X56935000Y-50275000D01*
X56935000Y-50225000D01*
X56955000Y-50225000D01*
X56955000Y-50205000D01*
X57005000Y-50205000D01*
X57005000Y-50225000D01*
G36*
X53699861Y-40408432D02*
X53821397Y-40702572D01*
X54046245Y-40927812D01*
X54050000Y-40929371D01*
X54050000Y-40957106D01*
X54084254Y-41129314D01*
X54162223Y-41246002D01*
X54181802Y-41275304D01*
X55024696Y-42118198D01*
X55092869Y-42163750D01*
X55059673Y-42150000D01*
X54600000Y-42150000D01*
X54525000Y-42225000D01*
X54525000Y-42775000D01*
X55225000Y-42775000D01*
X55250000Y-42750000D01*
X55275000Y-42775000D01*
X55975000Y-42775000D01*
X55975000Y-42755000D01*
X56025000Y-42755000D01*
X56025000Y-42775000D01*
X56725000Y-42775000D01*
X56800000Y-42700000D01*
X56800000Y-42390326D01*
X56754328Y-42280063D01*
X56724265Y-42250000D01*
X57712940Y-42250000D01*
X57715042Y-42261173D01*
X57780745Y-42363279D01*
X57880997Y-42431778D01*
X58000000Y-42455877D01*
X59000000Y-42455877D01*
X59111173Y-42434958D01*
X59213279Y-42369255D01*
X59281778Y-42269003D01*
X59285626Y-42250000D01*
X59573604Y-42250000D01*
X60469123Y-43145519D01*
X60469123Y-43415000D01*
X60490042Y-43526173D01*
X60555745Y-43628279D01*
X60655997Y-43696778D01*
X60775000Y-43720877D01*
X61994481Y-43720877D01*
X62058604Y-43785000D01*
X61650000Y-43785000D01*
X61575000Y-43860000D01*
X61575000Y-44360000D01*
X62550000Y-44360000D01*
X62591802Y-44318198D01*
X62800000Y-44526396D01*
X62800000Y-46000000D01*
X62834254Y-46172208D01*
X62879553Y-46240002D01*
X62931802Y-46318198D01*
X64701206Y-48087602D01*
X64700139Y-48090172D01*
X64699974Y-48279582D01*
X64443459Y-48279358D01*
X64186087Y-48385702D01*
X63989002Y-48582443D01*
X63882209Y-48839629D01*
X63881966Y-49118107D01*
X63913402Y-49194188D01*
X63911993Y-49201275D01*
X63838827Y-49215042D01*
X63736721Y-49280745D01*
X63732834Y-49286434D01*
X63732834Y-48582834D01*
X63725692Y-48546927D01*
X63702386Y-48429760D01*
X63615677Y-48299991D01*
X62699883Y-47384197D01*
X62700121Y-47111372D01*
X62593777Y-46854000D01*
X62397036Y-46656915D01*
X62139850Y-46550122D01*
X61861372Y-46549879D01*
X61604000Y-46656223D01*
X61406915Y-46852964D01*
X61355877Y-46975877D01*
X61355877Y-46500000D01*
X61334958Y-46388827D01*
X61269255Y-46286721D01*
X61231431Y-46260877D01*
X62325000Y-46260877D01*
X62436173Y-46239958D01*
X62538279Y-46174255D01*
X62606778Y-46074003D01*
X62630877Y-45955000D01*
X62630877Y-45355000D01*
X62609958Y-45243827D01*
X62544255Y-45141721D01*
X62444003Y-45073222D01*
X62325000Y-45049123D01*
X60775000Y-45049123D01*
X60694387Y-45064292D01*
X60539850Y-45000122D01*
X60261372Y-44999879D01*
X60004000Y-45106223D01*
X59900000Y-45210041D01*
X59900000Y-44589784D01*
X60004967Y-44485000D01*
X60475000Y-44485000D01*
X60475000Y-44744673D01*
X60520672Y-44854936D01*
X60605063Y-44939328D01*
X60715326Y-44985000D01*
X61450000Y-44985000D01*
X61525000Y-44910000D01*
X61525000Y-44410000D01*
X61575000Y-44410000D01*
X61575000Y-44910000D01*
X61650000Y-44985000D01*
X62384674Y-44985000D01*
X62494937Y-44939328D01*
X62579328Y-44854936D01*
X62625000Y-44744673D01*
X62625000Y-44485000D01*
X62550000Y-44410000D01*
X61575000Y-44410000D01*
X61525000Y-44410000D01*
X60550000Y-44410000D01*
X60475000Y-44485000D01*
X60004967Y-44485000D01*
X60093085Y-44397036D01*
X60199878Y-44139850D01*
X60199977Y-44025327D01*
X60475000Y-44025327D01*
X60475000Y-44285000D01*
X60550000Y-44360000D01*
X61525000Y-44360000D01*
X61525000Y-43860000D01*
X61450000Y-43785000D01*
X60715326Y-43785000D01*
X60605063Y-43830672D01*
X60520672Y-43915064D01*
X60475000Y-44025327D01*
X60199977Y-44025327D01*
X60200121Y-43861372D01*
X60093777Y-43604000D01*
X59897036Y-43406915D01*
X59639850Y-43300122D01*
X59361372Y-43299879D01*
X59300000Y-43325237D01*
X59300000Y-43300000D01*
X59225000Y-43225000D01*
X58525000Y-43225000D01*
X58525000Y-43775000D01*
X58600000Y-43850000D01*
X58804337Y-43850000D01*
X58800122Y-43860150D01*
X58799879Y-44138628D01*
X58906223Y-44396000D01*
X59100000Y-44590116D01*
X59100000Y-45674316D01*
X59017157Y-45757159D01*
X58930448Y-45886928D01*
X58917927Y-45949878D01*
X58900000Y-46040002D01*
X58900000Y-46203531D01*
X58838827Y-46215042D01*
X58736721Y-46280745D01*
X58668222Y-46380997D01*
X58644123Y-46500000D01*
X58644123Y-47090191D01*
X58417157Y-47317157D01*
X58330448Y-47446926D01*
X58330267Y-47447836D01*
X58238827Y-47465042D01*
X58136721Y-47530745D01*
X58068222Y-47630997D01*
X58044123Y-47750000D01*
X58044123Y-48340191D01*
X57967157Y-48417157D01*
X57950000Y-48442834D01*
X57950000Y-48350000D01*
X57875000Y-48275000D01*
X57325000Y-48275000D01*
X57325000Y-48295000D01*
X57275000Y-48295000D01*
X57275000Y-48275000D01*
X56725000Y-48275000D01*
X56650000Y-48350000D01*
X56650000Y-48809673D01*
X56695672Y-48919936D01*
X56725736Y-48950000D01*
X56520326Y-48950000D01*
X56410063Y-48995672D01*
X56344822Y-49060913D01*
X56329255Y-49036721D01*
X56229003Y-48968222D01*
X56110000Y-48944123D01*
X55310000Y-48944123D01*
X55198827Y-48965042D01*
X55096721Y-49030745D01*
X55028222Y-49130997D01*
X55004123Y-49250000D01*
X55004123Y-49800000D01*
X54392832Y-49800000D01*
X54287903Y-49695071D01*
X54288970Y-49692501D01*
X54289248Y-49374241D01*
X54167712Y-49080101D01*
X53942864Y-48854861D01*
X53648937Y-48732812D01*
X53330677Y-48732534D01*
X53326919Y-48734087D01*
X52449999Y-47857167D01*
X52449999Y-47690327D01*
X56650000Y-47690327D01*
X56650000Y-48150000D01*
X56725000Y-48225000D01*
X57275000Y-48225000D01*
X57275000Y-47525000D01*
X57325000Y-47525000D01*
X57325000Y-48225000D01*
X57875000Y-48225000D01*
X57950000Y-48150000D01*
X57950000Y-47690327D01*
X57904328Y-47580064D01*
X57819937Y-47495672D01*
X57709674Y-47450000D01*
X57400000Y-47450000D01*
X57325000Y-47525000D01*
X57275000Y-47525000D01*
X57200000Y-47450000D01*
X56890326Y-47450000D01*
X56780063Y-47495672D01*
X56695672Y-47580064D01*
X56650000Y-47690327D01*
X52449999Y-47690327D01*
X52449999Y-47133377D01*
X52610150Y-47199878D01*
X52888628Y-47200121D01*
X53146000Y-47093777D01*
X53343085Y-46897036D01*
X53449878Y-46639850D01*
X53450117Y-46365568D01*
X53915685Y-45900000D01*
X56110216Y-45900000D01*
X56302964Y-46093085D01*
X56560150Y-46199878D01*
X56838628Y-46200121D01*
X57096000Y-46093777D01*
X57293085Y-45897036D01*
X57399878Y-45639850D01*
X57400121Y-45361372D01*
X57293777Y-45104000D01*
X57097036Y-44906915D01*
X56839850Y-44800122D01*
X56665546Y-44799970D01*
X56713279Y-44769255D01*
X56781778Y-44669003D01*
X56785626Y-44650000D01*
X56855565Y-44650000D01*
X57027773Y-44615746D01*
X57173763Y-44518198D01*
X57201530Y-44490431D01*
X57403707Y-44490607D01*
X57661079Y-44384263D01*
X57858164Y-44187522D01*
X57964957Y-43930336D01*
X57965027Y-43850000D01*
X58400000Y-43850000D01*
X58475000Y-43775000D01*
X58475000Y-43225000D01*
X57775000Y-43225000D01*
X57732296Y-43267704D01*
X57662115Y-43197401D01*
X57404929Y-43090608D01*
X57126451Y-43090365D01*
X56869079Y-43196709D01*
X56760456Y-43305142D01*
X56800000Y-43209674D01*
X56800000Y-42900000D01*
X56725000Y-42825000D01*
X56025000Y-42825000D01*
X56025000Y-43375000D01*
X56100000Y-43450000D01*
X56559673Y-43450000D01*
X56666966Y-43405558D01*
X56600941Y-43564564D01*
X56500000Y-43544123D01*
X55500000Y-43544123D01*
X55388827Y-43565042D01*
X55286721Y-43630745D01*
X55249996Y-43684494D01*
X55219255Y-43636721D01*
X55119003Y-43568222D01*
X55000000Y-43544123D01*
X54000000Y-43544123D01*
X53888827Y-43565042D01*
X53786721Y-43630745D01*
X53718222Y-43730997D01*
X53714374Y-43750000D01*
X53400000Y-43750000D01*
X53400000Y-42900000D01*
X53700000Y-42900000D01*
X53700000Y-43209674D01*
X53745672Y-43319937D01*
X53830064Y-43404328D01*
X53940327Y-43450000D01*
X54400000Y-43450000D01*
X54475000Y-43375000D01*
X54475000Y-42825000D01*
X54525000Y-42825000D01*
X54525000Y-43375000D01*
X54600000Y-43450000D01*
X55059673Y-43450000D01*
X55169936Y-43404328D01*
X55250000Y-43324265D01*
X55330064Y-43404328D01*
X55440327Y-43450000D01*
X55900000Y-43450000D01*
X55975000Y-43375000D01*
X55975000Y-42825000D01*
X55275000Y-42825000D01*
X55250000Y-42850000D01*
X55225000Y-42825000D01*
X54525000Y-42825000D01*
X54475000Y-42825000D01*
X53775000Y-42825000D01*
X53700000Y-42900000D01*
X53400000Y-42900000D01*
X53400000Y-42790326D01*
X57700000Y-42790326D01*
X57700000Y-43100000D01*
X57775000Y-43175000D01*
X58475000Y-43175000D01*
X58475000Y-42625000D01*
X58525000Y-42625000D01*
X58525000Y-43175000D01*
X59225000Y-43175000D01*
X59300000Y-43100000D01*
X59300000Y-42790326D01*
X59254328Y-42680063D01*
X59169936Y-42595672D01*
X59059673Y-42550000D01*
X58600000Y-42550000D01*
X58525000Y-42625000D01*
X58475000Y-42625000D01*
X58400000Y-42550000D01*
X57940327Y-42550000D01*
X57830064Y-42595672D01*
X57745672Y-42680063D01*
X57700000Y-42790326D01*
X53400000Y-42790326D01*
X53400000Y-42390326D01*
X53700000Y-42390326D01*
X53700000Y-42700000D01*
X53775000Y-42775000D01*
X54475000Y-42775000D01*
X54475000Y-42225000D01*
X54400000Y-42150000D01*
X53940327Y-42150000D01*
X53830064Y-42195672D01*
X53745672Y-42280063D01*
X53700000Y-42390326D01*
X53400000Y-42390326D01*
X53400000Y-41537060D01*
X53411173Y-41534958D01*
X53513279Y-41469255D01*
X53581778Y-41369003D01*
X53605877Y-41250000D01*
X53605877Y-40275565D01*
X53677812Y-40203755D01*
X53679371Y-40200000D01*
X53700043Y-40200000D01*
X53699861Y-40408432D01*
X53699861Y-40408432D01*
G37*
X53699861Y-40408432D02*
X53821397Y-40702572D01*
X54046245Y-40927812D01*
X54050000Y-40929371D01*
X54050000Y-40957106D01*
X54084254Y-41129314D01*
X54162223Y-41246002D01*
X54181802Y-41275304D01*
X55024696Y-42118198D01*
X55092869Y-42163750D01*
X55059673Y-42150000D01*
X54600000Y-42150000D01*
X54525000Y-42225000D01*
X54525000Y-42775000D01*
X55225000Y-42775000D01*
X55250000Y-42750000D01*
X55275000Y-42775000D01*
X55975000Y-42775000D01*
X55975000Y-42755000D01*
X56025000Y-42755000D01*
X56025000Y-42775000D01*
X56725000Y-42775000D01*
X56800000Y-42700000D01*
X56800000Y-42390326D01*
X56754328Y-42280063D01*
X56724265Y-42250000D01*
X57712940Y-42250000D01*
X57715042Y-42261173D01*
X57780745Y-42363279D01*
X57880997Y-42431778D01*
X58000000Y-42455877D01*
X59000000Y-42455877D01*
X59111173Y-42434958D01*
X59213279Y-42369255D01*
X59281778Y-42269003D01*
X59285626Y-42250000D01*
X59573604Y-42250000D01*
X60469123Y-43145519D01*
X60469123Y-43415000D01*
X60490042Y-43526173D01*
X60555745Y-43628279D01*
X60655997Y-43696778D01*
X60775000Y-43720877D01*
X61994481Y-43720877D01*
X62058604Y-43785000D01*
X61650000Y-43785000D01*
X61575000Y-43860000D01*
X61575000Y-44360000D01*
X62550000Y-44360000D01*
X62591802Y-44318198D01*
X62800000Y-44526396D01*
X62800000Y-46000000D01*
X62834254Y-46172208D01*
X62879553Y-46240002D01*
X62931802Y-46318198D01*
X64701206Y-48087602D01*
X64700139Y-48090172D01*
X64699974Y-48279582D01*
X64443459Y-48279358D01*
X64186087Y-48385702D01*
X63989002Y-48582443D01*
X63882209Y-48839629D01*
X63881966Y-49118107D01*
X63913402Y-49194188D01*
X63911993Y-49201275D01*
X63838827Y-49215042D01*
X63736721Y-49280745D01*
X63732834Y-49286434D01*
X63732834Y-48582834D01*
X63725692Y-48546927D01*
X63702386Y-48429760D01*
X63615677Y-48299991D01*
X62699883Y-47384197D01*
X62700121Y-47111372D01*
X62593777Y-46854000D01*
X62397036Y-46656915D01*
X62139850Y-46550122D01*
X61861372Y-46549879D01*
X61604000Y-46656223D01*
X61406915Y-46852964D01*
X61355877Y-46975877D01*
X61355877Y-46500000D01*
X61334958Y-46388827D01*
X61269255Y-46286721D01*
X61231431Y-46260877D01*
X62325000Y-46260877D01*
X62436173Y-46239958D01*
X62538279Y-46174255D01*
X62606778Y-46074003D01*
X62630877Y-45955000D01*
X62630877Y-45355000D01*
X62609958Y-45243827D01*
X62544255Y-45141721D01*
X62444003Y-45073222D01*
X62325000Y-45049123D01*
X60775000Y-45049123D01*
X60694387Y-45064292D01*
X60539850Y-45000122D01*
X60261372Y-44999879D01*
X60004000Y-45106223D01*
X59900000Y-45210041D01*
X59900000Y-44589784D01*
X60004967Y-44485000D01*
X60475000Y-44485000D01*
X60475000Y-44744673D01*
X60520672Y-44854936D01*
X60605063Y-44939328D01*
X60715326Y-44985000D01*
X61450000Y-44985000D01*
X61525000Y-44910000D01*
X61525000Y-44410000D01*
X61575000Y-44410000D01*
X61575000Y-44910000D01*
X61650000Y-44985000D01*
X62384674Y-44985000D01*
X62494937Y-44939328D01*
X62579328Y-44854936D01*
X62625000Y-44744673D01*
X62625000Y-44485000D01*
X62550000Y-44410000D01*
X61575000Y-44410000D01*
X61525000Y-44410000D01*
X60550000Y-44410000D01*
X60475000Y-44485000D01*
X60004967Y-44485000D01*
X60093085Y-44397036D01*
X60199878Y-44139850D01*
X60199977Y-44025327D01*
X60475000Y-44025327D01*
X60475000Y-44285000D01*
X60550000Y-44360000D01*
X61525000Y-44360000D01*
X61525000Y-43860000D01*
X61450000Y-43785000D01*
X60715326Y-43785000D01*
X60605063Y-43830672D01*
X60520672Y-43915064D01*
X60475000Y-44025327D01*
X60199977Y-44025327D01*
X60200121Y-43861372D01*
X60093777Y-43604000D01*
X59897036Y-43406915D01*
X59639850Y-43300122D01*
X59361372Y-43299879D01*
X59300000Y-43325237D01*
X59300000Y-43300000D01*
X59225000Y-43225000D01*
X58525000Y-43225000D01*
X58525000Y-43775000D01*
X58600000Y-43850000D01*
X58804337Y-43850000D01*
X58800122Y-43860150D01*
X58799879Y-44138628D01*
X58906223Y-44396000D01*
X59100000Y-44590116D01*
X59100000Y-45674316D01*
X59017157Y-45757159D01*
X58930448Y-45886928D01*
X58917927Y-45949878D01*
X58900000Y-46040002D01*
X58900000Y-46203531D01*
X58838827Y-46215042D01*
X58736721Y-46280745D01*
X58668222Y-46380997D01*
X58644123Y-46500000D01*
X58644123Y-47090191D01*
X58417157Y-47317157D01*
X58330448Y-47446926D01*
X58330267Y-47447836D01*
X58238827Y-47465042D01*
X58136721Y-47530745D01*
X58068222Y-47630997D01*
X58044123Y-47750000D01*
X58044123Y-48340191D01*
X57967157Y-48417157D01*
X57950000Y-48442834D01*
X57950000Y-48350000D01*
X57875000Y-48275000D01*
X57325000Y-48275000D01*
X57325000Y-48295000D01*
X57275000Y-48295000D01*
X57275000Y-48275000D01*
X56725000Y-48275000D01*
X56650000Y-48350000D01*
X56650000Y-48809673D01*
X56695672Y-48919936D01*
X56725736Y-48950000D01*
X56520326Y-48950000D01*
X56410063Y-48995672D01*
X56344822Y-49060913D01*
X56329255Y-49036721D01*
X56229003Y-48968222D01*
X56110000Y-48944123D01*
X55310000Y-48944123D01*
X55198827Y-48965042D01*
X55096721Y-49030745D01*
X55028222Y-49130997D01*
X55004123Y-49250000D01*
X55004123Y-49800000D01*
X54392832Y-49800000D01*
X54287903Y-49695071D01*
X54288970Y-49692501D01*
X54289248Y-49374241D01*
X54167712Y-49080101D01*
X53942864Y-48854861D01*
X53648937Y-48732812D01*
X53330677Y-48732534D01*
X53326919Y-48734087D01*
X52449999Y-47857167D01*
X52449999Y-47690327D01*
X56650000Y-47690327D01*
X56650000Y-48150000D01*
X56725000Y-48225000D01*
X57275000Y-48225000D01*
X57275000Y-47525000D01*
X57325000Y-47525000D01*
X57325000Y-48225000D01*
X57875000Y-48225000D01*
X57950000Y-48150000D01*
X57950000Y-47690327D01*
X57904328Y-47580064D01*
X57819937Y-47495672D01*
X57709674Y-47450000D01*
X57400000Y-47450000D01*
X57325000Y-47525000D01*
X57275000Y-47525000D01*
X57200000Y-47450000D01*
X56890326Y-47450000D01*
X56780063Y-47495672D01*
X56695672Y-47580064D01*
X56650000Y-47690327D01*
X52449999Y-47690327D01*
X52449999Y-47133377D01*
X52610150Y-47199878D01*
X52888628Y-47200121D01*
X53146000Y-47093777D01*
X53343085Y-46897036D01*
X53449878Y-46639850D01*
X53450117Y-46365568D01*
X53915685Y-45900000D01*
X56110216Y-45900000D01*
X56302964Y-46093085D01*
X56560150Y-46199878D01*
X56838628Y-46200121D01*
X57096000Y-46093777D01*
X57293085Y-45897036D01*
X57399878Y-45639850D01*
X57400121Y-45361372D01*
X57293777Y-45104000D01*
X57097036Y-44906915D01*
X56839850Y-44800122D01*
X56665546Y-44799970D01*
X56713279Y-44769255D01*
X56781778Y-44669003D01*
X56785626Y-44650000D01*
X56855565Y-44650000D01*
X57027773Y-44615746D01*
X57173763Y-44518198D01*
X57201530Y-44490431D01*
X57403707Y-44490607D01*
X57661079Y-44384263D01*
X57858164Y-44187522D01*
X57964957Y-43930336D01*
X57965027Y-43850000D01*
X58400000Y-43850000D01*
X58475000Y-43775000D01*
X58475000Y-43225000D01*
X57775000Y-43225000D01*
X57732296Y-43267704D01*
X57662115Y-43197401D01*
X57404929Y-43090608D01*
X57126451Y-43090365D01*
X56869079Y-43196709D01*
X56760456Y-43305142D01*
X56800000Y-43209674D01*
X56800000Y-42900000D01*
X56725000Y-42825000D01*
X56025000Y-42825000D01*
X56025000Y-43375000D01*
X56100000Y-43450000D01*
X56559673Y-43450000D01*
X56666966Y-43405558D01*
X56600941Y-43564564D01*
X56500000Y-43544123D01*
X55500000Y-43544123D01*
X55388827Y-43565042D01*
X55286721Y-43630745D01*
X55249996Y-43684494D01*
X55219255Y-43636721D01*
X55119003Y-43568222D01*
X55000000Y-43544123D01*
X54000000Y-43544123D01*
X53888827Y-43565042D01*
X53786721Y-43630745D01*
X53718222Y-43730997D01*
X53714374Y-43750000D01*
X53400000Y-43750000D01*
X53400000Y-42900000D01*
X53700000Y-42900000D01*
X53700000Y-43209674D01*
X53745672Y-43319937D01*
X53830064Y-43404328D01*
X53940327Y-43450000D01*
X54400000Y-43450000D01*
X54475000Y-43375000D01*
X54475000Y-42825000D01*
X54525000Y-42825000D01*
X54525000Y-43375000D01*
X54600000Y-43450000D01*
X55059673Y-43450000D01*
X55169936Y-43404328D01*
X55250000Y-43324265D01*
X55330064Y-43404328D01*
X55440327Y-43450000D01*
X55900000Y-43450000D01*
X55975000Y-43375000D01*
X55975000Y-42825000D01*
X55275000Y-42825000D01*
X55250000Y-42850000D01*
X55225000Y-42825000D01*
X54525000Y-42825000D01*
X54475000Y-42825000D01*
X53775000Y-42825000D01*
X53700000Y-42900000D01*
X53400000Y-42900000D01*
X53400000Y-42790326D01*
X57700000Y-42790326D01*
X57700000Y-43100000D01*
X57775000Y-43175000D01*
X58475000Y-43175000D01*
X58475000Y-42625000D01*
X58525000Y-42625000D01*
X58525000Y-43175000D01*
X59225000Y-43175000D01*
X59300000Y-43100000D01*
X59300000Y-42790326D01*
X59254328Y-42680063D01*
X59169936Y-42595672D01*
X59059673Y-42550000D01*
X58600000Y-42550000D01*
X58525000Y-42625000D01*
X58475000Y-42625000D01*
X58400000Y-42550000D01*
X57940327Y-42550000D01*
X57830064Y-42595672D01*
X57745672Y-42680063D01*
X57700000Y-42790326D01*
X53400000Y-42790326D01*
X53400000Y-42390326D01*
X53700000Y-42390326D01*
X53700000Y-42700000D01*
X53775000Y-42775000D01*
X54475000Y-42775000D01*
X54475000Y-42225000D01*
X54400000Y-42150000D01*
X53940327Y-42150000D01*
X53830064Y-42195672D01*
X53745672Y-42280063D01*
X53700000Y-42390326D01*
X53400000Y-42390326D01*
X53400000Y-41537060D01*
X53411173Y-41534958D01*
X53513279Y-41469255D01*
X53581778Y-41369003D01*
X53605877Y-41250000D01*
X53605877Y-40275565D01*
X53677812Y-40203755D01*
X53679371Y-40200000D01*
X53700043Y-40200000D01*
X53699861Y-40408432D01*
M02*
