G04 #@! TF.FileFunction,Paste,Bot*
%FSLAX46Y46*%
G04 Gerber Fmt 4.6, Leading zero omitted, Abs format (unit mm)*
G04 Created by KiCad (PCBNEW (2015-10-14 BZR 6267)-product) date 2015 October 25, Sunday 21:22:18*
%MOMM*%
G01*
G04 APERTURE LIST*
%ADD10C,0.100000*%
%ADD11R,1.440000X0.720000*%
%ADD12R,2.700000X1.890000*%
%ADD13R,0.720000X1.800000*%
%ADD14R,0.630000X0.900000*%
%ADD15R,0.900000X0.630000*%
%ADD16R,1.800000X0.990000*%
%ADD17R,1.395000X0.540000*%
G04 APERTURE END LIST*
D10*
D11*
X70350000Y-48625000D03*
X70350000Y-47375000D03*
X70350000Y-46125000D03*
X70350000Y-44875000D03*
D12*
X73250000Y-42325000D03*
X73250000Y-51175000D03*
D13*
X56980000Y-50250000D03*
X55710000Y-50250000D03*
X58250000Y-50250000D03*
X59520000Y-50250000D03*
X60790000Y-50250000D03*
D14*
X57300000Y-48250000D03*
X58700000Y-48250000D03*
D15*
X54500000Y-42800000D03*
X54500000Y-44200000D03*
X58500000Y-43200000D03*
X58500000Y-41800000D03*
D14*
X68450000Y-48500000D03*
X67050000Y-48500000D03*
X51550000Y-40750000D03*
X52950000Y-40750000D03*
D15*
X46000000Y-51700000D03*
X46000000Y-50300000D03*
D14*
X67050000Y-51500000D03*
X68450000Y-51500000D03*
X67050000Y-50000000D03*
X68450000Y-50000000D03*
X59300000Y-47000000D03*
X60700000Y-47000000D03*
X49950000Y-40750000D03*
X48550000Y-40750000D03*
X59550000Y-40250000D03*
X60950000Y-40250000D03*
D15*
X55750000Y-38550000D03*
X55750000Y-39950000D03*
D14*
X65700000Y-51500000D03*
X64300000Y-51500000D03*
X65700000Y-50000000D03*
X64300000Y-50000000D03*
D16*
X49000000Y-42775000D03*
X49000000Y-47225000D03*
D17*
X61550000Y-45655000D03*
X61550000Y-44385000D03*
X61550000Y-43115000D03*
X61550000Y-41845000D03*
X66950000Y-41845000D03*
X66950000Y-43115000D03*
X66950000Y-44385000D03*
X66950000Y-45655000D03*
D15*
X56000000Y-42800000D03*
X56000000Y-44200000D03*
X57750000Y-39950000D03*
X57750000Y-38550000D03*
M02*
