M48
; DRILL file {KiCad 5.1.9} date Wed Mar 10 22:40:09 2021
; FORMAT={-:-/ absolute / inch / decimal}
; #@! TF.CreationDate,2021-03-10T22:40:09+01:00
; #@! TF.GenerationSoftware,Kicad,Pcbnew,5.1.9
FMAT,2
INCH
T1C0.0118
T2C0.0374
T3C0.0256
%
G90
G05
T1
X1.8425Y-1.498
X1.998Y-1.6339
X2.0984Y-1.7894
X2.1378Y-2.0118
X2.1614Y-2.2717
X2.1614Y-2.4193
X2.1866Y-1.6079
X2.1909Y-1.5768
X2.2205Y-1.5197
X2.2343Y-1.6063
X2.2402Y-2.1417
X2.2835Y-2.1417
X2.2835Y-2.1772
X2.2992Y-1.7795
X2.3209Y-2.3524
X2.3268Y-2.1181
X2.3465Y-2.0118
X2.4646Y-2.0394
X2.5157Y-1.6575
X2.5236Y-1.9803
X2.5315Y-2.0394
X2.5709Y-1.6969
X2.6063Y-2.0157
X2.6186Y-1.6184
X2.6339Y-1.4567
X2.6363Y-2.3371
X2.6378Y-2.3701
X2.6457Y-2.0157
X2.6535Y-1.8583
X2.6594Y-1.4843
X2.6614Y-1.8898
X2.6772Y-1.9213
X2.685Y-2.1969
X2.7126Y-1.5748
X2.7126Y-2.2224
X2.7913Y-2.0551
X2.8039Y-1.8111
X2.878Y-1.7953
X2.8839Y-2.3346
X2.9016Y-2.0138
X3.0039Y-1.5984
X3.0039Y-1.7874
X3.0472Y-1.8307
X3.1181Y-1.9409
X3.1181Y-1.9685
X3.1181Y-1.9961
X3.1181Y-2.0236
X3.1535Y-1.7087
X3.1772Y-1.9213
X3.3051Y-1.5945
X3.3661Y-1.9744
X3.3898Y-1.689
X3.4016Y-2.1496
X3.4016Y-2.2126
X3.4291Y-1.685
X3.4882Y-2.1299
T2
X3.2283Y-1.5551
X3.2283Y-1.6535
X3.2283Y-1.752
X3.2283Y-1.8504
X3.2283Y-2.0866
X3.2283Y-2.185
X3.2283Y-2.2835
X3.2283Y-2.3819
T3
X2.0063Y-1.8547
X2.0063Y-2.0823
T0
M30
