G04 #@! TF.FileFunction,Copper,L1,Top,Signal*
%FSLAX46Y46*%
G04 Gerber Fmt 4.6, Leading zero omitted, Abs format (unit mm)*
G04 Created by KiCad (PCBNEW (2015-10-14 BZR 6267)-product) date 2015 October 25, Sunday 21:22:18*
%MOMM*%
G01*
G04 APERTURE LIST*
%ADD10C,0.100000*%
%ADD11R,1.900000X1.900000*%
%ADD12R,1.400000X1.600000*%
%ADD13R,1.350000X0.400000*%
%ADD14O,1.600000X0.900000*%
%ADD15R,1.000000X0.700000*%
%ADD16R,0.250000X1.300000*%
%ADD17R,1.300000X0.250000*%
%ADD18R,0.700000X1.300000*%
%ADD19R,1.400000X1.150000*%
%ADD20R,0.450000X0.300000*%
%ADD21R,1.600000X0.800000*%
%ADD22R,3.000000X2.100000*%
%ADD23R,0.700000X1.000000*%
%ADD24R,0.749300X0.398780*%
%ADD25R,0.800000X0.800000*%
%ADD26C,0.800000*%
%ADD27R,0.800000X1.200000*%
%ADD28R,0.800000X1.300000*%
%ADD29C,1.000000*%
%ADD30C,0.300000*%
%ADD31C,0.250000*%
%ADD32C,0.200000*%
G04 APERTURE END LIST*
D10*
D11*
X46500000Y-46200000D03*
X46500000Y-43800000D03*
D12*
X48950000Y-41800000D03*
X48950000Y-48200000D03*
D13*
X49175000Y-43700000D03*
X49175000Y-44350000D03*
X49175000Y-46300000D03*
X49175000Y-45650000D03*
X49175000Y-45000000D03*
D14*
X46500000Y-48300000D03*
X46500000Y-41700000D03*
D15*
X66750000Y-46800000D03*
X66750000Y-48200000D03*
D16*
X61750000Y-42150000D03*
X61250000Y-42150000D03*
X60750000Y-42150000D03*
X60250000Y-42150000D03*
X59750000Y-42150000D03*
X59250000Y-42150000D03*
X58750000Y-42150000D03*
X58250000Y-42150000D03*
X57750000Y-42150000D03*
X57250000Y-42150000D03*
X56750000Y-42150000D03*
X56250000Y-42150000D03*
D17*
X54650000Y-43750000D03*
X54650000Y-44250000D03*
X54650000Y-44750000D03*
X54650000Y-45250000D03*
X54650000Y-45750000D03*
X54650000Y-46250000D03*
X54650000Y-46750000D03*
X54650000Y-47250000D03*
X54650000Y-47750000D03*
X54650000Y-48250000D03*
X54650000Y-48750000D03*
X54650000Y-49250000D03*
D16*
X56250000Y-50850000D03*
X56750000Y-50850000D03*
X57250000Y-50850000D03*
X57750000Y-50850000D03*
X58250000Y-50850000D03*
X58750000Y-50850000D03*
X59250000Y-50850000D03*
X59750000Y-50850000D03*
X60250000Y-50850000D03*
X60750000Y-50850000D03*
X61250000Y-50850000D03*
X61750000Y-50850000D03*
D17*
X63350000Y-49250000D03*
X63350000Y-48750000D03*
X63350000Y-48250000D03*
X63350000Y-47750000D03*
X63350000Y-47250000D03*
X63350000Y-46750000D03*
X63350000Y-46250000D03*
X63350000Y-45750000D03*
X63350000Y-45250000D03*
X63350000Y-44750000D03*
X63350000Y-44250000D03*
X63350000Y-43750000D03*
D18*
X49700000Y-38750000D03*
X47800000Y-38750000D03*
D15*
X46250000Y-39950000D03*
X46250000Y-38550000D03*
D19*
X58150000Y-38450000D03*
X60350000Y-38450000D03*
X60350000Y-40050000D03*
X58150000Y-40050000D03*
D20*
X52675000Y-45500000D03*
X52675000Y-45000000D03*
X52675000Y-44500000D03*
X51325000Y-44500000D03*
X51325000Y-45000000D03*
X51325000Y-45500000D03*
D21*
X70350000Y-44875000D03*
X70350000Y-46125000D03*
X70350000Y-47375000D03*
X70350000Y-48625000D03*
D22*
X73250000Y-51175000D03*
X73250000Y-42325000D03*
D15*
X53250000Y-51700000D03*
X53250000Y-50300000D03*
X64000000Y-51700000D03*
X64000000Y-50300000D03*
D23*
X65450000Y-42000000D03*
X64050000Y-42000000D03*
D15*
X51750000Y-51700000D03*
X51750000Y-50300000D03*
X56500000Y-39700000D03*
X56500000Y-38300000D03*
X62000000Y-39700000D03*
X62000000Y-38300000D03*
X55000000Y-38300000D03*
X55000000Y-39700000D03*
X68250000Y-46800000D03*
X68250000Y-48200000D03*
X46000000Y-51700000D03*
X46000000Y-50300000D03*
X51750000Y-47800000D03*
X51750000Y-49200000D03*
X66750000Y-43200000D03*
X66750000Y-41800000D03*
X68250000Y-43200000D03*
X68250000Y-41800000D03*
D24*
X67449960Y-51400240D03*
X67449960Y-50750000D03*
X67449960Y-50099760D03*
X65550040Y-50099760D03*
X65550040Y-50750000D03*
X65550040Y-51400240D03*
D25*
X69500000Y-39750000D03*
D26*
X70750000Y-39750000D03*
X72000000Y-39750000D03*
X73250000Y-39750000D03*
D27*
X51050000Y-41025000D03*
X52950000Y-41025000D03*
D28*
X52000000Y-38475000D03*
D29*
X64250000Y-41050010D03*
X63500000Y-39250000D03*
X53000000Y-39750000D03*
X53489109Y-49532673D03*
D26*
X57265079Y-43790486D03*
X62500000Y-51000000D03*
D29*
X54250000Y-41985560D03*
X50500000Y-48750000D03*
D26*
X67500000Y-47250000D03*
D29*
X69499990Y-50077642D03*
X53250000Y-47750000D03*
X70250000Y-41750000D03*
X73750000Y-44500000D03*
X70601048Y-51601048D03*
X73750000Y-49000000D03*
D26*
X54750000Y-51750000D03*
X50500000Y-51750000D03*
X60500000Y-44500000D03*
X47141570Y-40059143D03*
D29*
X56250000Y-48000000D03*
X51000000Y-39750000D03*
X51000000Y-46500000D03*
X65250000Y-38500000D03*
X54000000Y-38250000D03*
D26*
X58250000Y-44000000D03*
X59500000Y-44000000D03*
D29*
X65500000Y-48250000D03*
X54500000Y-40250000D03*
D26*
X61500000Y-49000000D03*
X60250000Y-48250000D03*
X68750000Y-44500000D03*
X73000000Y-46750000D03*
X72000000Y-46750000D03*
X51250000Y-43000000D03*
X55777820Y-40972180D03*
X56700000Y-45500000D03*
X52750000Y-46500000D03*
X64500000Y-45250000D03*
X60400000Y-45700000D03*
X56770330Y-40850002D03*
X62000000Y-47250000D03*
X64582087Y-48979479D03*
X47250000Y-51750000D03*
D29*
X72000000Y-44500000D03*
D30*
X62150000Y-42150000D02*
X62729389Y-42729389D01*
X62729389Y-42729389D02*
X63350000Y-43350000D01*
X64050000Y-42000000D02*
X63400000Y-42000000D01*
X63400000Y-42000000D02*
X62729389Y-42670611D01*
X62729389Y-42670611D02*
X62729389Y-42729389D01*
D31*
X63350000Y-43350000D02*
X63350000Y-43750000D01*
X61750000Y-42150000D02*
X62150000Y-42150000D01*
D30*
X63500000Y-39250000D02*
X63500000Y-40300010D01*
X63500000Y-40300010D02*
X64250000Y-41050010D01*
X64050000Y-42000000D02*
X64050000Y-41250010D01*
X64050000Y-41250010D02*
X64250000Y-41050010D01*
X53250000Y-50300000D02*
X53250000Y-49771782D01*
X53250000Y-49771782D02*
X53489109Y-49532673D01*
X51750000Y-50300000D02*
X53250000Y-50300000D01*
X51750000Y-50300000D02*
X51750000Y-49200000D01*
X52950000Y-40750760D02*
X52950000Y-39800000D01*
X52950000Y-39800000D02*
X53000000Y-39750000D01*
D31*
X61750000Y-50850000D02*
X62350000Y-50850000D01*
X62350000Y-50850000D02*
X62500000Y-51000000D01*
D30*
X62500000Y-51000000D02*
X63300000Y-51000000D01*
X63300000Y-51000000D02*
X64000000Y-50300000D01*
D31*
X54650000Y-49250000D02*
X53771782Y-49250000D01*
X53771782Y-49250000D02*
X53489109Y-49532673D01*
X63350000Y-43750000D02*
X62900254Y-43750000D01*
D30*
X57265079Y-43790486D02*
X57290486Y-43790486D01*
D31*
X63875000Y-43750000D02*
X63350000Y-43750000D01*
D32*
X57750000Y-42150000D02*
X57750000Y-43305565D01*
X57750000Y-43305565D02*
X57265079Y-43790486D01*
D31*
X61769981Y-50869981D02*
X61750000Y-50850000D01*
D32*
X50500000Y-48750000D02*
X50500001Y-46999999D01*
X50500001Y-46999999D02*
X51000000Y-46500000D01*
X67500000Y-47250000D02*
X67200000Y-47250000D01*
X67200000Y-47250000D02*
X66750000Y-46800000D01*
X67500000Y-47250000D02*
X67800000Y-47250000D01*
X67800000Y-47250000D02*
X68250000Y-46800000D01*
D30*
X65450000Y-42000000D02*
X65450000Y-38700000D01*
X65450000Y-38700000D02*
X65250000Y-38500000D01*
X64250000Y-44250000D02*
X65450000Y-43050000D01*
X65450000Y-43050000D02*
X65450000Y-42000000D01*
X51000000Y-39750000D02*
X51000000Y-40975000D01*
X51000000Y-40975000D02*
X51050000Y-41025000D01*
X51000000Y-39750000D02*
X51050000Y-39800000D01*
D32*
X49175000Y-46300000D02*
X49650000Y-46300000D01*
X67449960Y-50750000D02*
X68138440Y-50750000D01*
X68138440Y-50750000D02*
X68810798Y-50077642D01*
X68810798Y-50077642D02*
X69499990Y-50077642D01*
X54650000Y-48750000D02*
X53800000Y-48750000D01*
X53800000Y-48750000D02*
X53250000Y-48200000D01*
X53250000Y-48200000D02*
X53250000Y-47750000D01*
D30*
X73250000Y-42325000D02*
X70825000Y-42325000D01*
X70825000Y-42325000D02*
X70250000Y-41750000D01*
X73250000Y-51175000D02*
X71027096Y-51175000D01*
X71027096Y-51175000D02*
X70601048Y-51601048D01*
X53250000Y-51700000D02*
X54700000Y-51700000D01*
X54700000Y-51700000D02*
X54750000Y-51750000D01*
X51750000Y-51700000D02*
X50550000Y-51700000D01*
X50550000Y-51700000D02*
X50500000Y-51750000D01*
D32*
X46250000Y-39950000D02*
X47032427Y-39950000D01*
X47032427Y-39950000D02*
X47141570Y-40059143D01*
D31*
X54650000Y-48750000D02*
X55500000Y-48750000D01*
X55500000Y-48750000D02*
X56250000Y-48000000D01*
D30*
X62000000Y-38300000D02*
X65050000Y-38300000D01*
X65050000Y-38300000D02*
X65250000Y-38500000D01*
X54000000Y-38250000D02*
X54950000Y-38250000D01*
X54950000Y-38250000D02*
X55000000Y-38300000D01*
X56500000Y-38300000D02*
X55000000Y-38300000D01*
X65250000Y-38500000D02*
X67000000Y-38500000D01*
X67000000Y-38500000D02*
X67499999Y-38000001D01*
X67499999Y-38000001D02*
X72610003Y-38000001D01*
X72610003Y-38000001D02*
X74056548Y-39446546D01*
X74056548Y-40168452D02*
X73250000Y-40975000D01*
X74056548Y-39446546D02*
X74056548Y-40168452D01*
X73250000Y-40975000D02*
X73250000Y-42325000D01*
X58150000Y-38450000D02*
X56650000Y-38450000D01*
X56650000Y-38450000D02*
X56500000Y-38300000D01*
D31*
X58150000Y-38450000D02*
X58489998Y-38450000D01*
X58489998Y-38450000D02*
X60089998Y-40050000D01*
X60089998Y-40050000D02*
X60350000Y-40050000D01*
D30*
X49175000Y-46300000D02*
X50800000Y-46300000D01*
X50800000Y-46300000D02*
X51000000Y-46500000D01*
D31*
X52675000Y-45000000D02*
X53150000Y-45000000D01*
X53150000Y-45000000D02*
X53674999Y-45524999D01*
X53674999Y-45524999D02*
X53674999Y-48674999D01*
X53674999Y-48674999D02*
X53750000Y-48750000D01*
X53750000Y-48750000D02*
X54650000Y-48750000D01*
D30*
X73250000Y-42325000D02*
X73250000Y-43675000D01*
X73250000Y-43675000D02*
X74250011Y-44675011D01*
X74250011Y-44675011D02*
X74250011Y-48824989D01*
X74250011Y-48824989D02*
X73250000Y-49825000D01*
X73250000Y-49825000D02*
X73250000Y-51175000D01*
X64000000Y-51950000D02*
X61305065Y-51950000D01*
X61305065Y-51950000D02*
X54300000Y-51950000D01*
D31*
X61250000Y-50850000D02*
X61250000Y-51894935D01*
X61250000Y-51894935D02*
X61305065Y-51950000D01*
X63350000Y-44250000D02*
X62400000Y-44250000D01*
D30*
X58250000Y-44000000D02*
X58250000Y-44565685D01*
X58250000Y-44565685D02*
X58434316Y-44750001D01*
X58434316Y-44750001D02*
X59860001Y-44750001D01*
X59860001Y-44750001D02*
X60360002Y-44250000D01*
X60360002Y-44250000D02*
X62400000Y-44250000D01*
D31*
X63350000Y-44250000D02*
X64250000Y-44250000D01*
D30*
X53250000Y-51700000D02*
X51750000Y-51700000D01*
X54300000Y-51950000D02*
X54050000Y-51700000D01*
X54050000Y-51700000D02*
X53250000Y-51700000D01*
X66459862Y-50750000D02*
X65550040Y-50750000D01*
X67449960Y-50750000D02*
X66459862Y-50750000D01*
X64000000Y-51950000D02*
X66468986Y-51950000D01*
X66459862Y-51940876D02*
X66468986Y-51950000D01*
X66468986Y-51950000D02*
X69000000Y-51950000D01*
X66459862Y-50750000D02*
X66459862Y-51940876D01*
X69800000Y-51950000D02*
X69257121Y-51950000D01*
X69257121Y-51950000D02*
X69000000Y-51950000D01*
X69250000Y-51942879D02*
X69257121Y-51950000D01*
X64000000Y-51700000D02*
X64000000Y-51950000D01*
X49175000Y-46300000D02*
X49800000Y-46300000D01*
D32*
X49175000Y-45650000D02*
X49175000Y-46300000D01*
D30*
X73250000Y-51175000D02*
X71450000Y-51175000D01*
X71450000Y-51175000D02*
X70675000Y-51950000D01*
X70675000Y-51950000D02*
X69800000Y-51950000D01*
D32*
X58250000Y-42150000D02*
X58250000Y-44117510D01*
X58250000Y-44117510D02*
X58296242Y-44163752D01*
X58750000Y-42150000D02*
X58750000Y-43250000D01*
X58750000Y-43250000D02*
X59500000Y-44000000D01*
X56500000Y-39700000D02*
X57800000Y-39700000D01*
X57800000Y-39700000D02*
X58150000Y-40050000D01*
X59250000Y-42150000D02*
X59250000Y-41025000D01*
X59250000Y-41025000D02*
X58275000Y-40050000D01*
X58275000Y-40050000D02*
X58150000Y-40050000D01*
X60350000Y-38450000D02*
X60600000Y-38450000D01*
X60600000Y-38450000D02*
X61850000Y-39700000D01*
X61850000Y-39700000D02*
X62000000Y-39700000D01*
X59750000Y-42150000D02*
X59750000Y-41300000D01*
X59750000Y-41300000D02*
X59850001Y-41199999D01*
X61050001Y-41199999D02*
X62000000Y-40250000D01*
X59850001Y-41199999D02*
X61050001Y-41199999D01*
X62000000Y-40250000D02*
X62000000Y-39700000D01*
X60025000Y-38400000D02*
X59900000Y-38400000D01*
D30*
X65500000Y-48250000D02*
X65500000Y-50049720D01*
X65500000Y-50049720D02*
X65550040Y-50099760D01*
X55000000Y-39700000D02*
X55000000Y-39750000D01*
X55000000Y-39750000D02*
X54500000Y-40250000D01*
X52000000Y-38751780D02*
X53243778Y-38751780D01*
X53243778Y-38751780D02*
X54191998Y-39700000D01*
X54191998Y-39700000D02*
X54200000Y-39700000D01*
X54200000Y-39700000D02*
X55000000Y-39700000D01*
X52000000Y-38751780D02*
X49701780Y-38751780D01*
X49701780Y-38751780D02*
X49700000Y-38750000D01*
X65550040Y-50099760D02*
X65650240Y-50099760D01*
X50100001Y-40780003D02*
X49592675Y-40272677D01*
X47800000Y-38750000D02*
X47800000Y-39700000D01*
X47800000Y-39700000D02*
X48372677Y-40272677D01*
X48372677Y-40272677D02*
X49592675Y-40272677D01*
X49175000Y-43700000D02*
X49650000Y-43700000D01*
X50100001Y-43249999D02*
X50100001Y-40780003D01*
X49650000Y-43700000D02*
X50100001Y-43249999D01*
X46250000Y-38550000D02*
X47600000Y-38550000D01*
X47600000Y-38550000D02*
X47800000Y-38750000D01*
D32*
X49175000Y-43700000D02*
X51440003Y-43700001D01*
X51440003Y-43700001D02*
X51850001Y-44109999D01*
X51850001Y-44109999D02*
X51850001Y-44899999D01*
X51850001Y-44899999D02*
X51750000Y-45000000D01*
X51750000Y-45000000D02*
X51325000Y-45000000D01*
X63350000Y-49250000D02*
X61750000Y-49250000D01*
X61750000Y-49250000D02*
X61500000Y-49000000D01*
X60250000Y-48250000D02*
X60750000Y-48750000D01*
X60750000Y-48750000D02*
X60750000Y-50850000D01*
X70350000Y-44875000D02*
X69125000Y-44875000D01*
X69125000Y-44875000D02*
X68750000Y-44500000D01*
X70350000Y-44875000D02*
X70125000Y-44875000D01*
X73000000Y-46750000D02*
X71125000Y-44875000D01*
X71125000Y-44875000D02*
X70350000Y-44875000D01*
X72000000Y-46750000D02*
X71375000Y-46125000D01*
X71375000Y-46125000D02*
X70350000Y-46125000D01*
X46000000Y-50300000D02*
X46700000Y-50300000D01*
X46700000Y-50300000D02*
X47400000Y-51000000D01*
X55775000Y-51000000D02*
X55925000Y-50850000D01*
X47400000Y-51000000D02*
X55775000Y-51000000D01*
X55925000Y-50850000D02*
X56250000Y-50850000D01*
X60760083Y-46663999D02*
X58900001Y-46663999D01*
X63350000Y-45750000D02*
X61674082Y-45750000D01*
X61674082Y-45750000D02*
X60760083Y-46663999D01*
X58900001Y-46663999D02*
X56689849Y-44453847D01*
X55884999Y-43100001D02*
X55570568Y-42785570D01*
X51250000Y-43000000D02*
X53259301Y-43000000D01*
X53259301Y-43000000D02*
X53473731Y-42785570D01*
X53473731Y-42785570D02*
X55570568Y-42785570D01*
X56229049Y-43100001D02*
X55884999Y-43100001D01*
X57149999Y-43100001D02*
X56229049Y-43100001D01*
X56689849Y-44453847D02*
X56423400Y-44187398D01*
X56229049Y-43100001D02*
X56229049Y-43993047D01*
X56229049Y-43993047D02*
X56689849Y-44453847D01*
X57149999Y-43100001D02*
X57250000Y-43000000D01*
X57250000Y-43000000D02*
X57250000Y-42150000D01*
X56250000Y-42150000D02*
X56250000Y-41444360D01*
X56250000Y-41444360D02*
X55777820Y-40972180D01*
X56700000Y-45500000D02*
X57099999Y-45899999D01*
X57099999Y-45899999D02*
X57099999Y-46386000D01*
X57099999Y-46386000D02*
X60250000Y-49536001D01*
X60250000Y-49536001D02*
X60250000Y-50000000D01*
X60250000Y-50000000D02*
X60250000Y-50850000D01*
X52750000Y-46500000D02*
X52750000Y-46800000D01*
X52750000Y-46800000D02*
X51750000Y-47800000D01*
X52675000Y-45500000D02*
X52675000Y-46425000D01*
X52675000Y-46425000D02*
X52750000Y-46500000D01*
X67449960Y-50099760D02*
X67449960Y-48899960D01*
X67449960Y-48899960D02*
X67450000Y-48899920D01*
X67450000Y-48899920D02*
X67450000Y-48750000D01*
X67450000Y-48750000D02*
X66900000Y-48200000D01*
X66900000Y-48200000D02*
X66750000Y-48200000D01*
X63350000Y-47250000D02*
X65800000Y-47250000D01*
X65800000Y-47250000D02*
X66750000Y-48200000D01*
X63350000Y-45250000D02*
X64500000Y-45250000D01*
X60400000Y-45700000D02*
X61350000Y-44750000D01*
X61350000Y-44750000D02*
X63350000Y-44750000D01*
X66750000Y-44500000D02*
X66750000Y-43200000D01*
X65000000Y-46250000D02*
X66750000Y-44500000D01*
X63350000Y-46250000D02*
X65000000Y-46250000D01*
X63350000Y-46750000D02*
X65250000Y-46750000D01*
X65250000Y-46750000D02*
X68250000Y-43750000D01*
X68250000Y-43750000D02*
X68250000Y-43200000D01*
X51325000Y-44500000D02*
X50900000Y-44500000D01*
X50750000Y-44350000D02*
X50050000Y-44350000D01*
X50900000Y-44500000D02*
X50750000Y-44350000D01*
X50050000Y-44350000D02*
X49175000Y-44350000D01*
X51325000Y-45500000D02*
X50900000Y-45500000D01*
X50900000Y-45500000D02*
X50400000Y-45000000D01*
X50400000Y-45000000D02*
X50050000Y-45000000D01*
X50050000Y-45000000D02*
X49175000Y-45000000D01*
X56750000Y-42150000D02*
X56750000Y-40870332D01*
X56750000Y-40870332D02*
X56770330Y-40850002D01*
X59750000Y-50850000D02*
X59750000Y-49601699D01*
X59750000Y-49601699D02*
X55600001Y-45451700D01*
X55600001Y-45451700D02*
X55600001Y-43384999D01*
X55600001Y-43384999D02*
X55540001Y-43324999D01*
X55540001Y-43324999D02*
X55137313Y-43324999D01*
X55137313Y-43324999D02*
X53759999Y-43324999D01*
X52675000Y-44500000D02*
X52675000Y-44150000D01*
X52675000Y-44150000D02*
X53500001Y-43324999D01*
X53500001Y-43324999D02*
X55137313Y-43324999D01*
X63350000Y-48250000D02*
X62500000Y-48250000D01*
X62500000Y-48250000D02*
X62000000Y-47750000D01*
X62000000Y-47750000D02*
X62000000Y-47250000D01*
X64352608Y-48750000D02*
X64582087Y-48979479D01*
X63350000Y-48750000D02*
X64352608Y-48750000D01*
X68250000Y-41800000D02*
X68250000Y-39659998D01*
X68250000Y-39659998D02*
X68859999Y-39049999D01*
X68859999Y-39049999D02*
X71299999Y-39049999D01*
X71299999Y-39049999D02*
X71600001Y-39350001D01*
X71600001Y-39350001D02*
X72000000Y-39750000D01*
X73250000Y-39750000D02*
X72149989Y-38649989D01*
X72149989Y-38649989D02*
X68694310Y-38649989D01*
X68694310Y-38649989D02*
X66750000Y-40594299D01*
X66750000Y-41300000D02*
X66750000Y-41800000D01*
X66750000Y-40594299D02*
X66750000Y-41300000D01*
D30*
X70350000Y-48625000D02*
X68425000Y-48625000D01*
X68425000Y-48625000D02*
X68250000Y-48450000D01*
X70000000Y-51000000D02*
X68524850Y-51000000D01*
X68524850Y-51000000D02*
X68124610Y-51400240D01*
X70350000Y-50650000D02*
X70000000Y-51000000D01*
X70350000Y-48625000D02*
X70350000Y-50650000D01*
X70275000Y-48700000D02*
X70350000Y-48625000D01*
X70350000Y-48625000D02*
X72235002Y-48625000D01*
X72235002Y-48625000D02*
X73750001Y-47110001D01*
X73750001Y-46250001D02*
X72000000Y-44500000D01*
X73750001Y-47110001D02*
X73750001Y-46250001D01*
X68124610Y-51400240D02*
X67449960Y-51400240D01*
D32*
X67449960Y-51400240D02*
X68024610Y-51400240D01*
G36*
X74600000Y-40975000D02*
X73350000Y-40975000D01*
X73275000Y-41050000D01*
X73275000Y-42300000D01*
X73295000Y-42300000D01*
X73295000Y-42350000D01*
X73275000Y-42350000D01*
X73275000Y-43600000D01*
X73350000Y-43675000D01*
X74600000Y-43675000D01*
X74600000Y-49825000D01*
X73350000Y-49825000D01*
X73275000Y-49900000D01*
X73275000Y-51150000D01*
X73295000Y-51150000D01*
X73295000Y-51200000D01*
X73275000Y-51200000D01*
X73275000Y-51220000D01*
X73225000Y-51220000D01*
X73225000Y-51200000D01*
X71525000Y-51200000D01*
X71450000Y-51275000D01*
X71450000Y-52100000D01*
X64800000Y-52100000D01*
X64800000Y-51800000D01*
X64725000Y-51725000D01*
X64025000Y-51725000D01*
X64025000Y-51745000D01*
X63975000Y-51745000D01*
X63975000Y-51725000D01*
X63275000Y-51725000D01*
X63200000Y-51800000D01*
X63200000Y-52100000D01*
X54050000Y-52100000D01*
X54050000Y-51800000D01*
X53975000Y-51725000D01*
X53275000Y-51725000D01*
X53275000Y-51745000D01*
X53225000Y-51745000D01*
X53225000Y-51725000D01*
X52525000Y-51725000D01*
X52500000Y-51750000D01*
X52475000Y-51725000D01*
X51775000Y-51725000D01*
X51775000Y-51745000D01*
X51725000Y-51745000D01*
X51725000Y-51725000D01*
X51025000Y-51725000D01*
X50950000Y-51800000D01*
X50950000Y-52100000D01*
X47862616Y-52100000D01*
X47949878Y-51889850D01*
X47950121Y-51611372D01*
X47862784Y-51400000D01*
X50950000Y-51400000D01*
X50950000Y-51600000D01*
X51025000Y-51675000D01*
X51725000Y-51675000D01*
X51725000Y-51655000D01*
X51775000Y-51655000D01*
X51775000Y-51675000D01*
X52475000Y-51675000D01*
X52500000Y-51650000D01*
X52525000Y-51675000D01*
X53225000Y-51675000D01*
X53225000Y-51655000D01*
X53275000Y-51655000D01*
X53275000Y-51675000D01*
X53975000Y-51675000D01*
X54050000Y-51600000D01*
X54050000Y-51400000D01*
X55775000Y-51400000D01*
X55819123Y-51391223D01*
X55819123Y-51500000D01*
X55840042Y-51611173D01*
X55905745Y-51713279D01*
X56005997Y-51781778D01*
X56125000Y-51805877D01*
X56375000Y-51805877D01*
X56486173Y-51784958D01*
X56498779Y-51776846D01*
X56505997Y-51781778D01*
X56625000Y-51805877D01*
X56875000Y-51805877D01*
X56986173Y-51784958D01*
X56998779Y-51776846D01*
X57005997Y-51781778D01*
X57125000Y-51805877D01*
X57375000Y-51805877D01*
X57486173Y-51784958D01*
X57498779Y-51776846D01*
X57505997Y-51781778D01*
X57625000Y-51805877D01*
X57875000Y-51805877D01*
X57986173Y-51784958D01*
X57998779Y-51776846D01*
X58005997Y-51781778D01*
X58125000Y-51805877D01*
X58375000Y-51805877D01*
X58486173Y-51784958D01*
X58498779Y-51776846D01*
X58505997Y-51781778D01*
X58625000Y-51805877D01*
X58875000Y-51805877D01*
X58986173Y-51784958D01*
X58998779Y-51776846D01*
X59005997Y-51781778D01*
X59125000Y-51805877D01*
X59375000Y-51805877D01*
X59486173Y-51784958D01*
X59498779Y-51776846D01*
X59505997Y-51781778D01*
X59625000Y-51805877D01*
X59875000Y-51805877D01*
X59986173Y-51784958D01*
X59998779Y-51776846D01*
X60005997Y-51781778D01*
X60125000Y-51805877D01*
X60375000Y-51805877D01*
X60486173Y-51784958D01*
X60498779Y-51776846D01*
X60505997Y-51781778D01*
X60625000Y-51805877D01*
X60875000Y-51805877D01*
X60986173Y-51784958D01*
X61002950Y-51774163D01*
X61065327Y-51800000D01*
X61150000Y-51800000D01*
X61225000Y-51725000D01*
X61225000Y-50875000D01*
X61205000Y-50875000D01*
X61205000Y-50825000D01*
X61225000Y-50825000D01*
X61225000Y-49975000D01*
X61150000Y-49900000D01*
X61150000Y-49612616D01*
X61360150Y-49699878D01*
X61638628Y-49700121D01*
X61759930Y-49650000D01*
X62571077Y-49650000D01*
X62580997Y-49656778D01*
X62700000Y-49680877D01*
X63364219Y-49680877D01*
X63286721Y-49730745D01*
X63218222Y-49830997D01*
X63194123Y-49950000D01*
X63194123Y-50469481D01*
X63113604Y-50550000D01*
X63039871Y-50550000D01*
X62897036Y-50406915D01*
X62639850Y-50300122D01*
X62361372Y-50299879D01*
X62180877Y-50374458D01*
X62180877Y-50200000D01*
X62159958Y-50088827D01*
X62094255Y-49986721D01*
X61994003Y-49918222D01*
X61875000Y-49894123D01*
X61625000Y-49894123D01*
X61513827Y-49915042D01*
X61497050Y-49925837D01*
X61434673Y-49900000D01*
X61350000Y-49900000D01*
X61275000Y-49975000D01*
X61275000Y-50825000D01*
X61295000Y-50825000D01*
X61295000Y-50875000D01*
X61275000Y-50875000D01*
X61275000Y-51725000D01*
X61350000Y-51800000D01*
X61434673Y-51800000D01*
X61495681Y-51774730D01*
X61505997Y-51781778D01*
X61625000Y-51805877D01*
X61875000Y-51805877D01*
X61986173Y-51784958D01*
X62088279Y-51719255D01*
X62156778Y-51619003D01*
X62157445Y-51615708D01*
X62360150Y-51699878D01*
X62638628Y-51700121D01*
X62896000Y-51593777D01*
X63040028Y-51450000D01*
X63200000Y-51450000D01*
X63200000Y-51600000D01*
X63275000Y-51675000D01*
X63975000Y-51675000D01*
X63975000Y-51125000D01*
X64025000Y-51125000D01*
X64025000Y-51675000D01*
X64725000Y-51675000D01*
X64800000Y-51600000D01*
X64800000Y-51290326D01*
X64762939Y-51200850D01*
X64869513Y-51200850D01*
X64869513Y-51599630D01*
X64890432Y-51710803D01*
X64956135Y-51812909D01*
X65056387Y-51881408D01*
X65175390Y-51905507D01*
X65924690Y-51905507D01*
X66035863Y-51884588D01*
X66137969Y-51818885D01*
X66206468Y-51718633D01*
X66230567Y-51599630D01*
X66230567Y-51200850D01*
X66209648Y-51089677D01*
X66198485Y-51072329D01*
X66224690Y-51009064D01*
X66224690Y-50850000D01*
X66149690Y-50775000D01*
X65575040Y-50775000D01*
X65575040Y-50795000D01*
X65525040Y-50795000D01*
X65525040Y-50775000D01*
X64950390Y-50775000D01*
X64875390Y-50850000D01*
X64875390Y-51009064D01*
X64901037Y-51070981D01*
X64893612Y-51081847D01*
X64869513Y-51200850D01*
X64762939Y-51200850D01*
X64754328Y-51180063D01*
X64669936Y-51095672D01*
X64559673Y-51050000D01*
X64100000Y-51050000D01*
X64025000Y-51125000D01*
X63975000Y-51125000D01*
X63900000Y-51050000D01*
X63886396Y-51050000D01*
X63980519Y-50955877D01*
X64500000Y-50955877D01*
X64611173Y-50934958D01*
X64713279Y-50869255D01*
X64781778Y-50769003D01*
X64805877Y-50650000D01*
X64805877Y-49950000D01*
X64784958Y-49838827D01*
X64719255Y-49736721D01*
X64635547Y-49679526D01*
X64720715Y-49679600D01*
X64978087Y-49573256D01*
X65050000Y-49501469D01*
X65050000Y-49624560D01*
X64962111Y-49681115D01*
X64893612Y-49781367D01*
X64869513Y-49900370D01*
X64869513Y-50299150D01*
X64890432Y-50410323D01*
X64901595Y-50427671D01*
X64875390Y-50490936D01*
X64875390Y-50650000D01*
X64950390Y-50725000D01*
X65525040Y-50725000D01*
X65525040Y-50705000D01*
X65575040Y-50705000D01*
X65575040Y-50725000D01*
X66149690Y-50725000D01*
X66224690Y-50650000D01*
X66224690Y-50490936D01*
X66199043Y-50429019D01*
X66206468Y-50418153D01*
X66230567Y-50299150D01*
X66230567Y-49900370D01*
X66209648Y-49789197D01*
X66143945Y-49687091D01*
X66043693Y-49618592D01*
X65950000Y-49599618D01*
X65950000Y-48929666D01*
X65952572Y-48928603D01*
X66082654Y-48798747D01*
X66130997Y-48831778D01*
X66250000Y-48855877D01*
X66990192Y-48855877D01*
X67049960Y-48915645D01*
X67049960Y-49599263D01*
X66964137Y-49615412D01*
X66862031Y-49681115D01*
X66793532Y-49781367D01*
X66769433Y-49900370D01*
X66769433Y-50299150D01*
X66790352Y-50410323D01*
X66801515Y-50427671D01*
X66775310Y-50490936D01*
X66775310Y-50650000D01*
X66850310Y-50725000D01*
X67424960Y-50725000D01*
X67424960Y-50705000D01*
X67474960Y-50705000D01*
X67474960Y-50725000D01*
X68049610Y-50725000D01*
X68124610Y-50650000D01*
X68124610Y-50490936D01*
X68098963Y-50429019D01*
X68106388Y-50418153D01*
X68130487Y-50299150D01*
X68130487Y-49900370D01*
X68109568Y-49789197D01*
X68043865Y-49687091D01*
X67943613Y-49618592D01*
X67849960Y-49599627D01*
X67849960Y-48900126D01*
X67850001Y-48899920D01*
X67850000Y-48899915D01*
X67850000Y-48855877D01*
X68019481Y-48855877D01*
X68106802Y-48943198D01*
X68252792Y-49040746D01*
X68425000Y-49075000D01*
X69253531Y-49075000D01*
X69265042Y-49136173D01*
X69330745Y-49238279D01*
X69430997Y-49306778D01*
X69550000Y-49330877D01*
X69900000Y-49330877D01*
X69900000Y-50463604D01*
X69813604Y-50550000D01*
X68524850Y-50550000D01*
X68352642Y-50584254D01*
X68254247Y-50650000D01*
X68206652Y-50681802D01*
X68081532Y-50806922D01*
X68049610Y-50775000D01*
X67474960Y-50775000D01*
X67474960Y-50795000D01*
X67424960Y-50795000D01*
X67424960Y-50775000D01*
X66850310Y-50775000D01*
X66775310Y-50850000D01*
X66775310Y-51009064D01*
X66800957Y-51070981D01*
X66793532Y-51081847D01*
X66769433Y-51200850D01*
X66769433Y-51599630D01*
X66790352Y-51710803D01*
X66856055Y-51812909D01*
X66956307Y-51881408D01*
X67075310Y-51905507D01*
X67824610Y-51905507D01*
X67935783Y-51884588D01*
X67989162Y-51850240D01*
X68124610Y-51850240D01*
X68296818Y-51815986D01*
X68442808Y-51718438D01*
X68711246Y-51450000D01*
X70000000Y-51450000D01*
X70172208Y-51415746D01*
X70318198Y-51318198D01*
X70668198Y-50968198D01*
X70703148Y-50915892D01*
X70765746Y-50822208D01*
X70800000Y-50650000D01*
X70800000Y-50065326D01*
X71450000Y-50065326D01*
X71450000Y-51075000D01*
X71525000Y-51150000D01*
X73225000Y-51150000D01*
X73225000Y-49900000D01*
X73150000Y-49825000D01*
X71690327Y-49825000D01*
X71580064Y-49870672D01*
X71495672Y-49955063D01*
X71450000Y-50065326D01*
X70800000Y-50065326D01*
X70800000Y-49330877D01*
X71150000Y-49330877D01*
X71261173Y-49309958D01*
X71363279Y-49244255D01*
X71431778Y-49144003D01*
X71445752Y-49075000D01*
X72235002Y-49075000D01*
X72407210Y-49040746D01*
X72553200Y-48943198D01*
X74068199Y-47428199D01*
X74093823Y-47389850D01*
X74165747Y-47282209D01*
X74200001Y-47110001D01*
X74200001Y-46250001D01*
X74165747Y-46077793D01*
X74068199Y-45931803D01*
X72798794Y-44662398D01*
X72799861Y-44659828D01*
X72800139Y-44341568D01*
X72678603Y-44047428D01*
X72453755Y-43822188D01*
X72159828Y-43700139D01*
X71841568Y-43699861D01*
X71547428Y-43821397D01*
X71322188Y-44046245D01*
X71261766Y-44191757D01*
X71150000Y-44169123D01*
X69550000Y-44169123D01*
X69438827Y-44190042D01*
X69391826Y-44220286D01*
X69343777Y-44104000D01*
X69147036Y-43906915D01*
X68905324Y-43806548D01*
X68963279Y-43769255D01*
X69031778Y-43669003D01*
X69055877Y-43550000D01*
X69055877Y-42850000D01*
X69034958Y-42738827D01*
X68969255Y-42636721D01*
X68869003Y-42568222D01*
X68750000Y-42544123D01*
X67750000Y-42544123D01*
X67638827Y-42565042D01*
X67536721Y-42630745D01*
X67499996Y-42684494D01*
X67469255Y-42636721D01*
X67369003Y-42568222D01*
X67250000Y-42544123D01*
X66250000Y-42544123D01*
X66138827Y-42565042D01*
X66082859Y-42601056D01*
X66100000Y-42559673D01*
X66100000Y-42410599D01*
X66130997Y-42431778D01*
X66250000Y-42455877D01*
X67250000Y-42455877D01*
X67361173Y-42434958D01*
X67463279Y-42369255D01*
X67500004Y-42315506D01*
X67530745Y-42363279D01*
X67630997Y-42431778D01*
X67750000Y-42455877D01*
X68750000Y-42455877D01*
X68861173Y-42434958D01*
X68876648Y-42425000D01*
X71450000Y-42425000D01*
X71450000Y-43434674D01*
X71495672Y-43544937D01*
X71580064Y-43629328D01*
X71690327Y-43675000D01*
X73150000Y-43675000D01*
X73225000Y-43600000D01*
X73225000Y-42350000D01*
X71525000Y-42350000D01*
X71450000Y-42425000D01*
X68876648Y-42425000D01*
X68963279Y-42369255D01*
X69031778Y-42269003D01*
X69055877Y-42150000D01*
X69055877Y-41450000D01*
X69034958Y-41338827D01*
X68969255Y-41236721D01*
X68937943Y-41215326D01*
X71450000Y-41215326D01*
X71450000Y-42225000D01*
X71525000Y-42300000D01*
X73225000Y-42300000D01*
X73225000Y-41050000D01*
X73150000Y-40975000D01*
X71690327Y-40975000D01*
X71580064Y-41020672D01*
X71495672Y-41105063D01*
X71450000Y-41215326D01*
X68937943Y-41215326D01*
X68869003Y-41168222D01*
X68750000Y-41144123D01*
X68650000Y-41144123D01*
X68650000Y-39825684D01*
X68794123Y-39681561D01*
X68794123Y-40150000D01*
X68815042Y-40261173D01*
X68880745Y-40363279D01*
X68980997Y-40431778D01*
X69100000Y-40455877D01*
X69900000Y-40455877D01*
X70011173Y-40434958D01*
X70113279Y-40369255D01*
X70181778Y-40269003D01*
X70191909Y-40218971D01*
X70316384Y-40218971D01*
X70350972Y-40341747D01*
X70607798Y-40449405D01*
X70886274Y-40450584D01*
X71144002Y-40345106D01*
X71149028Y-40341747D01*
X71183616Y-40218971D01*
X70750000Y-39785355D01*
X70316384Y-40218971D01*
X70191909Y-40218971D01*
X70203493Y-40161773D01*
X70281029Y-40183616D01*
X70714645Y-39750000D01*
X70700503Y-39735858D01*
X70735858Y-39700503D01*
X70750000Y-39714645D01*
X70764143Y-39700503D01*
X70799498Y-39735858D01*
X70785355Y-39750000D01*
X71218971Y-40183616D01*
X71341747Y-40149028D01*
X71374847Y-40070065D01*
X71406223Y-40146000D01*
X71602964Y-40343085D01*
X71860150Y-40449878D01*
X72138628Y-40450121D01*
X72396000Y-40343777D01*
X72593085Y-40147036D01*
X72624946Y-40070305D01*
X72656223Y-40146000D01*
X72852964Y-40343085D01*
X73110150Y-40449878D01*
X73388628Y-40450121D01*
X73646000Y-40343777D01*
X73843085Y-40147036D01*
X73949878Y-39889850D01*
X73950121Y-39611372D01*
X73843777Y-39354000D01*
X73647036Y-39156915D01*
X73389850Y-39050122D01*
X73115568Y-39049883D01*
X72432832Y-38367146D01*
X72303063Y-38280437D01*
X72149989Y-38249989D01*
X68694315Y-38249989D01*
X68694310Y-38249988D01*
X68541237Y-38280437D01*
X68411467Y-38367146D01*
X68411465Y-38367149D01*
X66467157Y-40311456D01*
X66380448Y-40441225D01*
X66374283Y-40472218D01*
X66350000Y-40594299D01*
X66350000Y-41144123D01*
X66250000Y-41144123D01*
X66138827Y-41165042D01*
X66036721Y-41230745D01*
X66003553Y-41279288D01*
X65969937Y-41245672D01*
X65859674Y-41200000D01*
X65550000Y-41200000D01*
X65475000Y-41275000D01*
X65475000Y-41975000D01*
X65495000Y-41975000D01*
X65495000Y-42025000D01*
X65475000Y-42025000D01*
X65475000Y-42725000D01*
X65550000Y-42800000D01*
X65859674Y-42800000D01*
X65962908Y-42757240D01*
X65944123Y-42850000D01*
X65944123Y-43550000D01*
X65965042Y-43661173D01*
X66030745Y-43763279D01*
X66130997Y-43831778D01*
X66250000Y-43855877D01*
X66350000Y-43855877D01*
X66350000Y-44334314D01*
X65132713Y-45551601D01*
X65199878Y-45389850D01*
X65200121Y-45111372D01*
X65093777Y-44854000D01*
X64897036Y-44656915D01*
X64639850Y-44550122D01*
X64361372Y-44549879D01*
X64296765Y-44576574D01*
X64284958Y-44513827D01*
X64274163Y-44497050D01*
X64300000Y-44434673D01*
X64300000Y-44350000D01*
X64225000Y-44275000D01*
X63375000Y-44275000D01*
X63375000Y-44295000D01*
X63325000Y-44295000D01*
X63325000Y-44275000D01*
X62475000Y-44275000D01*
X62400000Y-44350000D01*
X61350000Y-44350000D01*
X61196926Y-44380448D01*
X61067157Y-44467157D01*
X60534197Y-45000117D01*
X60261372Y-44999879D01*
X60004000Y-45106223D01*
X59806915Y-45302964D01*
X59700122Y-45560150D01*
X59699879Y-45838628D01*
X59806223Y-46096000D01*
X59973929Y-46263999D01*
X59065687Y-46263999D01*
X57292198Y-44490510D01*
X57403707Y-44490607D01*
X57661079Y-44384263D01*
X57858164Y-44187522D01*
X57964957Y-43930336D01*
X57965196Y-43656055D01*
X58032843Y-43588408D01*
X58119552Y-43458639D01*
X58150001Y-43305565D01*
X58150000Y-43305560D01*
X58150000Y-43100000D01*
X58225000Y-43025000D01*
X58225000Y-42175000D01*
X58205000Y-42175000D01*
X58205000Y-42125000D01*
X58225000Y-42125000D01*
X58225000Y-41275000D01*
X58150000Y-41200000D01*
X58065327Y-41200000D01*
X58004319Y-41225270D01*
X57994003Y-41218222D01*
X57875000Y-41194123D01*
X57625000Y-41194123D01*
X57513827Y-41215042D01*
X57501221Y-41223154D01*
X57494003Y-41218222D01*
X57384582Y-41196063D01*
X57470208Y-40989852D01*
X57470259Y-40930877D01*
X58590191Y-40930877D01*
X58850000Y-41190686D01*
X58850000Y-41194123D01*
X58625000Y-41194123D01*
X58513827Y-41215042D01*
X58497050Y-41225837D01*
X58434673Y-41200000D01*
X58350000Y-41200000D01*
X58275000Y-41275000D01*
X58275000Y-42125000D01*
X58295000Y-42125000D01*
X58295000Y-42175000D01*
X58275000Y-42175000D01*
X58275000Y-43025000D01*
X58350000Y-43100000D01*
X58350000Y-43250000D01*
X58380448Y-43403074D01*
X58467157Y-43532843D01*
X58800117Y-43865803D01*
X58799879Y-44138628D01*
X58906223Y-44396000D01*
X59102964Y-44593085D01*
X59360150Y-44699878D01*
X59638628Y-44700121D01*
X59896000Y-44593777D01*
X60093085Y-44397036D01*
X60199878Y-44139850D01*
X60200121Y-43861372D01*
X60093777Y-43604000D01*
X59897036Y-43406915D01*
X59639850Y-43300122D01*
X59365569Y-43299883D01*
X59171563Y-43105877D01*
X59375000Y-43105877D01*
X59486173Y-43084958D01*
X59498779Y-43076846D01*
X59505997Y-43081778D01*
X59625000Y-43105877D01*
X59875000Y-43105877D01*
X59986173Y-43084958D01*
X59998779Y-43076846D01*
X60005997Y-43081778D01*
X60125000Y-43105877D01*
X60375000Y-43105877D01*
X60486173Y-43084958D01*
X60498779Y-43076846D01*
X60505997Y-43081778D01*
X60625000Y-43105877D01*
X60875000Y-43105877D01*
X60986173Y-43084958D01*
X60998779Y-43076846D01*
X61005997Y-43081778D01*
X61125000Y-43105877D01*
X61375000Y-43105877D01*
X61486173Y-43084958D01*
X61498779Y-43076846D01*
X61505997Y-43081778D01*
X61625000Y-43105877D01*
X61875000Y-43105877D01*
X61986173Y-43084958D01*
X62088279Y-43019255D01*
X62156778Y-42919003D01*
X62177968Y-42814364D01*
X62685462Y-43321858D01*
X62588827Y-43340042D01*
X62486721Y-43405745D01*
X62418222Y-43505997D01*
X62394123Y-43625000D01*
X62394123Y-43875000D01*
X62415042Y-43986173D01*
X62425837Y-44002950D01*
X62400000Y-44065327D01*
X62400000Y-44150000D01*
X62475000Y-44225000D01*
X63325000Y-44225000D01*
X63325000Y-44205000D01*
X63375000Y-44205000D01*
X63375000Y-44225000D01*
X64225000Y-44225000D01*
X64300000Y-44150000D01*
X64300000Y-44065327D01*
X64274730Y-44004319D01*
X64281778Y-43994003D01*
X64305877Y-43875000D01*
X64305877Y-43625000D01*
X64284958Y-43513827D01*
X64219255Y-43411721D01*
X64119003Y-43343222D01*
X64000000Y-43319123D01*
X63793858Y-43319123D01*
X63765746Y-43177792D01*
X63668198Y-43031802D01*
X63336396Y-42700000D01*
X63419028Y-42617368D01*
X63480745Y-42713279D01*
X63580997Y-42781778D01*
X63700000Y-42805877D01*
X64400000Y-42805877D01*
X64511173Y-42784958D01*
X64613279Y-42719255D01*
X64681778Y-42619003D01*
X64705877Y-42500000D01*
X64705877Y-42100000D01*
X64800000Y-42100000D01*
X64800000Y-42559673D01*
X64845672Y-42669936D01*
X64930063Y-42754328D01*
X65040326Y-42800000D01*
X65350000Y-42800000D01*
X65425000Y-42725000D01*
X65425000Y-42025000D01*
X64875000Y-42025000D01*
X64800000Y-42100000D01*
X64705877Y-42100000D01*
X64705877Y-41725314D01*
X64800000Y-41631355D01*
X64800000Y-41900000D01*
X64875000Y-41975000D01*
X65425000Y-41975000D01*
X65425000Y-41275000D01*
X65350000Y-41200000D01*
X65049870Y-41200000D01*
X65050139Y-40891578D01*
X64928603Y-40597438D01*
X64703755Y-40372198D01*
X64409828Y-40250149D01*
X64091568Y-40249871D01*
X64087810Y-40251424D01*
X63950000Y-40113614D01*
X63950000Y-39929666D01*
X63952572Y-39928603D01*
X64177812Y-39703755D01*
X64299861Y-39409828D01*
X64300139Y-39091568D01*
X64178603Y-38797428D01*
X63953755Y-38572188D01*
X63659828Y-38450139D01*
X63341568Y-38449861D01*
X63047428Y-38571397D01*
X62822188Y-38796245D01*
X62700139Y-39090172D01*
X62700110Y-39123640D01*
X62619003Y-39068222D01*
X62500000Y-39044123D01*
X61759809Y-39044123D01*
X61665686Y-38950000D01*
X61900000Y-38950000D01*
X61975000Y-38875000D01*
X61975000Y-38325000D01*
X62025000Y-38325000D01*
X62025000Y-38875000D01*
X62100000Y-38950000D01*
X62559673Y-38950000D01*
X62669936Y-38904328D01*
X62754328Y-38819937D01*
X62800000Y-38709674D01*
X62800000Y-38400000D01*
X62725000Y-38325000D01*
X62025000Y-38325000D01*
X61975000Y-38325000D01*
X61955000Y-38325000D01*
X61955000Y-38275000D01*
X61975000Y-38275000D01*
X61975000Y-38255000D01*
X62025000Y-38255000D01*
X62025000Y-38275000D01*
X62725000Y-38275000D01*
X62800000Y-38200000D01*
X62800000Y-37900000D01*
X74600000Y-37900000D01*
X74600000Y-40975000D01*
X74600000Y-40975000D01*
G37*
X74600000Y-40975000D02*
X73350000Y-40975000D01*
X73275000Y-41050000D01*
X73275000Y-42300000D01*
X73295000Y-42300000D01*
X73295000Y-42350000D01*
X73275000Y-42350000D01*
X73275000Y-43600000D01*
X73350000Y-43675000D01*
X74600000Y-43675000D01*
X74600000Y-49825000D01*
X73350000Y-49825000D01*
X73275000Y-49900000D01*
X73275000Y-51150000D01*
X73295000Y-51150000D01*
X73295000Y-51200000D01*
X73275000Y-51200000D01*
X73275000Y-51220000D01*
X73225000Y-51220000D01*
X73225000Y-51200000D01*
X71525000Y-51200000D01*
X71450000Y-51275000D01*
X71450000Y-52100000D01*
X64800000Y-52100000D01*
X64800000Y-51800000D01*
X64725000Y-51725000D01*
X64025000Y-51725000D01*
X64025000Y-51745000D01*
X63975000Y-51745000D01*
X63975000Y-51725000D01*
X63275000Y-51725000D01*
X63200000Y-51800000D01*
X63200000Y-52100000D01*
X54050000Y-52100000D01*
X54050000Y-51800000D01*
X53975000Y-51725000D01*
X53275000Y-51725000D01*
X53275000Y-51745000D01*
X53225000Y-51745000D01*
X53225000Y-51725000D01*
X52525000Y-51725000D01*
X52500000Y-51750000D01*
X52475000Y-51725000D01*
X51775000Y-51725000D01*
X51775000Y-51745000D01*
X51725000Y-51745000D01*
X51725000Y-51725000D01*
X51025000Y-51725000D01*
X50950000Y-51800000D01*
X50950000Y-52100000D01*
X47862616Y-52100000D01*
X47949878Y-51889850D01*
X47950121Y-51611372D01*
X47862784Y-51400000D01*
X50950000Y-51400000D01*
X50950000Y-51600000D01*
X51025000Y-51675000D01*
X51725000Y-51675000D01*
X51725000Y-51655000D01*
X51775000Y-51655000D01*
X51775000Y-51675000D01*
X52475000Y-51675000D01*
X52500000Y-51650000D01*
X52525000Y-51675000D01*
X53225000Y-51675000D01*
X53225000Y-51655000D01*
X53275000Y-51655000D01*
X53275000Y-51675000D01*
X53975000Y-51675000D01*
X54050000Y-51600000D01*
X54050000Y-51400000D01*
X55775000Y-51400000D01*
X55819123Y-51391223D01*
X55819123Y-51500000D01*
X55840042Y-51611173D01*
X55905745Y-51713279D01*
X56005997Y-51781778D01*
X56125000Y-51805877D01*
X56375000Y-51805877D01*
X56486173Y-51784958D01*
X56498779Y-51776846D01*
X56505997Y-51781778D01*
X56625000Y-51805877D01*
X56875000Y-51805877D01*
X56986173Y-51784958D01*
X56998779Y-51776846D01*
X57005997Y-51781778D01*
X57125000Y-51805877D01*
X57375000Y-51805877D01*
X57486173Y-51784958D01*
X57498779Y-51776846D01*
X57505997Y-51781778D01*
X57625000Y-51805877D01*
X57875000Y-51805877D01*
X57986173Y-51784958D01*
X57998779Y-51776846D01*
X58005997Y-51781778D01*
X58125000Y-51805877D01*
X58375000Y-51805877D01*
X58486173Y-51784958D01*
X58498779Y-51776846D01*
X58505997Y-51781778D01*
X58625000Y-51805877D01*
X58875000Y-51805877D01*
X58986173Y-51784958D01*
X58998779Y-51776846D01*
X59005997Y-51781778D01*
X59125000Y-51805877D01*
X59375000Y-51805877D01*
X59486173Y-51784958D01*
X59498779Y-51776846D01*
X59505997Y-51781778D01*
X59625000Y-51805877D01*
X59875000Y-51805877D01*
X59986173Y-51784958D01*
X59998779Y-51776846D01*
X60005997Y-51781778D01*
X60125000Y-51805877D01*
X60375000Y-51805877D01*
X60486173Y-51784958D01*
X60498779Y-51776846D01*
X60505997Y-51781778D01*
X60625000Y-51805877D01*
X60875000Y-51805877D01*
X60986173Y-51784958D01*
X61002950Y-51774163D01*
X61065327Y-51800000D01*
X61150000Y-51800000D01*
X61225000Y-51725000D01*
X61225000Y-50875000D01*
X61205000Y-50875000D01*
X61205000Y-50825000D01*
X61225000Y-50825000D01*
X61225000Y-49975000D01*
X61150000Y-49900000D01*
X61150000Y-49612616D01*
X61360150Y-49699878D01*
X61638628Y-49700121D01*
X61759930Y-49650000D01*
X62571077Y-49650000D01*
X62580997Y-49656778D01*
X62700000Y-49680877D01*
X63364219Y-49680877D01*
X63286721Y-49730745D01*
X63218222Y-49830997D01*
X63194123Y-49950000D01*
X63194123Y-50469481D01*
X63113604Y-50550000D01*
X63039871Y-50550000D01*
X62897036Y-50406915D01*
X62639850Y-50300122D01*
X62361372Y-50299879D01*
X62180877Y-50374458D01*
X62180877Y-50200000D01*
X62159958Y-50088827D01*
X62094255Y-49986721D01*
X61994003Y-49918222D01*
X61875000Y-49894123D01*
X61625000Y-49894123D01*
X61513827Y-49915042D01*
X61497050Y-49925837D01*
X61434673Y-49900000D01*
X61350000Y-49900000D01*
X61275000Y-49975000D01*
X61275000Y-50825000D01*
X61295000Y-50825000D01*
X61295000Y-50875000D01*
X61275000Y-50875000D01*
X61275000Y-51725000D01*
X61350000Y-51800000D01*
X61434673Y-51800000D01*
X61495681Y-51774730D01*
X61505997Y-51781778D01*
X61625000Y-51805877D01*
X61875000Y-51805877D01*
X61986173Y-51784958D01*
X62088279Y-51719255D01*
X62156778Y-51619003D01*
X62157445Y-51615708D01*
X62360150Y-51699878D01*
X62638628Y-51700121D01*
X62896000Y-51593777D01*
X63040028Y-51450000D01*
X63200000Y-51450000D01*
X63200000Y-51600000D01*
X63275000Y-51675000D01*
X63975000Y-51675000D01*
X63975000Y-51125000D01*
X64025000Y-51125000D01*
X64025000Y-51675000D01*
X64725000Y-51675000D01*
X64800000Y-51600000D01*
X64800000Y-51290326D01*
X64762939Y-51200850D01*
X64869513Y-51200850D01*
X64869513Y-51599630D01*
X64890432Y-51710803D01*
X64956135Y-51812909D01*
X65056387Y-51881408D01*
X65175390Y-51905507D01*
X65924690Y-51905507D01*
X66035863Y-51884588D01*
X66137969Y-51818885D01*
X66206468Y-51718633D01*
X66230567Y-51599630D01*
X66230567Y-51200850D01*
X66209648Y-51089677D01*
X66198485Y-51072329D01*
X66224690Y-51009064D01*
X66224690Y-50850000D01*
X66149690Y-50775000D01*
X65575040Y-50775000D01*
X65575040Y-50795000D01*
X65525040Y-50795000D01*
X65525040Y-50775000D01*
X64950390Y-50775000D01*
X64875390Y-50850000D01*
X64875390Y-51009064D01*
X64901037Y-51070981D01*
X64893612Y-51081847D01*
X64869513Y-51200850D01*
X64762939Y-51200850D01*
X64754328Y-51180063D01*
X64669936Y-51095672D01*
X64559673Y-51050000D01*
X64100000Y-51050000D01*
X64025000Y-51125000D01*
X63975000Y-51125000D01*
X63900000Y-51050000D01*
X63886396Y-51050000D01*
X63980519Y-50955877D01*
X64500000Y-50955877D01*
X64611173Y-50934958D01*
X64713279Y-50869255D01*
X64781778Y-50769003D01*
X64805877Y-50650000D01*
X64805877Y-49950000D01*
X64784958Y-49838827D01*
X64719255Y-49736721D01*
X64635547Y-49679526D01*
X64720715Y-49679600D01*
X64978087Y-49573256D01*
X65050000Y-49501469D01*
X65050000Y-49624560D01*
X64962111Y-49681115D01*
X64893612Y-49781367D01*
X64869513Y-49900370D01*
X64869513Y-50299150D01*
X64890432Y-50410323D01*
X64901595Y-50427671D01*
X64875390Y-50490936D01*
X64875390Y-50650000D01*
X64950390Y-50725000D01*
X65525040Y-50725000D01*
X65525040Y-50705000D01*
X65575040Y-50705000D01*
X65575040Y-50725000D01*
X66149690Y-50725000D01*
X66224690Y-50650000D01*
X66224690Y-50490936D01*
X66199043Y-50429019D01*
X66206468Y-50418153D01*
X66230567Y-50299150D01*
X66230567Y-49900370D01*
X66209648Y-49789197D01*
X66143945Y-49687091D01*
X66043693Y-49618592D01*
X65950000Y-49599618D01*
X65950000Y-48929666D01*
X65952572Y-48928603D01*
X66082654Y-48798747D01*
X66130997Y-48831778D01*
X66250000Y-48855877D01*
X66990192Y-48855877D01*
X67049960Y-48915645D01*
X67049960Y-49599263D01*
X66964137Y-49615412D01*
X66862031Y-49681115D01*
X66793532Y-49781367D01*
X66769433Y-49900370D01*
X66769433Y-50299150D01*
X66790352Y-50410323D01*
X66801515Y-50427671D01*
X66775310Y-50490936D01*
X66775310Y-50650000D01*
X66850310Y-50725000D01*
X67424960Y-50725000D01*
X67424960Y-50705000D01*
X67474960Y-50705000D01*
X67474960Y-50725000D01*
X68049610Y-50725000D01*
X68124610Y-50650000D01*
X68124610Y-50490936D01*
X68098963Y-50429019D01*
X68106388Y-50418153D01*
X68130487Y-50299150D01*
X68130487Y-49900370D01*
X68109568Y-49789197D01*
X68043865Y-49687091D01*
X67943613Y-49618592D01*
X67849960Y-49599627D01*
X67849960Y-48900126D01*
X67850001Y-48899920D01*
X67850000Y-48899915D01*
X67850000Y-48855877D01*
X68019481Y-48855877D01*
X68106802Y-48943198D01*
X68252792Y-49040746D01*
X68425000Y-49075000D01*
X69253531Y-49075000D01*
X69265042Y-49136173D01*
X69330745Y-49238279D01*
X69430997Y-49306778D01*
X69550000Y-49330877D01*
X69900000Y-49330877D01*
X69900000Y-50463604D01*
X69813604Y-50550000D01*
X68524850Y-50550000D01*
X68352642Y-50584254D01*
X68254247Y-50650000D01*
X68206652Y-50681802D01*
X68081532Y-50806922D01*
X68049610Y-50775000D01*
X67474960Y-50775000D01*
X67474960Y-50795000D01*
X67424960Y-50795000D01*
X67424960Y-50775000D01*
X66850310Y-50775000D01*
X66775310Y-50850000D01*
X66775310Y-51009064D01*
X66800957Y-51070981D01*
X66793532Y-51081847D01*
X66769433Y-51200850D01*
X66769433Y-51599630D01*
X66790352Y-51710803D01*
X66856055Y-51812909D01*
X66956307Y-51881408D01*
X67075310Y-51905507D01*
X67824610Y-51905507D01*
X67935783Y-51884588D01*
X67989162Y-51850240D01*
X68124610Y-51850240D01*
X68296818Y-51815986D01*
X68442808Y-51718438D01*
X68711246Y-51450000D01*
X70000000Y-51450000D01*
X70172208Y-51415746D01*
X70318198Y-51318198D01*
X70668198Y-50968198D01*
X70703148Y-50915892D01*
X70765746Y-50822208D01*
X70800000Y-50650000D01*
X70800000Y-50065326D01*
X71450000Y-50065326D01*
X71450000Y-51075000D01*
X71525000Y-51150000D01*
X73225000Y-51150000D01*
X73225000Y-49900000D01*
X73150000Y-49825000D01*
X71690327Y-49825000D01*
X71580064Y-49870672D01*
X71495672Y-49955063D01*
X71450000Y-50065326D01*
X70800000Y-50065326D01*
X70800000Y-49330877D01*
X71150000Y-49330877D01*
X71261173Y-49309958D01*
X71363279Y-49244255D01*
X71431778Y-49144003D01*
X71445752Y-49075000D01*
X72235002Y-49075000D01*
X72407210Y-49040746D01*
X72553200Y-48943198D01*
X74068199Y-47428199D01*
X74093823Y-47389850D01*
X74165747Y-47282209D01*
X74200001Y-47110001D01*
X74200001Y-46250001D01*
X74165747Y-46077793D01*
X74068199Y-45931803D01*
X72798794Y-44662398D01*
X72799861Y-44659828D01*
X72800139Y-44341568D01*
X72678603Y-44047428D01*
X72453755Y-43822188D01*
X72159828Y-43700139D01*
X71841568Y-43699861D01*
X71547428Y-43821397D01*
X71322188Y-44046245D01*
X71261766Y-44191757D01*
X71150000Y-44169123D01*
X69550000Y-44169123D01*
X69438827Y-44190042D01*
X69391826Y-44220286D01*
X69343777Y-44104000D01*
X69147036Y-43906915D01*
X68905324Y-43806548D01*
X68963279Y-43769255D01*
X69031778Y-43669003D01*
X69055877Y-43550000D01*
X69055877Y-42850000D01*
X69034958Y-42738827D01*
X68969255Y-42636721D01*
X68869003Y-42568222D01*
X68750000Y-42544123D01*
X67750000Y-42544123D01*
X67638827Y-42565042D01*
X67536721Y-42630745D01*
X67499996Y-42684494D01*
X67469255Y-42636721D01*
X67369003Y-42568222D01*
X67250000Y-42544123D01*
X66250000Y-42544123D01*
X66138827Y-42565042D01*
X66082859Y-42601056D01*
X66100000Y-42559673D01*
X66100000Y-42410599D01*
X66130997Y-42431778D01*
X66250000Y-42455877D01*
X67250000Y-42455877D01*
X67361173Y-42434958D01*
X67463279Y-42369255D01*
X67500004Y-42315506D01*
X67530745Y-42363279D01*
X67630997Y-42431778D01*
X67750000Y-42455877D01*
X68750000Y-42455877D01*
X68861173Y-42434958D01*
X68876648Y-42425000D01*
X71450000Y-42425000D01*
X71450000Y-43434674D01*
X71495672Y-43544937D01*
X71580064Y-43629328D01*
X71690327Y-43675000D01*
X73150000Y-43675000D01*
X73225000Y-43600000D01*
X73225000Y-42350000D01*
X71525000Y-42350000D01*
X71450000Y-42425000D01*
X68876648Y-42425000D01*
X68963279Y-42369255D01*
X69031778Y-42269003D01*
X69055877Y-42150000D01*
X69055877Y-41450000D01*
X69034958Y-41338827D01*
X68969255Y-41236721D01*
X68937943Y-41215326D01*
X71450000Y-41215326D01*
X71450000Y-42225000D01*
X71525000Y-42300000D01*
X73225000Y-42300000D01*
X73225000Y-41050000D01*
X73150000Y-40975000D01*
X71690327Y-40975000D01*
X71580064Y-41020672D01*
X71495672Y-41105063D01*
X71450000Y-41215326D01*
X68937943Y-41215326D01*
X68869003Y-41168222D01*
X68750000Y-41144123D01*
X68650000Y-41144123D01*
X68650000Y-39825684D01*
X68794123Y-39681561D01*
X68794123Y-40150000D01*
X68815042Y-40261173D01*
X68880745Y-40363279D01*
X68980997Y-40431778D01*
X69100000Y-40455877D01*
X69900000Y-40455877D01*
X70011173Y-40434958D01*
X70113279Y-40369255D01*
X70181778Y-40269003D01*
X70191909Y-40218971D01*
X70316384Y-40218971D01*
X70350972Y-40341747D01*
X70607798Y-40449405D01*
X70886274Y-40450584D01*
X71144002Y-40345106D01*
X71149028Y-40341747D01*
X71183616Y-40218971D01*
X70750000Y-39785355D01*
X70316384Y-40218971D01*
X70191909Y-40218971D01*
X70203493Y-40161773D01*
X70281029Y-40183616D01*
X70714645Y-39750000D01*
X70700503Y-39735858D01*
X70735858Y-39700503D01*
X70750000Y-39714645D01*
X70764143Y-39700503D01*
X70799498Y-39735858D01*
X70785355Y-39750000D01*
X71218971Y-40183616D01*
X71341747Y-40149028D01*
X71374847Y-40070065D01*
X71406223Y-40146000D01*
X71602964Y-40343085D01*
X71860150Y-40449878D01*
X72138628Y-40450121D01*
X72396000Y-40343777D01*
X72593085Y-40147036D01*
X72624946Y-40070305D01*
X72656223Y-40146000D01*
X72852964Y-40343085D01*
X73110150Y-40449878D01*
X73388628Y-40450121D01*
X73646000Y-40343777D01*
X73843085Y-40147036D01*
X73949878Y-39889850D01*
X73950121Y-39611372D01*
X73843777Y-39354000D01*
X73647036Y-39156915D01*
X73389850Y-39050122D01*
X73115568Y-39049883D01*
X72432832Y-38367146D01*
X72303063Y-38280437D01*
X72149989Y-38249989D01*
X68694315Y-38249989D01*
X68694310Y-38249988D01*
X68541237Y-38280437D01*
X68411467Y-38367146D01*
X68411465Y-38367149D01*
X66467157Y-40311456D01*
X66380448Y-40441225D01*
X66374283Y-40472218D01*
X66350000Y-40594299D01*
X66350000Y-41144123D01*
X66250000Y-41144123D01*
X66138827Y-41165042D01*
X66036721Y-41230745D01*
X66003553Y-41279288D01*
X65969937Y-41245672D01*
X65859674Y-41200000D01*
X65550000Y-41200000D01*
X65475000Y-41275000D01*
X65475000Y-41975000D01*
X65495000Y-41975000D01*
X65495000Y-42025000D01*
X65475000Y-42025000D01*
X65475000Y-42725000D01*
X65550000Y-42800000D01*
X65859674Y-42800000D01*
X65962908Y-42757240D01*
X65944123Y-42850000D01*
X65944123Y-43550000D01*
X65965042Y-43661173D01*
X66030745Y-43763279D01*
X66130997Y-43831778D01*
X66250000Y-43855877D01*
X66350000Y-43855877D01*
X66350000Y-44334314D01*
X65132713Y-45551601D01*
X65199878Y-45389850D01*
X65200121Y-45111372D01*
X65093777Y-44854000D01*
X64897036Y-44656915D01*
X64639850Y-44550122D01*
X64361372Y-44549879D01*
X64296765Y-44576574D01*
X64284958Y-44513827D01*
X64274163Y-44497050D01*
X64300000Y-44434673D01*
X64300000Y-44350000D01*
X64225000Y-44275000D01*
X63375000Y-44275000D01*
X63375000Y-44295000D01*
X63325000Y-44295000D01*
X63325000Y-44275000D01*
X62475000Y-44275000D01*
X62400000Y-44350000D01*
X61350000Y-44350000D01*
X61196926Y-44380448D01*
X61067157Y-44467157D01*
X60534197Y-45000117D01*
X60261372Y-44999879D01*
X60004000Y-45106223D01*
X59806915Y-45302964D01*
X59700122Y-45560150D01*
X59699879Y-45838628D01*
X59806223Y-46096000D01*
X59973929Y-46263999D01*
X59065687Y-46263999D01*
X57292198Y-44490510D01*
X57403707Y-44490607D01*
X57661079Y-44384263D01*
X57858164Y-44187522D01*
X57964957Y-43930336D01*
X57965196Y-43656055D01*
X58032843Y-43588408D01*
X58119552Y-43458639D01*
X58150001Y-43305565D01*
X58150000Y-43305560D01*
X58150000Y-43100000D01*
X58225000Y-43025000D01*
X58225000Y-42175000D01*
X58205000Y-42175000D01*
X58205000Y-42125000D01*
X58225000Y-42125000D01*
X58225000Y-41275000D01*
X58150000Y-41200000D01*
X58065327Y-41200000D01*
X58004319Y-41225270D01*
X57994003Y-41218222D01*
X57875000Y-41194123D01*
X57625000Y-41194123D01*
X57513827Y-41215042D01*
X57501221Y-41223154D01*
X57494003Y-41218222D01*
X57384582Y-41196063D01*
X57470208Y-40989852D01*
X57470259Y-40930877D01*
X58590191Y-40930877D01*
X58850000Y-41190686D01*
X58850000Y-41194123D01*
X58625000Y-41194123D01*
X58513827Y-41215042D01*
X58497050Y-41225837D01*
X58434673Y-41200000D01*
X58350000Y-41200000D01*
X58275000Y-41275000D01*
X58275000Y-42125000D01*
X58295000Y-42125000D01*
X58295000Y-42175000D01*
X58275000Y-42175000D01*
X58275000Y-43025000D01*
X58350000Y-43100000D01*
X58350000Y-43250000D01*
X58380448Y-43403074D01*
X58467157Y-43532843D01*
X58800117Y-43865803D01*
X58799879Y-44138628D01*
X58906223Y-44396000D01*
X59102964Y-44593085D01*
X59360150Y-44699878D01*
X59638628Y-44700121D01*
X59896000Y-44593777D01*
X60093085Y-44397036D01*
X60199878Y-44139850D01*
X60200121Y-43861372D01*
X60093777Y-43604000D01*
X59897036Y-43406915D01*
X59639850Y-43300122D01*
X59365569Y-43299883D01*
X59171563Y-43105877D01*
X59375000Y-43105877D01*
X59486173Y-43084958D01*
X59498779Y-43076846D01*
X59505997Y-43081778D01*
X59625000Y-43105877D01*
X59875000Y-43105877D01*
X59986173Y-43084958D01*
X59998779Y-43076846D01*
X60005997Y-43081778D01*
X60125000Y-43105877D01*
X60375000Y-43105877D01*
X60486173Y-43084958D01*
X60498779Y-43076846D01*
X60505997Y-43081778D01*
X60625000Y-43105877D01*
X60875000Y-43105877D01*
X60986173Y-43084958D01*
X60998779Y-43076846D01*
X61005997Y-43081778D01*
X61125000Y-43105877D01*
X61375000Y-43105877D01*
X61486173Y-43084958D01*
X61498779Y-43076846D01*
X61505997Y-43081778D01*
X61625000Y-43105877D01*
X61875000Y-43105877D01*
X61986173Y-43084958D01*
X62088279Y-43019255D01*
X62156778Y-42919003D01*
X62177968Y-42814364D01*
X62685462Y-43321858D01*
X62588827Y-43340042D01*
X62486721Y-43405745D01*
X62418222Y-43505997D01*
X62394123Y-43625000D01*
X62394123Y-43875000D01*
X62415042Y-43986173D01*
X62425837Y-44002950D01*
X62400000Y-44065327D01*
X62400000Y-44150000D01*
X62475000Y-44225000D01*
X63325000Y-44225000D01*
X63325000Y-44205000D01*
X63375000Y-44205000D01*
X63375000Y-44225000D01*
X64225000Y-44225000D01*
X64300000Y-44150000D01*
X64300000Y-44065327D01*
X64274730Y-44004319D01*
X64281778Y-43994003D01*
X64305877Y-43875000D01*
X64305877Y-43625000D01*
X64284958Y-43513827D01*
X64219255Y-43411721D01*
X64119003Y-43343222D01*
X64000000Y-43319123D01*
X63793858Y-43319123D01*
X63765746Y-43177792D01*
X63668198Y-43031802D01*
X63336396Y-42700000D01*
X63419028Y-42617368D01*
X63480745Y-42713279D01*
X63580997Y-42781778D01*
X63700000Y-42805877D01*
X64400000Y-42805877D01*
X64511173Y-42784958D01*
X64613279Y-42719255D01*
X64681778Y-42619003D01*
X64705877Y-42500000D01*
X64705877Y-42100000D01*
X64800000Y-42100000D01*
X64800000Y-42559673D01*
X64845672Y-42669936D01*
X64930063Y-42754328D01*
X65040326Y-42800000D01*
X65350000Y-42800000D01*
X65425000Y-42725000D01*
X65425000Y-42025000D01*
X64875000Y-42025000D01*
X64800000Y-42100000D01*
X64705877Y-42100000D01*
X64705877Y-41725314D01*
X64800000Y-41631355D01*
X64800000Y-41900000D01*
X64875000Y-41975000D01*
X65425000Y-41975000D01*
X65425000Y-41275000D01*
X65350000Y-41200000D01*
X65049870Y-41200000D01*
X65050139Y-40891578D01*
X64928603Y-40597438D01*
X64703755Y-40372198D01*
X64409828Y-40250149D01*
X64091568Y-40249871D01*
X64087810Y-40251424D01*
X63950000Y-40113614D01*
X63950000Y-39929666D01*
X63952572Y-39928603D01*
X64177812Y-39703755D01*
X64299861Y-39409828D01*
X64300139Y-39091568D01*
X64178603Y-38797428D01*
X63953755Y-38572188D01*
X63659828Y-38450139D01*
X63341568Y-38449861D01*
X63047428Y-38571397D01*
X62822188Y-38796245D01*
X62700139Y-39090172D01*
X62700110Y-39123640D01*
X62619003Y-39068222D01*
X62500000Y-39044123D01*
X61759809Y-39044123D01*
X61665686Y-38950000D01*
X61900000Y-38950000D01*
X61975000Y-38875000D01*
X61975000Y-38325000D01*
X62025000Y-38325000D01*
X62025000Y-38875000D01*
X62100000Y-38950000D01*
X62559673Y-38950000D01*
X62669936Y-38904328D01*
X62754328Y-38819937D01*
X62800000Y-38709674D01*
X62800000Y-38400000D01*
X62725000Y-38325000D01*
X62025000Y-38325000D01*
X61975000Y-38325000D01*
X61955000Y-38325000D01*
X61955000Y-38275000D01*
X61975000Y-38275000D01*
X61975000Y-38255000D01*
X62025000Y-38255000D01*
X62025000Y-38275000D01*
X62725000Y-38275000D01*
X62800000Y-38200000D01*
X62800000Y-37900000D01*
X74600000Y-37900000D01*
X74600000Y-40975000D01*
G36*
X45638827Y-37915042D02*
X45536721Y-37980745D01*
X45468222Y-38080997D01*
X45444123Y-38200000D01*
X45444123Y-38900000D01*
X45465042Y-39011173D01*
X45530745Y-39113279D01*
X45630997Y-39181778D01*
X45750000Y-39205877D01*
X46750000Y-39205877D01*
X46861173Y-39184958D01*
X46963279Y-39119255D01*
X47031778Y-39019003D01*
X47035626Y-39000000D01*
X47144123Y-39000000D01*
X47144123Y-39400000D01*
X47165042Y-39511173D01*
X47230745Y-39613279D01*
X47330997Y-39681778D01*
X47350000Y-39685626D01*
X47350000Y-39700000D01*
X47384254Y-39872208D01*
X47481802Y-40018198D01*
X48054479Y-40590875D01*
X48200470Y-40688424D01*
X48239271Y-40696142D01*
X48138827Y-40715042D01*
X48036721Y-40780745D01*
X47968222Y-40880997D01*
X47944123Y-41000000D01*
X47944123Y-42600000D01*
X47965042Y-42711173D01*
X48030745Y-42813279D01*
X48130997Y-42881778D01*
X48250000Y-42905877D01*
X49650001Y-42905877D01*
X49650001Y-43063603D01*
X49519481Y-43194123D01*
X48500000Y-43194123D01*
X48388827Y-43215042D01*
X48286721Y-43280745D01*
X48218222Y-43380997D01*
X48194123Y-43500000D01*
X48194123Y-43900000D01*
X48215042Y-44011173D01*
X48223154Y-44023779D01*
X48218222Y-44030997D01*
X48194123Y-44150000D01*
X48194123Y-44550000D01*
X48215042Y-44661173D01*
X48223154Y-44673779D01*
X48218222Y-44680997D01*
X48194123Y-44800000D01*
X48194123Y-45200000D01*
X48215042Y-45311173D01*
X48225837Y-45327949D01*
X48200000Y-45390326D01*
X48200000Y-45550000D01*
X48275000Y-45625000D01*
X49150000Y-45625000D01*
X49150000Y-45605000D01*
X49200000Y-45605000D01*
X49200000Y-45625000D01*
X50075000Y-45625000D01*
X50150000Y-45550000D01*
X50150000Y-45400000D01*
X50234314Y-45400000D01*
X50617157Y-45782843D01*
X50746926Y-45869552D01*
X50900000Y-45900001D01*
X50900005Y-45900000D01*
X50934488Y-45900000D01*
X50980997Y-45931778D01*
X51100000Y-45955877D01*
X51550000Y-45955877D01*
X51661173Y-45934958D01*
X51763279Y-45869255D01*
X51831778Y-45769003D01*
X51855877Y-45650000D01*
X51855877Y-45378940D01*
X51903074Y-45369552D01*
X52032843Y-45282843D01*
X52132844Y-45182842D01*
X52150000Y-45157166D01*
X52150000Y-45209674D01*
X52165139Y-45246222D01*
X52144123Y-45350000D01*
X52144123Y-45650000D01*
X52165042Y-45761173D01*
X52230745Y-45863279D01*
X52275000Y-45893517D01*
X52275000Y-45985085D01*
X52156915Y-46102964D01*
X52050122Y-46360150D01*
X52049879Y-46638628D01*
X52136368Y-46847947D01*
X51840191Y-47144123D01*
X51250000Y-47144123D01*
X51138827Y-47165042D01*
X51036721Y-47230745D01*
X50968222Y-47330997D01*
X50944123Y-47450000D01*
X50944123Y-48150000D01*
X50965042Y-48261173D01*
X51030745Y-48363279D01*
X51130997Y-48431778D01*
X51250000Y-48455877D01*
X52250000Y-48455877D01*
X52361173Y-48434958D01*
X52463279Y-48369255D01*
X52531778Y-48269003D01*
X52555877Y-48150000D01*
X52555877Y-47559808D01*
X52934531Y-47181154D01*
X53146000Y-47093777D01*
X53343085Y-46897036D01*
X53449878Y-46639850D01*
X53450121Y-46361372D01*
X53343777Y-46104000D01*
X53147036Y-45906915D01*
X53090947Y-45883625D01*
X53113279Y-45869255D01*
X53181778Y-45769003D01*
X53205877Y-45650000D01*
X53205877Y-45350000D01*
X53185885Y-45243752D01*
X53200000Y-45209674D01*
X53200000Y-45100000D01*
X53125000Y-45025000D01*
X52700000Y-45025000D01*
X52700000Y-45044123D01*
X52650000Y-45044123D01*
X52650000Y-45025000D01*
X52630000Y-45025000D01*
X52630000Y-44975000D01*
X52650000Y-44975000D01*
X52650000Y-44955877D01*
X52700000Y-44955877D01*
X52700000Y-44975000D01*
X53125000Y-44975000D01*
X53200000Y-44900000D01*
X53200000Y-44790326D01*
X53184861Y-44753778D01*
X53205877Y-44650000D01*
X53205877Y-44350000D01*
X53184958Y-44238827D01*
X53171999Y-44218687D01*
X53665686Y-43724999D01*
X53694123Y-43724999D01*
X53694123Y-43875000D01*
X53715042Y-43986173D01*
X53723154Y-43998779D01*
X53718222Y-44005997D01*
X53694123Y-44125000D01*
X53694123Y-44375000D01*
X53715042Y-44486173D01*
X53723154Y-44498779D01*
X53718222Y-44505997D01*
X53694123Y-44625000D01*
X53694123Y-44875000D01*
X53715042Y-44986173D01*
X53723154Y-44998779D01*
X53718222Y-45005997D01*
X53694123Y-45125000D01*
X53694123Y-45375000D01*
X53715042Y-45486173D01*
X53723154Y-45498779D01*
X53718222Y-45505997D01*
X53694123Y-45625000D01*
X53694123Y-45875000D01*
X53715042Y-45986173D01*
X53723154Y-45998779D01*
X53718222Y-46005997D01*
X53694123Y-46125000D01*
X53694123Y-46375000D01*
X53715042Y-46486173D01*
X53723154Y-46498779D01*
X53718222Y-46505997D01*
X53694123Y-46625000D01*
X53694123Y-46875000D01*
X53715042Y-46986173D01*
X53723154Y-46998779D01*
X53718222Y-47005997D01*
X53694123Y-47125000D01*
X53694123Y-47375000D01*
X53715042Y-47486173D01*
X53723154Y-47498779D01*
X53718222Y-47505997D01*
X53694123Y-47625000D01*
X53694123Y-47875000D01*
X53715042Y-47986173D01*
X53723154Y-47998779D01*
X53718222Y-48005997D01*
X53694123Y-48125000D01*
X53694123Y-48375000D01*
X53715042Y-48486173D01*
X53725837Y-48502950D01*
X53700000Y-48565327D01*
X53700000Y-48650000D01*
X53775000Y-48725000D01*
X54625000Y-48725000D01*
X54625000Y-48705000D01*
X54675000Y-48705000D01*
X54675000Y-48725000D01*
X55525000Y-48725000D01*
X55600000Y-48650000D01*
X55600000Y-48565327D01*
X55574730Y-48504319D01*
X55581778Y-48494003D01*
X55605877Y-48375000D01*
X55605877Y-48125000D01*
X55584958Y-48013827D01*
X55576846Y-48001221D01*
X55581778Y-47994003D01*
X55605877Y-47875000D01*
X55605877Y-47625000D01*
X55584958Y-47513827D01*
X55576846Y-47501221D01*
X55581778Y-47494003D01*
X55605877Y-47375000D01*
X55605877Y-47125000D01*
X55584958Y-47013827D01*
X55576846Y-47001221D01*
X55581778Y-46994003D01*
X55605877Y-46875000D01*
X55605877Y-46625000D01*
X55584958Y-46513827D01*
X55576846Y-46501221D01*
X55581778Y-46494003D01*
X55605877Y-46375000D01*
X55605877Y-46125000D01*
X55584958Y-46013827D01*
X55576846Y-46001221D01*
X55579683Y-45997068D01*
X59350000Y-49767385D01*
X59350000Y-49894123D01*
X59125000Y-49894123D01*
X59013827Y-49915042D01*
X59001221Y-49923154D01*
X58994003Y-49918222D01*
X58875000Y-49894123D01*
X58625000Y-49894123D01*
X58513827Y-49915042D01*
X58501221Y-49923154D01*
X58494003Y-49918222D01*
X58375000Y-49894123D01*
X58125000Y-49894123D01*
X58013827Y-49915042D01*
X58001221Y-49923154D01*
X57994003Y-49918222D01*
X57875000Y-49894123D01*
X57625000Y-49894123D01*
X57513827Y-49915042D01*
X57501221Y-49923154D01*
X57494003Y-49918222D01*
X57375000Y-49894123D01*
X57125000Y-49894123D01*
X57013827Y-49915042D01*
X57001221Y-49923154D01*
X56994003Y-49918222D01*
X56875000Y-49894123D01*
X56625000Y-49894123D01*
X56513827Y-49915042D01*
X56501221Y-49923154D01*
X56494003Y-49918222D01*
X56375000Y-49894123D01*
X56125000Y-49894123D01*
X56013827Y-49915042D01*
X55911721Y-49980745D01*
X55843222Y-50080997D01*
X55819123Y-50200000D01*
X55819123Y-50471060D01*
X55771926Y-50480448D01*
X55642157Y-50567157D01*
X55609314Y-50600000D01*
X54055877Y-50600000D01*
X54055877Y-50097279D01*
X54166921Y-49986428D01*
X54288970Y-49692501D01*
X54288980Y-49680877D01*
X55300000Y-49680877D01*
X55411173Y-49659958D01*
X55513279Y-49594255D01*
X55581778Y-49494003D01*
X55605877Y-49375000D01*
X55605877Y-49125000D01*
X55584958Y-49013827D01*
X55574163Y-48997050D01*
X55600000Y-48934673D01*
X55600000Y-48850000D01*
X55525000Y-48775000D01*
X54675000Y-48775000D01*
X54675000Y-48795000D01*
X54625000Y-48795000D01*
X54625000Y-48775000D01*
X53775000Y-48775000D01*
X53767822Y-48782178D01*
X53648937Y-48732812D01*
X53330677Y-48732534D01*
X53036537Y-48854070D01*
X52811297Y-49078918D01*
X52689248Y-49372845D01*
X52689001Y-49655601D01*
X52638827Y-49665042D01*
X52536721Y-49730745D01*
X52499996Y-49784494D01*
X52477138Y-49748972D01*
X52531778Y-49669003D01*
X52555877Y-49550000D01*
X52555877Y-48850000D01*
X52534958Y-48738827D01*
X52469255Y-48636721D01*
X52369003Y-48568222D01*
X52250000Y-48544123D01*
X51250000Y-48544123D01*
X51138827Y-48565042D01*
X51036721Y-48630745D01*
X50968222Y-48730997D01*
X50944123Y-48850000D01*
X50944123Y-49550000D01*
X50965042Y-49661173D01*
X51022862Y-49751028D01*
X50968222Y-49830997D01*
X50944123Y-49950000D01*
X50944123Y-50600000D01*
X47565685Y-50600000D01*
X46982843Y-50017157D01*
X46853074Y-49930448D01*
X46800220Y-49919935D01*
X46784958Y-49838827D01*
X46719255Y-49736721D01*
X46619003Y-49668222D01*
X46500000Y-49644123D01*
X45500000Y-49644123D01*
X45400000Y-49662940D01*
X45400000Y-48408340D01*
X45435540Y-48587013D01*
X45598120Y-48830330D01*
X45841437Y-48992910D01*
X46128450Y-49050000D01*
X46871550Y-49050000D01*
X47158563Y-48992910D01*
X47401880Y-48830330D01*
X47564460Y-48587013D01*
X47621550Y-48300000D01*
X47564460Y-48012987D01*
X47401880Y-47769670D01*
X47158563Y-47607090D01*
X46871550Y-47550000D01*
X46128450Y-47550000D01*
X45841437Y-47607090D01*
X45598120Y-47769670D01*
X45435540Y-48012987D01*
X45400000Y-48191660D01*
X45400000Y-47410599D01*
X45430997Y-47431778D01*
X45550000Y-47455877D01*
X47450000Y-47455877D01*
X47561173Y-47434958D01*
X47615499Y-47400000D01*
X47944123Y-47400000D01*
X47944123Y-49000000D01*
X47965042Y-49111173D01*
X48030745Y-49213279D01*
X48130997Y-49281778D01*
X48250000Y-49305877D01*
X49650000Y-49305877D01*
X49761173Y-49284958D01*
X49863279Y-49219255D01*
X49931778Y-49119003D01*
X49955877Y-49000000D01*
X49955877Y-47400000D01*
X49934958Y-47288827D01*
X49869255Y-47186721D01*
X49769003Y-47118222D01*
X49650000Y-47094123D01*
X48250000Y-47094123D01*
X48138827Y-47115042D01*
X48036721Y-47180745D01*
X47968222Y-47280997D01*
X47944123Y-47400000D01*
X47615499Y-47400000D01*
X47663279Y-47369255D01*
X47731778Y-47269003D01*
X47755877Y-47150000D01*
X47755877Y-46400000D01*
X48200000Y-46400000D01*
X48200000Y-46559674D01*
X48245672Y-46669937D01*
X48330064Y-46754328D01*
X48440327Y-46800000D01*
X49075000Y-46800000D01*
X49150000Y-46725000D01*
X49150000Y-46325000D01*
X49200000Y-46325000D01*
X49200000Y-46725000D01*
X49275000Y-46800000D01*
X49909673Y-46800000D01*
X50019936Y-46754328D01*
X50104328Y-46669937D01*
X50150000Y-46559674D01*
X50150000Y-46400000D01*
X50075000Y-46325000D01*
X49200000Y-46325000D01*
X49150000Y-46325000D01*
X48275000Y-46325000D01*
X48200000Y-46400000D01*
X47755877Y-46400000D01*
X47755877Y-45750000D01*
X48200000Y-45750000D01*
X48200000Y-45909674D01*
X48227059Y-45975000D01*
X48200000Y-46040326D01*
X48200000Y-46200000D01*
X48275000Y-46275000D01*
X49150000Y-46275000D01*
X49150000Y-45675000D01*
X49200000Y-45675000D01*
X49200000Y-46275000D01*
X50075000Y-46275000D01*
X50150000Y-46200000D01*
X50150000Y-46040326D01*
X50122941Y-45975000D01*
X50150000Y-45909674D01*
X50150000Y-45750000D01*
X50075000Y-45675000D01*
X49200000Y-45675000D01*
X49150000Y-45675000D01*
X48275000Y-45675000D01*
X48200000Y-45750000D01*
X47755877Y-45750000D01*
X47755877Y-45250000D01*
X47734958Y-45138827D01*
X47669255Y-45036721D01*
X47615506Y-44999996D01*
X47663279Y-44969255D01*
X47731778Y-44869003D01*
X47755877Y-44750000D01*
X47755877Y-42850000D01*
X47734958Y-42738827D01*
X47669255Y-42636721D01*
X47569003Y-42568222D01*
X47450000Y-42544123D01*
X45550000Y-42544123D01*
X45438827Y-42565042D01*
X45400000Y-42590026D01*
X45400000Y-41808340D01*
X45435540Y-41987013D01*
X45598120Y-42230330D01*
X45841437Y-42392910D01*
X46128450Y-42450000D01*
X46871550Y-42450000D01*
X47158563Y-42392910D01*
X47401880Y-42230330D01*
X47564460Y-41987013D01*
X47621550Y-41700000D01*
X47564460Y-41412987D01*
X47401880Y-41169670D01*
X47158563Y-41007090D01*
X46871550Y-40950000D01*
X46128450Y-40950000D01*
X45841437Y-41007090D01*
X45598120Y-41169670D01*
X45435540Y-41412987D01*
X45400000Y-41591660D01*
X45400000Y-40050000D01*
X45450000Y-40050000D01*
X45450000Y-40359674D01*
X45495672Y-40469937D01*
X45580064Y-40554328D01*
X45690327Y-40600000D01*
X46150000Y-40600000D01*
X46225000Y-40525000D01*
X46225000Y-39975000D01*
X46275000Y-39975000D01*
X46275000Y-40525000D01*
X46350000Y-40600000D01*
X46809673Y-40600000D01*
X46919936Y-40554328D01*
X47004328Y-40469937D01*
X47050000Y-40359674D01*
X47050000Y-40050000D01*
X46975000Y-39975000D01*
X46275000Y-39975000D01*
X46225000Y-39975000D01*
X45525000Y-39975000D01*
X45450000Y-40050000D01*
X45400000Y-40050000D01*
X45400000Y-39540326D01*
X45450000Y-39540326D01*
X45450000Y-39850000D01*
X45525000Y-39925000D01*
X46225000Y-39925000D01*
X46225000Y-39375000D01*
X46275000Y-39375000D01*
X46275000Y-39925000D01*
X46975000Y-39925000D01*
X47050000Y-39850000D01*
X47050000Y-39540326D01*
X47004328Y-39430063D01*
X46919936Y-39345672D01*
X46809673Y-39300000D01*
X46350000Y-39300000D01*
X46275000Y-39375000D01*
X46225000Y-39375000D01*
X46150000Y-39300000D01*
X45690327Y-39300000D01*
X45580064Y-39345672D01*
X45495672Y-39430063D01*
X45450000Y-39540326D01*
X45400000Y-39540326D01*
X45400000Y-37900000D01*
X45718767Y-37900000D01*
X45638827Y-37915042D01*
X45638827Y-37915042D01*
G37*
X45638827Y-37915042D02*
X45536721Y-37980745D01*
X45468222Y-38080997D01*
X45444123Y-38200000D01*
X45444123Y-38900000D01*
X45465042Y-39011173D01*
X45530745Y-39113279D01*
X45630997Y-39181778D01*
X45750000Y-39205877D01*
X46750000Y-39205877D01*
X46861173Y-39184958D01*
X46963279Y-39119255D01*
X47031778Y-39019003D01*
X47035626Y-39000000D01*
X47144123Y-39000000D01*
X47144123Y-39400000D01*
X47165042Y-39511173D01*
X47230745Y-39613279D01*
X47330997Y-39681778D01*
X47350000Y-39685626D01*
X47350000Y-39700000D01*
X47384254Y-39872208D01*
X47481802Y-40018198D01*
X48054479Y-40590875D01*
X48200470Y-40688424D01*
X48239271Y-40696142D01*
X48138827Y-40715042D01*
X48036721Y-40780745D01*
X47968222Y-40880997D01*
X47944123Y-41000000D01*
X47944123Y-42600000D01*
X47965042Y-42711173D01*
X48030745Y-42813279D01*
X48130997Y-42881778D01*
X48250000Y-42905877D01*
X49650001Y-42905877D01*
X49650001Y-43063603D01*
X49519481Y-43194123D01*
X48500000Y-43194123D01*
X48388827Y-43215042D01*
X48286721Y-43280745D01*
X48218222Y-43380997D01*
X48194123Y-43500000D01*
X48194123Y-43900000D01*
X48215042Y-44011173D01*
X48223154Y-44023779D01*
X48218222Y-44030997D01*
X48194123Y-44150000D01*
X48194123Y-44550000D01*
X48215042Y-44661173D01*
X48223154Y-44673779D01*
X48218222Y-44680997D01*
X48194123Y-44800000D01*
X48194123Y-45200000D01*
X48215042Y-45311173D01*
X48225837Y-45327949D01*
X48200000Y-45390326D01*
X48200000Y-45550000D01*
X48275000Y-45625000D01*
X49150000Y-45625000D01*
X49150000Y-45605000D01*
X49200000Y-45605000D01*
X49200000Y-45625000D01*
X50075000Y-45625000D01*
X50150000Y-45550000D01*
X50150000Y-45400000D01*
X50234314Y-45400000D01*
X50617157Y-45782843D01*
X50746926Y-45869552D01*
X50900000Y-45900001D01*
X50900005Y-45900000D01*
X50934488Y-45900000D01*
X50980997Y-45931778D01*
X51100000Y-45955877D01*
X51550000Y-45955877D01*
X51661173Y-45934958D01*
X51763279Y-45869255D01*
X51831778Y-45769003D01*
X51855877Y-45650000D01*
X51855877Y-45378940D01*
X51903074Y-45369552D01*
X52032843Y-45282843D01*
X52132844Y-45182842D01*
X52150000Y-45157166D01*
X52150000Y-45209674D01*
X52165139Y-45246222D01*
X52144123Y-45350000D01*
X52144123Y-45650000D01*
X52165042Y-45761173D01*
X52230745Y-45863279D01*
X52275000Y-45893517D01*
X52275000Y-45985085D01*
X52156915Y-46102964D01*
X52050122Y-46360150D01*
X52049879Y-46638628D01*
X52136368Y-46847947D01*
X51840191Y-47144123D01*
X51250000Y-47144123D01*
X51138827Y-47165042D01*
X51036721Y-47230745D01*
X50968222Y-47330997D01*
X50944123Y-47450000D01*
X50944123Y-48150000D01*
X50965042Y-48261173D01*
X51030745Y-48363279D01*
X51130997Y-48431778D01*
X51250000Y-48455877D01*
X52250000Y-48455877D01*
X52361173Y-48434958D01*
X52463279Y-48369255D01*
X52531778Y-48269003D01*
X52555877Y-48150000D01*
X52555877Y-47559808D01*
X52934531Y-47181154D01*
X53146000Y-47093777D01*
X53343085Y-46897036D01*
X53449878Y-46639850D01*
X53450121Y-46361372D01*
X53343777Y-46104000D01*
X53147036Y-45906915D01*
X53090947Y-45883625D01*
X53113279Y-45869255D01*
X53181778Y-45769003D01*
X53205877Y-45650000D01*
X53205877Y-45350000D01*
X53185885Y-45243752D01*
X53200000Y-45209674D01*
X53200000Y-45100000D01*
X53125000Y-45025000D01*
X52700000Y-45025000D01*
X52700000Y-45044123D01*
X52650000Y-45044123D01*
X52650000Y-45025000D01*
X52630000Y-45025000D01*
X52630000Y-44975000D01*
X52650000Y-44975000D01*
X52650000Y-44955877D01*
X52700000Y-44955877D01*
X52700000Y-44975000D01*
X53125000Y-44975000D01*
X53200000Y-44900000D01*
X53200000Y-44790326D01*
X53184861Y-44753778D01*
X53205877Y-44650000D01*
X53205877Y-44350000D01*
X53184958Y-44238827D01*
X53171999Y-44218687D01*
X53665686Y-43724999D01*
X53694123Y-43724999D01*
X53694123Y-43875000D01*
X53715042Y-43986173D01*
X53723154Y-43998779D01*
X53718222Y-44005997D01*
X53694123Y-44125000D01*
X53694123Y-44375000D01*
X53715042Y-44486173D01*
X53723154Y-44498779D01*
X53718222Y-44505997D01*
X53694123Y-44625000D01*
X53694123Y-44875000D01*
X53715042Y-44986173D01*
X53723154Y-44998779D01*
X53718222Y-45005997D01*
X53694123Y-45125000D01*
X53694123Y-45375000D01*
X53715042Y-45486173D01*
X53723154Y-45498779D01*
X53718222Y-45505997D01*
X53694123Y-45625000D01*
X53694123Y-45875000D01*
X53715042Y-45986173D01*
X53723154Y-45998779D01*
X53718222Y-46005997D01*
X53694123Y-46125000D01*
X53694123Y-46375000D01*
X53715042Y-46486173D01*
X53723154Y-46498779D01*
X53718222Y-46505997D01*
X53694123Y-46625000D01*
X53694123Y-46875000D01*
X53715042Y-46986173D01*
X53723154Y-46998779D01*
X53718222Y-47005997D01*
X53694123Y-47125000D01*
X53694123Y-47375000D01*
X53715042Y-47486173D01*
X53723154Y-47498779D01*
X53718222Y-47505997D01*
X53694123Y-47625000D01*
X53694123Y-47875000D01*
X53715042Y-47986173D01*
X53723154Y-47998779D01*
X53718222Y-48005997D01*
X53694123Y-48125000D01*
X53694123Y-48375000D01*
X53715042Y-48486173D01*
X53725837Y-48502950D01*
X53700000Y-48565327D01*
X53700000Y-48650000D01*
X53775000Y-48725000D01*
X54625000Y-48725000D01*
X54625000Y-48705000D01*
X54675000Y-48705000D01*
X54675000Y-48725000D01*
X55525000Y-48725000D01*
X55600000Y-48650000D01*
X55600000Y-48565327D01*
X55574730Y-48504319D01*
X55581778Y-48494003D01*
X55605877Y-48375000D01*
X55605877Y-48125000D01*
X55584958Y-48013827D01*
X55576846Y-48001221D01*
X55581778Y-47994003D01*
X55605877Y-47875000D01*
X55605877Y-47625000D01*
X55584958Y-47513827D01*
X55576846Y-47501221D01*
X55581778Y-47494003D01*
X55605877Y-47375000D01*
X55605877Y-47125000D01*
X55584958Y-47013827D01*
X55576846Y-47001221D01*
X55581778Y-46994003D01*
X55605877Y-46875000D01*
X55605877Y-46625000D01*
X55584958Y-46513827D01*
X55576846Y-46501221D01*
X55581778Y-46494003D01*
X55605877Y-46375000D01*
X55605877Y-46125000D01*
X55584958Y-46013827D01*
X55576846Y-46001221D01*
X55579683Y-45997068D01*
X59350000Y-49767385D01*
X59350000Y-49894123D01*
X59125000Y-49894123D01*
X59013827Y-49915042D01*
X59001221Y-49923154D01*
X58994003Y-49918222D01*
X58875000Y-49894123D01*
X58625000Y-49894123D01*
X58513827Y-49915042D01*
X58501221Y-49923154D01*
X58494003Y-49918222D01*
X58375000Y-49894123D01*
X58125000Y-49894123D01*
X58013827Y-49915042D01*
X58001221Y-49923154D01*
X57994003Y-49918222D01*
X57875000Y-49894123D01*
X57625000Y-49894123D01*
X57513827Y-49915042D01*
X57501221Y-49923154D01*
X57494003Y-49918222D01*
X57375000Y-49894123D01*
X57125000Y-49894123D01*
X57013827Y-49915042D01*
X57001221Y-49923154D01*
X56994003Y-49918222D01*
X56875000Y-49894123D01*
X56625000Y-49894123D01*
X56513827Y-49915042D01*
X56501221Y-49923154D01*
X56494003Y-49918222D01*
X56375000Y-49894123D01*
X56125000Y-49894123D01*
X56013827Y-49915042D01*
X55911721Y-49980745D01*
X55843222Y-50080997D01*
X55819123Y-50200000D01*
X55819123Y-50471060D01*
X55771926Y-50480448D01*
X55642157Y-50567157D01*
X55609314Y-50600000D01*
X54055877Y-50600000D01*
X54055877Y-50097279D01*
X54166921Y-49986428D01*
X54288970Y-49692501D01*
X54288980Y-49680877D01*
X55300000Y-49680877D01*
X55411173Y-49659958D01*
X55513279Y-49594255D01*
X55581778Y-49494003D01*
X55605877Y-49375000D01*
X55605877Y-49125000D01*
X55584958Y-49013827D01*
X55574163Y-48997050D01*
X55600000Y-48934673D01*
X55600000Y-48850000D01*
X55525000Y-48775000D01*
X54675000Y-48775000D01*
X54675000Y-48795000D01*
X54625000Y-48795000D01*
X54625000Y-48775000D01*
X53775000Y-48775000D01*
X53767822Y-48782178D01*
X53648937Y-48732812D01*
X53330677Y-48732534D01*
X53036537Y-48854070D01*
X52811297Y-49078918D01*
X52689248Y-49372845D01*
X52689001Y-49655601D01*
X52638827Y-49665042D01*
X52536721Y-49730745D01*
X52499996Y-49784494D01*
X52477138Y-49748972D01*
X52531778Y-49669003D01*
X52555877Y-49550000D01*
X52555877Y-48850000D01*
X52534958Y-48738827D01*
X52469255Y-48636721D01*
X52369003Y-48568222D01*
X52250000Y-48544123D01*
X51250000Y-48544123D01*
X51138827Y-48565042D01*
X51036721Y-48630745D01*
X50968222Y-48730997D01*
X50944123Y-48850000D01*
X50944123Y-49550000D01*
X50965042Y-49661173D01*
X51022862Y-49751028D01*
X50968222Y-49830997D01*
X50944123Y-49950000D01*
X50944123Y-50600000D01*
X47565685Y-50600000D01*
X46982843Y-50017157D01*
X46853074Y-49930448D01*
X46800220Y-49919935D01*
X46784958Y-49838827D01*
X46719255Y-49736721D01*
X46619003Y-49668222D01*
X46500000Y-49644123D01*
X45500000Y-49644123D01*
X45400000Y-49662940D01*
X45400000Y-48408340D01*
X45435540Y-48587013D01*
X45598120Y-48830330D01*
X45841437Y-48992910D01*
X46128450Y-49050000D01*
X46871550Y-49050000D01*
X47158563Y-48992910D01*
X47401880Y-48830330D01*
X47564460Y-48587013D01*
X47621550Y-48300000D01*
X47564460Y-48012987D01*
X47401880Y-47769670D01*
X47158563Y-47607090D01*
X46871550Y-47550000D01*
X46128450Y-47550000D01*
X45841437Y-47607090D01*
X45598120Y-47769670D01*
X45435540Y-48012987D01*
X45400000Y-48191660D01*
X45400000Y-47410599D01*
X45430997Y-47431778D01*
X45550000Y-47455877D01*
X47450000Y-47455877D01*
X47561173Y-47434958D01*
X47615499Y-47400000D01*
X47944123Y-47400000D01*
X47944123Y-49000000D01*
X47965042Y-49111173D01*
X48030745Y-49213279D01*
X48130997Y-49281778D01*
X48250000Y-49305877D01*
X49650000Y-49305877D01*
X49761173Y-49284958D01*
X49863279Y-49219255D01*
X49931778Y-49119003D01*
X49955877Y-49000000D01*
X49955877Y-47400000D01*
X49934958Y-47288827D01*
X49869255Y-47186721D01*
X49769003Y-47118222D01*
X49650000Y-47094123D01*
X48250000Y-47094123D01*
X48138827Y-47115042D01*
X48036721Y-47180745D01*
X47968222Y-47280997D01*
X47944123Y-47400000D01*
X47615499Y-47400000D01*
X47663279Y-47369255D01*
X47731778Y-47269003D01*
X47755877Y-47150000D01*
X47755877Y-46400000D01*
X48200000Y-46400000D01*
X48200000Y-46559674D01*
X48245672Y-46669937D01*
X48330064Y-46754328D01*
X48440327Y-46800000D01*
X49075000Y-46800000D01*
X49150000Y-46725000D01*
X49150000Y-46325000D01*
X49200000Y-46325000D01*
X49200000Y-46725000D01*
X49275000Y-46800000D01*
X49909673Y-46800000D01*
X50019936Y-46754328D01*
X50104328Y-46669937D01*
X50150000Y-46559674D01*
X50150000Y-46400000D01*
X50075000Y-46325000D01*
X49200000Y-46325000D01*
X49150000Y-46325000D01*
X48275000Y-46325000D01*
X48200000Y-46400000D01*
X47755877Y-46400000D01*
X47755877Y-45750000D01*
X48200000Y-45750000D01*
X48200000Y-45909674D01*
X48227059Y-45975000D01*
X48200000Y-46040326D01*
X48200000Y-46200000D01*
X48275000Y-46275000D01*
X49150000Y-46275000D01*
X49150000Y-45675000D01*
X49200000Y-45675000D01*
X49200000Y-46275000D01*
X50075000Y-46275000D01*
X50150000Y-46200000D01*
X50150000Y-46040326D01*
X50122941Y-45975000D01*
X50150000Y-45909674D01*
X50150000Y-45750000D01*
X50075000Y-45675000D01*
X49200000Y-45675000D01*
X49150000Y-45675000D01*
X48275000Y-45675000D01*
X48200000Y-45750000D01*
X47755877Y-45750000D01*
X47755877Y-45250000D01*
X47734958Y-45138827D01*
X47669255Y-45036721D01*
X47615506Y-44999996D01*
X47663279Y-44969255D01*
X47731778Y-44869003D01*
X47755877Y-44750000D01*
X47755877Y-42850000D01*
X47734958Y-42738827D01*
X47669255Y-42636721D01*
X47569003Y-42568222D01*
X47450000Y-42544123D01*
X45550000Y-42544123D01*
X45438827Y-42565042D01*
X45400000Y-42590026D01*
X45400000Y-41808340D01*
X45435540Y-41987013D01*
X45598120Y-42230330D01*
X45841437Y-42392910D01*
X46128450Y-42450000D01*
X46871550Y-42450000D01*
X47158563Y-42392910D01*
X47401880Y-42230330D01*
X47564460Y-41987013D01*
X47621550Y-41700000D01*
X47564460Y-41412987D01*
X47401880Y-41169670D01*
X47158563Y-41007090D01*
X46871550Y-40950000D01*
X46128450Y-40950000D01*
X45841437Y-41007090D01*
X45598120Y-41169670D01*
X45435540Y-41412987D01*
X45400000Y-41591660D01*
X45400000Y-40050000D01*
X45450000Y-40050000D01*
X45450000Y-40359674D01*
X45495672Y-40469937D01*
X45580064Y-40554328D01*
X45690327Y-40600000D01*
X46150000Y-40600000D01*
X46225000Y-40525000D01*
X46225000Y-39975000D01*
X46275000Y-39975000D01*
X46275000Y-40525000D01*
X46350000Y-40600000D01*
X46809673Y-40600000D01*
X46919936Y-40554328D01*
X47004328Y-40469937D01*
X47050000Y-40359674D01*
X47050000Y-40050000D01*
X46975000Y-39975000D01*
X46275000Y-39975000D01*
X46225000Y-39975000D01*
X45525000Y-39975000D01*
X45450000Y-40050000D01*
X45400000Y-40050000D01*
X45400000Y-39540326D01*
X45450000Y-39540326D01*
X45450000Y-39850000D01*
X45525000Y-39925000D01*
X46225000Y-39925000D01*
X46225000Y-39375000D01*
X46275000Y-39375000D01*
X46275000Y-39925000D01*
X46975000Y-39925000D01*
X47050000Y-39850000D01*
X47050000Y-39540326D01*
X47004328Y-39430063D01*
X46919936Y-39345672D01*
X46809673Y-39300000D01*
X46350000Y-39300000D01*
X46275000Y-39375000D01*
X46225000Y-39375000D01*
X46150000Y-39300000D01*
X45690327Y-39300000D01*
X45580064Y-39345672D01*
X45495672Y-39430063D01*
X45450000Y-39540326D01*
X45400000Y-39540326D01*
X45400000Y-37900000D01*
X45718767Y-37900000D01*
X45638827Y-37915042D01*
G36*
X68049879Y-44638628D02*
X68156223Y-44896000D01*
X68352964Y-45093085D01*
X68610150Y-45199878D01*
X68888628Y-45200121D01*
X68899010Y-45195831D01*
X68971926Y-45244552D01*
X69125000Y-45275000D01*
X69244123Y-45275000D01*
X69265042Y-45386173D01*
X69330745Y-45488279D01*
X69346808Y-45499254D01*
X69336721Y-45505745D01*
X69268222Y-45605997D01*
X69244123Y-45725000D01*
X69244123Y-46525000D01*
X69265042Y-46636173D01*
X69330745Y-46738279D01*
X69349584Y-46751151D01*
X69295672Y-46805063D01*
X69250000Y-46915326D01*
X69250000Y-47275000D01*
X69325000Y-47350000D01*
X70325000Y-47350000D01*
X70325000Y-47330000D01*
X70375000Y-47330000D01*
X70375000Y-47350000D01*
X71375000Y-47350000D01*
X71450000Y-47275000D01*
X71450000Y-47189854D01*
X71602964Y-47343085D01*
X71860150Y-47449878D01*
X72138628Y-47450121D01*
X72396000Y-47343777D01*
X72500009Y-47239950D01*
X72602964Y-47343085D01*
X72799085Y-47424521D01*
X72048606Y-48175000D01*
X71446469Y-48175000D01*
X71434958Y-48113827D01*
X71369255Y-48011721D01*
X71350416Y-47998849D01*
X71404328Y-47944937D01*
X71450000Y-47834674D01*
X71450000Y-47475000D01*
X71375000Y-47400000D01*
X70375000Y-47400000D01*
X70375000Y-47420000D01*
X70325000Y-47420000D01*
X70325000Y-47400000D01*
X69325000Y-47400000D01*
X69250000Y-47475000D01*
X69250000Y-47834674D01*
X69295672Y-47944937D01*
X69348744Y-47998008D01*
X69336721Y-48005745D01*
X69268222Y-48105997D01*
X69254248Y-48175000D01*
X69055877Y-48175000D01*
X69055877Y-47850000D01*
X69034958Y-47738827D01*
X68969255Y-47636721D01*
X68869003Y-47568222D01*
X68750000Y-47544123D01*
X67750000Y-47544123D01*
X67638827Y-47565042D01*
X67536721Y-47630745D01*
X67499996Y-47684494D01*
X67469255Y-47636721D01*
X67369003Y-47568222D01*
X67250000Y-47544123D01*
X66659809Y-47544123D01*
X66565686Y-47450000D01*
X66650000Y-47450000D01*
X66725000Y-47375000D01*
X66725000Y-46825000D01*
X66775000Y-46825000D01*
X66775000Y-47375000D01*
X66850000Y-47450000D01*
X67309673Y-47450000D01*
X67419936Y-47404328D01*
X67500000Y-47324265D01*
X67580064Y-47404328D01*
X67690327Y-47450000D01*
X68150000Y-47450000D01*
X68225000Y-47375000D01*
X68225000Y-46825000D01*
X68275000Y-46825000D01*
X68275000Y-47375000D01*
X68350000Y-47450000D01*
X68809673Y-47450000D01*
X68919936Y-47404328D01*
X69004328Y-47319937D01*
X69050000Y-47209674D01*
X69050000Y-46900000D01*
X68975000Y-46825000D01*
X68275000Y-46825000D01*
X68225000Y-46825000D01*
X67525000Y-46825000D01*
X67500000Y-46850000D01*
X67475000Y-46825000D01*
X66775000Y-46825000D01*
X66725000Y-46825000D01*
X66025000Y-46825000D01*
X65962952Y-46887048D01*
X65953074Y-46880448D01*
X65800000Y-46850000D01*
X65715686Y-46850000D01*
X65950000Y-46615686D01*
X65950000Y-46700000D01*
X66025000Y-46775000D01*
X66725000Y-46775000D01*
X66725000Y-46225000D01*
X66775000Y-46225000D01*
X66775000Y-46775000D01*
X67475000Y-46775000D01*
X67500000Y-46750000D01*
X67525000Y-46775000D01*
X68225000Y-46775000D01*
X68225000Y-46225000D01*
X68275000Y-46225000D01*
X68275000Y-46775000D01*
X68975000Y-46775000D01*
X69050000Y-46700000D01*
X69050000Y-46390326D01*
X69004328Y-46280063D01*
X68919936Y-46195672D01*
X68809673Y-46150000D01*
X68350000Y-46150000D01*
X68275000Y-46225000D01*
X68225000Y-46225000D01*
X68150000Y-46150000D01*
X67690327Y-46150000D01*
X67580064Y-46195672D01*
X67500000Y-46275735D01*
X67419936Y-46195672D01*
X67309673Y-46150000D01*
X66850000Y-46150000D01*
X66775000Y-46225000D01*
X66725000Y-46225000D01*
X66650000Y-46150000D01*
X66415686Y-46150000D01*
X68049986Y-44515699D01*
X68049879Y-44638628D01*
X68049879Y-44638628D01*
G37*
X68049879Y-44638628D02*
X68156223Y-44896000D01*
X68352964Y-45093085D01*
X68610150Y-45199878D01*
X68888628Y-45200121D01*
X68899010Y-45195831D01*
X68971926Y-45244552D01*
X69125000Y-45275000D01*
X69244123Y-45275000D01*
X69265042Y-45386173D01*
X69330745Y-45488279D01*
X69346808Y-45499254D01*
X69336721Y-45505745D01*
X69268222Y-45605997D01*
X69244123Y-45725000D01*
X69244123Y-46525000D01*
X69265042Y-46636173D01*
X69330745Y-46738279D01*
X69349584Y-46751151D01*
X69295672Y-46805063D01*
X69250000Y-46915326D01*
X69250000Y-47275000D01*
X69325000Y-47350000D01*
X70325000Y-47350000D01*
X70325000Y-47330000D01*
X70375000Y-47330000D01*
X70375000Y-47350000D01*
X71375000Y-47350000D01*
X71450000Y-47275000D01*
X71450000Y-47189854D01*
X71602964Y-47343085D01*
X71860150Y-47449878D01*
X72138628Y-47450121D01*
X72396000Y-47343777D01*
X72500009Y-47239950D01*
X72602964Y-47343085D01*
X72799085Y-47424521D01*
X72048606Y-48175000D01*
X71446469Y-48175000D01*
X71434958Y-48113827D01*
X71369255Y-48011721D01*
X71350416Y-47998849D01*
X71404328Y-47944937D01*
X71450000Y-47834674D01*
X71450000Y-47475000D01*
X71375000Y-47400000D01*
X70375000Y-47400000D01*
X70375000Y-47420000D01*
X70325000Y-47420000D01*
X70325000Y-47400000D01*
X69325000Y-47400000D01*
X69250000Y-47475000D01*
X69250000Y-47834674D01*
X69295672Y-47944937D01*
X69348744Y-47998008D01*
X69336721Y-48005745D01*
X69268222Y-48105997D01*
X69254248Y-48175000D01*
X69055877Y-48175000D01*
X69055877Y-47850000D01*
X69034958Y-47738827D01*
X68969255Y-47636721D01*
X68869003Y-47568222D01*
X68750000Y-47544123D01*
X67750000Y-47544123D01*
X67638827Y-47565042D01*
X67536721Y-47630745D01*
X67499996Y-47684494D01*
X67469255Y-47636721D01*
X67369003Y-47568222D01*
X67250000Y-47544123D01*
X66659809Y-47544123D01*
X66565686Y-47450000D01*
X66650000Y-47450000D01*
X66725000Y-47375000D01*
X66725000Y-46825000D01*
X66775000Y-46825000D01*
X66775000Y-47375000D01*
X66850000Y-47450000D01*
X67309673Y-47450000D01*
X67419936Y-47404328D01*
X67500000Y-47324265D01*
X67580064Y-47404328D01*
X67690327Y-47450000D01*
X68150000Y-47450000D01*
X68225000Y-47375000D01*
X68225000Y-46825000D01*
X68275000Y-46825000D01*
X68275000Y-47375000D01*
X68350000Y-47450000D01*
X68809673Y-47450000D01*
X68919936Y-47404328D01*
X69004328Y-47319937D01*
X69050000Y-47209674D01*
X69050000Y-46900000D01*
X68975000Y-46825000D01*
X68275000Y-46825000D01*
X68225000Y-46825000D01*
X67525000Y-46825000D01*
X67500000Y-46850000D01*
X67475000Y-46825000D01*
X66775000Y-46825000D01*
X66725000Y-46825000D01*
X66025000Y-46825000D01*
X65962952Y-46887048D01*
X65953074Y-46880448D01*
X65800000Y-46850000D01*
X65715686Y-46850000D01*
X65950000Y-46615686D01*
X65950000Y-46700000D01*
X66025000Y-46775000D01*
X66725000Y-46775000D01*
X66725000Y-46225000D01*
X66775000Y-46225000D01*
X66775000Y-46775000D01*
X67475000Y-46775000D01*
X67500000Y-46750000D01*
X67525000Y-46775000D01*
X68225000Y-46775000D01*
X68225000Y-46225000D01*
X68275000Y-46225000D01*
X68275000Y-46775000D01*
X68975000Y-46775000D01*
X69050000Y-46700000D01*
X69050000Y-46390326D01*
X69004328Y-46280063D01*
X68919936Y-46195672D01*
X68809673Y-46150000D01*
X68350000Y-46150000D01*
X68275000Y-46225000D01*
X68225000Y-46225000D01*
X68150000Y-46150000D01*
X67690327Y-46150000D01*
X67580064Y-46195672D01*
X67500000Y-46275735D01*
X67419936Y-46195672D01*
X67309673Y-46150000D01*
X66850000Y-46150000D01*
X66775000Y-46225000D01*
X66725000Y-46225000D01*
X66650000Y-46150000D01*
X66415686Y-46150000D01*
X68049986Y-44515699D01*
X68049879Y-44638628D01*
G36*
X49068222Y-37980997D02*
X49044123Y-38100000D01*
X49044123Y-39400000D01*
X49065042Y-39511173D01*
X49130745Y-39613279D01*
X49230997Y-39681778D01*
X49350000Y-39705877D01*
X50050000Y-39705877D01*
X50161173Y-39684958D01*
X50263279Y-39619255D01*
X50331778Y-39519003D01*
X50355877Y-39400000D01*
X50355877Y-39201780D01*
X51308570Y-39201780D01*
X51315042Y-39236173D01*
X51380745Y-39338279D01*
X51480997Y-39406778D01*
X51600000Y-39430877D01*
X52266284Y-39430877D01*
X52200139Y-39590172D01*
X52199861Y-39908432D01*
X52321397Y-40202572D01*
X52331781Y-40212974D01*
X52268222Y-40305997D01*
X52244123Y-40425000D01*
X52244123Y-41625000D01*
X52265042Y-41736173D01*
X52330745Y-41838279D01*
X52430997Y-41906778D01*
X52550000Y-41930877D01*
X53350000Y-41930877D01*
X53461173Y-41909958D01*
X53563279Y-41844255D01*
X53631778Y-41744003D01*
X53655877Y-41625000D01*
X53655877Y-40425000D01*
X53634958Y-40313827D01*
X53608593Y-40272854D01*
X53677812Y-40203755D01*
X53700087Y-40150112D01*
X53699861Y-40408432D01*
X53821397Y-40702572D01*
X54046245Y-40927812D01*
X54340172Y-41049861D01*
X54658432Y-41050139D01*
X54952572Y-40928603D01*
X55098423Y-40783006D01*
X55077942Y-40832330D01*
X55077699Y-41110808D01*
X55184043Y-41368180D01*
X55380784Y-41565265D01*
X55637970Y-41672058D01*
X55819123Y-41672216D01*
X55819123Y-42479816D01*
X55723642Y-42416018D01*
X55570568Y-42385570D01*
X53473736Y-42385570D01*
X53473731Y-42385569D01*
X53320657Y-42416018D01*
X53190888Y-42502727D01*
X53093615Y-42600000D01*
X51839784Y-42600000D01*
X51647036Y-42406915D01*
X51389850Y-42300122D01*
X51111372Y-42299879D01*
X50854000Y-42406223D01*
X50656915Y-42602964D01*
X50550122Y-42860150D01*
X50550001Y-42998816D01*
X50550001Y-41908297D01*
X50590326Y-41925000D01*
X50950000Y-41925000D01*
X51025000Y-41850000D01*
X51025000Y-41050000D01*
X51075000Y-41050000D01*
X51075000Y-41850000D01*
X51150000Y-41925000D01*
X51509674Y-41925000D01*
X51619937Y-41879328D01*
X51704328Y-41794936D01*
X51750000Y-41684673D01*
X51750000Y-41125000D01*
X51675000Y-41050000D01*
X51075000Y-41050000D01*
X51025000Y-41050000D01*
X51005000Y-41050000D01*
X51005000Y-41000000D01*
X51025000Y-41000000D01*
X51025000Y-40200000D01*
X51075000Y-40200000D01*
X51075000Y-41000000D01*
X51675000Y-41000000D01*
X51750000Y-40925000D01*
X51750000Y-40365327D01*
X51704328Y-40255064D01*
X51619937Y-40170672D01*
X51509674Y-40125000D01*
X51150000Y-40125000D01*
X51075000Y-40200000D01*
X51025000Y-40200000D01*
X50950000Y-40125000D01*
X50590326Y-40125000D01*
X50480063Y-40170672D01*
X50395672Y-40255064D01*
X50350000Y-40365327D01*
X50350000Y-40393606D01*
X49910873Y-39954479D01*
X49904170Y-39950000D01*
X49764883Y-39856931D01*
X49592675Y-39822677D01*
X48559073Y-39822677D01*
X48358638Y-39622242D01*
X48363279Y-39619255D01*
X48431778Y-39519003D01*
X48455877Y-39400000D01*
X48455877Y-38100000D01*
X48434958Y-37988827D01*
X48377800Y-37900000D01*
X49123565Y-37900000D01*
X49068222Y-37980997D01*
X49068222Y-37980997D01*
G37*
X49068222Y-37980997D02*
X49044123Y-38100000D01*
X49044123Y-39400000D01*
X49065042Y-39511173D01*
X49130745Y-39613279D01*
X49230997Y-39681778D01*
X49350000Y-39705877D01*
X50050000Y-39705877D01*
X50161173Y-39684958D01*
X50263279Y-39619255D01*
X50331778Y-39519003D01*
X50355877Y-39400000D01*
X50355877Y-39201780D01*
X51308570Y-39201780D01*
X51315042Y-39236173D01*
X51380745Y-39338279D01*
X51480997Y-39406778D01*
X51600000Y-39430877D01*
X52266284Y-39430877D01*
X52200139Y-39590172D01*
X52199861Y-39908432D01*
X52321397Y-40202572D01*
X52331781Y-40212974D01*
X52268222Y-40305997D01*
X52244123Y-40425000D01*
X52244123Y-41625000D01*
X52265042Y-41736173D01*
X52330745Y-41838279D01*
X52430997Y-41906778D01*
X52550000Y-41930877D01*
X53350000Y-41930877D01*
X53461173Y-41909958D01*
X53563279Y-41844255D01*
X53631778Y-41744003D01*
X53655877Y-41625000D01*
X53655877Y-40425000D01*
X53634958Y-40313827D01*
X53608593Y-40272854D01*
X53677812Y-40203755D01*
X53700087Y-40150112D01*
X53699861Y-40408432D01*
X53821397Y-40702572D01*
X54046245Y-40927812D01*
X54340172Y-41049861D01*
X54658432Y-41050139D01*
X54952572Y-40928603D01*
X55098423Y-40783006D01*
X55077942Y-40832330D01*
X55077699Y-41110808D01*
X55184043Y-41368180D01*
X55380784Y-41565265D01*
X55637970Y-41672058D01*
X55819123Y-41672216D01*
X55819123Y-42479816D01*
X55723642Y-42416018D01*
X55570568Y-42385570D01*
X53473736Y-42385570D01*
X53473731Y-42385569D01*
X53320657Y-42416018D01*
X53190888Y-42502727D01*
X53093615Y-42600000D01*
X51839784Y-42600000D01*
X51647036Y-42406915D01*
X51389850Y-42300122D01*
X51111372Y-42299879D01*
X50854000Y-42406223D01*
X50656915Y-42602964D01*
X50550122Y-42860150D01*
X50550001Y-42998816D01*
X50550001Y-41908297D01*
X50590326Y-41925000D01*
X50950000Y-41925000D01*
X51025000Y-41850000D01*
X51025000Y-41050000D01*
X51075000Y-41050000D01*
X51075000Y-41850000D01*
X51150000Y-41925000D01*
X51509674Y-41925000D01*
X51619937Y-41879328D01*
X51704328Y-41794936D01*
X51750000Y-41684673D01*
X51750000Y-41125000D01*
X51675000Y-41050000D01*
X51075000Y-41050000D01*
X51025000Y-41050000D01*
X51005000Y-41050000D01*
X51005000Y-41000000D01*
X51025000Y-41000000D01*
X51025000Y-40200000D01*
X51075000Y-40200000D01*
X51075000Y-41000000D01*
X51675000Y-41000000D01*
X51750000Y-40925000D01*
X51750000Y-40365327D01*
X51704328Y-40255064D01*
X51619937Y-40170672D01*
X51509674Y-40125000D01*
X51150000Y-40125000D01*
X51075000Y-40200000D01*
X51025000Y-40200000D01*
X50950000Y-40125000D01*
X50590326Y-40125000D01*
X50480063Y-40170672D01*
X50395672Y-40255064D01*
X50350000Y-40365327D01*
X50350000Y-40393606D01*
X49910873Y-39954479D01*
X49904170Y-39950000D01*
X49764883Y-39856931D01*
X49592675Y-39822677D01*
X48559073Y-39822677D01*
X48358638Y-39622242D01*
X48363279Y-39619255D01*
X48431778Y-39519003D01*
X48455877Y-39400000D01*
X48455877Y-38100000D01*
X48434958Y-37988827D01*
X48377800Y-37900000D01*
X49123565Y-37900000D01*
X49068222Y-37980997D01*
G36*
X59344123Y-39025000D02*
X59365042Y-39136173D01*
X59430745Y-39238279D01*
X59449584Y-39251151D01*
X59395672Y-39305064D01*
X59350000Y-39415327D01*
X59350000Y-39950000D01*
X59425000Y-40025000D01*
X60325000Y-40025000D01*
X60325000Y-40005000D01*
X60375000Y-40005000D01*
X60375000Y-40025000D01*
X60395000Y-40025000D01*
X60395000Y-40075000D01*
X60375000Y-40075000D01*
X60375000Y-40095000D01*
X60325000Y-40095000D01*
X60325000Y-40075000D01*
X59425000Y-40075000D01*
X59350000Y-40150000D01*
X59350000Y-40559314D01*
X59155877Y-40365191D01*
X59155877Y-39475000D01*
X59134958Y-39363827D01*
X59069255Y-39261721D01*
X59050416Y-39248849D01*
X59104328Y-39194936D01*
X59150000Y-39084673D01*
X59150000Y-38550000D01*
X59075000Y-38475000D01*
X58175000Y-38475000D01*
X58175000Y-38495000D01*
X58125000Y-38495000D01*
X58125000Y-38475000D01*
X58105000Y-38475000D01*
X58105000Y-38425000D01*
X58125000Y-38425000D01*
X58125000Y-38405000D01*
X58175000Y-38405000D01*
X58175000Y-38425000D01*
X59075000Y-38425000D01*
X59150000Y-38350000D01*
X59150000Y-37900000D01*
X59344123Y-37900000D01*
X59344123Y-39025000D01*
X59344123Y-39025000D01*
G37*
X59344123Y-39025000D02*
X59365042Y-39136173D01*
X59430745Y-39238279D01*
X59449584Y-39251151D01*
X59395672Y-39305064D01*
X59350000Y-39415327D01*
X59350000Y-39950000D01*
X59425000Y-40025000D01*
X60325000Y-40025000D01*
X60325000Y-40005000D01*
X60375000Y-40005000D01*
X60375000Y-40025000D01*
X60395000Y-40025000D01*
X60395000Y-40075000D01*
X60375000Y-40075000D01*
X60375000Y-40095000D01*
X60325000Y-40095000D01*
X60325000Y-40075000D01*
X59425000Y-40075000D01*
X59350000Y-40150000D01*
X59350000Y-40559314D01*
X59155877Y-40365191D01*
X59155877Y-39475000D01*
X59134958Y-39363827D01*
X59069255Y-39261721D01*
X59050416Y-39248849D01*
X59104328Y-39194936D01*
X59150000Y-39084673D01*
X59150000Y-38550000D01*
X59075000Y-38475000D01*
X58175000Y-38475000D01*
X58175000Y-38495000D01*
X58125000Y-38495000D01*
X58125000Y-38475000D01*
X58105000Y-38475000D01*
X58105000Y-38425000D01*
X58125000Y-38425000D01*
X58125000Y-38405000D01*
X58175000Y-38405000D01*
X58175000Y-38425000D01*
X59075000Y-38425000D01*
X59150000Y-38350000D01*
X59150000Y-37900000D01*
X59344123Y-37900000D01*
X59344123Y-39025000D01*
G36*
X54200000Y-38200000D02*
X54275000Y-38275000D01*
X54975000Y-38275000D01*
X54975000Y-38255000D01*
X55025000Y-38255000D01*
X55025000Y-38275000D01*
X55725000Y-38275000D01*
X55750000Y-38250000D01*
X55775000Y-38275000D01*
X56475000Y-38275000D01*
X56475000Y-38255000D01*
X56525000Y-38255000D01*
X56525000Y-38275000D01*
X56545000Y-38275000D01*
X56545000Y-38325000D01*
X56525000Y-38325000D01*
X56525000Y-38875000D01*
X56600000Y-38950000D01*
X57059673Y-38950000D01*
X57150000Y-38912586D01*
X57150000Y-39084673D01*
X57152732Y-39091268D01*
X57119003Y-39068222D01*
X57000000Y-39044123D01*
X56000000Y-39044123D01*
X55888827Y-39065042D01*
X55786721Y-39130745D01*
X55749996Y-39184494D01*
X55719255Y-39136721D01*
X55619003Y-39068222D01*
X55500000Y-39044123D01*
X54500000Y-39044123D01*
X54388827Y-39065042D01*
X54286721Y-39130745D01*
X54275525Y-39147131D01*
X53561976Y-38433582D01*
X53511718Y-38400000D01*
X54200000Y-38400000D01*
X54200000Y-38709674D01*
X54245672Y-38819937D01*
X54330064Y-38904328D01*
X54440327Y-38950000D01*
X54900000Y-38950000D01*
X54975000Y-38875000D01*
X54975000Y-38325000D01*
X55025000Y-38325000D01*
X55025000Y-38875000D01*
X55100000Y-38950000D01*
X55559673Y-38950000D01*
X55669936Y-38904328D01*
X55750000Y-38824265D01*
X55830064Y-38904328D01*
X55940327Y-38950000D01*
X56400000Y-38950000D01*
X56475000Y-38875000D01*
X56475000Y-38325000D01*
X55775000Y-38325000D01*
X55750000Y-38350000D01*
X55725000Y-38325000D01*
X55025000Y-38325000D01*
X54975000Y-38325000D01*
X54275000Y-38325000D01*
X54200000Y-38400000D01*
X53511718Y-38400000D01*
X53478482Y-38377793D01*
X53415986Y-38336034D01*
X53243778Y-38301780D01*
X52705877Y-38301780D01*
X52705877Y-37900000D01*
X54200000Y-37900000D01*
X54200000Y-38200000D01*
X54200000Y-38200000D01*
G37*
X54200000Y-38200000D02*
X54275000Y-38275000D01*
X54975000Y-38275000D01*
X54975000Y-38255000D01*
X55025000Y-38255000D01*
X55025000Y-38275000D01*
X55725000Y-38275000D01*
X55750000Y-38250000D01*
X55775000Y-38275000D01*
X56475000Y-38275000D01*
X56475000Y-38255000D01*
X56525000Y-38255000D01*
X56525000Y-38275000D01*
X56545000Y-38275000D01*
X56545000Y-38325000D01*
X56525000Y-38325000D01*
X56525000Y-38875000D01*
X56600000Y-38950000D01*
X57059673Y-38950000D01*
X57150000Y-38912586D01*
X57150000Y-39084673D01*
X57152732Y-39091268D01*
X57119003Y-39068222D01*
X57000000Y-39044123D01*
X56000000Y-39044123D01*
X55888827Y-39065042D01*
X55786721Y-39130745D01*
X55749996Y-39184494D01*
X55719255Y-39136721D01*
X55619003Y-39068222D01*
X55500000Y-39044123D01*
X54500000Y-39044123D01*
X54388827Y-39065042D01*
X54286721Y-39130745D01*
X54275525Y-39147131D01*
X53561976Y-38433582D01*
X53511718Y-38400000D01*
X54200000Y-38400000D01*
X54200000Y-38709674D01*
X54245672Y-38819937D01*
X54330064Y-38904328D01*
X54440327Y-38950000D01*
X54900000Y-38950000D01*
X54975000Y-38875000D01*
X54975000Y-38325000D01*
X55025000Y-38325000D01*
X55025000Y-38875000D01*
X55100000Y-38950000D01*
X55559673Y-38950000D01*
X55669936Y-38904328D01*
X55750000Y-38824265D01*
X55830064Y-38904328D01*
X55940327Y-38950000D01*
X56400000Y-38950000D01*
X56475000Y-38875000D01*
X56475000Y-38325000D01*
X55775000Y-38325000D01*
X55750000Y-38350000D01*
X55725000Y-38325000D01*
X55025000Y-38325000D01*
X54975000Y-38325000D01*
X54275000Y-38325000D01*
X54200000Y-38400000D01*
X53511718Y-38400000D01*
X53478482Y-38377793D01*
X53415986Y-38336034D01*
X53243778Y-38301780D01*
X52705877Y-38301780D01*
X52705877Y-37900000D01*
X54200000Y-37900000D01*
X54200000Y-38200000D01*
M02*
