G04 #@! TF.FileFunction,Legend,Bot*
%FSLAX46Y46*%
G04 Gerber Fmt 4.6, Leading zero omitted, Abs format (unit mm)*
G04 Created by KiCad (PCBNEW (2015-10-14 BZR 6267)-product) date 2015 October 25, Sunday 21:22:18*
%MOMM*%
G01*
G04 APERTURE LIST*
%ADD10C,0.100000*%
%ADD11C,0.200000*%
%ADD12C,0.150000*%
%ADD13C,0.175000*%
%ADD14C,0.250000*%
%ADD15C,0.010000*%
G04 APERTURE END LIST*
D10*
D11*
X69630952Y-43821429D02*
X68869047Y-43821429D01*
X69249999Y-44202381D02*
X69249999Y-43440476D01*
D12*
X46300000Y-51150000D02*
X45700000Y-51150000D01*
X46000000Y-50850000D02*
X46300000Y-51150000D01*
X45700000Y-51150000D02*
X46000000Y-50850000D01*
X67600000Y-51800000D02*
X67600000Y-51200000D01*
X67950000Y-51500000D02*
X67600000Y-51800000D01*
X67600000Y-51200000D02*
X67950000Y-51500000D01*
X67600000Y-50300000D02*
X67950000Y-50000000D01*
X67600000Y-49700000D02*
X67600000Y-50300000D01*
X67950000Y-50000000D02*
X67600000Y-49700000D01*
D11*
X69735715Y-51214286D02*
X69697620Y-51176190D01*
X69583334Y-51138095D01*
X69507144Y-51138095D01*
X69392858Y-51176190D01*
X69316667Y-51252381D01*
X69278572Y-51328571D01*
X69240477Y-51480952D01*
X69240477Y-51595238D01*
X69278572Y-51747619D01*
X69316667Y-51823810D01*
X69392858Y-51900000D01*
X69507144Y-51938095D01*
X69583334Y-51938095D01*
X69697620Y-51900000D01*
X69735715Y-51861905D01*
X70040477Y-51366667D02*
X70421429Y-51366667D01*
X69964286Y-51138095D02*
X70230953Y-51938095D01*
X70497620Y-51138095D01*
X70764286Y-51138095D02*
X70764286Y-51938095D01*
X71221429Y-51138095D01*
X71221429Y-51938095D01*
X69183333Y-49638095D02*
X69183333Y-50438095D01*
X69488095Y-50438095D01*
X69564286Y-50400000D01*
X69602381Y-50361905D01*
X69640476Y-50285714D01*
X69640476Y-50171429D01*
X69602381Y-50095238D01*
X69564286Y-50057143D01*
X69488095Y-50019048D01*
X69183333Y-50019048D01*
X69907143Y-50438095D02*
X70097619Y-49638095D01*
X70250000Y-50209524D01*
X70402381Y-49638095D01*
X70592857Y-50438095D01*
X71354762Y-49638095D02*
X71088095Y-50019048D01*
X70897619Y-49638095D02*
X70897619Y-50438095D01*
X71202381Y-50438095D01*
X71278572Y-50400000D01*
X71316667Y-50361905D01*
X71354762Y-50285714D01*
X71354762Y-50171429D01*
X71316667Y-50095238D01*
X71278572Y-50057143D01*
X71202381Y-50019048D01*
X70897619Y-50019048D01*
D12*
X46397619Y-38464286D02*
X46359524Y-38426190D01*
X46245238Y-38388095D01*
X46169048Y-38388095D01*
X46054762Y-38426190D01*
X45978571Y-38502381D01*
X45940476Y-38578571D01*
X45902381Y-38730952D01*
X45902381Y-38845238D01*
X45940476Y-38997619D01*
X45978571Y-39073810D01*
X46054762Y-39150000D01*
X46169048Y-39188095D01*
X46245238Y-39188095D01*
X46359524Y-39150000D01*
X46397619Y-39111905D01*
X46702381Y-38616667D02*
X47083333Y-38616667D01*
X46626190Y-38388095D02*
X46892857Y-39188095D01*
X47159524Y-38388095D01*
X47426190Y-38388095D02*
X47426190Y-39188095D01*
X47883333Y-38388095D01*
X47883333Y-39188095D01*
X48759523Y-38921429D02*
X49064285Y-38921429D01*
X48873809Y-39188095D02*
X48873809Y-38502381D01*
X48911904Y-38426190D01*
X48988095Y-38388095D01*
X49064285Y-38388095D01*
X49445238Y-38388095D02*
X49369047Y-38426190D01*
X49330952Y-38464286D01*
X49292857Y-38540476D01*
X49292857Y-38769048D01*
X49330952Y-38845238D01*
X49369047Y-38883333D01*
X49445238Y-38921429D01*
X49559524Y-38921429D01*
X49635714Y-38883333D01*
X49673809Y-38845238D01*
X49711905Y-38769048D01*
X49711905Y-38540476D01*
X49673809Y-38464286D01*
X49635714Y-38426190D01*
X49559524Y-38388095D01*
X49445238Y-38388095D01*
X50664286Y-39188095D02*
X50664286Y-38540476D01*
X50702381Y-38464286D01*
X50740477Y-38426190D01*
X50816667Y-38388095D01*
X50969048Y-38388095D01*
X51045239Y-38426190D01*
X51083334Y-38464286D01*
X51121429Y-38540476D01*
X51121429Y-39188095D01*
X51464286Y-38426190D02*
X51578572Y-38388095D01*
X51769048Y-38388095D01*
X51845238Y-38426190D01*
X51883334Y-38464286D01*
X51921429Y-38540476D01*
X51921429Y-38616667D01*
X51883334Y-38692857D01*
X51845238Y-38730952D01*
X51769048Y-38769048D01*
X51616667Y-38807143D01*
X51540476Y-38845238D01*
X51502381Y-38883333D01*
X51464286Y-38959524D01*
X51464286Y-39035714D01*
X51502381Y-39111905D01*
X51540476Y-39150000D01*
X51616667Y-39188095D01*
X51807143Y-39188095D01*
X51921429Y-39150000D01*
X52530953Y-38807143D02*
X52645239Y-38769048D01*
X52683334Y-38730952D01*
X52721429Y-38654762D01*
X52721429Y-38540476D01*
X52683334Y-38464286D01*
X52645239Y-38426190D01*
X52569048Y-38388095D01*
X52264286Y-38388095D01*
X52264286Y-39188095D01*
X52530953Y-39188095D01*
X52607143Y-39150000D01*
X52645239Y-39111905D01*
X52683334Y-39035714D01*
X52683334Y-38959524D01*
X52645239Y-38883333D01*
X52607143Y-38845238D01*
X52530953Y-38807143D01*
X52264286Y-38807143D01*
X60226193Y-38388095D02*
X59959526Y-38769048D01*
X59769050Y-38388095D02*
X59769050Y-39188095D01*
X60073812Y-39188095D01*
X60150003Y-39150000D01*
X60188098Y-39111905D01*
X60226193Y-39035714D01*
X60226193Y-38921429D01*
X60188098Y-38845238D01*
X60150003Y-38807143D01*
X60073812Y-38769048D01*
X59769050Y-38769048D01*
X60873812Y-38426190D02*
X60797622Y-38388095D01*
X60645241Y-38388095D01*
X60569050Y-38426190D01*
X60530955Y-38502381D01*
X60530955Y-38807143D01*
X60569050Y-38883333D01*
X60645241Y-38921429D01*
X60797622Y-38921429D01*
X60873812Y-38883333D01*
X60911907Y-38807143D01*
X60911907Y-38730952D01*
X60530955Y-38654762D01*
X61178574Y-38921429D02*
X61369050Y-38388095D01*
X61559526Y-38921429D01*
X61826193Y-38616667D02*
X62207145Y-38616667D01*
X61750002Y-38388095D02*
X62016669Y-39188095D01*
X62283336Y-38388095D01*
D11*
X56130952Y-51821429D02*
X55369047Y-51821429D01*
X55749999Y-52202381D02*
X55749999Y-51440476D01*
D13*
X68466667Y-38450000D02*
X69000000Y-38450000D01*
X68733333Y-38183333D02*
X68733333Y-38716667D01*
X69866667Y-38450000D02*
X70400000Y-38450000D01*
X71166667Y-38883333D02*
X71566667Y-38883333D01*
X71366667Y-38183333D02*
X71366667Y-38883333D01*
X71733333Y-38883333D02*
X72200000Y-38183333D01*
X72200000Y-38883333D02*
X71733333Y-38183333D01*
X73400000Y-38183333D02*
X73166666Y-38516667D01*
X73000000Y-38183333D02*
X73000000Y-38883333D01*
X73266666Y-38883333D01*
X73333333Y-38850000D01*
X73366666Y-38816667D01*
X73400000Y-38750000D01*
X73400000Y-38650000D01*
X73366666Y-38583333D01*
X73333333Y-38550000D01*
X73266666Y-38516667D01*
X73000000Y-38516667D01*
X73633333Y-38883333D02*
X74100000Y-38183333D01*
X74100000Y-38883333D02*
X73633333Y-38183333D01*
D14*
X71750000Y-44875000D02*
X71740000Y-44875000D01*
D12*
X57900000Y-48750000D02*
X58100000Y-48750000D01*
X57900000Y-47750000D02*
X58100000Y-47750000D01*
X54000000Y-43400000D02*
X54000000Y-43600000D01*
X55000000Y-43400000D02*
X55000000Y-43600000D01*
X59000000Y-42600000D02*
X59000000Y-42400000D01*
X58000000Y-42600000D02*
X58000000Y-42400000D01*
X67850000Y-48000000D02*
X67650000Y-48000000D01*
X67850000Y-49000000D02*
X67650000Y-49000000D01*
X52150000Y-41250000D02*
X52350000Y-41250000D01*
X52150000Y-40250000D02*
X52350000Y-40250000D01*
X46500000Y-51100000D02*
X46500000Y-50900000D01*
X45500000Y-51100000D02*
X45500000Y-50900000D01*
X67650000Y-52000000D02*
X67850000Y-52000000D01*
X67650000Y-51000000D02*
X67850000Y-51000000D01*
X67650000Y-50500000D02*
X67850000Y-50500000D01*
X67650000Y-49500000D02*
X67850000Y-49500000D01*
X59900000Y-47500000D02*
X60100000Y-47500000D01*
X59900000Y-46500000D02*
X60100000Y-46500000D01*
X49350000Y-40250000D02*
X49150000Y-40250000D01*
X49350000Y-41250000D02*
X49150000Y-41250000D01*
X60150000Y-40750000D02*
X60350000Y-40750000D01*
X60150000Y-39750000D02*
X60350000Y-39750000D01*
X55250000Y-39150000D02*
X55250000Y-39350000D01*
X56250000Y-39150000D02*
X56250000Y-39350000D01*
X65100000Y-51000000D02*
X64900000Y-51000000D01*
X65100000Y-52000000D02*
X64900000Y-52000000D01*
X65100000Y-49500000D02*
X64900000Y-49500000D01*
X65100000Y-50500000D02*
X64900000Y-50500000D01*
X50500000Y-43800000D02*
X50500000Y-46200000D01*
X47500000Y-43800000D02*
X47500000Y-46200000D01*
X62175000Y-46325000D02*
X62175000Y-46180000D01*
X66325000Y-46325000D02*
X66325000Y-46180000D01*
X66325000Y-41175000D02*
X66325000Y-41320000D01*
X62175000Y-41175000D02*
X62175000Y-41320000D01*
X62175000Y-46325000D02*
X66325000Y-46325000D01*
X62175000Y-41175000D02*
X66325000Y-41175000D01*
X62175000Y-46180000D02*
X60775000Y-46180000D01*
X55500000Y-43400000D02*
X55500000Y-43600000D01*
X56500000Y-43400000D02*
X56500000Y-43600000D01*
D15*
G36*
X47311616Y-50898565D02*
X47321924Y-50892793D01*
X47338186Y-50883564D01*
X47359713Y-50871272D01*
X47385820Y-50856310D01*
X47415820Y-50839072D01*
X47449025Y-50819950D01*
X47484749Y-50799337D01*
X47496933Y-50792298D01*
X47539896Y-50767476D01*
X47585951Y-50740875D01*
X47633518Y-50713407D01*
X47681020Y-50685983D01*
X47726878Y-50659514D01*
X47769513Y-50634912D01*
X47807347Y-50613089D01*
X47827133Y-50601680D01*
X47858637Y-50583508D01*
X47887772Y-50566686D01*
X47913739Y-50551675D01*
X47935738Y-50538939D01*
X47952972Y-50528939D01*
X47964640Y-50522139D01*
X47969944Y-50519001D01*
X47970176Y-50518849D01*
X47969566Y-50514613D01*
X47966966Y-50503970D01*
X47962816Y-50488624D01*
X47958597Y-50473846D01*
X47949051Y-50438667D01*
X47941825Y-50405786D01*
X47936581Y-50372834D01*
X47932980Y-50337444D01*
X47930682Y-50297247D01*
X47929877Y-50273188D01*
X47929688Y-50213401D01*
X47932800Y-50159037D01*
X47939552Y-50107585D01*
X47950281Y-50056536D01*
X47965327Y-50003380D01*
X47966997Y-49998117D01*
X47995564Y-49922389D01*
X48031399Y-49850252D01*
X48073990Y-49782180D01*
X48122821Y-49718648D01*
X48177380Y-49660129D01*
X48237153Y-49607098D01*
X48301625Y-49560030D01*
X48370285Y-49519397D01*
X48442617Y-49485674D01*
X48518109Y-49459336D01*
X48563414Y-49447568D01*
X48593367Y-49440755D01*
X48593367Y-48675200D01*
X48302325Y-48675537D01*
X48242475Y-48675639D01*
X48190518Y-48675803D01*
X48145878Y-48676041D01*
X48107983Y-48676364D01*
X48076257Y-48676784D01*
X48050128Y-48677311D01*
X48029020Y-48677956D01*
X48012359Y-48678731D01*
X47999572Y-48679648D01*
X47990083Y-48680717D01*
X47984245Y-48681739D01*
X47928297Y-48697843D01*
X47877227Y-48720765D01*
X47831219Y-48750384D01*
X47790454Y-48786580D01*
X47755116Y-48829233D01*
X47749989Y-48836632D01*
X47745336Y-48844064D01*
X47736777Y-48858320D01*
X47724589Y-48878924D01*
X47709044Y-48905400D01*
X47690417Y-48937272D01*
X47668982Y-48974063D01*
X47645014Y-49015299D01*
X47618785Y-49060502D01*
X47590571Y-49109196D01*
X47560645Y-49160907D01*
X47529282Y-49215157D01*
X47496756Y-49271471D01*
X47463341Y-49329372D01*
X47429311Y-49388385D01*
X47394940Y-49448033D01*
X47360502Y-49507841D01*
X47326272Y-49567332D01*
X47292523Y-49626031D01*
X47259531Y-49683461D01*
X47227568Y-49739146D01*
X47196908Y-49792611D01*
X47167827Y-49843379D01*
X47140599Y-49890974D01*
X47115496Y-49934920D01*
X47092794Y-49974742D01*
X47072767Y-50009962D01*
X47055689Y-50040106D01*
X47041833Y-50064696D01*
X47031474Y-50083258D01*
X47024887Y-50095314D01*
X47022625Y-50099717D01*
X47009463Y-50130880D01*
X47000319Y-50160020D01*
X46994650Y-50189830D01*
X46991913Y-50223002D01*
X46991474Y-50254234D01*
X46991901Y-50279743D01*
X46992961Y-50299356D01*
X46994969Y-50315636D01*
X46998245Y-50331148D01*
X47003104Y-50348457D01*
X47003154Y-50348623D01*
X47010014Y-50369267D01*
X47018070Y-50390485D01*
X47025808Y-50408342D01*
X47027357Y-50411507D01*
X47030816Y-50417870D01*
X47037951Y-50430602D01*
X47048335Y-50448959D01*
X47061539Y-50472195D01*
X47077137Y-50499567D01*
X47094701Y-50530327D01*
X47113802Y-50563732D01*
X47134015Y-50599036D01*
X47154910Y-50635493D01*
X47176061Y-50672360D01*
X47197039Y-50708890D01*
X47217418Y-50744338D01*
X47236769Y-50777960D01*
X47254665Y-50809010D01*
X47270679Y-50836743D01*
X47284383Y-50860414D01*
X47295349Y-50879278D01*
X47303149Y-50892589D01*
X47307357Y-50899602D01*
X47307948Y-50900488D01*
X47311616Y-50898565D01*
X47311616Y-50898565D01*
G37*
X47311616Y-50898565D02*
X47321924Y-50892793D01*
X47338186Y-50883564D01*
X47359713Y-50871272D01*
X47385820Y-50856310D01*
X47415820Y-50839072D01*
X47449025Y-50819950D01*
X47484749Y-50799337D01*
X47496933Y-50792298D01*
X47539896Y-50767476D01*
X47585951Y-50740875D01*
X47633518Y-50713407D01*
X47681020Y-50685983D01*
X47726878Y-50659514D01*
X47769513Y-50634912D01*
X47807347Y-50613089D01*
X47827133Y-50601680D01*
X47858637Y-50583508D01*
X47887772Y-50566686D01*
X47913739Y-50551675D01*
X47935738Y-50538939D01*
X47952972Y-50528939D01*
X47964640Y-50522139D01*
X47969944Y-50519001D01*
X47970176Y-50518849D01*
X47969566Y-50514613D01*
X47966966Y-50503970D01*
X47962816Y-50488624D01*
X47958597Y-50473846D01*
X47949051Y-50438667D01*
X47941825Y-50405786D01*
X47936581Y-50372834D01*
X47932980Y-50337444D01*
X47930682Y-50297247D01*
X47929877Y-50273188D01*
X47929688Y-50213401D01*
X47932800Y-50159037D01*
X47939552Y-50107585D01*
X47950281Y-50056536D01*
X47965327Y-50003380D01*
X47966997Y-49998117D01*
X47995564Y-49922389D01*
X48031399Y-49850252D01*
X48073990Y-49782180D01*
X48122821Y-49718648D01*
X48177380Y-49660129D01*
X48237153Y-49607098D01*
X48301625Y-49560030D01*
X48370285Y-49519397D01*
X48442617Y-49485674D01*
X48518109Y-49459336D01*
X48563414Y-49447568D01*
X48593367Y-49440755D01*
X48593367Y-48675200D01*
X48302325Y-48675537D01*
X48242475Y-48675639D01*
X48190518Y-48675803D01*
X48145878Y-48676041D01*
X48107983Y-48676364D01*
X48076257Y-48676784D01*
X48050128Y-48677311D01*
X48029020Y-48677956D01*
X48012359Y-48678731D01*
X47999572Y-48679648D01*
X47990083Y-48680717D01*
X47984245Y-48681739D01*
X47928297Y-48697843D01*
X47877227Y-48720765D01*
X47831219Y-48750384D01*
X47790454Y-48786580D01*
X47755116Y-48829233D01*
X47749989Y-48836632D01*
X47745336Y-48844064D01*
X47736777Y-48858320D01*
X47724589Y-48878924D01*
X47709044Y-48905400D01*
X47690417Y-48937272D01*
X47668982Y-48974063D01*
X47645014Y-49015299D01*
X47618785Y-49060502D01*
X47590571Y-49109196D01*
X47560645Y-49160907D01*
X47529282Y-49215157D01*
X47496756Y-49271471D01*
X47463341Y-49329372D01*
X47429311Y-49388385D01*
X47394940Y-49448033D01*
X47360502Y-49507841D01*
X47326272Y-49567332D01*
X47292523Y-49626031D01*
X47259531Y-49683461D01*
X47227568Y-49739146D01*
X47196908Y-49792611D01*
X47167827Y-49843379D01*
X47140599Y-49890974D01*
X47115496Y-49934920D01*
X47092794Y-49974742D01*
X47072767Y-50009962D01*
X47055689Y-50040106D01*
X47041833Y-50064696D01*
X47031474Y-50083258D01*
X47024887Y-50095314D01*
X47022625Y-50099717D01*
X47009463Y-50130880D01*
X47000319Y-50160020D01*
X46994650Y-50189830D01*
X46991913Y-50223002D01*
X46991474Y-50254234D01*
X46991901Y-50279743D01*
X46992961Y-50299356D01*
X46994969Y-50315636D01*
X46998245Y-50331148D01*
X47003104Y-50348457D01*
X47003154Y-50348623D01*
X47010014Y-50369267D01*
X47018070Y-50390485D01*
X47025808Y-50408342D01*
X47027357Y-50411507D01*
X47030816Y-50417870D01*
X47037951Y-50430602D01*
X47048335Y-50448959D01*
X47061539Y-50472195D01*
X47077137Y-50499567D01*
X47094701Y-50530327D01*
X47113802Y-50563732D01*
X47134015Y-50599036D01*
X47154910Y-50635493D01*
X47176061Y-50672360D01*
X47197039Y-50708890D01*
X47217418Y-50744338D01*
X47236769Y-50777960D01*
X47254665Y-50809010D01*
X47270679Y-50836743D01*
X47284383Y-50860414D01*
X47295349Y-50879278D01*
X47303149Y-50892589D01*
X47307357Y-50899602D01*
X47307948Y-50900488D01*
X47311616Y-50898565D01*
G36*
X50194873Y-50894084D02*
X50201466Y-50883856D01*
X50211384Y-50867702D01*
X50224208Y-50846346D01*
X50239523Y-50820512D01*
X50256912Y-50790925D01*
X50275957Y-50758309D01*
X50296242Y-50723389D01*
X50317351Y-50686890D01*
X50338865Y-50649535D01*
X50360370Y-50612049D01*
X50381447Y-50575157D01*
X50401680Y-50539583D01*
X50420652Y-50506051D01*
X50437947Y-50475287D01*
X50453147Y-50448014D01*
X50465836Y-50424958D01*
X50475597Y-50406842D01*
X50482013Y-50394390D01*
X50483979Y-50390185D01*
X50500003Y-50342571D01*
X50509074Y-50291859D01*
X50511193Y-50239769D01*
X50506359Y-50188024D01*
X50494572Y-50138343D01*
X50484023Y-50109917D01*
X50480476Y-50102909D01*
X50472951Y-50089051D01*
X50461720Y-50068814D01*
X50447056Y-50042670D01*
X50429229Y-50011092D01*
X50408513Y-49974552D01*
X50385179Y-49933522D01*
X50359498Y-49888474D01*
X50331744Y-49839881D01*
X50302187Y-49788214D01*
X50271099Y-49733946D01*
X50238753Y-49677549D01*
X50205420Y-49619495D01*
X50171373Y-49560256D01*
X50136882Y-49500305D01*
X50102221Y-49440114D01*
X50067660Y-49380154D01*
X50033473Y-49320899D01*
X49999930Y-49262820D01*
X49967304Y-49206389D01*
X49935866Y-49152078D01*
X49905889Y-49100361D01*
X49877644Y-49051708D01*
X49851403Y-49006593D01*
X49827438Y-48965487D01*
X49806022Y-48928862D01*
X49787425Y-48897191D01*
X49771920Y-48870946D01*
X49759779Y-48850599D01*
X49751273Y-48836622D01*
X49746825Y-48829699D01*
X49720740Y-48797786D01*
X49688865Y-48767091D01*
X49653445Y-48739408D01*
X49616724Y-48716529D01*
X49588200Y-48703002D01*
X49576496Y-48698263D01*
X49566243Y-48694153D01*
X49556775Y-48690625D01*
X49547423Y-48687631D01*
X49537520Y-48685125D01*
X49526398Y-48683059D01*
X49513391Y-48681385D01*
X49497829Y-48680057D01*
X49479047Y-48679027D01*
X49456375Y-48678247D01*
X49429148Y-48677671D01*
X49396696Y-48677251D01*
X49358353Y-48676941D01*
X49313451Y-48676691D01*
X49261323Y-48676456D01*
X49210375Y-48676230D01*
X48906633Y-48674834D01*
X48906633Y-49440243D01*
X48950917Y-49451290D01*
X49029815Y-49475255D01*
X49105228Y-49506724D01*
X49176708Y-49545296D01*
X49243805Y-49590572D01*
X49306072Y-49642150D01*
X49363057Y-49699633D01*
X49414314Y-49762618D01*
X49459392Y-49830706D01*
X49497844Y-49903497D01*
X49521715Y-49960017D01*
X49541820Y-50019083D01*
X49556561Y-50077066D01*
X49566343Y-50136262D01*
X49571569Y-50198970D01*
X49572744Y-50250000D01*
X49572278Y-50292230D01*
X49570572Y-50328644D01*
X49567300Y-50361842D01*
X49562134Y-50394428D01*
X49554747Y-50429001D01*
X49545753Y-50464630D01*
X49540774Y-50483717D01*
X49536726Y-50499869D01*
X49534046Y-50511292D01*
X49533167Y-50516084D01*
X49536567Y-50520160D01*
X49545395Y-50526650D01*
X49555392Y-50532774D01*
X49567419Y-50539657D01*
X49584647Y-50549568D01*
X49604957Y-50561284D01*
X49626227Y-50573584D01*
X49630534Y-50576078D01*
X49653294Y-50589253D01*
X49681899Y-50605793D01*
X49715342Y-50625117D01*
X49752615Y-50646645D01*
X49792711Y-50669794D01*
X49834624Y-50693986D01*
X49877345Y-50718637D01*
X49919869Y-50743168D01*
X49961188Y-50766997D01*
X50000294Y-50789543D01*
X50036182Y-50810225D01*
X50067843Y-50828462D01*
X50094271Y-50843674D01*
X50114459Y-50855278D01*
X50115820Y-50856060D01*
X50138261Y-50868838D01*
X50158253Y-50880025D01*
X50174621Y-50888979D01*
X50186188Y-50895058D01*
X50191778Y-50897619D01*
X50192020Y-50897660D01*
X50194873Y-50894084D01*
X50194873Y-50894084D01*
G37*
X50194873Y-50894084D02*
X50201466Y-50883856D01*
X50211384Y-50867702D01*
X50224208Y-50846346D01*
X50239523Y-50820512D01*
X50256912Y-50790925D01*
X50275957Y-50758309D01*
X50296242Y-50723389D01*
X50317351Y-50686890D01*
X50338865Y-50649535D01*
X50360370Y-50612049D01*
X50381447Y-50575157D01*
X50401680Y-50539583D01*
X50420652Y-50506051D01*
X50437947Y-50475287D01*
X50453147Y-50448014D01*
X50465836Y-50424958D01*
X50475597Y-50406842D01*
X50482013Y-50394390D01*
X50483979Y-50390185D01*
X50500003Y-50342571D01*
X50509074Y-50291859D01*
X50511193Y-50239769D01*
X50506359Y-50188024D01*
X50494572Y-50138343D01*
X50484023Y-50109917D01*
X50480476Y-50102909D01*
X50472951Y-50089051D01*
X50461720Y-50068814D01*
X50447056Y-50042670D01*
X50429229Y-50011092D01*
X50408513Y-49974552D01*
X50385179Y-49933522D01*
X50359498Y-49888474D01*
X50331744Y-49839881D01*
X50302187Y-49788214D01*
X50271099Y-49733946D01*
X50238753Y-49677549D01*
X50205420Y-49619495D01*
X50171373Y-49560256D01*
X50136882Y-49500305D01*
X50102221Y-49440114D01*
X50067660Y-49380154D01*
X50033473Y-49320899D01*
X49999930Y-49262820D01*
X49967304Y-49206389D01*
X49935866Y-49152078D01*
X49905889Y-49100361D01*
X49877644Y-49051708D01*
X49851403Y-49006593D01*
X49827438Y-48965487D01*
X49806022Y-48928862D01*
X49787425Y-48897191D01*
X49771920Y-48870946D01*
X49759779Y-48850599D01*
X49751273Y-48836622D01*
X49746825Y-48829699D01*
X49720740Y-48797786D01*
X49688865Y-48767091D01*
X49653445Y-48739408D01*
X49616724Y-48716529D01*
X49588200Y-48703002D01*
X49576496Y-48698263D01*
X49566243Y-48694153D01*
X49556775Y-48690625D01*
X49547423Y-48687631D01*
X49537520Y-48685125D01*
X49526398Y-48683059D01*
X49513391Y-48681385D01*
X49497829Y-48680057D01*
X49479047Y-48679027D01*
X49456375Y-48678247D01*
X49429148Y-48677671D01*
X49396696Y-48677251D01*
X49358353Y-48676941D01*
X49313451Y-48676691D01*
X49261323Y-48676456D01*
X49210375Y-48676230D01*
X48906633Y-48674834D01*
X48906633Y-49440243D01*
X48950917Y-49451290D01*
X49029815Y-49475255D01*
X49105228Y-49506724D01*
X49176708Y-49545296D01*
X49243805Y-49590572D01*
X49306072Y-49642150D01*
X49363057Y-49699633D01*
X49414314Y-49762618D01*
X49459392Y-49830706D01*
X49497844Y-49903497D01*
X49521715Y-49960017D01*
X49541820Y-50019083D01*
X49556561Y-50077066D01*
X49566343Y-50136262D01*
X49571569Y-50198970D01*
X49572744Y-50250000D01*
X49572278Y-50292230D01*
X49570572Y-50328644D01*
X49567300Y-50361842D01*
X49562134Y-50394428D01*
X49554747Y-50429001D01*
X49545753Y-50464630D01*
X49540774Y-50483717D01*
X49536726Y-50499869D01*
X49534046Y-50511292D01*
X49533167Y-50516084D01*
X49536567Y-50520160D01*
X49545395Y-50526650D01*
X49555392Y-50532774D01*
X49567419Y-50539657D01*
X49584647Y-50549568D01*
X49604957Y-50561284D01*
X49626227Y-50573584D01*
X49630534Y-50576078D01*
X49653294Y-50589253D01*
X49681899Y-50605793D01*
X49715342Y-50625117D01*
X49752615Y-50646645D01*
X49792711Y-50669794D01*
X49834624Y-50693986D01*
X49877345Y-50718637D01*
X49919869Y-50743168D01*
X49961188Y-50766997D01*
X50000294Y-50789543D01*
X50036182Y-50810225D01*
X50067843Y-50828462D01*
X50094271Y-50843674D01*
X50114459Y-50855278D01*
X50115820Y-50856060D01*
X50138261Y-50868838D01*
X50158253Y-50880025D01*
X50174621Y-50888979D01*
X50186188Y-50895058D01*
X50191778Y-50897619D01*
X50192020Y-50897660D01*
X50194873Y-50894084D01*
G36*
X48815156Y-50794836D02*
X48855125Y-50789032D01*
X48858939Y-50788247D01*
X48925259Y-50770005D01*
X48987774Y-50744510D01*
X49046007Y-50712189D01*
X49099484Y-50673472D01*
X49147726Y-50628786D01*
X49190259Y-50578559D01*
X49226606Y-50523221D01*
X49256290Y-50463197D01*
X49273978Y-50415100D01*
X49283581Y-50382276D01*
X49290396Y-50352285D01*
X49294803Y-50322429D01*
X49297183Y-50290012D01*
X49297918Y-50252334D01*
X49297909Y-50245767D01*
X49296975Y-50205957D01*
X49294183Y-50171613D01*
X49289076Y-50139848D01*
X49281198Y-50107779D01*
X49270801Y-50074615D01*
X49245374Y-50012298D01*
X49212920Y-49954245D01*
X49173987Y-49900940D01*
X49129122Y-49852865D01*
X49078874Y-49810501D01*
X49023790Y-49774332D01*
X48964419Y-49744839D01*
X48901307Y-49722506D01*
X48859160Y-49712182D01*
X48824508Y-49706649D01*
X48785925Y-49703036D01*
X48746623Y-49701490D01*
X48709809Y-49702158D01*
X48685845Y-49704193D01*
X48619717Y-49716510D01*
X48556363Y-49736481D01*
X48496360Y-49763638D01*
X48440288Y-49797514D01*
X48388726Y-49837642D01*
X48342253Y-49883555D01*
X48301448Y-49934786D01*
X48266891Y-49990867D01*
X48239159Y-50051332D01*
X48232316Y-50070084D01*
X48217556Y-50119585D01*
X48208153Y-50167895D01*
X48203556Y-50218381D01*
X48202876Y-50250000D01*
X48206554Y-50314848D01*
X48217355Y-50378406D01*
X48234927Y-50439138D01*
X48258919Y-50495505D01*
X48258944Y-50495554D01*
X48279197Y-50531145D01*
X48304398Y-50568357D01*
X48332378Y-50604225D01*
X48360970Y-50635781D01*
X48362535Y-50637350D01*
X48414228Y-50683078D01*
X48470225Y-50721571D01*
X48530219Y-50752661D01*
X48593901Y-50776183D01*
X48640215Y-50787993D01*
X48680125Y-50794205D01*
X48724614Y-50797419D01*
X48770638Y-50797630D01*
X48815156Y-50794836D01*
X48815156Y-50794836D01*
G37*
X48815156Y-50794836D02*
X48855125Y-50789032D01*
X48858939Y-50788247D01*
X48925259Y-50770005D01*
X48987774Y-50744510D01*
X49046007Y-50712189D01*
X49099484Y-50673472D01*
X49147726Y-50628786D01*
X49190259Y-50578559D01*
X49226606Y-50523221D01*
X49256290Y-50463197D01*
X49273978Y-50415100D01*
X49283581Y-50382276D01*
X49290396Y-50352285D01*
X49294803Y-50322429D01*
X49297183Y-50290012D01*
X49297918Y-50252334D01*
X49297909Y-50245767D01*
X49296975Y-50205957D01*
X49294183Y-50171613D01*
X49289076Y-50139848D01*
X49281198Y-50107779D01*
X49270801Y-50074615D01*
X49245374Y-50012298D01*
X49212920Y-49954245D01*
X49173987Y-49900940D01*
X49129122Y-49852865D01*
X49078874Y-49810501D01*
X49023790Y-49774332D01*
X48964419Y-49744839D01*
X48901307Y-49722506D01*
X48859160Y-49712182D01*
X48824508Y-49706649D01*
X48785925Y-49703036D01*
X48746623Y-49701490D01*
X48709809Y-49702158D01*
X48685845Y-49704193D01*
X48619717Y-49716510D01*
X48556363Y-49736481D01*
X48496360Y-49763638D01*
X48440288Y-49797514D01*
X48388726Y-49837642D01*
X48342253Y-49883555D01*
X48301448Y-49934786D01*
X48266891Y-49990867D01*
X48239159Y-50051332D01*
X48232316Y-50070084D01*
X48217556Y-50119585D01*
X48208153Y-50167895D01*
X48203556Y-50218381D01*
X48202876Y-50250000D01*
X48206554Y-50314848D01*
X48217355Y-50378406D01*
X48234927Y-50439138D01*
X48258919Y-50495505D01*
X48258944Y-50495554D01*
X48279197Y-50531145D01*
X48304398Y-50568357D01*
X48332378Y-50604225D01*
X48360970Y-50635781D01*
X48362535Y-50637350D01*
X48414228Y-50683078D01*
X48470225Y-50721571D01*
X48530219Y-50752661D01*
X48593901Y-50776183D01*
X48640215Y-50787993D01*
X48680125Y-50794205D01*
X48724614Y-50797419D01*
X48770638Y-50797630D01*
X48815156Y-50794836D01*
G36*
X48845991Y-51822681D02*
X48931778Y-51822670D01*
X49009857Y-51822646D01*
X49080607Y-51822607D01*
X49144408Y-51822548D01*
X49201639Y-51822465D01*
X49252679Y-51822356D01*
X49297908Y-51822215D01*
X49337704Y-51822039D01*
X49372448Y-51821826D01*
X49402519Y-51821569D01*
X49428295Y-51821267D01*
X49450157Y-51820915D01*
X49468483Y-51820510D01*
X49483653Y-51820047D01*
X49496046Y-51819523D01*
X49506042Y-51818934D01*
X49514019Y-51818277D01*
X49520358Y-51817547D01*
X49525437Y-51816742D01*
X49529636Y-51815856D01*
X49533167Y-51814934D01*
X49580245Y-51799509D01*
X49620926Y-51781229D01*
X49657081Y-51759079D01*
X49690575Y-51732045D01*
X49697202Y-51725884D01*
X49708522Y-51714904D01*
X49718767Y-51704294D01*
X49728488Y-51693238D01*
X49738233Y-51680922D01*
X49748553Y-51666528D01*
X49759997Y-51649243D01*
X49773115Y-51628249D01*
X49788456Y-51602732D01*
X49806569Y-51571876D01*
X49828006Y-51534866D01*
X49840226Y-51513650D01*
X49861272Y-51477079D01*
X49884129Y-51437373D01*
X49907659Y-51396508D01*
X49930725Y-51356458D01*
X49952190Y-51319198D01*
X49970918Y-51286701D01*
X49975903Y-51278056D01*
X50036072Y-51173694D01*
X49707361Y-50984210D01*
X49658872Y-50956261D01*
X49612471Y-50929518D01*
X49568685Y-50904285D01*
X49528038Y-50880865D01*
X49491055Y-50859560D01*
X49458262Y-50840672D01*
X49430184Y-50824503D01*
X49407347Y-50811357D01*
X49390274Y-50801536D01*
X49379493Y-50795343D01*
X49375531Y-50793082D01*
X49371469Y-50795235D01*
X49363195Y-50802382D01*
X49352158Y-50813217D01*
X49346167Y-50819494D01*
X49296507Y-50867303D01*
X49240188Y-50912112D01*
X49178784Y-50952889D01*
X49113870Y-50988603D01*
X49047021Y-51018220D01*
X49037025Y-51022036D01*
X48959344Y-51046596D01*
X48879765Y-51063140D01*
X48799010Y-51071702D01*
X48717800Y-51072318D01*
X48636858Y-51065021D01*
X48556904Y-51049847D01*
X48478662Y-51026831D01*
X48402851Y-50996006D01*
X48392284Y-50990978D01*
X48326165Y-50955388D01*
X48265433Y-50915048D01*
X48208217Y-50868612D01*
X48165800Y-50828283D01*
X48151753Y-50814260D01*
X48139909Y-50802778D01*
X48131492Y-50795001D01*
X48127727Y-50792090D01*
X48127700Y-50792090D01*
X48123805Y-50794190D01*
X48113106Y-50800229D01*
X48096128Y-50809906D01*
X48073396Y-50822918D01*
X48045435Y-50838966D01*
X48012769Y-50857747D01*
X47975922Y-50878959D01*
X47935419Y-50902301D01*
X47891785Y-50927471D01*
X47845544Y-50954168D01*
X47799617Y-50980705D01*
X47751332Y-51008630D01*
X47705132Y-51035380D01*
X47661545Y-51060646D01*
X47621099Y-51084121D01*
X47584322Y-51105498D01*
X47551741Y-51124470D01*
X47523884Y-51140729D01*
X47501279Y-51153968D01*
X47484454Y-51163879D01*
X47473937Y-51170155D01*
X47470273Y-51172468D01*
X47471644Y-51176704D01*
X47476928Y-51187504D01*
X47485712Y-51204154D01*
X47497584Y-51225940D01*
X47512130Y-51252148D01*
X47528937Y-51282064D01*
X47547591Y-51314973D01*
X47567680Y-51350163D01*
X47588791Y-51386919D01*
X47610509Y-51424528D01*
X47632423Y-51462274D01*
X47654119Y-51499445D01*
X47675184Y-51535326D01*
X47695204Y-51569204D01*
X47713767Y-51600364D01*
X47730460Y-51628093D01*
X47744868Y-51651677D01*
X47756580Y-51670401D01*
X47765181Y-51683552D01*
X47769475Y-51689494D01*
X47805527Y-51727640D01*
X47847543Y-51760648D01*
X47894180Y-51787659D01*
X47944096Y-51807811D01*
X47962600Y-51813219D01*
X47998583Y-51822684D01*
X48752117Y-51822684D01*
X48845991Y-51822681D01*
X48845991Y-51822681D01*
G37*
X48845991Y-51822681D02*
X48931778Y-51822670D01*
X49009857Y-51822646D01*
X49080607Y-51822607D01*
X49144408Y-51822548D01*
X49201639Y-51822465D01*
X49252679Y-51822356D01*
X49297908Y-51822215D01*
X49337704Y-51822039D01*
X49372448Y-51821826D01*
X49402519Y-51821569D01*
X49428295Y-51821267D01*
X49450157Y-51820915D01*
X49468483Y-51820510D01*
X49483653Y-51820047D01*
X49496046Y-51819523D01*
X49506042Y-51818934D01*
X49514019Y-51818277D01*
X49520358Y-51817547D01*
X49525437Y-51816742D01*
X49529636Y-51815856D01*
X49533167Y-51814934D01*
X49580245Y-51799509D01*
X49620926Y-51781229D01*
X49657081Y-51759079D01*
X49690575Y-51732045D01*
X49697202Y-51725884D01*
X49708522Y-51714904D01*
X49718767Y-51704294D01*
X49728488Y-51693238D01*
X49738233Y-51680922D01*
X49748553Y-51666528D01*
X49759997Y-51649243D01*
X49773115Y-51628249D01*
X49788456Y-51602732D01*
X49806569Y-51571876D01*
X49828006Y-51534866D01*
X49840226Y-51513650D01*
X49861272Y-51477079D01*
X49884129Y-51437373D01*
X49907659Y-51396508D01*
X49930725Y-51356458D01*
X49952190Y-51319198D01*
X49970918Y-51286701D01*
X49975903Y-51278056D01*
X50036072Y-51173694D01*
X49707361Y-50984210D01*
X49658872Y-50956261D01*
X49612471Y-50929518D01*
X49568685Y-50904285D01*
X49528038Y-50880865D01*
X49491055Y-50859560D01*
X49458262Y-50840672D01*
X49430184Y-50824503D01*
X49407347Y-50811357D01*
X49390274Y-50801536D01*
X49379493Y-50795343D01*
X49375531Y-50793082D01*
X49371469Y-50795235D01*
X49363195Y-50802382D01*
X49352158Y-50813217D01*
X49346167Y-50819494D01*
X49296507Y-50867303D01*
X49240188Y-50912112D01*
X49178784Y-50952889D01*
X49113870Y-50988603D01*
X49047021Y-51018220D01*
X49037025Y-51022036D01*
X48959344Y-51046596D01*
X48879765Y-51063140D01*
X48799010Y-51071702D01*
X48717800Y-51072318D01*
X48636858Y-51065021D01*
X48556904Y-51049847D01*
X48478662Y-51026831D01*
X48402851Y-50996006D01*
X48392284Y-50990978D01*
X48326165Y-50955388D01*
X48265433Y-50915048D01*
X48208217Y-50868612D01*
X48165800Y-50828283D01*
X48151753Y-50814260D01*
X48139909Y-50802778D01*
X48131492Y-50795001D01*
X48127727Y-50792090D01*
X48127700Y-50792090D01*
X48123805Y-50794190D01*
X48113106Y-50800229D01*
X48096128Y-50809906D01*
X48073396Y-50822918D01*
X48045435Y-50838966D01*
X48012769Y-50857747D01*
X47975922Y-50878959D01*
X47935419Y-50902301D01*
X47891785Y-50927471D01*
X47845544Y-50954168D01*
X47799617Y-50980705D01*
X47751332Y-51008630D01*
X47705132Y-51035380D01*
X47661545Y-51060646D01*
X47621099Y-51084121D01*
X47584322Y-51105498D01*
X47551741Y-51124470D01*
X47523884Y-51140729D01*
X47501279Y-51153968D01*
X47484454Y-51163879D01*
X47473937Y-51170155D01*
X47470273Y-51172468D01*
X47471644Y-51176704D01*
X47476928Y-51187504D01*
X47485712Y-51204154D01*
X47497584Y-51225940D01*
X47512130Y-51252148D01*
X47528937Y-51282064D01*
X47547591Y-51314973D01*
X47567680Y-51350163D01*
X47588791Y-51386919D01*
X47610509Y-51424528D01*
X47632423Y-51462274D01*
X47654119Y-51499445D01*
X47675184Y-51535326D01*
X47695204Y-51569204D01*
X47713767Y-51600364D01*
X47730460Y-51628093D01*
X47744868Y-51651677D01*
X47756580Y-51670401D01*
X47765181Y-51683552D01*
X47769475Y-51689494D01*
X47805527Y-51727640D01*
X47847543Y-51760648D01*
X47894180Y-51787659D01*
X47944096Y-51807811D01*
X47962600Y-51813219D01*
X47998583Y-51822684D01*
X48752117Y-51822684D01*
X48845991Y-51822681D01*
D12*
X58250000Y-39350000D02*
X58250000Y-39150000D01*
X57250000Y-39350000D02*
X57250000Y-39150000D01*
M02*
