G04 #@! TF.FileFunction,Soldermask,Top*
%FSLAX46Y46*%
G04 Gerber Fmt 4.6, Leading zero omitted, Abs format (unit mm)*
G04 Created by KiCad (PCBNEW (2015-10-14 BZR 6267)-product) date 2015 October 25, Sunday 21:22:18*
%MOMM*%
G01*
G04 APERTURE LIST*
%ADD10C,0.100000*%
G04 APERTURE END LIST*
D10*
G36*
X74880000Y-52355000D02*
X71620000Y-52355000D01*
X71620000Y-49995000D01*
X74880000Y-49995000D01*
X74880000Y-52355000D01*
X74880000Y-52355000D01*
G37*
G36*
X64630000Y-52180000D02*
X63370000Y-52180000D01*
X63370000Y-51220000D01*
X64630000Y-51220000D01*
X64630000Y-52180000D01*
X64630000Y-52180000D01*
G37*
G36*
X53880000Y-52180000D02*
X52620000Y-52180000D01*
X52620000Y-51220000D01*
X53880000Y-51220000D01*
X53880000Y-52180000D01*
X53880000Y-52180000D01*
G37*
G36*
X52380000Y-52180000D02*
X51120000Y-52180000D01*
X51120000Y-51220000D01*
X52380000Y-51220000D01*
X52380000Y-52180000D01*
X52380000Y-52180000D01*
G37*
G36*
X46630000Y-52180000D02*
X45370000Y-52180000D01*
X45370000Y-51220000D01*
X46630000Y-51220000D01*
X46630000Y-52180000D01*
X46630000Y-52180000D01*
G37*
G36*
X66054690Y-51729630D02*
X65045390Y-51729630D01*
X65045390Y-49770370D01*
X66054690Y-49770370D01*
X66054690Y-51729630D01*
X66054690Y-51729630D01*
G37*
G36*
X67954610Y-51729630D02*
X66945310Y-51729630D01*
X66945310Y-49770370D01*
X67954610Y-49770370D01*
X67954610Y-51729630D01*
X67954610Y-51729630D01*
G37*
G36*
X62005000Y-51630000D02*
X55995000Y-51630000D01*
X55995000Y-50070000D01*
X62005000Y-50070000D01*
X62005000Y-51630000D01*
X62005000Y-51630000D01*
G37*
G36*
X53880000Y-50780000D02*
X52620000Y-50780000D01*
X52620000Y-49820000D01*
X53880000Y-49820000D01*
X53880000Y-50780000D01*
X53880000Y-50780000D01*
G37*
G36*
X64630000Y-50780000D02*
X63370000Y-50780000D01*
X63370000Y-49820000D01*
X64630000Y-49820000D01*
X64630000Y-50780000D01*
X64630000Y-50780000D01*
G37*
G36*
X52380000Y-50780000D02*
X51120000Y-50780000D01*
X51120000Y-49820000D01*
X52380000Y-49820000D01*
X52380000Y-50780000D01*
X52380000Y-50780000D01*
G37*
G36*
X46630000Y-50780000D02*
X45370000Y-50780000D01*
X45370000Y-49820000D01*
X46630000Y-49820000D01*
X46630000Y-50780000D01*
X46630000Y-50780000D01*
G37*
G36*
X52380000Y-49680000D02*
X51120000Y-49680000D01*
X51120000Y-48720000D01*
X52380000Y-48720000D01*
X52380000Y-49680000D01*
X52380000Y-49680000D01*
G37*
G36*
X55430000Y-49505000D02*
X53870000Y-49505000D01*
X53870000Y-43495000D01*
X55430000Y-43495000D01*
X55430000Y-49505000D01*
X55430000Y-49505000D01*
G37*
G36*
X64130000Y-49505000D02*
X62570000Y-49505000D01*
X62570000Y-43495000D01*
X64130000Y-43495000D01*
X64130000Y-49505000D01*
X64130000Y-49505000D01*
G37*
G36*
X71280000Y-49155000D02*
X69420000Y-49155000D01*
X69420000Y-48095000D01*
X71280000Y-48095000D01*
X71280000Y-49155000D01*
X71280000Y-49155000D01*
G37*
G36*
X49780000Y-49130000D02*
X48120000Y-49130000D01*
X48120000Y-47270000D01*
X49780000Y-47270000D01*
X49780000Y-49130000D01*
X49780000Y-49130000D01*
G37*
G36*
X46860575Y-47720042D02*
X46860582Y-47720043D01*
X46862598Y-47720057D01*
X46975089Y-47732674D01*
X47082986Y-47766902D01*
X47182181Y-47821434D01*
X47268894Y-47894195D01*
X47339823Y-47982413D01*
X47392267Y-48082728D01*
X47424227Y-48191319D01*
X47424230Y-48191353D01*
X47424234Y-48191366D01*
X47434489Y-48304046D01*
X47422660Y-48416577D01*
X47422659Y-48416582D01*
X47422654Y-48416625D01*
X47389181Y-48524759D01*
X47335342Y-48624332D01*
X47263188Y-48711551D01*
X47175467Y-48783094D01*
X47075521Y-48836237D01*
X46967156Y-48868954D01*
X46854500Y-48880000D01*
X46145461Y-48880000D01*
X46139425Y-48879958D01*
X46139418Y-48879957D01*
X46137402Y-48879943D01*
X46024911Y-48867326D01*
X45917014Y-48833098D01*
X45817819Y-48778566D01*
X45731106Y-48705805D01*
X45660177Y-48617587D01*
X45607733Y-48517272D01*
X45575773Y-48408681D01*
X45575770Y-48408647D01*
X45575766Y-48408634D01*
X45565511Y-48295954D01*
X45577340Y-48183423D01*
X45577341Y-48183418D01*
X45577346Y-48183375D01*
X45610819Y-48075241D01*
X45664658Y-47975668D01*
X45736812Y-47888449D01*
X45824533Y-47816906D01*
X45924479Y-47763763D01*
X46032844Y-47731046D01*
X46145500Y-47720000D01*
X46854539Y-47720000D01*
X46860575Y-47720042D01*
X46860575Y-47720042D01*
G37*
G36*
X68880000Y-48680000D02*
X67620000Y-48680000D01*
X67620000Y-47720000D01*
X68880000Y-47720000D01*
X68880000Y-48680000D01*
X68880000Y-48680000D01*
G37*
G36*
X67380000Y-48680000D02*
X66120000Y-48680000D01*
X66120000Y-47720000D01*
X67380000Y-47720000D01*
X67380000Y-48680000D01*
X67380000Y-48680000D01*
G37*
G36*
X52380000Y-48280000D02*
X51120000Y-48280000D01*
X51120000Y-47320000D01*
X52380000Y-47320000D01*
X52380000Y-48280000D01*
X52380000Y-48280000D01*
G37*
G36*
X71280000Y-47905000D02*
X69420000Y-47905000D01*
X69420000Y-46845000D01*
X71280000Y-46845000D01*
X71280000Y-47905000D01*
X71280000Y-47905000D01*
G37*
G36*
X47580000Y-47280000D02*
X45420000Y-47280000D01*
X45420000Y-45120000D01*
X47580000Y-45120000D01*
X47580000Y-47280000D01*
X47580000Y-47280000D01*
G37*
G36*
X67380000Y-47280000D02*
X66120000Y-47280000D01*
X66120000Y-46320000D01*
X67380000Y-46320000D01*
X67380000Y-47280000D01*
X67380000Y-47280000D01*
G37*
G36*
X68880000Y-47280000D02*
X67620000Y-47280000D01*
X67620000Y-46320000D01*
X68880000Y-46320000D01*
X68880000Y-47280000D01*
X68880000Y-47280000D01*
G37*
G36*
X71280000Y-46655000D02*
X69420000Y-46655000D01*
X69420000Y-45595000D01*
X71280000Y-45595000D01*
X71280000Y-46655000D01*
X71280000Y-46655000D01*
G37*
G36*
X49980000Y-46630000D02*
X48370000Y-46630000D01*
X48370000Y-43370000D01*
X49980000Y-43370000D01*
X49980000Y-46630000D01*
X49980000Y-46630000D01*
G37*
G36*
X51680000Y-45780000D02*
X50970000Y-45780000D01*
X50970000Y-44220000D01*
X51680000Y-44220000D01*
X51680000Y-45780000D01*
X51680000Y-45780000D01*
G37*
G36*
X53030000Y-45780000D02*
X52320000Y-45780000D01*
X52320000Y-44220000D01*
X53030000Y-44220000D01*
X53030000Y-45780000D01*
X53030000Y-45780000D01*
G37*
G36*
X71280000Y-45405000D02*
X69420000Y-45405000D01*
X69420000Y-44345000D01*
X71280000Y-44345000D01*
X71280000Y-45405000D01*
X71280000Y-45405000D01*
G37*
G36*
X47580000Y-44880000D02*
X45420000Y-44880000D01*
X45420000Y-42720000D01*
X47580000Y-42720000D01*
X47580000Y-44880000D01*
X47580000Y-44880000D01*
G37*
G36*
X67380000Y-43680000D02*
X66120000Y-43680000D01*
X66120000Y-42720000D01*
X67380000Y-42720000D01*
X67380000Y-43680000D01*
X67380000Y-43680000D01*
G37*
G36*
X68880000Y-43680000D02*
X67620000Y-43680000D01*
X67620000Y-42720000D01*
X68880000Y-42720000D01*
X68880000Y-43680000D01*
X68880000Y-43680000D01*
G37*
G36*
X74880000Y-43505000D02*
X71620000Y-43505000D01*
X71620000Y-41145000D01*
X74880000Y-41145000D01*
X74880000Y-43505000D01*
X74880000Y-43505000D01*
G37*
G36*
X62005000Y-42930000D02*
X55995000Y-42930000D01*
X55995000Y-41370000D01*
X62005000Y-41370000D01*
X62005000Y-42930000D01*
X62005000Y-42930000D01*
G37*
G36*
X49780000Y-42730000D02*
X48120000Y-42730000D01*
X48120000Y-40870000D01*
X49780000Y-40870000D01*
X49780000Y-42730000D01*
X49780000Y-42730000D01*
G37*
G36*
X65930000Y-42630000D02*
X64970000Y-42630000D01*
X64970000Y-41370000D01*
X65930000Y-41370000D01*
X65930000Y-42630000D01*
X65930000Y-42630000D01*
G37*
G36*
X64530000Y-42630000D02*
X63570000Y-42630000D01*
X63570000Y-41370000D01*
X64530000Y-41370000D01*
X64530000Y-42630000D01*
X64530000Y-42630000D01*
G37*
G36*
X68880000Y-42280000D02*
X67620000Y-42280000D01*
X67620000Y-41320000D01*
X68880000Y-41320000D01*
X68880000Y-42280000D01*
X68880000Y-42280000D01*
G37*
G36*
X67380000Y-42280000D02*
X66120000Y-42280000D01*
X66120000Y-41320000D01*
X67380000Y-41320000D01*
X67380000Y-42280000D01*
X67380000Y-42280000D01*
G37*
G36*
X46860575Y-41120042D02*
X46860582Y-41120043D01*
X46862598Y-41120057D01*
X46975089Y-41132674D01*
X47082986Y-41166902D01*
X47182181Y-41221434D01*
X47268894Y-41294195D01*
X47339823Y-41382413D01*
X47392267Y-41482728D01*
X47424227Y-41591319D01*
X47424230Y-41591353D01*
X47424234Y-41591366D01*
X47434489Y-41704046D01*
X47422660Y-41816577D01*
X47422659Y-41816582D01*
X47422654Y-41816625D01*
X47389181Y-41924759D01*
X47335342Y-42024332D01*
X47263188Y-42111551D01*
X47175467Y-42183094D01*
X47075521Y-42236237D01*
X46967156Y-42268954D01*
X46854500Y-42280000D01*
X46145461Y-42280000D01*
X46139425Y-42279958D01*
X46139418Y-42279957D01*
X46137402Y-42279943D01*
X46024911Y-42267326D01*
X45917014Y-42233098D01*
X45817819Y-42178566D01*
X45731106Y-42105805D01*
X45660177Y-42017587D01*
X45607733Y-41917272D01*
X45575773Y-41808681D01*
X45575770Y-41808647D01*
X45575766Y-41808634D01*
X45565511Y-41695954D01*
X45577340Y-41583423D01*
X45577341Y-41583418D01*
X45577346Y-41583375D01*
X45610819Y-41475241D01*
X45664658Y-41375668D01*
X45736812Y-41288449D01*
X45824533Y-41216906D01*
X45924479Y-41163763D01*
X46032844Y-41131046D01*
X46145500Y-41120000D01*
X46854539Y-41120000D01*
X46860575Y-41120042D01*
X46860575Y-41120042D01*
G37*
G36*
X51580000Y-41755000D02*
X50520000Y-41755000D01*
X50520000Y-40295000D01*
X51580000Y-40295000D01*
X51580000Y-41755000D01*
X51580000Y-41755000D01*
G37*
G36*
X53480000Y-41755000D02*
X52420000Y-41755000D01*
X52420000Y-40295000D01*
X53480000Y-40295000D01*
X53480000Y-41755000D01*
X53480000Y-41755000D01*
G37*
G36*
X61180000Y-40755000D02*
X59520000Y-40755000D01*
X59520000Y-39345000D01*
X61180000Y-39345000D01*
X61180000Y-40755000D01*
X61180000Y-40755000D01*
G37*
G36*
X58980000Y-40755000D02*
X57320000Y-40755000D01*
X57320000Y-39345000D01*
X58980000Y-39345000D01*
X58980000Y-40755000D01*
X58980000Y-40755000D01*
G37*
G36*
X46880000Y-40430000D02*
X45620000Y-40430000D01*
X45620000Y-39470000D01*
X46880000Y-39470000D01*
X46880000Y-40430000D01*
X46880000Y-40430000D01*
G37*
G36*
X73305668Y-39220352D02*
X73407485Y-39241252D01*
X73503303Y-39281530D01*
X73589471Y-39339650D01*
X73662708Y-39413401D01*
X73720229Y-39499977D01*
X73759836Y-39596070D01*
X73779957Y-39697686D01*
X73779957Y-39697702D01*
X73780022Y-39698031D01*
X73778365Y-39816748D01*
X73778288Y-39817087D01*
X73778288Y-39817090D01*
X73755339Y-39918107D01*
X73713064Y-40013055D01*
X73653151Y-40097988D01*
X73577877Y-40169670D01*
X73490123Y-40225361D01*
X73393217Y-40262949D01*
X73290860Y-40280996D01*
X73186944Y-40278820D01*
X73085424Y-40256499D01*
X72990182Y-40214889D01*
X72904834Y-40155570D01*
X72832630Y-40080801D01*
X72776328Y-39993437D01*
X72738065Y-39896797D01*
X72719301Y-39794561D01*
X72720753Y-39690634D01*
X72742362Y-39588970D01*
X72783309Y-39493433D01*
X72842030Y-39407675D01*
X72916294Y-39334949D01*
X73003264Y-39278037D01*
X73099635Y-39239101D01*
X73201729Y-39219626D01*
X73305668Y-39220352D01*
X73305668Y-39220352D01*
G37*
G36*
X72055668Y-39220352D02*
X72157485Y-39241252D01*
X72253303Y-39281530D01*
X72339471Y-39339650D01*
X72412708Y-39413401D01*
X72470229Y-39499977D01*
X72509836Y-39596070D01*
X72529957Y-39697686D01*
X72529957Y-39697702D01*
X72530022Y-39698031D01*
X72528365Y-39816748D01*
X72528288Y-39817087D01*
X72528288Y-39817090D01*
X72505339Y-39918107D01*
X72463064Y-40013055D01*
X72403151Y-40097988D01*
X72327877Y-40169670D01*
X72240123Y-40225361D01*
X72143217Y-40262949D01*
X72040860Y-40280996D01*
X71936944Y-40278820D01*
X71835424Y-40256499D01*
X71740182Y-40214889D01*
X71654834Y-40155570D01*
X71582630Y-40080801D01*
X71526328Y-39993437D01*
X71488065Y-39896797D01*
X71469301Y-39794561D01*
X71470753Y-39690634D01*
X71492362Y-39588970D01*
X71533309Y-39493433D01*
X71592030Y-39407675D01*
X71666294Y-39334949D01*
X71753264Y-39278037D01*
X71849635Y-39239101D01*
X71951729Y-39219626D01*
X72055668Y-39220352D01*
X72055668Y-39220352D01*
G37*
G36*
X70805668Y-39220352D02*
X70907485Y-39241252D01*
X71003303Y-39281530D01*
X71089471Y-39339650D01*
X71162708Y-39413401D01*
X71220229Y-39499977D01*
X71259836Y-39596070D01*
X71279957Y-39697686D01*
X71279957Y-39697702D01*
X71280022Y-39698031D01*
X71278365Y-39816748D01*
X71278288Y-39817087D01*
X71278288Y-39817090D01*
X71255339Y-39918107D01*
X71213064Y-40013055D01*
X71153151Y-40097988D01*
X71077877Y-40169670D01*
X70990123Y-40225361D01*
X70893217Y-40262949D01*
X70790860Y-40280996D01*
X70686944Y-40278820D01*
X70585424Y-40256499D01*
X70490182Y-40214889D01*
X70404834Y-40155570D01*
X70332630Y-40080801D01*
X70276328Y-39993437D01*
X70238065Y-39896797D01*
X70219301Y-39794561D01*
X70220753Y-39690634D01*
X70242362Y-39588970D01*
X70283309Y-39493433D01*
X70342030Y-39407675D01*
X70416294Y-39334949D01*
X70503264Y-39278037D01*
X70599635Y-39239101D01*
X70701729Y-39219626D01*
X70805668Y-39220352D01*
X70805668Y-39220352D01*
G37*
G36*
X70030000Y-40280000D02*
X68970000Y-40280000D01*
X68970000Y-39220000D01*
X70030000Y-39220000D01*
X70030000Y-40280000D01*
X70030000Y-40280000D01*
G37*
G36*
X55630000Y-40180000D02*
X54370000Y-40180000D01*
X54370000Y-39220000D01*
X55630000Y-39220000D01*
X55630000Y-40180000D01*
X55630000Y-40180000D01*
G37*
G36*
X62630000Y-40180000D02*
X61370000Y-40180000D01*
X61370000Y-39220000D01*
X62630000Y-39220000D01*
X62630000Y-40180000D01*
X62630000Y-40180000D01*
G37*
G36*
X57130000Y-40180000D02*
X55870000Y-40180000D01*
X55870000Y-39220000D01*
X57130000Y-39220000D01*
X57130000Y-40180000D01*
X57130000Y-40180000D01*
G37*
G36*
X48280000Y-39530000D02*
X47320000Y-39530000D01*
X47320000Y-37970000D01*
X48280000Y-37970000D01*
X48280000Y-39530000D01*
X48280000Y-39530000D01*
G37*
G36*
X50180000Y-39530000D02*
X49220000Y-39530000D01*
X49220000Y-37970000D01*
X50180000Y-37970000D01*
X50180000Y-39530000D01*
X50180000Y-39530000D01*
G37*
G36*
X52530000Y-39255000D02*
X51470000Y-39255000D01*
X51470000Y-37695000D01*
X52530000Y-37695000D01*
X52530000Y-39255000D01*
X52530000Y-39255000D01*
G37*
G36*
X58980000Y-39155000D02*
X57320000Y-39155000D01*
X57320000Y-37745000D01*
X58980000Y-37745000D01*
X58980000Y-39155000D01*
X58980000Y-39155000D01*
G37*
G36*
X61180000Y-39155000D02*
X59520000Y-39155000D01*
X59520000Y-37745000D01*
X61180000Y-37745000D01*
X61180000Y-39155000D01*
X61180000Y-39155000D01*
G37*
G36*
X46880000Y-39030000D02*
X45620000Y-39030000D01*
X45620000Y-38070000D01*
X46880000Y-38070000D01*
X46880000Y-39030000D01*
X46880000Y-39030000D01*
G37*
G36*
X57130000Y-38780000D02*
X55870000Y-38780000D01*
X55870000Y-37820000D01*
X57130000Y-37820000D01*
X57130000Y-38780000D01*
X57130000Y-38780000D01*
G37*
G36*
X62630000Y-38780000D02*
X61370000Y-38780000D01*
X61370000Y-37820000D01*
X62630000Y-37820000D01*
X62630000Y-38780000D01*
X62630000Y-38780000D01*
G37*
G36*
X55630000Y-38780000D02*
X54370000Y-38780000D01*
X54370000Y-37820000D01*
X55630000Y-37820000D01*
X55630000Y-38780000D01*
X55630000Y-38780000D01*
G37*
M02*
