%TF.GenerationSoftware,KiCad,Pcbnew,5.1.9*%
%TF.CreationDate,2021-02-28T20:30:44+01:00*%
%TF.ProjectId,can-usb-dongle,63616e2d-7573-4622-9d64-6f6e676c652e,rev?*%
%TF.SameCoordinates,Original*%
%TF.FileFunction,Soldermask,Top*%
%TF.FilePolarity,Negative*%
%FSLAX46Y46*%
G04 Gerber Fmt 4.6, Leading zero omitted, Abs format (unit mm)*
G04 Created by KiCad (PCBNEW 5.1.9) date 2021-02-28 20:30:44*
%MOMM*%
%LPD*%
G01*
G04 APERTURE LIST*
%ADD10C,0.910000*%
%ADD11O,2.210000X1.960000*%
%ADD12C,0.100000*%
G04 APERTURE END LIST*
%TO.C,J3*%
G36*
G01*
X50765000Y-43900000D02*
X52215000Y-43900000D01*
G75*
G02*
X52345000Y-44030000I0J-130000D01*
G01*
X52345000Y-45830000D01*
G75*
G02*
X52215000Y-45960000I-130000J0D01*
G01*
X50765000Y-45960000D01*
G75*
G02*
X50635000Y-45830000I0J130000D01*
G01*
X50635000Y-44030000D01*
G75*
G02*
X50765000Y-43900000I130000J0D01*
G01*
G37*
G36*
G01*
X50765000Y-54040000D02*
X52215000Y-54040000D01*
G75*
G02*
X52345000Y-54170000I0J-130000D01*
G01*
X52345000Y-55970000D01*
G75*
G02*
X52215000Y-56100000I-130000J0D01*
G01*
X50765000Y-56100000D01*
G75*
G02*
X50635000Y-55970000I0J130000D01*
G01*
X50635000Y-54170000D01*
G75*
G02*
X50765000Y-54040000I130000J0D01*
G01*
G37*
G36*
G01*
X46585000Y-43900000D02*
X48035000Y-43900000D01*
G75*
G02*
X48165000Y-44030000I0J-130000D01*
G01*
X48165000Y-45830000D01*
G75*
G02*
X48035000Y-45960000I-130000J0D01*
G01*
X46585000Y-45960000D01*
G75*
G02*
X46455000Y-45830000I0J130000D01*
G01*
X46455000Y-44030000D01*
G75*
G02*
X46585000Y-43900000I130000J0D01*
G01*
G37*
G36*
G01*
X46585000Y-54040000D02*
X48035000Y-54040000D01*
G75*
G02*
X48165000Y-54170000I0J-130000D01*
G01*
X48165000Y-55970000D01*
G75*
G02*
X48035000Y-56100000I-130000J0D01*
G01*
X46585000Y-56100000D01*
G75*
G02*
X46455000Y-55970000I0J130000D01*
G01*
X46455000Y-54170000D01*
G75*
G02*
X46585000Y-54040000I130000J0D01*
G01*
G37*
G36*
G01*
X51674999Y-46345000D02*
X53125001Y-46345000D01*
G75*
G02*
X53255000Y-46474999I0J-129999D01*
G01*
X53255000Y-47075001D01*
G75*
G02*
X53125001Y-47205000I-129999J0D01*
G01*
X51674999Y-47205000D01*
G75*
G02*
X51545000Y-47075001I0J129999D01*
G01*
X51545000Y-46474999D01*
G75*
G02*
X51674999Y-46345000I129999J0D01*
G01*
G37*
G36*
G01*
X51674999Y-47120000D02*
X53125001Y-47120000D01*
G75*
G02*
X53255000Y-47249999I0J-129999D01*
G01*
X53255000Y-47850001D01*
G75*
G02*
X53125001Y-47980000I-129999J0D01*
G01*
X51674999Y-47980000D01*
G75*
G02*
X51545000Y-47850001I0J129999D01*
G01*
X51545000Y-47249999D01*
G75*
G02*
X51674999Y-47120000I129999J0D01*
G01*
G37*
G36*
G01*
X51674999Y-52795000D02*
X53125001Y-52795000D01*
G75*
G02*
X53255000Y-52924999I0J-129999D01*
G01*
X53255000Y-53525001D01*
G75*
G02*
X53125001Y-53655000I-129999J0D01*
G01*
X51674999Y-53655000D01*
G75*
G02*
X51545000Y-53525001I0J129999D01*
G01*
X51545000Y-52924999D01*
G75*
G02*
X51674999Y-52795000I129999J0D01*
G01*
G37*
G36*
G01*
X51674999Y-52020000D02*
X53125001Y-52020000D01*
G75*
G02*
X53255000Y-52149999I0J-129999D01*
G01*
X53255000Y-52750001D01*
G75*
G02*
X53125001Y-52880000I-129999J0D01*
G01*
X51674999Y-52880000D01*
G75*
G02*
X51545000Y-52750001I0J129999D01*
G01*
X51545000Y-52149999D01*
G75*
G02*
X51674999Y-52020000I129999J0D01*
G01*
G37*
G36*
G01*
X51675000Y-47970000D02*
X53125000Y-47970000D01*
G75*
G02*
X53255000Y-48100000I0J-130000D01*
G01*
X53255000Y-48400000D01*
G75*
G02*
X53125000Y-48530000I-130000J0D01*
G01*
X51675000Y-48530000D01*
G75*
G02*
X51545000Y-48400000I0J130000D01*
G01*
X51545000Y-48100000D01*
G75*
G02*
X51675000Y-47970000I130000J0D01*
G01*
G37*
G36*
G01*
X51675000Y-48470000D02*
X53125000Y-48470000D01*
G75*
G02*
X53255000Y-48600000I0J-130000D01*
G01*
X53255000Y-48900000D01*
G75*
G02*
X53125000Y-49030000I-130000J0D01*
G01*
X51675000Y-49030000D01*
G75*
G02*
X51545000Y-48900000I0J130000D01*
G01*
X51545000Y-48600000D01*
G75*
G02*
X51675000Y-48470000I130000J0D01*
G01*
G37*
G36*
G01*
X51675000Y-48970000D02*
X53125000Y-48970000D01*
G75*
G02*
X53255000Y-49100000I0J-130000D01*
G01*
X53255000Y-49400000D01*
G75*
G02*
X53125000Y-49530000I-130000J0D01*
G01*
X51675000Y-49530000D01*
G75*
G02*
X51545000Y-49400000I0J130000D01*
G01*
X51545000Y-49100000D01*
G75*
G02*
X51675000Y-48970000I130000J0D01*
G01*
G37*
G36*
G01*
X51675000Y-49470000D02*
X53125000Y-49470000D01*
G75*
G02*
X53255000Y-49600000I0J-130000D01*
G01*
X53255000Y-49900000D01*
G75*
G02*
X53125000Y-50030000I-130000J0D01*
G01*
X51675000Y-50030000D01*
G75*
G02*
X51545000Y-49900000I0J130000D01*
G01*
X51545000Y-49600000D01*
G75*
G02*
X51675000Y-49470000I130000J0D01*
G01*
G37*
G36*
G01*
X51675000Y-49970000D02*
X53125000Y-49970000D01*
G75*
G02*
X53255000Y-50100000I0J-130000D01*
G01*
X53255000Y-50400000D01*
G75*
G02*
X53125000Y-50530000I-130000J0D01*
G01*
X51675000Y-50530000D01*
G75*
G02*
X51545000Y-50400000I0J130000D01*
G01*
X51545000Y-50100000D01*
G75*
G02*
X51675000Y-49970000I130000J0D01*
G01*
G37*
G36*
G01*
X51675000Y-50470000D02*
X53125000Y-50470000D01*
G75*
G02*
X53255000Y-50600000I0J-130000D01*
G01*
X53255000Y-50900000D01*
G75*
G02*
X53125000Y-51030000I-130000J0D01*
G01*
X51675000Y-51030000D01*
G75*
G02*
X51545000Y-50900000I0J130000D01*
G01*
X51545000Y-50600000D01*
G75*
G02*
X51675000Y-50470000I130000J0D01*
G01*
G37*
G36*
G01*
X51675000Y-50970000D02*
X53125000Y-50970000D01*
G75*
G02*
X53255000Y-51100000I0J-130000D01*
G01*
X53255000Y-51400000D01*
G75*
G02*
X53125000Y-51530000I-130000J0D01*
G01*
X51675000Y-51530000D01*
G75*
G02*
X51545000Y-51400000I0J130000D01*
G01*
X51545000Y-51100000D01*
G75*
G02*
X51675000Y-50970000I130000J0D01*
G01*
G37*
G36*
G01*
X51675000Y-51470000D02*
X53125000Y-51470000D01*
G75*
G02*
X53255000Y-51600000I0J-130000D01*
G01*
X53255000Y-51900000D01*
G75*
G02*
X53125000Y-52030000I-130000J0D01*
G01*
X51675000Y-52030000D01*
G75*
G02*
X51545000Y-51900000I0J130000D01*
G01*
X51545000Y-51600000D01*
G75*
G02*
X51675000Y-51470000I130000J0D01*
G01*
G37*
D10*
X50960000Y-47110000D03*
X50960000Y-52890000D03*
%TD*%
%TO.C,S1*%
G36*
G01*
X53830000Y-61100000D02*
X53830000Y-61850000D01*
G75*
G02*
X53700000Y-61980000I-130000J0D01*
G01*
X52700000Y-61980000D01*
G75*
G02*
X52570000Y-61850000I0J130000D01*
G01*
X52570000Y-61100000D01*
G75*
G02*
X52700000Y-60970000I130000J0D01*
G01*
X53700000Y-60970000D01*
G75*
G02*
X53830000Y-61100000I0J-130000D01*
G01*
G37*
G36*
G01*
X47830000Y-61100000D02*
X47830000Y-61850000D01*
G75*
G02*
X47700000Y-61980000I-130000J0D01*
G01*
X46700000Y-61980000D01*
G75*
G02*
X46570000Y-61850000I0J130000D01*
G01*
X46570000Y-61100000D01*
G75*
G02*
X46700000Y-60970000I130000J0D01*
G01*
X47700000Y-60970000D01*
G75*
G02*
X47830000Y-61100000I0J-130000D01*
G01*
G37*
G36*
G01*
X53830000Y-57350000D02*
X53830000Y-58100000D01*
G75*
G02*
X53700000Y-58230000I-130000J0D01*
G01*
X52700000Y-58230000D01*
G75*
G02*
X52570000Y-58100000I0J130000D01*
G01*
X52570000Y-57350000D01*
G75*
G02*
X52700000Y-57220000I130000J0D01*
G01*
X53700000Y-57220000D01*
G75*
G02*
X53830000Y-57350000I0J-130000D01*
G01*
G37*
G36*
G01*
X47830000Y-57350000D02*
X47830000Y-58100000D01*
G75*
G02*
X47700000Y-58230000I-130000J0D01*
G01*
X46700000Y-58230000D01*
G75*
G02*
X46570000Y-58100000I0J130000D01*
G01*
X46570000Y-57350000D01*
G75*
G02*
X46700000Y-57220000I130000J0D01*
G01*
X47700000Y-57220000D01*
G75*
G02*
X47830000Y-57350000I0J-130000D01*
G01*
G37*
%TD*%
%TO.C,C2*%
G36*
G01*
X57560000Y-57585000D02*
X57560000Y-57115000D01*
G75*
G02*
X57765000Y-56910000I205000J0D01*
G01*
X58175000Y-56910000D01*
G75*
G02*
X58380000Y-57115000I0J-205000D01*
G01*
X58380000Y-57585000D01*
G75*
G02*
X58175000Y-57790000I-205000J0D01*
G01*
X57765000Y-57790000D01*
G75*
G02*
X57560000Y-57585000I0J205000D01*
G01*
G37*
G36*
G01*
X58520000Y-57585000D02*
X58520000Y-57115000D01*
G75*
G02*
X58725000Y-56910000I205000J0D01*
G01*
X59135000Y-56910000D01*
G75*
G02*
X59340000Y-57115000I0J-205000D01*
G01*
X59340000Y-57585000D01*
G75*
G02*
X59135000Y-57790000I-205000J0D01*
G01*
X58725000Y-57790000D01*
G75*
G02*
X58520000Y-57585000I0J205000D01*
G01*
G37*
%TD*%
%TO.C,C10*%
G36*
G01*
X72670000Y-46935000D02*
X72670000Y-46465000D01*
G75*
G02*
X72875000Y-46260000I205000J0D01*
G01*
X73285000Y-46260000D01*
G75*
G02*
X73490000Y-46465000I0J-205000D01*
G01*
X73490000Y-46935000D01*
G75*
G02*
X73285000Y-47140000I-205000J0D01*
G01*
X72875000Y-47140000D01*
G75*
G02*
X72670000Y-46935000I0J205000D01*
G01*
G37*
G36*
G01*
X71710000Y-46935000D02*
X71710000Y-46465000D01*
G75*
G02*
X71915000Y-46260000I205000J0D01*
G01*
X72325000Y-46260000D01*
G75*
G02*
X72530000Y-46465000I0J-205000D01*
G01*
X72530000Y-46935000D01*
G75*
G02*
X72325000Y-47140000I-205000J0D01*
G01*
X71915000Y-47140000D01*
G75*
G02*
X71710000Y-46935000I0J205000D01*
G01*
G37*
%TD*%
%TO.C,R1*%
G36*
G01*
X58340000Y-58300000D02*
X58340000Y-58800000D01*
G75*
G02*
X58140000Y-59000000I-200000J0D01*
G01*
X57740000Y-59000000D01*
G75*
G02*
X57540000Y-58800000I0J200000D01*
G01*
X57540000Y-58300000D01*
G75*
G02*
X57740000Y-58100000I200000J0D01*
G01*
X58140000Y-58100000D01*
G75*
G02*
X58340000Y-58300000I0J-200000D01*
G01*
G37*
G36*
G01*
X59360000Y-58300000D02*
X59360000Y-58800000D01*
G75*
G02*
X59160000Y-59000000I-200000J0D01*
G01*
X58760000Y-59000000D01*
G75*
G02*
X58560000Y-58800000I0J200000D01*
G01*
X58560000Y-58300000D01*
G75*
G02*
X58760000Y-58100000I200000J0D01*
G01*
X59160000Y-58100000D01*
G75*
G02*
X59360000Y-58300000I0J-200000D01*
G01*
G37*
%TD*%
%TO.C,C9*%
G36*
G01*
X71710000Y-48035000D02*
X71710000Y-47565000D01*
G75*
G02*
X71915000Y-47360000I205000J0D01*
G01*
X72325000Y-47360000D01*
G75*
G02*
X72530000Y-47565000I0J-205000D01*
G01*
X72530000Y-48035000D01*
G75*
G02*
X72325000Y-48240000I-205000J0D01*
G01*
X71915000Y-48240000D01*
G75*
G02*
X71710000Y-48035000I0J205000D01*
G01*
G37*
G36*
G01*
X72670000Y-48035000D02*
X72670000Y-47565000D01*
G75*
G02*
X72875000Y-47360000I205000J0D01*
G01*
X73285000Y-47360000D01*
G75*
G02*
X73490000Y-47565000I0J-205000D01*
G01*
X73490000Y-48035000D01*
G75*
G02*
X73285000Y-48240000I-205000J0D01*
G01*
X72875000Y-48240000D01*
G75*
G02*
X72670000Y-48035000I0J205000D01*
G01*
G37*
%TD*%
%TO.C,F1*%
G36*
G01*
X55949999Y-43770000D02*
X57250001Y-43770000D01*
G75*
G02*
X57380000Y-43899999I0J-129999D01*
G01*
X57380000Y-44600001D01*
G75*
G02*
X57250001Y-44730000I-129999J0D01*
G01*
X55949999Y-44730000D01*
G75*
G02*
X55820000Y-44600001I0J129999D01*
G01*
X55820000Y-43899999D01*
G75*
G02*
X55949999Y-43770000I129999J0D01*
G01*
G37*
G36*
G01*
X55949999Y-45670000D02*
X57250001Y-45670000D01*
G75*
G02*
X57380000Y-45799999I0J-129999D01*
G01*
X57380000Y-46500001D01*
G75*
G02*
X57250001Y-46630000I-129999J0D01*
G01*
X55949999Y-46630000D01*
G75*
G02*
X55820000Y-46500001I0J129999D01*
G01*
X55820000Y-45799999D01*
G75*
G02*
X55949999Y-45670000I129999J0D01*
G01*
G37*
%TD*%
%TO.C,C1*%
G36*
G01*
X73335000Y-55910000D02*
X72865000Y-55910000D01*
G75*
G02*
X72660000Y-55705000I0J205000D01*
G01*
X72660000Y-55295000D01*
G75*
G02*
X72865000Y-55090000I205000J0D01*
G01*
X73335000Y-55090000D01*
G75*
G02*
X73540000Y-55295000I0J-205000D01*
G01*
X73540000Y-55705000D01*
G75*
G02*
X73335000Y-55910000I-205000J0D01*
G01*
G37*
G36*
G01*
X73335000Y-56870000D02*
X72865000Y-56870000D01*
G75*
G02*
X72660000Y-56665000I0J205000D01*
G01*
X72660000Y-56255000D01*
G75*
G02*
X72865000Y-56050000I205000J0D01*
G01*
X73335000Y-56050000D01*
G75*
G02*
X73540000Y-56255000I0J-205000D01*
G01*
X73540000Y-56665000D01*
G75*
G02*
X73335000Y-56870000I-205000J0D01*
G01*
G37*
%TD*%
%TO.C,C3*%
G36*
G01*
X63010000Y-41865000D02*
X63010000Y-42335000D01*
G75*
G02*
X62805000Y-42540000I-205000J0D01*
G01*
X62395000Y-42540000D01*
G75*
G02*
X62190000Y-42335000I0J205000D01*
G01*
X62190000Y-41865000D01*
G75*
G02*
X62395000Y-41660000I205000J0D01*
G01*
X62805000Y-41660000D01*
G75*
G02*
X63010000Y-41865000I0J-205000D01*
G01*
G37*
G36*
G01*
X62050000Y-41865000D02*
X62050000Y-42335000D01*
G75*
G02*
X61845000Y-42540000I-205000J0D01*
G01*
X61435000Y-42540000D01*
G75*
G02*
X61230000Y-42335000I0J205000D01*
G01*
X61230000Y-41865000D01*
G75*
G02*
X61435000Y-41660000I205000J0D01*
G01*
X61845000Y-41660000D01*
G75*
G02*
X62050000Y-41865000I0J-205000D01*
G01*
G37*
%TD*%
%TO.C,C4*%
G36*
G01*
X75890000Y-52515000D02*
X75890000Y-52985000D01*
G75*
G02*
X75685000Y-53190000I-205000J0D01*
G01*
X75275000Y-53190000D01*
G75*
G02*
X75070000Y-52985000I0J205000D01*
G01*
X75070000Y-52515000D01*
G75*
G02*
X75275000Y-52310000I205000J0D01*
G01*
X75685000Y-52310000D01*
G75*
G02*
X75890000Y-52515000I0J-205000D01*
G01*
G37*
G36*
G01*
X74930000Y-52515000D02*
X74930000Y-52985000D01*
G75*
G02*
X74725000Y-53190000I-205000J0D01*
G01*
X74315000Y-53190000D01*
G75*
G02*
X74110000Y-52985000I0J205000D01*
G01*
X74110000Y-52515000D01*
G75*
G02*
X74315000Y-52310000I205000J0D01*
G01*
X74725000Y-52310000D01*
G75*
G02*
X74930000Y-52515000I0J-205000D01*
G01*
G37*
%TD*%
%TO.C,C5*%
G36*
G01*
X62050000Y-42865000D02*
X62050000Y-43335000D01*
G75*
G02*
X61845000Y-43540000I-205000J0D01*
G01*
X61435000Y-43540000D01*
G75*
G02*
X61230000Y-43335000I0J205000D01*
G01*
X61230000Y-42865000D01*
G75*
G02*
X61435000Y-42660000I205000J0D01*
G01*
X61845000Y-42660000D01*
G75*
G02*
X62050000Y-42865000I0J-205000D01*
G01*
G37*
G36*
G01*
X63010000Y-42865000D02*
X63010000Y-43335000D01*
G75*
G02*
X62805000Y-43540000I-205000J0D01*
G01*
X62395000Y-43540000D01*
G75*
G02*
X62190000Y-43335000I0J205000D01*
G01*
X62190000Y-42865000D01*
G75*
G02*
X62395000Y-42660000I205000J0D01*
G01*
X62805000Y-42660000D01*
G75*
G02*
X63010000Y-42865000I0J-205000D01*
G01*
G37*
%TD*%
%TO.C,C6*%
G36*
G01*
X59335000Y-53270000D02*
X58865000Y-53270000D01*
G75*
G02*
X58660000Y-53065000I0J205000D01*
G01*
X58660000Y-52655000D01*
G75*
G02*
X58865000Y-52450000I205000J0D01*
G01*
X59335000Y-52450000D01*
G75*
G02*
X59540000Y-52655000I0J-205000D01*
G01*
X59540000Y-53065000D01*
G75*
G02*
X59335000Y-53270000I-205000J0D01*
G01*
G37*
G36*
G01*
X59335000Y-52310000D02*
X58865000Y-52310000D01*
G75*
G02*
X58660000Y-52105000I0J205000D01*
G01*
X58660000Y-51695000D01*
G75*
G02*
X58865000Y-51490000I205000J0D01*
G01*
X59335000Y-51490000D01*
G75*
G02*
X59540000Y-51695000I0J-205000D01*
G01*
X59540000Y-52105000D01*
G75*
G02*
X59335000Y-52310000I-205000J0D01*
G01*
G37*
%TD*%
%TO.C,C7*%
G36*
G01*
X68750000Y-55135000D02*
X68750000Y-54665000D01*
G75*
G02*
X68955000Y-54460000I205000J0D01*
G01*
X69365000Y-54460000D01*
G75*
G02*
X69570000Y-54665000I0J-205000D01*
G01*
X69570000Y-55135000D01*
G75*
G02*
X69365000Y-55340000I-205000J0D01*
G01*
X68955000Y-55340000D01*
G75*
G02*
X68750000Y-55135000I0J205000D01*
G01*
G37*
G36*
G01*
X67790000Y-55135000D02*
X67790000Y-54665000D01*
G75*
G02*
X67995000Y-54460000I205000J0D01*
G01*
X68405000Y-54460000D01*
G75*
G02*
X68610000Y-54665000I0J-205000D01*
G01*
X68610000Y-55135000D01*
G75*
G02*
X68405000Y-55340000I-205000J0D01*
G01*
X67995000Y-55340000D01*
G75*
G02*
X67790000Y-55135000I0J205000D01*
G01*
G37*
%TD*%
%TO.C,C8*%
G36*
G01*
X73630000Y-60865000D02*
X73630000Y-61335000D01*
G75*
G02*
X73425000Y-61540000I-205000J0D01*
G01*
X73015000Y-61540000D01*
G75*
G02*
X72810000Y-61335000I0J205000D01*
G01*
X72810000Y-60865000D01*
G75*
G02*
X73015000Y-60660000I205000J0D01*
G01*
X73425000Y-60660000D01*
G75*
G02*
X73630000Y-60865000I0J-205000D01*
G01*
G37*
G36*
G01*
X74590000Y-60865000D02*
X74590000Y-61335000D01*
G75*
G02*
X74385000Y-61540000I-205000J0D01*
G01*
X73975000Y-61540000D01*
G75*
G02*
X73770000Y-61335000I0J205000D01*
G01*
X73770000Y-60865000D01*
G75*
G02*
X73975000Y-60660000I205000J0D01*
G01*
X74385000Y-60660000D01*
G75*
G02*
X74590000Y-60865000I0J-205000D01*
G01*
G37*
%TD*%
%TO.C,C11*%
G36*
G01*
X53580000Y-42865000D02*
X53580000Y-43335000D01*
G75*
G02*
X53375000Y-43540000I-205000J0D01*
G01*
X52965000Y-43540000D01*
G75*
G02*
X52760000Y-43335000I0J205000D01*
G01*
X52760000Y-42865000D01*
G75*
G02*
X52965000Y-42660000I205000J0D01*
G01*
X53375000Y-42660000D01*
G75*
G02*
X53580000Y-42865000I0J-205000D01*
G01*
G37*
G36*
G01*
X54540000Y-42865000D02*
X54540000Y-43335000D01*
G75*
G02*
X54335000Y-43540000I-205000J0D01*
G01*
X53925000Y-43540000D01*
G75*
G02*
X53720000Y-43335000I0J205000D01*
G01*
X53720000Y-42865000D01*
G75*
G02*
X53925000Y-42660000I205000J0D01*
G01*
X54335000Y-42660000D01*
G75*
G02*
X54540000Y-42865000I0J-205000D01*
G01*
G37*
%TD*%
%TO.C,C12*%
G36*
G01*
X46390000Y-39435000D02*
X46390000Y-38965000D01*
G75*
G02*
X46595000Y-38760000I205000J0D01*
G01*
X47005000Y-38760000D01*
G75*
G02*
X47210000Y-38965000I0J-205000D01*
G01*
X47210000Y-39435000D01*
G75*
G02*
X47005000Y-39640000I-205000J0D01*
G01*
X46595000Y-39640000D01*
G75*
G02*
X46390000Y-39435000I0J205000D01*
G01*
G37*
G36*
G01*
X47350000Y-39435000D02*
X47350000Y-38965000D01*
G75*
G02*
X47555000Y-38760000I205000J0D01*
G01*
X47965000Y-38760000D01*
G75*
G02*
X48170000Y-38965000I0J-205000D01*
G01*
X48170000Y-39435000D01*
G75*
G02*
X47965000Y-39640000I-205000J0D01*
G01*
X47555000Y-39640000D01*
G75*
G02*
X47350000Y-39435000I0J205000D01*
G01*
G37*
%TD*%
%TO.C,C13*%
G36*
G01*
X50465000Y-37860000D02*
X50935000Y-37860000D01*
G75*
G02*
X51140000Y-38065000I0J-205000D01*
G01*
X51140000Y-38475000D01*
G75*
G02*
X50935000Y-38680000I-205000J0D01*
G01*
X50465000Y-38680000D01*
G75*
G02*
X50260000Y-38475000I0J205000D01*
G01*
X50260000Y-38065000D01*
G75*
G02*
X50465000Y-37860000I205000J0D01*
G01*
G37*
G36*
G01*
X50465000Y-38820000D02*
X50935000Y-38820000D01*
G75*
G02*
X51140000Y-39025000I0J-205000D01*
G01*
X51140000Y-39435000D01*
G75*
G02*
X50935000Y-39640000I-205000J0D01*
G01*
X50465000Y-39640000D01*
G75*
G02*
X50260000Y-39435000I0J205000D01*
G01*
X50260000Y-39025000D01*
G75*
G02*
X50465000Y-38820000I205000J0D01*
G01*
G37*
%TD*%
%TO.C,C14*%
G36*
G01*
X56450000Y-52735000D02*
X56450000Y-52265000D01*
G75*
G02*
X56655000Y-52060000I205000J0D01*
G01*
X57065000Y-52060000D01*
G75*
G02*
X57270000Y-52265000I0J-205000D01*
G01*
X57270000Y-52735000D01*
G75*
G02*
X57065000Y-52940000I-205000J0D01*
G01*
X56655000Y-52940000D01*
G75*
G02*
X56450000Y-52735000I0J205000D01*
G01*
G37*
G36*
G01*
X55490000Y-52735000D02*
X55490000Y-52265000D01*
G75*
G02*
X55695000Y-52060000I205000J0D01*
G01*
X56105000Y-52060000D01*
G75*
G02*
X56310000Y-52265000I0J-205000D01*
G01*
X56310000Y-52735000D01*
G75*
G02*
X56105000Y-52940000I-205000J0D01*
G01*
X55695000Y-52940000D01*
G75*
G02*
X55490000Y-52735000I0J205000D01*
G01*
G37*
%TD*%
%TO.C,D1*%
G36*
G01*
X66555000Y-58885000D02*
X66555000Y-59515000D01*
G75*
G02*
X66265000Y-59805000I-290000J0D01*
G01*
X65685000Y-59805000D01*
G75*
G02*
X65395000Y-59515000I0J290000D01*
G01*
X65395000Y-58885000D01*
G75*
G02*
X65685000Y-58595000I290000J0D01*
G01*
X66265000Y-58595000D01*
G75*
G02*
X66555000Y-58885000I0J-290000D01*
G01*
G37*
G36*
G01*
X65005000Y-58885000D02*
X65005000Y-59515000D01*
G75*
G02*
X64715000Y-59805000I-290000J0D01*
G01*
X64135000Y-59805000D01*
G75*
G02*
X63845000Y-59515000I0J290000D01*
G01*
X63845000Y-58885000D01*
G75*
G02*
X64135000Y-58595000I290000J0D01*
G01*
X64715000Y-58595000D01*
G75*
G02*
X65005000Y-58885000I0J-290000D01*
G01*
G37*
%TD*%
%TO.C,D2*%
G36*
G01*
X65005000Y-60485000D02*
X65005000Y-61115000D01*
G75*
G02*
X64715000Y-61405000I-290000J0D01*
G01*
X64135000Y-61405000D01*
G75*
G02*
X63845000Y-61115000I0J290000D01*
G01*
X63845000Y-60485000D01*
G75*
G02*
X64135000Y-60195000I290000J0D01*
G01*
X64715000Y-60195000D01*
G75*
G02*
X65005000Y-60485000I0J-290000D01*
G01*
G37*
G36*
G01*
X66555000Y-60485000D02*
X66555000Y-61115000D01*
G75*
G02*
X66265000Y-61405000I-290000J0D01*
G01*
X65685000Y-61405000D01*
G75*
G02*
X65395000Y-61115000I0J290000D01*
G01*
X65395000Y-60485000D01*
G75*
G02*
X65685000Y-60195000I290000J0D01*
G01*
X66265000Y-60195000D01*
G75*
G02*
X66555000Y-60485000I0J-290000D01*
G01*
G37*
%TD*%
%TO.C,D3*%
G36*
G01*
X66580000Y-62085000D02*
X66580000Y-62715000D01*
G75*
G02*
X66290000Y-63005000I-290000J0D01*
G01*
X65710000Y-63005000D01*
G75*
G02*
X65420000Y-62715000I0J290000D01*
G01*
X65420000Y-62085000D01*
G75*
G02*
X65710000Y-61795000I290000J0D01*
G01*
X66290000Y-61795000D01*
G75*
G02*
X66580000Y-62085000I0J-290000D01*
G01*
G37*
G36*
G01*
X65030000Y-62085000D02*
X65030000Y-62715000D01*
G75*
G02*
X64740000Y-63005000I-290000J0D01*
G01*
X64160000Y-63005000D01*
G75*
G02*
X63870000Y-62715000I0J290000D01*
G01*
X63870000Y-62085000D01*
G75*
G02*
X64160000Y-61795000I290000J0D01*
G01*
X64740000Y-61795000D01*
G75*
G02*
X65030000Y-62085000I0J-290000D01*
G01*
G37*
%TD*%
%TO.C,R2*%
G36*
G01*
X73590000Y-62150000D02*
X73590000Y-62650000D01*
G75*
G02*
X73390000Y-62850000I-200000J0D01*
G01*
X72990000Y-62850000D01*
G75*
G02*
X72790000Y-62650000I0J200000D01*
G01*
X72790000Y-62150000D01*
G75*
G02*
X72990000Y-61950000I200000J0D01*
G01*
X73390000Y-61950000D01*
G75*
G02*
X73590000Y-62150000I0J-200000D01*
G01*
G37*
G36*
G01*
X74610000Y-62150000D02*
X74610000Y-62650000D01*
G75*
G02*
X74410000Y-62850000I-200000J0D01*
G01*
X74010000Y-62850000D01*
G75*
G02*
X73810000Y-62650000I0J200000D01*
G01*
X73810000Y-62150000D01*
G75*
G02*
X74010000Y-61950000I200000J0D01*
G01*
X74410000Y-61950000D01*
G75*
G02*
X74610000Y-62150000I0J-200000D01*
G01*
G37*
%TD*%
%TO.C,R3*%
G36*
G01*
X72400000Y-62150000D02*
X72400000Y-62650000D01*
G75*
G02*
X72200000Y-62850000I-200000J0D01*
G01*
X71800000Y-62850000D01*
G75*
G02*
X71600000Y-62650000I0J200000D01*
G01*
X71600000Y-62150000D01*
G75*
G02*
X71800000Y-61950000I200000J0D01*
G01*
X72200000Y-61950000D01*
G75*
G02*
X72400000Y-62150000I0J-200000D01*
G01*
G37*
G36*
G01*
X71380000Y-62150000D02*
X71380000Y-62650000D01*
G75*
G02*
X71180000Y-62850000I-200000J0D01*
G01*
X70780000Y-62850000D01*
G75*
G02*
X70580000Y-62650000I0J200000D01*
G01*
X70580000Y-62150000D01*
G75*
G02*
X70780000Y-61950000I200000J0D01*
G01*
X71180000Y-61950000D01*
G75*
G02*
X71380000Y-62150000I0J-200000D01*
G01*
G37*
%TD*%
%TO.C,R4*%
G36*
G01*
X62700000Y-59450000D02*
X62700000Y-58950000D01*
G75*
G02*
X62900000Y-58750000I200000J0D01*
G01*
X63300000Y-58750000D01*
G75*
G02*
X63500000Y-58950000I0J-200000D01*
G01*
X63500000Y-59450000D01*
G75*
G02*
X63300000Y-59650000I-200000J0D01*
G01*
X62900000Y-59650000D01*
G75*
G02*
X62700000Y-59450000I0J200000D01*
G01*
G37*
G36*
G01*
X61680000Y-59450000D02*
X61680000Y-58950000D01*
G75*
G02*
X61880000Y-58750000I200000J0D01*
G01*
X62280000Y-58750000D01*
G75*
G02*
X62480000Y-58950000I0J-200000D01*
G01*
X62480000Y-59450000D01*
G75*
G02*
X62280000Y-59650000I-200000J0D01*
G01*
X61880000Y-59650000D01*
G75*
G02*
X61680000Y-59450000I0J200000D01*
G01*
G37*
%TD*%
%TO.C,R5*%
G36*
G01*
X62710000Y-61050000D02*
X62710000Y-60550000D01*
G75*
G02*
X62910000Y-60350000I200000J0D01*
G01*
X63310000Y-60350000D01*
G75*
G02*
X63510000Y-60550000I0J-200000D01*
G01*
X63510000Y-61050000D01*
G75*
G02*
X63310000Y-61250000I-200000J0D01*
G01*
X62910000Y-61250000D01*
G75*
G02*
X62710000Y-61050000I0J200000D01*
G01*
G37*
G36*
G01*
X61690000Y-61050000D02*
X61690000Y-60550000D01*
G75*
G02*
X61890000Y-60350000I200000J0D01*
G01*
X62290000Y-60350000D01*
G75*
G02*
X62490000Y-60550000I0J-200000D01*
G01*
X62490000Y-61050000D01*
G75*
G02*
X62290000Y-61250000I-200000J0D01*
G01*
X61890000Y-61250000D01*
G75*
G02*
X61690000Y-61050000I0J200000D01*
G01*
G37*
%TD*%
%TO.C,R6*%
G36*
G01*
X61690000Y-62650000D02*
X61690000Y-62150000D01*
G75*
G02*
X61890000Y-61950000I200000J0D01*
G01*
X62290000Y-61950000D01*
G75*
G02*
X62490000Y-62150000I0J-200000D01*
G01*
X62490000Y-62650000D01*
G75*
G02*
X62290000Y-62850000I-200000J0D01*
G01*
X61890000Y-62850000D01*
G75*
G02*
X61690000Y-62650000I0J200000D01*
G01*
G37*
G36*
G01*
X62710000Y-62650000D02*
X62710000Y-62150000D01*
G75*
G02*
X62910000Y-61950000I200000J0D01*
G01*
X63310000Y-61950000D01*
G75*
G02*
X63510000Y-62150000I0J-200000D01*
G01*
X63510000Y-62650000D01*
G75*
G02*
X63310000Y-62850000I-200000J0D01*
G01*
X62910000Y-62850000D01*
G75*
G02*
X62710000Y-62650000I0J200000D01*
G01*
G37*
%TD*%
%TO.C,R7*%
G36*
G01*
X67520000Y-39850000D02*
X67520000Y-40350000D01*
G75*
G02*
X67320000Y-40550000I-200000J0D01*
G01*
X66920000Y-40550000D01*
G75*
G02*
X66720000Y-40350000I0J200000D01*
G01*
X66720000Y-39850000D01*
G75*
G02*
X66920000Y-39650000I200000J0D01*
G01*
X67320000Y-39650000D01*
G75*
G02*
X67520000Y-39850000I0J-200000D01*
G01*
G37*
G36*
G01*
X66500000Y-39850000D02*
X66500000Y-40350000D01*
G75*
G02*
X66300000Y-40550000I-200000J0D01*
G01*
X65900000Y-40550000D01*
G75*
G02*
X65700000Y-40350000I0J200000D01*
G01*
X65700000Y-39850000D01*
G75*
G02*
X65900000Y-39650000I200000J0D01*
G01*
X66300000Y-39650000D01*
G75*
G02*
X66500000Y-39850000I0J-200000D01*
G01*
G37*
%TD*%
%TO.C,R8*%
G36*
G01*
X70350000Y-45410000D02*
X69850000Y-45410000D01*
G75*
G02*
X69650000Y-45210000I0J200000D01*
G01*
X69650000Y-44810000D01*
G75*
G02*
X69850000Y-44610000I200000J0D01*
G01*
X70350000Y-44610000D01*
G75*
G02*
X70550000Y-44810000I0J-200000D01*
G01*
X70550000Y-45210000D01*
G75*
G02*
X70350000Y-45410000I-200000J0D01*
G01*
G37*
G36*
G01*
X70350000Y-44390000D02*
X69850000Y-44390000D01*
G75*
G02*
X69650000Y-44190000I0J200000D01*
G01*
X69650000Y-43790000D01*
G75*
G02*
X69850000Y-43590000I200000J0D01*
G01*
X70350000Y-43590000D01*
G75*
G02*
X70550000Y-43790000I0J-200000D01*
G01*
X70550000Y-44190000D01*
G75*
G02*
X70350000Y-44390000I-200000J0D01*
G01*
G37*
%TD*%
%TO.C,R9*%
G36*
G01*
X66150000Y-55610000D02*
X66650000Y-55610000D01*
G75*
G02*
X66850000Y-55810000I0J-200000D01*
G01*
X66850000Y-56210000D01*
G75*
G02*
X66650000Y-56410000I-200000J0D01*
G01*
X66150000Y-56410000D01*
G75*
G02*
X65950000Y-56210000I0J200000D01*
G01*
X65950000Y-55810000D01*
G75*
G02*
X66150000Y-55610000I200000J0D01*
G01*
G37*
G36*
G01*
X66150000Y-54590000D02*
X66650000Y-54590000D01*
G75*
G02*
X66850000Y-54790000I0J-200000D01*
G01*
X66850000Y-55190000D01*
G75*
G02*
X66650000Y-55390000I-200000J0D01*
G01*
X66150000Y-55390000D01*
G75*
G02*
X65950000Y-55190000I0J200000D01*
G01*
X65950000Y-54790000D01*
G75*
G02*
X66150000Y-54590000I200000J0D01*
G01*
G37*
%TD*%
%TO.C,R10*%
G36*
G01*
X64950000Y-54590000D02*
X65450000Y-54590000D01*
G75*
G02*
X65650000Y-54790000I0J-200000D01*
G01*
X65650000Y-55190000D01*
G75*
G02*
X65450000Y-55390000I-200000J0D01*
G01*
X64950000Y-55390000D01*
G75*
G02*
X64750000Y-55190000I0J200000D01*
G01*
X64750000Y-54790000D01*
G75*
G02*
X64950000Y-54590000I200000J0D01*
G01*
G37*
G36*
G01*
X64950000Y-55610000D02*
X65450000Y-55610000D01*
G75*
G02*
X65650000Y-55810000I0J-200000D01*
G01*
X65650000Y-56210000D01*
G75*
G02*
X65450000Y-56410000I-200000J0D01*
G01*
X64950000Y-56410000D01*
G75*
G02*
X64750000Y-56210000I0J200000D01*
G01*
X64750000Y-55810000D01*
G75*
G02*
X64950000Y-55610000I200000J0D01*
G01*
G37*
%TD*%
%TO.C,R11*%
G36*
G01*
X57750000Y-53110000D02*
X58250000Y-53110000D01*
G75*
G02*
X58450000Y-53310000I0J-200000D01*
G01*
X58450000Y-53710000D01*
G75*
G02*
X58250000Y-53910000I-200000J0D01*
G01*
X57750000Y-53910000D01*
G75*
G02*
X57550000Y-53710000I0J200000D01*
G01*
X57550000Y-53310000D01*
G75*
G02*
X57750000Y-53110000I200000J0D01*
G01*
G37*
G36*
G01*
X57750000Y-52090000D02*
X58250000Y-52090000D01*
G75*
G02*
X58450000Y-52290000I0J-200000D01*
G01*
X58450000Y-52690000D01*
G75*
G02*
X58250000Y-52890000I-200000J0D01*
G01*
X57750000Y-52890000D01*
G75*
G02*
X57550000Y-52690000I0J200000D01*
G01*
X57550000Y-52290000D01*
G75*
G02*
X57750000Y-52090000I200000J0D01*
G01*
G37*
%TD*%
%TO.C,R12*%
G36*
G01*
X55590000Y-47650000D02*
X55590000Y-47150000D01*
G75*
G02*
X55790000Y-46950000I200000J0D01*
G01*
X56190000Y-46950000D01*
G75*
G02*
X56390000Y-47150000I0J-200000D01*
G01*
X56390000Y-47650000D01*
G75*
G02*
X56190000Y-47850000I-200000J0D01*
G01*
X55790000Y-47850000D01*
G75*
G02*
X55590000Y-47650000I0J200000D01*
G01*
G37*
G36*
G01*
X56610000Y-47650000D02*
X56610000Y-47150000D01*
G75*
G02*
X56810000Y-46950000I200000J0D01*
G01*
X57210000Y-46950000D01*
G75*
G02*
X57410000Y-47150000I0J-200000D01*
G01*
X57410000Y-47650000D01*
G75*
G02*
X57210000Y-47850000I-200000J0D01*
G01*
X56810000Y-47850000D01*
G75*
G02*
X56610000Y-47650000I0J200000D01*
G01*
G37*
%TD*%
%TO.C,R13*%
G36*
G01*
X55490000Y-53750000D02*
X55490000Y-53250000D01*
G75*
G02*
X55690000Y-53050000I200000J0D01*
G01*
X56090000Y-53050000D01*
G75*
G02*
X56290000Y-53250000I0J-200000D01*
G01*
X56290000Y-53750000D01*
G75*
G02*
X56090000Y-53950000I-200000J0D01*
G01*
X55690000Y-53950000D01*
G75*
G02*
X55490000Y-53750000I0J200000D01*
G01*
G37*
G36*
G01*
X56510000Y-53750000D02*
X56510000Y-53250000D01*
G75*
G02*
X56710000Y-53050000I200000J0D01*
G01*
X57110000Y-53050000D01*
G75*
G02*
X57310000Y-53250000I0J-200000D01*
G01*
X57310000Y-53750000D01*
G75*
G02*
X57110000Y-53950000I-200000J0D01*
G01*
X56710000Y-53950000D01*
G75*
G02*
X56510000Y-53750000I0J200000D01*
G01*
G37*
%TD*%
%TO.C,U1*%
G36*
G01*
X70430000Y-51710000D02*
X70430000Y-51990000D01*
G75*
G02*
X70290000Y-52130000I-140000J0D01*
G01*
X68835000Y-52130000D01*
G75*
G02*
X68695000Y-51990000I0J140000D01*
G01*
X68695000Y-51710000D01*
G75*
G02*
X68835000Y-51570000I140000J0D01*
G01*
X70290000Y-51570000D01*
G75*
G02*
X70430000Y-51710000I0J-140000D01*
G01*
G37*
G36*
G01*
X70430000Y-51210000D02*
X70430000Y-51490000D01*
G75*
G02*
X70290000Y-51630000I-140000J0D01*
G01*
X68835000Y-51630000D01*
G75*
G02*
X68695000Y-51490000I0J140000D01*
G01*
X68695000Y-51210000D01*
G75*
G02*
X68835000Y-51070000I140000J0D01*
G01*
X70290000Y-51070000D01*
G75*
G02*
X70430000Y-51210000I0J-140000D01*
G01*
G37*
G36*
G01*
X70430000Y-50710000D02*
X70430000Y-50990000D01*
G75*
G02*
X70290000Y-51130000I-140000J0D01*
G01*
X68835000Y-51130000D01*
G75*
G02*
X68695000Y-50990000I0J140000D01*
G01*
X68695000Y-50710000D01*
G75*
G02*
X68835000Y-50570000I140000J0D01*
G01*
X70290000Y-50570000D01*
G75*
G02*
X70430000Y-50710000I0J-140000D01*
G01*
G37*
G36*
G01*
X70430000Y-50210000D02*
X70430000Y-50490000D01*
G75*
G02*
X70290000Y-50630000I-140000J0D01*
G01*
X68835000Y-50630000D01*
G75*
G02*
X68695000Y-50490000I0J140000D01*
G01*
X68695000Y-50210000D01*
G75*
G02*
X68835000Y-50070000I140000J0D01*
G01*
X70290000Y-50070000D01*
G75*
G02*
X70430000Y-50210000I0J-140000D01*
G01*
G37*
G36*
G01*
X70430000Y-49710000D02*
X70430000Y-49990000D01*
G75*
G02*
X70290000Y-50130000I-140000J0D01*
G01*
X68835000Y-50130000D01*
G75*
G02*
X68695000Y-49990000I0J140000D01*
G01*
X68695000Y-49710000D01*
G75*
G02*
X68835000Y-49570000I140000J0D01*
G01*
X70290000Y-49570000D01*
G75*
G02*
X70430000Y-49710000I0J-140000D01*
G01*
G37*
G36*
G01*
X70430000Y-49210000D02*
X70430000Y-49490000D01*
G75*
G02*
X70290000Y-49630000I-140000J0D01*
G01*
X68835000Y-49630000D01*
G75*
G02*
X68695000Y-49490000I0J140000D01*
G01*
X68695000Y-49210000D01*
G75*
G02*
X68835000Y-49070000I140000J0D01*
G01*
X70290000Y-49070000D01*
G75*
G02*
X70430000Y-49210000I0J-140000D01*
G01*
G37*
G36*
G01*
X70430000Y-48710000D02*
X70430000Y-48990000D01*
G75*
G02*
X70290000Y-49130000I-140000J0D01*
G01*
X68835000Y-49130000D01*
G75*
G02*
X68695000Y-48990000I0J140000D01*
G01*
X68695000Y-48710000D01*
G75*
G02*
X68835000Y-48570000I140000J0D01*
G01*
X70290000Y-48570000D01*
G75*
G02*
X70430000Y-48710000I0J-140000D01*
G01*
G37*
G36*
G01*
X70430000Y-48210000D02*
X70430000Y-48490000D01*
G75*
G02*
X70290000Y-48630000I-140000J0D01*
G01*
X68835000Y-48630000D01*
G75*
G02*
X68695000Y-48490000I0J140000D01*
G01*
X68695000Y-48210000D01*
G75*
G02*
X68835000Y-48070000I140000J0D01*
G01*
X70290000Y-48070000D01*
G75*
G02*
X70430000Y-48210000I0J-140000D01*
G01*
G37*
G36*
G01*
X70430000Y-47710000D02*
X70430000Y-47990000D01*
G75*
G02*
X70290000Y-48130000I-140000J0D01*
G01*
X68835000Y-48130000D01*
G75*
G02*
X68695000Y-47990000I0J140000D01*
G01*
X68695000Y-47710000D01*
G75*
G02*
X68835000Y-47570000I140000J0D01*
G01*
X70290000Y-47570000D01*
G75*
G02*
X70430000Y-47710000I0J-140000D01*
G01*
G37*
G36*
G01*
X70430000Y-47210000D02*
X70430000Y-47490000D01*
G75*
G02*
X70290000Y-47630000I-140000J0D01*
G01*
X68835000Y-47630000D01*
G75*
G02*
X68695000Y-47490000I0J140000D01*
G01*
X68695000Y-47210000D01*
G75*
G02*
X68835000Y-47070000I140000J0D01*
G01*
X70290000Y-47070000D01*
G75*
G02*
X70430000Y-47210000I0J-140000D01*
G01*
G37*
G36*
G01*
X70430000Y-46710000D02*
X70430000Y-46990000D01*
G75*
G02*
X70290000Y-47130000I-140000J0D01*
G01*
X68835000Y-47130000D01*
G75*
G02*
X68695000Y-46990000I0J140000D01*
G01*
X68695000Y-46710000D01*
G75*
G02*
X68835000Y-46570000I140000J0D01*
G01*
X70290000Y-46570000D01*
G75*
G02*
X70430000Y-46710000I0J-140000D01*
G01*
G37*
G36*
G01*
X70430000Y-46210000D02*
X70430000Y-46490000D01*
G75*
G02*
X70290000Y-46630000I-140000J0D01*
G01*
X68835000Y-46630000D01*
G75*
G02*
X68695000Y-46490000I0J140000D01*
G01*
X68695000Y-46210000D01*
G75*
G02*
X68835000Y-46070000I140000J0D01*
G01*
X70290000Y-46070000D01*
G75*
G02*
X70430000Y-46210000I0J-140000D01*
G01*
G37*
G36*
G01*
X68430000Y-44210000D02*
X68430000Y-45665000D01*
G75*
G02*
X68290000Y-45805000I-140000J0D01*
G01*
X68010000Y-45805000D01*
G75*
G02*
X67870000Y-45665000I0J140000D01*
G01*
X67870000Y-44210000D01*
G75*
G02*
X68010000Y-44070000I140000J0D01*
G01*
X68290000Y-44070000D01*
G75*
G02*
X68430000Y-44210000I0J-140000D01*
G01*
G37*
G36*
G01*
X67930000Y-44210000D02*
X67930000Y-45665000D01*
G75*
G02*
X67790000Y-45805000I-140000J0D01*
G01*
X67510000Y-45805000D01*
G75*
G02*
X67370000Y-45665000I0J140000D01*
G01*
X67370000Y-44210000D01*
G75*
G02*
X67510000Y-44070000I140000J0D01*
G01*
X67790000Y-44070000D01*
G75*
G02*
X67930000Y-44210000I0J-140000D01*
G01*
G37*
G36*
G01*
X67430000Y-44210000D02*
X67430000Y-45665000D01*
G75*
G02*
X67290000Y-45805000I-140000J0D01*
G01*
X67010000Y-45805000D01*
G75*
G02*
X66870000Y-45665000I0J140000D01*
G01*
X66870000Y-44210000D01*
G75*
G02*
X67010000Y-44070000I140000J0D01*
G01*
X67290000Y-44070000D01*
G75*
G02*
X67430000Y-44210000I0J-140000D01*
G01*
G37*
G36*
G01*
X66930000Y-44210000D02*
X66930000Y-45665000D01*
G75*
G02*
X66790000Y-45805000I-140000J0D01*
G01*
X66510000Y-45805000D01*
G75*
G02*
X66370000Y-45665000I0J140000D01*
G01*
X66370000Y-44210000D01*
G75*
G02*
X66510000Y-44070000I140000J0D01*
G01*
X66790000Y-44070000D01*
G75*
G02*
X66930000Y-44210000I0J-140000D01*
G01*
G37*
G36*
G01*
X66430000Y-44210000D02*
X66430000Y-45665000D01*
G75*
G02*
X66290000Y-45805000I-140000J0D01*
G01*
X66010000Y-45805000D01*
G75*
G02*
X65870000Y-45665000I0J140000D01*
G01*
X65870000Y-44210000D01*
G75*
G02*
X66010000Y-44070000I140000J0D01*
G01*
X66290000Y-44070000D01*
G75*
G02*
X66430000Y-44210000I0J-140000D01*
G01*
G37*
G36*
G01*
X65930000Y-44210000D02*
X65930000Y-45665000D01*
G75*
G02*
X65790000Y-45805000I-140000J0D01*
G01*
X65510000Y-45805000D01*
G75*
G02*
X65370000Y-45665000I0J140000D01*
G01*
X65370000Y-44210000D01*
G75*
G02*
X65510000Y-44070000I140000J0D01*
G01*
X65790000Y-44070000D01*
G75*
G02*
X65930000Y-44210000I0J-140000D01*
G01*
G37*
G36*
G01*
X65430000Y-44210000D02*
X65430000Y-45665000D01*
G75*
G02*
X65290000Y-45805000I-140000J0D01*
G01*
X65010000Y-45805000D01*
G75*
G02*
X64870000Y-45665000I0J140000D01*
G01*
X64870000Y-44210000D01*
G75*
G02*
X65010000Y-44070000I140000J0D01*
G01*
X65290000Y-44070000D01*
G75*
G02*
X65430000Y-44210000I0J-140000D01*
G01*
G37*
G36*
G01*
X64930000Y-44210000D02*
X64930000Y-45665000D01*
G75*
G02*
X64790000Y-45805000I-140000J0D01*
G01*
X64510000Y-45805000D01*
G75*
G02*
X64370000Y-45665000I0J140000D01*
G01*
X64370000Y-44210000D01*
G75*
G02*
X64510000Y-44070000I140000J0D01*
G01*
X64790000Y-44070000D01*
G75*
G02*
X64930000Y-44210000I0J-140000D01*
G01*
G37*
G36*
G01*
X64430000Y-44210000D02*
X64430000Y-45665000D01*
G75*
G02*
X64290000Y-45805000I-140000J0D01*
G01*
X64010000Y-45805000D01*
G75*
G02*
X63870000Y-45665000I0J140000D01*
G01*
X63870000Y-44210000D01*
G75*
G02*
X64010000Y-44070000I140000J0D01*
G01*
X64290000Y-44070000D01*
G75*
G02*
X64430000Y-44210000I0J-140000D01*
G01*
G37*
G36*
G01*
X63930000Y-44210000D02*
X63930000Y-45665000D01*
G75*
G02*
X63790000Y-45805000I-140000J0D01*
G01*
X63510000Y-45805000D01*
G75*
G02*
X63370000Y-45665000I0J140000D01*
G01*
X63370000Y-44210000D01*
G75*
G02*
X63510000Y-44070000I140000J0D01*
G01*
X63790000Y-44070000D01*
G75*
G02*
X63930000Y-44210000I0J-140000D01*
G01*
G37*
G36*
G01*
X63430000Y-44210000D02*
X63430000Y-45665000D01*
G75*
G02*
X63290000Y-45805000I-140000J0D01*
G01*
X63010000Y-45805000D01*
G75*
G02*
X62870000Y-45665000I0J140000D01*
G01*
X62870000Y-44210000D01*
G75*
G02*
X63010000Y-44070000I140000J0D01*
G01*
X63290000Y-44070000D01*
G75*
G02*
X63430000Y-44210000I0J-140000D01*
G01*
G37*
G36*
G01*
X62930000Y-44210000D02*
X62930000Y-45665000D01*
G75*
G02*
X62790000Y-45805000I-140000J0D01*
G01*
X62510000Y-45805000D01*
G75*
G02*
X62370000Y-45665000I0J140000D01*
G01*
X62370000Y-44210000D01*
G75*
G02*
X62510000Y-44070000I140000J0D01*
G01*
X62790000Y-44070000D01*
G75*
G02*
X62930000Y-44210000I0J-140000D01*
G01*
G37*
G36*
G01*
X62105000Y-46210000D02*
X62105000Y-46490000D01*
G75*
G02*
X61965000Y-46630000I-140000J0D01*
G01*
X60510000Y-46630000D01*
G75*
G02*
X60370000Y-46490000I0J140000D01*
G01*
X60370000Y-46210000D01*
G75*
G02*
X60510000Y-46070000I140000J0D01*
G01*
X61965000Y-46070000D01*
G75*
G02*
X62105000Y-46210000I0J-140000D01*
G01*
G37*
G36*
G01*
X62105000Y-46710000D02*
X62105000Y-46990000D01*
G75*
G02*
X61965000Y-47130000I-140000J0D01*
G01*
X60510000Y-47130000D01*
G75*
G02*
X60370000Y-46990000I0J140000D01*
G01*
X60370000Y-46710000D01*
G75*
G02*
X60510000Y-46570000I140000J0D01*
G01*
X61965000Y-46570000D01*
G75*
G02*
X62105000Y-46710000I0J-140000D01*
G01*
G37*
G36*
G01*
X62105000Y-47210000D02*
X62105000Y-47490000D01*
G75*
G02*
X61965000Y-47630000I-140000J0D01*
G01*
X60510000Y-47630000D01*
G75*
G02*
X60370000Y-47490000I0J140000D01*
G01*
X60370000Y-47210000D01*
G75*
G02*
X60510000Y-47070000I140000J0D01*
G01*
X61965000Y-47070000D01*
G75*
G02*
X62105000Y-47210000I0J-140000D01*
G01*
G37*
G36*
G01*
X62105000Y-47710000D02*
X62105000Y-47990000D01*
G75*
G02*
X61965000Y-48130000I-140000J0D01*
G01*
X60510000Y-48130000D01*
G75*
G02*
X60370000Y-47990000I0J140000D01*
G01*
X60370000Y-47710000D01*
G75*
G02*
X60510000Y-47570000I140000J0D01*
G01*
X61965000Y-47570000D01*
G75*
G02*
X62105000Y-47710000I0J-140000D01*
G01*
G37*
G36*
G01*
X62105000Y-48210000D02*
X62105000Y-48490000D01*
G75*
G02*
X61965000Y-48630000I-140000J0D01*
G01*
X60510000Y-48630000D01*
G75*
G02*
X60370000Y-48490000I0J140000D01*
G01*
X60370000Y-48210000D01*
G75*
G02*
X60510000Y-48070000I140000J0D01*
G01*
X61965000Y-48070000D01*
G75*
G02*
X62105000Y-48210000I0J-140000D01*
G01*
G37*
G36*
G01*
X62105000Y-48710000D02*
X62105000Y-48990000D01*
G75*
G02*
X61965000Y-49130000I-140000J0D01*
G01*
X60510000Y-49130000D01*
G75*
G02*
X60370000Y-48990000I0J140000D01*
G01*
X60370000Y-48710000D01*
G75*
G02*
X60510000Y-48570000I140000J0D01*
G01*
X61965000Y-48570000D01*
G75*
G02*
X62105000Y-48710000I0J-140000D01*
G01*
G37*
G36*
G01*
X62105000Y-49210000D02*
X62105000Y-49490000D01*
G75*
G02*
X61965000Y-49630000I-140000J0D01*
G01*
X60510000Y-49630000D01*
G75*
G02*
X60370000Y-49490000I0J140000D01*
G01*
X60370000Y-49210000D01*
G75*
G02*
X60510000Y-49070000I140000J0D01*
G01*
X61965000Y-49070000D01*
G75*
G02*
X62105000Y-49210000I0J-140000D01*
G01*
G37*
G36*
G01*
X62105000Y-49710000D02*
X62105000Y-49990000D01*
G75*
G02*
X61965000Y-50130000I-140000J0D01*
G01*
X60510000Y-50130000D01*
G75*
G02*
X60370000Y-49990000I0J140000D01*
G01*
X60370000Y-49710000D01*
G75*
G02*
X60510000Y-49570000I140000J0D01*
G01*
X61965000Y-49570000D01*
G75*
G02*
X62105000Y-49710000I0J-140000D01*
G01*
G37*
G36*
G01*
X62105000Y-50210000D02*
X62105000Y-50490000D01*
G75*
G02*
X61965000Y-50630000I-140000J0D01*
G01*
X60510000Y-50630000D01*
G75*
G02*
X60370000Y-50490000I0J140000D01*
G01*
X60370000Y-50210000D01*
G75*
G02*
X60510000Y-50070000I140000J0D01*
G01*
X61965000Y-50070000D01*
G75*
G02*
X62105000Y-50210000I0J-140000D01*
G01*
G37*
G36*
G01*
X62105000Y-50710000D02*
X62105000Y-50990000D01*
G75*
G02*
X61965000Y-51130000I-140000J0D01*
G01*
X60510000Y-51130000D01*
G75*
G02*
X60370000Y-50990000I0J140000D01*
G01*
X60370000Y-50710000D01*
G75*
G02*
X60510000Y-50570000I140000J0D01*
G01*
X61965000Y-50570000D01*
G75*
G02*
X62105000Y-50710000I0J-140000D01*
G01*
G37*
G36*
G01*
X62105000Y-51210000D02*
X62105000Y-51490000D01*
G75*
G02*
X61965000Y-51630000I-140000J0D01*
G01*
X60510000Y-51630000D01*
G75*
G02*
X60370000Y-51490000I0J140000D01*
G01*
X60370000Y-51210000D01*
G75*
G02*
X60510000Y-51070000I140000J0D01*
G01*
X61965000Y-51070000D01*
G75*
G02*
X62105000Y-51210000I0J-140000D01*
G01*
G37*
G36*
G01*
X62105000Y-51710000D02*
X62105000Y-51990000D01*
G75*
G02*
X61965000Y-52130000I-140000J0D01*
G01*
X60510000Y-52130000D01*
G75*
G02*
X60370000Y-51990000I0J140000D01*
G01*
X60370000Y-51710000D01*
G75*
G02*
X60510000Y-51570000I140000J0D01*
G01*
X61965000Y-51570000D01*
G75*
G02*
X62105000Y-51710000I0J-140000D01*
G01*
G37*
G36*
G01*
X62930000Y-52535000D02*
X62930000Y-53990000D01*
G75*
G02*
X62790000Y-54130000I-140000J0D01*
G01*
X62510000Y-54130000D01*
G75*
G02*
X62370000Y-53990000I0J140000D01*
G01*
X62370000Y-52535000D01*
G75*
G02*
X62510000Y-52395000I140000J0D01*
G01*
X62790000Y-52395000D01*
G75*
G02*
X62930000Y-52535000I0J-140000D01*
G01*
G37*
G36*
G01*
X63430000Y-52535000D02*
X63430000Y-53990000D01*
G75*
G02*
X63290000Y-54130000I-140000J0D01*
G01*
X63010000Y-54130000D01*
G75*
G02*
X62870000Y-53990000I0J140000D01*
G01*
X62870000Y-52535000D01*
G75*
G02*
X63010000Y-52395000I140000J0D01*
G01*
X63290000Y-52395000D01*
G75*
G02*
X63430000Y-52535000I0J-140000D01*
G01*
G37*
G36*
G01*
X63930000Y-52535000D02*
X63930000Y-53990000D01*
G75*
G02*
X63790000Y-54130000I-140000J0D01*
G01*
X63510000Y-54130000D01*
G75*
G02*
X63370000Y-53990000I0J140000D01*
G01*
X63370000Y-52535000D01*
G75*
G02*
X63510000Y-52395000I140000J0D01*
G01*
X63790000Y-52395000D01*
G75*
G02*
X63930000Y-52535000I0J-140000D01*
G01*
G37*
G36*
G01*
X64430000Y-52535000D02*
X64430000Y-53990000D01*
G75*
G02*
X64290000Y-54130000I-140000J0D01*
G01*
X64010000Y-54130000D01*
G75*
G02*
X63870000Y-53990000I0J140000D01*
G01*
X63870000Y-52535000D01*
G75*
G02*
X64010000Y-52395000I140000J0D01*
G01*
X64290000Y-52395000D01*
G75*
G02*
X64430000Y-52535000I0J-140000D01*
G01*
G37*
G36*
G01*
X64930000Y-52535000D02*
X64930000Y-53990000D01*
G75*
G02*
X64790000Y-54130000I-140000J0D01*
G01*
X64510000Y-54130000D01*
G75*
G02*
X64370000Y-53990000I0J140000D01*
G01*
X64370000Y-52535000D01*
G75*
G02*
X64510000Y-52395000I140000J0D01*
G01*
X64790000Y-52395000D01*
G75*
G02*
X64930000Y-52535000I0J-140000D01*
G01*
G37*
G36*
G01*
X65430000Y-52535000D02*
X65430000Y-53990000D01*
G75*
G02*
X65290000Y-54130000I-140000J0D01*
G01*
X65010000Y-54130000D01*
G75*
G02*
X64870000Y-53990000I0J140000D01*
G01*
X64870000Y-52535000D01*
G75*
G02*
X65010000Y-52395000I140000J0D01*
G01*
X65290000Y-52395000D01*
G75*
G02*
X65430000Y-52535000I0J-140000D01*
G01*
G37*
G36*
G01*
X65930000Y-52535000D02*
X65930000Y-53990000D01*
G75*
G02*
X65790000Y-54130000I-140000J0D01*
G01*
X65510000Y-54130000D01*
G75*
G02*
X65370000Y-53990000I0J140000D01*
G01*
X65370000Y-52535000D01*
G75*
G02*
X65510000Y-52395000I140000J0D01*
G01*
X65790000Y-52395000D01*
G75*
G02*
X65930000Y-52535000I0J-140000D01*
G01*
G37*
G36*
G01*
X66430000Y-52535000D02*
X66430000Y-53990000D01*
G75*
G02*
X66290000Y-54130000I-140000J0D01*
G01*
X66010000Y-54130000D01*
G75*
G02*
X65870000Y-53990000I0J140000D01*
G01*
X65870000Y-52535000D01*
G75*
G02*
X66010000Y-52395000I140000J0D01*
G01*
X66290000Y-52395000D01*
G75*
G02*
X66430000Y-52535000I0J-140000D01*
G01*
G37*
G36*
G01*
X66930000Y-52535000D02*
X66930000Y-53990000D01*
G75*
G02*
X66790000Y-54130000I-140000J0D01*
G01*
X66510000Y-54130000D01*
G75*
G02*
X66370000Y-53990000I0J140000D01*
G01*
X66370000Y-52535000D01*
G75*
G02*
X66510000Y-52395000I140000J0D01*
G01*
X66790000Y-52395000D01*
G75*
G02*
X66930000Y-52535000I0J-140000D01*
G01*
G37*
G36*
G01*
X67430000Y-52535000D02*
X67430000Y-53990000D01*
G75*
G02*
X67290000Y-54130000I-140000J0D01*
G01*
X67010000Y-54130000D01*
G75*
G02*
X66870000Y-53990000I0J140000D01*
G01*
X66870000Y-52535000D01*
G75*
G02*
X67010000Y-52395000I140000J0D01*
G01*
X67290000Y-52395000D01*
G75*
G02*
X67430000Y-52535000I0J-140000D01*
G01*
G37*
G36*
G01*
X67930000Y-52535000D02*
X67930000Y-53990000D01*
G75*
G02*
X67790000Y-54130000I-140000J0D01*
G01*
X67510000Y-54130000D01*
G75*
G02*
X67370000Y-53990000I0J140000D01*
G01*
X67370000Y-52535000D01*
G75*
G02*
X67510000Y-52395000I140000J0D01*
G01*
X67790000Y-52395000D01*
G75*
G02*
X67930000Y-52535000I0J-140000D01*
G01*
G37*
G36*
G01*
X68430000Y-52535000D02*
X68430000Y-53990000D01*
G75*
G02*
X68290000Y-54130000I-140000J0D01*
G01*
X68010000Y-54130000D01*
G75*
G02*
X67870000Y-53990000I0J140000D01*
G01*
X67870000Y-52535000D01*
G75*
G02*
X68010000Y-52395000I140000J0D01*
G01*
X68290000Y-52395000D01*
G75*
G02*
X68430000Y-52535000I0J-140000D01*
G01*
G37*
%TD*%
%TO.C,U2*%
G36*
G01*
X48300000Y-39920000D02*
X49100000Y-39920000D01*
G75*
G02*
X49230000Y-40050000I0J-130000D01*
G01*
X49230000Y-40950000D01*
G75*
G02*
X49100000Y-41080000I-130000J0D01*
G01*
X48300000Y-41080000D01*
G75*
G02*
X48170000Y-40950000I0J130000D01*
G01*
X48170000Y-40050000D01*
G75*
G02*
X48300000Y-39920000I130000J0D01*
G01*
G37*
G36*
G01*
X46400000Y-39920000D02*
X47200000Y-39920000D01*
G75*
G02*
X47330000Y-40050000I0J-130000D01*
G01*
X47330000Y-40950000D01*
G75*
G02*
X47200000Y-41080000I-130000J0D01*
G01*
X46400000Y-41080000D01*
G75*
G02*
X46270000Y-40950000I0J130000D01*
G01*
X46270000Y-40050000D01*
G75*
G02*
X46400000Y-39920000I130000J0D01*
G01*
G37*
G36*
G01*
X47350000Y-41920000D02*
X48150000Y-41920000D01*
G75*
G02*
X48280000Y-42050000I0J-130000D01*
G01*
X48280000Y-42950000D01*
G75*
G02*
X48150000Y-43080000I-130000J0D01*
G01*
X47350000Y-43080000D01*
G75*
G02*
X47220000Y-42950000I0J130000D01*
G01*
X47220000Y-42050000D01*
G75*
G02*
X47350000Y-41920000I130000J0D01*
G01*
G37*
%TD*%
%TO.C,U5*%
G36*
G01*
X72710000Y-44880000D02*
X72280000Y-44880000D01*
G75*
G02*
X72065000Y-44665000I0J215000D01*
G01*
X72065000Y-42885000D01*
G75*
G02*
X72280000Y-42670000I215000J0D01*
G01*
X72710000Y-42670000D01*
G75*
G02*
X72925000Y-42885000I0J-215000D01*
G01*
X72925000Y-44665000D01*
G75*
G02*
X72710000Y-44880000I-215000J0D01*
G01*
G37*
G36*
G01*
X73980000Y-44880000D02*
X73550000Y-44880000D01*
G75*
G02*
X73335000Y-44665000I0J215000D01*
G01*
X73335000Y-42885000D01*
G75*
G02*
X73550000Y-42670000I215000J0D01*
G01*
X73980000Y-42670000D01*
G75*
G02*
X74195000Y-42885000I0J-215000D01*
G01*
X74195000Y-44665000D01*
G75*
G02*
X73980000Y-44880000I-215000J0D01*
G01*
G37*
G36*
G01*
X75250000Y-44880000D02*
X74820000Y-44880000D01*
G75*
G02*
X74605000Y-44665000I0J215000D01*
G01*
X74605000Y-42885000D01*
G75*
G02*
X74820000Y-42670000I215000J0D01*
G01*
X75250000Y-42670000D01*
G75*
G02*
X75465000Y-42885000I0J-215000D01*
G01*
X75465000Y-44665000D01*
G75*
G02*
X75250000Y-44880000I-215000J0D01*
G01*
G37*
G36*
G01*
X76520000Y-44880000D02*
X76090000Y-44880000D01*
G75*
G02*
X75875000Y-44665000I0J215000D01*
G01*
X75875000Y-42885000D01*
G75*
G02*
X76090000Y-42670000I215000J0D01*
G01*
X76520000Y-42670000D01*
G75*
G02*
X76735000Y-42885000I0J-215000D01*
G01*
X76735000Y-44665000D01*
G75*
G02*
X76520000Y-44880000I-215000J0D01*
G01*
G37*
G36*
G01*
X76520000Y-39930000D02*
X76090000Y-39930000D01*
G75*
G02*
X75875000Y-39715000I0J215000D01*
G01*
X75875000Y-37935000D01*
G75*
G02*
X76090000Y-37720000I215000J0D01*
G01*
X76520000Y-37720000D01*
G75*
G02*
X76735000Y-37935000I0J-215000D01*
G01*
X76735000Y-39715000D01*
G75*
G02*
X76520000Y-39930000I-215000J0D01*
G01*
G37*
G36*
G01*
X75250000Y-39930000D02*
X74820000Y-39930000D01*
G75*
G02*
X74605000Y-39715000I0J215000D01*
G01*
X74605000Y-37935000D01*
G75*
G02*
X74820000Y-37720000I215000J0D01*
G01*
X75250000Y-37720000D01*
G75*
G02*
X75465000Y-37935000I0J-215000D01*
G01*
X75465000Y-39715000D01*
G75*
G02*
X75250000Y-39930000I-215000J0D01*
G01*
G37*
G36*
G01*
X73980000Y-39930000D02*
X73550000Y-39930000D01*
G75*
G02*
X73335000Y-39715000I0J215000D01*
G01*
X73335000Y-37935000D01*
G75*
G02*
X73550000Y-37720000I215000J0D01*
G01*
X73980000Y-37720000D01*
G75*
G02*
X74195000Y-37935000I0J-215000D01*
G01*
X74195000Y-39715000D01*
G75*
G02*
X73980000Y-39930000I-215000J0D01*
G01*
G37*
G36*
G01*
X72710000Y-39930000D02*
X72280000Y-39930000D01*
G75*
G02*
X72065000Y-39715000I0J215000D01*
G01*
X72065000Y-37935000D01*
G75*
G02*
X72280000Y-37720000I215000J0D01*
G01*
X72710000Y-37720000D01*
G75*
G02*
X72925000Y-37935000I0J-215000D01*
G01*
X72925000Y-39715000D01*
G75*
G02*
X72710000Y-39930000I-215000J0D01*
G01*
G37*
%TD*%
%TO.C,X1*%
G36*
G01*
X76850000Y-57380000D02*
X75650000Y-57380000D01*
G75*
G02*
X75520000Y-57250000I0J130000D01*
G01*
X75520000Y-55850000D01*
G75*
G02*
X75650000Y-55720000I130000J0D01*
G01*
X76850000Y-55720000D01*
G75*
G02*
X76980000Y-55850000I0J-130000D01*
G01*
X76980000Y-57250000D01*
G75*
G02*
X76850000Y-57380000I-130000J0D01*
G01*
G37*
G36*
G01*
X76850000Y-55180000D02*
X75650000Y-55180000D01*
G75*
G02*
X75520000Y-55050000I0J130000D01*
G01*
X75520000Y-53650000D01*
G75*
G02*
X75650000Y-53520000I130000J0D01*
G01*
X76850000Y-53520000D01*
G75*
G02*
X76980000Y-53650000I0J-130000D01*
G01*
X76980000Y-55050000D01*
G75*
G02*
X76850000Y-55180000I-130000J0D01*
G01*
G37*
G36*
G01*
X75150000Y-55180000D02*
X73950000Y-55180000D01*
G75*
G02*
X73820000Y-55050000I0J130000D01*
G01*
X73820000Y-53650000D01*
G75*
G02*
X73950000Y-53520000I130000J0D01*
G01*
X75150000Y-53520000D01*
G75*
G02*
X75280000Y-53650000I0J-130000D01*
G01*
X75280000Y-55050000D01*
G75*
G02*
X75150000Y-55180000I-130000J0D01*
G01*
G37*
G36*
G01*
X75150000Y-57380000D02*
X73950000Y-57380000D01*
G75*
G02*
X73820000Y-57250000I0J130000D01*
G01*
X73820000Y-55850000D01*
G75*
G02*
X73950000Y-55720000I130000J0D01*
G01*
X75150000Y-55720000D01*
G75*
G02*
X75280000Y-55850000I0J-130000D01*
G01*
X75280000Y-57250000D01*
G75*
G02*
X75150000Y-57380000I-130000J0D01*
G01*
G37*
%TD*%
%TO.C,C15*%
G36*
G01*
X74765000Y-45210000D02*
X75235000Y-45210000D01*
G75*
G02*
X75440000Y-45415000I0J-205000D01*
G01*
X75440000Y-45825000D01*
G75*
G02*
X75235000Y-46030000I-205000J0D01*
G01*
X74765000Y-46030000D01*
G75*
G02*
X74560000Y-45825000I0J205000D01*
G01*
X74560000Y-45415000D01*
G75*
G02*
X74765000Y-45210000I205000J0D01*
G01*
G37*
G36*
G01*
X74765000Y-46170000D02*
X75235000Y-46170000D01*
G75*
G02*
X75440000Y-46375000I0J-205000D01*
G01*
X75440000Y-46785000D01*
G75*
G02*
X75235000Y-46990000I-205000J0D01*
G01*
X74765000Y-46990000D01*
G75*
G02*
X74560000Y-46785000I0J205000D01*
G01*
X74560000Y-46375000D01*
G75*
G02*
X74765000Y-46170000I205000J0D01*
G01*
G37*
%TD*%
%TO.C,J6*%
G36*
G01*
X82816765Y-47980000D02*
X81183235Y-47980000D01*
G75*
G02*
X80895000Y-47691765I0J288235D01*
G01*
X80895000Y-46308235D01*
G75*
G02*
X81183235Y-46020000I288235J0D01*
G01*
X82816765Y-46020000D01*
G75*
G02*
X83105000Y-46308235I0J-288235D01*
G01*
X83105000Y-47691765D01*
G75*
G02*
X82816765Y-47980000I-288235J0D01*
G01*
G37*
D11*
X82000000Y-44500000D03*
X82000000Y-42000000D03*
X82000000Y-39500000D03*
%TD*%
%TO.C,J7*%
X82000000Y-53000000D03*
X82000000Y-55500000D03*
X82000000Y-58000000D03*
G36*
G01*
X82816765Y-61480000D02*
X81183235Y-61480000D01*
G75*
G02*
X80895000Y-61191765I0J288235D01*
G01*
X80895000Y-59808235D01*
G75*
G02*
X81183235Y-59520000I288235J0D01*
G01*
X82816765Y-59520000D01*
G75*
G02*
X83105000Y-59808235I0J-288235D01*
G01*
X83105000Y-61191765D01*
G75*
G02*
X82816765Y-61480000I-288235J0D01*
G01*
G37*
%TD*%
%TO.C,U4*%
G36*
G01*
X58440000Y-50495000D02*
X58440000Y-51005000D01*
G75*
G02*
X58310000Y-51135000I-130000J0D01*
G01*
X57610000Y-51135000D01*
G75*
G02*
X57480000Y-51005000I0J130000D01*
G01*
X57480000Y-50495000D01*
G75*
G02*
X57610000Y-50365000I130000J0D01*
G01*
X58310000Y-50365000D01*
G75*
G02*
X58440000Y-50495000I0J-130000D01*
G01*
G37*
G36*
G01*
X58440000Y-49545000D02*
X58440000Y-50055000D01*
G75*
G02*
X58310000Y-50185000I-130000J0D01*
G01*
X57610000Y-50185000D01*
G75*
G02*
X57480000Y-50055000I0J130000D01*
G01*
X57480000Y-49545000D01*
G75*
G02*
X57610000Y-49415000I130000J0D01*
G01*
X58310000Y-49415000D01*
G75*
G02*
X58440000Y-49545000I0J-130000D01*
G01*
G37*
G36*
G01*
X58440000Y-48595000D02*
X58440000Y-49105000D01*
G75*
G02*
X58310000Y-49235000I-130000J0D01*
G01*
X57610000Y-49235000D01*
G75*
G02*
X57480000Y-49105000I0J130000D01*
G01*
X57480000Y-48595000D01*
G75*
G02*
X57610000Y-48465000I130000J0D01*
G01*
X58310000Y-48465000D01*
G75*
G02*
X58440000Y-48595000I0J-130000D01*
G01*
G37*
G36*
G01*
X56120000Y-48595000D02*
X56120000Y-49105000D01*
G75*
G02*
X55990000Y-49235000I-130000J0D01*
G01*
X55290000Y-49235000D01*
G75*
G02*
X55160000Y-49105000I0J130000D01*
G01*
X55160000Y-48595000D01*
G75*
G02*
X55290000Y-48465000I130000J0D01*
G01*
X55990000Y-48465000D01*
G75*
G02*
X56120000Y-48595000I0J-130000D01*
G01*
G37*
G36*
G01*
X56120000Y-49545000D02*
X56120000Y-50055000D01*
G75*
G02*
X55990000Y-50185000I-130000J0D01*
G01*
X55290000Y-50185000D01*
G75*
G02*
X55160000Y-50055000I0J130000D01*
G01*
X55160000Y-49545000D01*
G75*
G02*
X55290000Y-49415000I130000J0D01*
G01*
X55990000Y-49415000D01*
G75*
G02*
X56120000Y-49545000I0J-130000D01*
G01*
G37*
G36*
G01*
X56120000Y-50495000D02*
X56120000Y-51005000D01*
G75*
G02*
X55990000Y-51135000I-130000J0D01*
G01*
X55290000Y-51135000D01*
G75*
G02*
X55160000Y-51005000I0J130000D01*
G01*
X55160000Y-50495000D01*
G75*
G02*
X55290000Y-50365000I130000J0D01*
G01*
X55990000Y-50365000D01*
G75*
G02*
X56120000Y-50495000I0J-130000D01*
G01*
G37*
%TD*%
%TO.C,R14*%
G36*
G01*
X62050000Y-40310000D02*
X61550000Y-40310000D01*
G75*
G02*
X61350000Y-40110000I0J200000D01*
G01*
X61350000Y-39710000D01*
G75*
G02*
X61550000Y-39510000I200000J0D01*
G01*
X62050000Y-39510000D01*
G75*
G02*
X62250000Y-39710000I0J-200000D01*
G01*
X62250000Y-40110000D01*
G75*
G02*
X62050000Y-40310000I-200000J0D01*
G01*
G37*
G36*
G01*
X62050000Y-39290000D02*
X61550000Y-39290000D01*
G75*
G02*
X61350000Y-39090000I0J200000D01*
G01*
X61350000Y-38690000D01*
G75*
G02*
X61550000Y-38490000I200000J0D01*
G01*
X62050000Y-38490000D01*
G75*
G02*
X62250000Y-38690000I0J-200000D01*
G01*
X62250000Y-39090000D01*
G75*
G02*
X62050000Y-39290000I-200000J0D01*
G01*
G37*
%TD*%
%TO.C,R15*%
G36*
G01*
X61050000Y-39290000D02*
X60550000Y-39290000D01*
G75*
G02*
X60350000Y-39090000I0J200000D01*
G01*
X60350000Y-38690000D01*
G75*
G02*
X60550000Y-38490000I200000J0D01*
G01*
X61050000Y-38490000D01*
G75*
G02*
X61250000Y-38690000I0J-200000D01*
G01*
X61250000Y-39090000D01*
G75*
G02*
X61050000Y-39290000I-200000J0D01*
G01*
G37*
G36*
G01*
X61050000Y-40310000D02*
X60550000Y-40310000D01*
G75*
G02*
X60350000Y-40110000I0J200000D01*
G01*
X60350000Y-39710000D01*
G75*
G02*
X60550000Y-39510000I200000J0D01*
G01*
X61050000Y-39510000D01*
G75*
G02*
X61250000Y-39710000I0J-200000D01*
G01*
X61250000Y-40110000D01*
G75*
G02*
X61050000Y-40310000I-200000J0D01*
G01*
G37*
%TD*%
%TO.C,R16*%
G36*
G01*
X60050000Y-40310000D02*
X59550000Y-40310000D01*
G75*
G02*
X59350000Y-40110000I0J200000D01*
G01*
X59350000Y-39710000D01*
G75*
G02*
X59550000Y-39510000I200000J0D01*
G01*
X60050000Y-39510000D01*
G75*
G02*
X60250000Y-39710000I0J-200000D01*
G01*
X60250000Y-40110000D01*
G75*
G02*
X60050000Y-40310000I-200000J0D01*
G01*
G37*
G36*
G01*
X60050000Y-39290000D02*
X59550000Y-39290000D01*
G75*
G02*
X59350000Y-39090000I0J200000D01*
G01*
X59350000Y-38690000D01*
G75*
G02*
X59550000Y-38490000I200000J0D01*
G01*
X60050000Y-38490000D01*
G75*
G02*
X60250000Y-38690000I0J-200000D01*
G01*
X60250000Y-39090000D01*
G75*
G02*
X60050000Y-39290000I-200000J0D01*
G01*
G37*
%TD*%
%TO.C,U3*%
G36*
G01*
X51490000Y-38575000D02*
X51490000Y-37925000D01*
G75*
G02*
X51620000Y-37795000I130000J0D01*
G01*
X52680000Y-37795000D01*
G75*
G02*
X52810000Y-37925000I0J-130000D01*
G01*
X52810000Y-38575000D01*
G75*
G02*
X52680000Y-38705000I-130000J0D01*
G01*
X51620000Y-38705000D01*
G75*
G02*
X51490000Y-38575000I0J130000D01*
G01*
G37*
G36*
G01*
X51490000Y-39525000D02*
X51490000Y-38875000D01*
G75*
G02*
X51620000Y-38745000I130000J0D01*
G01*
X52680000Y-38745000D01*
G75*
G02*
X52810000Y-38875000I0J-130000D01*
G01*
X52810000Y-39525000D01*
G75*
G02*
X52680000Y-39655000I-130000J0D01*
G01*
X51620000Y-39655000D01*
G75*
G02*
X51490000Y-39525000I0J130000D01*
G01*
G37*
G36*
G01*
X51490000Y-40475000D02*
X51490000Y-39825000D01*
G75*
G02*
X51620000Y-39695000I130000J0D01*
G01*
X52680000Y-39695000D01*
G75*
G02*
X52810000Y-39825000I0J-130000D01*
G01*
X52810000Y-40475000D01*
G75*
G02*
X52680000Y-40605000I-130000J0D01*
G01*
X51620000Y-40605000D01*
G75*
G02*
X51490000Y-40475000I0J130000D01*
G01*
G37*
G36*
G01*
X53690000Y-40475000D02*
X53690000Y-39825000D01*
G75*
G02*
X53820000Y-39695000I130000J0D01*
G01*
X54880000Y-39695000D01*
G75*
G02*
X55010000Y-39825000I0J-130000D01*
G01*
X55010000Y-40475000D01*
G75*
G02*
X54880000Y-40605000I-130000J0D01*
G01*
X53820000Y-40605000D01*
G75*
G02*
X53690000Y-40475000I0J130000D01*
G01*
G37*
G36*
G01*
X53690000Y-38575000D02*
X53690000Y-37925000D01*
G75*
G02*
X53820000Y-37795000I130000J0D01*
G01*
X54880000Y-37795000D01*
G75*
G02*
X55010000Y-37925000I0J-130000D01*
G01*
X55010000Y-38575000D01*
G75*
G02*
X54880000Y-38705000I-130000J0D01*
G01*
X53820000Y-38705000D01*
G75*
G02*
X53690000Y-38575000I0J130000D01*
G01*
G37*
%TD*%
D12*
G36*
X52811732Y-39654000D02*
G01*
X52812000Y-39655000D01*
X52812000Y-39695000D01*
X52811000Y-39696732D01*
X52810000Y-39697000D01*
X51490000Y-39697000D01*
X51488268Y-39696000D01*
X51488000Y-39695000D01*
X51488000Y-39655000D01*
X51489000Y-39653268D01*
X51490000Y-39653000D01*
X52810000Y-39653000D01*
X52811732Y-39654000D01*
G37*
G36*
X52811732Y-38704000D02*
G01*
X52812000Y-38705000D01*
X52812000Y-38745000D01*
X52811000Y-38746732D01*
X52810000Y-38747000D01*
X51490000Y-38747000D01*
X51488268Y-38746000D01*
X51488000Y-38745000D01*
X51488000Y-38705000D01*
X51489000Y-38703268D01*
X51490000Y-38703000D01*
X52810000Y-38703000D01*
X52811732Y-38704000D01*
G37*
M02*
